<svg width="32" height="24" viewBox="0 0 32 24" fill="none" xmlns="http://www.w3.org/2000/svg">
<mask id="mask0_1957_20163" style="mask-type:luminance" maskUnits="userSpaceOnUse" x="0" y="0" width="32" height="24">
<rect width="32" height="24" fill="white"/>
</mask>
<g mask="url(#mask0_1957_20163)">
<path fill-rule="evenodd" clip-rule="evenodd" d="M8 0H24V24H8V0Z" fill="#FFD018"/>
<path fill-rule="evenodd" clip-rule="evenodd" d="M0 0H8V24H0V0Z" fill="#2E42A5"/>
<path fill-rule="evenodd" clip-rule="evenodd" d="M24 0H32V24H24V0Z" fill="#E31D1C"/>
<path fill-rule="evenodd" clip-rule="evenodd" d="M16.2928 17.8298C16.4669 17.7809 16.6166 17.4782 16.6166 17.4782C16.6166 17.4782 16.7303 17.567 16.9106 17.6575C17.0908 17.7479 17.2782 17.4782 17.2782 17.4782C17.2782 17.4782 17.5342 17.4782 17.6464 17.1762C17.7587 16.8742 17.4224 16.7447 17.4224 16.7447C17.4224 16.7447 17.8155 16.3318 18.4792 16.3318C19.1429 16.3318 19.6595 16.3318 20.0926 16.148C20.5256 15.9641 20.9464 15.648 21.1039 14.9917C21.2613 14.3353 20.763 13.9219 20.763 13.9219C20.763 13.9219 20.8734 13.9568 21.1039 13.7683C21.3344 13.5797 20.9628 12.9729 20.763 12.9729C20.5633 12.9729 20.5394 13.0852 20.5394 13.0852C20.5394 13.0852 20.416 12.9781 20.2469 12.6138C20.0778 12.2496 20.416 11.9299 20.416 11.9299C20.416 11.9299 20.6013 12.0361 20.763 11.8609C20.9247 11.6857 20.679 11.4172 20.679 11.4172C20.679 11.4172 21.4573 11.1523 21.3448 10.1567C21.2322 9.16108 20.206 9.2177 20.206 9.2177C20.206 9.2177 20.2371 9.05216 20.0926 8.95782C19.948 8.86349 19.8408 9.05216 19.8408 9.05216C19.7274 8.78956 20.0601 8.43032 20.3263 8.14283C20.4088 8.05375 20.4849 7.97155 20.5394 7.90125C20.7698 7.6041 20.6251 7.23698 19.7836 6.83628C18.942 6.43559 18.4826 6.97412 18.4152 7.16494C18.3477 7.35577 18.6088 7.47386 18.6088 7.47386C18.3958 7.66075 17.984 7.73212 17.7032 7.60299C17.4224 7.47385 17.5469 7.08115 17.6049 6.97412C17.6113 6.9624 17.6197 6.94821 17.6295 6.93182C17.7088 6.79842 17.8748 6.51952 17.7032 6.24831C17.5105 5.94376 17.177 5.94376 16.9106 6.1167C16.6825 6.26471 16.3584 6.3432 16.2696 6.36275C16.1809 6.3432 15.8568 6.26471 15.6287 6.1167C15.3623 5.94376 15.0288 5.94376 14.8361 6.24831C14.6645 6.51952 14.8305 6.79842 14.9098 6.93182C14.9196 6.94821 14.928 6.9624 14.9344 6.97412C14.9924 7.08115 15.1169 7.47385 14.8361 7.60299C14.5553 7.73212 14.1435 7.66075 13.9305 7.47386C13.9305 7.47386 14.1916 7.35577 14.1241 7.16494C14.0567 6.97412 13.5972 6.43559 12.7557 6.83628C11.9142 7.23698 11.7695 7.6041 11.9999 7.90125C12.0544 7.97155 12.1305 8.05375 12.213 8.14283C12.4792 8.43033 12.8119 8.78956 12.6985 9.05216C12.6985 9.05216 12.5913 8.86349 12.4467 8.95782C12.3022 9.05216 12.3333 9.2177 12.3333 9.2177C12.3333 9.2177 11.307 9.16108 11.1945 10.1567C11.082 11.1523 11.8602 11.4172 11.8602 11.4172C11.8602 11.4172 11.6146 11.6857 11.7763 11.8609C11.938 12.0361 12.1233 11.9299 12.1233 11.9299C12.1233 11.9299 12.4615 12.2496 12.2924 12.6138C12.1233 12.9781 11.9999 13.0852 11.9999 13.0852C11.9999 13.0852 11.976 12.9729 11.7763 12.9729C11.5765 12.9729 11.2049 13.5797 11.4354 13.7683C11.6659 13.9568 11.7763 13.9219 11.7763 13.9219C11.7763 13.9219 11.278 14.3353 11.4354 14.9917C11.5928 15.648 12.0136 15.9641 12.4467 16.148C12.8798 16.3318 13.3964 16.3318 14.0601 16.3318C14.7238 16.3318 15.1169 16.7447 15.1169 16.7447C15.1169 16.7447 14.7806 16.8742 14.8929 17.1762C15.0051 17.4782 15.2611 17.4782 15.2611 17.4782C15.2611 17.4782 15.4485 17.7479 15.6287 17.6575C15.809 17.567 15.9226 17.4782 15.9226 17.4782C15.9226 17.4782 16.0724 17.7809 16.2464 17.8298V17.8365C16.2542 17.8365 16.2619 17.8359 16.2696 17.8348C16.2773 17.8359 16.2851 17.8365 16.2928 17.8365V17.8298Z" fill="#BF9937"/>
<path fill-rule="evenodd" clip-rule="evenodd" d="M13.2834 8.22766H16.2159H16.2901H19.2225V13.7647C19.2225 13.7647 19.2215 14.2534 18.7048 14.4671C18.1881 14.6807 17.5804 14.6043 17.5804 14.6043C17.5804 14.6043 16.9989 14.4792 16.6919 14.6043C16.5038 14.6809 16.3675 14.7188 16.2901 14.7367V14.7512C16.2901 14.7512 16.2775 14.7496 16.253 14.7447C16.2285 14.7496 16.2159 14.7512 16.2159 14.7512V14.7367C16.1385 14.7188 16.0022 14.6809 15.8141 14.6043C15.5071 14.4792 14.9256 14.6043 14.9256 14.6043C14.9256 14.6043 14.3178 14.6807 13.8012 14.4671C13.2845 14.2534 13.2834 13.7647 13.2834 13.7647V8.22766Z" fill="#BF9937"/>
<mask id="mask1_1957_20163" style="mask-type:luminance" maskUnits="userSpaceOnUse" x="13" y="8" width="7" height="7">
<path fill-rule="evenodd" clip-rule="evenodd" d="M13.2834 8.22766H16.2159H16.2901H19.2225V13.7647C19.2225 13.7647 19.2215 14.2534 18.7048 14.4671C18.1881 14.6807 17.5804 14.6043 17.5804 14.6043C17.5804 14.6043 16.9989 14.4792 16.6919 14.6043C16.5038 14.6809 16.3675 14.7188 16.2901 14.7367V14.7512C16.2901 14.7512 16.2775 14.7496 16.253 14.7447C16.2285 14.7496 16.2159 14.7512 16.2159 14.7512V14.7367C16.1385 14.7188 16.0022 14.6809 15.8141 14.6043C15.5071 14.4792 14.9256 14.6043 14.9256 14.6043C14.9256 14.6043 14.3178 14.6807 13.8012 14.4671C13.2845 14.2534 13.2834 13.7647 13.2834 13.7647V8.22766Z" fill="white"/>
</mask>
<g mask="url(#mask1_1957_20163)">
<rect x="13.2004" y="8.1582" width="2.87984" height="3.07182" fill="#D00F3A"/>
<path fill-rule="evenodd" clip-rule="evenodd" d="M16.4003 8.1582H19.3868V11.23H16.4003V8.1582Z" fill="#FEDF00"/>
<path fill-rule="evenodd" clip-rule="evenodd" d="M16.4003 11.5713H19.2801V14.7569H16.4003V11.5713Z" fill="#FEDF00"/>
<rect x="13.2004" y="11.5713" width="2.87984" height="3.1856" fill="#FEDF00"/>
</g>
</g>
</svg>
