<svg width="32" height="24" viewBox="0 0 32 24" fill="none" xmlns="http://www.w3.org/2000/svg">
<mask id="mask0_1957_20165" style="mask-type:luminance" maskUnits="userSpaceOnUse" x="0" y="0" width="32" height="24">
<rect width="32" height="24" fill="white"/>
</mask>
<g mask="url(#mask0_1957_20165)">
<path fill-rule="evenodd" clip-rule="evenodd" d="M22 0H32V24H22V0Z" fill="#67BD38"/>
<path fill-rule="evenodd" clip-rule="evenodd" d="M10 0H22V24H10V0Z" fill="#D51700"/>
<path fill-rule="evenodd" clip-rule="evenodd" d="M0 0H10V24H0V0Z" fill="#292B2E"/>
<path fill-rule="evenodd" clip-rule="evenodd" d="M13.0669 8.52686L13.357 8.70896C12.8735 9.52282 12.5487 10.2686 12.3807 10.9465C12.4518 11.0121 12.4963 11.0695 12.5418 11.1483C12.673 11.3755 12.7833 11.5961 12.8727 11.8101L12.4871 11.9743C12.4266 11.8294 12.3552 11.6805 12.2731 11.5274C12.2338 11.8581 12.2365 12.1706 12.2809 12.4648C12.3514 12.4721 12.4107 12.4869 12.4792 12.5118C12.7257 12.6016 12.952 12.6996 13.1581 12.8061L12.9682 13.1797C12.7925 13.089 12.5996 13.0042 12.3893 12.9256L12.3935 12.9383C12.5728 13.48 12.8471 13.9784 13.2172 14.4337C13.2751 14.4212 13.329 14.4165 13.3919 14.4165C13.6543 14.4165 13.9005 14.4313 14.1306 14.4608L14.08 14.8769C13.9234 14.8568 13.7578 14.844 13.5831 14.8387C13.9158 15.1715 14.3062 15.4785 14.7549 15.7596L14.5779 16.0579C14.0215 15.7093 13.548 15.3205 13.1579 14.8919C13.107 14.9118 13.0451 14.9381 12.9663 14.9725L12.9367 14.9853C13.2772 15.3423 13.6798 15.6706 14.1447 15.9704L13.964 16.2664C13.4267 15.92 12.9668 15.5352 12.5847 15.1122C12.4023 15.1591 12.2485 15.1581 12.0685 15.1053L12.1805 14.7021C12.2076 14.71 12.2341 14.7159 12.2607 14.7197C11.9059 14.2475 11.6385 13.7326 11.4592 13.1752C11.4275 13.0768 11.4004 12.9766 11.3778 12.8746C11.2389 12.8481 11.1217 12.7959 11 12.7064L11.2431 12.3658C11.2641 12.3813 11.2853 12.3949 11.307 12.4068C11.2635 11.8932 11.3235 11.3388 11.4862 10.7436C11.3843 10.6263 11.322 10.5047 11.2836 10.3466L11.6398 10.2546C11.8318 9.71089 12.1033 9.13557 12.4538 8.5287L12.7461 8.70705C12.364 9.3688 12.0808 9.987 11.8958 10.5617C11.9476 10.6088 12.0111 10.6592 12.0888 10.7168C12.2746 10.0409 12.6011 9.31082 13.0669 8.52686ZM11.9854 11.1615C11.9477 11.1321 11.9025 11.0982 11.8475 11.0577C11.821 11.0382 11.7957 11.0192 11.7715 11.0006C11.642 11.5339 11.6038 12.0266 11.6562 12.4788C11.7186 12.4793 11.7893 12.4767 11.871 12.4715L11.9375 12.4675C11.8821 12.0594 11.8982 11.6241 11.9854 11.1615ZM11.889 12.8887C11.9388 12.8856 11.9823 12.883 12.0208 12.8812C12.0362 12.9384 12.0531 12.9949 12.0717 13.0508C12.2515 13.5945 12.5199 14.0964 12.876 14.5565L12.8066 14.5867C12.7472 14.6127 12.6936 14.6348 12.6446 14.6533C12.2549 14.1717 11.9676 13.6426 11.782 13.0656C11.7641 13.0098 11.7477 12.9533 11.733 12.896C11.782 12.8947 11.8338 12.8922 11.889 12.8887Z" fill="#F7FCFF"/>
<path fill-rule="evenodd" clip-rule="evenodd" d="M18.9466 8.52686L18.6564 8.70896C19.14 9.52282 19.4648 10.2686 19.6327 10.9465C19.5617 11.0121 19.5171 11.0695 19.4717 11.1483C19.3405 11.3755 19.2301 11.5961 19.1407 11.8101L19.5263 11.9743C19.5869 11.8294 19.6582 11.6805 19.7403 11.5274C19.7796 11.8581 19.7769 12.1706 19.7325 12.4648C19.662 12.4721 19.6028 12.4869 19.5343 12.5118C19.2877 12.6016 19.0614 12.6996 18.8553 12.8061L19.0452 13.1797C19.2209 13.089 19.4138 13.0042 19.6241 12.9256L19.6199 12.9383C19.4406 13.48 19.1663 13.9784 18.7962 14.4337C18.7384 14.4212 18.6845 14.4165 18.6215 14.4165C18.3591 14.4165 18.1129 14.4313 17.8828 14.4608L17.9335 14.8769C18.0901 14.8568 18.2557 14.844 18.4303 14.8387C18.0977 15.1715 17.7072 15.4785 17.2586 15.7596L17.4356 16.0579C17.9919 15.7093 18.4655 15.3205 18.8555 14.8919C18.9064 14.9118 18.9683 14.9381 19.0471 14.9725L19.0767 14.9853C18.7362 15.3423 18.3337 15.6706 17.8687 15.9704L18.0494 16.2664C18.5867 15.92 19.0466 15.5352 19.4287 15.1122C19.6111 15.1591 19.7649 15.1581 19.9449 15.1053L19.8329 14.7021C19.8058 14.71 19.7793 14.7159 19.7527 14.7197C20.1076 14.2475 20.3749 13.7326 20.5542 13.1752C20.5859 13.0768 20.613 12.9766 20.6356 12.8746C20.7745 12.8481 20.8918 12.7959 21.0134 12.7064L20.7703 12.3658C20.7493 12.3813 20.7282 12.3949 20.7064 12.4068C20.7499 11.8932 20.6899 11.3388 20.5272 10.7436C20.6291 10.6263 20.6914 10.5047 20.7298 10.3466L20.3737 10.2546C20.1817 9.71089 19.9101 9.13557 19.5596 8.5287L19.2673 8.70705C19.6495 9.3688 19.9326 9.987 20.1176 10.5617C20.0658 10.6088 20.0023 10.6592 19.9247 10.7168C19.7389 10.0409 19.4124 9.31082 18.9466 8.52686ZM20.028 11.1615C20.0657 11.1321 20.1109 11.0982 20.166 11.0577C20.1924 11.0382 20.2177 11.0192 20.2419 11.0006C20.3714 11.5339 20.4096 12.0266 20.3572 12.4788C20.2948 12.4793 20.2241 12.4767 20.1425 12.4715L20.0759 12.4675C20.1314 12.0594 20.1152 11.6241 20.028 11.1615ZM20.1244 12.8887C20.0746 12.8856 20.0311 12.883 19.9927 12.8812C19.9773 12.9384 19.9603 12.9949 19.9418 13.0508C19.7619 13.5945 19.4935 14.0964 19.1374 14.5565L19.2068 14.5867C19.2663 14.6127 19.3198 14.6348 19.3688 14.6533C19.7585 14.1717 20.0458 13.6426 20.2314 13.0656C20.2494 13.0098 20.2657 12.9533 20.2804 12.896C20.2314 12.8947 20.1796 12.8922 20.1244 12.8887Z" fill="#F7FCFF"/>
<path fill-rule="evenodd" clip-rule="evenodd" d="M14.5472 15.4766L13.6111 16.4029C13.6111 16.4029 14.4184 16.8973 15.9398 16.8973C17.4613 16.8973 18.3473 16.4029 18.3473 16.4029L17.6357 15.4766C17.6357 15.4766 16.666 15.8524 15.9792 15.8524C15.2924 15.8524 14.5472 15.4766 14.5472 15.4766Z" fill="#F7FCFF"/>
<path d="M14.5668 16.0677C14.5668 16.0677 15.3593 16.2548 15.9669 16.2548C16.5745 16.2548 17.3671 16.0677 17.3671 16.0677" stroke="#C00001" stroke-width="0.5"/>
<path fill-rule="evenodd" clip-rule="evenodd" d="M16.7602 9.76924C16.7602 10.1359 16.4253 10.4331 16.0122 10.4331C15.5991 10.4331 15.2643 10.1359 15.2643 9.76924C15.2643 9.40258 15.5991 9.10535 16.0122 9.10535C16.4253 9.10535 16.7602 9.40258 16.7602 9.76924ZM14.942 9.27415H14.5341V10.6032H14.1764V10.8298H14.5341V13.2261C14.4857 13.6089 14.3739 13.8254 14.2172 13.9006L13.3843 14.3002H18.3969L18.0367 13.9402C17.7203 13.6241 17.5691 13.381 17.5691 13.2394V10.8298H17.7121V10.6032H17.5691V9.27415H17.1611V10.6032H17.0293L16.7664 10.4332H15.207L14.9853 10.6032H14.942V9.27415ZM14.942 13.2525V10.8298H17.1611V13.2394C17.1611 13.4338 17.253 13.6447 17.4324 13.8809H14.7738C14.8559 13.7156 14.9108 13.5095 14.942 13.2525ZM16.0802 11.9007H15.1963V13.6478H16.9642L16.0802 11.9007Z" fill="#F7FCFF"/>
<path fill-rule="evenodd" clip-rule="evenodd" d="M16.993 7L16.9946 7.00254L16.9942 7.00158L16.993 7ZM18.2855 7.45422L18.2863 7.46202L18.2858 7.45634L18.2855 7.45422ZM18.5365 7.48517L18.5378 7.48135L18.5372 7.48323L18.5365 7.48517ZM17.5203 7.99979L17.5251 7.99974L17.5228 8.00004L17.5203 7.99979Z" fill="#F7FCFF"/>
<path fill-rule="evenodd" clip-rule="evenodd" d="M13.4904 10.7837L13.3233 10.9039L13.4956 11.1569C13.348 11.2098 13.1107 11.344 13.1107 11.6592C13.1107 12.1166 12.9501 12.4914 12.9501 12.4914L13.4299 12.7996C13.4299 12.7996 13.48 12.266 13.6106 11.9626C13.6761 11.8105 13.778 11.7346 13.8634 11.6968L14.6093 12.7917L14.7764 12.6714L13.4904 10.7837Z" fill="#F7FCFF"/>
<path fill-rule="evenodd" clip-rule="evenodd" d="M18.5878 10.7837L18.7549 10.9039L18.5826 11.1569C18.7302 11.2098 18.9675 11.344 18.9675 11.6592C18.9675 12.1166 19.1282 12.4914 19.1282 12.4914L18.6483 12.7996C18.6483 12.7996 18.5983 12.266 18.4676 11.9626C18.4022 11.8105 18.3002 11.7346 18.2148 11.6968L17.4689 12.7917L17.3018 12.6714L18.5878 10.7837Z" fill="#F7FCFF"/>
</g>
</svg>
