<svg width="32" height="24" viewBox="0 0 32 24" fill="none" xmlns="http://www.w3.org/2000/svg">
<mask id="mask0_1957_20166" style="mask-type:luminance" maskUnits="userSpaceOnUse" x="0" y="0" width="32" height="24">
<rect width="32" height="24" fill="white"/>
</mask>
<g mask="url(#mask0_1957_20166)">
<path fill-rule="evenodd" clip-rule="evenodd" d="M0 0H32V24H0V0Z" fill="#1B1B1B"/>
<path fill-rule="evenodd" clip-rule="evenodd" d="M16 12.5L14.6649 14.8746L14.6983 12.2524L12.2591 13.9092L13.6545 11.5587L10.5942 12.1694L13.0752 10.5563L10 10L13.0752 9.4437L10.5942 7.83058L13.6545 8.44128L12.2591 6.09084L14.6983 7.74758L14.6649 5.12536L16 7.5L17.3351 5.12536L17.3017 7.74758L19.7409 6.09084L18.3455 8.44128L21.4058 7.83058L18.9248 9.4437L22 10L18.9248 10.5563L21.4058 12.1694L18.3455 11.5587L19.7409 13.9092L17.3017 12.2524L17.3351 14.8746L16 12.5Z" fill="#F9D313"/>
<rect x="6" y="14" width="20" height="10" fill="#F1F9FF"/>
<rect x="2" y="10" width="28" height="4" fill="#4A80E8"/>
<path fill-rule="evenodd" clip-rule="evenodd" d="M0 6L16 24L32 6V24H0V6Z" fill="#E33534"/>
</g>
</svg>
