<svg width="32" height="24" viewBox="0 0 32 24" fill="none" xmlns="http://www.w3.org/2000/svg">
<mask id="mask0_1957_20167" style="mask-type:luminance" maskUnits="userSpaceOnUse" x="0" y="0" width="32" height="24">
<rect width="32" height="24" fill="white"/>
</mask>
<g mask="url(#mask0_1957_20167)">
<path fill-rule="evenodd" clip-rule="evenodd" d="M0 0V24H32V0H0Z" fill="#2E42A5"/>
<mask id="mask1_1957_20167" style="mask-type:luminance" maskUnits="userSpaceOnUse" x="0" y="0" width="32" height="24">
<path fill-rule="evenodd" clip-rule="evenodd" d="M0 0V24H32V0H0Z" fill="white"/>
</mask>
<g mask="url(#mask1_1957_20167)">
<path fill-rule="evenodd" clip-rule="evenodd" d="M20.943 11.8562L20.9462 12.2066C20.9731 15.1566 21.0819 17.0865 21.2756 18.011C21.4364 18.7787 22.0208 20.0518 22.7082 21.0726C23.5724 22.3561 24.4945 23.1368 25.377 23.1368C26.2627 23.1368 27.1855 22.4108 28.046 21.2011C28.7524 20.2082 29.3573 18.9486 29.5981 18.0204C29.8963 16.8714 30.0352 14.9356 30.0183 12.2035L30.0162 11.8556L29.6983 12.0202C29.0576 12.3518 28.3678 12.5174 27.6257 12.5174C26.8922 12.5174 26.1843 12.2982 25.4977 11.8563L25.3799 11.7805L25.2605 11.8537C24.5359 12.2979 23.855 12.5174 23.2168 12.5174C22.5705 12.5174 21.9205 12.3521 21.2646 12.0194L20.943 11.8562ZM21.4886 17.9695C21.2986 17.0627 21.1902 15.1411 21.1635 12.2048C21.8495 12.5529 22.534 12.7269 23.2168 12.7269C23.8997 12.7269 24.6197 12.4948 25.377 12.0306C26.0984 12.4948 26.8479 12.7269 27.6257 12.7269C28.4035 12.7269 29.1286 12.5529 29.801 12.2048C29.8178 14.9205 29.6799 16.842 29.3874 17.9695C28.9485 19.6607 27.1083 22.9273 25.377 22.9273C23.6458 22.9273 21.7735 19.3297 21.4886 17.9695Z" fill="#FBE625"/>
<path fill-rule="evenodd" clip-rule="evenodd" d="M21.1635 12.2047C21.1635 12.2047 21.2036 16.6092 21.4886 17.9694C21.7735 19.3297 23.6458 22.9272 25.377 22.9272C27.1083 22.9272 28.9485 19.6606 29.3873 17.9694C29.8262 16.2783 29.801 12.2047 29.801 12.2047C29.801 12.2047 28.7923 12.7269 27.6257 12.7269C26.459 12.7269 25.377 12.0305 25.377 12.0305C25.377 12.0305 24.2411 12.7269 23.2168 12.7269C22.1926 12.7269 21.1635 12.2047 21.1635 12.2047Z" fill="#F5FBFF"/>
<mask id="mask2_1957_20167" style="mask-type:luminance" maskUnits="userSpaceOnUse" x="21" y="12" width="9" height="11">
<path fill-rule="evenodd" clip-rule="evenodd" d="M21.1635 12.2047C21.1635 12.2047 21.2036 16.6092 21.4886 17.9694C21.7735 19.3297 23.6458 22.9272 25.377 22.9272C27.1083 22.9272 28.9485 19.6606 29.3873 17.9694C29.8262 16.2783 29.801 12.2047 29.801 12.2047C29.801 12.2047 28.7923 12.7269 27.6257 12.7269C26.459 12.7269 25.377 12.0305 25.377 12.0305C25.377 12.0305 24.2411 12.7269 23.2168 12.7269C22.1926 12.7269 21.1635 12.2047 21.1635 12.2047Z" fill="white"/>
</mask>
<g mask="url(#mask2_1957_20167)">
<path fill-rule="evenodd" clip-rule="evenodd" d="M24.6398 15.4882C24.6398 15.7759 24.2288 16.6133 23.9906 16.8276C23.8144 16.9862 23.8688 16.6177 23.909 16.3458L23.909 16.3457C23.9231 16.2503 23.9354 16.1667 23.9354 16.122L23.9355 16.1024C23.9355 16.0459 23.9355 16.0151 23.9299 15.9854C23.9231 15.9498 23.9082 15.9158 23.8753 15.841L23.8753 15.841C23.863 15.813 23.8482 15.7792 23.8303 15.7375C23.4488 14.9236 23.7187 14.5339 23.8386 14.3608C23.857 14.3343 23.8718 14.3129 23.8802 14.2958C23.8983 14.2592 23.9324 14.2263 23.9705 14.1896C24.0662 14.0973 24.187 13.9807 24.1415 13.7194C24.0778 13.3543 24.4639 12.8859 24.4639 12.8859C24.4639 12.8859 24.3702 13.7943 24.814 13.5717C25.1024 13.4271 25.6251 13.6346 26.09 13.8192C26.3403 13.9186 26.5739 14.0113 26.7452 14.0389C27.091 14.0944 27.2804 13.9492 27.3977 13.8593C27.4463 13.822 27.4825 13.7943 27.5123 13.7943C27.6139 13.7943 27.7339 13.8146 27.7339 13.8889C27.7339 13.9631 27.2785 14.1804 27.0495 14.2482C26.8769 14.2993 27.054 14.4401 27.2024 14.558C27.2509 14.5966 27.2963 14.6327 27.3254 14.6625C27.4437 14.7832 27.552 15.4415 27.2785 15.0274C27.0049 14.6132 26.4227 14.3363 25.9278 14.2958C25.4329 14.2552 24.8088 14.6309 24.7339 15.0274C24.659 15.4239 25.3193 15.3512 25.3193 15.3512C25.3193 15.3512 25.2711 15.413 25.0581 15.4882C24.8452 15.5633 24.6398 15.4882 24.6398 15.4882ZM24.1419 15.457C24.1419 15.5149 24.0933 15.5618 24.0333 15.5618C23.9733 15.5618 23.9247 15.5149 23.9247 15.457C23.9247 15.3992 23.9733 15.3523 24.0333 15.3523C24.0933 15.3523 24.1419 15.3992 24.1419 15.457ZM26.582 17.401C26.2791 17.2966 25.3474 17.3431 25.0957 17.4826C25.0957 17.4826 25.0619 17.2665 24.8929 17.1167C24.724 16.9668 24.6465 16.9546 24.6465 16.9546C24.6465 16.9546 25.0302 17.497 24.6471 17.6237C24.264 17.7503 23.6329 17.3867 23.4284 16.9342C23.224 16.4817 23.1839 15.8381 23.4135 15.3981C23.6431 14.9581 23.1198 15.372 23.0715 15.534C23.0597 15.5739 23.0501 15.6311 23.0399 15.6922C23.0086 15.8792 22.9713 16.1023 22.843 15.9761C22.6727 15.8087 22.2619 15.5158 22.1969 15.5517C22.132 15.5877 22.1723 15.7025 22.2216 15.7915C22.2361 15.8175 22.2779 15.8357 22.3341 15.8602C22.4695 15.9191 22.6884 16.0144 22.8075 16.3438C22.8664 16.5069 22.8985 16.7562 22.933 17.0233C22.9969 17.5194 23.0688 18.0772 23.3351 18.2593C23.7449 18.5395 22.905 18.898 22.905 18.898C22.905 18.898 23.5018 19.0086 23.7904 18.7759C23.9968 18.6094 24.1573 18.6586 24.2845 18.6975C24.335 18.713 24.3803 18.7269 24.4211 18.725C24.4401 18.7241 24.4661 18.7267 24.4981 18.7299C24.7076 18.7508 25.1794 18.798 25.7062 18.0697C25.7341 18.0339 25.7564 18.0046 25.7749 17.9802L25.775 17.9801C25.8245 17.9152 25.847 17.8856 25.8748 17.8624C25.898 17.8431 25.925 17.8282 25.9744 17.8008L25.9744 17.8008L25.9744 17.8008L25.9916 17.7913C26.0307 17.7696 26.1098 17.7399 26.2001 17.706L26.2001 17.706L26.2001 17.706C26.4575 17.6093 26.8062 17.4782 26.582 17.401ZM25.3287 17.8815C25.3793 17.8535 25.4439 17.8733 25.473 17.9258C25.5021 17.9782 25.4847 18.0435 25.4341 18.0716C25.3835 18.0996 25.3189 18.0798 25.2898 18.0273C25.2607 17.9749 25.2781 17.9096 25.3287 17.8815ZM25.8417 14.8742C25.9192 15.1851 26.4656 15.9411 26.7196 16.0762C26.7196 16.0762 26.5569 16.2223 26.5233 16.4456C26.4896 16.6689 26.5216 16.7405 26.5216 16.7405C26.5216 16.7405 26.7674 16.1233 27.0823 16.3756C27.3972 16.6279 27.436 17.3553 27.1678 17.7732C26.8997 18.1911 26.3818 18.5752 25.8877 18.6223C25.3936 18.6694 26.0258 18.8828 26.1879 18.8351C26.2278 18.8234 26.281 18.8002 26.3379 18.7755C26.5116 18.6999 26.7191 18.6096 26.6832 18.786C26.6355 19.02 26.6136 19.5241 26.6791 19.5589C26.7447 19.5938 26.819 19.4975 26.8667 19.4077C26.8807 19.3814 26.8732 19.3364 26.8631 19.2759C26.8388 19.1302 26.7994 18.8948 27.0109 18.6155C27.1156 18.4773 27.3071 18.3146 27.5124 18.1402C27.8937 17.8164 28.3223 17.4523 28.33 17.1297C28.3418 16.6334 29.0999 17.1426 29.0999 17.1426C29.0999 17.1426 28.8676 16.5818 28.5153 16.4666C28.2632 16.3841 28.217 16.2227 28.1804 16.0948C28.1659 16.044 28.1529 15.9985 28.1291 15.9653C28.1179 15.9499 28.106 15.9267 28.0912 15.8981C27.9947 15.7109 27.7773 15.2896 26.8796 15.2444C26.8343 15.2406 26.7975 15.2378 26.767 15.2355C26.6856 15.2294 26.6485 15.2267 26.6139 15.216C26.585 15.207 26.5579 15.1925 26.508 15.1659C26.5025 15.163 26.4968 15.16 26.4907 15.1567C26.4512 15.1357 26.3832 15.0856 26.3055 15.0283L26.3055 15.0283C26.0842 14.8651 25.7845 14.6441 25.8417 14.8742ZM26.9619 15.7033C26.9108 15.6761 26.8922 15.6111 26.9204 15.5582C26.9485 15.5052 27.0128 15.4843 27.0639 15.5114C27.1149 15.5386 27.1335 15.6035 27.1054 15.6565C27.0772 15.7095 27.0129 15.7304 26.9619 15.7033Z" fill="#FF9800"/>
<path fill-rule="evenodd" clip-rule="evenodd" d="M21.4259 19.7523H28.7049V23.2095H21.4259V19.7523Z" fill="#36C6FF"/>
</g>
<rect width="18" height="14" fill="#2B409A"/>
<mask id="mask3_1957_20167" style="mask-type:luminance" maskUnits="userSpaceOnUse" x="0" y="0" width="18" height="14">
<rect width="18" height="14" fill="white"/>
</mask>
<g mask="url(#mask3_1957_20167)">
<path d="M-2.00427 12.9997L1.95668 14.7369L18.0899 1.88866L20.1792 -0.692871L15.9435 -1.27349L9.36317 4.2632L4.06667 7.99363L-2.00427 12.9997Z" fill="#F7FCFF"/>
<path d="M-1.46204 14.217L0.555885 15.2251L19.4289 -0.932617H16.5955L-1.46204 14.217Z" fill="#E31D1C"/>
<path d="M20.0043 12.9997L16.0433 14.7369L-0.0898743 1.88866L-2.17919 -0.692871L2.05648 -1.27349L8.63683 4.2632L13.9333 7.99363L20.0043 12.9997Z" fill="#F7FCFF"/>
<path d="M19.8691 13.8733L17.8512 14.8815L9.81489 7.96351L7.43229 7.19059L-2.3802 -0.683947H0.453194L10.2602 7.00368L12.8651 7.9305L19.8691 13.8733Z" fill="#E31D1C"/>
<mask id="path-15-outside-1_1957_20167" maskUnits="userSpaceOnUse" x="-2" y="-2" width="22" height="18" fill="black">
<rect fill="white" x="-2" y="-2" width="22" height="18"/>
<path fill-rule="evenodd" clip-rule="evenodd" d="M9.98451 0H7.98451V6H0V8H7.98451V14H9.98451V8H18V6H9.98451V0Z"/>
</mask>
<path fill-rule="evenodd" clip-rule="evenodd" d="M9.98451 0H7.98451V6H0V8H7.98451V14H9.98451V8H18V6H9.98451V0Z" fill="#E31D1C"/>
<path d="M7.98451 0V-1.5H6.48451V0H7.98451ZM9.98451 0H11.4845V-1.5H9.98451V0ZM7.98451 6V7.5H9.48451V6H7.98451ZM0 6V4.5H-1.5V6H0ZM0 8H-1.5V9.5H0V8ZM7.98451 8H9.48451V6.5H7.98451V8ZM7.98451 14H6.48451V15.5H7.98451V14ZM9.98451 14V15.5H11.4845V14H9.98451ZM9.98451 8V6.5H8.48451V8H9.98451ZM18 8V9.5H19.5V8H18ZM18 6H19.5V4.5H18V6ZM9.98451 6H8.48451V7.5H9.98451V6ZM7.98451 1.5H9.98451V-1.5H7.98451V1.5ZM9.48451 6V0H6.48451V6H9.48451ZM0 7.5H7.98451V4.5H0V7.5ZM1.5 8V6H-1.5V8H1.5ZM7.98451 6.5H0V9.5H7.98451V6.5ZM9.48451 14V8H6.48451V14H9.48451ZM9.98451 12.5H7.98451V15.5H9.98451V12.5ZM8.48451 8V14H11.4845V8H8.48451ZM18 6.5H9.98451V9.5H18V6.5ZM16.5 6V8H19.5V6H16.5ZM9.98451 7.5H18V4.5H9.98451V7.5ZM8.48451 0V6H11.4845V0H8.48451Z" fill="#F7FCFF" mask="url(#path-15-outside-1_1957_20167)"/>
</g>
</g>
</g>
</svg>
