<svg width="32" height="24" viewBox="0 0 32 24" fill="none" xmlns="http://www.w3.org/2000/svg">
<mask id="mask0_1957_20266" style="mask-type:luminance" maskUnits="userSpaceOnUse" x="0" y="0" width="32" height="24">
<rect width="32" height="24" fill="white"/>
</mask>
<g mask="url(#mask0_1957_20266)">
<path fill-rule="evenodd" clip-rule="evenodd" d="M0 0H32V24H0V0Z" fill="#E31D1C"/>
<path fill-rule="evenodd" clip-rule="evenodd" d="M15.9667 8.0325C16.009 8.02388 16.1147 7.96563 16.3417 7.66728C16.4804 7.48511 16.4741 7.26554 16.4686 7.07506C16.4614 6.82541 16.4556 6.62573 16.7796 6.62573C17.0452 6.62573 17.242 6.54948 17.4068 6.48562C17.5964 6.41214 17.7437 6.35505 17.9049 6.4494C18.1644 6.60131 18.4703 6.62235 18.4701 6.62526C18.4701 6.62573 18.4621 6.62573 18.4448 6.62573C18.3199 6.62573 17.8711 6.88131 18.2182 6.88131C18.3879 6.88131 18.5691 6.759 18.7099 6.66395C18.8569 6.56469 18.9598 6.49517 18.9598 6.62573C18.9598 6.62573 19.0585 6.91424 18.8202 6.93614C18.8202 6.93614 17.7449 7.04122 17.955 7.08848C17.955 7.08848 18.1463 7.16733 18.2773 7.17213C18.2773 7.17213 18.334 7.37137 17.9855 7.42654C17.9855 7.42654 17.0006 7.6094 16.9555 7.92587C16.9442 8.00532 16.9162 8.10978 16.8861 8.22167C16.7963 8.55548 16.6888 8.95552 16.9555 8.95552C17.3118 8.95552 17.5431 8.71157 17.5431 8.43746C17.5431 8.16334 17.5914 7.70031 17.9049 7.67777C17.9049 7.67777 18.6755 7.41756 18.7711 7.43542C18.8071 7.44216 18.8052 7.46581 18.803 7.49267C18.7993 7.53702 18.795 7.59011 18.9598 7.59011C19.2245 7.59011 19.9913 6.95437 20.112 6.70188C20.2327 6.4494 20.414 6.70188 20.414 6.70188C20.414 6.70188 20.5307 7.40868 19.9231 7.66728C19.3156 7.92587 18.9598 7.92587 18.9598 7.92587C18.9598 7.92587 18.581 8.20448 18.8202 8.20448C18.8733 8.20448 18.9397 8.20931 19.0148 8.21477C19.2782 8.23392 19.6483 8.26083 19.9231 8.11425C19.999 8.07378 20.0649 8.03715 20.1217 8.00561C20.3291 7.89034 20.414 7.84317 20.414 7.92587V7.92758C20.414 8.03743 20.4141 8.62205 20.0095 8.62205H18.9598C18.8202 8.62205 18.4896 8.82094 19.0388 8.95552C19.588 9.0901 19.765 9.03386 20.0095 8.95552C20.254 8.87718 20.414 8.83268 20.414 8.95552C20.414 9.07836 20.0786 9.53794 19.7905 9.53794C19.6217 9.53794 19.442 9.45036 19.2933 9.37783C19.1881 9.32656 19.0984 9.28281 19.0388 9.28281C18.8948 9.28281 18.7456 9.53794 18.8202 9.53794C18.8444 9.53794 18.8868 9.57688 18.9441 9.62951C19.0634 9.73917 19.2475 9.90826 19.4664 9.90826C19.6451 9.90826 19.7844 9.87178 19.9093 9.83905C20.011 9.81242 20.1032 9.78827 20.1994 9.78827C20.3237 9.78827 20.376 9.77331 20.398 9.7927C20.414 9.80679 20.414 9.839 20.414 9.90826C20.414 10.0728 19.9859 10.2544 19.7905 10.2544C19.7016 10.2544 19.4829 10.157 19.2707 10.0625C19.0161 9.94911 18.7711 9.83996 18.7711 9.90826C18.7711 10.0335 19.2873 10.7071 19.6052 10.7071H20.1994C20.414 10.7071 20.3289 10.9795 20.3289 10.9795C20.3289 10.9795 20.1211 11.1641 19.8632 11.1641C19.6698 11.1641 19.479 11.0176 19.3296 10.9028C19.2797 10.8646 19.2345 10.8298 19.1954 10.8053C19.0388 10.7071 18.8202 10.631 18.8202 10.8053C18.8202 10.9795 19.3137 11.6756 19.7129 11.6756C19.8723 11.6756 20.0162 11.65 20.1316 11.6295C20.3051 11.5986 20.414 11.5792 20.414 11.6756C20.414 11.8362 20.2285 12.1938 20.0095 12.1148L20.0048 12.1131C19.7808 12.0323 19.0985 11.7862 18.9598 11.5248C18.8202 11.2616 18.565 11.374 18.668 11.5248C18.7711 11.6756 19.3137 12.4555 19.7129 12.5282C19.8188 12.5475 19.924 12.5603 20.0196 12.572C20.2843 12.6043 20.4765 12.6278 20.414 12.7546C20.3289 12.9271 19.9757 13.1682 19.7905 13.0923C19.6052 13.0163 18.9724 12.4346 18.8202 12.1921C18.668 11.9495 18.2773 11.4852 18.2773 11.6756C18.2773 11.7163 18.2701 11.772 18.2619 11.8352C18.2316 12.0676 18.1883 12.401 18.4448 12.457C18.7711 12.5282 18.943 12.8423 18.7711 12.8423C18.5992 12.8423 17.9855 12.6951 17.9855 12.3059C17.9855 11.9166 17.708 11.6981 17.708 11.8074C17.708 11.8198 17.7076 11.835 17.7072 11.8526C17.704 11.9899 17.6973 12.2697 17.8327 12.457C17.9855 12.6683 17.769 12.8408 17.708 12.7546C17.647 12.6683 17.3854 12.2693 17.3854 12.1921C17.3854 12.1148 17.2931 11.9334 17.1846 11.9334C17.0761 11.9334 17.0543 12.1225 17.2573 12.5282C17.4604 12.9339 17.9609 13.2582 18.1191 13.2582C18.2773 13.2582 18.1191 13.622 18.1191 13.622L19.1954 13.9008C19.1954 13.9008 19.6052 13.6895 19.6052 13.622C19.6052 13.5546 19.8195 13.3901 20.0095 13.3901C20.1994 13.3901 20.2145 13.622 20.112 13.622C20.0614 13.622 19.9896 13.6654 19.917 13.7093C19.8426 13.7542 19.7673 13.7997 19.7129 13.7997C19.6052 13.7997 19.2763 14.0299 19.2763 14.0299H20.0095C20.0095 14.0299 19.8921 13.9008 20.1994 13.9008C20.5068 13.9008 20.6333 14.0299 20.6333 14.0299C20.6333 14.0299 20.2869 14.2331 20.1994 14.2331C20.1774 14.2331 20.1495 14.2377 20.1149 14.2433C20.0638 14.2516 19.9979 14.2623 19.9142 14.2643C19.8907 14.2469 19.8768 14.2507 19.8688 14.2646C19.7942 14.2635 19.7069 14.2551 19.6052 14.2331C19.2763 14.1621 19.8632 14.3807 19.8632 14.3807C19.8632 14.3807 19.8504 14.2963 19.8688 14.2646C19.8844 14.2648 19.8996 14.2647 19.9142 14.2643C19.9364 14.2809 19.9671 14.3165 20.0095 14.3807C20.1994 14.6687 20.2285 14.7584 20.0095 14.7584C19.7905 14.7584 19.6052 14.6918 19.6052 14.5362C19.6052 14.3807 19.1954 14.2331 19.1954 14.2331L18.668 14.5362C18.668 14.5362 18.7665 14.7052 18.6057 14.7584C18.4448 14.8117 18.2182 14.7335 18.2182 14.6802C18.2182 14.627 18.2713 14.3807 18.408 14.3807C18.5446 14.3807 18.9598 14.1549 18.9598 14.1549L17.955 13.8547C17.955 13.8547 17.6735 14.1549 17.581 14.1549C17.5336 14.1549 17.4404 13.9633 17.3386 13.7539C17.2417 13.5546 17.137 13.3392 17.0566 13.2582C17.0063 13.2075 16.9616 13.1401 16.9184 13.075C16.8204 12.9272 16.73 12.7908 16.5977 12.8858C16.4073 13.0227 16.3316 13.4445 16.5977 13.7997C16.8639 14.1549 17.3244 14.4356 17.4527 14.4356C17.581 14.4356 17.8327 14.4477 17.8327 14.5362C17.8327 14.6248 17.7208 14.9875 17.4527 14.8339C17.3995 14.8034 17.3457 14.7718 17.2931 14.7409C17.0807 14.616 16.89 14.5039 16.8573 14.5362C16.8166 14.5766 16.9842 15.0334 17.2184 15.1424C17.3213 15.1903 17.4168 15.1868 17.4916 15.184C17.587 15.1805 17.6487 15.1783 17.6487 15.2857C17.6487 15.4774 17.4831 15.691 17.1846 15.4884C17.0527 15.3988 16.9439 15.2809 16.8588 15.1887C16.7513 15.0723 16.6818 14.997 16.6517 15.0719C16.5977 15.2062 16.6206 15.7309 16.8573 15.7309C16.9118 15.7309 16.9624 15.7292 17.008 15.7276C17.1606 15.7222 17.2573 15.7189 17.2573 15.7901C17.2573 15.8826 17.2027 16.277 16.9555 16.1196C16.7084 15.9623 16.5276 15.7661 16.4834 15.6272C16.4392 15.4884 16.1754 15.6267 16.2586 15.822C16.3417 16.0172 16.5438 16.4108 16.5977 16.4108C16.6517 16.4108 15.971 17.6 15.971 17.6L15.9667 16.143L15.9624 17.6C15.9624 17.6 15.2817 16.4108 15.3357 16.4108C15.3896 16.4108 15.5916 16.0172 15.6748 15.822C15.758 15.6267 15.4942 15.4884 15.45 15.6272C15.4058 15.7661 15.225 15.9623 14.9778 16.1196C14.7306 16.277 14.676 15.8826 14.676 15.7901C14.676 15.7189 14.7728 15.7222 14.9254 15.7276C14.971 15.7292 15.0216 15.7309 15.0761 15.7309C15.3128 15.7309 15.3357 15.2062 15.2817 15.0719C15.2516 14.997 15.1821 15.0723 15.0746 15.1887C14.9895 15.2809 14.8807 15.3988 14.7488 15.4884C14.4502 15.691 14.2847 15.4774 14.2847 15.2857C14.2847 15.1783 14.3463 15.1805 14.4418 15.184C14.5165 15.1868 14.6121 15.1903 14.7149 15.1424C14.9492 15.0334 15.1168 14.5766 15.0761 14.5362C15.0434 14.5039 14.8527 14.616 14.6403 14.7409C14.5877 14.7718 14.5338 14.8034 14.4807 14.8339C14.2126 14.9875 14.1007 14.6248 14.1007 14.5362C14.1007 14.4477 14.3524 14.4356 14.4807 14.4356C14.609 14.4356 15.0695 14.1549 15.3357 13.7997C15.6018 13.4445 15.5261 13.0227 15.3357 12.8858C15.2034 12.7908 15.113 12.9272 15.015 13.075C14.9718 13.1401 14.9271 13.2075 14.8768 13.2582C14.7964 13.3392 14.6917 13.5546 14.5948 13.7539C14.493 13.9633 14.3998 14.1549 14.3524 14.1549C14.2599 14.1549 13.9784 13.8547 13.9784 13.8547L12.9736 14.1549C12.9736 14.1549 13.3888 14.3807 13.5254 14.3807C13.662 14.3807 13.7152 14.627 13.7152 14.6802C13.7152 14.7335 13.4886 14.8117 13.3277 14.7584C13.1669 14.7052 13.2653 14.5362 13.2653 14.5362L12.738 14.2331C12.738 14.2331 12.3282 14.3807 12.3282 14.5362C12.3282 14.6918 12.1429 14.7584 11.9239 14.7584C11.7049 14.7584 11.7339 14.6687 11.9239 14.3807C11.9663 14.3165 11.997 14.2809 12.0192 14.2643C12.0338 14.2647 12.0489 14.2648 12.0646 14.2646C12.083 14.2963 12.0702 14.3807 12.0702 14.3807C12.0702 14.3807 12.6571 14.1621 12.3282 14.2331C12.2265 14.2551 12.1392 14.2635 12.0646 14.2646C12.0566 14.2507 12.0427 14.2469 12.0192 14.2643C11.9355 14.2623 11.8696 14.2516 11.8185 14.2433C11.7839 14.2377 11.756 14.2331 11.7339 14.2331C11.6465 14.2331 11.3 14.0299 11.3 14.0299C11.3 14.0299 11.4266 13.9008 11.7339 13.9008C12.0413 13.9008 11.9239 14.0299 11.9239 14.0299H12.6571C12.6571 14.0299 12.3282 13.7997 12.2205 13.7997C12.1661 13.7997 12.0908 13.7542 12.0164 13.7093C11.9438 13.6654 11.872 13.622 11.8214 13.622C11.7189 13.622 11.7339 13.3901 11.9239 13.3901C12.1139 13.3901 12.3282 13.5546 12.3282 13.622C12.3282 13.6895 12.738 13.9008 12.738 13.9008L13.8143 13.622C13.8143 13.622 13.6561 13.2582 13.8143 13.2582C13.9725 13.2582 14.473 12.9339 14.676 12.5282C14.8791 12.1225 14.8573 11.9334 14.7488 11.9334C14.6403 11.9334 14.548 12.1148 14.548 12.1921C14.548 12.2693 14.2864 12.6683 14.2254 12.7546C14.1644 12.8408 13.9479 12.6683 14.1007 12.457C14.2361 12.2697 14.2294 11.9899 14.2262 11.8526C14.2258 11.835 14.2254 11.8198 14.2254 11.8074C14.2254 11.6981 13.9479 11.9166 13.9479 12.3059C13.9479 12.6951 13.3342 12.8423 13.1623 12.8423C12.9904 12.8423 13.1623 12.5282 13.4886 12.457C13.7451 12.401 13.7018 12.0676 13.6715 11.8352C13.6633 11.772 13.6561 11.7163 13.6561 11.6756C13.6561 11.4852 13.2653 11.9495 13.1132 12.1921C12.961 12.4346 12.3282 13.0163 12.1429 13.0923C11.9576 13.1682 11.6045 12.9271 11.5194 12.7546C11.4569 12.6278 11.6491 12.6043 11.9138 12.572C12.0094 12.5603 12.1146 12.5475 12.2205 12.5282C12.6197 12.4555 13.1623 11.6756 13.2653 11.5248C13.3684 11.374 13.1132 11.2616 12.9736 11.5248C12.8349 11.7862 12.1526 12.0323 11.9286 12.1131L11.9239 12.1148C11.7049 12.1938 11.5194 11.8362 11.5194 11.6756C11.5194 11.5792 11.6283 11.5986 11.8018 11.6295C11.9171 11.65 12.0611 11.6756 12.2205 11.6756C12.6197 11.6756 13.1132 10.9795 13.1132 10.8053C13.1132 10.631 12.8946 10.7071 12.738 10.8053C12.6989 10.8298 12.6536 10.8646 12.6038 10.9028C12.4544 11.0176 12.2636 11.1641 12.0702 11.1641C11.8123 11.1641 11.6045 10.9795 11.6045 10.9795C11.6045 10.9795 11.5194 10.7071 11.7339 10.7071H12.3282C12.6461 10.7071 13.1623 10.0335 13.1623 9.90826C13.1623 9.83996 12.9173 9.94911 12.6627 10.0625C12.4505 10.157 12.2318 10.2544 12.1429 10.2544C11.9475 10.2544 11.5194 10.0728 11.5194 9.90826C11.5194 9.839 11.5194 9.80679 11.5354 9.7927C11.5574 9.77331 11.6097 9.78827 11.7339 9.78827C11.8302 9.78827 11.9224 9.81242 12.0241 9.83905C12.149 9.87178 12.2883 9.90826 12.467 9.90826C12.6859 9.90826 12.87 9.73917 12.9893 9.62951C13.0466 9.57688 13.089 9.53794 13.1132 9.53794C13.1878 9.53794 13.0385 9.28281 12.8946 9.28281C12.835 9.28281 12.7453 9.32656 12.6401 9.37783C12.4914 9.45036 12.3117 9.53794 12.1429 9.53794C11.8547 9.53794 11.5194 9.07836 11.5194 8.95552C11.5194 8.83268 11.6794 8.87718 11.9239 8.95552C12.1684 9.03386 12.3454 9.0901 12.8946 8.95552C13.4438 8.82094 13.1132 8.62205 12.9736 8.62205H11.9239C11.5193 8.62205 11.5194 8.03743 11.5194 7.92758L11.5194 7.92587C11.5194 7.84317 11.6043 7.89034 11.8117 8.00561C11.8685 8.03715 11.9344 8.07378 12.0103 8.11425C12.2851 8.26083 12.6552 8.23392 12.9186 8.21477C12.9937 8.20931 13.0601 8.20448 13.1132 8.20448C13.3524 8.20448 12.9736 7.92587 12.9736 7.92587C12.9736 7.92587 12.6178 7.92587 12.0103 7.66728C11.4027 7.40868 11.5194 6.70188 11.5194 6.70188C11.5194 6.70188 11.7007 6.4494 11.8214 6.70188C11.9421 6.95437 12.7089 7.59011 12.9736 7.59011C13.1384 7.59011 13.1341 7.53702 13.1304 7.49267C13.1282 7.46581 13.1263 7.44216 13.1623 7.43542C13.2579 7.41756 14.0285 7.67777 14.0285 7.67777C14.342 7.70031 14.3903 8.16334 14.3903 8.43746C14.3903 8.71157 14.6216 8.95552 14.9778 8.95552C15.2446 8.95552 15.1371 8.55548 15.0473 8.22167C15.0172 8.10978 14.9892 8.00532 14.9778 7.92587C14.9328 7.6094 13.9479 7.42654 13.9479 7.42654C13.5994 7.37137 13.6561 7.17213 13.6561 7.17213C13.7871 7.16733 13.9784 7.08848 13.9784 7.08848C14.1885 7.04122 13.1132 6.93614 13.1132 6.93614C12.8749 6.91424 12.9736 6.62573 12.9736 6.62573C12.9736 6.49517 13.0765 6.56469 13.2235 6.66395C13.3643 6.759 13.5454 6.88131 13.7152 6.88131C14.0623 6.88131 13.6135 6.62573 13.4886 6.62573C13.4713 6.62573 13.4633 6.62573 13.4633 6.62526C13.4631 6.62235 13.769 6.60131 14.0285 6.4494C14.1897 6.35505 14.337 6.41214 14.5266 6.48562C14.6914 6.54948 14.8882 6.62573 15.1538 6.62573C15.4778 6.62573 15.472 6.82541 15.4648 7.07506C15.4593 7.26554 15.453 7.48511 15.5916 7.66728C15.8187 7.96563 15.9244 8.02388 15.9667 8.0325Z" fill="#1A1A1A"/>
</g>
</svg>
