<svg width="32" height="24" viewBox="0 0 32 24" fill="none" xmlns="http://www.w3.org/2000/svg">
<mask id="mask0_1957_20403" style="mask-type:luminance" maskUnits="userSpaceOnUse" x="0" y="0" width="32" height="24">
<rect width="32" height="24" fill="white"/>
</mask>
<g mask="url(#mask0_1957_20403)">
<path fill-rule="evenodd" clip-rule="evenodd" d="M0 0V24H32V0H0Z" fill="#292B2E"/>
<mask id="mask1_1957_20403" style="mask-type:luminance" maskUnits="userSpaceOnUse" x="0" y="0" width="32" height="24">
<path fill-rule="evenodd" clip-rule="evenodd" d="M0 0V24H32V0H0Z" fill="white"/>
</mask>
<g mask="url(#mask1_1957_20403)">
<path fill-rule="evenodd" clip-rule="evenodd" d="M0 0V12H32V0H0Z" fill="#E31D1C"/>
<path d="M14.5737 7.35311L14.8905 6.31006C17.2666 7.03522 18.699 8.3065 19.102 10.1201C19.3693 11.3233 19.2478 12.3988 18.8155 13.3564C18.5075 14.0388 18.1163 14.5481 17.5537 15.1215C16.6158 16.0777 15.0729 16.6879 13.6799 16.4292C12.709 16.2488 11.8146 15.9083 11 15.408L11.5683 14.4783C12.2682 14.9081 13.037 15.2009 13.8781 15.3571C14.884 15.5439 16.0765 15.0723 16.7781 14.3571C17.2587 13.8671 17.5795 13.4495 17.8244 12.907C18.1611 12.1611 18.2554 11.3261 18.0402 10.3571C17.7327 8.97342 16.6059 7.97333 14.5737 7.35311Z" fill="#F9DC44"/>
<g filter="url(#filter0_d_1957_20403)">
<path fill-rule="evenodd" clip-rule="evenodd" d="M14.5092 10.002L13.8042 10.49L14.0529 9.67216L13.3685 9.15593L14.2272 9.13852L14.5092 8.33142L14.7912 9.13852L15.6498 9.15593L14.9654 9.67216L15.2141 10.49L14.5092 10.002Z" fill="#F9DC44"/>
<path fill-rule="evenodd" clip-rule="evenodd" d="M14.5092 10.002L13.8042 10.49L14.0529 9.67216L13.3685 9.15593L14.2272 9.13852L14.5092 8.33142L14.7912 9.13852L15.6498 9.15593L14.9654 9.67216L15.2141 10.49L14.5092 10.002Z" fill="#F9DC44"/>
</g>
<g filter="url(#filter1_d_1957_20403)">
<path fill-rule="evenodd" clip-rule="evenodd" d="M12.8519 10.2955C12.8519 10.2955 11.6017 12.1283 12.5862 12.7984C13.5706 13.4684 18.7762 16.2929 18.7762 16.2929C18.7762 16.2929 19.8518 16.2867 20.0048 16.5156C20.1579 16.7444 20.4762 17.0135 20.6104 17.0135C20.7446 17.0135 21.0912 16.7711 21.0912 16.7711C21.0912 16.7711 21.3614 16.55 21.0912 16.2929C20.821 16.0359 19.3929 15.1556 19.3929 15.1556C19.3929 15.1556 13.8185 11.5981 13.3445 11.2459C12.8705 10.8937 12.8519 10.2955 12.8519 10.2955Z" fill="#F9DC44"/>
<path fill-rule="evenodd" clip-rule="evenodd" d="M12.8519 10.2955C12.8519 10.2955 11.6017 12.1283 12.5862 12.7984C13.5706 13.4684 18.7762 16.2929 18.7762 16.2929C18.7762 16.2929 19.8518 16.2867 20.0048 16.5156C20.1579 16.7444 20.4762 17.0135 20.6104 17.0135C20.7446 17.0135 21.0912 16.7711 21.0912 16.7711C21.0912 16.7711 21.3614 16.55 21.0912 16.2929C20.821 16.0359 19.3929 15.1556 19.3929 15.1556C19.3929 15.1556 13.8185 11.5981 13.3445 11.2459C12.8705 10.8937 12.8519 10.2955 12.8519 10.2955Z" fill="#F9DC44"/>
</g>
<path fill-rule="evenodd" clip-rule="evenodd" d="M15.8943 6L15.6049 6.65548L16.554 7.06635L16.8231 6.4107L15.8943 6ZM17.8341 7.04678L17.3116 7.53707L18.0247 8.28611L18.5286 7.78773L17.8341 7.04678ZM18.548 9.01607L19.2162 8.75722L19.5825 9.70436L18.9286 9.97768L18.548 9.01607ZM19.8495 10.872L19.1334 10.8492L19.1079 11.8831L19.8166 11.887L19.8495 10.872ZM18.9646 12.7712L19.6201 13.0606L19.2094 13.9893L18.5538 13.7202L18.9646 12.7712ZM18.576 15.0045L18.0857 14.482L17.3366 15.195L17.835 15.6989L18.576 15.0045ZM16.6106 15.721L16.8694 16.3891L15.9223 16.7554L15.6489 16.1015L16.6106 15.721ZM14.7594 17.0235L14.7822 16.3073L13.7483 16.2819L13.7444 16.9906L14.7594 17.0235ZM12.8649 16.1376L12.5755 16.7931L11.6467 16.3824L11.9158 15.7267L12.8649 16.1376Z" fill="#F9DC44"/>
</g>
</g>
<defs>
<filter id="filter0_d_1957_20403" x="13.3685" y="8.33142" width="2.28125" height="2.15857" filterUnits="userSpaceOnUse" color-interpolation-filters="sRGB">
<feFlood flood-opacity="0" result="BackgroundImageFix"/>
<feColorMatrix in="SourceAlpha" type="matrix" values="0 0 0 0 0 0 0 0 0 0 0 0 0 0 0 0 0 0 127 0" result="hardAlpha"/>
<feOffset/>
<feColorMatrix type="matrix" values="0 0 0 0 0 0 0 0 0 0 0 0 0 0 0 0 0 0 0.2 0"/>
<feBlend mode="normal" in2="BackgroundImageFix" result="effect1_dropShadow_1957_20403"/>
<feBlend mode="normal" in="SourceGraphic" in2="effect1_dropShadow_1957_20403" result="shape"/>
</filter>
<filter id="filter1_d_1957_20403" x="12.2083" y="10.2955" width="9.00305" height="6.71802" filterUnits="userSpaceOnUse" color-interpolation-filters="sRGB">
<feFlood flood-opacity="0" result="BackgroundImageFix"/>
<feColorMatrix in="SourceAlpha" type="matrix" values="0 0 0 0 0 0 0 0 0 0 0 0 0 0 0 0 0 0 127 0" result="hardAlpha"/>
<feOffset/>
<feColorMatrix type="matrix" values="0 0 0 0 0 0 0 0 0 0 0 0 0 0 0 0 0 0 0.2 0"/>
<feBlend mode="normal" in2="BackgroundImageFix" result="effect1_dropShadow_1957_20403"/>
<feBlend mode="normal" in="SourceGraphic" in2="effect1_dropShadow_1957_20403" result="shape"/>
</filter>
</defs>
</svg>
