<svg width="32" height="24" viewBox="0 0 32 24" fill="none" xmlns="http://www.w3.org/2000/svg">
<mask id="mask0_1957_20168" style="mask-type:luminance" maskUnits="userSpaceOnUse" x="0" y="0" width="32" height="24">
<rect width="32" height="24" fill="white"/>
</mask>
<g mask="url(#mask0_1957_20168)">
<path fill-rule="evenodd" clip-rule="evenodd" d="M0 0V24H32V0H0Z" fill="#F7FCFF"/>
<mask id="mask1_1957_20168" style="mask-type:luminance" maskUnits="userSpaceOnUse" x="0" y="0" width="32" height="24">
<path fill-rule="evenodd" clip-rule="evenodd" d="M0 0V24H32V0H0Z" fill="white"/>
</mask>
<g mask="url(#mask1_1957_20168)">
<path fill-rule="evenodd" clip-rule="evenodd" d="M0 0V7H32V0H0Z" fill="#58A5FF"/>
<path fill-rule="evenodd" clip-rule="evenodd" d="M0 17V24H32V17H0Z" fill="#58A5FF"/>
</g>
</g>
<path fill-rule="evenodd" clip-rule="evenodd" d="M15.3728 8.07456C15.3196 8.04884 15.2555 8.07047 15.2294 8.12288C15.1109 8.36119 15.1989 8.57117 15.2705 8.74214C15.2781 8.76016 15.2854 8.77775 15.2923 8.79489C15.3041 8.82403 15.3165 8.85312 15.3322 8.88899C15.3322 8.88897 15.3691 8.97233 15.379 8.99544C15.398 9.03935 15.414 9.07223 15.4273 9.09957L15.4273 9.09958L15.4273 9.09959L15.4273 9.0996C15.4647 9.17664 15.4808 9.20965 15.4808 9.32133C15.4808 9.37836 15.4794 9.44546 15.4779 9.51874C15.4705 9.87107 15.4602 10.3663 15.5878 10.5728C15.6186 10.6227 15.7723 10.5442 15.8228 10.5139C15.8734 10.4835 15.8544 10.3202 15.8236 10.2704C15.6949 10.0619 15.695 9.63574 15.695 9.34106L15.695 9.32133C15.695 9.17404 15.6719 9.12352 15.6204 9.01129L15.6204 9.01128L15.6203 9.01124C15.6074 8.9831 15.5927 8.95108 15.5762 8.91268C15.5658 8.88851 15.5285 8.80419 15.5288 8.80501C15.5139 8.77087 15.5022 8.74355 15.4914 8.71658C15.4831 8.69615 15.4722 8.67392 15.4604 8.64996C15.4062 8.53959 15.3339 8.3926 15.4217 8.21602C15.4478 8.16361 15.4259 8.10027 15.3728 8.07456ZM16.9425 8.13809C16.9037 8.09367 16.8361 8.08851 16.7917 8.12657C16.5895 8.29962 16.5884 8.52729 16.5876 8.71266C16.5875 8.7322 16.5874 8.75126 16.5871 8.76975C16.5865 8.80118 16.5865 8.83279 16.587 8.87195C16.587 8.87193 16.5883 8.96306 16.5885 8.98823C16.5888 9.03606 16.5906 9.07259 16.5922 9.10295C16.5966 9.18851 16.5985 9.22517 16.5548 9.32797C16.5325 9.38047 16.505 9.44168 16.475 9.50854L16.475 9.50855C16.3306 9.83001 16.1276 10.2819 16.1643 10.5218C16.1732 10.5797 16.3453 10.5676 16.4037 10.5593C16.4621 10.5511 16.5084 10.3934 16.4996 10.3355C16.4625 10.0933 16.6291 9.70108 16.7443 9.42985L16.7443 9.42984L16.752 9.41168C16.8096 9.2761 16.808 9.22054 16.8044 9.09711C16.8035 9.06614 16.8025 9.03091 16.8023 8.98907C16.8021 8.96276 16.8008 8.87058 16.8008 8.87147C16.8003 8.83419 16.8003 8.8045 16.8008 8.77543C16.8012 8.75339 16.7998 8.72866 16.7984 8.70201C16.7916 8.57922 16.7825 8.41568 16.9323 8.28745C16.9768 8.24939 16.9814 8.18252 16.9425 8.13809ZM18.2138 8.71487C18.2693 8.69623 18.3299 8.72632 18.3493 8.78206C18.3687 8.8378 18.3394 8.89809 18.2839 8.91672C18.097 8.97949 18.0441 9.13451 18.0044 9.25091C17.9958 9.27617 17.9878 9.29962 17.9792 9.31991C17.9678 9.34667 17.9567 9.37421 17.9432 9.40894C17.9435 9.40811 17.9102 9.49409 17.9005 9.51855C17.8851 9.55742 17.8728 9.59047 17.862 9.61951L17.862 9.61951C17.8191 9.73528 17.7997 9.7874 17.6956 9.89155L17.6816 9.9055C17.4732 10.1138 17.1718 10.4151 17.1154 10.6535C17.102 10.7106 16.9999 10.8394 16.9427 10.8252C16.8855 10.8109 16.7213 10.7577 16.7348 10.7007C16.7907 10.4645 17.1481 10.1215 17.4025 9.87758L17.4025 9.87758L17.4025 9.87757C17.4554 9.82684 17.5038 9.78038 17.5441 9.74006C17.6231 9.66109 17.6351 9.62639 17.663 9.54543C17.673 9.51668 17.6849 9.48211 17.7026 9.43767C17.7119 9.41428 17.7448 9.32928 17.7448 9.3293C17.759 9.29281 17.7708 9.26349 17.7831 9.23456C17.7903 9.2177 17.7974 9.20023 17.8047 9.18233L17.8048 9.1822L17.8048 9.18213L17.8049 9.18195L17.8049 9.18186L17.805 9.18181C17.8752 9.01027 17.9615 8.79958 18.2138 8.71487ZM19.4143 9.92707C19.4183 9.86819 19.3742 9.81679 19.3158 9.81226C19.0505 9.79165 18.8887 9.95189 18.757 10.0823L18.757 10.0824C18.7431 10.0961 18.7296 10.1095 18.7163 10.1224C18.6937 10.1442 18.6714 10.1666 18.644 10.1946C18.644 10.1946 18.5805 10.26 18.5628 10.2779C18.5292 10.3119 18.5047 10.339 18.4843 10.3616C18.4269 10.4252 18.4024 10.4525 18.2988 10.4943C18.246 10.5156 18.1834 10.5394 18.1151 10.5654L18.1149 10.5654L18.1149 10.5655L18.1148 10.5655L18.1148 10.5655L18.1147 10.5655L18.1147 10.5655C17.7853 10.6907 17.3222 10.8667 17.1785 11.0623C17.1438 11.1096 17.2742 11.2227 17.3213 11.2582C17.3683 11.2936 17.5126 11.2149 17.5473 11.1677C17.6923 10.9702 18.0875 10.8106 18.3608 10.7003L18.3791 10.6929C18.5156 10.6378 18.5538 10.5973 18.6386 10.5076C18.6598 10.485 18.684 10.4594 18.7134 10.4296C18.7319 10.4109 18.7961 10.3448 18.7955 10.3454C18.8216 10.3188 18.8426 10.2977 18.8635 10.2775C18.8793 10.2622 18.8958 10.2438 18.9136 10.2239C18.9957 10.1322 19.1049 10.0102 19.3015 10.0255C19.3599 10.03 19.4104 9.98595 19.4143 9.92707ZM19.9013 11.2247C19.9537 11.2507 19.9753 11.3149 19.9496 11.368C19.9239 11.4211 19.8606 11.4431 19.8082 11.417C19.6316 11.3292 19.4846 11.4014 19.3742 11.4557C19.3503 11.4675 19.328 11.4784 19.3076 11.4866C19.2806 11.4975 19.2533 11.5092 19.2192 11.5241C19.22 11.5238 19.1357 11.561 19.1115 11.5715C19.0731 11.588 19.0411 11.6027 19.0129 11.6156L19.0129 11.6156C18.9007 11.6671 18.8501 11.6903 18.7029 11.6903L18.6831 11.6903C18.3884 11.6903 17.9623 11.6902 17.7538 11.8189C17.704 11.8497 17.5407 11.8686 17.5103 11.8181C17.4799 11.7676 17.4015 11.6139 17.4513 11.5831C17.6579 11.4555 18.1531 11.4658 18.5054 11.4732C18.5787 11.4747 18.6458 11.4761 18.7029 11.4761C18.8145 11.4761 18.8476 11.46 18.9246 11.4226L18.9246 11.4226C18.9519 11.4093 18.9848 11.3933 19.0287 11.3743C19.0519 11.3644 19.1352 11.3275 19.1352 11.3275C19.1711 11.3118 19.2002 11.2994 19.2293 11.2876C19.2464 11.2807 19.264 11.2733 19.282 11.2658C19.453 11.1942 19.663 11.1062 19.9013 11.2247ZM19.8859 12.9238C19.9303 12.8849 19.9355 12.8174 19.8974 12.7729C19.7244 12.5707 19.4967 12.5697 19.3113 12.5688C19.2918 12.5687 19.2727 12.5686 19.2542 12.5683C19.2228 12.5678 19.1912 12.5678 19.152 12.5683C19.1521 12.5683 19.0609 12.5696 19.0358 12.5698C18.9879 12.57 18.9514 12.5719 18.921 12.5735C18.8355 12.5778 18.7988 12.5797 18.696 12.5361C18.6435 12.5138 18.5823 12.4863 18.5154 12.4563C18.194 12.3119 17.7421 12.1089 17.5022 12.1456C17.4443 12.1544 17.4564 12.3266 17.4646 12.385C17.4729 12.4434 17.6306 12.4897 17.6885 12.4808C17.9307 12.4438 18.3229 12.6104 18.5941 12.7256L18.5942 12.7256L18.6123 12.7333C18.7479 12.7908 18.8035 12.7892 18.9269 12.7857C18.9578 12.7848 18.9931 12.7838 19.0349 12.7836C19.0612 12.7834 19.1534 12.782 19.1525 12.7821C19.1898 12.7816 19.2195 12.7816 19.2486 12.7821C19.2706 12.7825 19.2953 12.7811 19.322 12.7796C19.4448 12.7728 19.6083 12.7638 19.7365 12.9136C19.7746 12.9581 19.8415 12.9626 19.8859 12.9238ZM19.3035 14.1821C19.3222 14.2376 19.2921 14.2983 19.2363 14.3176C19.1806 14.337 19.1203 14.3077 19.1017 14.2522C19.0389 14.0653 18.8839 14.0124 18.7675 13.9727C18.7422 13.9641 18.7188 13.9561 18.6985 13.9475C18.6717 13.9361 18.6442 13.925 18.6095 13.9115C18.6103 13.9118 18.5243 13.8786 18.4999 13.8688C18.461 13.8534 18.4279 13.8411 18.3989 13.8303L18.3989 13.8303C18.2831 13.7874 18.231 13.7681 18.1268 13.6639L18.1129 13.65C17.9046 13.4415 17.6033 13.1401 17.3649 13.0838C17.3078 13.0703 17.179 12.9683 17.1932 12.911C17.2075 12.8538 17.2607 12.6897 17.3177 12.7031C17.5539 12.759 17.8969 13.1165 18.1408 13.3708C18.1916 13.4237 18.238 13.4721 18.2783 13.5124C18.3573 13.5914 18.392 13.6034 18.473 13.6314C18.5017 13.6413 18.5363 13.6532 18.5807 13.6709C18.6041 13.6802 18.6891 13.7131 18.6891 13.7131C18.7256 13.7273 18.7549 13.7391 18.7838 13.7514C18.8009 13.7586 18.8185 13.7659 18.8366 13.7733C19.0081 13.8435 19.2188 13.9298 19.3035 14.1821ZM18.0812 15.3728C18.1401 15.3768 18.1915 15.3327 18.196 15.2743C18.2166 15.009 18.0564 14.8472 17.926 14.7156C17.9122 14.7017 17.8988 14.6881 17.8859 14.6748C17.8641 14.6522 17.8417 14.6299 17.8137 14.6025C17.8137 14.6025 17.7483 14.5391 17.7304 14.5214C17.6964 14.4877 17.6693 14.4632 17.6467 14.4429C17.5831 14.3855 17.5558 14.3609 17.514 14.2573C17.4926 14.2044 17.4688 14.1417 17.4428 14.0732C17.3176 13.7438 17.1416 13.2807 16.946 13.137C16.8987 13.1023 16.7856 13.2327 16.7501 13.2798C16.7147 13.3269 16.7934 13.4711 16.8406 13.5058C17.0381 13.6508 17.1976 14.046 17.308 14.3193L17.3154 14.3376C17.3705 14.4741 17.411 14.5123 17.5007 14.5971C17.5233 14.6183 17.5489 14.6425 17.5786 14.6719C17.5974 14.6905 17.6635 14.7547 17.6629 14.754C17.6895 14.7801 17.7106 14.8011 17.7308 14.822C17.7461 14.8378 17.7645 14.8543 17.7844 14.8721L17.7844 14.8721L17.7844 14.8721L17.7844 14.8722C17.876 14.9542 17.9981 15.0634 17.9828 15.26C17.9783 15.3184 18.0224 15.3689 18.0812 15.3728ZM16.7705 15.8548C16.7444 15.9072 16.6802 15.9289 16.6271 15.9031C16.574 15.8774 16.5521 15.8141 16.5781 15.7617C16.6659 15.5851 16.5937 15.4381 16.5395 15.3277L16.5395 15.3277C16.5277 15.3038 16.5168 15.2815 16.5085 15.2611C16.4976 15.2341 16.486 15.2068 16.471 15.1727C16.4714 15.1735 16.4341 15.0892 16.4237 15.065C16.4071 15.0266 16.3924 14.9946 16.3795 14.9664C16.328 14.8542 16.3048 14.8037 16.3048 14.6564L16.3048 14.6366C16.3049 14.342 16.305 13.9158 16.1763 13.7073C16.1455 13.6575 16.1265 13.4942 16.177 13.4638C16.2275 13.4335 16.3813 13.355 16.4121 13.4048C16.5396 13.6114 16.5293 14.1066 16.522 14.459L16.522 14.459C16.5205 14.5323 16.5191 14.5993 16.5191 14.6564C16.5191 14.768 16.5351 14.8011 16.5726 14.8781C16.5859 14.9054 16.6019 14.9383 16.6208 14.9823C16.6308 15.0054 16.6676 15.0887 16.6676 15.0887C16.6834 15.1246 16.6957 15.1537 16.7075 15.1828C16.7144 15.1999 16.7218 15.2175 16.7294 15.2356C16.801 15.4065 16.889 15.6165 16.7705 15.8548ZM15.0573 15.8396C15.0961 15.884 15.1636 15.8892 15.2081 15.8511C15.4103 15.6781 15.4114 15.4504 15.4122 15.265C15.4123 15.2455 15.4124 15.2264 15.4127 15.2079C15.4133 15.1765 15.4132 15.1449 15.4128 15.1057C15.4128 15.1058 15.4114 15.0146 15.4113 14.9895C15.411 14.9416 15.4091 14.9051 15.4076 14.8748V14.8747V14.8747C15.4032 14.7892 15.4013 14.7525 15.4449 14.6497C15.4672 14.5972 15.4947 14.536 15.5248 14.4691C15.6692 14.1477 15.8722 13.6958 15.8355 13.4559C15.8266 13.398 15.6544 13.4101 15.596 13.4184C15.5377 13.4266 15.4913 13.5843 15.5002 13.6422C15.5373 13.8844 15.3707 14.2766 15.2555 14.5479L15.2477 14.566C15.1902 14.7016 15.1918 14.7572 15.1953 14.8806C15.1962 14.9116 15.1972 14.9468 15.1975 14.9886C15.1976 15.0149 15.199 15.1071 15.199 15.1062C15.1994 15.1435 15.1994 15.1732 15.1989 15.2023C15.1986 15.2243 15.1999 15.249 15.2014 15.2757C15.2082 15.3985 15.2173 15.562 15.0674 15.6902C15.023 15.7283 15.0184 15.7952 15.0573 15.8396ZM13.786 15.2627C13.7305 15.2814 13.6698 15.2513 13.6505 15.1955C13.6311 15.1398 13.6604 15.0795 13.7159 15.0609C13.9028 14.9981 13.9557 14.8431 13.9954 14.7267L13.9954 14.7267L13.9954 14.7267C14.004 14.7014 14.012 14.678 14.0206 14.6577C14.0319 14.6309 14.043 14.6034 14.0566 14.5687C14.0563 14.5695 14.0895 14.4835 14.0993 14.4591C14.1147 14.4202 14.127 14.3871 14.1377 14.3581C14.1807 14.2423 14.2 14.1902 14.3042 14.086L14.3181 14.0721C14.5265 13.8638 14.828 13.5625 14.8843 13.3241C14.8978 13.267 14.9998 13.1382 15.057 13.1524C15.1142 13.1667 15.2784 13.2199 15.265 13.2769C15.2091 13.5131 14.8516 13.8561 14.5973 14.1L14.5973 14.1C14.5444 14.1508 14.496 14.1972 14.4557 14.2375C14.3767 14.3165 14.3647 14.3512 14.3367 14.4322C14.3268 14.4609 14.3148 14.4955 14.2972 14.5399C14.2879 14.5633 14.255 14.6483 14.255 14.6483C14.2408 14.6848 14.2289 14.7141 14.2167 14.743C14.2094 14.7601 14.2022 14.7777 14.1948 14.7958L14.1948 14.7958C14.1246 14.9673 14.0383 15.178 13.786 15.2627ZM12.5962 14.0698C12.5932 14.1288 12.6382 14.1794 12.6967 14.1829C12.9623 14.1989 13.1212 14.0359 13.2506 13.9031L13.2506 13.9031L13.2506 13.9031C13.2643 13.8891 13.2776 13.8755 13.2906 13.8624C13.3129 13.8402 13.3348 13.8174 13.3617 13.7889C13.3617 13.7889 13.424 13.7224 13.4414 13.7042C13.4744 13.6696 13.4984 13.6421 13.5184 13.6191C13.5747 13.5546 13.5988 13.5269 13.7016 13.4832C13.7541 13.461 13.8164 13.436 13.8844 13.4088L13.8845 13.4088C14.2116 13.2779 14.6715 13.0938 14.8118 12.8957C14.8457 12.8479 14.7134 12.7371 14.6657 12.7024C14.618 12.6678 14.4751 12.749 14.4412 12.7969C14.2997 12.9968 13.9073 13.1632 13.636 13.2783L13.6179 13.286C13.4823 13.3436 13.4449 13.3847 13.3617 13.4759C13.3408 13.4988 13.3171 13.5248 13.2882 13.5551C13.27 13.5741 13.2069 13.6414 13.2076 13.6407C13.182 13.6679 13.1614 13.6892 13.1408 13.7098C13.1252 13.7254 13.109 13.7441 13.0916 13.7643C13.0112 13.8574 12.9041 13.9813 12.7072 13.9695C12.6488 13.966 12.5991 14.0109 12.5962 14.0698ZM12.0985 12.7529C12.0461 12.7269 12.0244 12.6627 12.0501 12.6096C12.0759 12.5564 12.1392 12.5345 12.1916 12.5606C12.3682 12.6484 12.5152 12.5762 12.6256 12.5219C12.6495 12.5101 12.6717 12.4992 12.6922 12.491C12.7191 12.4801 12.7465 12.4684 12.7806 12.4535C12.7798 12.4538 12.8641 12.4165 12.8883 12.4061C12.9267 12.3896 12.9587 12.3749 12.9869 12.362C13.0991 12.3105 13.1496 12.2873 13.2969 12.2873L13.3166 12.2873C13.6113 12.2873 14.0375 12.2874 14.246 12.1587C14.2958 12.1279 14.4591 12.109 14.4894 12.1595C14.5198 12.21 14.5983 12.3637 14.5484 12.3945C14.3419 12.5221 13.8467 12.5118 13.4943 12.5044L13.4943 12.5044C13.421 12.5029 13.3539 12.5015 13.2969 12.5015C13.1852 12.5015 13.1522 12.5176 13.0752 12.555L13.0752 12.555C13.0478 12.5683 13.0149 12.5843 12.971 12.6033C12.9479 12.6132 12.8646 12.6501 12.8646 12.6501C12.8287 12.6658 12.7996 12.6782 12.7705 12.69C12.7533 12.6969 12.7357 12.7043 12.7177 12.7118C12.5468 12.7834 12.3368 12.8714 12.0985 12.7529ZM12.1139 11.0539C12.0694 11.0928 12.0643 11.1603 12.1023 11.2048C12.2754 11.4069 12.5031 11.408 12.6884 11.4089C12.708 11.409 12.727 11.4091 12.7455 11.4094C12.777 11.4099 12.8086 11.4099 12.8477 11.4094C12.8477 11.4094 12.9388 11.4081 12.964 11.4079C13.0118 11.4077 13.0484 11.4058 13.0787 11.4042H13.0787H13.0787C13.1643 11.3999 13.201 11.398 13.3038 11.4416C13.3562 11.4639 13.4175 11.4914 13.4843 11.5214L13.4843 11.5214L13.4843 11.5214C13.8058 11.6658 14.2576 11.8688 14.4976 11.8321C14.5555 11.8233 14.5434 11.6511 14.5351 11.5927C14.5269 11.5343 14.3692 11.488 14.3113 11.4969C14.0691 11.5339 13.6769 11.3673 13.4056 11.2521L13.3875 11.2444C13.2519 11.1869 13.1963 11.1884 13.0729 11.192C13.0419 11.1929 13.0067 11.1939 12.9649 11.1941C12.9385 11.1943 12.8464 11.1957 12.8473 11.1956C12.81 11.1961 12.7803 11.1961 12.7512 11.1956C12.7292 11.1952 12.7044 11.1966 12.6778 11.1981C12.555 11.2049 12.3915 11.2139 12.2632 11.0641C12.2252 11.0196 12.1583 11.0151 12.1139 11.0539ZM12.6963 9.79551C12.6777 9.74002 12.7078 9.67934 12.7635 9.65997C12.8193 9.6406 12.8796 9.66988 12.8982 9.72537C12.961 9.91232 13.116 9.96518 13.2324 10.0049C13.2576 10.0135 13.2811 10.0215 13.3014 10.0301C13.3281 10.0415 13.3557 10.0526 13.3904 10.0661C13.3896 10.0658 13.4756 10.099 13.5 10.1088C13.5389 10.1242 13.5719 10.1365 13.601 10.1473C13.7168 10.1902 13.7689 10.2095 13.873 10.3137L13.887 10.3276C14.0953 10.5361 14.3966 10.8375 14.635 10.8938C14.692 10.9073 14.8209 11.0093 14.8066 11.0665C14.7924 11.1238 14.7392 11.2879 14.6821 11.2745C14.4459 11.2186 14.103 10.8611 13.8591 10.6068C13.8083 10.5539 13.7619 10.5055 13.7215 10.4652C13.6426 10.3862 13.6079 10.3742 13.5269 10.3462L13.5269 10.3462C13.4982 10.3363 13.4636 10.3244 13.4191 10.3067C13.3957 10.2974 13.3107 10.2645 13.3108 10.2645C13.2743 10.2503 13.245 10.2385 13.216 10.2262C13.199 10.219 13.1814 10.2117 13.1633 10.2043C12.9917 10.1341 12.781 10.0478 12.6963 9.79551ZM13.9186 8.60477C13.8598 8.60081 13.8084 8.64492 13.8038 8.70328C13.7832 8.96862 13.9435 9.13036 14.0739 9.26204C14.0877 9.27592 14.1011 9.28947 14.1139 9.30277C14.1358 9.32538 14.1581 9.34771 14.1862 9.37507C14.1861 9.37506 14.2515 9.43854 14.2694 9.45624C14.3034 9.48987 14.3306 9.51437 14.3532 9.53475C14.4168 9.59214 14.444 9.61673 14.4859 9.72028C14.5072 9.77316 14.5311 9.83589 14.5571 9.90441C14.6823 10.2338 14.8583 10.6969 15.0539 10.8406C15.1011 10.8753 15.2143 10.7449 15.2497 10.6978C15.2852 10.6507 15.2065 10.5065 15.1592 10.4718C14.9618 10.3268 14.8022 9.93157 14.6919 9.65832C14.6894 9.65216 14.6869 9.64606 14.6845 9.64002C14.6293 9.50346 14.5889 9.4653 14.4991 9.38053C14.4766 9.35927 14.451 9.33507 14.4212 9.30565C14.4025 9.28715 14.3364 9.22294 14.337 9.22356C14.3103 9.19751 14.2893 9.17653 14.2691 9.15562C14.2538 9.13976 14.2353 9.12324 14.2155 9.10544C14.1238 9.02343 14.0018 8.91419 14.017 8.71759C14.0216 8.65923 13.9775 8.60872 13.9186 8.60477Z" fill="#FFC125"/>
<path fill-rule="evenodd" clip-rule="evenodd" d="M15.9999 7.9718C15.9497 7.9718 15.9079 8.01069 15.9044 8.06085L15.7321 10.5088H16.2677L16.0955 8.06085C16.0919 8.01069 16.0502 7.9718 15.9999 7.9718ZM20 11.9359C20 11.8856 19.9611 11.8439 19.9109 11.8403L17.4629 11.6681V12.2037L19.9109 12.0314C19.9611 12.0279 20 11.9862 20 11.9359ZM16.0954 15.811C16.0919 15.8611 16.0502 15.9 15.9999 15.9C15.9496 15.9 15.9079 15.8611 15.9044 15.811L15.7321 13.363H16.2677L16.0954 15.811ZM11.9999 11.9359C11.9999 11.9862 12.0388 12.0279 12.0889 12.0315L14.5369 12.2037V11.6681L12.0889 11.8404C12.0388 11.8439 11.9999 11.8857 11.9999 11.9359ZM18.7469 9.17535C18.7855 9.14305 18.8424 9.14605 18.8774 9.18222C18.9123 9.21839 18.9133 9.27541 18.8797 9.31279L17.2384 11.1372L16.8663 10.7519L18.7469 9.17535ZM18.7786 14.7875C18.8148 14.7526 18.8178 14.6956 18.7854 14.6571L17.2089 12.7765L16.8236 13.1485L18.648 14.7898C18.6854 14.8234 18.7424 14.8224 18.7786 14.7875ZM13.2529 14.6965C13.2144 14.7288 13.1574 14.7258 13.1225 14.6896C13.0876 14.6534 13.0866 14.5964 13.1202 14.559L14.7615 12.7346L15.1335 13.1199L13.2529 14.6965ZM13.2213 9.08433C13.1851 9.11926 13.1821 9.17621 13.2144 9.21474L14.791 11.0953L15.1763 10.7233L13.3519 9.08202C13.3145 9.04839 13.2574 9.0494 13.2213 9.08433ZM14.4462 8.37878C14.4307 8.33095 14.4548 8.27927 14.5014 8.26043C14.5481 8.24159 14.6013 8.26202 14.6234 8.30721L15.7001 10.5124L15.2035 10.713L14.4462 8.37878ZM19.7087 10.4509C19.6899 10.4043 19.6382 10.3802 19.5904 10.3957L17.2561 11.153L17.4567 11.6496L19.6619 10.5728C19.7071 10.5508 19.7275 10.4975 19.7087 10.4509ZM17.5536 15.493C17.5692 15.5409 17.545 15.5926 17.4984 15.6114C17.4518 15.6302 17.3985 15.6098 17.3765 15.5646L16.2997 13.3594L16.7963 13.1588L17.5536 15.493ZM12.2912 13.4209C12.31 13.4675 12.3617 13.4916 12.4095 13.4761L14.7438 12.7188L14.5431 12.2222L12.3379 13.299C12.2927 13.321 12.2723 13.3743 12.2912 13.4209ZM17.4402 8.33154C17.463 8.28675 17.5166 8.26725 17.5629 8.2869C17.6092 8.30655 17.6324 8.35864 17.616 8.40619L16.8181 10.7269L16.3251 10.5176L17.4402 8.33154ZM19.682 13.4848C19.7017 13.4385 19.6822 13.3849 19.6374 13.3621L17.4513 12.247L17.2421 12.74L19.5627 13.5379C19.6103 13.5543 19.6624 13.5311 19.682 13.4848ZM14.5597 15.5403C14.5369 15.5851 14.4833 15.6046 14.437 15.5849C14.3907 15.5653 14.3675 15.5132 14.3838 15.4656L15.1818 13.1449L15.6748 13.3542L14.5597 15.5403ZM12.3178 10.387C12.2982 10.4333 12.3177 10.4869 12.3625 10.5098L14.5485 11.6248L14.7578 11.1318L12.4371 10.3339C12.3896 10.3175 12.3375 10.3407 12.3178 10.387Z" fill="#FFC125"/>
<path fill-rule="evenodd" clip-rule="evenodd" d="M16 13.4688C16.8578 13.4688 17.5532 12.7825 17.5532 11.936C17.5532 11.0895 16.8578 10.4032 16 10.4032C15.1422 10.4032 14.4468 11.0895 14.4468 11.936C14.4468 12.7825 15.1422 13.4688 16 13.4688Z" fill="#FFC125"/>
</svg>
