<svg width="32" height="24" viewBox="0 0 32 24" fill="none" xmlns="http://www.w3.org/2000/svg">
<mask id="mask0_1957_20169" style="mask-type:luminance" maskUnits="userSpaceOnUse" x="0" y="0" width="32" height="24">
<rect width="32" height="24" fill="white"/>
</mask>
<g mask="url(#mask0_1957_20169)">
<path fill-rule="evenodd" clip-rule="evenodd" d="M0 0H32V24H0V0Z" fill="#F7FCFF"/>
<path d="M0 -1H-1V0V11.307L-2.848 12L-1 12.693V24V25H0H32L32.3511 23.0637L2.848 12L32.3511 0.936329L32 -1H0Z" fill="#3547A0" stroke="#E31D1C" stroke-width="2"/>
<path fill-rule="evenodd" clip-rule="evenodd" d="M27.4086 8C27.4086 8 26.0328 8.37125 25.5353 8.5062C25.4682 8.52441 25.3401 8.55697 25.3493 8.37424C25.0341 8.57655 24.526 8.78103 24.3177 8.83906C24.2129 8.86826 24.2409 8.68689 24.1961 8.63498C24.1054 8.76869 23.8723 8.96458 23.8062 8.98372C23.1504 9.17349 22.7149 9.31144 22.4998 9.39755C22.4998 9.39755 22.1925 9.69316 22.1925 9.92753C22.1925 10.1619 22.1597 10.3621 21.9482 10.3621C21.7366 10.3621 21.2487 10.7878 21.4274 11.0277C21.6061 11.2676 22.1925 11.1398 22.1925 11.0277C22.1925 10.9155 22.6105 10.7752 22.6105 10.9015C22.6105 11.0277 22.4998 11.256 22.4998 11.256H22.9613L22.6105 11.4375H22.9613L22.6105 11.6525H23.2674L22.8475 11.8397H23.1388L22.9613 12.0862H23.4164C23.4164 12.0862 23.5935 12.2653 23.7604 12.3632C23.9273 12.4611 24.2974 13.2941 24.1123 13.6167C23.9273 13.9393 24.1543 13.9872 24.1961 13.8455C24.2379 13.7038 24.3244 13.5007 24.3987 13.5007C24.473 13.5007 24.6155 13.5007 24.6155 13.5007L24.7162 13.7657L24.9553 14.0212C24.9553 14.0212 24.9723 13.7991 25.0171 13.7657C25.0171 13.7657 25.2038 13.7847 25.2943 13.7628C25.2943 13.7628 25.2541 13.4399 25.2573 13.3964C25.2573 13.3964 25.5466 13.4946 25.6706 13.4924C25.6706 13.4924 25.4844 13.2012 25.4844 13.1018C25.4844 13.1018 25.8303 13.1194 25.8303 13.2665L25.792 12.8994C25.792 12.8994 26.1194 12.7601 26.1308 12.6429L25.9163 12.6166C25.9163 12.6166 26.0277 12.4752 26.0174 12.4473L25.7004 12.4071C25.7004 12.4071 26.0467 12.2865 26.0728 12.2103C26.0728 12.2103 25.9951 12.0882 25.9239 12.0402L25.682 11.8835C25.682 11.8835 26.223 11.887 26.3136 11.887C26.3136 11.887 26.455 11.8361 26.3461 11.7492C26.3461 11.7492 26.2396 11.6851 26.2541 11.6233C26.2541 11.6233 26.3266 11.4842 26.31 11.4599C26.31 11.4599 26.3873 11.5624 26.3873 11.3093C26.3873 11.3093 26.3893 11.0548 26.3405 11.0426C26.3405 11.0426 26.4829 10.9378 26.4269 10.871C26.3709 10.8041 25.7714 10.6262 25.6279 10.6262L26.7264 9.92985C26.7264 9.92985 26.8026 9.64225 26.9141 9.47035C26.9141 9.47035 27.206 9.20828 27.2648 9.00292C27.3236 8.79756 27.4893 8.29108 27.4893 8.29108V8.05929L27.4086 8Z" fill="#9C3900"/>
<path fill-rule="evenodd" clip-rule="evenodd" d="M26.2688 11.4747L26.2687 11.4753L26.2689 11.4764L26.2688 11.4747ZM25.8278 13.2424L25.8357 13.3108C25.8357 13.2871 25.833 13.2643 25.8278 13.2424Z" fill="#212121"/>
<path fill-rule="evenodd" clip-rule="evenodd" d="M26.3028 11.8887C26.3028 11.8887 27.609 12.0626 27.688 12.0626C27.767 12.0626 28.0958 11.9789 27.9832 11.4528C27.8706 10.9267 27.9164 10.6084 27.5941 10.6084C27.2718 10.6084 26.9357 10.7484 26.8147 10.7484C26.6938 10.7484 26.8108 10.7484 26.3028 10.7484C25.7948 10.7484 22.7687 10.7309 22.5508 10.9737C22.3329 11.2164 21.7201 11.5587 21.4362 11.6794C21.1523 11.8002 21.0796 11.7158 20.9519 12.0626C20.8243 12.4093 20.7294 12.4334 20.7294 12.4334L20.9519 12.6817H21.6134C21.6134 12.6817 22.0689 12.1102 23.0144 12.0626C23.9599 12.0149 26.3028 11.8887 26.3028 11.8887Z" fill="white"/>
<path fill-rule="evenodd" clip-rule="evenodd" d="M23.0144 12.0626C23.6447 12.0308 24.7409 11.9729 26.3028 11.8887C27.1736 12.0046 27.6353 12.0626 27.688 12.0626C27.767 12.0626 28.0958 11.9789 27.9832 11.4528C27.9572 11.3316 27.9397 11.2214 27.9242 11.1236C27.8722 10.7969 27.8422 10.6084 27.5941 10.6084C27.3942 10.6084 27.1891 10.6622 27.0332 10.7032C26.9377 10.7282 26.8607 10.7484 26.8147 10.7484H26.3028C26.2766 10.7484 26.2438 10.7484 26.205 10.7483C25.4905 10.7473 22.7575 10.7435 22.5508 10.9737C22.3329 11.2164 21.7201 11.5587 21.4362 11.6794C21.3637 11.7103 21.3049 11.7278 21.2555 11.7424C21.1116 11.7852 21.0469 11.8044 20.9519 12.0626C20.8669 12.2937 20.7927 12.4174 20.7294 12.4334L20.9519 12.6817H21.6134C21.917 12.3007 22.384 12.0943 23.0144 12.0626ZM21.5815 12.6162H20.9819L20.8282 12.4449C20.89 12.3812 20.949 12.2624 21.0143 12.0848C21.0393 12.017 21.0617 11.9671 21.0835 11.9304C21.1232 11.8635 21.1545 11.842 21.2385 11.8158C21.2403 11.8153 21.247 11.8133 21.2561 11.8106C21.2791 11.8036 21.3181 11.7919 21.3347 11.7866C21.3787 11.7726 21.4194 11.7577 21.4625 11.7394C21.8359 11.5805 22.4039 11.2359 22.6005 11.0169C22.6374 10.9758 22.863 10.9292 23.2173 10.8959C23.5373 10.8658 23.9584 10.8447 24.4584 10.8313C25.0155 10.8164 25.5307 10.8127 26.1782 10.8136C26.1749 10.8136 26.2333 10.8137 26.2474 10.8137L26.3028 10.8137H26.8147C26.8494 10.8137 26.8925 10.806 26.9582 10.7899C26.9746 10.7859 27.021 10.7738 27.0643 10.7626C27.0988 10.7536 27.1314 10.7452 27.1453 10.7417C27.3001 10.7028 27.4214 10.6809 27.539 10.6751C27.5577 10.6742 27.576 10.6737 27.5941 10.6737C27.7495 10.6737 27.7946 10.7467 27.8446 11.0479C27.8464 11.0586 27.8513 11.0887 27.8567 11.1225C27.8639 11.1671 27.8721 11.2183 27.8757 11.2404C27.8895 11.3229 27.9027 11.3942 27.9181 11.4662C27.9642 11.6815 27.9358 11.8248 27.8577 11.9116C27.8069 11.9681 27.7341 11.9972 27.6879 11.9972C27.6402 11.9972 27.1705 11.9382 26.2991 11.8234C24.7372 11.9075 23.6412 11.9655 23.0109 11.9972C22.3763 12.0292 21.8982 12.2352 21.5815 12.6162Z" fill="#4D4D4D"/>
<path fill-rule="evenodd" clip-rule="evenodd" d="M20.8964 12.3043C20.8964 12.3043 20.3982 12.6238 20.5811 12.8386C20.764 13.0533 20.7821 13.0805 20.8186 13.0805C20.8186 13.0805 20.8283 12.8506 20.8873 12.8506C20.9463 12.8506 21.4136 13.0739 21.5829 12.6965C21.7523 12.3191 20.8964 12.3043 20.8964 12.3043Z" fill="#FFC221"/>
<path fill-rule="evenodd" clip-rule="evenodd" d="M19.8118 13.3456L20.9584 13.1332L21.3983 13.6094L21.5252 13.1832L21.8404 13.2606V13.4757H21.9568V13.7709L22.7814 13.9432L22.8848 13.6605C22.8848 13.6605 23.1533 14.1036 23.5658 14.0815C23.9782 14.0594 24.0518 14.1763 24.1243 13.8488C24.1968 13.5214 24.3991 13.3456 24.3991 13.3456L24.8803 13.5077C24.8803 13.5077 24.3516 14.1571 24.6044 14.3612L26.489 14.7972L26.4146 15.0255H26.1983L26.2567 15.2221L24.1971 15.0798C24.1971 15.0798 23.9676 15.3706 23.9676 15.2964C23.9676 15.2221 23.9551 15.2221 23.8537 15.2221C23.7523 15.2221 23.6997 15.0798 23.6997 15.0798L23.5658 15.1314C23.5658 15.1314 23.586 15.1342 23.4175 15.0798C23.2491 15.0255 23.1504 15.0255 23.1504 15.0255L22.4547 14.9742V15.0798C22.4547 15.0798 22.2705 15.0891 22.3345 15.1314C22.3985 15.1738 23.6997 15.2221 23.6997 15.2221L23.6204 15.3683C23.6204 15.3683 24.2638 15.3706 24.3991 15.2964C24.5343 15.2221 24.4473 15.4609 24.4473 15.4609H25.0864C25.0864 15.4609 24.9279 15.6109 24.7247 15.6109C24.5216 15.6109 25.308 15.8603 25.308 15.8603C25.308 15.8603 24.869 15.9966 24.6657 15.9065C24.4624 15.8164 24.7519 16.0806 24.8803 16.1474C25.0087 16.2141 24.4287 16.2082 24.1971 15.9507C24.1971 15.9507 24.2699 16.1414 24.1971 16.196C24.1971 16.196 23.7913 15.7179 23.5886 15.7179C23.3859 15.7179 23.6204 16.0331 23.6204 16.0331C23.6204 16.0331 23.5047 15.8683 23.3754 15.9353C23.2461 16.0022 23.1504 16.078 23.1504 16.078C23.1504 16.078 23.0657 15.7859 22.6178 15.6652C22.17 15.5444 22.3203 15.5001 21.9568 15.4609C21.5934 15.4217 21.5751 15.2221 21.5252 15.2221C21.4753 15.2221 21.0908 14.8858 21.0908 14.8858C21.0908 14.8858 21.0054 14.5703 21.2058 14.5703C21.4062 14.5703 21.724 14.476 21.8404 14.5703C21.9568 14.6646 22.006 14.5703 22.006 14.5703H22.2109L22.5043 14.7972H23.0866C23.0866 14.7972 23.1982 14.6248 23.3754 14.5703C23.5526 14.5157 23.3754 14.3612 23.3754 14.3612C23.3754 14.3612 22.9526 14.3853 22.7814 14.4508C22.6102 14.5163 22.7199 14.1338 22.7199 14.1338L21.9568 13.9952L21.8404 14.1338L21.5879 14.2097V14.3612L21.3217 14.3026L21.3983 13.8488L20.7752 14.1338L19.8118 13.3456Z" fill="#FFC221"/>
<path fill-rule="evenodd" clip-rule="evenodd" d="M23.5657 15.1327C23.5726 15.1336 23.5743 15.133 23.5707 15.1307L23.5657 15.1327ZM25.0685 15.4608H25.0198C24.9994 15.4866 24.9785 15.5094 24.9571 15.5293H25.0353C25.0482 15.5138 25.0609 15.4972 25.0734 15.4796L25.0685 15.4608ZM23.6359 16.0545C23.6359 16.0545 23.6275 16.0432 23.6133 16.0231C23.6208 16.0333 23.6284 16.0438 23.6359 16.0545ZM22.3533 15.1402L22.3535 15.14L22.3541 15.1397L22.3533 15.1402Z" fill="#4D4D4D"/>
</g>
</svg>
