<svg width="32" height="24" viewBox="0 0 32 24" fill="none" xmlns="http://www.w3.org/2000/svg">
<mask id="mask0_1957_20407" style="mask-type:luminance" maskUnits="userSpaceOnUse" x="0" y="0" width="32" height="24">
<rect width="32" height="24" fill="white"/>
</mask>
<g mask="url(#mask0_1957_20407)">
<path fill-rule="evenodd" clip-rule="evenodd" d="M22 0H32V24H22V0Z" fill="#2E42A5"/>
<path fill-rule="evenodd" clip-rule="evenodd" d="M10 0H22V24H10V0Z" fill="#F9DC44"/>
<path fill-rule="evenodd" clip-rule="evenodd" d="M0 0H10V24H0V0Z" fill="#2E42A5"/>
<path fill-rule="evenodd" clip-rule="evenodd" d="M18.2216 14.3744C18.378 13.4508 19.4861 11.4433 19.4861 11.4433L20 10.2654L17.9632 10.8347L18.4452 11.0508L17.502 13.3416L16.7895 13.1951V8.77693L17.3532 8.74148L15.963 7L14.6056 8.77693H15.2605V13.1951L14.458 13.3107L13.8855 10.9939L14.216 10.7553L12 10.4034L12.6616 11.455C12.6616 11.455 13.552 13.2574 13.8855 14.3744L15.2605 14.2831V16H16.7895V14.2831L18.2216 14.3744Z" fill="#292B2E"/>
</g>
</svg>
