<svg width="32" height="24" viewBox="0 0 32 24" fill="none" xmlns="http://www.w3.org/2000/svg">
<mask id="mask0_1957_20178" style="mask-type:luminance" maskUnits="userSpaceOnUse" x="0" y="0" width="32" height="24">
<rect width="32" height="24" fill="white"/>
</mask>
<g mask="url(#mask0_1957_20178)">
<rect width="32" height="24" rx="2" fill="#5EAA22"/>
<mask id="path-3-outside-1_1957_20178" maskUnits="userSpaceOnUse" x="-8" y="-3" width="48" height="30" fill="black">
<rect fill="white" x="-8" y="-3" width="48" height="30"/>
<path fill-rule="evenodd" clip-rule="evenodd" d="M16 12L32 0H0L16 12ZM16 12L0 24H32L16 12Z"/>
</mask>
<path fill-rule="evenodd" clip-rule="evenodd" d="M16 12L32 0H0L16 12ZM16 12L0 24H32L16 12Z" fill="#DD2C2B"/>
<path d="M32 0L33.5 2L39.5 -2.5H32V0ZM0 0V-2.5H-7.5L-1.5 2L0 0ZM0 24L-1.5 22L-7.5 26.5H0V24ZM32 24V26.5H39.5L33.5 22L32 24ZM30.5 -2L14.5 10L17.5 14L33.5 2L30.5 -2ZM0 2.5H32V-2.5H0V2.5ZM17.5 10L1.5 -2L-1.5 2L14.5 14L17.5 10ZM14.5 10L-1.5 22L1.5 26L17.5 14L14.5 10ZM0 26.5H32V21.5H0V26.5ZM33.5 22L17.5 10L14.5 14L30.5 26L33.5 22Z" fill="white" mask="url(#path-3-outside-1_1957_20178)"/>
<path fill-rule="evenodd" clip-rule="evenodd" d="M16 18C19.3137 18 22 15.3137 22 12C22 8.68629 19.3137 6 16 6C12.6863 6 10 8.68629 10 12C10 15.3137 12.6863 18 16 18Z" fill="white"/>
<path fill-rule="evenodd" clip-rule="evenodd" d="M15.5643 10.6649L14.6759 10.6746L15.1286 9.91007L14.6759 9.14556L15.5643 9.15529L16.0001 8.38104L16.4359 9.15529L17.3243 9.14556L16.8717 9.91007L17.3243 10.6746L16.4359 10.6649L16.0001 11.4391L15.5643 10.6649Z" fill="#DD2C2B" stroke="#5EAA22" stroke-width="0.25"/>
<path fill-rule="evenodd" clip-rule="evenodd" d="M13.6529 13.7994L12.7645 13.8092L13.2172 13.0446L12.7645 12.2801L13.6529 12.2898L14.0887 11.5156L14.5245 12.2898L15.4129 12.2801L14.9603 13.0446L15.4129 13.8092L14.5245 13.7994L14.0887 14.5737L13.6529 13.7994Z" fill="#DD2C2B" stroke="#5EAA22" stroke-width="0.25"/>
<path fill-rule="evenodd" clip-rule="evenodd" d="M17.4756 13.7994L16.5872 13.8092L17.0398 13.0446L16.5872 12.2801L17.4756 12.2898L17.9114 11.5156L18.3471 12.2898L19.2355 12.2801L18.7829 13.0446L19.2355 13.8092L18.3471 13.7994L17.9114 14.5737L17.4756 13.7994Z" fill="#DD2C2B" stroke="#5EAA22" stroke-width="0.25"/>
</g>
</svg>
