<svg width="32" height="24" viewBox="0 0 32 24" fill="none" xmlns="http://www.w3.org/2000/svg">
<mask id="mask0_1957_20181" style="mask-type:luminance" maskUnits="userSpaceOnUse" x="0" y="0" width="32" height="24">
<rect width="32" height="24" fill="white"/>
</mask>
<g mask="url(#mask0_1957_20181)">
<path fill-rule="evenodd" clip-rule="evenodd" d="M0 0V24H32V0H0Z" fill="#FFD221"/>
<mask id="mask1_1957_20181" style="mask-type:luminance" maskUnits="userSpaceOnUse" x="0" y="0" width="32" height="24">
<path fill-rule="evenodd" clip-rule="evenodd" d="M0 0V24H32V0H0Z" fill="white"/>
</mask>
<g mask="url(#mask1_1957_20181)">
<path d="M-3.06702 10.6152L-1.05903 6.03613L33.7676 21.3081L31.7596 25.8872L-3.06702 10.6152Z" fill="#292B2E"/>
<path d="M-3.01721 5.56956L-1.01006 0.990112L35.5485 17.0135L33.5414 21.593L-3.01721 5.56956Z" fill="#FAF9F9"/>
<path fill-rule="evenodd" clip-rule="evenodd" d="M9.40604 12.2432C8.32703 10.9191 8.50742 10.0236 8.50742 10.0236C8.50742 10.0236 9.61168 10.0639 9.59936 10.776C9.59936 11.0769 9.99545 11.3617 10.3367 11.607C10.5949 11.7927 10.8217 11.9558 10.8217 12.0862C10.8217 12.3889 11.0496 15.4404 11.0496 15.4404C11.0496 15.4404 10.8904 15.7182 10.128 15.7182C9.36558 15.7182 9.40604 15.2791 9.40604 15.2791C9.86827 14.7123 9.40604 12.2432 9.40604 12.2432ZM22.5945 12.2432C23.6735 10.9191 23.4931 10.0236 23.4931 10.0236C23.4931 10.0236 22.3889 10.0639 22.4012 10.776C22.4012 11.0769 22.0051 11.3617 21.6639 11.607C21.4056 11.7927 21.1788 11.9558 21.1788 12.0862C21.1788 12.3889 20.9509 15.4404 20.9509 15.4404C20.9509 15.4404 21.1101 15.7182 21.8725 15.7182C22.635 15.7182 22.5945 15.2791 22.5945 15.2791C22.1323 14.7123 22.5945 12.2432 22.5945 12.2432Z" fill="#CF1225"/>
<path fill-rule="evenodd" clip-rule="evenodd" d="M16.0457 5L16.9028 5.61182L16.3411 5.76188L16.9028 6.24732L16.2035 6.07018V6.56061H16.9028L17.1366 7.71023L16.866 7.51829L16.5954 7.71023L16.3248 7.51829L16.0542 7.71023L15.7754 7.51829L15.4967 7.71023L15.218 7.51829L14.9392 7.71023L15.2903 6.56061H15.9373V5H16.0457ZM19.8681 8.86151C19.8681 8.86151 19.6069 9.09245 19.0466 8.86151C18.8594 8.78437 18.6542 8.64948 18.4402 8.50876C18.0135 8.22823 17.5515 7.92451 17.1265 8.00874C16.4882 8.13523 16.2046 8.43984 16.2046 8.43984V7.73826H16.1272H16.0074H15.9299V8.43984C15.9299 8.43984 15.6463 8.13523 15.0081 8.00874C14.583 7.92451 14.1211 8.22823 13.6944 8.50876C13.4803 8.64948 13.2751 8.78437 13.088 8.86151C12.5277 9.09245 12.2665 8.86151 12.2665 8.86151C12.2665 8.86151 12.2665 9.05701 12.683 9.3581C12.8637 9.48872 13.0703 9.47931 13.2464 9.4268C13.116 9.52516 13.0528 9.64072 13.2606 9.73332C13.6912 9.92523 14.399 9.42017 14.4766 9.36326C14.3902 9.42753 13.5347 10.0709 13.9268 10.0709C14.3395 10.0709 15.0081 9.53009 15.0081 9.53009C15.0081 9.53009 14.1968 10.3085 14.6333 10.4297C14.9111 10.5069 15.2428 10.1021 15.3987 9.86225C15.4037 9.91322 15.4505 9.94441 15.5016 9.9784C15.5669 10.022 15.6392 10.0701 15.6392 10.1703C15.6392 10.2987 15.6711 10.3208 15.699 10.3401C15.7208 10.3552 15.7402 10.3686 15.7402 10.4297V10.6072L15.6392 10.7562C15.6392 10.7562 15.6392 10.988 15.7402 11.1723C15.8168 11.3118 15.7774 11.4292 15.7099 11.6303C15.6882 11.6947 15.6637 11.7677 15.6392 11.8528C15.5382 12.2035 15.7402 12.8025 15.7402 12.8025H15.6392C15.6392 12.8025 15.7402 12.8763 15.7402 13.1717C15.7402 13.4122 15.6733 13.5488 15.5468 13.8067C15.5179 13.8656 15.4859 13.9307 15.4509 14.0049C15.2627 14.4041 15.6392 14.9117 15.6392 14.9117C15.6392 14.9117 15.0081 14.6347 15.1346 14.9117C15.2318 15.1244 15.7651 15.3314 16.0074 15.416V15.4559C16.0074 15.4559 16.0295 15.4491 16.0673 15.4364C16.105 15.4491 16.1272 15.4559 16.1272 15.4559V15.416C16.3694 15.3314 16.9028 15.1244 17 14.9117C17.1265 14.6347 16.4953 14.9117 16.4953 14.9117C16.4953 14.9117 16.8719 14.4041 16.6836 14.0049C16.6486 13.9308 16.6167 13.8656 16.5878 13.8067L16.5878 13.8067C16.4613 13.5488 16.3943 13.4122 16.3943 13.1717C16.3943 12.8763 16.4953 12.8025 16.4953 12.8025H16.3943C16.3943 12.8025 16.5964 12.2035 16.4953 11.8528C16.4708 11.7677 16.4463 11.6947 16.4247 11.6303L16.4247 11.6303C16.3572 11.4292 16.3178 11.3118 16.3943 11.1723C16.4953 10.988 16.4953 10.7562 16.4953 10.7562L16.3943 10.6072V10.4297C16.3943 10.3686 16.4137 10.3552 16.4355 10.3401C16.4635 10.3208 16.4953 10.2987 16.4953 10.1703C16.4953 10.0701 16.5676 10.022 16.633 9.9784C16.684 9.94441 16.7309 9.91322 16.7359 9.86225C16.8918 10.1021 17.2235 10.5069 17.5013 10.4297C17.9377 10.3085 17.1265 9.53009 17.1265 9.53009C17.1265 9.53009 17.7951 10.0709 18.2078 10.0709C18.5999 10.0709 17.7444 9.42753 17.6579 9.36326C17.7355 9.42017 18.4433 9.92523 18.874 9.73332C19.0818 9.64072 19.0186 9.52516 18.8882 9.4268C19.0642 9.47931 19.2709 9.48872 19.4516 9.3581C19.8681 9.05701 19.8681 8.86151 19.8681 8.86151ZM18.4808 9.21631C18.4808 9.21631 18.6585 9.35826 18.8882 9.4268C18.7324 9.30928 18.4808 9.21631 18.4808 9.21631ZM16.6836 9.73332C16.6152 9.64217 16.6469 9.7253 16.7359 9.86225C16.7391 9.82946 16.725 9.78849 16.6836 9.73332ZM15.4509 9.73332C15.5194 9.64217 15.4877 9.7253 15.3987 9.86225C15.3955 9.82946 15.4095 9.78849 15.4509 9.73332ZM13.6537 9.21631C13.6537 9.21631 13.4761 9.35826 13.2464 9.4268C13.4021 9.30928 13.6537 9.21631 13.6537 9.21631Z" fill="#CF1225"/>
<path fill-rule="evenodd" clip-rule="evenodd" d="M12.3713 10.0988C12.3713 10.0988 11.4634 11.3337 11.5644 12.6533C11.6655 13.9728 12.7421 17.0429 15.936 17.0429C15.9635 17.0429 15.9908 17.0421 16.0179 17.0421C19.4022 17.0421 20.3629 13.6571 20.3629 12.4398C20.3629 11.212 19.5972 10.0988 19.5972 10.0988C19.5972 10.0988 19.6867 11.7463 19.5972 12.4398C19.3274 14.532 18.0093 15.4983 15.9952 15.4983C13.9687 15.4983 12.7146 14.4954 12.3713 12.4398C12.2603 11.7752 12.3713 10.0988 12.3713 10.0988Z" fill="#CF1225"/>
<path fill-rule="evenodd" clip-rule="evenodd" d="M10.7256 17.8368C10.7256 17.8368 10.8904 17.3648 11.093 17.3648C11.2956 17.3648 10.7054 16.9553 11.093 16.8394C11.4806 16.7235 12.077 17.3011 12.077 16.7235C12.077 16.146 11.5726 15.8308 11.9432 15.8308C12.3139 15.8308 12.7005 15.7202 12.7005 15.7202C12.7005 15.7202 14.2775 17.3648 15.8562 17.3648C17.4349 17.3648 19.3334 15.8308 19.3334 15.8308C19.3334 15.8308 20.0331 15.6529 20.0331 15.9304C20.0331 16.2079 19.8796 16.6269 19.8796 16.6269C19.8796 16.6269 20.3699 16.5302 20.6193 16.6269C20.8687 16.7235 20.6193 17.186 20.6193 17.186V17.3648C20.6193 17.3648 21.2683 17.2219 21.2683 17.4777C21.2683 17.7334 20.955 17.5873 20.3202 17.6604C19.6853 17.7334 19.4443 18.2298 19.0455 18.2298C18.6467 18.2298 18.5607 17.8368 18.5607 17.8368C18.5607 17.8368 17.3248 18.5068 15.8562 18.5068C14.3876 18.5068 13.5004 17.8368 13.5004 17.8368C13.5004 17.8368 13.639 18.5246 13.1698 18.3772C12.7005 18.2298 12.2205 17.295 11.6568 17.4777C11.093 17.6604 10.7256 17.8368 10.7256 17.8368Z" fill="#CF1225"/>
<path fill-rule="evenodd" clip-rule="evenodd" d="M13.2628 14.851C13.2637 14.8511 13.2644 14.8511 13.2647 14.851L13.2628 14.851ZM15.2882 16.0273C15.286 16.0258 15.2849 16.0249 15.2849 16.0247C15.2861 16.03 15.2873 16.0331 15.2892 16.0345L15.2882 16.0273ZM17.495 15.652L17.4936 15.6523L17.4945 15.6522L17.495 15.652Z" fill="#F6E017"/>
</g>
</g>
</svg>
