<svg width="32" height="24" viewBox="0 0 32 24" fill="none" xmlns="http://www.w3.org/2000/svg">
<mask id="mask0_1957_20182" style="mask-type:luminance" maskUnits="userSpaceOnUse" x="0" y="0" width="32" height="24">
<rect width="32" height="24" fill="white"/>
</mask>
<g mask="url(#mask0_1957_20182)">
<path fill-rule="evenodd" clip-rule="evenodd" d="M0 0V24H32V0H0Z" fill="#FECA00"/>
<mask id="mask1_1957_20182" style="mask-type:luminance" maskUnits="userSpaceOnUse" x="0" y="0" width="32" height="24">
<path fill-rule="evenodd" clip-rule="evenodd" d="M0 0V24H32V0H0Z" fill="white"/>
</mask>
<g mask="url(#mask1_1957_20182)">
<path fill-rule="evenodd" clip-rule="evenodd" d="M0 0V8H32V0H0Z" fill="#DB501C"/>
<path fill-rule="evenodd" clip-rule="evenodd" d="M0 16V24H32V16H0Z" fill="#61A32E"/>
<path d="M13.6307 10.6408L13.655 10.6173L18.4681 15.2471L18.4438 15.2706L13.6307 10.6408Z" fill="#864C26"/>
<path d="M18.8142 14.9463L18.7934 14.9727L13.194 10.8597L13.2148 10.8333L18.8142 14.9463Z" fill="#864C26"/>
<path d="M18.9321 14.5357L18.9153 14.5646L12.6866 11.1743L12.7035 11.1454L18.9321 14.5357Z" fill="#A05A2C"/>
<path fill-rule="evenodd" clip-rule="evenodd" d="M13.0679 10.0762L13.5396 10.3882L13.5132 10.4062C13.524 10.4124 13.5351 10.419 13.5465 10.4261C13.5598 10.4343 13.5691 10.4442 13.5745 10.4556C13.5841 10.4274 13.5839 10.3932 13.5737 10.3524L13.5489 10.2531L13.6048 10.3402C13.6937 10.4786 13.7069 10.5776 13.6378 10.6336C13.5703 10.6883 13.464 10.6741 13.3204 10.5952L13.2621 10.5631L13.3286 10.5641C13.3833 10.5649 13.4302 10.5585 13.4695 10.5449L13.4422 10.5376C13.4191 10.5314 13.4021 10.5153 13.3905 10.49L13.3442 10.5215L13.0679 10.0762ZM12.5022 10.4289L13.0209 10.6543L12.9975 10.6772C13.0096 10.6815 13.0222 10.6863 13.0352 10.6915C13.0497 10.6973 13.0606 10.7054 13.0679 10.7157C13.0724 10.6864 13.0662 10.6528 13.0491 10.6144L13.0075 10.5209L13.0777 10.5969C13.1892 10.7178 13.2195 10.813 13.1611 10.8802C13.1041 10.9458 12.997 10.9502 12.8419 10.8975L12.7789 10.876L12.8446 10.8655C12.8987 10.8567 12.9439 10.8422 12.9802 10.8219L12.9518 10.8194C12.9277 10.8173 12.9078 10.804 12.8918 10.7803L12.8517 10.8195L12.5022 10.4289ZM12.5364 10.9701L12 10.7908L12.3822 11.1494L12.4187 11.107C12.4368 11.1295 12.4579 11.1412 12.4823 11.1412H12.5109C12.4765 11.1647 12.4327 11.1831 12.3794 11.1966L12.3149 11.2128L12.3795 11.2287C12.5386 11.2677 12.6449 11.254 12.696 11.1837C12.7483 11.1117 12.7099 11.0194 12.5882 10.9088L12.5116 10.8391L12.5613 10.9287C12.5816 10.9653 12.5907 10.9981 12.5889 11.0277C12.5806 11.0181 12.5691 11.011 12.5542 11.0065C12.5405 11.0024 12.5274 10.9987 12.5147 10.9953L12.5364 10.9701ZM12.4778 10.9864L12.4783 10.9857L12.1347 10.8708L12.3795 11.1006L12.3997 11.0772C12.3961 11.0702 12.3926 11.0627 12.3893 11.0546L12.3916 11.0538L12.3752 11.0362L12.441 10.9792L12.4492 10.9807C12.4584 10.9823 12.4679 10.9842 12.4778 10.9864Z" fill="#E7E7E7"/>
<path fill-rule="evenodd" clip-rule="evenodd" d="M14.3142 14.8103L14.8707 13.8177L15.6513 14.0279L15.0895 14.9338H14.8707V15.0326L14.3142 14.8103Z" fill="#925229"/>
<path fill-rule="evenodd" clip-rule="evenodd" d="M14.0757 10.9938L13.7074 11.3766L13.5734 13.906L14.9006 14.0995C14.9006 14.0995 14.3222 13.5917 14.237 13.2783C14.1517 12.965 14.1245 11.7951 14.2858 11.6172L14.4118 11.6907L14.5131 11.3898" fill="#FFE000"/>
<path fill-rule="evenodd" clip-rule="evenodd" d="M12.7928 11.1664C12.7928 11.1664 12.6501 13.1415 12.6501 13.4883C12.6501 13.8352 12.9446 14.6612 13.616 14.6612C14.2873 14.6612 15.2085 14.2917 15.2085 14.1409C15.2085 13.9902 14.9335 13.8822 14.9335 13.8822C14.9335 13.8822 13.6989 13.9666 13.6989 13.4883C13.6989 13.01 13.7827 11.5942 13.856 11.4273C13.9293 11.2603 14.1834 11.0086 14.1834 11.0086L13.6989 10.6486L13.616 11.0086L13.3053 10.9029L13.2105 11.4273L12.7928 11.1664Z" fill="#D52C1E"/>
<path fill-rule="evenodd" clip-rule="evenodd" d="M14.5176 11.3855L14.4284 11.6649L14.2481 11.5888C14.2481 11.5888 13.9785 12.8529 14.2481 13.3824C14.5176 13.912 15.1966 13.9504 15.1966 13.9504L14.9097 11.6649L14.5176 11.3855Z" fill="#027934"/>
<path fill-rule="evenodd" clip-rule="evenodd" d="M14.478 13.0936L13.831 13.6053C13.831 13.6053 13.6536 13.8596 13.831 14.0522C14.0085 14.2447 14.5004 14.441 14.6165 14.2086C14.7326 13.9762 15.0774 13.7039 15.0774 13.7039L14.478 13.0936Z" fill="#E8A30C"/>
<path fill-rule="evenodd" clip-rule="evenodd" d="M14.9858 11.1631C15.1432 11.0262 15.2221 10.8592 15.162 10.7901C15.1019 10.721 14.9256 10.7759 14.7682 10.9127C14.6108 11.0496 14.5319 11.2166 14.592 11.2857C14.652 11.3548 14.8284 11.2999 14.9858 11.1631Z" fill="#E1E5E8"/>
<path fill-rule="evenodd" clip-rule="evenodd" d="M14.5888 10.2036C14.5888 10.2036 14.5255 10.1907 14.4968 10.1863C14.2921 10.1553 14.1898 10.197 14.1898 10.3115C14.1898 10.5073 14.3203 10.7187 14.3203 10.8666C14.3203 11.0144 14.3266 11.2446 14.3893 11.1295C14.4521 11.0144 14.7711 10.6685 14.7711 10.6685L14.5888 10.3685C14.5888 10.3685 15.0414 10.4194 14.8427 10.3115" fill="#D52C1E"/>
<path fill-rule="evenodd" clip-rule="evenodd" d="M15.9799 14.2534L15.6405 14.25C15.3885 14.4992 15.3653 14.8344 15.5637 15.2393C15.5637 15.2393 15.6288 15.3334 15.6516 15.3246C15.6835 15.3123 15.7279 15.176 15.7279 15.176C15.7127 14.7806 15.9648 14.5187 15.9799 14.2534Z" fill="#D52C1E"/>
<path fill-rule="evenodd" clip-rule="evenodd" d="M15.5501 14.2638L15.6722 14.207C15.7925 14.4569 15.7322 14.7157 15.5002 14.9726L15.3992 14.8846C15.5002 14.5898 15.5002 14.4677 15.5501 14.2638Z" fill="#FFE000"/>
<path d="M15.3942 14.2558L15.5216 14.2185C15.5828 14.4278 15.5522 14.6437 15.432 14.8628L15.3157 14.7989C15.4196 14.6095 15.4451 14.4296 15.3942 14.2558Z" fill="#027934"/>
<path d="M18.3693 10.6408L18.345 10.6173L13.5319 15.2471L13.5562 15.2706L18.3693 10.6408Z" fill="#864C26"/>
<path d="M13.1858 14.9463L13.2066 14.9727L18.806 10.8597L18.7852 10.8333L13.1858 14.9463Z" fill="#864C26"/>
<path d="M13.0679 14.5357L13.0847 14.5646L19.3134 11.1743L19.2965 11.1454L13.0679 14.5357Z" fill="#A05A2C"/>
<path fill-rule="evenodd" clip-rule="evenodd" d="M18.9321 10.0762L18.4604 10.3882L18.4868 10.4062C18.476 10.4124 18.4649 10.419 18.4535 10.4261C18.4402 10.4343 18.4309 10.4442 18.4255 10.4556C18.4159 10.4274 18.4161 10.3932 18.4263 10.3524L18.4511 10.2531L18.3952 10.3402C18.3063 10.4786 18.2931 10.5776 18.3622 10.6336C18.4297 10.6883 18.536 10.6741 18.6796 10.5952L18.7379 10.5631L18.6714 10.5641C18.6167 10.5649 18.5698 10.5585 18.5305 10.5449L18.5578 10.5376C18.5809 10.5314 18.5979 10.5153 18.6095 10.49L18.6558 10.5215L18.9321 10.0762ZM19.4978 10.4289L18.9791 10.6543L19.0025 10.6772C18.9904 10.6815 18.9778 10.6863 18.9648 10.6915C18.9503 10.6973 18.9394 10.7054 18.9321 10.7157C18.9276 10.6864 18.9338 10.6528 18.9509 10.6144L18.9925 10.5209L18.9223 10.5969C18.8108 10.7178 18.7805 10.813 18.8389 10.8802C18.8959 10.9458 19.003 10.9502 19.1581 10.8975L19.2211 10.876L19.1554 10.8655C19.1013 10.8567 19.0561 10.8422 19.0198 10.8219L19.0482 10.8194C19.0723 10.8173 19.0922 10.804 19.1082 10.7803L19.1483 10.8195L19.4978 10.4289ZM19.4636 10.9701L20 10.7908L19.6178 11.1494L19.5813 11.107C19.5632 11.1295 19.5421 11.1412 19.5177 11.1412H19.4891C19.5235 11.1647 19.5673 11.1831 19.6206 11.1966L19.6851 11.2128L19.6205 11.2287C19.4614 11.2677 19.3551 11.254 19.304 11.1837C19.2517 11.1117 19.2901 11.0194 19.4118 10.9088L19.4884 10.8391L19.4387 10.9287C19.4184 10.9653 19.4093 10.9981 19.4111 11.0277C19.4194 11.0181 19.4309 11.011 19.4458 11.0065C19.4595 11.0024 19.4726 10.9987 19.4853 10.9953L19.4636 10.9701ZM19.5222 10.9864L19.5217 10.9857L19.8653 10.8708L19.6205 11.1006L19.6003 11.0772C19.6039 11.0702 19.6074 11.0627 19.6107 11.0546L19.6084 11.0538L19.6248 11.0362L19.559 10.9792L19.5508 10.9807C19.5416 10.9823 19.5321 10.9842 19.5222 10.9864Z" fill="#E7E7E7"/>
<path fill-rule="evenodd" clip-rule="evenodd" d="M17.6858 14.8103L17.1293 13.8177L16.3487 14.0279L16.9105 14.9338H17.1293V15.0326L17.6858 14.8103Z" fill="#925229"/>
<path fill-rule="evenodd" clip-rule="evenodd" d="M17.9243 10.9938L18.2926 11.3766L18.4266 13.906L17.0994 14.0995C17.0994 14.0995 17.6778 13.5917 17.763 13.2783C17.8483 12.965 17.8755 11.7951 17.7142 11.6172L17.5882 11.6907L17.4869 11.3898" fill="#FFE000"/>
<path fill-rule="evenodd" clip-rule="evenodd" d="M19.2072 11.1664C19.2072 11.1664 19.3499 13.1415 19.3499 13.4883C19.3499 13.8352 19.0554 14.6612 18.384 14.6612C17.7127 14.6612 16.7915 14.2917 16.7915 14.1409C16.7915 13.9902 17.0665 13.8822 17.0665 13.8822C17.0665 13.8822 18.3011 13.9666 18.3011 13.4883C18.3011 13.01 18.2173 11.5942 18.144 11.4273C18.0707 11.2603 17.8166 11.0086 17.8166 11.0086L18.3011 10.6486L18.384 11.0086L18.6947 10.9029L18.7895 11.4273L19.2072 11.1664Z" fill="#D52C1E"/>
<path fill-rule="evenodd" clip-rule="evenodd" d="M17.4824 11.3855L17.5716 11.6649L17.7519 11.5888C17.7519 11.5888 18.0215 12.8529 17.7519 13.3824C17.4824 13.912 16.8034 13.9504 16.8034 13.9504L17.0903 11.6649L17.4824 11.3855Z" fill="#027934"/>
<path fill-rule="evenodd" clip-rule="evenodd" d="M17.522 13.0936L18.169 13.6053C18.169 13.6053 18.3464 13.8596 18.169 14.0522C17.9915 14.2447 17.4996 14.441 17.3835 14.2086C17.2674 13.9762 16.9226 13.7039 16.9226 13.7039L17.522 13.0936Z" fill="#E8A30C"/>
<path fill-rule="evenodd" clip-rule="evenodd" d="M17.0142 11.1631C16.8568 11.0262 16.7779 10.8592 16.838 10.7901C16.8981 10.721 17.0744 10.7759 17.2318 10.9127C17.3892 11.0496 17.4681 11.2166 17.408 11.2857C17.348 11.3548 17.1716 11.2999 17.0142 11.1631Z" fill="#E1E5E8"/>
<path fill-rule="evenodd" clip-rule="evenodd" d="M16.0201 14.2534L16.3595 14.25C16.6115 14.4992 16.6347 14.8344 16.4363 15.2393C16.4363 15.2393 16.3712 15.3334 16.3484 15.3246C16.3165 15.3123 16.2721 15.176 16.2721 15.176C16.2873 14.7806 16.0352 14.5187 16.0201 14.2534Z" fill="#D52C1E"/>
<path fill-rule="evenodd" clip-rule="evenodd" d="M16.4499 14.2638L16.3278 14.207C16.2075 14.4569 16.2678 14.7157 16.4998 14.9726L16.6008 14.8846C16.4998 14.5898 16.4998 14.4677 16.4499 14.2638Z" fill="#FFE000"/>
<path d="M16.6058 14.2558L16.4784 14.2185C16.4172 14.4278 16.4478 14.6437 16.568 14.8628L16.6843 14.7989C16.5804 14.6095 16.5549 14.4296 16.6058 14.2558Z" fill="#027934"/>
<path fill-rule="evenodd" clip-rule="evenodd" d="M14.369 12.5486C14.369 13.5081 15.0775 14.3065 15.9828 14.3065C16.888 14.3065 17.5965 13.5081 17.5965 12.5486C17.5965 11.5892 16.888 10.7908 15.9828 10.7908C15.0775 10.7908 14.369 11.5892 14.369 12.5486ZM17.2188 12.5486C17.2188 13.318 16.6654 13.9417 15.9828 13.9417C15.3001 13.9417 14.7467 13.318 14.7467 12.5486C14.7467 11.7793 15.3001 11.1556 15.9828 11.1556C16.6654 11.1556 17.2188 11.7793 17.2188 12.5486Z" fill="#00A6DE"/>
<path fill-rule="evenodd" clip-rule="evenodd" d="M15.9828 13.9417C16.6654 13.9417 17.2188 13.318 17.2188 12.5487C17.2188 11.7793 16.6654 11.1556 15.9828 11.1556C15.3001 11.1556 14.7467 11.7793 14.7467 12.5487C14.7467 13.318 15.3001 13.9417 15.9828 13.9417Z" fill="#FFC036"/>
<mask id="mask2_1957_20182" style="mask-type:luminance" maskUnits="userSpaceOnUse" x="14" y="11" width="4" height="3">
<path fill-rule="evenodd" clip-rule="evenodd" d="M15.9828 13.9417C16.6654 13.9417 17.2188 13.318 17.2188 12.5487C17.2188 11.7793 16.6654 11.1556 15.9828 11.1556C15.3001 11.1556 14.7467 11.7793 14.7467 12.5487C14.7467 13.318 15.3001 13.9417 15.9828 13.9417Z" fill="white"/>
</mask>
<g mask="url(#mask2_1957_20182)">
<path fill-rule="evenodd" clip-rule="evenodd" d="M15.9829 12.2999L15.8224 12.6307L15.8264 12.2654L15.5333 12.4962L15.701 12.1688L15.3332 12.2539L15.6314 12.0291L15.2618 11.9516L15.6314 11.8741L15.3332 11.6494L15.701 11.7345L15.5333 11.4071L15.8264 11.6379L15.8224 11.2726L15.9829 11.6034L16.1433 11.2726L16.1393 11.6379L16.4324 11.4071L16.2647 11.7345L16.6325 11.6494L16.3343 11.8741L16.7039 11.9516L16.3343 12.0291L16.6325 12.2539L16.2647 12.1688L16.4324 12.4962L16.1393 12.2654L16.1433 12.6307L15.9829 12.2999Z" fill="#D52C1E"/>
<path fill-rule="evenodd" clip-rule="evenodd" d="M14.694 12.6288C14.694 12.6288 15.6606 11.9481 15.8981 11.9481C16.1356 11.9481 17.1486 12.6325 17.3558 12.7256C17.5631 12.8187 17.3558 14.6442 17.3558 14.6442H14.6139L14.694 12.6288Z" fill="#027934"/>
</g>
<path fill-rule="evenodd" clip-rule="evenodd" d="M14.6869 11.8186L14.7465 11.8516C15.0722 11.3019 15.4866 11.0293 15.9921 11.0293C16.558 11.0608 16.9819 11.3697 17.2648 11.9603L17.3271 11.9325C17.0341 11.3206 16.5887 10.996 15.9941 10.963C15.4599 10.963 15.024 11.2497 14.6869 11.8186ZM14.4469 12.8786L14.5579 12.804L14.6689 12.8786L14.6297 12.7536L14.7375 12.6747L14.6023 12.672L14.5579 12.5486L14.5135 12.672L14.3783 12.6747L14.4861 12.7536L14.4469 12.8786ZM14.6953 13.3016L14.5843 13.3762L14.6234 13.2512L14.5157 13.1722L14.6509 13.1696L14.6953 13.0462L14.7397 13.1696L14.8749 13.1722L14.7671 13.2512L14.8063 13.3762L14.6953 13.3016ZM14.8589 13.7742L14.9699 13.6996L15.0809 13.7742L15.0418 13.6492L15.1495 13.5703L15.0143 13.5676L14.9699 13.4442L14.9255 13.5676L14.7903 13.5703L14.8981 13.6492L14.8589 13.7742ZM15.382 14.0312L15.271 14.1058L15.3101 13.9808L15.2024 13.9019L15.3376 13.8992L15.382 13.7758L15.4263 13.8992L15.5615 13.9019L15.4538 13.9808L15.4929 14.1058L15.382 14.0312ZM15.8547 14.2717L15.9657 14.1971L16.0767 14.2717L16.0375 14.1467L16.1453 14.0677L16.0101 14.0651L15.9657 13.9417L15.9213 14.0651L15.7861 14.0677L15.8939 14.1467L15.8547 14.2717ZM17.4078 12.804L17.5187 12.8786L17.4796 12.7536L17.5873 12.6747L17.4522 12.672L17.4078 12.5486L17.3634 12.672L17.2282 12.6747L17.3359 12.7536L17.2968 12.8786L17.4078 12.804ZM17.3814 13.3762L17.2704 13.3016L17.1594 13.3762L17.1985 13.2512L17.0908 13.1722L17.226 13.1696L17.2704 13.0462L17.3148 13.1696L17.45 13.1722L17.3422 13.2512L17.3814 13.3762ZM16.9957 13.6996L17.1067 13.7742L17.0676 13.6492L17.1753 13.5703L17.0401 13.5676L16.9957 13.4442L16.9513 13.5676L16.8161 13.5703L16.9239 13.6492L16.8847 13.7742L16.9957 13.6996ZM16.6947 14.1058L16.5837 14.0312L16.4727 14.1058L16.5119 13.9808L16.4041 13.9019L16.5393 13.8992L16.5837 13.7758L16.6281 13.8992L16.7633 13.9019L16.6555 13.9808L16.6947 14.1058Z" fill="#FFC036"/>
<path d="M15.1222 8.67273L15.2547 8.76914C14.9151 9.07387 14.8513 9.41368 14.9163 9.70561C14.9841 10.0097 15.2852 10.3342 15.8327 10.6673L15.6314 10.976C15.0062 10.5956 14.6462 10.2436 14.5528 9.82438C14.4567 9.39297 14.6926 9.0582 15.1222 8.67273Z" fill="#036A2D"/>
<path d="M16.9244 8.67273L16.7919 8.76914C17.1315 9.07387 17.1953 9.41368 17.1303 9.70561C17.0626 10.0097 16.7614 10.3342 16.2139 10.6673L16.4152 10.976C17.0404 10.5956 17.4005 10.2436 17.4938 9.82438C17.5899 9.39297 17.354 9.0582 16.9244 8.67273Z" fill="#036A2D"/>
<path fill-rule="evenodd" clip-rule="evenodd" d="M13.8501 9.90904C13.8501 9.90904 14.4297 9.50829 14.7047 9.50829C14.9798 9.50829 15.3468 9.4165 15.4044 9.62734C15.4619 9.83818 15.5707 9.77712 15.7837 9.77712C15.9967 9.77712 16.4153 9.77712 16.4153 9.77712C16.4153 9.77712 16.2903 9.50829 16.522 9.50829C16.7537 9.50829 17.7213 9.64519 18.0134 9.77712C18.3055 9.90904 18.3201 9.98703 18.3201 9.98703C18.3201 9.98703 18.0498 9.83105 17.7508 9.90904C17.4518 9.98703 16.9095 10.3304 16.6624 10.3304C16.4153 10.3304 16.2176 10.5958 16.2176 10.5958C16.2176 10.5958 16.2339 10.4598 16.0088 10.5278C15.7837 10.5958 15.789 10.9163 15.5967 10.8574C15.4044 10.7986 15.6521 10.3304 15.5967 10.3304C15.5413 10.3304 15.1486 10.1765 15.1486 10.1765C15.1486 10.1765 14.7677 9.83105 14.2019 9.90904C13.6361 9.98703 13.8501 9.90904 13.8501 9.90904Z" fill="#452C24"/>
<path fill-rule="evenodd" clip-rule="evenodd" d="M15.9141 10.1937C16.0279 10.1937 16.1201 10.112 16.1201 10.0113C16.1201 9.91053 16.0279 9.82886 15.9141 9.82886C15.8004 9.82886 15.7081 9.91053 15.7081 10.0113C15.7081 10.112 15.8004 10.1937 15.9141 10.1937Z" fill="#E7E7E7"/>
<path fill-rule="evenodd" clip-rule="evenodd" d="M15.4691 10.0061C15.4691 10.0061 15.5357 9.88013 15.6678 9.88013C15.7998 9.88013 16.0474 9.88013 16.0474 9.94311C16.0474 10.0061 16.0672 10.0884 15.8675 10.0884C15.6678 10.0884 15.7957 10.0061 15.6678 10.0061C15.5398 10.0061 15.4691 10.0061 15.4691 10.0061Z" fill="#E8A30C"/>
<path fill-rule="evenodd" clip-rule="evenodd" d="M17.8242 10.8569C17.901 10.7766 17.9438 10.5816 17.9438 10.5816C17.9438 10.5816 17.6011 10.6365 17.5213 10.5816C17.4415 10.5268 17.4001 10.366 17.4001 10.366C17.4001 10.366 17.0912 10.5071 17.209 10.5071C17.3268 10.5071 17.4001 10.6115 17.4001 10.6115L17.6397 10.6997C17.6397 10.6997 17.4806 10.8569 17.5602 10.8569C17.6397 10.8569 17.7475 10.9373 17.8242 10.8569Z" fill="#E1E5E8"/>
<path d="M17.2205 10.924L17.1774 10.8724L17.4785 10.6367L17.5216 10.6883L17.2205 10.924Z" fill="#925229"/>
</g>
</g>
</svg>
