<svg width="32" height="24" viewBox="0 0 32 24" fill="none" xmlns="http://www.w3.org/2000/svg">
<mask id="mask0_1957_20184" style="mask-type:luminance" maskUnits="userSpaceOnUse" x="0" y="0" width="32" height="24">
<rect width="32" height="24" fill="white"/>
</mask>
<g mask="url(#mask0_1957_20184)">
<path fill-rule="evenodd" clip-rule="evenodd" d="M0 0V24H32V0H0Z" fill="#009933"/>
<mask id="mask1_1957_20184" style="mask-type:luminance" maskUnits="userSpaceOnUse" x="0" y="0" width="32" height="24">
<path fill-rule="evenodd" clip-rule="evenodd" d="M0 0V24H32V0H0Z" fill="white"/>
</mask>
<g mask="url(#mask1_1957_20184)">
<g filter="url(#filter0_d_1957_20184)">
<path fill-rule="evenodd" clip-rule="evenodd" d="M15.9376 5.82251L25 12.1381L15.8143 18.0528L6.93762 12.0157L15.9376 5.82251Z" fill="#FFD221"/>
<path fill-rule="evenodd" clip-rule="evenodd" d="M15.9376 5.82251L25 12.1381L15.8143 18.0528L6.93762 12.0157L15.9376 5.82251Z" fill="url(#paint0_linear_1957_20184)"/>
</g>
<path fill-rule="evenodd" clip-rule="evenodd" d="M15.992 15.846C18.0429 15.846 19.7055 14.1834 19.7055 12.1325C19.7055 10.0815 18.0429 8.41895 15.992 8.41895C13.941 8.41895 12.2784 10.0815 12.2784 12.1325C12.2784 14.1834 13.941 15.846 15.992 15.846Z" fill="#2E42A5"/>
<mask id="mask2_1957_20184" style="mask-type:luminance" maskUnits="userSpaceOnUse" x="12" y="8" width="8" height="8">
<path fill-rule="evenodd" clip-rule="evenodd" d="M15.992 15.846C18.0429 15.846 19.7055 14.1834 19.7055 12.1325C19.7055 10.0815 18.0429 8.41895 15.992 8.41895C13.941 8.41895 12.2784 10.0815 12.2784 12.1325C12.2784 14.1834 13.941 15.846 15.992 15.846Z" fill="white"/>
</mask>
<g mask="url(#mask2_1957_20184)">
<path fill-rule="evenodd" clip-rule="evenodd" d="M14.7888 13.8927L14.6229 13.9799L14.6546 13.7952L14.5204 13.6644L14.7059 13.6374L14.7888 13.4694L14.8718 13.6374L15.0572 13.6644L14.923 13.7952L14.9547 13.9799L14.7888 13.8927Z" fill="#F7FCFF"/>
<path fill-rule="evenodd" clip-rule="evenodd" d="M16.2742 13.8927L16.1083 13.9799L16.14 13.7952L16.0058 13.6644L16.1912 13.6374L16.2742 13.4694L16.3571 13.6374L16.5426 13.6644L16.4084 13.7952L16.4401 13.9799L16.2742 13.8927Z" fill="#F7FCFF"/>
<path fill-rule="evenodd" clip-rule="evenodd" d="M16.2742 14.7839L16.1083 14.8712L16.14 14.6864L16.0058 14.5556L16.1912 14.5287L16.2742 14.3606L16.3571 14.5287L16.5426 14.5556L16.4084 14.6864L16.4401 14.8712L16.2742 14.7839Z" fill="#F7FCFF"/>
<path fill-rule="evenodd" clip-rule="evenodd" d="M15.5315 11.6647L15.3656 11.7519L15.3973 11.5672L15.2631 11.4363L15.4486 11.4094L15.5315 11.2413L15.6144 11.4094L15.7999 11.4363L15.6657 11.5672L15.6974 11.7519L15.5315 11.6647Z" fill="#F7FCFF"/>
<path fill-rule="evenodd" clip-rule="evenodd" d="M15.5315 13.15L15.3656 13.2372L15.3973 13.0525L15.2631 12.9217L15.4486 12.8947L15.5315 12.7267L15.6144 12.8947L15.7999 12.9217L15.6657 13.0525L15.6974 13.2372L15.5315 13.15Z" fill="#F7FCFF"/>
<path fill-rule="evenodd" clip-rule="evenodd" d="M14.4917 12.4074L14.3258 12.4946L14.3575 12.3098L14.2233 12.179L14.4088 12.1521L14.4917 11.984L14.5746 12.1521L14.7601 12.179L14.6259 12.3098L14.6576 12.4946L14.4917 12.4074Z" fill="#F7FCFF"/>
<path fill-rule="evenodd" clip-rule="evenodd" d="M13.4519 13.0015L13.286 13.0887L13.3177 12.904L13.1835 12.7731L13.369 12.7462L13.4519 12.5781L13.5349 12.7462L13.7203 12.7731L13.5861 12.904L13.6178 13.0887L13.4519 13.0015Z" fill="#F7FCFF"/>
<path fill-rule="evenodd" clip-rule="evenodd" d="M16.8684 10.4762L16.7025 10.5634L16.7342 10.3787L16.6 10.2479L16.7855 10.2209L16.8684 10.0529L16.9514 10.2209L17.1368 10.2479L17.0026 10.3787L17.0343 10.5634L16.8684 10.4762Z" fill="#F7FCFF"/>
<path d="M11.4799 11.2391L11.5915 9.75793C15.155 10.0266 17.9676 11.1983 19.9938 13.2825L18.9287 14.3179C17.1726 12.5115 14.7014 11.4821 11.4799 11.2391Z" fill="#F7FCFF"/>
</g>
</g>
</g>
<defs>
<filter id="filter0_d_1957_20184" x="6.93762" y="5.82251" width="18.0624" height="12.2303" filterUnits="userSpaceOnUse" color-interpolation-filters="sRGB">
<feFlood flood-opacity="0" result="BackgroundImageFix"/>
<feColorMatrix in="SourceAlpha" type="matrix" values="0 0 0 0 0 0 0 0 0 0 0 0 0 0 0 0 0 0 127 0" result="hardAlpha"/>
<feOffset/>
<feColorMatrix type="matrix" values="0 0 0 0 0.0313726 0 0 0 0 0.368627 0 0 0 0 0 0 0 0 0.28 0"/>
<feBlend mode="normal" in2="BackgroundImageFix" result="effect1_dropShadow_1957_20184"/>
<feBlend mode="normal" in="SourceGraphic" in2="effect1_dropShadow_1957_20184" result="shape"/>
</filter>
<linearGradient id="paint0_linear_1957_20184" x1="27.8752" y1="20.8965" x2="27.8752" y2="3.07155" gradientUnits="userSpaceOnUse">
<stop stop-color="#FFC600"/>
<stop offset="1" stop-color="#FFDE42"/>
</linearGradient>
</defs>
</svg>
