<svg width="32" height="24" viewBox="0 0 32 24" fill="none" xmlns="http://www.w3.org/2000/svg">
<mask id="mask0_1957_20197" style="mask-type:luminance" maskUnits="userSpaceOnUse" x="0" y="0" width="32" height="24">
<rect width="32" height="24" fill="white"/>
</mask>
<g mask="url(#mask0_1957_20197)">
<path fill-rule="evenodd" clip-rule="evenodd" d="M0 0H32V24H0V0Z" fill="#FF6230"/>
<path fill-rule="evenodd" clip-rule="evenodd" d="M0 0V24L32 0H0Z" fill="#FECA00"/>
<path fill-rule="evenodd" clip-rule="evenodd" d="M23.4077 7.10799L23.778 7.33498L23.4362 7.53046C23.743 7.53046 24.4306 7.50309 24.6037 7.3595L24.6344 7.3341C24.7631 7.22884 26.0001 6.84986 26.0001 6.84986H25.2299C24.8081 6.84986 24.6046 6.91672 24.411 7.07514L24.3785 7.10202C24.2663 7.19511 24.1984 7.22115 23.9771 7.22115L23.9303 7.24788L23.9674 7.17563C24.1323 7.17806 24.3139 7.0748 24.5185 6.88718C24.5403 6.86715 24.6609 6.82354 24.8122 6.76884C25.1158 6.65904 25.543 6.50455 25.543 6.40638H25.1964L25.1973 6.40493C25.1984 6.403 25.2002 6.39994 25.2028 6.39657L25.2041 6.39491C25.207 6.39125 25.2073 6.39087 25.2022 6.39277C25.1696 6.4048 25.1178 6.41115 24.9958 6.41859C24.8739 6.42603 24.8286 6.42958 24.7606 6.43896C24.5631 6.46619 24.4066 6.52512 24.2803 6.64098C24.2537 6.6654 24.2281 6.68755 24.2038 6.70742C24.3656 6.38189 24.49 6.11892 24.5771 5.91817C24.6252 5.8075 24.6833 5.70776 24.7599 5.59839C24.7646 5.59173 24.7803 5.57039 24.8019 5.54117L24.8021 5.54079L24.8022 5.54078C24.8636 5.45741 24.972 5.31046 25.0059 5.25692C25.0981 5.11106 25.1452 4.97721 25.1452 4.82373C25.1452 4.82373 24.3151 5.65316 24.2572 5.78649C24.1952 5.92939 24.0842 6.08059 23.9505 6.2629C23.7877 6.48479 23.5911 6.75277 23.4077 7.10799ZM20.8837 6.28823L21.0297 6.05802C20.8192 5.93143 20.6206 5.83759 20.4139 5.76072C20.297 5.71729 19.985 5.61839 19.9911 5.62051C19.8709 5.5792 19.8184 5.54791 19.7921 5.50626C19.6098 5.21694 19.4678 5.12159 19.1493 5.12159C19.1493 5.12159 19.4053 5.43103 19.6276 5.65455C19.2609 5.48406 19.1525 5.45009 19.0314 5.45009C19.0314 5.45009 20.1063 6.24188 20.1051 6.31765L20.383 6.32174C20.385 6.19524 20.316 6.07915 20.1803 5.96703C20.2337 5.98482 20.2828 6.00161 20.3147 6.0135C20.5057 6.08451 20.6887 6.17096 20.8837 6.28823ZM18.7959 5.44795C18.6023 5.32287 18.4624 5.28145 18.3323 5.36899C18.3323 5.36899 18.6037 5.58659 18.8683 5.7964C18.8145 5.78214 18.7552 5.77485 18.6905 5.77485C18.5985 5.77485 18.543 5.76708 18.5155 5.75576L18.5151 5.75559C18.5125 5.75451 18.5108 5.7538 18.5093 5.75279C18.5065 5.75089 18.5044 5.74792 18.4984 5.73942L18.4978 5.73858L18.4947 5.73414C18.4198 5.62675 18.3259 5.58436 18.1129 5.58436C17.7738 5.58436 17.5858 5.62491 17.5195 5.76323C17.5195 5.76323 18.1633 5.72001 18.6905 6.04543C18.9099 6.04543 19.0029 6.18385 18.9805 6.53991L19.2579 6.55645C19.2714 6.34187 19.2428 6.16638 19.1729 6.03644C19.2696 6.11185 19.3408 6.16619 19.3601 6.17792C19.5027 6.26477 19.588 6.33909 19.6151 6.39056L19.6165 6.39334C19.6195 6.39892 19.6213 6.40216 19.6208 6.40508C19.6202 6.40913 19.6155 6.41256 19.6042 6.42074L19.598 6.42522L19.7646 6.64173C19.8966 6.54545 19.9356 6.40629 19.8624 6.26714C19.8069 6.16186 19.689 6.0591 19.5075 5.94853C19.4346 5.90412 19.3604 5.85484 19.28 5.798C19.2656 5.78786 19.2249 5.75791 19.1724 5.71932L19.1722 5.71914L19.1721 5.71913C19.0475 5.62751 18.8569 5.48735 18.7959 5.44795ZM17.3332 6.65103C17.5375 6.65103 17.825 6.73344 18.1903 6.90085L18.3086 6.65603C17.9096 6.47316 17.5862 6.38044 17.3332 6.38044C16.8906 6.38044 16.5457 6.50907 16.5457 6.77844C16.5457 6.97103 16.6979 7.08849 16.9502 7.13678C16.9502 7.13678 16.8236 6.81202 16.8236 6.77844C16.8236 6.76614 16.852 6.73888 16.93 6.70982C17.0301 6.67246 17.175 6.65103 17.3332 6.65103ZM16.8719 7.35097L16.8316 7.61869C16.4404 7.56294 15.8536 7.57107 15.7304 7.61869C15.7304 7.61869 16.435 7.28869 16.8719 7.35097ZM17.2325 8.80343L17.1526 8.54426C16.6099 8.7028 16.3444 9.03369 16.2539 9.17147C16.2296 9.19307 16.2168 9.21384 16.2168 9.23376C16.2168 9.23376 16.2284 9.21028 16.2539 9.17147C16.3564 9.08003 16.6624 8.97387 17.0565 8.8555C16.6705 9.26238 16.6065 9.67865 16.5971 9.84247C16.5869 9.87329 16.5861 9.89772 16.5961 9.91497C16.5961 9.91497 16.5944 9.88883 16.5971 9.84247C16.6464 9.69316 16.9169 9.39389 17.2606 9.03443L17.0651 8.85293C17.1193 8.83666 17.1752 8.82015 17.2325 8.80343ZM18.2802 10.9763L18.3856 10.7264C17.868 10.499 17.4519 10.5818 17.294 10.6292C17.2615 10.6302 17.2383 10.6378 17.2255 10.6531C17.2255 10.6531 17.2495 10.6425 17.294 10.6292C17.4511 10.6245 17.8249 10.7763 18.2802 10.9763ZM18.3754 11.3629L18.2282 11.5906C17.8145 11.3146 17.4728 11.1002 17.3172 11.0775C17.4809 11.0583 17.9051 11.049 18.3754 11.3629ZM17.2456 11.0891C17.2456 11.0891 17.2711 11.0829 17.3172 11.0775C17.2851 11.0728 17.2609 11.0763 17.2456 11.0891ZM15.9071 10.885L16.1663 10.8052C16.0077 10.2624 15.6768 9.99689 15.539 9.90638C15.5175 9.88216 15.4967 9.86928 15.4768 9.86928C15.4768 9.86928 15.5002 9.88089 15.539 9.90638C15.6437 10.0238 15.7676 10.4076 15.9071 10.885ZM14.6245 10.6614L14.4083 10.8251C14.114 10.4242 13.8662 10.1059 13.7277 10.0314C13.8881 10.0693 14.2899 10.2057 14.6245 10.6614ZM13.6565 10.0178C13.6565 10.0178 13.6825 10.0207 13.7277 10.0314C13.6991 10.016 13.6752 10.011 13.6565 10.0178ZM21.8251 11.0852L21.7253 11.2743L21.7861 11.2429C21.8614 11.381 21.9009 11.4896 21.9009 11.5822C21.9009 11.7357 21.7894 11.838 21.6327 11.838V11.4997C21.6021 11.4997 21.5536 11.5442 21.5536 11.5822C21.5536 11.5592 21.53 11.4945 21.4793 11.4016L21.5832 11.3478C21.4588 11.2967 21.3964 11.3026 21.3685 11.3382C21.2642 11.4713 21.1635 11.577 21.0652 11.6554C21.0652 11.6554 21.0033 11.2467 21.0924 11.133C21.2524 10.9288 21.5126 10.9288 21.8251 11.0852ZM18.6596 13.816V13.4777H18.1148C18.0841 13.4777 18.0547 13.484 18.0271 13.49C17.9764 13.5008 17.9316 13.5105 17.8956 13.4777C17.8956 13.4777 17.5056 13.4201 17.5296 13.469C17.5443 13.4989 17.6919 13.6216 17.8457 13.7127C17.8337 13.7249 17.8222 13.738 17.8111 13.7521C17.7219 13.8659 17.7839 14.2746 17.7839 14.2746C17.8822 14.1962 17.9829 14.0905 18.0872 13.9573C18.0915 13.9518 18.0949 13.9467 18.0979 13.9422C18.1156 13.9154 18.1198 13.9089 18.2264 13.9607C18.2226 13.9735 18.2214 13.9925 18.2257 14.0218C18.2448 14.1519 18.1147 14.3542 18.1147 14.3542H18.1171C18.2748 14.3542 18.6196 14.3542 18.6196 14.2014C18.6196 14.1457 18.5668 14.0775 18.5083 14.0019C18.4718 13.9548 18.4332 13.9048 18.4037 13.8533L18.4388 13.816H18.6596Z" fill="white"/>
<path fill-rule="evenodd" clip-rule="evenodd" d="M23.3512 7.69285L23.7171 7.69133C23.7229 8.0161 23.6841 8.28608 23.652 8.50961C23.6256 8.69329 23.6037 8.84561 23.6148 8.97122C23.6252 9.08842 23.3405 10.019 23.3405 10.019C23.2791 9.91268 23.2605 9.79976 23.2707 9.65916C23.2744 9.60756 23.2961 9.45926 23.3084 9.37513C23.3127 9.34544 23.3159 9.32374 23.3167 9.3171C23.3299 9.20847 23.3331 9.11445 23.3245 9.01716C23.3089 8.84071 23.2961 8.60518 23.2861 8.31026C23.276 8.33448 23.2659 8.36076 23.2559 8.38909C23.2084 8.52352 23.1158 8.63145 22.98 8.73499C22.9332 8.77065 22.901 8.79254 22.8134 8.84996C22.7258 8.90741 22.6899 8.93404 22.6705 8.95633C22.6675 8.95985 22.6675 8.95947 22.6682 8.95567L22.6685 8.95397C22.6691 8.9505 22.6692 8.94763 22.6693 8.94581L22.6693 8.94444L22.412 9.09304C22.3727 9.02502 22.6282 8.73481 22.8097 8.52854C22.9002 8.42579 22.9723 8.34387 22.9805 8.32062C23.0573 8.10292 23.1509 7.95353 23.2744 7.88447C23.2739 7.8627 23.2734 7.84069 23.273 7.81845L23.2489 7.85707C23.0846 7.95196 23.0445 7.99912 22.9984 8.11175L22.9851 8.14429C22.9046 8.33709 22.7802 8.47067 22.467 8.65151L21.8951 8.98173C21.8951 8.98173 22.6621 8.18877 22.7155 8.06067L22.7282 8.02991C22.7993 7.8562 23.299 7.54238 23.5268 7.41085L23.3512 7.69285Z" fill="white"/>
<path fill-rule="evenodd" clip-rule="evenodd" d="M13.1714 15.7777V16.1159H12.9505L12.9155 16.1532C12.945 16.2048 12.9837 16.2548 13.0201 16.3019C13.0786 16.3775 13.1314 16.4457 13.1314 16.5014C13.1314 16.6541 12.7866 16.6541 12.6289 16.6541H12.6266C12.6266 16.6541 12.7566 16.4518 12.7375 16.3218C12.7333 16.2925 12.7344 16.2735 12.7383 16.2607C12.6316 16.2089 12.6273 16.2154 12.6096 16.2421C12.6066 16.2467 12.6033 16.2518 12.599 16.2573C12.4946 16.3904 12.3939 16.4961 12.2957 16.5745C12.2957 16.5745 12.2337 16.1658 12.3228 16.0521C12.3339 16.038 12.3455 16.0248 12.3575 16.0126C12.2036 15.9216 12.056 15.7988 12.0413 15.769C12.0173 15.72 12.4073 15.7777 12.4073 15.7777C12.4433 15.8104 12.4881 15.8008 12.5388 15.7899C12.5665 15.784 12.5959 15.7777 12.6265 15.7777H13.1714Z" fill="white"/>
<path fill-rule="evenodd" clip-rule="evenodd" d="M25.5458 9.10839L25.4241 9.04304C25.4817 8.94131 25.4416 8.88214 25.2586 8.83385C25.046 8.77776 24.6782 8.76343 24.1544 8.79249C23.9599 8.79103 23.8082 8.8031 23.6391 8.82785C23.6459 8.82685 23.4772 8.85292 23.4365 8.85773C23.3669 8.86598 23.312 8.86729 23.2576 8.86037C23.1011 8.84045 22.9531 8.75112 22.6929 8.5229C22.4532 8.31264 22.2883 8.20338 22.1272 8.14683C21.963 8.08923 21.8474 8.08225 21.4143 8.0889C21.2971 8.09069 21.2229 8.09147 21.1365 8.09147V7.95618C21.222 7.95618 21.2955 7.95541 21.4121 7.95362C21.8635 7.9467 21.9881 7.95422 22.1743 8.01955C22.3555 8.08315 22.534 8.20143 22.7859 8.42238C23.0267 8.63359 23.1547 8.71083 23.2757 8.72622C23.2857 8.72749 23.2931 8.72872 23.2995 8.72977C23.3047 8.73063 23.3092 8.73137 23.3137 8.7319C23.3397 8.73495 23.3665 8.73101 23.548 8.70437C23.5693 8.70125 23.5927 8.69782 23.6184 8.69406C23.7844 8.66976 23.9353 8.65714 24.1181 8.65718C24.1371 8.58385 24.1723 8.41599 24.1085 8.37801C24.0262 8.32905 23.966 8.25262 23.966 8.25262C23.966 8.25262 24.38 8.17305 24.4175 8.30268C24.455 8.43231 24.4175 8.63509 24.4175 8.63509L24.346 8.64817C24.4506 8.64427 24.5484 8.64238 24.6394 8.6425C24.6539 8.56353 24.6745 8.41363 24.6293 8.37801C24.5673 8.32905 24.5218 8.25262 24.5218 8.25262C24.5218 8.25262 24.8342 8.17305 24.8625 8.30268C24.8908 8.43231 24.8625 8.63509 24.8625 8.63509L24.819 8.64566C25.0176 8.65278 25.1761 8.67191 25.2949 8.70326C25.5552 8.77193 25.6539 8.91753 25.5458 9.10839Z" fill="white"/>
<path fill-rule="evenodd" clip-rule="evenodd" d="M24.1533 7.03362C24.1533 7.07784 24.1399 7.1215 24.1138 7.16936C24.1 7.19455 24.0831 7.22056 24.0601 7.25237C24.0501 7.26637 24.0192 7.30782 24.0047 7.32716L23.9973 7.33712C23.8934 7.4781 23.8478 7.57696 23.8478 7.70599C23.8478 7.84252 23.7719 7.92294 23.6287 7.9605C23.5234 7.98814 23.4195 7.99221 23.17 7.9881C23.1013 7.98696 23.0707 7.98658 23.0334 7.98658C22.9156 7.98658 22.8295 7.97008 22.7166 7.93222C22.7051 7.92838 22.676 7.91825 22.6502 7.90925L22.6065 7.89408C22.4234 7.83194 22.2603 7.80347 21.9933 7.80347C21.7097 7.80347 21.6415 7.92239 21.7781 8.11043C21.9198 8.30548 22.2464 8.51962 22.6317 8.65552C23.0115 8.78948 23.1121 8.99137 22.9763 9.21778C22.873 9.38993 22.6273 9.56528 22.4197 9.63576C22.2485 9.69385 22.1275 9.60033 22.0543 9.39838C22.0013 9.25247 21.9759 9.05469 21.9759 8.8773C21.9759 8.73954 21.6748 8.6846 21.1084 8.68291C21.0158 8.68264 20.9331 8.68344 20.7848 8.6856C20.6322 8.68782 20.5891 8.68833 20.5254 8.68833C20.2189 8.68833 20.1307 8.64484 20.0596 8.4893L20.0508 8.46931C20.0389 8.44236 20.0187 8.39625 20.0098 8.37732C19.9869 8.32897 19.9627 8.28532 19.9327 8.24029C19.8498 8.11598 19.7054 8.13528 19.5456 8.26775C19.4033 8.38569 19.2885 8.56634 19.2885 8.67142C19.2885 8.70066 19.2941 8.72938 19.3054 8.75843C19.3386 8.84362 19.4204 8.93272 19.5733 9.05516C19.6378 9.10676 19.7132 9.16326 19.8274 9.24638C19.8201 9.24101 20.0749 9.42548 20.1573 9.4859C20.2203 9.53213 20.3229 9.61297 20.414 9.68485C20.4995 9.75225 20.575 9.81176 20.5985 9.82743C20.709 9.90107 20.8193 9.93818 21.0478 9.97582C21.1507 9.99277 21.2803 10.0102 21.4716 10.0333C21.9424 10.0901 22.2115 10.0707 22.5114 9.993L22.5979 9.97009C22.6317 9.96114 22.6566 9.95485 22.6811 9.94917C22.7658 9.92954 22.8371 9.92003 22.916 9.92003C23.1089 9.92003 23.2083 9.84372 23.2877 9.68439C23.2951 9.66954 23.3022 9.65434 23.3114 9.63412C23.3079 9.64188 23.3285 9.59624 23.3336 9.58517C23.3541 9.54092 23.3699 9.51249 23.3886 9.48904C23.4162 9.45438 23.4766 9.46407 23.5826 9.50704C23.6225 9.52326 23.6681 9.54386 23.7325 9.57434L23.7631 9.58893L23.7632 9.58898L23.7637 9.58921C23.806 9.60942 23.8784 9.64398 23.9061 9.65699C23.9727 9.68825 24.0289 9.71349 24.0827 9.73587C24.4143 9.874 24.6186 9.88545 24.7006 9.72917C24.7693 9.59818 24.8305 9.55828 24.8854 9.61078C24.922 9.64572 24.9462 9.70844 24.9882 9.85283C25.0414 10.036 25.0667 10.1025 25.1014 10.1388C25.165 10.2053 25.1332 10.3016 25.03 10.4454C25.0152 10.466 24.9992 10.4873 24.9789 10.5136C24.8483 10.6833 24.8316 10.7075 24.8316 10.7424C24.8316 10.8501 24.7602 10.8944 24.0539 11.2758C23.9608 11.326 23.8558 11.3283 23.7423 11.2886C23.6014 11.2394 23.4522 11.1282 23.301 10.9735C23.2283 10.8992 23.1599 10.8197 23.0978 10.7402C23.0761 10.7123 23.0566 10.6865 23.0398 10.6632C23.0008 10.6843 22.976 10.7071 22.9495 10.7315L22.9435 10.737C22.8609 10.8127 22.7672 10.8883 22.6641 10.959C22.3332 11.1855 21.9837 11.3099 21.6337 11.2778C21.4073 11.2571 21.1895 11.2012 20.9474 11.1127C20.936 11.1085 20.9037 11.0959 20.8614 11.0794L20.8614 11.0794L20.8613 11.0794L20.8613 11.0794C20.747 11.0349 20.5604 10.9622 20.5174 10.9508C20.4277 10.9271 20.4075 10.9429 20.4301 11.029C20.4673 11.1706 20.3461 11.5575 20.0396 12.3725L20.0149 12.438C19.6683 13.3572 19.5959 13.5645 19.5959 13.6941C19.5959 13.9838 19.8194 14.0309 20.9414 14.0309C21.2252 14.0309 21.3637 14.0219 21.426 14.0003C21.4703 13.9849 21.4728 13.9749 21.4612 13.9066C21.439 13.776 21.4711 13.68 21.6323 13.5465C21.7354 13.4611 21.8529 13.4087 21.9819 13.3856C22.1761 13.3508 22.3834 13.3832 22.5861 13.4583C22.6281 13.4738 22.6673 13.4903 22.703 13.507L22.7014 13.5076C22.6889 13.5123 22.6751 13.5181 22.6602 13.525C22.6705 13.5295 22.6806 13.5341 22.6904 13.5387C22.6715 13.55 22.6514 13.5617 22.6303 13.5741C22.5779 13.6048 22.5188 13.6394 22.4557 13.6796C22.2302 13.8234 22.0297 13.9884 22.0099 14.0526C21.9998 14.0853 22.0725 14.1266 22.2062 14.159C22.3322 14.1896 22.4967 14.2089 22.6258 14.2089C23.0599 14.2089 23.2035 14.4311 23.0498 14.8623C22.34 14.6302 21.8833 14.6302 21.6563 14.8683C21.547 14.9829 21.565 15.1579 21.6815 15.4421C21.6961 15.4777 21.7115 15.5138 21.7332 15.5633C21.8516 15.8329 21.877 15.8997 21.8841 15.9946C21.8941 16.1279 21.8191 16.1976 21.6436 16.1976C21.3334 16.1976 21.1305 15.9634 20.9473 15.5145C20.9367 15.4884 20.9115 15.4217 20.8824 15.3445L20.8824 15.3445C20.8335 15.2145 20.7733 15.0548 20.7516 15.0077C20.7213 14.9417 20.6937 14.8976 20.6667 14.8736C20.1051 14.8714 19.1423 14.5785 18.3968 14.2411C18.1899 14.1474 18.157 13.99 18.1976 13.641C18.2281 13.3823 18.2291 13.2896 18.19 13.1984C18.1395 13.0803 18.0173 13.0194 17.7909 13.0194C17.4255 13.0194 17.3072 12.9973 16.1452 12.7437C15.2762 12.5542 14.7056 12.4689 14.0869 12.4689C13.4528 12.4689 13.2162 12.8064 13.3127 13.3359C13.3881 13.7492 13.6811 14.2089 13.8401 14.2089C13.9325 14.2089 13.9659 14.17 14.0034 14.045C14.0742 13.8093 14.0945 13.7591 14.1935 13.6417C14.2925 13.5244 14.435 13.4236 14.634 13.3393C14.9979 13.1851 15.1386 13.2267 15.0346 13.4056C14.9533 13.5453 14.7477 13.711 14.6409 13.711C14.609 13.7445 14.6362 13.7723 14.678 13.8056C14.6926 13.8172 14.7088 13.8294 14.7263 13.8419C14.7553 13.8626 14.7863 13.8834 14.8174 13.9032L14.8465 13.9214L14.8563 13.9276L15.5672 14.2154L15.3265 15.501H14.6409C14.5633 15.501 14.4353 15.4555 14.2687 15.3755C14.2318 15.3578 14.1935 15.3386 14.1541 15.3181C14.0776 15.2784 14.0007 15.2359 13.927 15.1933C13.9013 15.1785 13.8777 15.1646 13.8569 15.1522C13.8173 15.2115 13.8008 15.2528 13.7855 15.2981C13.7143 15.508 13.6908 15.7246 13.7432 15.9261C13.7659 16.0134 13.8026 16.0954 13.8546 16.1713C13.893 16.2273 13.9531 16.3257 14.0095 16.4181L14.0095 16.4181L14.0095 16.4181L14.0095 16.4182L14.0095 16.4182C14.0742 16.524 14.134 16.622 14.1511 16.6397C14.2042 16.6945 14.2563 16.6829 14.3955 16.5803C14.5032 16.5009 14.5742 16.4974 14.6504 16.5547C14.6644 16.5652 14.7022 16.5996 14.7319 16.6266L14.732 16.6267C14.7487 16.6419 14.7628 16.6547 14.7687 16.6596C14.8752 16.7492 14.9909 16.7953 15.1677 16.7953C15.3502 16.7953 15.4404 16.8549 15.4595 16.9769C15.4734 17.0655 15.4654 17.1095 15.396 17.405C15.35 17.6004 15.3293 17.7284 15.3293 17.8648C15.3293 18.0046 15.2957 18.0632 15.2303 18.022C15.1871 17.9948 15.132 17.9165 15.0655 17.7958C15.0437 17.7561 15.021 17.7125 14.9976 17.6654C14.9584 17.5867 14.9193 17.5025 14.882 17.4182C14.869 17.3888 14.8571 17.3614 14.8466 17.3368C14.7992 17.3267 14.7769 17.337 14.7561 17.3532C14.6953 17.4002 14.6583 17.4862 14.6583 17.6228C14.6583 18.0686 14.622 18.1881 14.406 18.1881H12.9081V17.2995C12.9081 17.2442 12.9082 17.2293 12.9093 17.2163C12.9401 17.1978 12.9739 17.2401 12.9983 17.2708L12.9984 17.2708C13.0037 17.2775 13.0085 17.2836 13.0128 17.2884C13.114 17.4016 13.2683 17.4208 13.5112 17.2849C13.7612 17.145 13.7005 16.9081 13.4093 16.6274C13.1854 16.4116 12.8348 16.1976 12.7326 16.1976C12.6676 16.1976 12.6375 16.13 12.631 16.0086C12.6259 15.9149 12.6346 15.791 12.6548 15.6253C12.6599 15.584 12.6655 15.5411 12.6726 15.4892L12.6749 15.4724L12.6749 15.4723L12.6749 15.4723C12.7096 15.2179 12.7145 15.1822 12.7152 15.1463L12.7153 15.1278L12.7153 15.1222C12.649 15.1065 12.6014 15.1211 12.54 15.1474C12.4223 15.1978 12.2569 15.2895 12.0633 15.4105C11.6852 15.6469 11.2493 15.964 10.9893 16.1932C10.8239 16.3389 10.6613 16.4411 10.4831 16.5164C10.3425 16.5759 10.2134 16.6133 9.98147 16.668C9.64115 16.7482 9.56431 16.768 9.38922 16.8281C8.83978 17.0168 8.51404 16.876 8.51404 16.5938C8.51404 16.4098 9.07754 16.0001 9.68021 15.6984C9.8227 15.6271 9.91404 15.545 10.0805 15.3601C10.4303 14.9719 10.6665 14.8398 11.1862 14.8398C11.612 14.8398 11.8781 14.6252 12.0204 14.2464C12.118 13.9863 12.1436 13.7276 12.1436 13.3548L12.1435 13.3355C12.1434 13.3162 12.1434 13.2997 12.1443 13.2832C12.1502 13.1842 12.1943 13.0876 12.5027 12.4107L12.5027 12.4107L12.5027 12.4107L12.5273 12.3567C12.5965 12.2048 12.6505 12.0805 12.6982 11.9612C12.8358 11.6171 12.9081 11.342 12.9081 11.1156C12.9081 10.8323 13.0758 10.6751 13.4031 10.6094C13.65 10.5598 13.8872 10.5596 14.5269 10.5885C14.7161 10.5971 14.8159 10.6011 14.9297 10.6041C15.0143 10.6064 15.0927 10.6076 15.1677 10.6076H16.5272C16.5893 10.6076 16.6538 10.6474 16.7429 10.7314C16.7613 10.7487 16.8126 10.8009 16.866 10.8553C16.9207 10.9109 16.9775 10.9688 17.0032 10.9934C17.2615 11.2414 17.4978 11.3694 17.7909 11.3694C17.9475 11.3694 18.036 11.3306 18.0679 11.2604C18.0953 11.2004 18.0824 11.1155 18.0354 11.0123C18.0093 10.9551 17.9736 10.8941 17.9307 10.8314C17.8973 10.7824 17.8614 10.7352 17.8255 10.6915C17.813 10.6762 17.8014 10.6624 17.7909 10.6504C17.7696 10.6136 17.7669 10.6051 17.7639 10.5955L17.7639 10.5954C17.7553 10.5678 17.745 10.5357 17.7331 10.4996C17.699 10.3963 17.6584 10.2812 17.6115 10.1572C17.4775 9.80302 17.3198 9.44885 17.1395 9.1184C17.0548 8.96332 16.967 8.81693 16.8759 8.68064C16.2874 7.79982 16.5653 7.01671 17.4721 7.01671C17.7648 7.01671 17.9085 6.97548 17.9446 6.8987C17.9717 6.8412 17.9529 6.78592 17.8659 6.61605C17.8421 6.56955 17.8279 6.54053 17.8149 6.50986C17.7877 6.44602 17.7735 6.3921 17.7735 6.34172C17.7735 6.11772 18.0931 6.11772 18.7213 6.32571C18.8638 6.52568 19.3349 6.44481 20.1395 6.08077C20.741 5.80861 20.9933 5.78214 21.2721 5.90215C21.2896 5.90966 21.3368 5.93112 21.3681 5.94532L21.3682 5.94538L21.3963 5.9581C21.5835 6.04124 21.743 6.0792 21.9933 6.0792C22.3771 6.0792 22.5285 6.16536 22.6312 6.36442L22.6348 6.37134L22.6542 6.4105C22.7365 6.57715 22.8088 6.631 23.0334 6.631C23.4469 6.631 23.7856 6.69249 24.0496 6.81575C24.1206 6.81855 24.1533 6.89394 24.1533 7.03362ZM22.6904 13.5387L22.7096 13.5479C22.7338 13.5597 22.7508 13.5688 22.7597 13.574L22.7748 13.5828L22.7836 13.5679C22.8035 13.5342 22.8058 13.5085 22.7811 13.497C22.7644 13.4893 22.7391 13.4935 22.703 13.507L22.7252 13.5176C22.7142 13.5244 22.7025 13.5315 22.6904 13.5387ZM22.7621 13.5366L22.7647 13.5309L22.7661 13.5279L22.7657 13.5276L22.7659 13.5275L22.7662 13.5275L22.766 13.5274L22.7659 13.5275L22.7657 13.5276C22.763 13.5263 22.7566 13.5267 22.7475 13.5288L22.7621 13.5366ZM22.7657 13.5276L22.7657 13.5276L22.7655 13.5279L22.7657 13.5276ZM21.9882 13.4189C22.1752 13.3854 22.3764 13.4168 22.5737 13.4899C22.6042 13.5012 22.6331 13.513 22.6603 13.5249C22.6005 13.5525 22.5222 13.5968 22.4367 13.6513C22.2027 13.8006 22 13.9674 21.9767 14.0429C21.9573 14.1056 22.0431 14.1543 22.1978 14.1919C22.3266 14.2231 22.4939 14.2427 22.6258 14.2427C23.0295 14.2427 23.1597 14.4359 23.0227 14.835C22.3326 14.5943 21.8683 14.5963 21.6309 14.8453C21.5089 14.9732 21.528 15.1589 21.6492 15.4547C21.6639 15.4906 21.6795 15.5269 21.7013 15.5766C21.8175 15.8412 21.8428 15.9078 21.8495 15.9971C21.858 16.1098 21.7998 16.1638 21.6436 16.1638C21.3526 16.1638 21.158 15.9391 20.9796 15.502C20.9692 15.4766 20.9446 15.4112 20.9159 15.335C20.8667 15.2045 20.8056 15.0422 20.7834 14.9939C20.7493 14.9198 20.718 14.8709 20.6732 14.8399C20.1189 14.8399 19.1556 14.5472 18.4115 14.2105C18.2234 14.1253 18.1931 13.9803 18.2355 13.6158C18.2634 13.3798 18.2644 13.2842 18.2221 13.1854C18.1654 13.0531 18.0301 12.9856 17.7909 12.9856C17.4293 12.9856 17.3108 12.9634 16.1528 12.7108C15.2815 12.5207 14.7088 12.4351 14.0869 12.4351C13.4294 12.4351 13.1784 12.793 13.2785 13.3419C13.3566 13.7697 13.6581 14.2427 13.8401 14.2427C13.952 14.2427 13.9954 14.1923 14.0368 14.0545C14.1061 13.8235 14.1255 13.7757 14.2204 13.6632C14.3157 13.5502 14.4538 13.4526 14.6478 13.3704C14.9881 13.2262 15.0828 13.2541 15.0044 13.3889C14.9286 13.5192 14.7326 13.6772 14.6409 13.6772C14.5815 13.6772 14.5529 13.7 14.5694 13.7394C14.5798 13.7643 14.6098 13.795 14.656 13.8318C14.6711 13.8438 14.6878 13.8563 14.7058 13.8692C14.7353 13.8903 14.7668 13.9114 14.7984 13.9315C14.8173 13.9436 14.8321 13.9526 14.8406 13.9577C14.8462 13.96 14.8508 13.9619 14.8554 13.9638C14.8767 13.9725 14.898 13.9811 15.0175 14.0295L15.528 14.2362L15.2975 15.4672H14.6409C14.5706 15.4672 14.4458 15.4229 14.2841 15.3452C14.2475 15.3277 14.2095 15.3086 14.1704 15.2883C14.0945 15.2488 14.018 15.2066 13.9448 15.1643C13.9191 15.1495 13.8957 15.1357 13.875 15.1234L13.8749 15.1233C13.8626 15.116 13.8538 15.1108 13.8248 15.1144C13.8201 15.1229 13.8122 15.1389 13.802 15.1614C13.7851 15.1988 13.7682 15.2411 13.7525 15.2876C13.6794 15.503 13.6552 15.7257 13.7095 15.9344C13.7332 16.0254 13.7715 16.111 13.8257 16.1901C13.8618 16.2428 13.9189 16.3362 13.974 16.4264C14.0416 16.5369 14.1063 16.6427 14.1258 16.6629C14.1952 16.7346 14.2648 16.7191 14.4165 16.6073C14.5123 16.5367 14.566 16.5341 14.6292 16.5815C14.6417 16.5909 14.6769 16.6229 14.706 16.6494C14.7238 16.6656 14.7393 16.6797 14.746 16.6853C14.8585 16.7799 14.9822 16.8291 15.1677 16.8291C15.3344 16.8291 15.4089 16.8784 15.4252 16.9821C15.4381 17.0642 15.43 17.1088 15.3621 17.3974C15.3157 17.5952 15.2946 17.7253 15.2946 17.8648C15.2946 17.982 15.2777 18.0115 15.2492 17.9936C15.2129 17.9708 15.1596 17.8951 15.0961 17.7798C15.0745 17.7406 15.052 17.6974 15.0288 17.6507C14.99 17.5725 14.951 17.4887 14.914 17.4049C14.901 17.3756 14.8891 17.3483 14.8787 17.3239L14.8786 17.3236C14.8724 17.3091 14.868 17.2987 14.8496 17.2826C14.82 17.2826 14.7771 17.2937 14.7345 17.3267C14.6648 17.3807 14.6235 17.4765 14.6235 17.6229C14.6235 18.0487 14.5915 18.1543 14.406 18.1543H12.9428V17.2995L12.9429 17.2514C12.9562 17.2715 12.9733 17.2957 12.9866 17.3106C13.0991 17.4365 13.2717 17.4579 13.5286 17.3142C13.8058 17.1591 13.7387 16.8974 13.4337 16.6034C13.2038 16.3818 12.8467 16.1638 12.7327 16.1638C12.6946 16.1638 12.6713 16.1115 12.6657 16.0069C12.6608 15.9156 12.6693 15.7933 12.6893 15.6293C12.6943 15.5882 12.7 15.5454 12.707 15.4937C12.7441 15.2226 12.7493 15.1854 12.7499 15.1481C12.7501 15.1403 12.75 15.1324 12.75 15.1223C12.75 15.0848 12.7221 15.0673 12.6777 15.0705C12.6415 15.0731 12.5908 15.0888 12.526 15.1165C12.4064 15.1677 12.2395 15.2602 12.0445 15.3821C11.6649 15.6194 11.2275 15.9376 10.9659 16.1682C10.8034 16.3114 10.644 16.4115 10.4693 16.4854C10.331 16.544 10.2034 16.5809 9.97331 16.6351C9.63174 16.7156 9.55431 16.7356 9.37768 16.7963C8.84815 16.9781 8.54878 16.8487 8.54878 16.5938C8.54878 16.4298 9.10891 16.0225 9.6961 15.7285C9.84359 15.6547 9.93745 15.5704 10.1341 15.3519C10.4504 15.0009 10.6779 14.8737 11.1862 14.8737C11.6278 14.8737 11.9061 14.6493 12.053 14.258C12.1524 13.9931 12.1783 13.7314 12.1783 13.3548C12.1783 13.3293 12.1779 13.3091 12.1791 13.2889C12.185 13.1894 12.2302 13.0922 12.5591 12.3704C12.6285 12.2181 12.6827 12.0934 12.7306 11.9735C12.8696 11.6258 12.9428 11.3472 12.9428 11.1156C12.9428 10.8504 13.0976 10.7053 13.4102 10.6425C13.653 10.5938 13.889 10.5936 14.5253 10.6224C14.7147 10.6309 14.8147 10.6349 14.9288 10.638C15.0136 10.6403 15.0924 10.6414 15.1677 10.6414H16.5272C16.5774 10.6414 16.6359 10.6776 16.7188 10.7557C16.7366 10.7725 16.787 10.8238 16.8399 10.8776C16.8949 10.9337 16.9526 10.9924 16.9788 11.0175C17.243 11.2712 17.4868 11.4033 17.7909 11.4033C17.9598 11.4033 18.0611 11.3588 18.0997 11.2742C18.132 11.2033 18.1178 11.1097 18.0671 10.9986C18.0402 10.9394 18.0036 10.8769 17.9597 10.8127C17.9256 10.7629 17.8892 10.7149 17.8527 10.6704C17.8399 10.6549 17.8281 10.6408 17.8174 10.6286L17.8174 10.6285C17.8128 10.6233 17.8091 10.619 17.7971 10.5856C17.7885 10.5578 17.7782 10.5256 17.7662 10.4892C17.7319 10.3855 17.6912 10.27 17.6441 10.1456C17.5096 9.79003 17.3513 9.4345 17.1702 9.10256C17.0851 8.94664 16.9967 8.79939 16.905 8.66223C16.33 7.80161 16.5966 7.05056 17.4721 7.05056C17.7777 7.05056 17.9323 7.00622 17.9762 6.91281C18.0099 6.84114 17.9901 6.7828 17.897 6.60098C17.8735 6.55514 17.8596 6.52669 17.847 6.49693C17.8214 6.43685 17.8083 6.38694 17.8083 6.34176C17.8083 6.15806 18.1035 6.15751 18.7047 6.35598C18.857 6.5648 19.3388 6.48039 20.1542 6.11148C20.7474 5.84305 20.9898 5.81762 21.2581 5.93312C21.2751 5.94046 21.3218 5.96164 21.3531 5.97584C21.3672 5.98226 21.3782 5.98725 21.3819 5.98891C21.5734 6.07395 21.7377 6.11305 21.9933 6.11305C22.3643 6.11305 22.5036 6.19229 22.6001 6.37963C22.6019 6.38305 22.6028 6.3847 22.6036 6.38636C22.6057 6.39045 22.6078 6.39458 22.6229 6.4252C22.7106 6.60266 22.794 6.66486 23.0334 6.66486C23.4438 6.66486 23.7787 6.72595 24.0455 6.84953C24.0923 6.84953 24.1186 6.90797 24.1186 7.03365C24.1186 7.07171 24.1068 7.11018 24.0831 7.15351C24.0702 7.17729 24.0539 7.20221 24.0317 7.23298C24.0219 7.24667 23.9914 7.28751 23.9769 7.30704C23.9727 7.31263 23.9698 7.31648 23.9691 7.31743C23.8614 7.46365 23.8131 7.56826 23.8131 7.70603C23.8131 7.82588 23.7488 7.89401 23.6197 7.92787C23.5188 7.95435 23.4164 7.95837 23.17 7.9543C23.1017 7.95318 23.071 7.9528 23.0334 7.9528C22.9199 7.9528 22.8375 7.937 22.7279 7.90027C22.7167 7.89651 22.688 7.88651 22.6622 7.87756C22.6428 7.87079 22.6251 7.86462 22.6179 7.86218C22.4313 7.79882 22.2643 7.76968 21.9933 7.76968C21.6822 7.76968 21.5965 7.91903 21.7497 8.13C21.896 8.33134 22.2284 8.54929 22.6199 8.68735C22.9807 8.81464 23.0702 8.99419 22.9463 9.20076C22.8476 9.36529 22.6086 9.53585 22.4082 9.60385C22.2592 9.65446 22.1547 9.57374 22.087 9.38715C22.0356 9.24545 22.0107 9.05122 22.0107 8.87733C22.0107 8.70673 21.7047 8.6509 21.1085 8.64912C21.0156 8.64885 20.9328 8.64965 20.7843 8.65181C20.6319 8.65403 20.5888 8.65454 20.5254 8.65454C20.2315 8.65454 20.1561 8.61742 20.0913 8.47558C20.0905 8.47376 20.0874 8.46672 20.0831 8.45689C20.0714 8.43018 20.0506 8.38282 20.0413 8.36322C20.0178 8.31346 19.9928 8.26839 19.9618 8.2219C19.8644 8.07576 19.6966 8.09818 19.5231 8.24203C19.3738 8.36577 19.2538 8.55464 19.2538 8.67145C19.2538 8.70486 19.2602 8.73765 19.2729 8.77046C19.3089 8.86267 19.394 8.95539 19.5513 9.08132C19.6163 9.13333 19.692 9.1901 19.8067 9.27351C19.7993 9.2682 20.0541 9.4526 20.1364 9.51295C20.1981 9.55822 20.299 9.63777 20.3897 9.70926C20.4767 9.77783 20.5543 9.83899 20.5789 9.85538C20.6941 9.93217 20.8089 9.97082 21.042 10.0092C21.1455 10.0263 21.2755 10.0438 21.4673 10.0669C21.9427 10.1242 22.2162 10.1045 22.5203 10.0257L22.607 10.0028C22.6405 9.9939 22.6651 9.98769 22.6891 9.98211C22.7714 9.96305 22.8401 9.95389 22.916 9.95389C23.1239 9.95389 23.2343 9.86917 23.3189 9.69917C23.3265 9.68391 23.3338 9.66839 23.3432 9.64783C23.3397 9.65543 23.3602 9.61001 23.3653 9.59912C23.3848 9.55712 23.3995 9.53062 23.4161 9.50981C23.4416 9.4778 23.461 9.48568 23.891 9.68749C23.9581 9.71896 24.0148 9.74439 24.069 9.767C24.4166 9.91174 24.6373 9.92411 24.7315 9.74459C24.7912 9.63095 24.8303 9.60546 24.8611 9.63495C24.8912 9.66375 24.915 9.72528 24.9644 9.89499C25.0099 10.052 25.0358 10.1198 25.076 10.1618C25.1232 10.2113 25.0955 10.2951 25.0015 10.426C24.987 10.4463 24.9712 10.4673 24.9511 10.4934C24.809 10.6779 24.7969 10.6955 24.7969 10.7425C24.7969 10.8285 24.7035 10.8864 24.0371 11.2462C23.9534 11.2914 23.8588 11.2934 23.754 11.2568C23.6193 11.2098 23.474 11.1014 23.3261 10.9502C23.2545 10.8769 23.1869 10.7983 23.1255 10.7197C23.104 10.6922 23.0848 10.6667 23.0682 10.6438C23.0583 10.6301 23.0514 10.6203 23.0354 10.5968C23.0354 10.5968 23.0073 10.6274 22.9945 10.6404C22.9732 10.6621 22.9481 10.6863 22.9197 10.7124C22.8383 10.787 22.7458 10.8617 22.6441 10.9313C22.3194 11.1537 21.9774 11.2753 21.637 11.2442C21.4141 11.2237 21.1991 11.1686 20.9597 11.0811C20.9491 11.0772 20.9186 11.0653 20.8782 11.0496C20.7643 11.0052 20.5718 10.9302 20.5265 10.9182C20.4128 10.8882 20.3667 10.9242 20.3965 11.0374C20.4309 11.1683 20.3078 11.561 20.007 12.3609L19.9823 12.4263C19.6311 13.3576 19.5612 13.558 19.5612 13.6941C19.5612 13.8708 19.6619 13.9666 19.8904 14.0147C20.0834 14.0553 20.3287 14.0647 20.9414 14.0647C21.2299 14.0647 21.37 14.0557 21.4376 14.0322C21.503 14.0095 21.5095 13.9838 21.4954 13.9011C21.4752 13.7818 21.5033 13.6978 21.6548 13.5723C21.7531 13.4909 21.865 13.4409 21.9882 13.4189Z" fill="#979797"/>
<path fill-rule="evenodd" clip-rule="evenodd" d="M13.1753 11.4126L12.8976 11.4231C12.8984 11.4432 12.9079 11.4616 12.9198 11.472C12.9207 11.4728 12.9196 11.4724 12.9164 11.4713C12.9138 11.4704 12.9099 11.469 12.9045 11.4674C12.8608 11.4544 12.7847 11.4467 12.6798 11.4467C12.5913 11.4467 12.4191 11.4368 12.2976 11.4298C12.2313 11.426 12.1801 11.4231 12.1657 11.4231C12.1657 11.4231 11.8695 11.5822 11.8695 11.5275C11.8695 11.492 12.1449 11.2826 12.1449 11.2826C12.1441 11.2826 12.1452 11.2822 12.1485 11.2811C12.1518 11.2799 12.1574 11.278 12.1657 11.2749C12.1737 11.2719 12.212 11.2569 12.2078 11.2585C12.2294 11.2501 12.2476 11.2434 12.2672 11.2368C12.3838 11.1975 12.5118 11.1761 12.6798 11.1761C12.992 11.1761 13.168 11.2286 13.1753 11.4126ZM11.7991 15.5621L11.5414 15.4609L10.9945 16.3841C10.9553 16.4113 10.9111 16.4365 10.8588 16.4621C10.8288 16.4767 10.7977 16.4909 10.7556 16.5091C10.7437 16.5143 10.701 16.5327 10.7032 16.5318C10.682 16.5409 10.6662 16.5478 10.651 16.5547C10.6148 16.5709 10.5662 16.5911 10.5104 16.6143L10.5104 16.6143C10.2305 16.7307 9.76796 16.9231 9.76796 17.0702L10.607 16.921C10.607 16.887 10.6408 16.8571 10.7672 16.8005C10.7811 16.7942 10.7958 16.7878 10.816 16.7791C10.8134 16.7802 10.8565 16.7616 10.8689 16.7562C10.9144 16.7364 10.949 16.7207 10.9835 16.7039C11.0478 16.6724 11.104 16.6404 11.156 16.6042C11.3605 16.462 11.5689 16.1179 11.7991 15.5621ZM9.06591 16.0678C9.238 16.018 9.36895 15.9936 9.45481 15.9936L9.51815 16.0005C9.5149 15.998 9.50957 15.9919 9.50675 15.9843L9.76795 15.892C9.68913 15.6806 9.42824 15.6806 8.98667 15.8085C8.82409 15.8556 8.70483 15.903 8.60795 15.9548C8.58051 15.9695 8.53704 15.9958 8.50623 16.0145C8.48749 16.0258 8.47343 16.0343 8.4705 16.0357C8.45881 16.041 8.44358 16.0412 8.37819 16.0263C8.26268 15.9999 8.15549 16.0766 8.04789 16.1536L8.04789 16.1536C7.97214 16.2077 7.89619 16.2621 7.81701 16.2807C7.81701 16.2807 8.50996 16.3165 8.58847 16.2807C8.60533 16.273 8.64618 16.2485 8.68258 16.2267L8.68261 16.2266L8.68264 16.2266C8.70737 16.2118 8.73004 16.1982 8.74172 16.192C8.82058 16.1498 8.92161 16.1096 9.06591 16.0678ZM9.51933 16.0015L9.51985 16.0017L9.51812 16.0006L9.51933 16.0015ZM8.82958 16.6088L8.73868 16.3673L8.03072 16.552C7.99707 16.552 7.96547 16.542 7.88732 16.5079L7.87982 16.5046C7.6499 16.4044 7.49522 16.4068 7.29713 16.589C7.28258 16.6024 7.26808 16.616 7.25359 16.63C7.16562 16.7148 6.9288 16.9756 6.94065 16.9632C6.89885 17.0068 6.867 17.0357 6.84102 17.0535C6.82236 17.0663 6.81203 17.0702 6.80893 17.0702L6.48875 17.3443C6.60709 17.344 7.01884 17.2782 7.14382 17.1478C7.1375 17.1544 7.36896 16.8996 7.44913 16.8223C7.46209 16.8098 7.47501 16.7976 7.48795 16.7857C7.5898 16.692 7.62822 16.6914 7.76627 16.7516L7.77365 16.7548C7.88713 16.8044 7.94474 16.8226 8.03072 16.8226C8.18913 16.8226 8.43897 16.7604 8.79133 16.6366L8.52134 16.8329C8.04763 16.8329 7.95983 16.8614 7.81701 17.1109C7.79932 17.1418 7.78473 17.1643 7.7716 17.1813C7.74658 17.2135 7.72571 17.2281 7.67399 17.2487C7.66355 17.2529 7.62099 17.2676 7.56756 17.286L7.56755 17.286C7.48998 17.3128 7.38952 17.3475 7.33115 17.3693C7.20688 17.4159 7.10493 17.4739 6.9843 17.5591C6.97368 17.5666 6.94831 17.5849 6.92161 17.6042L6.92147 17.6043C6.88974 17.6273 6.85617 17.6516 6.84332 17.6606C6.78247 17.7031 6.75898 17.7523 6.73938 17.7933C6.71576 17.8427 6.69779 17.8803 6.62688 17.8803L6.02161 18.0534C6.21866 18.0534 6.82823 18.0043 7.00547 17.8803C7.02052 17.8698 7.05772 17.8429 7.0908 17.8189C7.11582 17.8008 7.13848 17.7844 7.14744 17.7781C7.25015 17.7056 7.33244 17.6588 7.43089 17.6219C7.48065 17.6033 7.56934 17.5726 7.64537 17.5463L7.64548 17.5463C7.70897 17.5243 7.76359 17.5054 7.77929 17.4991C7.87463 17.4611 7.93615 17.4181 7.99339 17.3443C8.0152 17.3161 8.0363 17.2836 8.05975 17.2426L8.06019 17.2418C8.08654 17.1958 8.10411 17.1651 8.12983 17.1446C8.1814 17.1035 8.2657 17.1035 8.51901 17.1035H8.52134C8.8489 17.1035 9.07017 16.9413 9.15286 16.6386L8.88431 16.569L8.82958 16.6088ZM9.85605 16.3447L10.1339 16.3465C10.1311 16.7443 9.40169 17.0858 9.06588 17.1813L9.5442 16.8446L9.85605 16.3447ZM12.5528 12.5054L12.8305 12.4949C12.8232 12.3109 12.6472 12.2585 12.3349 12.2585C12.1669 12.2585 12.0389 12.2798 11.9224 12.3191C11.9027 12.3257 11.8846 12.3324 11.863 12.3408C11.8671 12.3392 11.8289 12.3542 11.8209 12.3572C11.8126 12.3603 11.807 12.3622 11.8036 12.3634C11.8003 12.3645 11.7992 12.3649 11.8 12.3649C11.8 12.3649 12.1981 12.529 12.3349 12.529C12.4398 12.529 12.5159 12.5367 12.5596 12.5497C12.565 12.5513 12.569 12.5527 12.5716 12.5536C12.5748 12.5547 12.5759 12.5551 12.5749 12.5543C12.563 12.5439 12.5536 12.5255 12.5528 12.5054ZM12.6916 12.9684L12.4139 12.9789C12.4147 12.999 12.4241 13.0174 12.436 13.0278C12.437 13.0286 12.4359 13.0282 12.4327 13.0271C12.4301 13.0262 12.4261 13.0248 12.4208 13.0232C12.377 13.0102 12.3009 13.0026 12.196 13.0026C12.0593 13.0026 11.962 13.0188 11.8745 13.0483C11.8594 13.0534 11.8451 13.0587 11.8271 13.0657C11.8336 13.0631 11.7921 13.0794 11.7816 13.0834C11.7359 13.1004 11.7018 13.109 11.6611 13.109L11.3377 13.2055C11.3362 13.2055 11.762 12.8629 11.7816 12.8563C11.8144 12.8452 11.8483 12.8305 11.8839 12.8151C11.9744 12.7758 12.0754 12.732 12.196 12.732C12.5083 12.732 12.6843 12.7845 12.6916 12.9684ZM12.2055 13.4524L12.4832 13.442C12.4758 13.258 12.2999 13.2055 11.9876 13.2055C11.8196 13.2055 11.3377 13.5569 11.3377 13.5569C11.3486 13.5569 11.3672 13.5581 11.3895 13.5596C11.4507 13.5636 11.5397 13.5694 11.5732 13.5569C11.5836 13.553 11.6252 13.5367 11.6187 13.5392C11.6366 13.5322 11.651 13.5269 11.6661 13.5218C11.7536 13.4923 11.8508 13.4761 11.9876 13.4761C12.0925 13.4761 12.1686 13.4837 12.2123 13.4968C12.2177 13.4984 12.2217 13.4998 12.2243 13.5007L12.2243 13.5007L12.2243 13.5007L12.2243 13.5007C12.2275 13.5018 12.2286 13.5021 12.2276 13.5013C12.2157 13.4909 12.2063 13.4725 12.2055 13.4524ZM12.4137 14.0508L12.136 14.0612C12.1368 14.0813 12.1462 14.0997 12.1581 14.1101C12.159 14.1109 12.1579 14.1105 12.1548 14.1094C12.1522 14.1085 12.1482 14.1071 12.1428 14.1055C12.0991 14.0925 12.023 14.0849 11.9181 14.0849C11.7813 14.0849 11.3832 13.9207 11.3832 13.9207C11.3824 13.9207 11.3835 13.9203 11.3868 13.9192C11.3902 13.9181 11.3958 13.9161 11.4041 13.9131C11.412 13.9101 11.4503 13.8951 11.4462 13.8967C11.4678 13.8883 11.4859 13.8816 11.5055 13.875C11.6221 13.8356 11.7501 13.8143 11.9181 13.8143C12.2304 13.8143 12.4063 13.8668 12.4137 14.0508ZM11.7886 14.5347L12.0663 14.5243C12.059 14.3403 11.883 14.2878 11.5707 14.2878C11.4027 14.2878 11.2747 14.3091 11.1582 14.3485C11.1385 14.3551 11.1204 14.3618 11.0988 14.3702C11.1029 14.3686 11.0647 14.3836 11.0567 14.3866C11.0493 14.3894 11.1492 14.4109 11.2135 14.4247C11.2914 14.4415 11.3169 14.447 11.0358 14.3942C11.0358 14.3942 11.7517 14.566 11.7955 14.5791C11.8008 14.5807 11.8048 14.5821 11.8074 14.583C11.8106 14.5841 11.8117 14.5845 11.8107 14.5836C11.7988 14.5732 11.7894 14.5548 11.7886 14.5347ZM12.622 11.8898C12.307 11.8898 12.2705 11.9051 12.244 11.9657L12.2431 11.9677C12.2347 11.987 12.2325 11.9922 12.23 11.9974L12.226 12.0057C12.2169 12.0244 12.2073 12.0415 12.1959 12.0584C12.1959 12.0584 12.2077 11.6192 12.622 11.6192H12.9046H12.9868H12.9869L12.9869 11.8898H12.9869H12.9046H12.622Z" fill="white"/>
<path fill-rule="evenodd" clip-rule="evenodd" d="M24.0455 6.83255C24.0455 6.83255 23.6526 6.64788 23.0334 6.64788C22.4141 6.64788 22.8853 6.09608 21.9932 6.09608C21.1012 6.09608 21.3663 5.54427 20.1468 6.09608C18.9273 6.64788 18.7157 6.34169 18.7157 6.34169C18.7157 6.34169 17.7909 6.0355 17.7909 6.34169C17.7909 6.64788 18.3634 7.03359 17.4721 7.03359C16.5807 7.03359 16.3088 7.80084 16.8904 8.67139C17.4721 9.54193 17.7909 10.6245 17.7909 10.6245C17.7909 10.6245 18.4851 11.3863 17.7909 11.3863C17.0966 11.3863 16.7732 10.6245 16.5272 10.6245C16.2812 10.6245 16.2424 10.6245 15.1677 10.6245C14.093 10.6245 13.5199 10.1503 12.7326 11.2609C11.9454 12.3716 12.1609 12.9644 12.1609 13.3548C12.1609 13.7452 12.1544 14.8567 11.1862 14.8567C10.2179 14.8567 9.89158 15.502 9.38341 15.7564C8.87523 16.0109 8.53137 16.4001 8.53137 16.5938C8.53137 16.7875 8.74737 17.0305 9.38341 16.8121C10.0194 16.5938 10.4475 16.6479 10.9776 16.1806C11.5077 15.7134 12.7326 14.909 12.7326 15.1222C12.7326 15.3354 12.5398 16.1806 12.7326 16.1806C12.9254 16.1806 14.1143 16.9669 13.5199 17.2995C12.9254 17.6321 12.9254 16.9669 12.9254 17.2995C12.9254 17.6321 12.9254 18.1711 12.9254 18.1711C12.9254 18.1711 14.171 18.1711 14.4059 18.1711C14.6409 18.1711 14.6409 17.9461 14.6409 17.6228C14.6409 17.2995 14.8496 17.2995 14.8496 17.2995C14.8496 17.2995 15.3119 18.4131 15.3119 17.8647C15.3119 17.3164 15.6945 16.8121 15.1677 16.8121C14.6409 16.8121 14.7022 16.3754 14.4059 16.5938C14.1096 16.8121 14.1603 16.6479 13.8401 16.1806C13.5199 15.7134 13.8401 15.1222 13.8401 15.1222C13.8401 15.1222 14.4321 15.4841 14.6409 15.4841C14.8496 15.4841 15.3119 15.4841 15.3119 15.4841L15.5476 14.2257L14.8496 13.9432C14.8496 13.9432 14.4321 13.694 14.6409 13.694C14.8496 13.694 15.4416 13.0155 14.6409 13.3548C13.8401 13.694 14.1603 14.2257 13.8401 14.2257C13.5199 14.2257 12.6261 12.4519 14.0868 12.4519C15.5476 12.4519 16.8904 13.0025 17.7909 13.0025C18.6913 13.0025 17.8537 13.9766 18.4041 14.2257C18.9546 14.4749 20.0198 14.8567 20.6732 14.8567C20.8843 15.027 20.9961 16.1806 21.6435 16.1806C22.291 16.1806 21.2938 15.2234 21.6435 14.8567C21.9932 14.49 23.0334 14.8567 23.0334 14.8567C23.0334 14.8567 23.2582 14.2257 22.6257 14.2257C22.3709 14.2257 21.9615 14.1508 21.9932 14.0477C22.0403 13.895 22.8956 13.3438 22.7686 13.5593C22.7686 13.5593 22.107 13.1755 21.6435 13.5593C21.1801 13.9432 21.9169 14.0477 20.9413 14.0477C19.9657 14.0477 19.9472 13.8986 19.9472 13.5593C19.9472 13.2201 20.497 11.3518 20.4132 11.0331C20.3295 10.7144 20.8766 11.1914 21.6353 11.2609C22.394 11.3304 23.0334 10.6245 23.0334 10.6245C23.0334 10.6245 23.6235 11.4887 24.0455 11.2609C24.4674 11.0331 24.8142 10.8604 24.8142 10.7424C24.8142 10.6245 25.2229 10.2907 25.0886 10.1503C24.9544 10.0098 24.933 9.32341 24.716 9.73683C24.4991 10.1503 23.5033 9.37266 23.4023 9.49938C23.3013 9.6261 23.289 9.93691 22.9159 9.93691C22.5429 9.93691 22.4076 10.1631 21.4694 10.05C20.5311 9.93691 20.7151 9.9161 20.1468 9.49938C19.5785 9.08265 19.2711 8.89578 19.2711 8.67139C19.2711 8.44699 19.7476 7.93177 19.9472 8.23104C20.1468 8.53032 20.02 8.67139 20.5254 8.67139C21.0307 8.67139 21.9932 8.6131 21.9932 8.87726C21.9932 9.14143 22.0593 9.74014 22.4139 9.61976C22.7686 9.49938 23.4482 8.9615 22.6257 8.67139C21.8032 8.38128 21.3608 7.78652 21.9932 7.78652C22.6257 7.78652 22.6645 7.96964 23.0334 7.96964C23.4023 7.96964 23.8304 8.02046 23.8304 7.70596C23.8304 7.39147 24.1359 7.23462 24.1359 7.03359C24.1359 6.83255 24.0455 6.83255 24.0455 6.83255Z" fill="white"/>
<path fill-rule="evenodd" clip-rule="evenodd" d="M13.7453 19.0907C14.1673 19.0907 14.5094 18.7727 14.5094 18.3804C14.5094 17.9882 14.1673 17.6702 13.7453 17.6702C13.3232 17.6702 12.9811 17.9882 12.9811 18.3804C12.9811 18.7727 13.3232 19.0907 13.7453 19.0907Z" fill="white"/>
<path fill-rule="evenodd" clip-rule="evenodd" d="M15.2736 15.4379C15.6956 15.4379 16.0378 15.1199 16.0378 14.7276C16.0378 14.3353 15.6956 14.0173 15.2736 14.0173C14.8515 14.0173 14.5094 14.3353 14.5094 14.7276C14.5094 15.1199 14.8515 15.4379 15.2736 15.4379Z" fill="white"/>
<path fill-rule="evenodd" clip-rule="evenodd" d="M22.3944 16.182C22.874 16.182 23.2628 15.7883 23.2628 15.3026C23.2628 14.8169 22.874 14.4232 22.3944 14.4232C21.9148 14.4232 21.526 14.8169 21.526 15.3026C21.526 15.7883 21.9148 16.182 22.3944 16.182Z" fill="white"/>
</g>
</svg>
