<svg width="32" height="24" viewBox="0 0 32 24" fill="none" xmlns="http://www.w3.org/2000/svg">
<path fill-rule="evenodd" clip-rule="evenodd" d="M8 0H24V24H8V0Z" fill="white"/>
<path fill-rule="evenodd" clip-rule="evenodd" d="M15.8137 7L15.8333 17H15.3337L15.6403 14.5253C13.3985 14.9287 12.3703 15.0286 12.5556 14.8251C12.7409 14.6217 12.887 14.3333 12.9937 13.9601L10 11.9628C10.3148 11.9588 10.6003 11.8807 10.8564 11.7283C11.1125 11.576 10.9845 11.0482 10.4722 10.1448L11.9837 10.3647L12.5556 9.74318L13.696 10.9367H14.2086L13.696 8.20285L14.6148 8.7161L15.8137 7ZM15.8137 7L17.0519 8.7161L17.9707 8.20285L17.4581 10.9367H17.9707L19.1111 9.74318L19.683 10.3647L21.1945 10.1448C20.6822 11.0482 20.5542 11.576 20.8103 11.7283C21.0664 11.8807 21.3519 11.9588 21.6667 11.9628L18.673 13.9601C18.7797 14.3333 18.9258 14.6217 19.1111 14.8251C19.2964 15.0286 18.2682 14.9287 16.0264 14.5253L16.333 17H15.8334L15.8137 7Z" fill="#E31D1C"/>
<path fill-rule="evenodd" clip-rule="evenodd" d="M24 0H32V24H24V0Z" fill="#E31D1C"/>
<path fill-rule="evenodd" clip-rule="evenodd" d="M0 0H8V24H0V0Z" fill="#E31D1C"/>
</svg>
