<svg width="32" height="24" viewBox="0 0 32 24" fill="none" xmlns="http://www.w3.org/2000/svg">
<mask id="mask0_1957_20196" style="mask-type:luminance" maskUnits="userSpaceOnUse" x="0" y="0" width="32" height="24">
<rect width="32" height="24" fill="white"/>
</mask>
<g mask="url(#mask0_1957_20196)">
<path fill-rule="evenodd" clip-rule="evenodd" d="M0 0H14V14H0V0Z" fill="#465BC5"/>
<path fill-rule="evenodd" clip-rule="evenodd" d="M7.12695 9.24812C7.03661 9.19971 6.92769 9.20133 6.83884 9.25241L4.73919 10.4594C4.50292 10.5953 4.22383 10.3675 4.30948 10.1088L4.97896 8.08661C5.01557 7.97605 4.98413 7.85429 4.89857 7.77528L3.49601 6.4799C3.29948 6.29838 3.42452 5.96994 3.69201 5.96508L5.63346 5.92986C5.74959 5.92775 5.85381 5.85811 5.9002 5.75163L6.80338 3.67828C6.90891 3.43602 7.25458 3.44206 7.35159 3.68785L8.17908 5.78443C8.22313 5.89603 8.33003 5.97014 8.44999 5.97224L10.3684 6.00572C10.637 6.01041 10.7617 6.34122 10.5629 6.52205L9.11409 7.84007C9.02525 7.92089 8.99387 8.0473 9.03461 8.1603L9.71515 10.0479C9.80741 10.3038 9.53551 10.5387 9.29574 10.4102L7.12695 9.24812Z" fill="#F7FCFF"/>
<path fill-rule="evenodd" clip-rule="evenodd" d="M14 -2H32V14H14V-2Z" fill="#F7FCFF"/>
<path fill-rule="evenodd" clip-rule="evenodd" d="M0 14H32V24H0V14Z" fill="#E33534"/>
</g>
</svg>
