<svg width="32" height="24" viewBox="0 0 32 24" fill="none" xmlns="http://www.w3.org/2000/svg">
<mask id="mask0_1957_20199" style="mask-type:luminance" maskUnits="userSpaceOnUse" x="0" y="0" width="32" height="24">
<rect width="32" height="24" fill="white"/>
</mask>
<g mask="url(#mask0_1957_20199)">
<path fill-rule="evenodd" clip-rule="evenodd" d="M0 0H32V24H0V0Z" fill="#E31D1C"/>
<path fill-rule="evenodd" clip-rule="evenodd" d="M7.72693 9.74812C7.63659 9.69971 7.52767 9.70133 7.43881 9.75241L5.33917 10.9594C5.10289 11.0953 4.82381 10.8675 4.90946 10.6088L5.57894 8.58661C5.61554 8.47605 5.5841 8.35429 5.49855 8.27528L4.09599 6.9799C3.89945 6.79838 4.0245 6.46994 4.29199 6.46508L6.23344 6.42986C6.34956 6.42775 6.45379 6.35811 6.50017 6.25163L7.40335 4.17828C7.50888 3.93602 7.85455 3.94206 7.95156 4.18785L8.77906 6.28443C8.82311 6.39603 8.93001 6.47014 9.04997 6.47224L10.9683 6.50572C11.237 6.51041 11.3617 6.84122 11.1629 7.02205L9.71407 8.34007C9.62522 8.42089 9.59385 8.5473 9.63458 8.6603L10.3151 10.5479C10.4074 10.8038 10.1355 11.0387 9.89572 10.9102L7.72693 9.74812Z" fill="#FBCD17"/>
<path fill-rule="evenodd" clip-rule="evenodd" d="M8.06484 14.6423C8.03903 14.6285 8.00791 14.629 7.98252 14.6435L7.38262 14.9884C7.31511 15.0272 7.23537 14.9622 7.25985 14.8882L7.45113 14.3105C7.46158 14.2789 7.4526 14.2441 7.42816 14.2215L7.02743 13.8514C6.97127 13.7995 7.007 13.7057 7.08343 13.7043L7.63813 13.6942C7.6713 13.6936 7.70108 13.6737 7.71434 13.6433L7.97239 13.0509C8.00254 12.9817 8.1013 12.9834 8.12902 13.0537L8.36545 13.6527C8.37803 13.6846 8.40857 13.7058 8.44285 13.7064L8.99095 13.7159C9.06772 13.7173 9.10333 13.8118 9.04654 13.8634L8.63259 14.24C8.60721 14.2631 8.59824 14.2992 8.60988 14.3315L8.80432 14.8708C8.83068 14.9439 8.753 15.0111 8.68449 14.9743L8.06484 14.6423Z" fill="#FBCD17"/>
<path fill-rule="evenodd" clip-rule="evenodd" d="M12.0648 13.6423C12.039 13.6285 12.0079 13.629 11.9825 13.6435L11.3826 13.9884C11.3151 14.0272 11.2354 13.9622 11.2598 13.8882L11.4511 13.3105C11.4616 13.2789 11.4526 13.2441 11.4282 13.2215L11.0274 12.8514C10.9713 12.7995 11.007 12.7057 11.0834 12.7043L11.6381 12.6942C11.6713 12.6936 11.7011 12.6737 11.7143 12.6433L11.9724 12.0509C12.0025 11.9817 12.1013 11.9834 12.129 12.0537L12.3654 12.6527C12.378 12.6846 12.4086 12.7058 12.4428 12.7064L12.991 12.7159C13.0677 12.7173 13.1033 12.8118 13.0465 12.8634L12.6326 13.24C12.6072 13.2631 12.5982 13.2992 12.6099 13.3315L12.8043 13.8708C12.8307 13.9439 12.753 14.0111 12.6845 13.9743L12.0648 13.6423Z" fill="#FBCD17"/>
<path fill-rule="evenodd" clip-rule="evenodd" d="M14.0648 9.64232C14.039 9.62849 14.0079 9.62895 13.9825 9.64355L13.3826 9.98841C13.3151 10.0272 13.2354 9.96216 13.2598 9.88823L13.4511 9.31046C13.4616 9.27887 13.4526 9.24408 13.4282 9.22151L13.0274 8.8514C12.9713 8.79954 13.007 8.7057 13.0834 8.70431L13.6381 8.69425C13.6713 8.69364 13.7011 8.67375 13.7143 8.64332L13.9724 8.05094C14.0025 7.98172 14.1013 7.98345 14.129 8.05367L14.3654 8.6527C14.378 8.68458 14.4086 8.70575 14.4428 8.70635L14.991 8.71592C15.0677 8.71726 15.1033 8.81178 15.0465 8.86344L14.6326 9.24002C14.6072 9.26311 14.5982 9.29923 14.6099 9.33151L14.8043 9.87083C14.8307 9.94394 14.753 10.0111 14.6845 9.97434L14.0648 9.64232Z" fill="#FBCD17"/>
<path fill-rule="evenodd" clip-rule="evenodd" d="M13.5648 5.64232C13.539 5.62849 13.5079 5.62895 13.4825 5.64355L12.8826 5.98841C12.8151 6.02722 12.7354 5.96216 12.7598 5.88823L12.9511 5.31046C12.9616 5.27887 12.9526 5.24408 12.9282 5.22151L12.5274 4.8514C12.4713 4.79954 12.507 4.7057 12.5834 4.70431L13.1381 4.69425C13.1713 4.69364 13.2011 4.67375 13.2143 4.64332L13.4724 4.05094C13.5025 3.98172 13.6013 3.98345 13.629 4.05367L13.8654 4.6527C13.878 4.68458 13.9086 4.70575 13.9428 4.70635L14.491 4.71592C14.5677 4.71726 14.6033 4.81178 14.5465 4.86344L14.1326 5.24002C14.1072 5.26311 14.0982 5.29923 14.1099 5.33151L14.3043 5.87083C14.3307 5.94394 14.253 6.01105 14.1845 5.97434L13.5648 5.64232Z" fill="#FBCD17"/>
</g>
</svg>
