<svg width="32" height="24" viewBox="0 0 32 24" fill="none" xmlns="http://www.w3.org/2000/svg">
<mask id="mask0_1957_20288" style="mask-type:luminance" maskUnits="userSpaceOnUse" x="0" y="0" width="32" height="24">
<rect width="32" height="24" fill="white"/>
</mask>
<g mask="url(#mask0_1957_20288)">
<path fill-rule="evenodd" clip-rule="evenodd" d="M0 0V24H32V0H0Z" fill="#3D58DB"/>
<mask id="mask1_1957_20288" style="mask-type:luminance" maskUnits="userSpaceOnUse" x="0" y="0" width="32" height="24">
<path fill-rule="evenodd" clip-rule="evenodd" d="M0 0V24H32V0H0Z" fill="white"/>
</mask>
<g mask="url(#mask1_1957_20288)">
<path d="M0 8H-2V10V14V16H0H32H34V14V10V8H32H0Z" fill="#3D58DB" stroke="#F7FCFF" stroke-width="4"/>
</g>
<path fill-rule="evenodd" clip-rule="evenodd" d="M0 0V24L18 12L0 0Z" fill="#E31D1C"/>
<mask id="mask2_1957_20288" style="mask-type:luminance" maskUnits="userSpaceOnUse" x="0" y="0" width="18" height="24">
<path fill-rule="evenodd" clip-rule="evenodd" d="M0 0V24L18 12L0 0Z" fill="white"/>
</mask>
<g mask="url(#mask2_1957_20288)">
<path fill-rule="evenodd" clip-rule="evenodd" d="M8.16209 13.6058C8.09756 13.5712 8.01976 13.5724 7.9563 13.6089L6.45655 14.471C6.28778 14.568 6.08843 14.4054 6.14961 14.2206L6.62781 12.7761C6.65396 12.6972 6.6315 12.6102 6.57039 12.5538L5.56856 11.6285C5.42818 11.4988 5.5175 11.2642 5.70856 11.2608L7.09531 11.2356C7.17826 11.2341 7.25271 11.1844 7.28584 11.1083L7.93097 9.62734C8.00634 9.4543 8.25325 9.45861 8.32254 9.63418L8.91361 11.1317C8.94508 11.2115 9.02144 11.2644 9.10712 11.2659L10.4774 11.2898C10.6693 11.2932 10.7583 11.5294 10.6163 11.6586L9.58148 12.6C9.51802 12.6578 9.4956 12.7481 9.5247 12.8288L10.0108 14.1771C10.0767 14.3599 9.88249 14.5276 9.71123 14.4359L8.16209 13.6058Z" fill="white"/>
</g>
</g>
</svg>
