<svg width="32" height="24" viewBox="0 0 32 24" fill="none" xmlns="http://www.w3.org/2000/svg">
<mask id="mask0_1957_20262" style="mask-type:luminance" maskUnits="userSpaceOnUse" x="0" y="0" width="32" height="24">
<rect width="32" height="24" fill="white"/>
</mask>
<g mask="url(#mask0_1957_20262)">
<path fill-rule="evenodd" clip-rule="evenodd" d="M0 0V24H32V0H0Z" fill="#2E42A5"/>
<mask id="mask1_1957_20262" style="mask-type:luminance" maskUnits="userSpaceOnUse" x="0" y="0" width="32" height="24">
<path fill-rule="evenodd" clip-rule="evenodd" d="M0 0V24H32V0H0Z" fill="white"/>
</mask>
<g mask="url(#mask1_1957_20262)">
<path fill-rule="evenodd" clip-rule="evenodd" d="M10.1945 10.427C10.1171 10.3855 10.0237 10.3869 9.94755 10.4306L8.14786 11.4652C7.94534 11.5817 7.70612 11.3865 7.77954 11.1647L8.35338 9.43138C8.38475 9.33661 8.3578 9.23225 8.28447 9.16452L7.08228 8.0542C6.91382 7.89861 7.021 7.61709 7.25028 7.61293L8.91438 7.58274C9.01391 7.58093 9.10325 7.52124 9.14301 7.42997L9.91716 5.65281C10.0076 5.44516 10.3039 5.45034 10.3871 5.66101L11.0963 7.45809C11.1341 7.55374 11.2257 7.61726 11.3285 7.61906L12.9729 7.64776C13.2031 7.65178 13.31 7.93533 13.1396 8.09033L11.8978 9.22006C11.8216 9.28934 11.7947 9.39769 11.8296 9.49454L12.413 11.1125C12.492 11.3318 12.259 11.5332 12.0535 11.423L10.1945 10.427Z" fill="white"/>
<path fill-rule="evenodd" clip-rule="evenodd" d="M5.12967 5.78464C5.07805 5.75698 5.01581 5.75791 4.96504 5.78709L3.76524 6.47682C3.63022 6.55443 3.47075 6.42431 3.51969 6.27647L3.90225 5.12092C3.92317 5.05774 3.9052 4.98817 3.85631 4.94301L3.05485 4.2028C2.94254 4.09908 3.014 3.91139 3.16685 3.90862L4.27625 3.88849C4.34261 3.88729 4.40217 3.84749 4.42867 3.78664L4.94477 2.60187C5.00508 2.46344 5.2026 2.46689 5.25804 2.60734L5.73089 3.80539C5.75606 3.86916 5.81715 3.91151 5.8857 3.91271L6.9819 3.93184C7.13543 3.93452 7.20666 4.12356 7.09308 4.22689L6.26518 4.98004C6.21441 5.02623 6.19648 5.09846 6.21976 5.16303L6.60865 6.24166C6.66137 6.38789 6.50599 6.5221 6.36898 6.44869L5.12967 5.78464Z" fill="white"/>
<path fill-rule="evenodd" clip-rule="evenodd" d="M0 14V18H32V14H0Z" fill="#F9E813"/>
</g>
</g>
</svg>
