<svg width="32" height="24" viewBox="0 0 32 24" fill="none" xmlns="http://www.w3.org/2000/svg">
<mask id="mask0_1957_20204" style="mask-type:luminance" maskUnits="userSpaceOnUse" x="0" y="0" width="32" height="24">
<rect width="32" height="24" fill="white"/>
</mask>
<g mask="url(#mask0_1957_20204)">
<path fill-rule="evenodd" clip-rule="evenodd" d="M0 0V24H32V0H0Z" fill="#73BE4A"/>
<mask id="mask1_1957_20204" style="mask-type:luminance" maskUnits="userSpaceOnUse" x="0" y="0" width="32" height="24">
<path fill-rule="evenodd" clip-rule="evenodd" d="M0 0V24H32V0H0Z" fill="white"/>
</mask>
<g mask="url(#mask1_1957_20204)">
<path fill-rule="evenodd" clip-rule="evenodd" d="M0 -2V12H32V-2H0Z" fill="#6699FF"/>
</g>
<path fill-rule="evenodd" clip-rule="evenodd" d="M0 0V24L18 12L0 0Z" fill="white"/>
<mask id="mask2_1957_20204" style="mask-type:luminance" maskUnits="userSpaceOnUse" x="0" y="0" width="18" height="24">
<path fill-rule="evenodd" clip-rule="evenodd" d="M0 0V24L18 12L0 0Z" fill="white"/>
</mask>
<g mask="url(#mask2_1957_20204)">
<path fill-rule="evenodd" clip-rule="evenodd" d="M7.66209 13.6058C7.59756 13.5712 7.51976 13.5724 7.4563 13.6089L5.95655 14.471C5.78778 14.568 5.58843 14.4054 5.64961 14.2206L6.12781 12.7761C6.15396 12.6972 6.1315 12.6102 6.07039 12.5538L5.06856 11.6285C4.92818 11.4988 5.0175 11.2642 5.20856 11.2608L6.59531 11.2356C6.67826 11.2341 6.75271 11.1844 6.78584 11.1083L7.43097 9.62734C7.50634 9.4543 7.75325 9.45861 7.82254 9.63418L8.41361 11.1317C8.44508 11.2115 8.52144 11.2644 8.60712 11.2659L9.97738 11.2898C10.1693 11.2932 10.2583 11.5294 10.1163 11.6586L9.08148 12.6C9.01802 12.6578 8.9956 12.7481 9.0247 12.8288L9.51081 14.1771C9.57671 14.3599 9.38249 14.5276 9.21123 14.4359L7.66209 13.6058Z" fill="#E31D1C"/>
</g>
</g>
</svg>
