<svg width="32" height="24" viewBox="0 0 32 24" fill="none" xmlns="http://www.w3.org/2000/svg">
<mask id="mask0_1957_20206" style="mask-type:luminance" maskUnits="userSpaceOnUse" x="0" y="0" width="32" height="24">
<rect width="32" height="24" fill="white"/>
</mask>
<g mask="url(#mask0_1957_20206)">
<path fill-rule="evenodd" clip-rule="evenodd" d="M0 0V24H32V0H0Z" fill="#279E19"/>
<mask id="mask1_1957_20206" style="mask-type:luminance" maskUnits="userSpaceOnUse" x="0" y="0" width="32" height="24">
<path fill-rule="evenodd" clip-rule="evenodd" d="M0 0V24H32V0H0Z" fill="white"/>
</mask>
<g mask="url(#mask1_1957_20206)">
<path fill-rule="evenodd" clip-rule="evenodd" d="M17 0H19V13H32V15H19V24H17V15H0V13H17V0Z" fill="#F7FCFF"/>
<path fill-rule="evenodd" clip-rule="evenodd" d="M15 0H17V11H32V13H17V24H15V13H0V11H15V0Z" fill="#292B2E"/>
<path fill-rule="evenodd" clip-rule="evenodd" d="M13 0H15V9H32V11H15V24H13V11H0V9H13V0Z" fill="#FECA00"/>
<path fill-rule="evenodd" clip-rule="evenodd" d="M16 18C19.3137 18 22 15.3137 22 12C22 8.68629 19.3137 6 16 6C12.6863 6 10 8.68629 10 12C10 15.3137 12.6863 18 16 18Z" fill="#C51918"/>
<path fill-rule="evenodd" clip-rule="evenodd" d="M15.0445 9.30966C15.0445 9.30966 15.3295 8.38497 15.9914 8.86268C17.0295 9.37395 17.3719 9.96133 17.7726 10.6265C18.1734 11.2917 16.79 10.8045 16.532 10.4302C16.2739 10.0558 14.8424 9.93438 15.0445 9.62202C15.2466 9.30966 15.0445 9.30966 15.0445 9.30966Z" fill="#804BFF"/>
<path fill-rule="evenodd" clip-rule="evenodd" d="M14.8099 14.0441C14.8099 14.0441 14.1051 15.0082 14.8099 15.0082C15.5147 15.0082 18.3719 14.8008 18.0295 14.5261C17.687 14.2515 15.1485 14.5261 15.1485 14.5261L14.8099 14.0441Z" fill="#A95601"/>
<path fill-rule="evenodd" clip-rule="evenodd" d="M15.8634 14.0137C15.8202 13.9649 15.177 13.5425 14.9262 12.5764C14.7529 11.9085 14.8592 10.6593 15.1033 10.4117C15.7003 9.80608 16.0502 10.162 16.0502 11.0701C16.0502 11.9782 16.0861 14.2381 15.8634 14.0137Z" fill="#804BFF"/>
<path fill-rule="evenodd" clip-rule="evenodd" d="M15.7879 13.5408C15.7879 13.5408 15.7138 14.2491 16.0781 15.0759C16.4423 15.9028 17.1781 15.8868 17.1781 15.2101C17.1781 14.5333 17.715 15.1684 17.9212 15.6201C18.1274 16.0718 17.5935 11.6093 16.8358 10.611C16.0781 9.61263 15.347 9.54853 15.5675 10.1937C15.7879 10.8388 15.7879 13.5408 15.7879 13.5408Z" fill="#279E19"/>
<path fill-rule="evenodd" clip-rule="evenodd" d="M15.3455 8.69995C15.3455 8.69995 15.025 8.90548 15.025 9.47159C15.025 10.0377 15.7839 9.29631 15.7839 9.29631L15.3455 8.69995Z" fill="#FECA00"/>
<mask id="path-13-inside-1_1957_20206" fill="white">
<path fill-rule="evenodd" clip-rule="evenodd" d="M15.4138 8.4851L16.075 8.0137L16.7363 8.4851L16.4923 7.71053L17.145 7.22731L16.3329 7.21999L16.075 6.44995L15.8171 7.21999L15.0051 7.22731L15.6578 7.71053L15.4138 8.4851ZM17.6061 8.76771L18.4181 8.77502L18.676 9.54507L18.9339 8.77502L19.7459 8.76771L19.0933 8.28448L19.3373 7.50992L18.676 7.98132L18.0147 7.50992L18.2587 8.28448L17.6061 8.76771ZM19.8661 10.7681L19.2135 10.2849L20.0255 10.2776L20.2834 9.50752L20.5413 10.2776L21.3533 10.2849L20.7007 10.7681L20.9447 11.5427L20.2834 11.0713L19.6221 11.5427L19.8661 10.7681ZM19.6222 12.4572L19.8662 13.2318L19.2135 13.715L20.0256 13.7223L20.2835 14.4923L20.5413 13.7223L21.3534 13.715L20.7007 13.2318L20.9447 12.4572L20.2835 12.9286L19.6222 12.4572ZM18.4181 15.2249L18.676 14.4548L18.9339 15.2249L19.7459 15.2322L19.0932 15.7154L19.3372 16.49L18.676 16.0186L18.0147 16.49L18.2587 15.7154L17.606 15.2322L18.4181 15.2249ZM16.7363 15.5148L16.075 15.9861L15.4138 15.5148L15.6578 16.2893L15.0051 16.7725L15.8171 16.7799L16.075 17.5499L16.3329 16.7799L17.145 16.7725L16.4923 16.2893L16.7363 15.5148ZM13.732 15.2249L14.544 15.2322L13.8913 15.7155L14.1353 16.49L13.4741 16.0186L12.8128 16.49L13.0568 15.7155L12.4041 15.2322L13.2162 15.2249L13.4741 14.4549L13.732 15.2249ZM12.9365 13.715L12.2838 13.2317L12.5278 12.4572L11.8666 12.9286L11.2053 12.4572L11.4493 13.2317L10.7966 13.715L11.6087 13.7223L11.8666 14.4923L12.1245 13.7223L12.9365 13.715ZM12.2839 10.7681L12.5279 11.5426L11.8666 11.0713L11.2053 11.5426L11.4493 10.7681L10.7967 10.2849L11.6087 10.2775L11.8666 9.5075L12.1245 10.2775L12.9365 10.2849L12.2839 10.7681ZM13.4741 9.54503L13.732 8.77498L14.544 8.76767L13.8914 8.28445L14.1354 7.50988L13.4741 7.98128L12.8128 7.50988L13.0568 8.28445L12.4042 8.76767L13.2162 8.77498L13.4741 9.54503Z"/>
</mask>
<path fill-rule="evenodd" clip-rule="evenodd" d="M15.4138 8.4851L16.075 8.0137L16.7363 8.4851L16.4923 7.71053L17.145 7.22731L16.3329 7.21999L16.075 6.44995L15.8171 7.21999L15.0051 7.22731L15.6578 7.71053L15.4138 8.4851ZM17.6061 8.76771L18.4181 8.77502L18.676 9.54507L18.9339 8.77502L19.7459 8.76771L19.0933 8.28448L19.3373 7.50992L18.676 7.98132L18.0147 7.50992L18.2587 8.28448L17.6061 8.76771ZM19.8661 10.7681L19.2135 10.2849L20.0255 10.2776L20.2834 9.50752L20.5413 10.2776L21.3533 10.2849L20.7007 10.7681L20.9447 11.5427L20.2834 11.0713L19.6221 11.5427L19.8661 10.7681ZM19.6222 12.4572L19.8662 13.2318L19.2135 13.715L20.0256 13.7223L20.2835 14.4923L20.5413 13.7223L21.3534 13.715L20.7007 13.2318L20.9447 12.4572L20.2835 12.9286L19.6222 12.4572ZM18.4181 15.2249L18.676 14.4548L18.9339 15.2249L19.7459 15.2322L19.0932 15.7154L19.3372 16.49L18.676 16.0186L18.0147 16.49L18.2587 15.7154L17.606 15.2322L18.4181 15.2249ZM16.7363 15.5148L16.075 15.9861L15.4138 15.5148L15.6578 16.2893L15.0051 16.7725L15.8171 16.7799L16.075 17.5499L16.3329 16.7799L17.145 16.7725L16.4923 16.2893L16.7363 15.5148ZM13.732 15.2249L14.544 15.2322L13.8913 15.7155L14.1353 16.49L13.4741 16.0186L12.8128 16.49L13.0568 15.7155L12.4041 15.2322L13.2162 15.2249L13.4741 14.4549L13.732 15.2249ZM12.9365 13.715L12.2838 13.2317L12.5278 12.4572L11.8666 12.9286L11.2053 12.4572L11.4493 13.2317L10.7966 13.715L11.6087 13.7223L11.8666 14.4923L12.1245 13.7223L12.9365 13.715ZM12.2839 10.7681L12.5279 11.5426L11.8666 11.0713L11.2053 11.5426L11.4493 10.7681L10.7967 10.2849L11.6087 10.2775L11.8666 9.5075L12.1245 10.2775L12.9365 10.2849L12.2839 10.7681ZM13.4741 9.54503L13.732 8.77498L14.544 8.76767L13.8914 8.28445L14.1354 7.50988L13.4741 7.98128L12.8128 7.50988L13.0568 8.28445L12.4042 8.76767L13.2162 8.77498L13.4741 9.54503Z" fill="#279E19"/>
<path d="M16.075 8.0137L16.1331 7.93227L16.075 7.89089L16.017 7.93227L16.075 8.0137ZM15.4138 8.4851L15.3184 8.45505L15.2287 8.73985L15.4718 8.56652L15.4138 8.4851ZM16.7363 8.4851L16.6782 8.56652L16.9214 8.73985L16.8317 8.45505L16.7363 8.4851ZM16.4923 7.71053L16.4328 7.63016L16.3755 7.67258L16.3969 7.74058L16.4923 7.71053ZM17.145 7.22731L17.2045 7.30768L17.4445 7.13L17.1459 7.12731L17.145 7.22731ZM16.3329 7.21999L16.2381 7.25175L16.2607 7.31935L16.332 7.31999L16.3329 7.21999ZM16.075 6.44995L16.1699 6.41819L16.075 6.13506L15.9802 6.41819L16.075 6.44995ZM15.8171 7.21999L15.818 7.31999L15.8893 7.31935L15.912 7.25175L15.8171 7.21999ZM15.0051 7.22731L15.0042 7.12731L14.7056 7.13L14.9456 7.30768L15.0051 7.22731ZM15.6578 7.71053L15.7531 7.74058L15.7746 7.67258L15.7173 7.63016L15.6578 7.71053ZM18.4181 8.77502L18.5129 8.74327L18.4903 8.67567L18.419 8.67503L18.4181 8.77502ZM17.6061 8.76771L17.5466 8.68734L17.3066 8.86502L17.6052 8.86771L17.6061 8.76771ZM18.676 9.54507L18.5812 9.57682L18.676 9.85996L18.7708 9.57682L18.676 9.54507ZM18.9339 8.77502L18.933 8.67503L18.8617 8.67567L18.8391 8.74327L18.9339 8.77502ZM19.7459 8.76771L19.7468 8.86771L20.0454 8.86502L19.8054 8.68734L19.7459 8.76771ZM19.0933 8.28448L18.9979 8.25444L18.9765 8.32243L19.0338 8.36485L19.0933 8.28448ZM19.3373 7.50992L19.4326 7.53997L19.5223 7.25517L19.2792 7.42849L19.3373 7.50992ZM18.676 7.98132L18.6179 8.06274L18.676 8.10412L18.734 8.06274L18.676 7.98132ZM18.0147 7.50992L18.0728 7.42849L17.8296 7.25517L17.9194 7.53997L18.0147 7.50992ZM18.2587 8.28448L18.3182 8.36485L18.3755 8.32243L18.3541 8.25444L18.2587 8.28448ZM19.2135 10.2849L19.2126 10.1849L18.914 10.1876L19.154 10.3652L19.2135 10.2849ZM19.8661 10.7681L19.9615 10.7981L19.9829 10.7301L19.9256 10.6877L19.8661 10.7681ZM20.0255 10.2776L20.0264 10.3776L20.0977 10.3769L20.1203 10.3093L20.0255 10.2776ZM20.2834 9.50752L20.3782 9.47576L20.2834 9.19262L20.1886 9.47576L20.2834 9.50752ZM20.5413 10.2776L20.4465 10.3093L20.4691 10.3769L20.5404 10.3776L20.5413 10.2776ZM21.3533 10.2849L21.4128 10.3652L21.6528 10.1876L21.3542 10.1849L21.3533 10.2849ZM20.7007 10.7681L20.6412 10.6877L20.5839 10.7301L20.6053 10.7981L20.7007 10.7681ZM20.9447 11.5427L20.8866 11.6241L21.1297 11.7974L21.04 11.5126L20.9447 11.5427ZM20.2834 11.0713L20.3414 10.9898L20.2834 10.9485L20.2254 10.9898L20.2834 11.0713ZM19.6221 11.5427L19.5268 11.5126L19.4371 11.7974L19.6802 11.6241L19.6221 11.5427ZM19.8662 13.2318L19.9257 13.3121L19.983 13.2697L19.9616 13.2017L19.8662 13.2318ZM19.6222 12.4572L19.6802 12.3758L19.4371 12.2024L19.5268 12.4872L19.6222 12.4572ZM19.2135 13.715L19.154 13.6346L18.914 13.8123L19.2126 13.815L19.2135 13.715ZM20.0256 13.7223L20.1204 13.6905L20.0977 13.6229L20.0265 13.6223L20.0256 13.7223ZM20.2835 14.4923L20.1886 14.5241L20.2835 14.8072L20.3783 14.5241L20.2835 14.4923ZM20.5413 13.7223L20.5404 13.6223L20.4692 13.6229L20.4465 13.6905L20.5413 13.7223ZM21.3534 13.715L21.3543 13.815L21.6529 13.8123L21.4129 13.6346L21.3534 13.715ZM20.7007 13.2318L20.6054 13.2017L20.5839 13.2697L20.6412 13.3121L20.7007 13.2318ZM20.9447 12.4572L21.0401 12.4872L21.1298 12.2024L20.8867 12.3758L20.9447 12.4572ZM20.2835 12.9286L20.2254 13.01L20.2835 13.0514L20.3415 13.01L20.2835 12.9286ZM18.676 14.4548L18.7708 14.4231L18.676 14.1399L18.5811 14.4231L18.676 14.4548ZM18.4181 15.2249L18.419 15.3249L18.4903 15.3242L18.5129 15.2566L18.4181 15.2249ZM18.9339 15.2249L18.839 15.2566L18.8617 15.3242L18.933 15.3249L18.9339 15.2249ZM19.7459 15.2322L19.8054 15.3125L20.0454 15.1349L19.7468 15.1322L19.7459 15.2322ZM19.0932 15.7154L19.0337 15.635L18.9764 15.6775L18.9979 15.7454L19.0932 15.7154ZM19.3372 16.49L19.2792 16.5714L19.5223 16.7447L19.4326 16.4599L19.3372 16.49ZM18.676 16.0186L18.734 15.9371L18.676 15.8958L18.6179 15.9371L18.676 16.0186ZM18.0147 16.49L17.9193 16.4599L17.8296 16.7447L18.0728 16.5714L18.0147 16.49ZM18.2587 15.7154L18.3541 15.7454L18.3755 15.6775L18.3182 15.635L18.2587 15.7154ZM17.606 15.2322L17.6051 15.1322L17.3065 15.1349L17.5465 15.3125L17.606 15.2322ZM16.075 15.9861L16.017 16.0676L16.075 16.109L16.1331 16.0676L16.075 15.9861ZM16.7363 15.5148L16.8317 15.5448L16.9214 15.26L16.6782 15.4333L16.7363 15.5148ZM15.4138 15.5148L15.4718 15.4333L15.2287 15.26L15.3184 15.5448L15.4138 15.5148ZM15.6578 16.2893L15.7173 16.3697L15.7746 16.3273L15.7531 16.2593L15.6578 16.2893ZM15.0051 16.7725L14.9456 16.6922L14.7056 16.8698L15.0042 16.8725L15.0051 16.7725ZM15.8171 16.7799L15.912 16.7481L15.8893 16.6805L15.818 16.6799L15.8171 16.7799ZM16.075 17.5499L15.9802 17.5817L16.075 17.8648L16.1699 17.5817L16.075 17.5499ZM16.3329 16.7799L16.332 16.6799L16.2607 16.6805L16.2381 16.7481L16.3329 16.7799ZM17.145 16.7725L17.1459 16.8725L17.4445 16.8698L17.2045 16.6922L17.145 16.7725ZM16.4923 16.2893L16.3969 16.2593L16.3755 16.3273L16.4328 16.3697L16.4923 16.2893ZM14.544 15.2322L14.6035 15.3126L14.8435 15.1349L14.5449 15.1322L14.544 15.2322ZM13.732 15.2249L13.6371 15.2567L13.6598 15.3243L13.7311 15.3249L13.732 15.2249ZM13.8913 15.7155L13.8318 15.6351L13.7745 15.6775L13.796 15.7455L13.8913 15.7155ZM14.1353 16.49L14.0773 16.5714L14.3204 16.7448L14.2307 16.46L14.1353 16.49ZM13.4741 16.0186L13.5321 15.9372L13.4741 15.8958L13.416 15.9372L13.4741 16.0186ZM12.8128 16.49L12.7174 16.46L12.6277 16.7448L12.8709 16.5714L12.8128 16.49ZM13.0568 15.7155L13.1522 15.7455L13.1736 15.6775L13.1163 15.6351L13.0568 15.7155ZM12.4041 15.2322L12.4032 15.1322L12.1046 15.1349L12.3446 15.3126L12.4041 15.2322ZM13.2162 15.2249L13.2171 15.3249L13.2884 15.3243L13.311 15.2567L13.2162 15.2249ZM13.4741 14.4549L13.5689 14.4231L13.4741 14.14L13.3792 14.4231L13.4741 14.4549ZM12.2838 13.2317L12.1885 13.2017L12.167 13.2697L12.2243 13.3121L12.2838 13.2317ZM12.9365 13.715L12.9374 13.815L13.236 13.8123L12.996 13.6346L12.9365 13.715ZM12.5278 12.4572L12.6232 12.4872L12.7129 12.2024L12.4698 12.3758L12.5278 12.4572ZM11.8666 12.9286L11.8085 13.01L11.8666 13.0514L11.9246 13.01L11.8666 12.9286ZM11.2053 12.4572L11.2634 12.3758L11.0202 12.2024L11.1099 12.4872L11.2053 12.4572ZM11.4493 13.2317L11.5088 13.3121L11.5661 13.2697L11.5447 13.2017L11.4493 13.2317ZM10.7966 13.715L10.7371 13.6346L10.4971 13.8123L10.7957 13.815L10.7966 13.715ZM11.6087 13.7223L11.7035 13.6905L11.6809 13.6229L11.6096 13.6223L11.6087 13.7223ZM11.8666 14.4923L11.7717 14.5241L11.8666 14.8072L11.9614 14.5241L11.8666 14.4923ZM12.1245 13.7223L12.1236 13.6223L12.0523 13.6229L12.0296 13.6905L12.1245 13.7223ZM12.5279 11.5426L12.4698 11.6241L12.713 11.7974L12.6232 11.5126L12.5279 11.5426ZM12.2839 10.7681L12.2244 10.6877L12.1671 10.7301L12.1885 10.7981L12.2839 10.7681ZM11.8666 11.0713L11.9247 10.9898L11.8666 10.9484L11.8086 10.9898L11.8666 11.0713ZM11.2053 11.5426L11.11 11.5126L11.0203 11.7974L11.2634 11.6241L11.2053 11.5426ZM11.4493 10.7681L11.5447 10.7981L11.5661 10.7301L11.5088 10.6877L11.4493 10.7681ZM10.7967 10.2849L10.7958 10.1849L10.4972 10.1876L10.7372 10.3652L10.7967 10.2849ZM11.6087 10.2775L11.6096 10.3775L11.6809 10.3769L11.7035 10.3093L11.6087 10.2775ZM11.8666 9.5075L11.9614 9.47575L11.8666 9.19261L11.7718 9.47575L11.8666 9.5075ZM12.1245 10.2775L12.0297 10.3093L12.0523 10.3769L12.1236 10.3775L12.1245 10.2775ZM12.9365 10.2849L12.996 10.3652L13.236 10.1876L12.9374 10.1849L12.9365 10.2849ZM13.732 8.77498L13.7311 8.67499L13.6598 8.67563L13.6372 8.74323L13.732 8.77498ZM13.4741 9.54503L13.3793 9.57679L13.4741 9.85992L13.5689 9.57679L13.4741 9.54503ZM14.544 8.76767L14.5449 8.86767L14.8435 8.86498L14.6035 8.6873L14.544 8.76767ZM13.8914 8.28445L13.796 8.2544L13.7746 8.3224L13.8319 8.36482L13.8914 8.28445ZM14.1354 7.50988L14.2307 7.53993L14.3204 7.25513L14.0773 7.42846L14.1354 7.50988ZM13.4741 7.98128L13.4161 8.06271L13.4741 8.10409L13.5321 8.06271L13.4741 7.98128ZM12.8128 7.50988L12.8709 7.42846L12.6278 7.25513L12.7175 7.53993L12.8128 7.50988ZM13.0568 8.28445L13.1163 8.36482L13.1736 8.3224L13.1522 8.2544L13.0568 8.28445ZM12.4042 8.76767L12.3447 8.6873L12.1047 8.86498L12.4033 8.86767L12.4042 8.76767ZM13.2162 8.77498L13.311 8.74323L13.2884 8.67563L13.2171 8.67499L13.2162 8.77498ZM16.017 7.93227L15.3557 8.40367L15.4718 8.56652L16.1331 8.09513L16.017 7.93227ZM16.7943 8.40367L16.1331 7.93227L16.017 8.09513L16.6782 8.56652L16.7943 8.40367ZM16.3969 7.74058L16.6409 8.51514L16.8317 8.45505L16.5877 7.68049L16.3969 7.74058ZM17.0855 7.14694L16.4328 7.63016L16.5518 7.7909L17.2045 7.30768L17.0855 7.14694ZM16.332 7.31999L17.1441 7.3273L17.1459 7.12731L16.3338 7.12L16.332 7.31999ZM15.9802 6.48171L16.2381 7.25175L16.4277 7.18824L16.1699 6.41819L15.9802 6.48171ZM15.912 7.25175L16.1699 6.48171L15.9802 6.41819L15.7223 7.18824L15.912 7.25175ZM15.006 7.3273L15.818 7.31999L15.8162 7.12L15.0042 7.12731L15.006 7.3273ZM15.7173 7.63016L15.0646 7.14694L14.9456 7.30768L15.5982 7.7909L15.7173 7.63016ZM15.5092 8.51514L15.7531 7.74058L15.5624 7.68049L15.3184 8.45505L15.5092 8.51514ZM18.419 8.67503L17.607 8.66771L17.6052 8.86771L18.4172 8.87502L18.419 8.67503ZM18.7708 9.51331L18.5129 8.74327L18.3233 8.80678L18.5812 9.57682L18.7708 9.51331ZM18.8391 8.74327L18.5812 9.51331L18.7708 9.57682L19.0287 8.80678L18.8391 8.74327ZM19.745 8.66771L18.933 8.67503L18.9348 8.87502L19.7468 8.86771L19.745 8.66771ZM19.0338 8.36485L19.6864 8.84808L19.8054 8.68734L19.1528 8.20412L19.0338 8.36485ZM19.2419 7.47988L18.9979 8.25444L19.1887 8.31453L19.4326 7.53997L19.2419 7.47988ZM18.734 8.06274L19.3953 7.59135L19.2792 7.42849L18.6179 7.89989L18.734 8.06274ZM17.9567 7.59135L18.6179 8.06274L18.734 7.89989L18.0728 7.42849L17.9567 7.59135ZM18.3541 8.25444L18.1101 7.47988L17.9194 7.53997L18.1633 8.31453L18.3541 8.25444ZM17.6656 8.84808L18.3182 8.36485L18.1992 8.20412L17.5466 8.68734L17.6656 8.84808ZM19.154 10.3652L19.8066 10.8485L19.9256 10.6877L19.273 10.2045L19.154 10.3652ZM20.0246 10.1776L19.2126 10.1849L19.2144 10.3849L20.0264 10.3776L20.0246 10.1776ZM20.1886 9.47576L19.9307 10.2458L20.1203 10.3093L20.3782 9.53927L20.1886 9.47576ZM20.6361 10.2458L20.3782 9.47576L20.1886 9.53927L20.4465 10.3093L20.6361 10.2458ZM21.3542 10.1849L20.5422 10.1776L20.5404 10.3776L21.3524 10.3849L21.3542 10.1849ZM20.7602 10.8485L21.4128 10.3652L21.2938 10.2045L20.6412 10.6877L20.7602 10.8485ZM21.04 11.5126L20.7961 10.7381L20.6053 10.7981L20.8493 11.5727L21.04 11.5126ZM20.2254 11.1527L20.8866 11.6241L21.0027 11.4612L20.3414 10.9898L20.2254 11.1527ZM19.6802 11.6241L20.3414 11.1527L20.2254 10.9898L19.5641 11.4612L19.6802 11.6241ZM19.7707 10.7381L19.5268 11.5126L19.7175 11.5727L19.9615 10.7981L19.7707 10.7381ZM19.9616 13.2017L19.7176 12.4272L19.5268 12.4872L19.7708 13.2618L19.9616 13.2017ZM19.273 13.7954L19.9257 13.3121L19.8067 13.1514L19.154 13.6346L19.273 13.7954ZM20.0265 13.6223L19.2144 13.615L19.2126 13.815L20.0247 13.8223L20.0265 13.6223ZM20.3783 14.4606L20.1204 13.6905L19.9307 13.7541L20.1886 14.5241L20.3783 14.4606ZM20.4465 13.6905L20.1886 14.4606L20.3783 14.5241L20.6362 13.7541L20.4465 13.6905ZM21.3525 13.615L20.5404 13.6223L20.5422 13.8223L21.3543 13.815L21.3525 13.615ZM20.6412 13.3121L21.2939 13.7954L21.4129 13.6346L20.7602 13.1514L20.6412 13.3121ZM20.8493 12.4272L20.6054 13.2017L20.7961 13.2618L21.0401 12.4872L20.8493 12.4272ZM20.3415 13.01L21.0028 12.5386L20.8867 12.3758L20.2254 12.8472L20.3415 13.01ZM19.5641 12.5386L20.2254 13.01L20.3415 12.8472L19.6802 12.3758L19.5641 12.5386ZM18.5811 14.4231L18.3232 15.1931L18.5129 15.2566L18.7708 14.4866L18.5811 14.4231ZM19.0287 15.1931L18.7708 14.4231L18.5811 14.4866L18.839 15.2566L19.0287 15.1931ZM19.7468 15.1322L18.9348 15.1249L18.933 15.3249L19.745 15.3322L19.7468 15.1322ZM19.1527 15.7958L19.8054 15.3125L19.6864 15.1518L19.0337 15.635L19.1527 15.7958ZM19.4326 16.4599L19.1886 15.6854L18.9979 15.7454L19.2418 16.52L19.4326 16.4599ZM18.6179 16.1L19.2792 16.5714L19.3953 16.4085L18.734 15.9371L18.6179 16.1ZM18.0728 16.5714L18.734 16.1L18.6179 15.9371L17.9567 16.4085L18.0728 16.5714ZM18.1633 15.6854L17.9193 16.4599L18.1101 16.52L18.3541 15.7454L18.1633 15.6854ZM17.5465 15.3125L18.1992 15.7958L18.3182 15.635L17.6655 15.1518L17.5465 15.3125ZM18.4172 15.1249L17.6051 15.1322L17.6069 15.3322L18.419 15.3249L18.4172 15.1249ZM16.1331 16.0676L16.7943 15.5962L16.6782 15.4333L16.017 15.9047L16.1331 16.0676ZM15.3557 15.5962L16.017 16.0676L16.1331 15.9047L15.4718 15.4333L15.3557 15.5962ZM15.7531 16.2593L15.5092 15.4847L15.3184 15.5448L15.5624 16.3194L15.7531 16.2593ZM15.0646 16.8529L15.7173 16.3697L15.5983 16.2089L14.9456 16.6922L15.0646 16.8529ZM15.818 16.6799L15.006 16.6725L15.0042 16.8725L15.8162 16.8798L15.818 16.6799ZM16.1699 17.5181L15.912 16.7481L15.7223 16.8116L15.9802 17.5817L16.1699 17.5181ZM16.2381 16.7481L15.9802 17.5181L16.1699 17.5817L16.4277 16.8116L16.2381 16.7481ZM17.1441 16.6725L16.332 16.6799L16.3338 16.8798L17.1459 16.8725L17.1441 16.6725ZM16.4328 16.3697L17.0855 16.8529L17.2045 16.6922L16.5518 16.2089L16.4328 16.3697ZM16.6409 15.4847L16.3969 16.2593L16.5877 16.3194L16.8317 15.5448L16.6409 15.4847ZM14.5449 15.1322L13.7329 15.1249L13.7311 15.3249L14.5431 15.3322L14.5449 15.1322ZM13.9508 15.7958L14.6035 15.3126L14.4845 15.1519L13.8318 15.6351L13.9508 15.7958ZM14.2307 16.46L13.9867 15.6854L13.796 15.7455L14.0399 16.5201L14.2307 16.46ZM13.416 16.1001L14.0773 16.5714L14.1934 16.4086L13.5321 15.9372L13.416 16.1001ZM12.8709 16.5714L13.5321 16.1001L13.416 15.9372L12.7548 16.4086L12.8709 16.5714ZM12.9614 15.6854L12.7174 16.46L12.9082 16.5201L13.1522 15.7455L12.9614 15.6854ZM12.3446 15.3126L12.9973 15.7958L13.1163 15.6351L12.4636 15.1519L12.3446 15.3126ZM13.2153 15.1249L12.4032 15.1322L12.405 15.3322L13.2171 15.3249L13.2153 15.1249ZM13.3792 14.4231L13.1213 15.1932L13.311 15.2567L13.5689 14.4866L13.3792 14.4231ZM13.8268 15.1932L13.5689 14.4231L13.3792 14.4866L13.6371 15.2567L13.8268 15.1932ZM12.2243 13.3121L12.877 13.7953L12.996 13.6346L12.3434 13.1514L12.2243 13.3121ZM12.4324 12.4271L12.1885 13.2017L12.3792 13.2618L12.6232 12.4872L12.4324 12.4271ZM11.9246 13.01L12.5859 12.5386L12.4698 12.3758L11.8085 12.8472L11.9246 13.01ZM11.1473 12.5386L11.8085 13.01L11.9246 12.8472L11.2634 12.3758L11.1473 12.5386ZM11.5447 13.2017L11.3007 12.4271L11.1099 12.4872L11.3539 13.2618L11.5447 13.2017ZM10.8561 13.7953L11.5088 13.3121L11.3898 13.1514L10.7371 13.6346L10.8561 13.7953ZM11.6096 13.6223L10.7975 13.615L10.7957 13.815L11.6078 13.8223L11.6096 13.6223ZM11.9614 14.4606L11.7035 13.6905L11.5139 13.754L11.7717 14.5241L11.9614 14.4606ZM12.0296 13.6905L11.7717 14.4606L11.9614 14.5241L12.2193 13.754L12.0296 13.6905ZM12.9356 13.615L12.1236 13.6223L12.1254 13.8223L12.9374 13.815L12.9356 13.615ZM12.6232 11.5126L12.3793 10.738L12.1885 10.7981L12.4325 11.5727L12.6232 11.5126ZM11.8086 11.1527L12.4698 11.6241L12.5859 11.4612L11.9247 10.9898L11.8086 11.1527ZM11.2634 11.6241L11.9247 11.1527L11.8086 10.9898L11.1473 11.4612L11.2634 11.6241ZM11.354 10.738L11.11 11.5126L11.3007 11.5727L11.5447 10.7981L11.354 10.738ZM10.7372 10.3652L11.3898 10.8485L11.5088 10.6877L10.8562 10.2045L10.7372 10.3652ZM11.6078 10.1776L10.7958 10.1849L10.7976 10.3849L11.6096 10.3775L11.6078 10.1776ZM11.7718 9.47575L11.5139 10.2458L11.7035 10.3093L11.9614 9.53926L11.7718 9.47575ZM12.2193 10.2458L11.9614 9.47575L11.7718 9.53926L12.0297 10.3093L12.2193 10.2458ZM12.9374 10.1849L12.1254 10.1776L12.1236 10.3775L12.9356 10.3849L12.9374 10.1849ZM12.3434 10.8485L12.996 10.3652L12.877 10.2045L12.2244 10.6877L12.3434 10.8485ZM13.6372 8.74323L13.3793 9.51327L13.5689 9.57679L13.8268 8.80674L13.6372 8.74323ZM14.5431 8.66768L13.7311 8.67499L13.7329 8.87498L14.5449 8.86767L14.5431 8.66768ZM13.8319 8.36482L14.4845 8.84804L14.6035 8.6873L13.9509 8.20408L13.8319 8.36482ZM14.04 7.47984L13.796 8.2544L13.9868 8.31449L14.2307 7.53993L14.04 7.47984ZM13.5321 8.06271L14.1934 7.59131L14.0773 7.42846L13.4161 7.89985L13.5321 8.06271ZM12.7548 7.59131L13.4161 8.06271L13.5321 7.89985L12.8709 7.42846L12.7548 7.59131ZM13.1522 8.2544L12.9082 7.47984L12.7175 7.53993L12.9614 8.31449L13.1522 8.2544ZM12.4637 8.84804L13.1163 8.36482L12.9973 8.20408L12.3447 8.6873L12.4637 8.84804ZM13.2171 8.67499L12.4051 8.66768L12.4033 8.86767L13.2153 8.87498L13.2171 8.67499ZM13.5689 9.51327L13.311 8.74323L13.1214 8.80674L13.3793 9.57679L13.5689 9.51327Z" fill="#FECA00" mask="url(#path-13-inside-1_1957_20206)"/>
</g>
</g>
</svg>
