<svg width="32" height="24" viewBox="0 0 32 24" fill="none" xmlns="http://www.w3.org/2000/svg">
<path fill-rule="evenodd" clip-rule="evenodd" d="M16 0H32V24H16V0Z" fill="#F7FCFF"/>
<path fill-rule="evenodd" clip-rule="evenodd" d="M0 0H16V24H0V0Z" fill="#36A400"/>
<path fill-rule="evenodd" clip-rule="evenodd" d="M20.1219 8.89828C19.3987 8.26736 18.4529 7.88519 17.4179 7.88519C15.1454 7.88519 13.3031 9.72744 13.3031 12C13.3031 14.2725 15.1454 16.1148 17.4179 16.1148C18.453 16.1148 19.3988 15.7326 20.122 15.1016C19.2062 16.2581 17.7897 17 16.2 17C13.4385 17 11.2 14.7614 11.2 12C11.2 9.23858 13.4385 7 16.2 7C17.7896 7 19.206 7.74187 20.1219 8.89828Z" fill="#E31D1C"/>
<path fill-rule="evenodd" clip-rule="evenodd" d="M18.2178 13.1228C18.178 13.0798 18.1189 13.0603 18.0614 13.0713L16.7019 13.3301C16.5489 13.3592 16.4408 13.1841 16.5355 13.0604L17.2753 12.0938C17.3158 12.041 17.3216 11.9693 17.2902 11.9107L16.7752 10.9488C16.7031 10.8141 16.8321 10.6601 16.9774 10.7076L18.0322 11.0518C18.0953 11.0724 18.1646 11.0543 18.2096 11.0055L19.0852 10.055C19.1875 9.94392 19.373 10.0119 19.3794 10.1627L19.4339 11.4496C19.4368 11.518 19.4807 11.5781 19.545 11.6016L20.5745 11.9786C20.7187 12.0314 20.7241 12.2334 20.583 12.2938L19.5541 12.7344C19.491 12.7614 19.4504 12.8238 19.4513 12.8924L19.4656 14.0389C19.4675 14.1944 19.2767 14.2703 19.1713 14.1561L18.2178 13.1228Z" fill="#E31D1C"/>
</svg>
