<svg width="32" height="24" viewBox="0 0 32 24" fill="none" xmlns="http://www.w3.org/2000/svg">
<mask id="mask0_1957_20209" style="mask-type:luminance" maskUnits="userSpaceOnUse" x="0" y="0" width="32" height="24">
<rect width="32" height="24" fill="white"/>
</mask>
<g mask="url(#mask0_1957_20209)">
<path fill-rule="evenodd" clip-rule="evenodd" d="M0 0V24H32V0H0Z" fill="#2E42A5"/>
<mask id="mask1_1957_20209" style="mask-type:luminance" maskUnits="userSpaceOnUse" x="0" y="0" width="32" height="24">
<path fill-rule="evenodd" clip-rule="evenodd" d="M0 0V24H32V0H0Z" fill="white"/>
</mask>
<g mask="url(#mask1_1957_20209)">
<path fill-rule="evenodd" clip-rule="evenodd" d="M0 0V12H32V0H0Z" fill="#FECA00"/>
<path fill-rule="evenodd" clip-rule="evenodd" d="M0 18V24H32V18H0Z" fill="#E31D1C"/>
<path fill-rule="evenodd" clip-rule="evenodd" d="M11.869 8.12293C11.869 8.12293 14.6371 6.87243 14.8887 7.01449C15.1403 7.15655 15.201 7.56146 15.4182 7.56146C15.6354 7.56146 16.0726 7.43352 16.2552 7.43352C16.4378 7.43352 16.6183 7.56146 16.6183 7.56146H17.3979V7.12791L20.9332 8.12293C20.9332 8.12293 18.8713 8.39231 18.7158 8.39231C18.5604 8.39231 18.7158 8.6145 18.7158 8.6145C18.7158 8.6145 18.4218 8.39231 17.974 8.39231C17.5263 8.39231 16.6183 8.85489 16.6183 8.85489L16.9483 9.56495L16.6183 9.77374L16.2552 9.56495C16.2552 9.56495 16.2787 8.98103 16.1224 8.98103C15.966 8.98103 15.852 9.35615 15.852 9.56495C15.852 9.77374 15.4182 9.77374 15.4182 9.77374L15.612 9.38286C15.612 9.38286 15.8046 8.73482 15.4182 8.73482C15.0318 8.73482 13.2704 8.39231 13.2704 8.39231L12.8201 8.6145L12.9811 8.12293H11.869Z" fill="#7B2900"/>
<path fill-rule="evenodd" clip-rule="evenodd" d="M13.0573 14.8228C12.6252 13.8519 13.0573 11.7008 13.0573 11.7008L13.8969 12.1411C13.7973 12.6431 13.7817 13.5918 14.0958 14.3676C14.41 15.1435 15.5977 15.7545 15.5977 15.7545C15.5977 15.7545 16.1968 15.8881 15.2865 15.9844C14.3762 16.0807 13.4893 15.7938 13.0573 14.8228ZM15.2098 18.6473C14.9393 18.6473 15.7507 16.8432 15.7507 16.8432L16.0011 16.3419C16.0011 16.3419 16.0318 18.4657 15.8603 18.6473C15.7504 18.7638 15.6252 18.7309 15.4782 18.6923C15.3959 18.6707 15.3068 18.6473 15.2098 18.6473Z" fill="#E31D1C"/>
<path fill-rule="evenodd" clip-rule="evenodd" d="M12.2752 14.5057C11.9132 13.0558 12.4779 11.087 12.4779 11.087L13.0462 11.4931C12.9627 12.2427 12.9627 14.1814 13.4434 15.0214C13.9241 15.8614 16.0323 16.2142 16.0323 16.2142C16.0323 16.2142 15.6164 16.5217 14.8537 16.6654C14.091 16.8092 12.6371 15.9556 12.2752 14.5057ZM14.692 18.4478L15.0264 17.2541L15.4976 16.6774H15.8365C15.8365 16.6774 15.3595 18.7291 15.0264 18.7291C14.81 18.7291 14.8747 18.6104 14.9467 18.4785C14.9855 18.4073 15.0264 18.3324 15.0264 18.2702C15.0264 18.0925 14.692 18.4478 14.692 18.4478Z" fill="#2E42A5"/>
<path fill-rule="evenodd" clip-rule="evenodd" d="M11.723 14.7541C11.5434 13.5062 11.9026 10.5243 11.9026 10.5243L12.4709 10.9303C12.2141 11.6526 12.2936 13.7251 12.4709 14.7541C12.6483 15.7831 14.3262 16.4034 14.3262 16.4034C14.3262 16.4034 13.9102 16.7109 13.1475 16.8546C12.3849 16.9984 11.9026 16.0021 11.723 14.7541ZM14.5127 17.248C14.1891 17.248 14.6537 16.7841 14.6537 16.7841H15.4284C15.4284 16.7841 15.1634 17.4394 14.8362 17.4394C14.6722 17.4394 14.6727 17.3913 14.6731 17.3433C14.6736 17.2956 14.674 17.248 14.5127 17.248Z" fill="#FECA00"/>
<path fill-rule="evenodd" clip-rule="evenodd" d="M18.9608 14.8228C19.3929 13.8519 18.9608 11.7008 18.9608 11.7008L18.1212 12.1411C18.2208 12.6431 18.2364 13.5918 17.9222 14.3676C17.6081 15.1435 16.4204 15.7545 16.4204 15.7545C16.4204 15.7545 15.8212 15.8881 16.7316 15.9844C17.6419 16.0807 18.5288 15.7938 18.9608 14.8228ZM16.8083 18.6473C17.0788 18.6473 16.2673 16.8432 16.2673 16.8432L16.0169 16.3419C16.0169 16.3419 15.9863 18.4657 16.1577 18.6473C16.2677 18.7638 16.3929 18.7309 16.5399 18.6923C16.6221 18.6707 16.7112 18.6473 16.8083 18.6473Z" fill="#E31D1C"/>
<path fill-rule="evenodd" clip-rule="evenodd" d="M19.7429 14.5057C20.1049 13.0558 19.5402 11.087 19.5402 11.087L18.9719 11.4931C19.0553 12.2427 19.0553 14.1814 18.5746 15.0214C18.0939 15.8614 15.9858 16.2142 15.9858 16.2142C15.9858 16.2142 16.4017 16.5217 17.1644 16.6654C17.9271 16.8092 19.3809 15.9556 19.7429 14.5057ZM17.3261 18.4478L16.9917 17.2541L16.5204 16.6774H16.1816C16.1816 16.6774 16.6586 18.7291 16.9917 18.7291C17.2081 18.7291 17.1433 18.6104 17.0714 18.4785C17.0326 18.4073 16.9917 18.3324 16.9917 18.2702C16.9917 18.0925 17.3261 18.4478 17.3261 18.4478Z" fill="#2E42A5"/>
<path fill-rule="evenodd" clip-rule="evenodd" d="M20.295 14.7541C20.4747 13.5062 20.1154 10.5243 20.1154 10.5243L19.5471 10.9303C19.804 11.6526 19.7245 13.7251 19.5471 14.7541C19.3698 15.7831 17.6919 16.4034 17.6919 16.4034C17.6919 16.4034 18.1078 16.7109 18.8705 16.8546C19.6332 16.9984 20.1154 16.0021 20.295 14.7541ZM17.5054 17.248C17.829 17.248 17.3643 16.7841 17.3643 16.7841H16.5897C16.5897 16.7841 16.8547 17.4394 17.1818 17.4394C17.3458 17.4394 17.3454 17.3913 17.3449 17.3433C17.3445 17.2956 17.3441 17.248 17.5054 17.248Z" fill="#FECA00"/>
<path d="M12.1925 11.2743L12.2535 10.9064L13.3197 10.9755L12.511 10.1377L12.7835 9.87849L13.8772 11.0116L12.9421 9.25331L13.2654 9.06104L14.1168 10.3134L13.7107 9.01168L14.0599 8.8728L15.369 11.4835L14.8668 11.451L14.916 11.6087L15.3435 11.7221L15.2461 12.084L15.0479 12.0315L15.2331 12.6251L14.9114 12.1519L15.4715 13.2045L14.0953 11.7789L12.1925 11.2743Z" fill="#6FAE21"/>
<path d="M20.0002 11.2743L19.9393 10.9064L18.873 10.9755L19.6818 10.1377L19.4093 9.87849L18.3155 11.0116L19.2506 9.25331L18.9274 9.06104L18.076 10.3134L18.4821 9.01168L18.1329 8.8728L16.8238 11.4835L17.326 11.451L17.2768 11.6087L16.8492 11.7221L16.9466 12.084L17.1449 12.0315L16.9597 12.6251L17.2814 12.1519L16.7213 13.2045L18.0975 11.7789L20.0002 11.2743Z" fill="#6FAE21"/>
<path d="M12.768 18.5105L12.4934 18.2535L20.6122 9.70557L20.8868 9.96256L12.768 18.5105Z" fill="#292B2E"/>
<path fill-rule="evenodd" clip-rule="evenodd" d="M20.406 9.77142L20.8223 10.164L21.0569 9.51501L20.406 9.77142Z" fill="white"/>
<path fill-rule="evenodd" clip-rule="evenodd" d="M12.9742 18.5088L12.4961 18.1945L12.3412 18.8388L12.9742 18.5088Z" fill="white"/>
<path d="M12.1641 17.2368L11.8895 16.9799L20.0083 8.43188L20.2829 8.68888L12.1641 17.2368Z" fill="#292B2E"/>
<path fill-rule="evenodd" clip-rule="evenodd" d="M19.8021 8.49761L20.2184 8.89018L20.453 8.24121L19.8021 8.49761Z" fill="white"/>
<path fill-rule="evenodd" clip-rule="evenodd" d="M12.3704 17.2351L11.8923 16.9208L11.7374 17.5651L12.3704 17.2351Z" fill="white"/>
<path d="M19.5521 18.5105L19.8267 18.2535L11.7079 9.70557L11.4333 9.96256L19.5521 18.5105Z" fill="#292B2E"/>
<path fill-rule="evenodd" clip-rule="evenodd" d="M11.9141 9.77142L11.4978 10.164L11.2632 9.51501L11.9141 9.77142Z" fill="white"/>
<path fill-rule="evenodd" clip-rule="evenodd" d="M19.3458 18.5088L19.8239 18.1945L19.9788 18.8388L19.3458 18.5088Z" fill="white"/>
<path d="M20.3069 17.5364L20.5815 17.2794L12.4627 8.73145L12.1881 8.98844L20.3069 17.5364Z" fill="#292B2E"/>
<path fill-rule="evenodd" clip-rule="evenodd" d="M12.6689 8.7973L12.2527 9.18986L12.0181 8.54089L12.6689 8.7973Z" fill="white"/>
<path fill-rule="evenodd" clip-rule="evenodd" d="M20.1007 17.5348L20.5788 17.2205L20.7337 17.8648L20.1007 17.5348Z" fill="white"/>
<rect x="14.4994" y="15.223" width="3.0192" height="1.4985" fill="#B74E01"/>
<path d="M16.0186 15.9138C16.6561 15.9138 17.1963 15.504 17.5645 14.9192C17.9347 14.3311 18.1556 13.5341 18.1556 12.6668C18.1556 11.7995 17.9347 11.0025 17.5645 10.4144C17.1963 9.82959 16.6561 9.4198 16.0186 9.4198C15.3811 9.4198 14.8409 9.82959 14.4727 10.4144C14.1024 11.0025 13.8816 11.7995 13.8816 12.6668C13.8816 13.5341 14.1024 14.3311 14.4727 14.9192C14.8409 15.504 15.3811 15.9138 16.0186 15.9138Z" fill="#7DB8FF" stroke="#FECA00" stroke-width="0.5"/>
<mask id="mask2_1957_20209" style="mask-type:luminance" maskUnits="userSpaceOnUse" x="13" y="9" width="6" height="8">
<path d="M16.0186 15.9138C16.6561 15.9138 17.1963 15.504 17.5645 14.9192C17.9347 14.3311 18.1556 13.5341 18.1556 12.6668C18.1556 11.7995 17.9347 11.0025 17.5645 10.4144C17.1963 9.82959 16.6561 9.4198 16.0186 9.4198C15.3811 9.4198 14.8409 9.82959 14.4727 10.4144C14.1024 11.0025 13.8816 11.7995 13.8816 12.6668C13.8816 13.5341 14.1024 14.3311 14.4727 14.9192C14.8409 15.504 15.3811 15.9138 16.0186 15.9138Z" fill="white" stroke="white" stroke-width="0.5"/>
</mask>
<g mask="url(#mask2_1957_20209)">
<path fill-rule="evenodd" clip-rule="evenodd" d="M13.9752 12.7155H15.049C15.049 12.7155 15.7871 12.879 15.418 13.0077C15.049 13.1364 15.049 13.1789 15.049 13.3624C15.049 13.5459 15.049 14.2175 15.049 14.3609C15.049 14.5043 15.3115 14.8113 14.7581 14.8113C14.2047 14.8113 13.7279 12.5363 13.7279 12.5363L13.9752 12.7155Z" fill="#6FAE21"/>
<path fill-rule="evenodd" clip-rule="evenodd" d="M18.1707 12.839C18.1707 12.839 17.1732 13.036 16.4899 12.9704C15.8066 12.9047 15.5067 12.839 15.5067 12.839C15.5067 12.839 15.983 13.0867 16.1523 13.2943C16.3215 13.5019 16.6681 13.8609 17.0214 13.8609C17.3747 13.8609 17.9162 14.196 17.9162 14.196L18.1707 12.839Z" fill="#6FAE21"/>
<path fill-rule="evenodd" clip-rule="evenodd" d="M14.2676 11.0675C14.2676 11.0675 15.0899 11.2264 15.2879 11.4644C15.486 11.7023 15.0263 11.9403 16.2245 11.7023C17.4226 11.4644 18.3736 11.0493 18.3736 11.7023C18.3736 12.3553 18.269 12.9569 17.7534 12.9569C17.2378 12.9569 17.0321 12.9569 15.4598 12.9569C13.8874 12.9569 13.0302 13.4378 13.1403 12.664C13.2504 11.8901 14.2676 11.0675 14.2676 11.0675Z" fill="#F7FCFF"/>
</g>
</g>
</g>
</svg>
