<svg width="33" height="24" viewBox="0 0 33 24" fill="none" xmlns="http://www.w3.org/2000/svg">
<mask id="mask0_1957_20252" style="mask-type:luminance" maskUnits="userSpaceOnUse" x="0" y="0" width="34" height="24">
<rect width="34" height="24" fill="white"/>
</mask>
<g mask="url(#mask0_1957_20252)">
<path fill-rule="evenodd" clip-rule="evenodd" d="M0 0V12H32V0H0Z" fill="#43B764"/>
<path fill-rule="evenodd" clip-rule="evenodd" d="M0 12V24H32V12H0Z" fill="#B4D7F4"/>
<path fill-rule="evenodd" clip-rule="evenodd" d="M0 0L33 12L0 24V0Z" fill="#BE0027"/>
<path fill-rule="evenodd" clip-rule="evenodd" d="M8.3612 15.9184C8.45064 15.8282 8.5645 15.7472 8.70773 15.6985C8.71612 15.2447 8.71076 14.7496 8.68291 14.2791C8.64533 14.2226 8.57981 14.1755 8.4658 14.1755C8.1809 14.1755 7.55513 13.932 7.55513 13.5815C7.55513 13.5815 8.0219 13.7923 8.15217 13.6869C8.20767 13.642 8.06295 13.5027 7.88803 13.3344C7.65236 13.1077 7.36186 12.8282 7.43234 12.6555C7.43234 12.6555 7.89 13.0607 7.9877 13.0607C8.03231 13.0607 8.00191 12.9294 7.97134 12.7974C7.93495 12.6402 7.89832 12.4821 7.9877 12.5431C8.15217 12.6555 8.60899 13.4307 8.60899 13.6869C8.60899 13.8263 8.64566 14.0458 8.67908 14.2169L8.67875 14.2117C8.65982 13.9166 8.63252 13.6515 8.5962 13.4246C8.39087 12.1421 8.38354 10.8275 8.66916 10.1279C8.52681 10.0397 8.42296 9.92722 8.42296 9.79876C8.42296 9.79876 8.88973 9.98845 9.02001 9.8936C9.07551 9.8532 8.93079 9.72794 8.75586 9.57654C8.52019 9.37256 8.2297 9.12112 8.30017 8.96583C8.30017 8.96583 8.75783 9.3303 8.85554 9.3303C8.90014 9.3303 8.86974 9.21219 8.83917 9.09344C8.80278 8.95208 8.76615 8.8098 8.85554 8.86474C9.02001 8.96583 9.47683 9.66315 9.47683 9.8936L9.47685 9.8991C9.65382 9.67975 9.86013 9.47506 9.96862 9.42378C10.0849 9.36884 10.0372 9.51112 9.98991 9.65248C9.95015 9.77123 9.91062 9.88934 9.96862 9.88934C10.0957 9.88934 10.6908 9.52487 10.6908 9.52487C10.7825 9.68016 10.4047 9.9316 10.0982 10.1356C9.87077 10.287 9.68257 10.4122 9.75474 10.4526C9.92415 10.5475 10.5311 10.3578 10.5311 10.3578C10.5311 10.6731 9.71739 10.8922 9.34691 10.8922C9.20917 10.8922 9.12586 10.9287 9.07555 10.9746C9.05091 11.1932 9.03959 11.4406 9.04088 11.7058C9.22607 11.4673 9.45733 11.233 9.5745 11.1776C9.69073 11.1227 9.64311 11.265 9.59578 11.4063C9.55603 11.5251 9.5165 11.6432 9.5745 11.6432C9.70155 11.6432 10.2967 11.2787 10.2967 11.2787C10.3883 11.434 10.0106 11.6854 9.70411 11.8894C9.47664 12.0408 9.28845 12.1661 9.36062 12.2065C9.53003 12.3013 10.137 12.1116 10.137 12.1116C10.137 12.392 9.49381 12.5962 9.09075 12.6381C9.11325 12.8684 9.14319 13.102 9.18021 13.3332C9.21973 13.5801 9.24883 13.8627 9.26885 14.1747C9.27744 14.3086 9.28422 14.4445 9.28938 14.5808C9.30713 14.4674 9.3203 14.3551 9.3203 14.2715C9.3203 14.0153 9.77712 13.2401 9.94159 13.1277C10.031 13.0667 9.99435 13.2248 9.95796 13.382C9.92739 13.514 9.89699 13.6453 9.94159 13.6453C10.0393 13.6453 10.497 13.2401 10.497 13.2401C10.5674 13.4128 10.2769 13.6923 10.0413 13.919C9.86634 14.0874 9.72162 14.2266 9.77712 14.2715C9.90739 14.377 10.3742 14.1661 10.3742 14.1661C10.3742 14.5166 9.7484 14.7602 9.4635 14.7602C9.38911 14.7602 9.33536 14.7802 9.29656 14.8098C9.30407 15.1106 9.30425 15.4104 9.29917 15.695C9.45455 15.7457 9.57589 15.8341 9.66935 15.932C9.85226 15.9194 10.0323 15.8916 10.2095 15.8487C10.5516 15.6605 11.3091 15.0541 11.5009 14.8157C11.6461 14.6351 11.7016 14.2796 11.754 13.9436C11.784 13.7514 11.813 13.5656 11.8573 13.4226C11.9788 13.0297 12.194 13.9001 12.194 14.0356C12.194 14.1711 12.3711 13.533 12.3711 13.0854C12.3711 12.8611 12.3266 12.7171 12.2823 12.5735C12.2381 12.4303 12.194 12.2875 12.194 12.0659C12.194 11.804 12.347 11.8504 12.4889 11.9862C12.424 11.8083 12.3711 11.5883 12.3711 11.3614C12.3711 11.071 12.3346 10.9839 12.3188 10.9622C12.3331 10.9686 12.3711 10.9722 12.4509 10.9288C12.5881 10.8543 12.6519 10.9457 12.7053 11.0223C12.752 11.0891 12.7908 11.1447 12.8636 11.0684C12.9433 10.9849 12.7713 10.89 12.5159 10.7491C12.2707 10.6138 11.9485 10.436 11.6982 10.1851C11.1871 9.67289 11.8573 9.49707 11.9716 9.67568C12.0858 9.85429 12.7669 10.0551 12.3711 9.46056C12.1304 9.09916 11.8338 9.10365 11.564 9.10773C11.3899 9.11037 11.2269 9.11283 11.0973 9.01677C10.8735 8.85088 11.1852 8.67943 11.355 8.58604C11.436 8.54152 11.4847 8.51473 11.4278 8.51473C11.3553 8.51473 11.2629 8.489 11.1541 8.45869C10.9982 8.41526 10.8085 8.36243 10.5954 8.36243C10.2334 8.36243 9.51809 8.03857 9.76549 8.03857C9.85351 8.03857 9.98394 8.00732 10.1272 7.973C10.2846 7.9353 10.4574 7.8939 10.6065 7.88613C10.1723 7.68537 9.67551 7.51608 9.11564 7.3782L9.21092 7C9.76443 7.13632 10.2625 7.30383 10.7046 7.50246C10.6284 7.38521 10.5459 7.25793 10.4774 7.13826C10.2405 6.72499 10.9798 7.3668 11.2725 7.79171L11.2734 7.79294C11.7495 8.06924 12.1423 8.39163 12.4509 8.75998V7.92362C12.7274 8.0183 12.8847 8.91147 12.9674 9.58438C13.0277 9.71959 13.0797 9.8593 13.1232 10.0035C13.2308 9.71628 13.434 9.41186 13.6166 9.67568C13.8341 9.9897 13.45 11.7711 13.3085 12.3869C13.3023 12.4515 13.2952 12.5156 13.2872 12.5793C13.6242 12.3648 13.7989 11.8695 13.8884 11.6156C13.9657 11.3966 13.9795 11.3573 13.9795 11.833C13.9795 12.4482 13.5006 13.0574 13.1083 13.4533C13.0521 13.648 12.9855 13.8376 12.9086 14.0221C13.1789 13.9368 13.4106 13.7869 13.59 13.6708C13.9044 13.4674 14.0586 13.3676 13.9795 13.9001C13.8933 14.4808 13.0509 14.6951 12.5214 14.7729C12.4829 14.8346 12.4431 14.8956 12.4019 14.956L12.3795 14.9832C12.2975 15.0662 12.2146 15.1453 12.1309 15.2207C12.1844 15.198 12.2358 15.1746 12.2861 15.1518C12.4927 15.0579 12.681 14.9725 12.9192 14.9725C13.063 14.9725 12.8664 15.0475 12.5881 15.1538C12.2592 15.2795 11.8163 15.4486 11.6864 15.5889C11.632 15.6477 11.5963 15.6952 11.5674 15.7336C11.4825 15.8466 11.457 15.8806 11.1906 15.8878C10.7797 16.1061 10.3515 16.2439 9.90658 16.3003C9.93468 16.3672 9.94644 16.4112 9.94644 16.4112H8.07094C8.07094 16.4112 8.08538 16.3571 8.12047 16.2779C7.73044 16.2117 7.35348 16.0819 6.99003 15.8891C6.98054 15.8893 6.9707 15.8894 6.9605 15.8894C6.55363 15.8894 6.53501 15.8646 6.43659 15.7336C6.40773 15.6952 6.37201 15.6477 6.31764 15.5889C6.18773 15.4486 5.74476 15.2795 5.41587 15.1538C5.13759 15.0475 4.94098 14.9725 5.08479 14.9725C5.32302 14.9725 5.51128 15.0579 5.71794 15.1518C5.78348 15.1815 5.85087 15.2121 5.92229 15.2411C5.98966 15.2685 6.08 15.3013 6.17938 15.3358C6.05054 15.2271 5.92365 15.1096 5.79875 14.9832L5.77633 14.956C5.74022 14.9031 5.70516 14.8496 5.67115 14.7957C5.18082 14.7422 4.13125 14.5519 4.0345 13.9001C3.95545 13.3676 4.10963 13.4674 4.424 13.6708C4.61335 13.7933 4.86081 13.9534 5.15043 14.0356C5.20309 14.0506 5.24977 14.0629 5.29102 14.0727C5.23527 13.9428 5.1847 13.8104 5.1393 13.6754C4.73919 13.3168 4.0345 12.5793 4.0345 11.833C4.0345 11.3573 4.04837 11.3966 4.12561 11.6156C4.2176 11.8764 4.39947 12.3921 4.75485 12.5963C4.75485 12.5963 4.1336 10.0566 4.39737 9.67568C4.66114 9.29479 4.96746 10.0984 4.96746 10.3246C4.96746 10.3641 4.9713 10.3215 4.98014 10.2234C5.02192 9.75968 5.17539 8.05641 5.56309 7.92362V8.84427C5.56309 8.88719 5.58224 8.90393 5.61583 8.89989C5.87368 8.55933 6.19936 8.25572 6.59218 7.98914C6.6505 7.917 6.70154 7.84974 6.74151 7.79171C7.03421 7.3668 7.77349 6.72499 7.53666 7.13826C7.46581 7.26189 7.38015 7.39364 7.30187 7.51405L7.30175 7.51422C7.27932 7.54873 7.25749 7.58231 7.23678 7.6145C7.73549 7.36611 8.31262 7.16124 8.96732 7L9.0626 7.3782C8.48959 7.51932 7.98271 7.69333 7.54126 7.90031C7.65485 7.91743 7.77476 7.94616 7.88682 7.973L7.88682 7.973C8.03008 8.00732 8.16051 8.03857 8.24853 8.03857C8.49593 8.03857 7.78061 8.36243 7.41867 8.36243C7.20549 8.36243 7.01582 8.41526 6.85989 8.45869C6.75108 8.489 6.65871 8.51473 6.58626 8.51473C6.52936 8.51473 6.57806 8.54152 6.659 8.58604C6.8288 8.67943 7.1405 8.85088 6.91671 9.01677C6.78712 9.11283 6.62416 9.11037 6.45006 9.10773C6.25727 9.10482 6.05081 9.10169 5.86088 9.23192C5.73293 9.41526 5.62625 9.60957 5.54071 9.81485C5.62707 9.92804 5.96498 9.79675 6.04246 9.67568C6.15675 9.49707 6.82689 9.67289 6.31582 10.1851C6.06548 10.436 5.74331 10.6138 5.49809 10.7491C5.41817 10.7932 5.34642 10.8328 5.288 10.8689C5.27971 10.9391 5.27239 11.0088 5.26602 11.0779C5.28032 11.0629 5.29412 11.0431 5.30869 11.0223C5.36212 10.9457 5.42593 10.8543 5.56309 10.9288C5.64297 10.9722 5.6809 10.9686 5.69525 10.9622C5.67942 10.9839 5.64296 11.071 5.64296 11.3614C5.64296 11.5883 5.58997 11.8083 5.52511 11.9862C5.66697 11.8504 5.82006 11.804 5.82006 12.0659C5.82006 12.2875 5.77596 12.4303 5.73177 12.5735C5.68741 12.7171 5.64296 12.8611 5.64296 13.0854C5.64296 13.533 5.82006 14.1711 5.82006 14.0356C5.82006 13.9001 6.03518 13.0297 6.15675 13.4226C6.20099 13.5656 6.22999 13.7514 6.25998 13.9436C6.3124 14.2796 6.36788 14.6351 6.51314 14.8157C6.67951 15.0226 7.27168 15.5063 7.64901 15.7538C7.88136 15.8358 8.11871 15.8906 8.3612 15.9184ZM5.70241 10.9562C5.70207 10.9554 5.69936 10.9566 5.69525 10.9622C5.70069 10.9598 5.70274 10.957 5.70241 10.9562ZM12.3188 10.9622C12.3147 10.9566 12.3119 10.9554 12.3116 10.9562C12.3113 10.957 12.3133 10.9598 12.3188 10.9622ZM12.4465 14.0924C12.4624 14.0589 12.478 14.0253 12.4932 13.9914C12.4534 14.0302 12.4235 14.0712 12.4465 14.0924ZM9.15635 10.5268C9.14628 10.6227 9.12004 10.7402 9.09186 10.8476C9.10894 10.7298 9.1304 10.6222 9.15635 10.5268Z" fill="#F3E294"/>
</g>
</svg>
