<svg width="32" height="24" viewBox="0 0 32 24" fill="none" xmlns="http://www.w3.org/2000/svg">
<mask id="mask0_1957_20215" style="mask-type:luminance" maskUnits="userSpaceOnUse" x="0" y="0" width="32" height="24">
<rect width="32" height="24" fill="white"/>
</mask>
<g mask="url(#mask0_1957_20215)">
<path fill-rule="evenodd" clip-rule="evenodd" d="M0 0V24H32V0H0Z" fill="#FFC034"/>
<mask id="mask1_1957_20215" style="mask-type:luminance" maskUnits="userSpaceOnUse" x="0" y="0" width="32" height="24">
<path fill-rule="evenodd" clip-rule="evenodd" d="M0 0V24H32V0H0Z" fill="white"/>
</mask>
<g mask="url(#mask1_1957_20215)">
<path fill-rule="evenodd" clip-rule="evenodd" d="M0 0V6H32V0H0Z" fill="#E33534"/>
<path fill-rule="evenodd" clip-rule="evenodd" d="M0 18V24H32V18H0Z" fill="#E33534"/>
<rect x="7.71472" y="11.4496" width="0.804396" height="4.18286" fill="white"/>
<path fill-rule="evenodd" clip-rule="evenodd" d="M8.84086 10.7256H7.39294V11.1278H7.63431V11.4496H8.59958V11.1278H8.84086V10.7256Z" fill="#C88A02"/>
<path fill-rule="evenodd" clip-rule="evenodd" d="M8.59954 15.8738H8.84086V16.276H7.39294V15.8738H7.63426V15.552H8.59954V15.8738Z" fill="#C88A02"/>
<path fill-rule="evenodd" clip-rule="evenodd" d="M8.11691 10.8061C8.29196 10.8061 8.30975 10.7402 8.41303 10.6417C8.49322 10.5653 8.67999 10.4705 8.67999 10.3637C8.67999 10.1193 8.42789 9.92126 8.11691 9.92126C7.80593 9.92126 7.55383 10.1193 7.55383 10.3637C7.55383 10.4827 7.68245 10.5622 7.7797 10.6417C7.88216 10.7255 7.95737 10.8061 8.11691 10.8061Z" fill="#E33534"/>
<path fill-rule="evenodd" clip-rule="evenodd" d="M7.39294 16.276H8.84086V16.9195C8.84086 16.9195 8.65987 16.8391 8.47888 16.8391C8.29789 16.8391 8.1169 16.9195 8.1169 16.9195C8.1169 16.9195 7.93591 16.8391 7.75492 16.8391C7.57393 16.8391 7.39294 16.9195 7.39294 16.9195V16.276Z" fill="#C88A02"/>
<mask id="mask2_1957_20215" style="mask-type:luminance" maskUnits="userSpaceOnUse" x="7" y="16" width="2" height="1">
<path fill-rule="evenodd" clip-rule="evenodd" d="M7.39294 16.276H8.84086V16.9195C8.84086 16.9195 8.65987 16.8391 8.47888 16.8391C8.29789 16.8391 8.1169 16.9195 8.1169 16.9195C8.1169 16.9195 7.93591 16.8391 7.75492 16.8391C7.57393 16.8391 7.39294 16.9195 7.39294 16.9195V16.276Z" fill="white"/>
</mask>
<g mask="url(#mask2_1957_20215)">
<path d="M7.37987 16.7931L7.34827 16.7161C7.47868 16.658 7.60955 16.6289 7.74063 16.6289C7.82531 16.6289 7.86953 16.6407 7.94471 16.6742C8.01074 16.7036 8.04497 16.7127 8.11719 16.7127C8.18941 16.7127 8.22363 16.7036 8.28967 16.6742C8.36484 16.6407 8.40907 16.6289 8.49375 16.6289C8.62482 16.6289 8.7557 16.658 8.88611 16.7161L8.85451 16.7931C8.73388 16.7394 8.61371 16.7127 8.49375 16.7127C8.42153 16.7127 8.3873 16.7218 8.32127 16.7512C8.24609 16.7847 8.20187 16.7965 8.11719 16.7965C8.03251 16.7965 7.98828 16.7847 7.91311 16.7512C7.84707 16.7218 7.81285 16.7127 7.74063 16.7127C7.62066 16.7127 7.5005 16.7394 7.37987 16.7931Z" fill="white"/>
<path d="M7.37987 16.5517L7.34827 16.4746C7.47868 16.4166 7.60955 16.3875 7.74063 16.3875C7.82531 16.3875 7.86953 16.3993 7.94471 16.4327C8.01074 16.4621 8.04497 16.4712 8.11719 16.4712C8.18941 16.4712 8.22363 16.4621 8.28967 16.4327C8.36484 16.3993 8.40907 16.3875 8.49375 16.3875C8.62482 16.3875 8.7557 16.4166 8.88611 16.4746L8.85451 16.5517C8.73388 16.498 8.61371 16.4712 8.49375 16.4712C8.42153 16.4712 8.3873 16.4804 8.32127 16.5098C8.24609 16.5432 8.20187 16.555 8.11719 16.555C8.03251 16.555 7.98828 16.5432 7.91311 16.5098C7.84707 16.4804 7.81285 16.4712 7.74063 16.4712C7.62066 16.4712 7.5005 16.498 7.37987 16.5517Z" fill="white"/>
</g>
<rect x="15.5978" y="11.4496" width="0.804396" height="4.18286" fill="white"/>
<path fill-rule="evenodd" clip-rule="evenodd" d="M16.7239 10.7256H15.276V11.1278H15.5174V11.4496H16.4826V11.1278H16.7239V10.7256Z" fill="#C88A02"/>
<path fill-rule="evenodd" clip-rule="evenodd" d="M16.4826 15.8738H16.7239V16.276H15.276V15.8738H15.5173V15.552H16.4826V15.8738Z" fill="#C88A02"/>
<path fill-rule="evenodd" clip-rule="evenodd" d="M16 10.8061C16.175 10.8061 16.1928 10.7402 16.2961 10.6417C16.3763 10.5653 16.563 10.4705 16.563 10.3637C16.563 10.1193 16.3109 9.92126 16 9.92126C15.689 9.92126 15.4369 10.1193 15.4369 10.3637C15.4369 10.4827 15.5655 10.5622 15.6628 10.6417C15.7652 10.7255 15.8404 10.8061 16 10.8061Z" fill="#E33534"/>
<path fill-rule="evenodd" clip-rule="evenodd" d="M15.276 16.276H16.7239V16.9195C16.7239 16.9195 16.5429 16.8391 16.3619 16.8391C16.1809 16.8391 16 16.9195 16 16.9195C16 16.9195 15.819 16.8391 15.638 16.8391C15.457 16.8391 15.276 16.9195 15.276 16.9195V16.276Z" fill="#C88A02"/>
<mask id="mask3_1957_20215" style="mask-type:luminance" maskUnits="userSpaceOnUse" x="15" y="16" width="2" height="1">
<path fill-rule="evenodd" clip-rule="evenodd" d="M15.276 16.276H16.7239V16.9195C16.7239 16.9195 16.5429 16.8391 16.3619 16.8391C16.1809 16.8391 16 16.9195 16 16.9195C16 16.9195 15.819 16.8391 15.638 16.8391C15.457 16.8391 15.276 16.9195 15.276 16.9195V16.276Z" fill="white"/>
</mask>
<g mask="url(#mask3_1957_20215)">
<path d="M15.2629 16.7931L15.2313 16.7161C15.3617 16.658 15.4926 16.6289 15.6237 16.6289C15.7084 16.6289 15.7526 16.6407 15.8278 16.6742C15.8938 16.7036 15.928 16.7127 16.0002 16.7127C16.0725 16.7127 16.1067 16.7036 16.1727 16.6742C16.2479 16.6407 16.2921 16.6289 16.3768 16.6289C16.5079 16.6289 16.6388 16.658 16.7692 16.7161L16.7376 16.7931C16.6169 16.7394 16.4968 16.7127 16.3768 16.7127C16.3046 16.7127 16.2704 16.7218 16.2043 16.7512C16.1291 16.7847 16.0849 16.7965 16.0002 16.7965C15.9156 16.7965 15.8713 16.7847 15.7962 16.7512C15.7301 16.7218 15.6959 16.7127 15.6237 16.7127C15.5037 16.7127 15.3836 16.7394 15.2629 16.7931Z" fill="white"/>
<path d="M15.2629 16.5517L15.2313 16.4746C15.3617 16.4166 15.4926 16.3875 15.6237 16.3875C15.7084 16.3875 15.7526 16.3993 15.8278 16.4327C15.8938 16.4621 15.928 16.4712 16.0002 16.4712C16.0725 16.4712 16.1067 16.4621 16.1727 16.4327C16.2479 16.3993 16.2921 16.3875 16.3768 16.3875C16.5079 16.3875 16.6388 16.4166 16.7692 16.4746L16.7376 16.5517C16.6169 16.498 16.4968 16.4712 16.3768 16.4712C16.3046 16.4712 16.2704 16.4804 16.2043 16.5098C16.1291 16.5432 16.0849 16.555 16.0002 16.555C15.9156 16.555 15.8713 16.5432 15.7962 16.5098C15.7301 16.4804 15.6959 16.4712 15.6237 16.4712C15.5037 16.4712 15.3836 16.498 15.2629 16.5517Z" fill="white"/>
</g>
<path fill-rule="evenodd" clip-rule="evenodd" d="M7.7003 15.3336C7.84533 15.1578 7.92642 14.9978 7.92642 14.8279C7.92642 14.7208 7.89455 14.6283 7.8387 14.5527L7.84814 14.5485C7.84727 14.5489 8.00723 14.4792 8.06293 14.4524C8.16646 14.4028 8.25767 14.3502 8.3466 14.2856C8.40338 14.2443 8.47945 14.1993 8.59541 14.137L8.7044 14.0791L8.73381 14.0634C8.79017 14.0334 8.83214 14.0103 8.87113 13.9877C8.99263 13.9172 9.07292 13.859 9.13433 13.7811C9.27978 13.5967 9.24958 13.3466 9.04576 13.2079C8.9459 13.1399 8.81114 13.1009 8.61361 13.0702L8.57273 13.0638L8.3311 13.0264C8.23658 13.0115 8.15223 12.9977 8.07703 12.9845C8.57157 12.9022 9.27774 12.9325 9.58836 13.0929L9.88359 12.5211C9.2506 12.1942 7.80834 12.2276 7.26958 12.5986C6.87443 12.8708 6.92745 13.2821 7.33859 13.4593C7.51039 13.5333 7.73435 13.5824 8.14879 13.649C8.07934 13.6893 8.02176 13.7261 7.96811 13.7651C7.9137 13.8047 7.85541 13.8383 7.7847 13.8722C7.75088 13.8884 7.65074 13.9324 7.60485 13.9525L7.58177 13.9627C7.24688 14.115 7.08435 14.3256 7.13291 14.7059L7.15921 14.9117L7.20636 14.9262L7.7003 15.3336ZM7.28631 14.8017L7.28529 14.8046L7.28606 14.8025L7.28631 14.8017ZM16.1163 14.828C16.1163 14.9979 16.1974 15.1578 16.3424 15.3337L16.8363 14.9263L16.8835 14.9118L16.9098 14.7059C16.9583 14.3256 16.7958 14.115 16.4609 13.9627L16.4378 13.9526L16.4378 13.9526C16.3919 13.9324 16.2918 13.8884 16.258 13.8722C16.1873 13.8383 16.129 13.8047 16.0746 13.7651C16.0209 13.7261 15.9633 13.6893 15.8939 13.649C16.3083 13.5824 16.5323 13.5333 16.7041 13.4593C17.1152 13.2822 17.1683 12.8708 16.7731 12.5987C16.2343 12.2277 14.7921 12.1943 14.1591 12.5211L14.4543 13.0929C14.7649 12.9325 15.4711 12.9023 15.9656 12.9846C15.8904 12.9977 15.8061 13.0116 15.7116 13.0264L15.4699 13.0639L15.4291 13.0702C15.2315 13.1009 15.0968 13.1399 14.9969 13.2079C14.7931 13.3467 14.7629 13.5967 14.9084 13.7811C14.9698 13.859 15.0501 13.9173 15.1716 13.9877C15.2105 14.0104 15.2525 14.0334 15.3089 14.0635L15.3382 14.079L15.4473 14.1371C15.5632 14.1993 15.6393 14.2443 15.6961 14.2856C15.785 14.3503 15.8762 14.4028 15.9798 14.4525C16.0354 14.4792 16.1954 14.5489 16.1945 14.5485L16.204 14.5528C16.1481 14.6283 16.1163 14.7209 16.1163 14.828Z" fill="#E33534"/>
<path d="M8.37214 12.9779L8.60957 13.027V13.3809C8.35669 13.5827 7.71472 13.9228 7.71472 13.9228V12.9779H8.37214Z" fill="white"/>
<path d="M15.8353 12.9779L15.5978 13.027V13.3809C15.8507 13.5827 16.4927 13.9228 16.4927 13.9228V12.9779H15.8353Z" fill="white"/>
<path fill-rule="evenodd" clip-rule="evenodd" d="M14.7303 9.24753V9.12975C14.3165 8.83281 13.8832 8.68434 13.4304 8.68434C12.9963 8.49224 12.5569 8.41767 12.1122 8.46063C12.1124 8.45927 12.1124 8.45858 12.1124 8.45858C11.4438 8.39315 10.7699 8.68435 10.7699 8.68435C10.0907 8.68435 9.47009 9.12976 9.47009 9.12976V9.24754L10.2814 10.0624C10.2814 10.0624 10.5098 10.8467 12.1091 10.6623V10.6643C12.1091 10.6643 13.168 10.6354 13.2424 10.6107C13.2719 10.6008 13.3026 10.5919 13.3338 10.5828C13.5412 10.5222 13.778 10.4531 13.919 10.0624L14.7303 9.24753ZM12.1091 8.49665C12.086 8.76784 11.9542 10.4033 12.1091 10.6568V8.49665Z" fill="#E33534"/>
<path fill-rule="evenodd" clip-rule="evenodd" d="M10.0889 9.9253L10.0894 9.9228L9.51868 9.38581L9.5738 9.32722L10.1094 9.83111L10.1231 9.76809C10.2107 9.78714 10.2747 9.79415 10.3121 9.79018V9.68087L10.4308 9.74512C10.4892 9.77673 10.5728 9.78522 10.683 9.7673C10.7639 9.75414 10.8185 9.66018 10.8363 9.45997L10.8723 9.05579L10.9932 9.44315C11.0479 9.61844 11.1314 9.69571 11.2502 9.69571C11.3662 9.69571 11.4128 9.65317 11.418 9.54596L11.4326 9.24188L11.5701 9.51348C11.6196 9.61132 11.6879 9.65572 11.7851 9.65572C11.924 9.65572 12.0168 9.53989 12.0168 9.35815H12.0194H12.1777H12.1803C12.1803 9.53989 12.2731 9.65572 12.4121 9.65572C12.5092 9.65572 12.5775 9.61132 12.6271 9.51348L12.7646 9.24188L12.7792 9.54596C12.7843 9.65317 12.8309 9.69571 12.947 9.69571C13.0658 9.69571 13.1492 9.61844 13.2039 9.44315L13.3248 9.05579L13.3608 9.45997C13.3787 9.66018 13.4333 9.75414 13.5142 9.7673C13.6243 9.78522 13.7079 9.77673 13.7663 9.74512L13.8851 9.68087V9.79018C13.9224 9.79415 13.9864 9.78714 14.074 9.76809L14.0995 9.88507L14.6924 9.32722L14.7475 9.38581L14.0097 10.08C13.9021 10.2782 13.8479 10.4091 13.8479 10.4634C13.8479 10.5463 13.6321 10.5956 13.2111 10.6461C12.8812 10.6857 12.4919 10.7123 12.1735 10.7163V10.7168L12.1331 10.7167L12.0927 10.7168V10.7163C11.7743 10.7123 11.385 10.6857 11.0552 10.6461C10.6341 10.5956 10.4184 10.5463 10.4184 10.4634C10.4184 10.4532 10.4164 10.4402 10.4126 10.4245C10.3701 10.3704 10.3402 10.2819 10.3203 10.202C10.3017 10.1647 10.2804 10.124 10.2565 10.08L10.0931 9.9262L10.0889 9.9253ZM14.043 9.93825C13.9112 9.96157 13.8161 9.95922 13.7656 9.91812C13.6867 9.94109 13.594 9.9433 13.4883 9.92609C13.3754 9.90772 13.2967 9.8326 13.2494 9.70799C13.1876 9.78672 13.1095 9.83531 13.0159 9.85101C13.5307 9.92401 13.8913 10.0266 13.8913 10.0266C13.8913 10.0266 13.8824 10.1028 13.8608 10.1924C13.8837 10.1455 13.9108 10.0934 13.9421 10.0359L13.9499 10.0258L14.043 9.93825ZM12.7731 9.82045C12.7283 9.7982 12.6926 9.76594 12.6667 9.72435C12.6283 9.75825 12.5846 9.78305 12.5361 9.79834C12.6171 9.80453 12.6963 9.81202 12.7731 9.82045ZM12.2523 9.7827C12.1896 9.75375 12.1375 9.70737 12.0986 9.64795C12.0599 9.70695 12.0083 9.75309 11.9462 9.78208C11.983 9.78099 12.02 9.78021 12.0571 9.7798V9.77943L12.0894 9.77952L12.1217 9.77943V9.7798C12.1655 9.78029 12.209 9.78127 12.2523 9.7827ZM10.3105 10.0203L10.2355 9.94975C10.3255 9.95867 10.3921 9.9502 10.4315 9.91812C10.5105 9.94109 10.6031 9.9433 10.7088 9.92609C10.8217 9.90772 10.9004 9.8326 10.9477 9.70799C11.0077 9.78444 11.0831 9.83247 11.1731 9.84956C10.7294 9.9119 10.3982 9.99673 10.3105 10.0203ZM11.6575 9.79722C11.5795 9.80302 11.5032 9.81002 11.429 9.81793C11.4714 9.7958 11.5055 9.76439 11.5304 9.72435C11.5679 9.75744 11.6104 9.78185 11.6575 9.79722ZM13.6364 10.465C13.6927 10.4914 13.7379 10.4651 13.7736 10.4146C13.7705 10.4285 13.7686 10.4411 13.7678 10.4524C13.7631 10.4555 13.7559 10.4592 13.7464 10.4632C13.7199 10.4743 13.6794 10.4862 13.6268 10.4982C13.5233 10.5218 13.376 10.5453 13.2015 10.5663C12.8606 10.6072 12.4553 10.6341 12.1331 10.6362C11.8109 10.6341 11.4056 10.6072 11.0647 10.5663C10.8902 10.5453 10.7429 10.5218 10.6394 10.4982C10.5953 10.4882 10.5598 10.4782 10.5338 10.4687C10.5367 10.4676 10.5395 10.4664 10.5424 10.465C10.7182 10.3828 11.8801 10.3057 12.0894 10.2923C12.2987 10.3057 13.4606 10.3828 13.6364 10.465ZM13.858 10.4503L13.8568 10.4517L13.8575 10.4507L13.858 10.4503Z" fill="#C88A02"/>
<path fill-rule="evenodd" clip-rule="evenodd" d="M11.9418 9.09739C11.947 9.12387 11.955 9.14851 11.9652 9.17048C11.934 9.15858 11.897 9.15168 11.8573 9.15168C11.7462 9.15168 11.6562 9.2057 11.6562 9.27234C11.6562 9.33898 11.7462 9.393 11.8573 9.393C11.9684 9.393 12.0584 9.33898 12.0584 9.27234L12.0583 9.26868L12.0585 9.26876L12.0585 9.27234C12.0585 9.33898 12.1485 9.393 12.2596 9.393C12.3706 9.393 12.4607 9.33898 12.4607 9.27234C12.4607 9.2057 12.3706 9.15168 12.2596 9.15168C12.2316 9.15168 12.2049 9.15511 12.1807 9.1613C12.1866 9.12831 12.1863 9.0905 12.1787 9.05135C12.1575 8.94233 12.0873 8.86425 12.0219 8.87697C11.9565 8.88968 11.9206 8.98837 11.9418 9.09739ZM10.7586 9.25098C10.7484 9.22899 10.7403 9.20431 10.7352 9.17779C10.714 9.06877 10.7498 8.97008 10.8153 8.95736C10.8807 8.94465 10.9509 9.02272 10.9721 9.13174C10.9797 9.17093 10.9799 9.20878 10.9741 9.24178C10.9983 9.23559 11.0249 9.23216 11.0529 9.23216C11.164 9.23216 11.254 9.28618 11.254 9.35282C11.254 9.41946 11.164 9.47348 11.0529 9.47348C10.9419 9.47348 10.8518 9.41946 10.8518 9.35282L10.8519 9.34915L10.8517 9.34908L10.8518 9.35282C10.8518 9.41946 10.7617 9.47348 10.6507 9.47348C10.5396 9.47348 10.4496 9.41946 10.4496 9.35282C10.4496 9.28618 10.5396 9.23216 10.6507 9.23216C10.6904 9.23216 10.7274 9.23907 10.7586 9.25098ZM13.2779 9.32451C13.2686 9.3905 13.172 9.43146 13.062 9.41601C12.952 9.40055 12.8704 9.33452 12.8796 9.26853C12.8889 9.20254 12.9856 9.16158 13.0956 9.17704C13.1348 9.18255 13.1705 9.19452 13.1997 9.21062C13.1927 9.18746 13.1881 9.16193 13.1867 9.13499C13.1809 9.02408 13.2302 8.93134 13.2967 8.92785C13.3632 8.92437 13.4219 9.01145 13.4277 9.12236C13.4298 9.16219 13.4248 9.19968 13.4144 9.23153C13.4393 9.22876 13.4661 9.22908 13.4939 9.23297C13.6038 9.24843 13.6855 9.31445 13.6762 9.38044C13.6669 9.44643 13.5703 9.4874 13.4603 9.47194C13.3503 9.45648 13.2687 9.39046 13.2779 9.32447L13.2785 9.32095L13.2783 9.32087L13.2779 9.32447L13.2779 9.32451ZM14.0438 9.64354C14.1419 9.69568 14.2467 9.69025 14.278 9.63141L14.2796 9.62814C14.2893 9.63837 14.3007 9.64582 14.3138 9.64981C14.3775 9.66929 14.4555 9.59898 14.488 9.49277C14.5204 9.38656 14.4951 9.28466 14.4314 9.26518C14.3677 9.2457 14.2897 9.31601 14.2572 9.42222C14.2493 9.44801 14.2448 9.47354 14.2435 9.4977C14.2216 9.47256 14.1921 9.4491 14.1571 9.43046C14.059 9.37832 13.9542 9.38375 13.9229 9.44259C13.8916 9.50143 13.9457 9.59139 14.0438 9.64354ZM10.0969 9.66817C9.99881 9.72031 9.89395 9.71488 9.86266 9.65605C9.86209 9.65497 9.86154 9.65388 9.86103 9.65278C9.85136 9.66301 9.83993 9.67045 9.82688 9.67444C9.76315 9.69392 9.68517 9.62362 9.65269 9.51741C9.62022 9.4112 9.64556 9.3093 9.70929 9.28982C9.77301 9.27033 9.851 9.34064 9.88347 9.44685C9.89135 9.47264 9.89583 9.49818 9.89717 9.52234C9.9191 9.49719 9.94854 9.47373 9.98358 9.4551C10.0816 9.40296 10.1865 9.40839 10.2178 9.46723C10.2491 9.52606 10.1949 9.61603 10.0969 9.66817Z" fill="#C88A02"/>
<path fill-rule="evenodd" clip-rule="evenodd" d="M12.0088 7H12.1763V7.10591H12.2859V7.27349H12.1763V7.60862H12.2859V7.7762H11.8976V7.60862H12.0088V7.27349H11.8976V7.10591H12.0088V7Z" fill="#C88A02"/>
<rect x="11.978" y="7.91028" width="0.321759" height="1.04572" fill="#C88A02"/>
<path d="M10.6828 8.0855L10.6814 8.16592C9.96813 8.15347 9.559 8.25756 9.45515 8.46502C9.34777 8.67949 9.36774 8.94022 9.51819 9.24993L9.44584 9.28508C9.28531 8.95463 9.26339 8.66836 9.38322 8.42901C9.50656 8.18263 9.93937 8.07252 10.6828 8.0855Z" fill="white"/>
<path d="M10.8208 8.79868L10.7796 8.86775C10.6242 8.775 10.5465 8.61673 10.5465 8.39861C10.5465 8.08512 10.708 7.90129 11.0652 7.77549C11.2932 7.6952 11.6046 7.72812 12.0003 7.8716L11.9729 7.94723C11.593 7.80949 11.2991 7.77841 11.0919 7.85136C10.7643 7.96675 10.6269 8.12309 10.6269 8.39861C10.6269 8.59002 10.6915 8.72148 10.8208 8.79868Z" fill="white"/>
<path d="M9.61951 9.1265L9.46772 9.17981C9.31023 8.7314 9.3552 8.42686 9.62431 8.2955C9.86144 8.17975 10.207 8.13264 10.6628 8.15111L10.6563 8.31186C10.2248 8.29437 9.90372 8.33813 9.69489 8.44007C9.51803 8.52641 9.48568 8.74545 9.61951 9.1265Z" fill="#C88A02"/>
<path d="M11.3929 7.97826C11.0251 7.97826 10.874 8.06785 10.7877 8.33235C10.7328 8.50092 10.7861 8.64479 10.959 8.77908L10.8604 8.90615C10.6365 8.73228 10.5575 8.51935 10.6348 8.28246C10.7448 7.94537 10.9606 7.81738 11.3929 7.81738C11.6763 7.81738 11.897 7.89183 12.0507 8.04335L12.0747 8.06697V8.84262H11.9138V8.13574C11.7938 8.03147 11.6214 7.97826 11.3929 7.97826Z" fill="#C88A02"/>
<path d="M13.4899 8.16582L13.4913 8.24625C14.2046 8.23379 14.6137 8.33788 14.7176 8.54534C14.825 8.75982 14.805 9.02054 14.6545 9.33025L14.7269 9.3654C14.8874 9.03495 14.9093 8.74868 14.7895 8.50933C14.6662 8.26295 14.2334 8.15284 13.4899 8.16582Z" fill="white"/>
<path d="M13.238 8.81541L13.2793 8.88447C13.4346 8.79173 13.5123 8.63345 13.5123 8.41533C13.5123 8.10185 13.3508 7.91802 12.9936 7.79221C12.7657 7.71193 12.4542 7.74485 12.0585 7.88833L12.0859 7.96395C12.4658 7.82621 12.7598 7.79514 12.9669 7.86809C13.2946 7.98347 13.4319 8.13981 13.4319 8.41533C13.4319 8.60674 13.3673 8.73821 13.238 8.81541Z" fill="white"/>
<path d="M14.6033 9.20694L14.7551 9.26025C14.9126 8.81184 14.8676 8.50731 14.5985 8.37594C14.3613 8.26019 14.0157 8.21308 13.56 8.23155L13.5665 8.3923C13.998 8.37481 14.3191 8.41858 14.5279 8.52052C14.7048 8.60685 14.7371 8.8259 14.6033 9.20694Z" fill="#C88A02"/>
<path d="M12.8207 7.99071C13.1885 7.99071 13.3396 8.0803 13.4259 8.34481C13.4809 8.51337 13.4275 8.65724 13.2546 8.79153L13.3533 8.9186C13.5772 8.74474 13.6561 8.5318 13.5788 8.29491C13.4688 7.95782 13.2531 7.82983 12.8207 7.82983C12.5373 7.82983 12.3166 7.90428 12.1629 8.0558L12.1389 8.07943V8.85507H12.2998V8.14819C12.4198 8.04392 12.5923 7.99071 12.8207 7.99071Z" fill="#C88A02"/>
<path opacity="0.3" fill-rule="evenodd" clip-rule="evenodd" d="M9.48438 10.7256H14.713V15.4233C14.713 15.4233 14.3246 16.9999 12.0987 16.9999C9.87277 16.9999 9.48438 15.3817 9.48438 15.3817V10.7256Z" fill="#E1E5E8"/>
<mask id="mask4_1957_20215" style="mask-type:luminance" maskUnits="userSpaceOnUse" x="9" y="10" width="6" height="7">
<path fill-rule="evenodd" clip-rule="evenodd" d="M9.48438 10.7256H14.713V15.4233C14.713 15.4233 14.3246 16.9999 12.0987 16.9999C9.87277 16.9999 9.48438 15.3817 9.48438 15.3817V10.7256Z" fill="white"/>
</mask>
<g mask="url(#mask4_1957_20215)">
<rect x="9.48438" y="13.6215" width="2.65451" height="3.13715" fill="#FFC034"/>
<rect x="9.80615" y="13.7823" width="0.321759" height="2.97627" fill="#E33534"/>
<rect x="10.9323" y="13.7823" width="0.321759" height="2.97627" fill="#E33534"/>
<rect x="10.3693" y="13.7823" width="0.321759" height="2.97627" fill="#E33534"/>
<rect x="11.4954" y="13.7823" width="0.321759" height="2.97627" fill="#E33534"/>
<rect x="9.48438" y="10.6451" width="2.65451" height="3.05671" fill="#E33534"/>
<rect x="12.0585" y="13.541" width="2.65451" height="3.05671" fill="#E33534"/>
<rect x="12.0585" y="10.7256" width="2.81539" height="2.97627" fill="white"/>
<path fill-rule="evenodd" clip-rule="evenodd" d="M10.6106 10.967H10.8519V11.6344H11.0128V11.3007H11.2541V11.6344H11.4954V12.0515H11.2541V12.8023H11.4954V13.2194H10.0475V12.8023H10.2888V12.0515H10.0475V11.6344H10.2084V11.3007H10.4497V11.6344H10.6106V10.967Z" fill="#C88A02"/>
<path d="M13.4395 11.107L13.6042 10.9307L13.95 11.2537L13.7853 11.4301L13.4395 11.107Z" fill="#C88A02"/>
<path fill-rule="evenodd" clip-rule="evenodd" d="M14.4314 15.6641V13.903H12.4204V15.6493L12.4236 15.6629C12.5254 16.0967 12.8721 16.3161 13.4259 16.3161C13.9792 16.3161 14.3258 16.1024 14.428 15.678L14.4314 15.6641ZM13.426 16.0749C12.9816 16.0749 12.7389 15.9252 12.6618 15.6209V14.1443H14.1901V15.6349C14.1132 15.9292 13.8705 16.0749 13.426 16.0749Z" fill="#FFC034"/>
<path fill-rule="evenodd" clip-rule="evenodd" d="M13.5089 14.0502H13.3413V14.8485L12.6807 14.13L12.5623 14.2389L13.1597 14.8888H12.6184V15.1301H13.0342H13.1729L12.5623 15.7941L12.6807 15.903L13.3413 15.1846V16.1178H13.5089V15.2685L14.0923 15.903L14.2107 15.7941L13.6002 15.1301H14.2817V14.8888H13.6133L14.2108 14.2389L14.0923 14.13L13.5089 14.7646V14.0502Z" fill="#FFC034"/>
<path fill-rule="evenodd" clip-rule="evenodd" d="M13.8014 16.5997C13.8014 16.5997 12.0976 16.7336 12.0976 15.6348C12.0976 15.6348 12.0814 16.5997 10.3024 16.5997V17.4671H13.8014V16.5997Z" fill="white"/>
<path fill-rule="evenodd" clip-rule="evenodd" d="M12.0987 14.2649C12.4319 14.2649 12.702 13.9768 12.702 13.6214C12.702 13.266 12.4319 12.9779 12.0987 12.9779C11.7655 12.9779 11.4954 13.266 11.4954 13.6214C11.4954 13.9768 11.7655 14.2649 12.0987 14.2649Z" fill="#C88A02" stroke="#E33534" stroke-width="1.16667"/>
</g>
</g>
</g>
</svg>
