<svg width="32" height="24" viewBox="0 0 32 24" fill="none" xmlns="http://www.w3.org/2000/svg">
<rect width="32" height="24" fill="#003399"/>
<path d="M16 4L15.6517 5.08146L16.1877 5.25715L16 4Z" fill="#FFCC00"/>
<path d="M16 4L16.3483 5.08146L15.8123 5.25715L16 4Z" fill="#FFCC00"/>
<path d="M17.0721 4.78589L15.9462 4.78827L15.945 5.35445L17.0721 4.78589Z" fill="#FFCC00"/>
<path d="M17.0721 4.78467L16.1592 5.45425L15.829 4.99548L17.0721 4.78467Z" fill="#FFCC00"/>
<path d="M16.6626 6.05664L16.3152 4.97585L15.7783 5.15221L16.6626 6.05664Z" fill="#FFCC00"/>
<path d="M16.6619 6.05713L15.7506 5.38949L16.0826 4.92878L16.6619 6.05713Z" fill="#FFCC00"/>
<path d="M14.9276 4.78564L16.0536 4.78802L16.0548 5.3542L14.9276 4.78564Z" fill="#FFCC00"/>
<path d="M14.9276 4.78467L15.8406 5.45425L16.1708 4.99548L14.9276 4.78467Z" fill="#FFCC00"/>
<path d="M15.3362 6.05615L15.6836 4.97536L16.2205 5.15172L15.3362 6.05615Z" fill="#FFCC00"/>
<path d="M15.3369 6.05688L16.2481 5.38925L15.9162 4.92853L15.3369 6.05688Z" fill="#FFCC00"/>
<path d="M16 17.6453L15.6517 18.7267L16.1877 18.9024L16 17.6453Z" fill="#FFCC00"/>
<path d="M16 17.6453L16.3483 18.7267L15.8123 18.9024L16 17.6453Z" fill="#FFCC00"/>
<path d="M17.0721 18.4312L15.9462 18.4335L15.945 18.9997L17.0721 18.4312Z" fill="#FFCC00"/>
<path d="M17.0721 18.4297L16.1592 19.0993L15.829 18.6405L17.0721 18.4297Z" fill="#FFCC00"/>
<path d="M16.6626 19.7019L16.3152 18.6211L15.7783 18.7975L16.6626 19.7019Z" fill="#FFCC00"/>
<path d="M16.6619 19.7026L15.7506 19.035L16.0826 18.5743L16.6619 19.7026Z" fill="#FFCC00"/>
<path d="M14.9276 18.4312L16.0536 18.4335L16.0548 18.9997L14.9276 18.4312Z" fill="#FFCC00"/>
<path d="M14.9276 18.4299L15.8406 19.0995L16.1708 18.6407L14.9276 18.4299Z" fill="#FFCC00"/>
<path d="M15.3372 19.7017L15.6845 18.6209L16.2215 18.7972L15.3372 19.7017Z" fill="#FFCC00"/>
<path d="M15.3379 19.7024L16.2491 19.0348L15.9172 18.574L15.3379 19.7024Z" fill="#FFCC00"/>
<path d="M9.23706 10.8228L8.88875 11.9042L9.42474 12.0799L9.23706 10.8228Z" fill="#FFCC00"/>
<path d="M9.23706 10.8228L9.58537 11.9042L9.04938 12.0799L9.23706 10.8228Z" fill="#FFCC00"/>
<path d="M10.3091 11.6084L9.18311 11.6108L9.18194 12.177L10.3091 11.6084Z" fill="#FFCC00"/>
<path d="M10.3091 11.6072L9.39614 12.2768L9.06594 11.818L10.3091 11.6072Z" fill="#FFCC00"/>
<path d="M9.89966 12.8792L9.55228 11.7984L9.01536 11.9747L9.89966 12.8792Z" fill="#FFCC00"/>
<path d="M9.89905 12.8796L8.98783 12.212L9.31975 11.7513L9.89905 12.8796Z" fill="#FFCC00"/>
<path d="M8.16528 11.6084L9.29125 11.6108L9.29243 12.177L8.16528 11.6084Z" fill="#FFCC00"/>
<path d="M8.16528 11.6072L9.07823 12.2768L9.40842 11.818L8.16528 11.6072Z" fill="#FFCC00"/>
<path d="M8.57471 12.8792L8.92208 11.7984L9.459 11.9747L8.57471 12.8792Z" fill="#FFCC00"/>
<path d="M8.57532 12.8796L9.48653 12.212L9.15461 11.7513L8.57532 12.8796Z" fill="#FFCC00"/>
<path d="M11.9568 6.97095L12.868 6.30335L12.536 5.8426L11.9568 6.97095Z" fill="#FFCC00"/>
<path d="M11.9562 6.97021L12.3035 5.88945L12.8405 6.06585L11.9562 6.97021Z" fill="#FFCC00"/>
<path d="M11.5464 5.69922L12.4588 6.36825L12.7895 5.90892L11.5464 5.69922Z" fill="#FFCC00"/>
<path d="M11.5464 5.69971L12.6729 5.70099L12.6735 6.26826L11.5464 5.69971Z" fill="#FFCC00"/>
<path d="M12.6178 4.91406L12.2705 5.99482L12.8074 6.17122L12.6178 4.91406Z" fill="#FFCC00"/>
<path d="M12.6178 4.91406L12.9671 5.99622L12.4321 6.17122L12.6178 4.91406Z" fill="#FFCC00"/>
<path d="M13.2817 6.97119L12.3692 6.30211L12.6999 5.84284L13.2817 6.97119Z" fill="#FFCC00"/>
<path d="M13.281 6.97168L12.9318 5.88959L12.3967 6.06465L13.281 6.97168Z" fill="#FFCC00"/>
<path d="M13.6906 5.7002L12.7791 6.36805L12.4474 5.90755L13.6906 5.7002Z" fill="#FFCC00"/>
<path d="M13.6902 5.70044L12.5636 5.6994L12.5641 6.26691L13.6902 5.70044Z" fill="#FFCC00"/>
<path d="M10.8054 9.46753L10.4581 8.38677L9.92112 8.56316L10.8054 9.46753Z" fill="#FFCC00"/>
<path d="M10.8051 9.46851L9.89387 8.80091L10.2258 8.34015L10.8051 9.46851Z" fill="#FFCC00"/>
<path d="M9.47986 9.46851L10.3924 8.79942L10.0617 8.34015L9.47986 9.46851Z" fill="#FFCC00"/>
<path d="M9.48047 9.46899L9.82966 8.3869L10.3648 8.56196L9.48047 9.46899Z" fill="#FFCC00"/>
<path d="M9.07129 8.19775L9.9827 8.86561L10.3144 8.40511L9.07129 8.19775Z" fill="#FFCC00"/>
<path d="M9.07178 8.19824L10.1984 8.1972L10.1979 8.76471L9.07178 8.19824Z" fill="#FFCC00"/>
<path d="M11.215 8.19653L10.3025 8.86556L9.97183 8.40624L11.215 8.19653Z" fill="#FFCC00"/>
<path d="M11.215 8.19702L10.0885 8.19831L10.0878 8.76558L11.215 8.19702Z" fill="#FFCC00"/>
<path d="M10.144 7.41162L10.4914 8.49238L9.95441 8.66878L10.144 7.41162Z" fill="#FFCC00"/>
<path d="M10.144 7.41162L9.79476 8.49378L10.3298 8.66878L10.144 7.41162Z" fill="#FFCC00"/>
<path d="M11.2151 15.0198L10.0896 15.0231L10.0879 15.5883L11.2151 15.0198Z" fill="#FFCC00"/>
<path d="M11.2151 15.0181L10.3017 15.6881L9.97195 15.2299L11.2151 15.0181Z" fill="#FFCC00"/>
<path d="M10.8058 16.2893L10.46 15.2096L9.92149 15.3871L10.8058 16.2893Z" fill="#FFCC00"/>
<path d="M10.8041 16.2913L9.89397 15.6249L10.227 15.1629L10.8041 16.2913Z" fill="#FFCC00"/>
<path d="M9.47949 16.291L10.3925 15.6214L10.0623 15.1627L9.47949 16.291Z" fill="#FFCC00"/>
<path d="M9.48071 16.292L9.83055 15.2094L10.365 15.384L9.48071 16.292Z" fill="#FFCC00"/>
<path d="M10.1456 14.2341L10.4918 15.3141L9.95373 15.4913L10.1456 14.2341Z" fill="#FFCC00"/>
<path d="M10.1456 14.2341L9.79523 15.3171L10.3291 15.4913L10.1456 14.2341Z" fill="#FFCC00"/>
<path d="M9.07178 15.021L10.1983 15.0197L10.1976 15.5869L9.07178 15.021Z" fill="#FFCC00"/>
<path d="M9.07117 15.0205L9.98247 15.6882L10.3143 15.2276L9.07117 15.0205Z" fill="#FFCC00"/>
<path d="M13.6906 17.5171L12.5651 17.5204L12.5634 18.0856L13.6906 17.5171Z" fill="#FFCC00"/>
<path d="M13.6906 17.5154L12.7772 18.1855L12.4474 17.7272L13.6906 17.5154Z" fill="#FFCC00"/>
<path d="M13.281 18.7866L12.9352 17.707L12.3967 17.8844L13.281 18.7866Z" fill="#FFCC00"/>
<path d="M13.2792 18.7886L12.3691 18.1222L12.7021 17.6602L13.2792 18.7886Z" fill="#FFCC00"/>
<path d="M11.955 18.7883L12.8679 18.1187L12.5378 17.66L11.955 18.7883Z" fill="#FFCC00"/>
<path d="M11.9559 18.7896L12.3058 17.707L12.8402 17.8816L11.9559 18.7896Z" fill="#FFCC00"/>
<path d="M12.6207 16.7317L12.9669 17.8116L12.4288 17.9888L12.6207 16.7317Z" fill="#FFCC00"/>
<path d="M12.6207 16.7317L12.2703 17.8147L12.8042 17.9888L12.6207 16.7317Z" fill="#FFCC00"/>
<path d="M11.5474 17.5183L12.6739 17.517L12.6732 18.0842L11.5474 17.5183Z" fill="#FFCC00"/>
<path d="M11.5468 17.5178L12.4581 18.1855L12.7899 17.7249L11.5468 17.5178Z" fill="#FFCC00"/>
<path d="M22.7628 10.8228L23.1111 11.9042L22.5751 12.0799L22.7628 10.8228Z" fill="#FFCC00"/>
<path d="M22.7628 10.8228L22.4145 11.9042L22.9505 12.0799L22.7628 10.8228Z" fill="#FFCC00"/>
<path d="M21.6908 11.6084L22.8168 11.6108L22.8179 12.177L21.6908 11.6084Z" fill="#FFCC00"/>
<path d="M21.6908 11.6072L22.6037 12.2768L22.9339 11.818L21.6908 11.6072Z" fill="#FFCC00"/>
<path d="M22.1002 12.8792L22.4476 11.7984L22.9845 11.9747L22.1002 12.8792Z" fill="#FFCC00"/>
<path d="M22.101 12.8796L23.0122 12.212L22.6802 11.7513L22.101 12.8796Z" fill="#FFCC00"/>
<path d="M23.835 11.6084L22.709 11.6108L22.7078 12.177L23.835 11.6084Z" fill="#FFCC00"/>
<path d="M23.835 11.6072L22.922 12.2768L22.5918 11.818L23.835 11.6072Z" fill="#FFCC00"/>
<path d="M23.4254 12.8792L23.078 11.7984L22.5411 11.9747L23.4254 12.8792Z" fill="#FFCC00"/>
<path d="M23.4247 12.8796L22.5135 12.212L22.8454 11.7513L23.4247 12.8796Z" fill="#FFCC00"/>
<path d="M20.0428 6.97119L19.1317 6.30359L19.4636 5.84284L20.0428 6.97119Z" fill="#FFCC00"/>
<path d="M20.0436 6.97046L19.6962 5.8897L19.1593 6.06609L20.0436 6.97046Z" fill="#FFCC00"/>
<path d="M20.4532 5.69922L19.5408 6.36825L19.2101 5.90892L20.4532 5.69922Z" fill="#FFCC00"/>
<path d="M20.4532 5.69971L19.3267 5.70099L19.3261 6.26826L20.4532 5.69971Z" fill="#FFCC00"/>
<path d="M19.3824 4.91406L19.7298 5.99482L19.1928 6.17122L19.3824 4.91406Z" fill="#FFCC00"/>
<path d="M19.3824 4.91406L19.0332 5.99622L19.5682 6.17122L19.3824 4.91406Z" fill="#FFCC00"/>
<path d="M18.718 6.97119L19.6305 6.30211L19.2999 5.84284L18.718 6.97119Z" fill="#FFCC00"/>
<path d="M18.7186 6.97168L19.0678 5.88959L19.6029 6.06465L18.7186 6.97168Z" fill="#FFCC00"/>
<path d="M18.3093 5.7002L19.2207 6.36805L19.5525 5.90755L18.3093 5.7002Z" fill="#FFCC00"/>
<path d="M18.3098 5.70044L19.4364 5.6994L19.4359 6.26691L18.3098 5.70044Z" fill="#FFCC00"/>
<path d="M21.1942 9.46777L21.5415 8.38701L22.0785 8.5634L21.1942 9.46777Z" fill="#FFCC00"/>
<path d="M21.1947 9.46851L22.1059 8.80091L21.7739 8.34015L21.1947 9.46851Z" fill="#FFCC00"/>
<path d="M22.5198 9.46851L21.6073 8.79942L21.9379 8.34015L22.5198 9.46851Z" fill="#FFCC00"/>
<path d="M22.5192 9.46899L22.17 8.3869L21.6349 8.56196L22.5192 9.46899Z" fill="#FFCC00"/>
<path d="M22.9287 8.19775L22.0173 8.86561L21.6856 8.40511L22.9287 8.19775Z" fill="#FFCC00"/>
<path d="M22.9282 8.19824L21.8016 8.1972L21.8021 8.76471L22.9282 8.19824Z" fill="#FFCC00"/>
<path d="M20.7845 8.19653L21.697 8.86556L22.0277 8.40624L20.7845 8.19653Z" fill="#FFCC00"/>
<path d="M20.7845 8.19702L21.9111 8.19831L21.9117 8.76558L20.7845 8.19702Z" fill="#FFCC00"/>
<path d="M21.8556 7.41162L21.5083 8.49238L22.0452 8.66878L21.8556 7.41162Z" fill="#FFCC00"/>
<path d="M21.8556 7.41162L22.2049 8.49378L21.6699 8.66878L21.8556 7.41162Z" fill="#FFCC00"/>
<path d="M20.7847 15.0198L21.9102 15.0231L21.9118 15.5883L20.7847 15.0198Z" fill="#FFCC00"/>
<path d="M20.7847 15.0181L21.698 15.6881L22.0278 15.2299L20.7847 15.0181Z" fill="#FFCC00"/>
<path d="M21.1942 16.2893L21.54 15.2096L22.0785 15.3871L21.1942 16.2893Z" fill="#FFCC00"/>
<path d="M21.1959 16.2913L22.106 15.6249L21.773 15.1629L21.1959 16.2913Z" fill="#FFCC00"/>
<path d="M22.5204 16.291L21.6074 15.6214L21.9376 15.1627L22.5204 16.291Z" fill="#FFCC00"/>
<path d="M22.5193 16.292L22.1694 15.2094L21.635 15.384L22.5193 16.292Z" fill="#FFCC00"/>
<path d="M21.8546 14.2341L21.5084 15.3141L22.0465 15.4913L21.8546 14.2341Z" fill="#FFCC00"/>
<path d="M21.8546 14.2341L22.205 15.3171L21.6711 15.4913L21.8546 14.2341Z" fill="#FFCC00"/>
<path d="M22.928 15.021L21.8015 15.0197L21.8021 15.5869L22.928 15.021Z" fill="#FFCC00"/>
<path d="M22.9286 15.0205L22.0173 15.6882L21.6855 15.2276L22.9286 15.0205Z" fill="#FFCC00"/>
<path d="M18.3093 17.5171L19.4348 17.5204L19.4365 18.0856L18.3093 17.5171Z" fill="#FFCC00"/>
<path d="M18.3093 17.5154L19.2227 18.1855L19.5525 17.7272L18.3093 17.5154Z" fill="#FFCC00"/>
<path d="M18.719 18.7866L19.0648 17.707L19.6033 17.8844L18.719 18.7866Z" fill="#FFCC00"/>
<path d="M18.7207 18.7886L19.6308 18.1222L19.2978 17.6602L18.7207 18.7886Z" fill="#FFCC00"/>
<path d="M20.045 18.7883L19.1321 18.1187L19.4622 17.66L20.045 18.7883Z" fill="#FFCC00"/>
<path d="M20.0438 18.7896L19.694 17.707L19.1595 17.8816L20.0438 18.7896Z" fill="#FFCC00"/>
<path d="M19.3794 16.7317L19.0332 17.8116L19.5713 17.9888L19.3794 16.7317Z" fill="#FFCC00"/>
<path d="M19.3794 16.7317L19.7298 17.8147L19.1959 17.9888L19.3794 16.7317Z" fill="#FFCC00"/>
<path d="M20.453 17.5183L19.3265 17.517L19.3271 18.0842L20.453 17.5183Z" fill="#FFCC00"/>
<path d="M20.4536 17.5178L19.5423 18.1855L19.2105 17.7249L20.4536 17.5178Z" fill="#FFCC00"/>
</svg>
