<svg width="32" height="24" viewBox="0 0 32 24" fill="none" xmlns="http://www.w3.org/2000/svg">
<mask id="mask0_1957_20277" style="mask-type:luminance" maskUnits="userSpaceOnUse" x="0" y="0" width="32" height="24">
<rect width="32" height="24" fill="white"/>
</mask>
<g mask="url(#mask0_1957_20277)">
<path fill-rule="evenodd" clip-rule="evenodd" d="M0 0V24H32V0H0Z" fill="#63B3E1"/>
<mask id="mask1_1957_20277" style="mask-type:luminance" maskUnits="userSpaceOnUse" x="0" y="0" width="32" height="24">
<path fill-rule="evenodd" clip-rule="evenodd" d="M0 0V24H32V0H0Z" fill="white"/>
</mask>
<g mask="url(#mask1_1957_20277)">
<path fill-rule="evenodd" clip-rule="evenodd" d="M15.9973 8.96348C15.9586 8.94273 15.9119 8.94343 15.8738 8.96532L14.974 9.48261C14.8727 9.54083 14.7531 9.44323 14.7898 9.33235L15.0767 8.46569C15.0924 8.41831 15.0789 8.36613 15.0423 8.33226L14.4412 7.7771C14.3569 7.69931 14.4105 7.55854 14.5252 7.55646L15.3572 7.54137C15.407 7.54046 15.4516 7.51062 15.4715 7.46498L15.8586 6.57641C15.9038 6.47258 16.052 6.47517 16.0936 6.58051L16.4482 7.47904C16.4671 7.52687 16.5129 7.55863 16.5643 7.55953L17.3865 7.57388C17.5016 7.57589 17.555 7.71767 17.4698 7.79516L16.8489 8.36003C16.8108 8.39467 16.7974 8.44884 16.8148 8.49727L17.1065 9.30625C17.146 9.41592 17.0295 9.51658 16.9268 9.46152L15.9973 8.96348Z" fill="white"/>
<path fill-rule="evenodd" clip-rule="evenodd" d="M15.9973 16.9635C15.9586 16.9427 15.9119 16.9434 15.8738 16.9653L14.974 17.4826C14.8727 17.5408 14.7531 17.4432 14.7898 17.3324L15.0767 16.4657C15.0924 16.4183 15.0789 16.3661 15.0423 16.3323L14.4412 15.7771C14.3569 15.6993 14.4105 15.5585 14.5252 15.5565L15.3572 15.5414C15.407 15.5405 15.4516 15.5106 15.4715 15.465L15.8586 14.5764C15.9038 14.4726 16.052 14.4752 16.0936 14.5805L16.4482 15.479C16.4671 15.5269 16.5129 15.5586 16.5643 15.5595L17.3865 15.5739C17.5016 15.5759 17.555 15.7177 17.4698 15.7952L16.8489 16.36C16.8108 16.3947 16.7974 16.4488 16.8148 16.4973L17.1065 17.3062C17.146 17.4159 17.0295 17.5166 16.9268 17.4615L15.9973 16.9635Z" fill="white"/>
<path fill-rule="evenodd" clip-rule="evenodd" d="M19.9973 12.9635C19.9586 12.9427 19.9119 12.9434 19.8738 12.9653L18.974 13.4826C18.8727 13.5408 18.7531 13.4432 18.7898 13.3324L19.0767 12.4657C19.0924 12.4183 19.0789 12.3661 19.0423 12.3323L18.4412 11.7771C18.3569 11.6993 18.4105 11.5585 18.5252 11.5565L19.3572 11.5414C19.407 11.5405 19.4516 11.5106 19.4715 11.465L19.8586 10.5764C19.9038 10.4726 20.052 10.4752 20.0936 10.5805L20.4482 11.479C20.4671 11.5269 20.5129 11.5586 20.5643 11.5595L21.3865 11.5739C21.5016 11.5759 21.555 11.7177 21.4698 11.7952L20.8489 12.36C20.8108 12.3947 20.7974 12.4488 20.8148 12.4973L21.1065 13.3062C21.146 13.4159 21.0295 13.5166 20.9268 13.4615L19.9973 12.9635Z" fill="white"/>
<path fill-rule="evenodd" clip-rule="evenodd" d="M11.9973 12.9635C11.9586 12.9427 11.9119 12.9434 11.8738 12.9653L10.974 13.4826C10.8727 13.5408 10.7531 13.4432 10.7898 13.3324L11.0767 12.4657C11.0924 12.4183 11.0789 12.3661 11.0423 12.3323L10.4412 11.7771C10.3569 11.6993 10.4105 11.5585 10.5252 11.5565L11.3572 11.5414C11.407 11.5405 11.4516 11.5106 11.4715 11.465L11.8586 10.5764C11.9038 10.4726 12.052 10.4752 12.0936 10.5805L12.4482 11.479C12.4671 11.5269 12.5129 11.5586 12.5643 11.5595L13.3865 11.5739C13.5016 11.5759 13.555 11.7177 13.4698 11.7952L12.8489 12.36C12.8108 12.3947 12.7974 12.4488 12.8148 12.4973L13.1065 13.3062C13.146 13.4159 13.0295 13.5166 12.9268 13.4615L11.9973 12.9635Z" fill="white"/>
</g>
</g>
</svg>
