<svg width="32" height="24" viewBox="0 0 32 24" fill="none" xmlns="http://www.w3.org/2000/svg">
<mask id="mask0_1957_20371" style="mask-type:luminance" maskUnits="userSpaceOnUse" x="0" y="0" width="32" height="24">
<rect width="32" height="24" fill="white"/>
</mask>
<g mask="url(#mask0_1957_20371)">
<path fill-rule="evenodd" clip-rule="evenodd" d="M0 0V24H32V0H0Z" fill="#2E42A5"/>
<mask id="mask1_1957_20371" style="mask-type:luminance" maskUnits="userSpaceOnUse" x="0" y="0" width="32" height="24">
<path fill-rule="evenodd" clip-rule="evenodd" d="M0 0V24H32V0H0Z" fill="white"/>
</mask>
<g mask="url(#mask1_1957_20371)">
<mask id="mask2_1957_20371" style="mask-type:luminance" maskUnits="userSpaceOnUse" x="0" y="0" width="32" height="24">
<rect width="32" height="24" fill="white"/>
</mask>
<g mask="url(#mask2_1957_20371)">
<path d="M-1.87181 0.621614L1.18951 -3.21373L34 23.3788L30.9387 27.2141L-1.87181 0.621614Z" fill="white"/>
<path fill-rule="evenodd" clip-rule="evenodd" d="M-1.73047 -0.384304L-0.675986 -1.68213L15.3455 11.8978L17.844 11.065L34.5752 24.7925L33.5457 26.1102L17.5215 12.9351L15.0034 13.7745L-1.73047 -0.384304Z" fill="#E31D1C"/>
<rect width="4.9073" height="47.3017" transform="matrix(-0.62383 -0.78156 -0.78156 0.62383 36.0792 -0.836304)" fill="white"/>
<path fill-rule="evenodd" clip-rule="evenodd" d="M32.8586 0.615696L31.8042 -0.682129L16.7827 11.8978L14.2842 11.065L-1.447 23.7925L-0.417511 25.1102L14.6066 12.9351L17.1248 13.7745L32.8586 0.615696Z" fill="#E31D1C"/>
<path fill-rule="evenodd" clip-rule="evenodd" d="M19.51 -1H12.4941V8.28571H-16.6866V15.7143H12.4941V25H19.51V15.7143H48.7419V8.28571H19.51V-1Z" fill="#F50100"/>
<path fill-rule="evenodd" clip-rule="evenodd" d="M12.4941 8.28571H-24.6866V15.7143H12.4941V41H19.51V15.7143H56.7419V8.28571H19.51V-25H12.4941V8.28571ZM13.887 -23.6071V9.67857H-23.2938V14.3214H13.887V39.6071H18.1171V14.3214H55.3491V9.67857H18.1171V-23.6071H13.887Z" fill="white"/>
</g>
</g>
</g>
</svg>
