<svg width="32" height="24" viewBox="0 0 32 24" fill="none" xmlns="http://www.w3.org/2000/svg">
<mask id="mask0_1957_20227" style="mask-type:luminance" maskUnits="userSpaceOnUse" x="0" y="0" width="32" height="24">
<rect width="32" height="24" fill="white"/>
</mask>
<g mask="url(#mask0_1957_20227)">
<path fill-rule="evenodd" clip-rule="evenodd" d="M0 0V24H32V0H0Z" fill="#5DAA22"/>
<mask id="mask1_1957_20227" style="mask-type:luminance" maskUnits="userSpaceOnUse" x="0" y="0" width="32" height="24">
<path fill-rule="evenodd" clip-rule="evenodd" d="M0 0V24H32V0H0Z" fill="white"/>
</mask>
<g mask="url(#mask1_1957_20227)">
<path fill-rule="evenodd" clip-rule="evenodd" d="M0 0V12H32V0H0Z" fill="#F7FCFF"/>
<path fill-rule="evenodd" clip-rule="evenodd" d="M15.1949 10.0968C15.1839 9.74636 15.1732 9.4088 15.6058 9.00594C16.7338 8.00376 17.8813 7.21734 19.1633 6.46155C18.9037 6.92435 18.7178 7.78462 19.3995 7.83921C19.6179 7.84267 22.0146 6.76733 22.0146 6.76733C21.1812 7.41582 20.2224 8.32085 21.3359 8.71241C20.3143 9.05151 19.4672 10.153 20.2093 11.0401C19.6792 10.8792 18.9834 11.244 18.8581 11.655C18.9887 11.6539 19.2192 11.6743 19.5013 11.6991C20.5224 11.7892 22.2198 11.9389 22.3052 11.3516C21.7553 11.6381 20.8019 11.5213 20.773 10.6992C20.7804 9.99426 21.7737 9.59788 22.6196 10.1261C22.6631 10.0311 22.7059 9.93602 22.7488 9.84093C22.7922 9.7446 22.8356 9.64827 22.8796 9.5521C22.8422 9.55703 22.8052 9.56219 22.7686 9.5673C22.5019 9.6045 22.2516 9.63941 21.9701 9.56926C22.6212 8.91065 23.2337 8.26233 23.7883 7.53179C23.6663 8.4428 23.788 9.76232 24 10.1939C23.7427 10.0954 23.456 9.86355 23.3144 9.55945C23.2643 9.72554 23.2142 9.89164 23.1641 10.0577C23.1141 10.2239 23.064 10.39 23.0138 10.5561C23.4988 11.6061 22.9797 13.1634 22.7058 13.985C22.6205 14.2409 22.559 14.4254 22.559 14.5011C22.3362 14.5904 22.1732 14.4513 22.0103 14.3123C21.9288 14.2428 21.8473 14.1733 21.7584 14.1323C21.8984 14.5206 21.799 15.1348 21.7121 15.6717C21.6795 15.8733 21.6486 16.0641 21.6328 16.2278C21.61 16.4647 21.7082 16.6312 21.7557 16.7118C21.7666 16.7303 21.7749 16.7443 21.7784 16.7536C21.9107 16.8082 22.2179 16.9587 22.2393 16.9792C22.2393 16.9792 22.5182 16.9929 22.5951 17.4093C22.4092 17.1686 22.1557 17.2449 22.1557 17.2449C22.1401 17.256 22.1245 17.2672 22.109 17.2784C22.0926 17.2902 22.0762 17.302 22.0598 17.3136L21.8359 17.1706C21.5885 16.9953 21.3366 17.0041 21.0675 17.1289C20.9309 17.2165 20.7894 17.2121 20.6572 17.1427C20.52 16.9839 20.2378 17.096 20.181 17.1186C20.1751 17.1209 20.1716 17.1223 20.171 17.1223C20.1646 17.1223 19.819 17.3684 19.819 17.3684C19.819 17.3684 19.7357 17.348 19.7293 17.348L19.7288 17.348C19.715 17.3478 19.4996 17.3456 19.217 17.5385C19.2929 17.1211 19.5759 17.1289 19.5759 17.1289C19.5584 17.0707 19.5792 17.058 19.6 17.0451C19.6104 17.0387 19.6208 17.0323 19.6265 17.0201C19.6886 16.9467 19.797 16.9307 19.9054 16.9147C19.9596 16.9067 20.0137 16.8987 20.0621 16.8836C19.9467 16.8423 19.7284 16.7835 19.5744 16.7985C19.5008 16.8057 19.4626 16.8295 19.4307 16.8494C19.3826 16.8793 19.3488 16.9003 19.2301 16.8427C19.2322 16.8359 19.2342 16.8291 19.2362 16.8222C19.2382 16.8154 19.2402 16.8086 19.2423 16.8018C19.0604 16.7849 18.9177 16.7772 18.8136 16.9588C18.8045 16.6914 18.9884 16.6157 19.1377 16.5542C19.1586 16.5456 19.1789 16.5373 19.1979 16.5287C19.2676 16.4137 19.5726 16.4179 19.5629 16.4265C19.5355 16.3828 19.4686 16.307 19.4231 16.2553C19.3966 16.2253 19.3773 16.2034 19.3773 16.2009C19.3773 16.194 19.1407 16.0416 18.9739 16.2148C19.0063 15.8525 19.5418 15.8475 19.5951 15.9008C19.6474 15.9554 19.6996 16.0099 19.7519 16.0643C19.8042 16.1188 19.8565 16.1732 19.9087 16.2278C19.957 16.2603 20.0053 16.2929 20.0535 16.3255C20.1034 16.3593 20.1533 16.393 20.2032 16.4265C20.3653 16.5028 20.7843 16.4414 20.9959 16.2009C21.1198 16.06 21.1225 15.7964 21.1238 15.6629C21.1241 15.6402 21.1243 15.6212 21.125 15.6073C21.1349 15.4228 21.1246 15.2134 21.1159 15.0374C21.106 14.8366 21.0982 14.6792 21.125 14.6515C20.9834 14.5982 20.9079 14.469 20.8748 14.4123C20.8649 14.3954 20.8588 14.385 20.8558 14.385C20.7788 14.4018 20.167 14.5348 19.5629 14.358C19.085 14.2181 18.6032 13.9381 18.3112 13.7684C18.1641 13.6829 18.0651 13.6253 18.0391 13.6279C17.957 13.7719 17.9171 13.8053 17.8396 13.8702C17.8063 13.8981 17.766 13.9318 17.7124 13.9827C17.5305 14.1848 17.595 14.5253 17.7377 14.6859L18.4103 14.9589C18.9225 14.9904 19.0449 15.3034 19.0376 15.6073C18.8703 15.5538 18.5745 15.4413 18.412 15.3795C18.3866 15.3698 18.3645 15.3614 18.3466 15.3546C17.9333 16.0656 17.3461 16.5636 16.5084 16.7944C16.601 16.841 16.7858 16.8833 16.9364 16.9178C17.046 16.9429 17.1375 16.9639 17.1618 16.9792C17.4109 17.035 17.5864 17.1187 17.5844 17.3684C17.4177 17.1704 17.2555 17.1754 17.1235 17.2728C16.9465 17.3519 16.8197 17.2628 16.6929 17.1737C16.6294 17.1291 16.5659 17.0845 16.4962 17.061C16.3189 16.9248 16.1456 16.9822 15.99 17.0675C15.8453 16.9664 15.6829 16.9923 15.5174 17.0187C15.483 17.0241 15.4486 17.0296 15.4141 17.034C15.164 17.0605 14.8792 17.1282 14.7546 17.2793C14.6909 17.3329 14.6566 17.2833 14.6414 17.2613C14.6369 17.2548 14.6341 17.2508 14.6327 17.2523C14.3448 17.153 14.217 17.4224 14.217 17.4224C14.1488 17.1105 14.2963 17.0438 14.4532 16.9997L14.1334 16.8018C14.1318 16.7925 14.1292 16.785 14.1271 16.7788C14.1203 16.7592 14.1181 16.7525 14.1656 16.7405C14.0398 16.6545 13.9134 16.7201 13.7746 16.8558C13.7874 16.5714 14.117 16.3938 14.2554 16.4879C14.3551 16.4092 14.5366 16.3949 14.671 16.5148C14.8222 16.6367 15.0513 16.6528 15.2025 16.6039C15.1372 16.4116 14.9293 16.2977 14.8121 16.29C14.6469 16.2471 14.456 16.1857 14.5115 16.0782C14.4095 15.9235 14.2638 15.9718 14.1012 16.0987C14.1594 15.7467 14.7415 15.7263 14.8313 15.8395C14.9257 15.8665 14.9662 15.9221 15.0067 15.9778C15.027 16.0056 15.0473 16.0335 15.0744 16.0578C15.2317 16.2295 15.4758 16.3181 15.6764 16.3513C16.0448 16.3068 16.4171 15.9974 16.6528 15.8014C16.7421 15.7272 16.8118 15.6693 16.8543 15.6482C16.8543 15.6482 16.6094 15.6252 16.592 15.4569C16.5142 15.4564 16.4353 15.3417 16.3347 15.1952C16.1857 14.9782 15.9888 14.6917 15.6764 14.6033C15.1281 14.4481 13.8519 14.9327 13.6637 15.0042C13.6489 15.0098 13.6408 15.0129 13.6403 15.0129C13.6079 15.3221 13.3768 15.6073 13.3768 15.6073C13.3394 15.507 13.2915 15.4142 13.245 15.3242C13.1534 15.147 13.0671 14.9801 13.0767 14.7856C12.8288 15.1291 12.6493 15.3128 12.4703 15.496C12.3788 15.5896 12.2874 15.6831 12.1871 15.7978C11.9468 16.0611 11.8237 16.3709 11.7393 16.7127C11.9184 16.8222 12.4179 16.9179 12.4179 16.9179C12.6365 16.9225 12.7974 17.0511 12.7952 17.2932C12.6003 17.0785 12.4049 17.2114 12.4049 17.2114C12.2449 17.3531 12.0416 17.2891 11.8474 17.2114C11.6789 17.0197 11.434 16.9103 11.227 17.0749C11.1071 17.179 11.0188 17.1568 10.9166 17.131C10.8059 17.1031 10.6789 17.0711 10.4778 17.191C10.2024 17.4581 9.81951 17.4825 9.71548 17.3202C9.71548 17.3202 9.54294 17.3136 9.24157 17.4224C9.3187 16.9245 9.61963 17.0953 9.61963 17.0953L9.6066 16.9383L9.49769 16.8975C9.30344 16.8061 9.06255 16.8286 8.95399 16.9244C9.02822 16.5982 9.31242 16.5963 9.52378 16.6309C9.55158 16.598 9.57015 16.5391 9.58723 16.4849C9.59376 16.4642 9.60007 16.4442 9.6066 16.4265C9.60155 16.4211 9.59653 16.4157 9.59153 16.4104C9.4805 16.291 9.38261 16.1858 9.24157 16.3104C9.30198 15.6955 10.0081 16.1518 10.2188 16.288C10.2328 16.297 10.2446 16.3046 10.2538 16.3104C10.7086 16.4732 11.8931 14.6137 11.9509 14.4839C11.6136 14.4678 11.2353 14.5052 10.9709 14.6033C10.8959 14.8474 10.7627 14.9757 10.6063 15.1263C10.5804 15.1512 10.5538 15.1767 10.5268 15.2035C10.5309 14.5014 10.2192 14.147 9.77199 13.6388C9.74718 13.6106 9.72194 13.5819 9.69632 13.5526C9.1373 13.1622 8.89004 12.3755 8.84508 12.1186C8.75946 12.3582 8.69623 12.431 8.6775 12.4526C8.67374 12.4569 8.67178 12.4592 8.67178 12.4603C8.54751 12.6042 8.16685 12.909 8.21779 12.713C8.04632 12.6699 8.19583 12.5171 8.28144 12.4603C8.3035 12.4558 8.33954 12.3907 8.38042 12.317C8.43815 12.2128 8.50553 12.0912 8.55674 12.0981L8.66564 11.0271C8.59984 10.9979 8.57047 10.8941 8.53137 10.756C8.50679 10.6691 8.47837 10.5687 8.43463 10.4647C8.31511 10.1805 8.09329 9.87238 8 9.84563C8.29688 9.79072 8.41088 9.91039 8.49029 9.99375C8.52357 10.0287 8.55078 10.0572 8.58282 10.0639C8.65093 10.1073 8.70724 10.2643 8.76901 10.4365C8.81952 10.5773 8.87369 10.7283 8.94096 10.8357C8.82734 10.4442 8.88498 10.1804 8.99845 9.83909C8.9988 9.65466 8.92643 9.47495 8.75536 9.36815C9.0739 9.36009 9.22466 9.67069 9.26397 9.75167C9.26907 9.76219 9.2723 9.76884 9.27377 9.77041C9.41033 9.95994 9.35391 10.1148 9.30869 10.239C9.27871 10.3213 9.25365 10.3901 9.29293 10.4466C9.31639 10.4276 9.33609 10.4005 9.35581 10.3734C9.39528 10.3192 9.4348 10.2648 9.50461 10.2757C9.59222 10.1735 9.65848 10.0627 9.65185 9.83255C9.87237 9.96666 9.81855 10.1639 9.74771 10.3574C9.76083 10.6469 9.72265 10.7262 9.54294 10.8284C9.36297 10.9426 9.32903 11.0373 9.35045 11.1767C9.56898 11.4257 9.6135 12.1938 9.6135 12.1938C9.83347 12.2645 9.91325 12.4673 9.90108 12.6312C10.1089 12.6114 10.2987 12.7824 10.3305 12.9378C10.4534 12.8149 10.626 12.9299 10.7462 13.0613C10.7885 12.9927 10.8789 12.9603 10.977 12.9991C10.9768 12.8787 11.0403 12.8035 11.1434 12.7056C10.8949 12.5001 11.1559 10.993 11.3359 10.9518C11.2777 10.5438 11.9346 9.23628 12.0974 9.21117C12.0974 9.20431 11.9885 8.93807 11.9885 8.93807C11.9885 8.93807 11.4674 9.02127 11.3742 9.53167C11.31 9.42555 11.2462 9.26593 11.2462 9.26593C11.2462 9.26593 10.7925 9.85926 10.786 9.84563C10.6062 9.7292 10.6871 9.44337 10.6871 9.44337C10.6001 9.34176 10.5816 9.22171 10.5631 9.10172C10.5539 9.04175 10.5446 8.98181 10.5268 8.92418C10.2823 8.9128 10.0992 8.90152 9.91597 8.89023C9.73309 8.87896 9.55015 8.86768 9.30599 8.85631C9.30599 8.85631 9.47239 9.18364 9.47239 9.17681C9.29892 9.18027 8.4522 8.40777 8.28834 7.7501C8.71648 8.10857 9.17225 8.20731 9.65661 8.31225C9.66345 8.31373 9.6703 8.31521 9.67715 8.3167C9.6125 8.3506 9.5479 8.3846 9.4833 8.41861C9.41782 8.45309 9.35234 8.48756 9.2868 8.52192C10.6363 8.64523 12.0333 8.37831 12.0268 8.37148C11.8759 8.03585 11.3804 8.03708 11.3804 8.03708L11.3592 8.24283L11.0186 8.34367C11.0186 8.34367 10.7431 8.35029 10.74 8.34367C10.6773 8.00229 10.375 7.9962 10.375 7.9962C10.1383 7.96371 9.93644 7.98859 9.73451 8.01348C9.63378 8.0259 9.53302 8.03832 9.4279 8.04362C9.82046 7.5186 10.3371 7.47939 10.8555 7.44005C10.9496 7.43291 11.0438 7.42576 11.1373 7.4157C11.1816 7.13986 11.4088 7.05947 11.6748 7.01998C11.6748 7.01998 12.923 7.08784 12.9294 7.08784C13.0901 6.86177 13.589 6.76734 13.589 6.76734C13.764 6.67403 14.0376 6.6592 14.2999 6.6592C14.2592 6.96908 13.8721 7.30904 13.727 7.40916C13.5798 7.64681 13.5926 7.67109 13.6488 7.77751C13.6543 7.78793 13.6602 7.79914 13.6664 7.81142L13.8136 8.0845C14.0626 8.16629 14.2437 8.279 14.2999 8.45324C14.0306 8.41884 13.8346 8.472 13.8389 8.59633C13.8425 8.65825 13.9372 8.69708 14.0239 8.73262C14.0653 8.74963 14.105 8.76588 14.1319 8.78355C14.2865 8.93807 14.3376 9.07452 14.3451 9.26593C14.2789 9.26214 14.206 9.22448 14.133 9.18681C13.9871 9.11147 13.8411 9.03609 13.7492 9.2316C13.6834 9.37505 13.7564 9.56885 13.9287 9.63386C14.2447 9.72619 14.274 10.1874 14.2676 10.1874C14.2671 10.1874 14.2637 10.1858 14.2577 10.183C14.1853 10.1492 13.7425 9.9425 13.7746 10.3648C13.7727 10.397 13.753 10.4202 13.7296 10.4476C13.6877 10.4969 13.6342 10.5597 13.6524 10.7125C13.6876 11.0084 13.7341 11.3163 13.7554 11.3819C13.9536 11.3392 14.152 11.2963 14.3504 11.2534C14.5534 11.2095 14.7564 11.1657 14.9594 11.1219C15.1347 10.9515 15.2138 10.6688 15.1963 10.3648C15.2005 10.2738 15.1977 10.1849 15.1949 10.0968ZM22.2584 10.8022C22.0747 10.5945 21.8864 10.5236 21.7293 10.5259C21.4996 10.5292 21.3364 10.6898 21.352 10.8112C21.4034 11.2129 22.1701 11.0736 22.2584 10.8022Z" fill="#D21034"/>
</g>
</g>
</svg>
