<svg width="32" height="24" viewBox="0 0 32 24" fill="none" xmlns="http://www.w3.org/2000/svg">
<mask id="mask0_1957_20234" style="mask-type:luminance" maskUnits="userSpaceOnUse" x="0" y="0" width="32" height="24">
<rect width="32" height="24" fill="white"/>
</mask>
<g mask="url(#mask0_1957_20234)">
<rect width="32" height="24" fill="#5EAA22"/>
<path fill-rule="evenodd" clip-rule="evenodd" d="M0 0L32 24H0V0Z" fill="#FECA00"/>
<path fill-rule="evenodd" clip-rule="evenodd" d="M16.2593 14.5693C16.1561 14.514 16.0316 14.5158 15.9301 14.5742L13.5305 15.9536C13.2604 16.1089 12.9415 15.8486 13.0394 15.5529L13.8045 13.2418C13.8463 13.1155 13.8104 12.9763 13.7126 12.886L12.1097 11.4056C11.8851 11.1982 12.028 10.8228 12.3337 10.8172L14.5525 10.777C14.6852 10.7746 14.8043 10.695 14.8573 10.5733L15.8895 8.20375C16.0102 7.92688 16.4052 7.93378 16.5161 8.21468L17.4618 10.6108C17.5121 10.7383 17.6343 10.823 17.7714 10.8254L19.9638 10.8637C20.2709 10.869 20.4133 11.2471 20.1862 11.4538L18.5304 12.9601C18.4288 13.0525 18.393 13.1969 18.4395 13.3261L19.2173 15.4833C19.3227 15.7758 19.012 16.0442 18.738 15.8974L16.2593 14.5693Z" fill="#E21835"/>
</g>
</svg>
