<svg width="32" height="24" viewBox="0 0 32 24" fill="none" xmlns="http://www.w3.org/2000/svg">
<mask id="mask0_1957_20282" style="mask-type:luminance" maskUnits="userSpaceOnUse" x="0" y="0" width="32" height="24">
<rect width="32" height="24" fill="white"/>
</mask>
<g mask="url(#mask0_1957_20282)">
<path fill-rule="evenodd" clip-rule="evenodd" d="M0 16H32V24H0V16Z" fill="#5EAA22"/>
<path fill-rule="evenodd" clip-rule="evenodd" d="M0 8H32V16H0V8Z" fill="#FECA00"/>
<path fill-rule="evenodd" clip-rule="evenodd" d="M0 0H32V8H0V0Z" fill="#E11C1B"/>
</g>
<path fill-rule="evenodd" clip-rule="evenodd" d="M16.1945 13.927C16.1171 13.8855 16.0237 13.8869 15.9476 13.9306L14.1479 14.9652C13.9453 15.0817 13.7061 14.8865 13.7795 14.6647L14.3534 12.9314C14.3848 12.8366 14.3578 12.7323 14.2845 12.6645L13.0823 11.5542C12.9138 11.3986 13.021 11.1171 13.2503 11.1129L14.9144 11.0827C15.0139 11.0809 15.1032 11.0212 15.143 10.93L15.9172 9.15281C16.0076 8.94516 16.3039 8.95034 16.3871 9.16101L17.0963 10.9581C17.1341 11.0537 17.2257 11.1173 17.3285 11.1191L18.9729 11.1478C19.2031 11.1518 19.31 11.4353 19.1396 11.5903L17.8978 12.7201C17.8216 12.7893 17.7947 12.8977 17.8296 12.9945L18.413 14.6125C18.492 14.8318 18.259 15.0332 18.0535 14.923L16.1945 13.927Z" fill="#292B2E"/>
</svg>
