<svg width="32" height="24" viewBox="0 0 32 24" fill="none" xmlns="http://www.w3.org/2000/svg">
<mask id="mask0_1957_20238" style="mask-type:luminance" maskUnits="userSpaceOnUse" x="0" y="0" width="32" height="24">
<rect width="32" height="24" fill="white"/>
</mask>
<g mask="url(#mask0_1957_20238)">
<rect width="32" height="24" fill="#F7FCFF"/>
<path fill-rule="evenodd" clip-rule="evenodd" d="M0 16H32V24H0V16Z" fill="#C51918"/>
<path fill-rule="evenodd" clip-rule="evenodd" d="M17.1179 7.76367H14.1659V11.3702H13.428V9.2063H10.476V11.3702H9V12.0915H9.738V15.6979H21.5459V12.0915H22.2839V11.3702H20.8079V9.2063H17.856V11.3702H17.1179V7.76367ZM22.2839 15.698H9V16.4193H22.2839V15.698Z" fill="#C51918"/>
<path d="M11.214 10.5684C11.214 10.2144 11.5009 9.92749 11.8549 9.92749C12.2088 9.92749 12.4958 10.2144 12.4958 10.5684V11.5143H11.214V10.5684Z" fill="#292B2E"/>
<path d="M18.594 10.5684C18.594 10.2144 18.8809 9.92749 19.2349 9.92749C19.5888 9.92749 19.8758 10.2144 19.8758 10.5684V11.5143H18.594V10.5684Z" fill="#292B2E"/>
<path fill-rule="evenodd" clip-rule="evenodd" d="M11.0062 14.3826C11.0062 13.9139 11.3862 13.5339 11.8549 13.5339C12.3236 13.5339 12.7036 13.9139 12.7036 14.3826V15.8421H11.0062V14.3826Z" fill="#292B2E"/>
<path d="M18.3861 14.3826C18.3861 13.9139 18.7661 13.5339 19.2348 13.5339C19.7035 13.5339 20.0835 13.9139 20.0835 14.3826V15.8421H18.3861V14.3826Z" fill="#292B2E"/>
<path fill-rule="evenodd" clip-rule="evenodd" d="M14.3875 14.5146C14.3875 13.9139 14.8744 13.427 15.475 13.427C16.0757 13.427 16.5626 13.9139 16.5626 14.5146V16.6007H14.3875V14.5146Z" fill="#292B2E"/>
<path d="M14.9039 9.84707C14.9039 9.49311 15.1909 9.20618 15.5448 9.20618C15.8988 9.20618 16.1857 9.49311 16.1857 9.84707V11.5143H14.9039V9.84707Z" fill="#292B2E"/>
<rect x="9" y="10.6488" width="0.737994" height="0.721298" fill="#C51918"/>
<path fill-rule="evenodd" clip-rule="evenodd" d="M10.1721 8.54504H10.9535V9.32645H10.1721V8.54504ZM13.1556 8.54507H13.937V9.32648H13.1556V8.54507ZM12.7117 8.54507H11.5396V9.32648H12.7117V8.54507Z" fill="#C51918"/>
<path fill-rule="evenodd" clip-rule="evenodd" d="M17.6664 8.54504H18.4478V9.32645H17.6664V8.54504ZM20.5791 8.54507H21.3605V9.32648H20.5791V8.54507ZM20.0993 8.54507H18.9272V9.32648H20.0993V8.54507Z" fill="#C51918"/>
<path fill-rule="evenodd" clip-rule="evenodd" d="M14.3134 7H13.532V7.78141H14.3134V7ZM15.4855 7H14.7041V7.78141H15.4855V7ZM15.8762 7H16.6576V7.78141H15.8762V7ZM17.8298 7H17.0483V7.78141H17.8298V7Z" fill="#C51918"/>
<rect x="21.5021" y="10.7133" width="0.781406" height="0.655362" fill="#C51918"/>
<path fill-rule="evenodd" clip-rule="evenodd" d="M15.5947 18.276L17.7144 16.8899L15.4528 15.8323L13.1912 17.1322L15.5947 18.276ZM14.7671 17.0168L15.4606 16.552L16.1932 16.9511L15.5343 17.3819L14.7671 17.0168Z" fill="#E8AA00"/>
<path fill-rule="evenodd" clip-rule="evenodd" d="M14.0601 20.2714H15.2116V21.1364V20.8444H14.496V21.1364H14.0601V20.2714Z" fill="#E8AA00"/>
<path fill-rule="evenodd" clip-rule="evenodd" d="M15.1072 18.0107H16.0846V21.1364H15.1072V18.0107Z" fill="#E8AA00"/>
</g>
</svg>
