<svg width="32" height="24" viewBox="0 0 32 24" fill="none" xmlns="http://www.w3.org/2000/svg">
<mask id="mask0_1957_20258" style="mask-type:luminance" maskUnits="userSpaceOnUse" x="0" y="0" width="32" height="24">
<rect width="32" height="24" fill="white"/>
</mask>
<g mask="url(#mask0_1957_20258)">
<path fill-rule="evenodd" clip-rule="evenodd" d="M22 0H32V24H22V0Z" fill="#58A5FF"/>
<path fill-rule="evenodd" clip-rule="evenodd" d="M0 0H12V24H0V0Z" fill="#58A5FF"/>
<path fill-rule="evenodd" clip-rule="evenodd" d="M10 0H22V24H10V0Z" fill="white"/>
<path fill-rule="evenodd" clip-rule="evenodd" d="M12.877 14.8342L13.2642 15.3412L15.023 12.9571V12.535L12.877 14.8342Z" fill="#6C301F"/>
<path d="M14.0913 12.1749L14.2199 11.9978C15.8854 13.2501 17.0654 14.2115 17.7251 15.0125L17.3132 15.3518C16.6861 14.5904 15.7259 13.4039 14.0913 12.1749Z" fill="#979797"/>
<path d="M16.7759 11.1282L16.5844 10.9424L17.6345 9.85931L17.8646 10.0828L18.9548 9.06763L19.1367 9.26293L17.8607 10.4511L17.6401 10.2369L16.7759 11.1282Z" fill="#979797"/>
<path fill-rule="evenodd" clip-rule="evenodd" d="M13.4243 9.43566C13.3682 9.19197 13.305 8.89099 13.305 8.89099C13.1644 9.21176 13.1201 9.5036 13.1766 9.76457C13.1168 9.84682 13.0626 9.92386 13.0142 9.99574C12.8629 9.79599 12.6743 9.42242 12.6743 9.42242C12.6808 9.53119 12.6779 9.64216 12.675 9.74992V9.74992V9.74992V9.74992V9.74992V9.74992V9.74992V9.74992V9.74992V9.74992V9.74992V9.74992V9.74992V9.74993V9.74993V9.74993V9.74993V9.74993C12.6682 10.0031 12.6618 10.2386 12.7807 10.386L12.7793 10.3889C12.7556 10.4378 12.7331 10.4865 12.7119 10.5352C12.548 10.3718 12.2761 10.0772 12.2761 10.0772C12.2973 10.4305 12.3951 10.7089 12.5728 10.9075C12.5406 11.0111 12.5141 11.1141 12.4931 11.2164C12.3557 11.0743 12.2232 10.9339 12.2232 10.9339C12.2426 11.2563 12.2965 11.4692 12.4366 11.6482C12.4338 11.6991 12.4323 11.7498 12.4323 11.8003C12.2871 11.6506 12.1395 11.4942 12.1395 11.4942C12.16 11.8344 12.2926 12.0582 12.4673 12.2446C12.4847 12.3523 12.5084 12.4589 12.5383 12.5642L12.5542 12.6198C12.3567 12.5243 12.1408 12.4159 12.1408 12.4159C12.2697 12.7132 12.4579 12.8769 12.672 12.9915C12.7177 13.1247 12.766 13.2535 12.8167 13.3774C12.5849 13.3145 12.2388 13.2109 12.2388 13.2109C12.4441 13.5216 12.6958 13.6451 12.9664 13.7161C13.0216 13.8317 13.0791 13.942 13.1384 14.0468C12.9188 13.9852 12.6611 13.908 12.6611 13.908C12.8604 14.2098 13.1036 14.335 13.3653 14.407C13.5379 14.6524 13.7228 14.854 13.9156 15.0049C13.7031 15.1014 13.4355 15.2169 13.4355 15.2169C13.7377 15.3067 13.9791 15.2723 14.1995 15.1872L14.2255 15.1999C14.3206 15.2455 14.4271 15.2885 14.5474 15.3304C14.373 15.408 14.2071 15.4796 14.2071 15.4796C14.5023 15.5673 14.7395 15.5365 14.9558 15.4557L14.9791 15.4621C15.0852 15.491 15.1932 15.5186 15.3354 15.5539C15.2414 15.5306 15.5886 15.6162 15.6592 15.6342C15.8849 15.6916 16.0135 15.732 16.0752 15.7667C16.081 15.77 16.0852 15.7727 16.0879 15.7743C16.0906 15.7761 16.0917 15.7768 16.0911 15.776L16.2638 15.6505C16.2438 15.6229 16.216 15.601 16.18 15.5807C16.0953 15.533 15.9579 15.4899 15.7118 15.4273C15.6418 15.4095 15.3054 15.3265 15.3816 15.3454C15.2434 15.3111 15.1382 15.2841 15.0353 15.2561C15.0046 15.2477 14.9746 15.2394 14.9453 15.2311C14.9699 15.0041 14.9413 14.7688 14.7865 14.5066C14.7865 14.5066 14.7192 14.9161 14.6734 15.1478C14.5369 15.1022 14.4193 15.0561 14.3177 15.0074C14.2834 14.9909 14.2492 14.9726 14.2151 14.9524C14.2014 14.7208 14.1334 14.4904 13.9322 14.2553C13.9322 14.2553 13.9352 14.5156 13.934 14.7412C13.7937 14.6131 13.6574 14.4537 13.5275 14.2666L13.6186 14.3148C13.6286 14.026 13.5841 13.7414 13.3342 13.4494C13.3342 13.4494 13.3375 13.731 13.336 13.9622C13.2548 13.8205 13.177 13.6674 13.1034 13.504C13.1718 13.2794 13.1883 13.0374 13.0784 12.7442C13.0784 12.7442 13.013 12.9304 12.9445 13.1183C12.9244 13.0649 12.9047 13.0106 12.8855 12.9555C13.0254 12.7205 13.1153 12.4603 13.0485 12.1021C13.0485 12.1021 12.8894 12.3852 12.7681 12.5904C12.7598 12.5624 12.7517 12.5343 12.7436 12.5059C12.7181 12.416 12.6975 12.3251 12.6819 12.2333C12.8813 12.0643 13.0426 11.8537 13.0998 11.5097C13.0998 11.5097 12.8331 11.7389 12.6472 11.8908C12.6446 11.8144 12.6454 11.7374 12.6497 11.6599C12.8646 11.5295 13.0495 11.3515 13.1612 11.0353C13.1612 11.0353 12.8981 11.1913 12.6927 11.3075C12.7073 11.2298 12.7253 11.1516 12.7468 11.0729L12.7471 11.0805C13.0022 10.9448 13.2265 10.7639 13.3544 10.4015C13.3544 10.4015 13.0901 10.5582 12.8845 10.6745C12.9112 10.6107 12.9401 10.5465 12.9713 10.4822C13.0085 10.4057 13.0612 10.3144 13.1295 10.2085C13.3573 10.1364 13.5693 10.0113 13.7496 9.74836C13.7496 9.74836 13.5675 9.79942 13.3786 9.84997C13.4881 9.70081 13.6166 9.53392 13.7639 9.34952L13.5971 9.21628C13.5364 9.29228 13.4788 9.3654 13.4243 9.43566Z" fill="#5AB92D"/>
<path fill-rule="evenodd" clip-rule="evenodd" d="M18.7153 9.43566C18.7713 9.19197 18.8345 8.89099 18.8345 8.89099C18.9752 9.21176 19.0194 9.5036 18.963 9.76457C19.0228 9.84682 19.0769 9.92386 19.1254 9.99574C19.2766 9.79599 19.4652 9.42242 19.4652 9.42242C19.4587 9.53119 19.4617 9.64216 19.4646 9.74992V9.74992V9.74992V9.74992V9.74992V9.74992V9.74992V9.74992V9.74992V9.74992V9.74992V9.74992V9.74992V9.74993V9.74993V9.74993V9.74993V9.74993C19.4714 10.0031 19.4777 10.2386 19.3588 10.386L19.3602 10.3889C19.3839 10.4378 19.4064 10.4865 19.4276 10.5352C19.5915 10.3718 19.8635 10.0772 19.8635 10.0772C19.8422 10.4305 19.7444 10.7089 19.5667 10.9075C19.5989 11.0111 19.6254 11.1141 19.6465 11.2164C19.7839 11.0743 19.9164 10.9339 19.9164 10.9339C19.897 11.2563 19.843 11.4692 19.7029 11.6482C19.7058 11.6991 19.7072 11.7498 19.7073 11.8003C19.8524 11.6506 20 11.4942 20 11.4942C19.9795 11.8344 19.8469 12.0582 19.6722 12.2446C19.6549 12.3523 19.6312 12.4589 19.6013 12.5642L19.5853 12.6198C19.7828 12.5243 19.9988 12.4159 19.9988 12.4159C19.8698 12.7132 19.6816 12.8769 19.4676 12.9915C19.4218 13.1247 19.3735 13.2535 19.3229 13.3774C19.5546 13.3145 19.9007 13.2109 19.9007 13.2109C19.6955 13.5216 19.4437 13.6451 19.1731 13.7161C19.1179 13.8317 19.0605 13.942 19.0011 14.0468C19.2207 13.9852 19.4785 13.908 19.4785 13.908C19.2791 14.2098 19.0359 14.335 18.7742 14.407C18.6016 14.6524 18.4168 14.854 18.224 15.0049C18.4364 15.1014 18.704 15.2169 18.704 15.2169C18.4018 15.3067 18.1604 15.2723 17.94 15.1872L17.9141 15.1999C17.8189 15.2455 17.7124 15.2885 17.5922 15.3304C17.7665 15.408 17.9324 15.4796 17.9324 15.4796C17.6373 15.5673 17.4 15.5365 17.1837 15.4557L17.1604 15.4621C17.0543 15.491 16.9463 15.5186 16.8041 15.5539C16.8982 15.5306 16.5509 15.6162 16.4804 15.6342C16.2546 15.6916 16.126 15.732 16.0643 15.7667C16.0585 15.77 16.0543 15.7727 16.0517 15.7743C16.0489 15.7761 16.0479 15.7768 16.0484 15.776L15.8757 15.6505C15.8957 15.6229 15.9236 15.601 15.9595 15.5807C16.0442 15.533 16.1816 15.4899 16.4277 15.4273C16.4977 15.4095 16.8341 15.3265 16.7579 15.3454C16.8961 15.3111 17.0013 15.2841 17.1043 15.2561C17.1349 15.2477 17.1649 15.2394 17.1942 15.2311C17.1696 15.0041 17.1982 14.7688 17.353 14.5066C17.353 14.5066 17.4203 14.9161 17.4661 15.1478C17.6026 15.1022 17.7202 15.0561 17.8218 15.0074C17.8561 14.9909 17.8904 14.9726 17.9245 14.9524C17.9381 14.7208 18.0062 14.4904 18.2073 14.2553C18.2073 14.2553 18.2043 14.5156 18.2055 14.7412C18.3458 14.6131 18.4821 14.4537 18.612 14.2666L18.5209 14.3148C18.5109 14.026 18.5554 13.7414 18.8053 13.4494C18.8053 13.4494 18.802 13.731 18.8036 13.9622C18.8847 13.8205 18.9625 13.6674 19.0362 13.504C18.9677 13.2794 18.9512 13.0374 19.0612 12.7442C19.0612 12.7442 19.1265 12.9304 19.1951 13.1183C19.2152 13.0649 19.2348 13.0106 19.2541 12.9555C19.1141 12.7205 19.0242 12.4603 19.091 12.1021C19.091 12.1021 19.2501 12.3852 19.3714 12.5904C19.3797 12.5624 19.3878 12.5343 19.3959 12.5059C19.4214 12.416 19.442 12.3251 19.4577 12.2333C19.2582 12.0643 19.0969 11.8537 19.0397 11.5097C19.0397 11.5097 19.3065 11.7389 19.4924 11.8908C19.4949 11.8144 19.4941 11.7374 19.4898 11.6599C19.275 11.5295 19.09 11.3515 18.9783 11.0353C18.9783 11.0353 19.2415 11.1913 19.4468 11.3075C19.4322 11.2298 19.4142 11.1516 19.3927 11.0729L19.3924 11.0805C19.1373 10.9448 18.913 10.7639 18.7851 10.4015C18.7851 10.4015 19.0494 10.5582 19.255 10.6745C19.2284 10.6107 19.1994 10.5465 19.1682 10.4822C19.131 10.4057 19.0783 10.3144 19.01 10.2085C18.7823 10.1364 18.5702 10.0113 18.3899 9.74836C18.3899 9.74836 18.572 9.79942 18.7609 9.84997C18.6514 9.70081 18.5229 9.53392 18.3756 9.34952L18.5425 9.21628C18.6032 9.29228 18.6608 9.3654 18.7153 9.43566Z" fill="#5AB92D"/>
<path fill-rule="evenodd" clip-rule="evenodd" d="M14.101 10.087L14.997 12.4617H14.3383C14.3383 12.4617 14.101 13.2112 14.549 13.2112C14.997 13.2112 17.3058 13.2112 17.3058 13.2112C17.3058 13.2112 17.6059 13.0232 17.4559 12.4617C17.3058 11.9002 16.5475 10.3502 16.5475 10.3502C16.5475 10.3502 16.8715 10.0929 16.8715 9.90224C16.8715 9.71155 16.5475 9.69055 16.5475 9.69055H14.5021C14.2411 9.73286 14.101 10.087 14.101 10.087Z" fill="#EFE298"/>
<path d="M14.863 10.9612L16.2547 10.8748L14.863 10.9612Z" fill="#C5A042"/>
<path d="M14.863 10.9612L16.2547 10.8748" stroke="#B47D00" stroke-width="0.5"/>
<path d="M15.2017 11.7186L16.5934 11.6321L15.2017 11.7186Z" fill="#C5A042"/>
<path d="M15.2017 11.7186L16.5934 11.6321" stroke="#B47D00" stroke-width="0.5"/>
<path d="M15.4662 12.476L16.8579 12.3896L15.4662 12.476Z" fill="#C5A042"/>
<path d="M15.4662 12.476L16.8579 12.3896" stroke="#B47D00" stroke-width="0.5"/>
<path fill-rule="evenodd" clip-rule="evenodd" d="M15.9292 8.79895C15.9292 8.79895 15.7149 8.84249 15.7149 8.97789C15.7149 9.11329 15.657 9.22873 15.657 9.22873C15.657 9.22873 15.7224 9.84628 16.2111 9.98958C16.6997 10.1329 16.9862 10.1673 17.1919 10.4548C17.3976 10.7422 18.0287 11.5538 17.7756 12.2537C17.5225 12.9536 17.3238 13.3107 17.3238 13.3107C17.3238 13.3107 18.2469 12.4412 18.2469 12.029C18.2469 11.6168 18.1105 11.2173 17.7016 10.6939C17.2926 10.1704 17.1024 9.86443 16.7977 9.62859C16.493 9.39274 16.0565 9.17512 16.0565 9.17512C16.0565 9.17512 16.2118 9.00897 16.1342 8.93085C16.0565 8.85274 15.9292 8.79895 15.9292 8.79895Z" fill="#5AB92D"/>
</g>
</svg>
