<svg width="32" height="24" viewBox="0 0 32 24" fill="none" xmlns="http://www.w3.org/2000/svg">
<mask id="mask0_1957_20243" style="mask-type:luminance" maskUnits="userSpaceOnUse" x="0" y="0" width="32" height="24">
<rect width="32" height="24" fill="white"/>
</mask>
<g mask="url(#mask0_1957_20243)">
<path fill-rule="evenodd" clip-rule="evenodd" d="M0 0H32V24H0V0Z" fill="#C51918"/>
<path fill-rule="evenodd" clip-rule="evenodd" d="M5 5H27V19H5V5Z" fill="#4564F9"/>
<path d="M6 6H26V18H6V6Z" stroke="#CBDAFF" stroke-opacity="0.1" stroke-width="2"/>
<mask id="mask1_1957_20243" style="mask-type:luminance" maskUnits="userSpaceOnUse" x="5" y="5" width="22" height="14">
<path fill-rule="evenodd" clip-rule="evenodd" d="M5 5H27V19H5V5Z" fill="white"/>
<path d="M6 6H26V18H6V6Z" stroke="white" stroke-width="2"/>
</mask>
<g mask="url(#mask1_1957_20243)">
<path d="M16.4583 5.58337L17.065 4.26639L16.4441 3.98041L15.8285 4.2773L16.4583 5.58337ZM16.4583 5.58337C17.065 4.26639 17.0654 4.26659 17.0658 4.26679L17.0668 4.26725L17.0692 4.26833L17.0752 4.27114L17.0928 4.2794C17.1069 4.28607 17.1257 4.29507 17.149 4.30637C17.1955 4.32898 17.2597 4.36087 17.3393 4.40186C17.4981 4.48375 17.719 4.60259 17.9815 4.75704C18.5032 5.06405 19.2052 5.52132 19.9145 6.12011C21.2799 7.27279 22.95 9.18953 22.95 11.7736C22.95 14.3292 21.3097 16.3528 19.9689 17.6052C19.2695 18.2585 18.5762 18.7725 18.06 19.1226C17.8006 19.2986 17.5823 19.4356 17.4257 19.5304C17.3474 19.5778 17.2842 19.6148 17.2387 19.641C17.2159 19.6541 17.1976 19.6646 17.184 19.6722L17.1671 19.6817L17.1614 19.6848L17.1592 19.686L17.1583 19.6865C17.1579 19.6868 17.1575 19.687 16.4583 18.4167M16.4583 5.58337C15.8285 4.2773 15.8281 4.27749 15.8276 4.2777L15.8267 4.27816L15.8245 4.27925L15.8186 4.28211L15.8014 4.29057C15.7875 4.29742 15.7689 4.30669 15.7459 4.31836C15.6999 4.34168 15.6362 4.37462 15.5572 4.41691C15.3994 4.50139 15.1797 4.62382 14.9186 4.78218C14.3995 5.09701 13.7009 5.56336 12.9952 6.16677C11.6452 7.32102 9.96663 9.2382 9.96663 11.7736C9.96663 14.2797 11.6144 16.3047 12.9416 17.5588C13.6379 18.2166 14.3282 18.7395 14.842 19.0973C15.1002 19.2771 15.3173 19.4176 15.4729 19.5149C15.5508 19.5636 15.6135 19.6016 15.6585 19.6285C15.681 19.6419 15.6991 19.6526 15.7125 19.6604L15.7291 19.67L15.7346 19.6732L15.7367 19.6744L15.7376 19.6749C15.7379 19.6751 15.7383 19.6753 16.4583 18.4167M16.4583 18.4167L17.1575 19.687L16.4447 20.0794L15.7383 19.6753L16.4583 18.4167Z" stroke="#C1C9F1" stroke-opacity="0.1182" stroke-width="2.9"/>
<path d="M16.3666 6.53369L17.0531 5.25651L16.3506 4.8789L15.6556 5.27001L16.3666 6.53369ZM16.3666 6.53369C17.0531 5.25651 17.0536 5.25675 17.054 5.257L17.055 5.25753L17.0573 5.25875L17.0628 5.26174L17.0778 5.26999C17.0896 5.27648 17.1048 5.28498 17.1233 5.29547C17.1603 5.31644 17.2103 5.34541 17.2715 5.38223C17.3938 5.45577 17.5618 5.56127 17.7604 5.69764C18.1549 5.9686 18.6838 6.37067 19.2175 6.89649C20.258 7.92145 21.4833 9.58554 21.4833 11.787C21.4833 13.9646 20.2804 15.7139 19.2684 16.8169C18.7456 17.3867 18.227 17.8355 17.8395 18.1422C17.6446 18.2964 17.48 18.4171 17.3607 18.5013C17.3009 18.5435 17.2523 18.5768 17.2167 18.6007C17.1989 18.6127 17.1843 18.6224 17.1731 18.6297L17.159 18.6389L17.154 18.6422L17.1519 18.6435L17.1511 18.644C17.1507 18.6443 17.1503 18.6446 16.3666 17.4246M16.3666 6.53369C15.6556 5.27001 15.6551 5.27025 15.6547 5.27049L15.6538 5.27103L15.6516 5.27224L15.6463 5.27525L15.6317 5.28363C15.6202 5.29026 15.6052 5.29896 15.5871 5.30973C15.5507 5.33124 15.5013 5.36104 15.4407 5.39889C15.3197 5.47448 15.1531 5.58286 14.9561 5.72232C14.5645 5.99945 14.0393 6.40864 13.5092 6.93757C12.4825 7.96187 11.25 9.62573 11.25 11.787C11.25 13.9235 12.4592 15.6736 13.4593 16.7762C13.9789 17.3492 14.4944 17.8049 14.8793 18.1177C15.0729 18.2749 15.2362 18.3983 15.3544 18.4845C15.4136 18.5277 15.4616 18.5617 15.4967 18.5861C15.5143 18.5984 15.5286 18.6082 15.5395 18.6156L15.5532 18.6249L15.5581 18.6282L15.56 18.6295L15.5609 18.6301C15.5612 18.6303 15.5616 18.6306 16.3666 17.4246M16.3666 17.4246L17.1503 18.6446L16.3514 19.1577L15.5616 18.6306L16.3666 17.4246Z" fill="#CCE0E5"/>
<path d="M16.3666 6.53369L17.0531 5.25651L16.3506 4.8789L15.6556 5.27001L16.3666 6.53369ZM16.3666 6.53369C17.0531 5.25651 17.0536 5.25675 17.054 5.257L17.055 5.25753L17.0573 5.25875L17.0628 5.26174L17.0778 5.26999C17.0896 5.27648 17.1048 5.28498 17.1233 5.29547C17.1603 5.31644 17.2103 5.34541 17.2715 5.38223C17.3938 5.45577 17.5618 5.56127 17.7604 5.69764C18.1549 5.9686 18.6838 6.37067 19.2175 6.89649C20.258 7.92145 21.4833 9.58554 21.4833 11.787C21.4833 13.9646 20.2804 15.7139 19.2684 16.8169C18.7456 17.3867 18.227 17.8355 17.8395 18.1422C17.6446 18.2964 17.48 18.4171 17.3607 18.5013C17.3009 18.5435 17.2523 18.5768 17.2167 18.6007C17.1989 18.6127 17.1843 18.6224 17.1731 18.6297L17.159 18.6389L17.154 18.6422L17.1519 18.6435L17.1511 18.644C17.1507 18.6443 17.1503 18.6446 16.3666 17.4246M16.3666 6.53369C15.6556 5.27001 15.6551 5.27025 15.6547 5.27049L15.6538 5.27103L15.6516 5.27224L15.6463 5.27525L15.6317 5.28363C15.6202 5.29026 15.6052 5.29896 15.5871 5.30973C15.5507 5.33124 15.5013 5.36104 15.4407 5.39889C15.3197 5.47448 15.1531 5.58286 14.9561 5.72232C14.5645 5.99945 14.0393 6.40864 13.5092 6.93757C12.4825 7.96187 11.25 9.62573 11.25 11.787C11.25 13.9235 12.4592 15.6736 13.4593 16.7762C13.9789 17.3492 14.4944 17.8049 14.8793 18.1177C15.0729 18.2749 15.2362 18.3983 15.3544 18.4845C15.4136 18.5277 15.4616 18.5617 15.4967 18.5861C15.5143 18.5984 15.5286 18.6082 15.5395 18.6156L15.5532 18.6249L15.5581 18.6282L15.56 18.6295L15.5609 18.6301C15.5612 18.6303 15.5616 18.6306 16.3666 17.4246M16.3666 17.4246L17.1503 18.6446L16.3514 19.1577L15.5616 18.6306L16.3666 17.4246Z" stroke="#C1C9F1" stroke-opacity="0.748217" stroke-width="2.9"/>
<path d="M16.3666 6.53369L17.0531 5.25651L16.3506 4.8789L15.6556 5.27001L16.3666 6.53369ZM16.3666 6.53369C17.0531 5.25651 17.0536 5.25675 17.054 5.257L17.055 5.25753L17.0573 5.25875L17.0628 5.26174L17.0778 5.26999C17.0896 5.27648 17.1048 5.28498 17.1233 5.29547C17.1603 5.31644 17.2103 5.34541 17.2715 5.38223C17.3938 5.45577 17.5618 5.56127 17.7604 5.69764C18.1549 5.9686 18.6838 6.37067 19.2175 6.89649C20.258 7.92145 21.4833 9.58554 21.4833 11.787C21.4833 13.9646 20.2804 15.7139 19.2684 16.8169C18.7456 17.3867 18.227 17.8355 17.8395 18.1422C17.6446 18.2964 17.48 18.4171 17.3607 18.5013C17.3009 18.5435 17.2523 18.5768 17.2167 18.6007C17.1989 18.6127 17.1843 18.6224 17.1731 18.6297L17.159 18.6389L17.154 18.6422L17.1519 18.6435L17.1511 18.644C17.1507 18.6443 17.1503 18.6446 16.3666 17.4246M16.3666 6.53369C15.6556 5.27001 15.6551 5.27025 15.6547 5.27049L15.6538 5.27103L15.6516 5.27224L15.6463 5.27525L15.6317 5.28363C15.6202 5.29026 15.6052 5.29896 15.5871 5.30973C15.5507 5.33124 15.5013 5.36104 15.4407 5.39889C15.3197 5.47448 15.1531 5.58286 14.9561 5.72232C14.5645 5.99945 14.0393 6.40864 13.5092 6.93757C12.4825 7.96187 11.25 9.62573 11.25 11.787C11.25 13.9235 12.4592 15.6736 13.4593 16.7762C13.9789 17.3492 14.4944 17.8049 14.8793 18.1177C15.0729 18.2749 15.2362 18.3983 15.3544 18.4845C15.4136 18.5277 15.4616 18.5617 15.4967 18.5861C15.5143 18.5984 15.5286 18.6082 15.5395 18.6156L15.5532 18.6249L15.5581 18.6282L15.56 18.6295L15.5609 18.6301C15.5612 18.6303 15.5616 18.6306 16.3666 17.4246M16.3666 17.4246L17.1503 18.6446L16.3514 19.1577L15.5616 18.6306L16.3666 17.4246Z" stroke="#C51918" stroke-width="2.9"/>
<mask id="mask2_1957_20243" style="mask-type:luminance" maskUnits="userSpaceOnUse" x="12" y="6" width="9" height="12">
<path d="M17.1315 14.8564C16.8726 15.1386 16.6119 15.3845 16.3784 15.5873C16.1399 15.3763 15.8727 15.1205 15.6073 14.8279C14.7741 13.9092 14.15 12.8405 14.15 11.787C14.15 10.7581 14.7507 9.79537 15.5574 8.99054C15.842 8.70656 16.1294 8.46578 16.3792 8.27494C16.6241 8.45787 16.9045 8.68871 17.1824 8.96241C17.9753 9.7435 18.5833 10.7061 18.5833 11.787C18.5833 12.8917 17.9528 13.9612 17.1315 14.8564Z" fill="white"/>
<path d="M17.1315 14.8564C16.8726 15.1386 16.6119 15.3845 16.3784 15.5873C16.1399 15.3763 15.8727 15.1205 15.6073 14.8279C14.7741 13.9092 14.15 12.8405 14.15 11.787C14.15 10.7581 14.7507 9.79537 15.5574 8.99054C15.842 8.70656 16.1294 8.46578 16.3792 8.27494C16.6241 8.45787 16.9045 8.68871 17.1824 8.96241C17.9753 9.7435 18.5833 10.7061 18.5833 11.787C18.5833 12.8917 17.9528 13.9612 17.1315 14.8564Z" stroke="white" stroke-width="2.9"/>
</mask>
<g mask="url(#mask2_1957_20243)">
<rect x="13.1888" y="13.8334" width="6.84444" height="1.375" fill="#91CBCB"/>
<path fill-rule="evenodd" clip-rule="evenodd" d="M13.8016 14.9314C13.8016 14.9314 18.6545 14.9331 19.1005 14.7657C19.5466 14.5982 18.2632 17.9809 16.6234 17.9809C14.9837 17.9809 13.8016 14.9314 13.8016 14.9314Z" fill="#FDF9A1"/>
<path d="M18.3775 14.5255L17.5057 15.1963C16.1317 13.4108 15.5554 11.5636 15.8014 9.67847L16.8921 9.8208C16.6861 11.3998 17.173 12.9602 18.3775 14.5255Z" fill="#A68861"/>
<path fill-rule="evenodd" clip-rule="evenodd" d="M16.3609 9.83363L15.5404 10.7951C15.5063 10.835 15.4416 10.8022 15.4537 10.7512L15.7358 9.55283H14.4546C14.4005 9.55283 14.385 9.47877 14.4346 9.45704L15.5281 8.97763L14.7479 7.94908C14.7174 7.90888 14.7589 7.85395 14.8059 7.87227L16.033 8.35063L16.3122 7.22713C16.3248 7.17651 16.3968 7.17655 16.4093 7.22719L16.6871 8.35063L17.9023 7.87749C17.9503 7.8588 17.9918 7.91613 17.959 7.95588L17.117 8.97763L18.2735 9.45663C18.324 9.47757 18.3091 9.55283 18.2544 9.55283H17.117L17.2913 10.7818C17.2983 10.8313 17.2362 10.8593 17.2037 10.8212L16.3609 9.83363Z" fill="#239E46"/>
<path fill-rule="evenodd" clip-rule="evenodd" d="M15.6333 12.9167H20.0333V13.8792H15.6333V12.9167Z" fill="#239E46"/>
</g>
</g>
</g>
</svg>
