<svg width="32" height="24" viewBox="0 0 32 24" fill="none" xmlns="http://www.w3.org/2000/svg">
<mask id="mask0_1957_20334" style="mask-type:luminance" maskUnits="userSpaceOnUse" x="0" y="0" width="32" height="24">
<rect width="32" height="24" fill="white"/>
</mask>
<g mask="url(#mask0_1957_20334)">
<path fill-rule="evenodd" clip-rule="evenodd" d="M0 0V24H32V0H0Z" fill="#F7FCFF"/>
<mask id="mask1_1957_20334" style="mask-type:luminance" maskUnits="userSpaceOnUse" x="0" y="0" width="32" height="24">
<path fill-rule="evenodd" clip-rule="evenodd" d="M0 0V24H32V0H0Z" fill="white"/>
</mask>
<g mask="url(#mask1_1957_20334)">
<path fill-rule="evenodd" clip-rule="evenodd" d="M0 0V8H32V0H0Z" fill="#E31D1C"/>
<path fill-rule="evenodd" clip-rule="evenodd" d="M0 16V24H32V16H0Z" fill="#3D58DB"/>
<rect x="12.5762" y="8.58899" width="7.78537" height="2.73171" fill="#E31D1C"/>
<path d="M13.1492 10.5173H19.7115C19.7204 11.0518 19.7233 11.8677 19.7232 12.6621C19.7232 13.2313 19.7217 13.7794 19.7202 14.1852C19.7194 14.3881 19.7187 14.5554 19.7181 14.6719L19.7175 14.8067L19.7174 14.8116C19.7146 14.8276 19.7105 14.8496 19.7048 14.8771C19.6901 14.9473 19.665 15.0519 19.6249 15.1794C19.5441 15.4359 19.4055 15.775 19.1755 16.1108C18.7309 16.7599 17.9224 17.4375 16.3823 17.4375C14.8455 17.4375 14.0806 16.762 13.6745 16.1234C13.4628 15.7906 13.3411 15.4536 13.2728 15.1977C13.239 15.0707 13.219 14.9664 13.2077 14.8964C13.2021 14.8615 13.1987 14.8354 13.1968 14.8195L13.1966 14.818L13.1963 14.7965L13.1947 14.6625L13.1889 14.1786C13.1841 13.7751 13.1777 13.2298 13.1713 12.6623C13.1625 11.8843 13.1538 11.0678 13.1492 10.5173Z" fill="#F7FCFF" stroke="#E31D1C" stroke-width="1.125"/>
<mask id="mask2_1957_20334" style="mask-type:luminance" maskUnits="userSpaceOnUse" x="12" y="9" width="9" height="9">
<path d="M13.1492 10.5173H19.7115C19.7204 11.0518 19.7233 11.8677 19.7232 12.6621C19.7232 13.2313 19.7217 13.7794 19.7202 14.1852C19.7194 14.3881 19.7187 14.5554 19.7181 14.6719L19.7175 14.8067L19.7174 14.8116C19.7146 14.8276 19.7105 14.8496 19.7048 14.8771C19.6901 14.9473 19.665 15.0519 19.6249 15.1794C19.5441 15.4359 19.4055 15.775 19.1755 16.1108C18.7309 16.7599 17.9224 17.4375 16.3823 17.4375C14.8455 17.4375 14.0806 16.762 13.6745 16.1234C13.4628 15.7906 13.3411 15.4536 13.2728 15.1977C13.239 15.0707 13.219 14.9664 13.2077 14.8964C13.2021 14.8615 13.1987 14.8354 13.1968 14.8195L13.1966 14.818L13.1963 14.7965L13.1947 14.6625L13.1889 14.1786C13.1841 13.7751 13.1777 13.2298 13.1713 12.6623C13.1625 11.8843 13.1538 11.0678 13.1492 10.5173Z" fill="white" stroke="white" stroke-width="1.125"/>
</mask>
<g mask="url(#mask2_1957_20334)">
<path fill-rule="evenodd" clip-rule="evenodd" d="M12.8644 10.3937H14.305V11.8564H15.7455V10.3937H17.186V11.8564H18.6266L18.6266 10.3937H20.0671V11.8564H18.6266L18.6266 13.3192H17.186V11.8564H15.7455V13.3192H14.3049V11.8564H12.8644V10.3937ZM15.7455 14.7819H14.3049V13.3192H12.8644V14.782H14.3049V16.2447H15.7455V14.782H17.186V16.2447H18.6266L18.6266 14.782H20.0671V13.3192H18.6266L18.6266 14.7819H17.186V13.3192H15.7455V14.7819ZM20.0671 16.2447H18.6266V17.7075H20.0671V16.2447ZM15.7455 16.2447H17.186V17.7075H15.7455V16.2447ZM14.3049 16.2447H12.8644V17.7075H14.3049V16.2447Z" fill="#E31D1C"/>
</g>
<path fill-rule="evenodd" clip-rule="evenodd" d="M12.8333 9.79449C12.8333 9.79449 13.2789 9.5565 13.6589 9.43384C14.039 9.31119 14.3394 9.24418 14.3394 9.24418L13.7739 7.15982L12.6414 6.73669L12 7.79393L12.8333 9.79449Z" fill="#56C6F5" stroke="white" stroke-width="0.5"/>
<path fill-rule="evenodd" clip-rule="evenodd" d="M15.6249 9.0523C15.6249 9.0523 16.0049 9.01838 16.4042 9.02614C16.8035 9.0339 17.1412 9.03674 17.1412 9.03674L17.3362 6.98148L16.481 6.20882L15.5303 6.99964L15.6249 9.0523Z" fill="#56C6F5" stroke="white" stroke-width="0.5"/>
<path d="M14.0682 9.26894L14.1402 9.51363L14.3834 9.4367L14.3834 9.4367L14.3834 9.4367L14.3834 9.43669L14.3835 9.43665L14.3843 9.43641L14.3876 9.43536L14.4013 9.43113L14.4529 9.41541C14.497 9.40217 14.5585 9.38414 14.628 9.36502C14.7704 9.32582 14.9334 9.28562 15.0488 9.26959C15.1724 9.25242 15.3278 9.2397 15.4557 9.23124C15.5189 9.22705 15.5741 9.22399 15.6134 9.22198L15.6592 9.21975L15.6713 9.21922L15.6743 9.21909L15.675 9.21906L15.6752 9.21905L15.6752 9.21905L15.6752 9.21905H15.6752L15.9365 9.20832L15.914 8.94778L15.7417 6.95061L15.7317 6.83529L15.6374 6.76827L14.7067 6.10733L14.5314 5.98279L14.382 6.13759L13.5363 7.01441L13.4353 7.11908L13.4764 7.25858L14.0682 9.26894Z" fill="#2E42A5" stroke="white" stroke-width="0.5"/>
<mask id="mask3_1957_20334" style="mask-type:luminance" maskUnits="userSpaceOnUse" x="13" y="5" width="4" height="5">
<path d="M14.0682 9.26894L14.1402 9.51363L14.3834 9.4367L14.3834 9.4367L14.3834 9.4367L14.3834 9.43669L14.3835 9.43665L14.3843 9.43641L14.3876 9.43536L14.4013 9.43113L14.4529 9.41541C14.497 9.40217 14.5585 9.38414 14.628 9.36502C14.7704 9.32582 14.9334 9.28562 15.0488 9.26959C15.1724 9.25242 15.3278 9.2397 15.4557 9.23124C15.5189 9.22705 15.5741 9.22399 15.6134 9.22198L15.6592 9.21975L15.6713 9.21922L15.6743 9.21909L15.675 9.21906L15.6752 9.21905L15.6752 9.21905L15.6752 9.21905H15.6752L15.9365 9.20832L15.914 8.94778L15.7417 6.95061L15.7317 6.83529L15.6374 6.76827L14.7067 6.10733L14.5314 5.98279L14.382 6.13759L13.5363 7.01441L13.4353 7.11908L13.4764 7.25858L14.0682 9.26894Z" fill="white" stroke="white" stroke-width="0.5"/>
</mask>
<g mask="url(#mask3_1957_20334)">
</g>
<path d="M18.7719 9.26348L18.7039 9.5154L18.4551 9.4367L18.4551 9.4367L18.4551 9.4367L18.4551 9.43669L18.455 9.43665L18.4542 9.43641L18.4509 9.43536L18.4372 9.43113L18.3856 9.41541C18.3415 9.40217 18.28 9.38414 18.2105 9.36502C18.0681 9.32582 17.9051 9.28562 17.7897 9.26959C17.6661 9.25242 17.5107 9.2397 17.3828 9.23124C17.3196 9.22705 17.2644 9.22399 17.2251 9.22198L17.1793 9.21975L17.1672 9.21922L17.1642 9.21909L17.1635 9.21906L17.1633 9.21905L17.1633 9.21905L17.1633 9.21905H17.1633L16.902 9.20832L16.9245 8.94778L17.0968 6.95061L17.1068 6.83529L17.2011 6.76827L18.1318 6.10733L18.3121 5.97929L18.4612 6.1426L19.2586 7.01611L19.3511 7.1174L19.3153 7.24981L18.7719 9.26348Z" fill="#2E42A5" stroke="white" stroke-width="0.5"/>
<mask id="mask4_1957_20334" style="mask-type:luminance" maskUnits="userSpaceOnUse" x="16" y="5" width="4" height="5">
<path d="M18.7719 9.26348L18.7039 9.5154L18.4551 9.4367L18.4551 9.4367L18.4551 9.4367L18.4551 9.43669L18.455 9.43665L18.4542 9.43641L18.4509 9.43536L18.4372 9.43113L18.3856 9.41541C18.3415 9.40217 18.28 9.38414 18.2105 9.36502C18.0681 9.32582 17.9051 9.28562 17.7897 9.26959C17.6661 9.25242 17.5107 9.2397 17.3828 9.23124C17.3196 9.22705 17.2644 9.22399 17.2251 9.22198L17.1793 9.21975L17.1672 9.21922L17.1642 9.21909L17.1635 9.21906L17.1633 9.21905L17.1633 9.21905L17.1633 9.21905H17.1633L16.902 9.20832L16.9245 8.94778L17.0968 6.95061L17.1068 6.83529L17.2011 6.76827L18.1318 6.10733L18.3121 5.97929L18.4612 6.1426L19.2586 7.01611L19.3511 7.1174L19.3153 7.24981L18.7719 9.26348Z" fill="white" stroke="white" stroke-width="0.5"/>
</mask>
<g mask="url(#mask4_1957_20334)">
</g>
<path d="M20.3495 9.84198L20.2415 10.0907L20.0024 9.96299L20.0024 9.96298L20.0024 9.96296L20.0023 9.96292L20.0016 9.96254L19.9983 9.9608L19.9846 9.95361C19.9724 9.94725 19.9544 9.93791 19.9314 9.92625C19.8854 9.90291 19.8201 9.87046 19.7434 9.8343C19.588 9.76116 19.3928 9.67621 19.2178 9.61972C19.0332 9.56015 18.8677 9.51403 18.7485 9.48283C18.689 9.46725 18.6412 9.45545 18.6086 9.4476L18.5714 9.43882L18.5622 9.43671L18.5601 9.43623L18.5597 9.43614L18.5597 9.43614L18.5597 9.43613L18.5597 9.43613L18.5596 9.43612L18.3013 9.37848L18.3737 9.12377L18.9514 7.09146L18.986 6.96987L19.1044 6.92563L20.2369 6.50251L20.4308 6.43007L20.5381 6.60702L21.1796 7.66426L21.2466 7.77483L21.1952 7.89347L20.3495 9.84198Z" fill="#56C6F5" stroke="white" stroke-width="0.5"/>
<mask id="mask5_1957_20334" style="mask-type:luminance" maskUnits="userSpaceOnUse" x="17" y="6" width="5" height="5">
<path d="M20.3495 9.84198L20.2415 10.0907L20.0024 9.96299L20.0024 9.96298L20.0024 9.96296L20.0023 9.96292L20.0016 9.96254L19.9983 9.9608L19.9846 9.95361C19.9724 9.94725 19.9544 9.93791 19.9314 9.92625C19.8854 9.90291 19.8201 9.87046 19.7434 9.8343C19.588 9.76116 19.3928 9.67621 19.2178 9.61972C19.0332 9.56015 18.8677 9.51403 18.7485 9.48283C18.689 9.46725 18.6412 9.45545 18.6086 9.4476L18.5714 9.43882L18.5622 9.43671L18.5601 9.43623L18.5597 9.43614L18.5597 9.43614L18.5597 9.43613L18.5597 9.43613L18.5596 9.43612L18.3013 9.37848L18.3737 9.12377L18.9514 7.09146L18.986 6.96987L19.1044 6.92563L20.2369 6.50251L20.4308 6.43007L20.5381 6.60702L21.1796 7.66426L21.2466 7.77483L21.1952 7.89347L20.3495 9.84198Z" fill="white" stroke="white" stroke-width="0.5"/>
</mask>
<g mask="url(#mask5_1957_20334)">
</g>
</g>
</g>
</svg>
