<svg width="32" height="24" viewBox="0 0 32 24" fill="none" xmlns="http://www.w3.org/2000/svg">
<mask id="mask0_1957_20251" style="mask-type:luminance" maskUnits="userSpaceOnUse" x="0" y="0" width="32" height="24">
<rect width="32" height="24" fill="white"/>
</mask>
<g mask="url(#mask0_1957_20251)">
<path fill-rule="evenodd" clip-rule="evenodd" d="M0 0V24H32V0H0Z" fill="#E31D1C"/>
<mask id="mask1_1957_20251" style="mask-type:luminance" maskUnits="userSpaceOnUse" x="0" y="0" width="32" height="24">
<path fill-rule="evenodd" clip-rule="evenodd" d="M0 0V24H32V0H0Z" fill="white"/>
</mask>
<g mask="url(#mask1_1957_20251)">
<path fill-rule="evenodd" clip-rule="evenodd" d="M9.02286 6.4182C9.01285 6.3259 9.12307 6.28109 9.18626 6.34911C9.53589 6.72543 10.3113 7.50006 10.7699 7.50006C11.3756 7.50006 13.7545 5.49556 14.4577 5.8221C15.1608 6.14863 16.5845 9.56273 16.5845 9.56273L15.6567 10.7264L14.4577 10.0723L14.2311 7.50006C14.2311 7.50006 11.9231 8.68718 10.7699 8.25628L10.1217 8.80099C10.1217 8.80099 9.4974 7.56485 9.25157 7.18676C9.10688 6.96423 9.04735 6.64401 9.02286 6.4182Z" fill="#F7FCFF"/>
<path fill-rule="evenodd" clip-rule="evenodd" d="M10.5443 9.14774L10.1495 9.38691L10.2249 8.88035L9.90555 8.5216L10.3469 8.4477L10.5443 7.98682L10.7416 8.4477L11.183 8.5216L10.8636 8.88035L10.939 9.38691L10.5443 9.14774Z" fill="#FECA00"/>
<path fill-rule="evenodd" clip-rule="evenodd" d="M13.8943 6.09268C13.8943 5.95143 14.0088 5.83691 14.1501 5.83691C14.2913 5.83691 14.4058 5.95143 14.4058 6.09268V7.30104C14.4058 7.44229 14.2913 7.5568 14.1501 7.5568C14.0088 7.5568 13.8943 7.44229 13.8943 7.30103L13.8943 6.09268Z" fill="#FECA00"/>
<path fill-rule="evenodd" clip-rule="evenodd" d="M22.4311 6.98194C22.5147 7.02236 22.4943 7.13958 22.4031 7.15713C21.8987 7.25422 20.8309 7.5013 20.5878 7.89022C20.2668 8.40391 20.7061 11.4836 20.0566 11.9068C19.4071 12.3301 15.7573 11.7282 15.7573 11.7282L15.2621 10.3248L16.4522 9.65455L18.7537 10.8255C18.7537 10.8255 18.97 8.23907 19.9465 7.48948L19.8281 6.6511C19.8281 6.6511 21.2072 6.77674 21.6581 6.76862C21.9235 6.76384 22.2266 6.88305 22.4311 6.98194Z" fill="#F7FCFF"/>
<path fill-rule="evenodd" clip-rule="evenodd" d="M19.3101 6.82567L19.3165 6.36417L19.7061 6.69654L20.1796 6.61582L20.0084 7.02926L20.2946 7.44087L19.7992 7.36402L19.5026 7.69913L19.3676 7.23819L18.8981 7.03369L19.3101 6.82567Z" fill="#FECA00"/>
<path fill-rule="evenodd" clip-rule="evenodd" d="M20.1712 11.3199C20.2979 11.3985 20.3394 11.5633 20.2651 11.6925C20.1854 11.8311 20.005 11.8734 19.8721 11.7846L18.7801 11.0552C18.6821 10.9898 18.6419 10.8656 18.683 10.7552C18.7391 10.6047 18.9188 10.5432 19.0553 10.6278L20.1712 11.3199Z" fill="#FECA00"/>
<path fill-rule="evenodd" clip-rule="evenodd" d="M15.2653 18.1714C15.1885 18.2236 15.0972 18.1473 15.1276 18.0596C15.2957 17.5742 15.6157 16.5259 15.4004 16.121C15.116 15.5861 12.2293 14.4268 12.1875 13.6526C12.1457 12.8785 14.4918 10.0186 14.4918 10.0186L15.9548 10.2915L15.9402 11.6573L13.7754 13.0649C13.7754 13.0649 15.9071 14.5455 16.0681 15.766L16.8533 16.0826C16.8533 16.0826 16.055 17.2141 15.8365 17.6087C15.708 17.8409 15.4532 18.0438 15.2653 18.1714Z" fill="#F7FCFF"/>
<path fill-rule="evenodd" clip-rule="evenodd" d="M16.9611 15.5466L17.3576 15.7828L16.8749 15.9541L16.7081 16.4045L16.4357 16.0495L15.9361 16.0916L16.2503 15.701L16.1084 15.2766L16.5751 15.3901L16.9869 15.0858L16.9611 15.5466Z" fill="#FECA00"/>
<path fill-rule="evenodd" clip-rule="evenodd" d="M12.548 13.9659C12.3907 14.0259 12.2158 13.9381 12.17 13.7761C12.1298 13.6341 12.2041 13.4848 12.3416 13.4311L13.518 12.972C13.6487 12.921 13.7972 12.9704 13.8713 13.0896C13.968 13.2451 13.8989 13.4503 13.7278 13.5156L12.548 13.9659Z" fill="#FECA00"/>
<path d="M14.3526 10.3046C14.2649 10.2739 14.218 10.1762 14.2479 10.0863C14.2779 9.99636 14.4185 9.8462 14.5062 9.87686L15.7302 10.3046C15.7934 10.3266 15.8378 10.3849 15.8433 10.453L15.9528 11.7955C15.9605 11.8902 15.8226 11.9668 15.7302 11.9747C15.6378 11.9826 15.5567 11.9123 15.5489 11.8176L15.4476 10.6631L14.3526 10.3046Z" fill="#FECA00"/>
<path d="M16.4808 9.60128C16.554 9.54292 16.6846 9.61056 16.7416 9.68551C16.7985 9.76045 16.7854 9.86852 16.7122 9.92688L15.8643 10.7959C15.7912 10.8543 15.6266 10.7404 15.5697 10.6655C15.5127 10.5906 15.4965 10.3864 15.5697 10.328L16.4808 9.60128Z" fill="#FECA00"/>
</g>
</g>
</svg>
