<svg width="32" height="24" viewBox="0 0 32 24" fill="none" xmlns="http://www.w3.org/2000/svg">
<mask id="mask0_1957_20255" style="mask-type:luminance" maskUnits="userSpaceOnUse" x="0" y="0" width="32" height="24">
<rect width="32" height="24" fill="white"/>
</mask>
<g mask="url(#mask0_1957_20255)">
<path fill-rule="evenodd" clip-rule="evenodd" d="M0 0V24H32V0H0Z" fill="#F7FCFF"/>
<mask id="mask1_1957_20255" style="mask-type:luminance" maskUnits="userSpaceOnUse" x="0" y="0" width="32" height="24">
<path fill-rule="evenodd" clip-rule="evenodd" d="M0 0V24H32V0H0Z" fill="white"/>
</mask>
<g mask="url(#mask1_1957_20255)">
<path fill-rule="evenodd" clip-rule="evenodd" d="M0 0V8H32V0H0Z" fill="#FF8C1A"/>
<path fill-rule="evenodd" clip-rule="evenodd" d="M0 16V24H32V16H0Z" fill="#5EAA22"/>
<path fill-rule="evenodd" clip-rule="evenodd" d="M13 12C13 13.6569 14.3431 15 16 15C17.6569 15 19 13.6569 19 12C19 10.3431 17.6569 9 16 9C14.3431 9 13 10.3431 13 12ZM18.25 12C18.25 13.2426 17.2426 14.25 16 14.25C14.7574 14.25 13.75 13.2426 13.75 12C13.75 10.7574 14.7574 9.75 16 9.75C17.2426 9.75 18.25 10.7574 18.25 12Z" fill="#3D58DB"/>
<path fill-rule="evenodd" clip-rule="evenodd" d="M15.9958 12.6455L15.5677 14.986L15.8163 12.6197L14.7461 14.7447L15.6513 12.5444L14.0258 14.2818L15.5142 12.4256L13.4651 13.6347L15.4162 12.273L13.1094 12.8558L15.3651 12.099L12.9875 12.0083L15.3651 11.9176L13.1094 11.1608L15.4162 11.7436L13.4651 10.3819L15.5142 11.591L14.0258 9.73477L15.6513 11.4722L14.7461 9.27185L15.8163 11.3969L15.5677 9.03062L15.9958 11.371L16.424 9.03062L16.1754 11.3969L17.2455 9.27185L16.3404 11.4722L17.9658 9.73477L16.4774 11.591L18.5266 10.3819L16.5755 11.7436L18.8823 11.1608L16.6266 11.9176L19.0041 12.0083L16.6266 12.099L18.8823 12.8558L16.5755 12.273L18.5266 13.6347L16.4774 12.4256L17.9658 14.2818L16.3404 12.5444L17.2455 14.7447L16.1754 12.6197L16.424 14.986L15.9958 12.6455Z" fill="#3D58DB"/>
</g>
</g>
</svg>
