<svg width="32" height="24" viewBox="0 0 32 24" fill="none" xmlns="http://www.w3.org/2000/svg">
<mask id="mask0_1957_20231" style="mask-type:luminance" maskUnits="userSpaceOnUse" x="0" y="0" width="32" height="24">
<rect width="32" height="24" fill="white"/>
</mask>
<g mask="url(#mask0_1957_20231)">
<path fill-rule="evenodd" clip-rule="evenodd" d="M0 0V24H32V0H0Z" fill="#F7FCFF"/>
<mask id="mask1_1957_20231" style="mask-type:luminance" maskUnits="userSpaceOnUse" x="0" y="0" width="32" height="24">
<path fill-rule="evenodd" clip-rule="evenodd" d="M0 0V24H32V0H0Z" fill="white"/>
</mask>
<g mask="url(#mask1_1957_20231)">
<path fill-rule="evenodd" clip-rule="evenodd" d="M0 0V8H32V0H0Z" fill="#BF2714"/>
<path fill-rule="evenodd" clip-rule="evenodd" d="M0 16V24H32V16H0Z" fill="#292B2E"/>
<path fill-rule="evenodd" clip-rule="evenodd" d="M9.22442 12.5408C9.83082 13.4111 9 14 9 14C9 14 9.72633 14 10.0045 13.4171H15.9494V12.1332C15.9494 12.1332 15.8251 11.5167 15.2957 11.5167C14.7663 11.5167 14.6471 12.1332 14.6471 12.1332H12.5561L14.5792 10.3472L14.1859 10L11.9387 11.9837V12.4043H15.1287V12.1567C15.1287 12.1567 15.1467 12.0134 15.2957 12.0134C15.4448 12.0134 15.4085 12.1567 15.4085 12.1567V12.6856H11.3884V11.9625L10.9531 12.1567V12.6856C10.9531 12.6856 10.42 12.5408 10.0831 12.5408C9.7462 12.5408 9.72633 12.1567 9.72633 12.1567L9.22442 12.5408ZM17.2977 12.5902L17.6237 13.402H16.3264V10.1429L16.8736 10.3181V12.5902H17.2977ZM23.3407 12.5902L23.6667 13.402H22.3694V10.1429L22.9166 10.3181V12.5902H23.3407ZM21.7343 10.1767L21.3963 10.4055V12.588H21.052V10.8376L20.4848 11.1646V12.588H20.1041V11.5997L19.673 11.8772V12.1455C19.673 12.1455 18.8436 12.2027 18.8436 13.3753H21.731L21.7343 10.1767ZM10.6612 13.9771C10.7655 13.9771 10.85 13.9025 10.85 13.8104C10.85 13.7184 10.7655 13.6437 10.6612 13.6437C10.5569 13.6437 10.4723 13.7184 10.4723 13.8104C10.4723 13.9025 10.5569 13.9771 10.6612 13.9771ZM20.2763 10.4278C20.1297 10.621 19.6847 10.4278 19.6847 10.4278L20.9465 10.2816C20.8162 10.536 20.2763 10.4278 20.2763 10.4278Z" fill="#009C4E"/>
</g>
</g>
</svg>
