<svg width="32" height="24" viewBox="0 0 32 24" fill="none" xmlns="http://www.w3.org/2000/svg">
<mask id="mask0_1957_20417" style="mask-type:luminance" maskUnits="userSpaceOnUse" x="0" y="0" width="32" height="24">
<rect width="32" height="24" fill="white"/>
</mask>
<g mask="url(#mask0_1957_20417)">
<path fill-rule="evenodd" clip-rule="evenodd" d="M0 0V8H32V0H0Z" fill="#292B2E"/>
<path fill-rule="evenodd" clip-rule="evenodd" d="M0 16V24H32V16H0Z" fill="#4E8B1D"/>
<path d="M0 7H-1V8V16V17H0H32H33V16V8V7H32H0Z" fill="#E31D1C" stroke="#F7FCFF" stroke-width="2"/>
</g>
<path d="M18.4156 5.45481C18.5679 5.14265 18.9772 4.80178 19.6436 4.43219C19.6665 4.41949 19.6942 4.41876 19.7177 4.43024C19.7575 4.44967 19.7741 4.4977 19.7544 4.53743L12.8494 18.6948L12.4899 18.5195L18.5766 6.03984C18.301 5.99494 18.2473 5.79993 18.4156 5.45481Z" fill="white"/>
<path d="M13.577 5.45481C13.7453 5.79993 13.6917 5.99494 13.4161 6.03984L19.5028 18.5195L19.1433 18.6948L12.2383 4.53743C12.2186 4.4977 12.2352 4.44967 12.275 4.43024C12.2985 4.41876 12.3262 4.41949 12.3491 4.43219C13.0155 4.80178 13.4248 5.14265 13.577 5.45481Z" fill="white"/>
<path fill-rule="evenodd" clip-rule="evenodd" d="M16 18.3117C16.7974 18.3117 20 15.4463 20 11.9117C20 8.3771 16.7974 5.51172 16 5.51172C15.2026 5.51172 12 8.3771 12 11.9117C12 15.4463 15.2026 18.3117 16 18.3117Z" fill="#E31D1C"/>
<mask id="mask1_1957_20417" style="mask-type:luminance" maskUnits="userSpaceOnUse" x="12" y="5" width="8" height="14">
<path fill-rule="evenodd" clip-rule="evenodd" d="M16 18.3117C16.7974 18.3117 20 15.4463 20 11.9117C20 8.3771 16.7974 5.51172 16 5.51172C15.2026 5.51172 12 8.3771 12 11.9117C12 15.4463 15.2026 18.3117 16 18.3117Z" fill="white"/>
</mask>
<g mask="url(#mask1_1957_20417)">
<path d="M8.40005 17.5118C11.4928 17.5118 14 15.0046 14 11.9118C14 8.81897 11.4928 6.31177 8.40005 6.31177C5.30725 6.31177 2.80005 8.81897 2.80005 11.9118C2.80005 15.0046 5.30725 17.5118 8.40005 17.5118Z" fill="#292B2E"/>
<path d="M23.6 17.5118C26.6928 17.5118 29.2 15.0046 29.2 11.9118C29.2 8.81897 26.6928 6.31177 23.6 6.31177C20.5072 6.31177 18 8.81897 18 11.9118C18 15.0046 20.5072 17.5118 23.6 17.5118Z" fill="#292B2E"/>
<path fill-rule="evenodd" clip-rule="evenodd" d="M16.1599 11.0557C16.5251 10.7963 16.8 9.66631 16.8 8.31164C16.8 6.95698 16.5251 5.82701 16.1599 5.56763V11.0557ZM15.7599 10.9834C15.4354 10.6266 15.2 9.56533 15.2 8.31164C15.2 7.05796 15.4354 5.99671 15.7599 5.63987V10.9834ZM15.7599 12.84V18.1835C15.4354 17.8266 15.2 16.7654 15.2 15.5117C15.2 14.2581 15.4354 13.1969 15.7599 12.84ZM16.1599 18.2558V12.7677C16.5251 13.027 16.8 14.157 16.8 15.5117C16.8 16.8665 16.5251 17.9965 16.1599 18.2558Z" fill="#F7FCFF"/>
<path d="M16 11.1117C16.4418 11.1117 16.8 11.4698 16.8 11.9117C16.8 12.3535 16.4418 12.7117 16 12.7117C15.5581 12.7117 15.2 12.3535 15.2 11.9117C15.2 11.4698 15.5581 11.1117 16 11.1117Z" fill="#F7FCFF"/>
</g>
</svg>
