<svg width="32" height="24" viewBox="0 0 32 24" fill="none" xmlns="http://www.w3.org/2000/svg">
<mask id="mask0_1957_20404" style="mask-type:luminance" maskUnits="userSpaceOnUse" x="0" y="0" width="32" height="24">
<rect width="32" height="24" fill="white"/>
</mask>
<g mask="url(#mask0_1957_20404)">
<path fill-rule="evenodd" clip-rule="evenodd" d="M0 0V24H32V0H0Z" fill="#E31D1C"/>
<mask id="mask1_1957_20404" style="mask-type:luminance" maskUnits="userSpaceOnUse" x="0" y="0" width="32" height="24">
<path fill-rule="evenodd" clip-rule="evenodd" d="M0 0V24H32V0H0Z" fill="white"/>
</mask>
<g mask="url(#mask1_1957_20404)">
<path fill-rule="evenodd" clip-rule="evenodd" d="M16.0092 9.96073C16.0258 9.96223 16.0424 9.96386 16.059 9.9656C16.1161 9.7696 16.2173 9.44819 16.3471 9.14424C16.5529 8.66217 17.1475 8.39157 17.1475 8.39157C17.1475 8.39157 16.8537 8.72299 16.7765 9.24824C16.7293 9.5691 16.7127 9.89532 16.7069 10.1006L16.7482 10.114C16.8518 9.9369 17.0249 9.65524 17.2207 9.39656C17.537 8.97861 18.1794 8.85989 18.1794 8.85989C18.1794 8.85989 17.8142 9.11038 17.6122 9.60135C17.4949 9.88637 17.4033 10.1828 17.347 10.3813C17.3676 10.3931 17.3881 10.4051 17.4084 10.4173C17.5506 10.2676 17.7723 10.0447 18.0093 9.84666C18.4115 9.51058 19.0641 9.53941 19.0641 9.53941C19.0641 9.53941 18.6519 9.70131 18.3446 10.1343C18.1761 10.3718 18.0275 10.6244 17.9277 10.804C17.9496 10.8239 17.9713 10.8442 17.9927 10.8648C18.1648 10.752 18.4146 10.5969 18.6726 10.4662C19.1401 10.2292 19.7696 10.4041 19.7696 10.4041C19.7696 10.4041 19.3314 10.4691 18.9347 10.8218C18.7319 11.0021 18.5431 11.199 18.4069 11.3485C18.4257 11.3753 18.4441 11.4025 18.4621 11.4299C18.6539 11.364 18.9159 11.2813 19.1797 11.221C19.6906 11.1042 20.259 11.4262 20.259 11.4262C20.259 11.4262 19.8182 11.3833 19.3479 11.6295C19.1282 11.7446 18.9164 11.8759 18.7531 11.9833C18.7701 12.0249 18.7862 12.0669 18.8015 12.1094C18.9967 12.0902 19.2469 12.0722 19.4944 12.0727C20.0186 12.0738 20.5 12.5154 20.5 12.5154C20.5 12.5154 20.0801 12.3744 19.5664 12.5086C19.3459 12.5662 19.1288 12.6387 18.9529 12.7027C18.961 12.7549 18.9679 12.8075 18.9735 12.8605C19.159 12.8857 19.3845 12.9224 19.6043 12.9736C20.1148 13.0926 20.4845 13.6312 20.4845 13.6312C20.4845 13.6312 20.1071 13.3994 19.5765 13.4146C19.3673 13.4205 19.1581 13.4394 18.9815 13.4601C18.9769 13.5178 18.9709 13.575 18.9634 13.6317C19.1289 13.6987 19.3221 13.7828 19.5075 13.8778C19.9741 14.1168 20.2025 14.7288 20.2025 14.7288C20.2025 14.7288 19.8924 14.4126 19.3738 14.2989C19.1876 14.2581 18.9988 14.2277 18.8333 14.2055C18.8122 14.2702 18.7891 14.3341 18.7641 14.397C18.9012 14.4942 19.0554 14.6097 19.2012 14.7326C19.602 15.0703 19.687 15.7181 19.687 15.7181C19.687 15.7181 19.4559 15.3402 18.9762 15.1128C18.816 15.0368 18.6516 14.9691 18.5037 14.9127C18.4647 14.9752 18.4237 15.0364 18.3807 15.0961C18.4858 15.2153 18.6003 15.352 18.7063 15.4934C19.0209 15.9127 18.9579 16.5629 18.9579 16.5629C18.9579 16.5629 18.8178 16.1427 18.4015 15.8132C18.2705 15.7095 18.1341 15.6121 18.0088 15.5273C17.9548 15.5799 17.899 15.6306 17.8414 15.6795C17.9116 15.8156 17.9855 15.9686 18.051 16.1238C18.2548 16.6067 18.0364 17.2224 18.0364 17.2224C18.0364 17.2224 18.0021 16.7808 17.6779 16.3604C17.5812 16.2351 17.4786 16.1141 17.3821 16.006C17.3123 16.0471 17.2408 16.0857 17.1678 16.1217C17.2038 16.265 17.2393 16.4232 17.2669 16.5817C17.3568 17.0981 17.0055 17.6489 17.0055 17.6489C17.0055 17.6489 17.0715 17.2109 16.8501 16.7283C16.7857 16.5878 16.7148 16.4501 16.6466 16.3254C16.5676 16.3488 16.4873 16.3693 16.4058 16.3867C16.4084 16.5315 16.4073 16.6897 16.3987 16.8464C16.3702 17.3698 15.904 17.8274 15.904 17.8274C15.904 17.8274 16.0668 17.4155 15.9597 16.8955C15.9285 16.7442 15.8904 16.5941 15.852 16.4573C15.8044 16.4594 15.7564 16.4604 15.7082 16.4604C15.6756 16.4604 15.6431 16.4599 15.6107 16.459C15.5779 16.6014 15.5382 16.7564 15.4915 16.9081C15.3372 17.409 14.7741 17.7403 14.7741 17.7403C14.7741 17.7403 15.0317 17.38 15.0536 16.8495C15.06 16.6943 15.0593 16.5386 15.0551 16.3959C14.9744 16.3798 14.8947 16.3607 14.8163 16.3388C14.7518 16.4716 14.6772 16.6157 14.5965 16.7548C14.3335 17.2082 13.7103 17.4043 13.7103 17.4043C13.7103 17.4043 14.0424 17.1112 14.183 16.5993C14.2258 16.4437 14.2612 16.2859 14.2897 16.1416C14.2179 16.1074 14.1475 16.0707 14.0787 16.0316C13.9836 16.1499 13.8751 16.278 13.7613 16.3996C13.403 16.7821 12.7517 16.8331 12.7517 16.8331C12.7517 16.8331 13.1412 16.6221 13.3934 16.155C13.4745 16.0046 13.5482 15.85 13.6109 15.7094C13.5548 15.6632 13.5002 15.6151 13.4474 15.5653C13.3207 15.6622 13.1757 15.7673 13.0267 15.8636C12.5865 16.1482 11.9422 16.04 11.9422 16.04C11.9422 16.04 12.3711 15.9296 12.7288 15.5373C12.8509 15.4034 12.9661 15.2628 13.0648 15.1356C13.0228 15.0792 12.9826 15.0214 12.9443 14.9623C12.7926 15.0319 12.6172 15.1068 12.4396 15.171C11.9467 15.3492 11.3433 15.0989 11.3433 15.0989C11.3433 15.0989 11.786 15.0878 12.2228 14.786C12.3845 14.6743 12.54 14.5531 12.6717 14.4447C12.6471 14.3855 12.6242 14.3255 12.6031 14.2646C12.4314 14.3007 12.2296 14.3377 12.0282 14.362C11.5078 14.4247 10.9761 14.0451 10.9761 14.0451C10.9761 14.0451 11.4101 14.1339 11.9035 13.9381C12.1036 13.8587 12.299 13.7666 12.4606 13.685C12.4527 13.6322 12.4461 13.5791 12.4408 13.5255C12.2552 13.5197 12.0305 13.5068 11.8099 13.4792C11.2897 13.4142 10.8657 12.9173 10.8657 12.9173C10.8657 12.9173 11.2653 13.1084 11.7915 13.0378C12.023 13.0068 12.2528 12.9597 12.4375 12.9168C12.4419 12.8675 12.4473 12.8185 12.4539 12.7698C12.2663 12.7214 12.0316 12.6541 11.8054 12.5713C11.3132 12.3909 11.0119 11.8113 11.0119 11.8113C11.0119 11.8113 11.3582 12.0874 11.8868 12.137C12.1412 12.1609 12.3979 12.1657 12.5958 12.1642C12.6092 12.1249 12.6232 12.086 12.638 12.0474C12.4599 11.9559 12.2282 11.8293 12.0102 11.687C11.5712 11.4006 11.408 10.7681 11.408 10.7681C11.408 10.7681 11.6833 11.115 12.1872 11.2822C12.4515 11.37 12.7236 11.4362 12.9226 11.4793C12.9383 11.4544 12.9543 11.4298 12.9707 11.4053C12.8156 11.2712 12.6029 11.0778 12.4104 10.8705C12.0537 10.4864 12.0484 9.83313 12.0484 9.83313C12.0484 9.83313 12.2316 10.2364 12.6801 10.5205C12.9307 10.6793 13.1957 10.8166 13.3808 10.9068C13.4 10.8877 13.4194 10.8689 13.439 10.8503C13.3165 10.684 13.1406 10.4332 12.9906 10.1721C12.7295 9.71759 12.8712 9.07987 12.8712 9.07987C12.8712 9.07987 12.9591 9.51399 13.3321 9.89175C13.5533 10.1158 13.7959 10.3199 13.9567 10.4489C13.975 10.4374 13.9934 10.4261 14.0119 10.415C13.9295 10.2261 13.8076 9.92854 13.7159 9.6264C13.5637 9.12481 13.8452 8.53532 13.8452 8.53532C13.8452 8.53532 13.8332 8.97808 14.1117 9.43006C14.2839 9.70953 14.4835 9.97309 14.6109 10.1336C14.6233 10.1292 14.6357 10.1249 14.6482 10.1207C14.6135 9.91933 14.5639 9.58716 14.5473 9.25812C14.521 8.73462 14.9368 8.23075 14.9368 8.23075C14.9368 8.23075 14.818 8.65744 14.9788 9.16337C15.0794 9.47954 15.2111 9.78672 15.2957 9.97269C15.3119 9.97067 15.3282 9.96877 15.3445 9.96699C15.3558 9.76379 15.3821 9.42453 15.4407 9.09605C15.5328 8.58004 16.0513 8.18262 16.0513 8.18262C16.0513 8.18262 15.8396 8.57164 15.8825 9.10079C15.9093 9.43151 15.9686 9.7605 16.0092 9.96073Z" fill="#FFC84A"/>
<path fill-rule="evenodd" clip-rule="evenodd" d="M-0.792011 13.92L1.82284 12.8588C2.20399 12.7041 2.63076 12.706 3.01053 12.864L6.64128 14.375C7.05208 14.5459 7.51628 14.5336 7.91742 14.3411L10.846 12.9357C11.2661 12.7341 11.7542 12.7305 12.1771 12.9259L15.2446 14.343C15.6578 14.5339 16.1338 14.535 16.5479 14.3462L19.6867 12.9148C20.1007 12.726 20.5765 12.7271 20.9897 12.9178L24.0886 14.3484C24.4952 14.5362 24.963 14.5403 25.3729 14.3598L28.759 12.8688C29.1256 12.7074 29.5402 12.6929 29.9171 12.8285L32.9529 13.92V23.9336H-0.880981L-0.792011 13.92Z" fill="#F7FCFF"/>
<mask id="mask2_1957_20404" style="mask-type:luminance" maskUnits="userSpaceOnUse" x="-1" y="12" width="34" height="12">
<path fill-rule="evenodd" clip-rule="evenodd" d="M-0.792011 13.92L1.82284 12.8588C2.20399 12.7041 2.63076 12.706 3.01053 12.864L6.64128 14.375C7.05208 14.5459 7.51628 14.5336 7.91742 14.3411L10.846 12.9357C11.2661 12.7341 11.7542 12.7305 12.1771 12.9259L15.2446 14.343C15.6578 14.5339 16.1338 14.535 16.5479 14.3462L19.6867 12.9148C20.1007 12.726 20.5765 12.7271 20.9897 12.9178L24.0886 14.3484C24.4952 14.5362 24.963 14.5403 25.3729 14.3598L28.759 12.8688C29.1256 12.7074 29.5402 12.6929 29.9171 12.8285L32.9529 13.92V23.9336H-0.880981L-0.792011 13.92Z" fill="white"/>
</mask>
<g mask="url(#mask2_1957_20404)">
<path d="M-0.791992 16.2457L1.82285 15.1845C2.204 15.0299 2.63078 15.0317 3.01055 15.1898L6.6413 16.7007C7.05209 16.8717 7.5163 16.8594 7.91744 16.6668L10.846 15.2614C11.2661 15.0598 11.7542 15.0562 12.1771 15.2516L15.2446 16.6687C15.6578 16.8596 16.1338 16.8608 16.548 16.6719L19.6867 15.2405C20.1007 15.0517 20.5765 15.0528 20.9897 15.2436L24.0886 16.6741C24.4953 16.8619 24.963 16.866 25.3729 16.6855L28.759 15.1945C29.1256 15.0331 29.5402 15.0187 29.9172 15.1542L32.953 16.2457" stroke="#015989" stroke-width="2"/>
<path d="M-0.791992 19.5746L1.82285 18.5134C2.204 18.3587 2.63078 18.3606 3.01055 18.5186L6.6413 20.0296C7.05209 20.2005 7.5163 20.1882 7.91744 19.9957L10.846 18.5903C11.2661 18.3887 11.7542 18.3851 12.1771 18.5805L15.2446 19.9976C15.6578 20.1885 16.1338 20.1896 16.548 20.0008L19.6867 18.5694C20.1007 18.3806 20.5765 18.3817 20.9897 18.5724L24.0886 20.003C24.4953 20.1908 24.963 20.1949 25.3729 20.0144L28.759 18.5234C29.1256 18.362 29.5402 18.3475 29.9172 18.4831L32.953 19.5746" stroke="#015989" stroke-width="2"/>
<path fill-rule="evenodd" clip-rule="evenodd" d="M-0.791992 22.2272L0.299673 21.7842C1.65668 21.2335 3.17613 21.2402 4.52822 21.8029L6.6413 22.6822C7.05209 22.8532 7.5163 22.8409 7.91744 22.6483L9.14795 22.0578C10.6434 21.3401 12.3812 21.3274 13.887 22.023L15.2446 22.6502C15.6578 22.8411 16.1338 22.8423 16.548 22.6534L18.0169 21.9835C19.491 21.3113 21.185 21.3152 22.656 21.9943L24.0886 22.6556C24.4953 22.8434 24.963 22.8475 25.3729 22.667L27.2971 21.8198C28.6023 21.2451 30.0784 21.1937 31.4204 21.6762L32.953 22.2272V25.5421H-0.608375L-0.791992 22.2272Z" fill="#015989"/>
</g>
<path fill-rule="evenodd" clip-rule="evenodd" d="M9.78003 3.41838C9.78003 3.41838 11.172 3.41838 11.6406 3.41838C12.1092 3.41838 13.1664 2.70185 13.7779 2.9407C14.3893 3.17954 15.4187 3.95065 15.4187 3.95065C15.4187 3.95065 17.1182 2.60913 18.1318 2.60913C19.1455 2.60913 20.9739 2.45996 20.9739 2.45996C20.9739 2.45996 20.5449 3.57343 19.3384 3.76204C18.1318 3.95065 16.6883 4.87437 16.6883 4.87437C16.6883 4.87437 18.3504 4.87437 18.6493 4.87437C18.9483 4.87437 19.3384 5.32516 19.3384 5.32516C19.3384 5.32516 18.5336 5.87201 18.1318 5.87201C17.7301 5.87201 17.2863 5.87201 17.2863 5.87201C17.2863 5.87201 16.4322 6.60498 15.377 6.44902C14.3218 6.29307 13.4751 5.32516 13.4751 5.32516C13.4751 5.32516 12.5519 5.19283 12.5519 5.0336C12.5519 5.0336 12.4427 4.98338 12.3924 4.98475C12.102 4.99267 11.9084 5.04485 11.8118 5.0336C12.3427 4.82644 12.5519 4.64316 12.5519 4.64316C12.5519 4.64316 12.9173 4.30041 13.1962 4.30041C13.4751 4.30041 14.4065 4.87437 14.4065 4.87437L14.6289 4.64316L13.4751 3.76204C11.1217 4.00862 9.78003 3.41838 9.78003 3.41838Z" fill="#FFC84A"/>
</g>
</g>
</svg>
