<svg width="32" height="24" viewBox="0 0 32 24" fill="none" xmlns="http://www.w3.org/2000/svg">
<mask id="mask0_1957_20265" style="mask-type:luminance" maskUnits="userSpaceOnUse" x="0" y="0" width="32" height="24">
<rect width="32" height="24" fill="white"/>
</mask>
<g mask="url(#mask0_1957_20265)">
<path fill-rule="evenodd" clip-rule="evenodd" d="M0 0V24H32V0H0Z" fill="#5196ED"/>
<mask id="mask1_1957_20265" style="mask-type:luminance" maskUnits="userSpaceOnUse" x="0" y="0" width="32" height="24">
<path fill-rule="evenodd" clip-rule="evenodd" d="M0 0V24H32V0H0Z" fill="white"/>
</mask>
<g mask="url(#mask1_1957_20265)">
<path fill-rule="evenodd" clip-rule="evenodd" d="M0 12V18H32V12H0Z" fill="#AF0100"/>
<path fill-rule="evenodd" clip-rule="evenodd" d="M0 6V12H32V6H0Z" fill="#F7FCFF"/>
<path fill-rule="evenodd" clip-rule="evenodd" d="M0 0V6H32V0H0Z" fill="#FECA00"/>
<path fill-rule="evenodd" clip-rule="evenodd" d="M0 0L19 12L0 24V0Z" fill="#5EAA22"/>
<path fill-rule="evenodd" clip-rule="evenodd" d="M4.22458 11.4492C4.09783 15.278 7.68119 16.5012 7.68119 16.5012C6.3187 16.8518 1.85719 15.8697 2.00352 11.4492C2.14984 7.02873 6.72219 5.94738 8 6.87017C8 6.87017 4.35132 7.62041 4.22458 11.4492Z" fill="#F7FCFF"/>
<path fill-rule="evenodd" clip-rule="evenodd" d="M7.79863 9.23174C7.77927 9.22137 7.75593 9.22171 7.73689 9.23266L7.28696 9.49131C7.23633 9.52041 7.17653 9.47162 7.19488 9.41618L7.33834 8.98284C7.34619 8.95915 7.33945 8.93306 7.32112 8.91613L7.02057 8.63855C6.97845 8.59965 7.00525 8.52927 7.06257 8.52823L7.47859 8.52068C7.50348 8.52023 7.52581 8.50531 7.53575 8.48249L7.72929 8.0382C7.7519 7.98629 7.82598 7.98758 7.84676 8.04025L8.02408 8.48952C8.03352 8.51344 8.05643 8.52932 8.08214 8.52976L8.49321 8.53694C8.55079 8.53795 8.5775 8.60883 8.5349 8.64758L8.22444 8.93001C8.2054 8.94733 8.19868 8.97442 8.20741 8.99863L8.35324 9.40312C8.37301 9.45796 8.31475 9.50829 8.26337 9.48076L7.79863 9.23174Z" fill="white"/>
<path fill-rule="evenodd" clip-rule="evenodd" d="M7.79863 11.2317C7.77927 11.2214 7.75593 11.2217 7.73689 11.2327L7.28696 11.4913C7.23633 11.5204 7.17653 11.4716 7.19488 11.4162L7.33834 10.9828C7.34619 10.9592 7.33945 10.9331 7.32112 10.9161L7.02057 10.6385C6.97845 10.5997 7.00525 10.5293 7.06257 10.5282L7.47859 10.5207C7.50348 10.5202 7.52581 10.5053 7.53575 10.4825L7.72929 10.0382C7.7519 9.98629 7.82598 9.98758 7.84676 10.0403L8.02408 10.4895C8.03352 10.5134 8.05643 10.5293 8.08214 10.5298L8.49321 10.5369C8.55079 10.5379 8.5775 10.6088 8.5349 10.6476L8.22444 10.93C8.2054 10.9473 8.19868 10.9744 8.20741 10.9986L8.35324 11.4031C8.37301 11.458 8.31475 11.5083 8.26337 11.4808L7.79863 11.2317Z" fill="white"/>
<path fill-rule="evenodd" clip-rule="evenodd" d="M7.79863 13.2317C7.77927 13.2214 7.75593 13.2217 7.73689 13.2327L7.28696 13.4913C7.23633 13.5204 7.17653 13.4716 7.19488 13.4162L7.33834 12.9828C7.34619 12.9592 7.33945 12.9331 7.32112 12.9161L7.02057 12.6385C6.97845 12.5997 7.00525 12.5293 7.06257 12.5282L7.47859 12.5207C7.50348 12.5202 7.52581 12.5053 7.53575 12.4825L7.72929 12.0382C7.7519 11.9863 7.82598 11.9876 7.84676 12.0403L8.02408 12.4895C8.03352 12.5134 8.05643 12.5293 8.08214 12.5298L8.49321 12.5369C8.55079 12.5379 8.5775 12.6088 8.5349 12.6476L8.22444 12.93C8.2054 12.9473 8.19868 12.9744 8.20741 12.9986L8.35324 13.4031C8.37301 13.458 8.31475 13.5083 8.26337 13.4808L7.79863 13.2317Z" fill="white"/>
<path fill-rule="evenodd" clip-rule="evenodd" d="M7.79863 15.2317C7.77927 15.2214 7.75593 15.2217 7.73689 15.2327L7.28696 15.4913C7.23633 15.5204 7.17653 15.4716 7.19488 15.4162L7.33834 14.9828C7.34619 14.9592 7.33945 14.9331 7.32112 14.9161L7.02057 14.6385C6.97845 14.5997 7.00525 14.5293 7.06257 14.5282L7.47859 14.5207C7.50348 14.5202 7.52581 14.5053 7.53575 14.4825L7.72929 14.0382C7.7519 13.9863 7.82598 13.9876 7.84676 14.0403L8.02408 14.4895C8.03352 14.5134 8.05643 14.5293 8.08214 14.5298L8.49321 14.5369C8.55079 14.5379 8.5775 14.6088 8.5349 14.6476L8.22444 14.93C8.2054 14.9473 8.19868 14.9744 8.20741 14.9986L8.35324 15.4031C8.37301 15.458 8.31475 15.5083 8.26337 15.4808L7.79863 15.2317Z" fill="white"/>
</g>
</g>
</svg>
