<svg width="32" height="24" viewBox="0 0 32 24" fill="none" xmlns="http://www.w3.org/2000/svg">
<mask id="mask0_1957_20339" style="mask-type:luminance" maskUnits="userSpaceOnUse" x="0" y="0" width="32" height="24">
<rect width="32" height="24" fill="white"/>
</mask>
<g mask="url(#mask0_1957_20339)">
<path fill-rule="evenodd" clip-rule="evenodd" d="M0 0V24H32V0H0Z" fill="#C51918"/>
<path fill-rule="evenodd" clip-rule="evenodd" d="M0 0V24L32 0H0Z" fill="#5EAA22"/>
<path d="M0.635865 27.9521L1.35923 28.7591L2.2606 28.1574L38.5215 3.95396L39.7207 3.15352L38.7584 2.07992L33.4376 -3.85572L32.7142 -4.66268L31.8128 -4.06103L-4.44811 20.1424L-5.64731 20.9429L-4.68493 22.0165L0.635865 27.9521Z" fill="#292B2E" stroke="#FFD018" stroke-width="2.5"/>
<path fill-rule="evenodd" clip-rule="evenodd" d="M11.8476 16.7315C11.7863 16.7359 11.7316 16.7715 11.7028 16.8258L11.0237 18.109C10.9473 18.2534 10.733 18.2271 10.6937 18.0685L10.387 16.8289C10.3702 16.7612 10.3153 16.7095 10.2467 16.6967L9.12131 16.488C8.96362 16.4588 8.92207 16.2522 9.05618 16.1643L10.0296 15.5259C10.0878 15.4877 10.1184 15.4191 10.1079 15.3502L9.90335 14.01C9.87944 13.8534 10.0567 13.746 10.1844 13.8397L11.2742 14.6385C11.3322 14.6811 11.4101 14.6845 11.4716 14.6472L12.4553 14.0511C12.5931 13.9676 12.762 14.0955 12.719 14.2508L12.4054 15.3823C12.3862 15.4517 12.4107 15.5258 12.4675 15.5701L13.4159 16.31C13.5445 16.4103 13.4817 16.6163 13.319 16.6278L11.8476 16.7315Z" fill="white"/>
<path fill-rule="evenodd" clip-rule="evenodd" d="M20.8538 10.6107C20.795 10.6149 20.7424 10.6491 20.7149 10.7012L20.0632 11.9325C19.9899 12.0711 19.7842 12.0458 19.7466 11.8937L19.4522 10.7042C19.4361 10.6392 19.3835 10.5896 19.3176 10.5774L18.2378 10.3771C18.0865 10.349 18.0466 10.1508 18.1753 10.0664L19.1093 9.45389C19.1652 9.41725 19.1946 9.35139 19.1845 9.28535L18.9882 7.99935C18.9652 7.84909 19.1353 7.74602 19.2579 7.83588L20.3036 8.60244C20.3592 8.64324 20.434 8.64653 20.493 8.61076L21.4369 8.03875C21.5691 7.95863 21.7312 8.0814 21.6899 8.23036L21.389 9.3161C21.3706 9.38268 21.3941 9.45382 21.4485 9.49632L22.3586 10.2062C22.482 10.3025 22.4217 10.5002 22.2656 10.5112L20.8538 10.6107Z" fill="white"/>
</g>
</svg>
