<svg width="32" height="24" viewBox="0 0 32 24" fill="none" xmlns="http://www.w3.org/2000/svg">
<mask id="mask0_1957_20267" style="mask-type:luminance" maskUnits="userSpaceOnUse" x="0" y="0" width="32" height="24">
<rect width="32" height="24" fill="white"/>
</mask>
<g mask="url(#mask0_1957_20267)">
<path fill-rule="evenodd" clip-rule="evenodd" d="M0 0V24H32V0H0Z" fill="#F7FCFF"/>
<mask id="mask1_1957_20267" style="mask-type:luminance" maskUnits="userSpaceOnUse" x="0" y="0" width="32" height="24">
<path fill-rule="evenodd" clip-rule="evenodd" d="M0 0V24H32V0H0Z" fill="white"/>
</mask>
<g mask="url(#mask1_1957_20267)">
<path fill-rule="evenodd" clip-rule="evenodd" d="M15.7118 16.5302C18.2639 16.5302 20.3327 14.4715 20.3327 11.932C20.3327 9.39243 18.2639 7.33374 15.7118 7.33374C13.1598 7.33374 11.0909 9.39243 11.0909 11.932C11.0909 14.4715 13.1598 16.5302 15.7118 16.5302Z" fill="#3D58DB"/>
<mask id="mask2_1957_20267" style="mask-type:luminance" maskUnits="userSpaceOnUse" x="11" y="7" width="10" height="10">
<path fill-rule="evenodd" clip-rule="evenodd" d="M15.7118 16.5302C18.2639 16.5302 20.3327 14.4715 20.3327 11.932C20.3327 9.39243 18.2639 7.33374 15.7118 7.33374C13.1598 7.33374 11.0909 9.39243 11.0909 11.932C11.0909 14.4715 13.1598 16.5302 15.7118 16.5302Z" fill="white"/>
</mask>
<g mask="url(#mask2_1957_20267)">
<path fill-rule="evenodd" clip-rule="evenodd" d="M20.4944 12.2841C20.4944 12.2841 20.235 10.1159 18.3141 9.9982C16.3932 9.88049 15.8753 11.5882 15.7644 12.0407C15.6536 12.4931 15.373 13.7001 13.3506 13.7001C11.3281 13.7001 11.1456 10.631 11.1456 10.631V7.01221H20.4944V12.2841Z" fill="#D83332"/>
</g>
<path fill-rule="evenodd" clip-rule="evenodd" d="M8.77881 4.45898L9.50789 5.07685L6.1291 8.77414L5.40002 8.15627L8.77881 4.45898ZM9.98125 5.45879L10.7103 6.07666L7.45265 9.72039L6.72358 9.10252L9.98125 5.45879ZM11.9072 7.08885L11.1782 6.47099L7.91144 10.1424L8.64051 10.7602L11.9072 7.08885Z" fill="#292B2E"/>
<path fill-rule="evenodd" clip-rule="evenodd" d="M23.1731 4.19995L22.4439 4.8155L23.7088 6.20637L24.438 5.59082L23.1731 4.19995ZM25.4215 6.75844L24.6923 7.374L25.9572 8.76486L26.6864 8.14931L25.4215 6.75844ZM20.037 6.81888L20.7663 6.20332L22.0312 7.59419L21.3019 8.20974L20.037 6.81888ZM23.0145 8.76172L22.2853 9.37727L23.5502 10.7681L24.2795 10.1526L23.0145 8.76172ZM21.2861 5.78733L22.0153 5.17178L25.5362 9.18934L24.807 9.8049L21.2861 5.78733Z" fill="#292B2E"/>
<path fill-rule="evenodd" clip-rule="evenodd" d="M23.7239 13.5613L22.9886 12.9434L21.713 14.3397L22.4484 14.9576L23.7239 13.5613ZM21.5794 16.0185L20.844 15.4006L19.5685 16.7969L20.3038 17.4148L21.5794 16.0185ZM25.3109 14.8977L26.0462 15.5157L24.7707 16.912L24.0353 16.294L25.3109 14.8977ZM24.0066 18.0297L23.2712 17.4117L21.9957 18.808L22.731 19.426L24.0066 18.0297ZM22.0598 16.35L22.7952 16.9679L21.4637 18.4589L20.7283 17.8409L22.0598 16.35ZM24.9797 14.4834L24.2443 13.8655L22.9128 15.3565L23.6482 15.9744L24.9797 14.4834Z" fill="#292B2E"/>
<path fill-rule="evenodd" clip-rule="evenodd" d="M8.06737 14.0442L8.79664 13.428L12.0514 16.9226L11.3221 17.5388L8.06737 14.0442ZM8.82664 17.1007L9.55591 16.4845L10.9307 17.8998L10.2014 18.516L8.82664 17.1007ZM6.39639 15.3888L5.66712 16.0051L8.93877 19.5466L9.66804 18.9304L6.39639 15.3888ZM6.91521 14.9866L7.64448 14.3704L8.83628 15.6799L8.10701 16.2961L6.91521 14.9866Z" fill="#292B2E"/>
</g>
</g>
</svg>
