<svg width="32" height="24" viewBox="0 0 32 24" fill="none" xmlns="http://www.w3.org/2000/svg">
<mask id="mask0_1957_20270" style="mask-type:luminance" maskUnits="userSpaceOnUse" x="0" y="0" width="32" height="24">
<rect width="32" height="24" fill="white"/>
</mask>
<g mask="url(#mask0_1957_20270)">
<path fill-rule="evenodd" clip-rule="evenodd" d="M32 0H0V6H32V0ZM32 18H0V24H32V18Z" fill="#E31D1C"/>
<path fill-rule="evenodd" clip-rule="evenodd" d="M0 6H32V18H0V6Z" fill="#F7FCFF"/>
<path fill-rule="evenodd" clip-rule="evenodd" d="M19.7241 11.7284C19.773 12.2977 17.6723 11.4923 17.6723 11.7202C17.6723 11.9481 19.9227 12.3483 19.9189 12.8585C19.9152 13.3687 17.2506 12.7129 17.8481 12.9423C18.4457 13.1718 19.7286 13.7211 19.5828 14.0633C19.2713 14.794 17.203 13.5563 17.031 13.8003C16.7534 14.1939 18.5573 15.112 18.542 15.1997C18.5126 15.368 17.31 14.9353 17.031 15.2847C16.8051 15.221 16.7007 14.9168 16.6306 14.8765L16.1867 9.15143C16.1867 9.15143 16.5853 14.5418 16.076 14.6968C15.5668 14.8519 14.1522 15.3232 14.111 15.0878C14.0957 15.0001 15.8143 14.1939 15.5367 13.8003C15.3322 13.5102 13.2582 14.5388 13.1259 13.9432C12.5364 13.5183 15.0349 13.1506 15.0349 12.7161C15.0349 12.2815 12.7493 13.2304 13.0227 12.6255C13.2961 12.0206 15.1259 11.804 15.1601 11.7202C15.2225 11.567 13.1259 11.9587 13.1259 11.7202C13.1259 11.2689 14.3808 11.18 15.1601 10.7739C15.2061 10.3104 13.2697 11.2302 13.1259 10.8586C12.9821 10.4871 15.6009 9.52456 15.5367 9.44958C15.4354 9.33116 13.3248 9.86549 13.6728 9.5849C14.3484 9.04031 15.6669 8.29976 15.9703 8.10223C15.9703 8.10223 16.0069 8.0277 16.0459 8.05299C16.0851 8.0277 16.1281 8 16.1281 8C16.1281 8 16.1281 8.46598 16.1216 8.10223C16.1151 7.73848 19.2125 9.33015 19.2477 9.73364C19.2886 10.205 17.3338 9.37828 17.3798 9.84176C17.7772 10.088 18.9074 10.5644 19.3743 10.7739C19.5861 10.8689 17.8138 10.5728 17.8512 10.7182C17.9466 11.0887 19.673 11.1348 19.7241 11.7284Z" fill="#52AB0B"/>
</g>
</svg>
