<svg width="32" height="24" viewBox="0 0 32 24" fill="none" xmlns="http://www.w3.org/2000/svg">
<mask id="mask0_1957_20274" style="mask-type:luminance" maskUnits="userSpaceOnUse" x="0" y="0" width="32" height="24">
<rect width="32" height="24" fill="white"/>
</mask>
<g mask="url(#mask0_1957_20274)">
<path fill-rule="evenodd" clip-rule="evenodd" d="M0 0H32V24H0V0Z" fill="#FECA00"/>
<rect x="2" y="2" width="6" height="20" fill="#1F8A6E"/>
<rect x="8" y="2" width="6" height="20" fill="#F56800"/>
<rect x="14" y="2" width="16" height="20" fill="#B01D00"/>
<rect x="12" y="2" width="2" height="20" fill="#E8AA00"/>
<path fill-rule="evenodd" clip-rule="evenodd" d="M17.1005 6.17334C17.1005 6.17334 15.8268 6.16964 15.8268 8.38745V11.6396C15.8268 11.6396 15.2205 11.7477 15.2205 12.1244C15.2205 12.501 15.349 12.8306 15.5879 12.8306C15.8268 12.8306 16.0657 13.9355 15.8268 13.9355C15.5879 13.9355 15.349 14.4096 15.5879 14.4096C15.645 14.4096 15.6885 14.4019 15.7216 14.396C15.7564 14.3898 15.7797 14.3856 15.7953 14.3947C15.8268 14.413 15.8268 14.4855 15.8268 14.7048C15.8268 15.1353 15.5879 15.3094 15.5879 15.3094C15.5879 15.3094 15.3629 15.2466 15.3629 15.5C15.3629 15.7534 15.5879 15.8175 15.5879 15.8175C15.5879 15.8175 15.7167 15.8732 15.4686 15.9932C15.2205 16.1132 15.2205 16.1712 15.2205 16.1712H15.8268L16.1305 16.7267L16.4202 16.1712H17.0187C17.0187 16.1712 16.7173 15.9784 16.682 15.938C16.6467 15.8976 16.6039 15.8386 16.682 15.771C16.7048 15.7513 16.7381 15.7363 16.7739 15.7201C16.8609 15.6809 16.9624 15.635 16.9624 15.5C16.9624 15.3094 16.5803 15.3094 16.5803 15.3094C16.5803 15.3094 16.3472 14.8885 16.4202 14.7048C16.4406 14.6534 16.4522 14.6076 16.4622 14.5684C16.4879 14.4674 16.5026 14.4096 16.628 14.4096C16.802 14.4096 16.9018 14.19 16.682 13.9355C16.682 13.9355 16.934 14.2064 16.8599 14.5579C16.7859 14.9095 16.9369 15.0687 17.0187 15.0687C17.1005 15.0687 17.2306 14.9478 17.2306 14.9478C17.2306 14.9478 17.9101 15.5553 18.2087 15.5553C18.5073 15.5553 18.9354 15.0687 18.9354 15.0687L19.5501 15.4139C19.5501 15.4139 20 16.0442 19.9337 16.4775C19.8674 16.9108 19.6109 17.1522 19.3091 17.0852C19.0073 17.0182 18.5164 17.1557 18.4791 17.3426C18.4734 17.3709 18.465 17.4053 18.4558 17.4432C18.4041 17.6553 18.3267 17.9729 18.5633 17.8945C18.8421 17.8022 18.8967 17.7314 18.8967 17.7314C18.8967 17.7314 18.86 17.8945 19.0846 17.8945C19.3091 17.8945 19.374 17.7314 19.374 17.7314C19.374 17.7314 19.6068 17.8945 19.7703 17.8945C19.9337 17.8945 20.1168 17.7688 20.1168 17.7688C20.1168 17.7688 20.2373 17.9556 20.5038 17.8945C20.7703 17.8335 20.9718 17.1379 20.7779 16.9821C20.7779 16.9821 21.4209 16.8888 21.5859 16.3299C21.5859 16.3299 20.9639 16.3207 21.028 15.938C21.0921 15.5553 21.4206 15.3094 21.4206 15.3094C21.4206 15.3094 22.3663 14.8516 22.7733 14.7048C23.1802 14.5579 23.8565 14.4096 24.0241 14.4096C24.0923 14.4096 24.141 14.5688 24.207 14.7846C24.3032 15.0991 24.4362 15.5337 24.7198 15.771C25.1982 16.1712 24.872 17.0852 24.872 17.0852C24.872 17.0852 23.8076 17.1925 23.8076 17.4806C23.8076 17.7688 23.8247 17.8945 24.0241 17.8945C24.2234 17.8945 24.2194 17.7314 24.2194 17.7314C24.2194 17.7314 24.3377 17.8945 24.5288 17.8945C24.7198 17.8945 24.872 17.7314 24.872 17.7314C24.872 17.7314 24.9228 17.8945 25.1731 17.8945C25.4234 17.8945 25.4216 17.7314 25.4216 17.7314C25.4216 17.7314 25.4667 17.8945 25.6873 17.8945C25.9079 17.8945 26.3607 17.7314 26.3607 17.7314C26.3607 17.7314 26.4317 17.8945 26.6608 17.8945C26.8899 17.8945 26.8953 17.7314 26.8953 17.7314C26.8953 17.7314 27.0176 17.8945 27.2161 17.8945C27.4145 17.8945 27.5308 17.7314 27.5308 17.7314C27.5308 17.7314 27.8161 17.8945 28.0129 17.8945C28.2097 17.8945 28.139 17.6 28.0129 17.3426C27.981 17.2775 27.9441 17.2219 27.9103 17.1711C27.8106 17.021 27.7388 16.913 27.9077 16.7267C27.9555 16.674 28.0103 16.6207 28.0652 16.5673L28.0652 16.5673C28.2698 16.3684 28.4754 16.1684 28.3248 15.9932C28.2801 15.9412 28.2277 15.9048 28.175 15.8683C28.0026 15.7485 27.8271 15.6266 27.9077 14.9478C27.956 14.5413 28.0477 14.2108 28.1329 13.904L28.1329 13.904C28.2334 13.542 28.3248 13.2129 28.3248 12.8306C28.3248 12.1244 27.9077 11.3168 27.9077 11.3168C27.9077 11.3168 28.4693 10.9249 28.4693 10.1276C28.4693 9.3303 27.2161 9.24335 27.2161 9.24335C27.2161 9.24335 25.9712 9.56377 25.4216 9.40356C25.2976 9.3674 25.1938 9.3414 25.1074 9.31977L25.1074 9.31977C24.8111 9.24553 24.7198 9.22268 24.7198 9.01727C24.7198 8.75199 24.3198 9.24335 24.3198 9.24335C24.3198 9.24335 24.0062 9.11748 24.2194 8.85706C24.4326 8.59663 24.5288 8.49454 24.5288 8.49454C24.5288 8.49454 24.341 8.28036 24.0241 8.38745C23.7072 8.49454 23.6507 8.67199 23.6507 8.67199C23.6507 8.67199 23.2894 8.30215 23.5145 8.03361C23.7396 7.76507 24.0241 8.03361 24.0241 8.03361C24.0241 8.03361 24.3477 8.20259 24.3738 7.98079C24.3998 7.75899 24.3738 7.58211 24.3738 7.58211C24.3738 7.58211 25.1858 7.815 24.9563 8.17723C24.7269 8.53946 24.872 8.67199 24.872 8.67199C24.872 8.67199 25.4301 8.70634 25.5309 8.32135C25.5691 8.17575 25.5628 8.03454 25.5349 7.92358C25.6957 7.99932 25.8778 8.08906 25.8269 8.23795C25.7336 8.51149 25.5309 8.85706 25.5309 8.85706C25.5309 8.85706 26.0886 8.82447 26.2548 8.38745C26.421 7.95043 26.3607 8.49454 26.3607 8.49454C26.3607 8.49454 26.5745 8.48693 26.8953 8.67199C27.2161 8.85706 26.8953 8.38745 26.8953 8.38745C26.8953 8.38745 27.5611 9.21306 28.1909 9.11516C28.8207 9.01727 28.7858 8.49454 28.7858 8.49454C28.7858 8.49454 28.6366 8.23795 28.3248 8.23795C28.0129 8.23795 28.1909 8.49454 28.1909 8.49454C28.1909 8.49454 28.495 8.66772 28.0129 8.49454C27.8733 8.44438 27.6649 8.28246 27.4064 8.08154C26.7723 7.58879 25.8363 6.86147 24.872 6.97286C23.5145 7.12966 23.0408 7.73631 23.0408 7.73631V7.23118C23.0408 7.23118 22.8127 7.58211 22.6 7.58211C22.3874 7.58211 21.7968 7.23118 21.7968 7.23118L21.4206 7.58211C21.4206 7.58211 21.2781 7.23118 21.028 7.23118C20.7779 7.23118 20.7779 7.58211 20.7779 7.58211C20.7779 7.58211 20.4633 7.4274 20.1168 7.4274C19.9748 7.4274 19.8541 7.37556 19.761 7.33559C19.6268 7.27799 19.5501 7.24505 19.5501 7.4274C19.5501 7.46441 19.551 7.49973 19.5518 7.53334V7.53336C19.5579 7.78024 19.5616 7.93429 19.2024 7.98079C18.7943 8.03361 18.4791 8.03361 18.4791 8.03361C18.4791 8.03361 18.2348 7.73631 18.0447 7.73631C17.8546 7.73631 17.6344 7.96701 17.6344 8.17723C17.6344 8.38745 17.8806 8.98698 18.0447 9.11516C18.0879 9.14892 18.0799 9.14523 18.0446 9.129C17.946 9.08359 17.6344 8.94006 17.6344 9.24335C17.6344 9.45245 17.6866 9.50472 17.7247 9.5429C17.7617 9.5799 17.7854 9.60366 17.7356 9.74405C17.7149 9.80248 17.6864 9.87005 17.6567 9.94058C17.5414 10.2144 17.4074 10.5327 17.6344 10.5327C17.757 10.5327 17.8729 10.5057 17.9555 10.4865L17.9555 10.4865C18.0652 10.461 18.1159 10.4492 18.0447 10.5327C18.0163 10.566 17.9781 10.6061 17.9396 10.6465C17.8087 10.7839 17.6741 10.9253 17.9071 10.818C18.0296 10.7616 18.133 10.6798 18.2183 10.6124C18.3431 10.5137 18.429 10.4458 18.4791 10.5327C18.5107 10.5877 18.4853 10.6612 18.4636 10.7242C18.4275 10.829 18.4013 10.9047 18.664 10.818C18.7561 10.7876 18.81 10.7639 18.84 10.7469C18.8413 10.7639 18.8553 10.7876 18.8967 10.818C18.9848 10.8827 18.9679 10.944 18.955 10.9909C18.9404 11.0439 18.9309 11.0784 19.0846 11.0784C19.2316 11.0784 19.4392 10.9644 19.5622 10.8969C19.6813 10.8315 19.7211 10.8096 19.5501 10.9768C19.4423 11.0822 19.2864 11.1525 19.1133 11.2305C18.7281 11.4041 18.2579 11.6159 18.0447 12.3386C17.7568 13.3141 17.8858 13.5151 17.9049 13.5381L17.0187 12.5679C17.0187 12.5679 17.2306 12.4022 17.2306 12.1244C17.2306 11.8465 16.682 11.6396 16.682 11.6396C16.682 11.6396 16.7012 8.18187 16.8599 7.4274C17.0187 6.67294 17.1005 6.17334 17.1005 6.17334ZM17.9049 13.5381L17.9071 13.5405C17.9071 13.5405 17.9067 13.5402 17.9061 13.5395C17.9058 13.5391 17.9054 13.5387 17.9049 13.5381ZM18.8676 10.7142C18.8576 10.7142 18.8384 10.7251 18.84 10.7469C18.8784 10.725 18.8776 10.7142 18.8676 10.7142ZM25.5349 7.92358L25.5231 7.91805C25.3934 7.85702 25.2817 7.80452 25.3246 7.73631C25.385 7.64043 25.489 7.74113 25.5349 7.92358ZM26.1212 15.4055C26.1212 15.4055 25.7013 15.8174 25.9679 15.9079C26.0488 15.9353 26.1472 15.9507 26.2386 15.9649C26.4487 15.9976 26.6223 16.0246 26.4631 16.1801C26.2346 16.4033 26.0412 16.7049 26.0412 16.9795C26.0412 17.2542 26.0477 17.486 26.1212 17.3701C26.1616 17.3065 26.3274 17.2398 26.5061 17.1681C26.6529 17.1091 26.8083 17.0466 26.9099 16.9795C27.1018 16.8527 27.099 16.7155 27.0941 16.469C27.0932 16.4264 27.0923 16.3805 27.0923 16.3308C27.0923 15.9939 26.1212 15.4055 26.1212 15.4055ZM22.863 9.88946C22.9609 9.81166 22.9672 8.8515 22.9672 8.8515C22.9672 8.8515 23.3105 8.96581 23.3105 9.1158C23.3105 9.20921 23.2846 9.26264 23.2453 9.34328C23.2216 9.39212 23.193 9.45095 23.1623 9.5347C23.0869 9.74097 23.2922 9.87019 23.4829 9.99023C23.4974 9.99938 23.5119 10.0085 23.5261 10.0176C23.6554 10.1 23.6917 9.92116 23.7197 9.78312C23.7353 9.7066 23.7483 9.64261 23.7732 9.64261C23.8429 9.64261 24.3633 9.76058 24.7549 9.9596C25.0967 10.1333 25.432 10.048 26.2 9.85275C26.3122 9.82422 26.4336 9.79334 26.5657 9.76058C27.6015 9.5036 27.7375 9.88946 27.8437 10.1932C27.9499 10.497 27.1457 10.918 26.5657 10.9943C26.3108 11.0278 26.09 11.0171 25.8869 11.0073C25.6278 10.9948 25.3974 10.9837 25.1616 11.0675C24.7921 11.1989 23.6365 11.1858 23.1854 11.1807C23.1231 11.18 23.0743 11.1794 23.0428 11.1794C22.8357 11.1794 22.7966 11.1141 22.7179 10.9829C22.698 10.9496 22.6754 10.912 22.647 10.8702C22.5064 10.6637 22.677 10.5287 22.7875 10.5287C22.898 10.5287 22.863 10.2871 22.7875 10.1932C22.7119 10.0994 22.7652 9.96725 22.863 9.88946Z" fill="#FECA00"/>
<path fill-rule="evenodd" clip-rule="evenodd" d="M14.1712 2.12227V2.4833C14.1712 2.52776 14.152 2.5884 14.1305 2.65637C14.0624 2.87182 13.9709 3.16095 14.3932 3.24221C14.9487 3.34911 15.358 3.59204 15.4824 3.82138C15.5621 3.96835 15.5397 3.72345 15.5132 3.43539V3.43539C15.4984 3.27396 15.4824 3.09897 15.4824 2.97182C15.4824 2.61778 15.0858 1.92787 14.8048 2.12227C14.5238 2.31666 14.1712 2.12227 14.1712 2.12227ZM14.1712 21.5073V21.8683C14.1712 21.8683 14.5238 21.6739 14.8048 21.8683C15.0858 22.0627 15.4824 21.3728 15.4824 21.0187C15.4824 20.8916 15.4984 20.7166 15.5132 20.5552C15.5397 20.2671 15.5621 20.0222 15.4824 20.1692C15.358 20.3985 14.9487 20.6414 14.3932 20.7483C13.9709 20.8296 14.0624 21.1187 14.1305 21.3342C14.152 21.4022 14.1712 21.4628 14.1712 21.5073ZM29.8356 21.5073V21.8683C29.8356 21.8683 29.4831 21.6739 29.2021 21.8683C28.921 22.0627 28.5245 21.3728 28.5245 21.0187C28.5245 20.8916 28.5084 20.7166 28.4936 20.5552L28.4936 20.5552C28.4672 20.2671 28.4447 20.0222 28.5245 20.1692C28.6489 20.3985 29.0581 20.6414 29.6137 20.7483C30.036 20.8296 29.9445 21.1187 29.8763 21.3342C29.8548 21.4022 29.8356 21.4628 29.8356 21.5073ZM29.8356 2.4833V2.12227C29.8356 2.12227 29.4831 2.31666 29.2021 2.12227C28.921 1.92787 28.5245 2.61778 28.5245 2.97182C28.5245 3.09898 28.5084 3.27396 28.4936 3.43539C28.4672 3.72345 28.4447 3.96835 28.5245 3.82138C28.6489 3.59204 29.0581 3.34911 29.6137 3.24221C30.036 3.16095 29.9445 2.87182 29.8763 2.65637C29.8548 2.5884 29.8356 2.52776 29.8356 2.4833Z" fill="#FECA00"/>
</g>
</svg>
