<svg width="32" height="24" viewBox="0 0 32 24" fill="none" xmlns="http://www.w3.org/2000/svg">
<mask id="mask0_1957_20285" style="mask-type:luminance" maskUnits="userSpaceOnUse" x="0" y="0" width="32" height="24">
<rect width="32" height="24" fill="white"/>
</mask>
<g mask="url(#mask0_1957_20285)">
<path fill-rule="evenodd" clip-rule="evenodd" d="M0 0H32V22C32 23.1046 31.1046 24 30 24H2C0.895431 24 0 23.1046 0 22V0Z" fill="#CA2827"/>
<path fill-rule="evenodd" clip-rule="evenodd" d="M0 0H32V24H0V0Z" fill="#CA2827"/>
<path fill-rule="evenodd" clip-rule="evenodd" d="M20.0443 16.4434L16.1037 5.88354H15.9327L12.129 16.4434L16.0792 14.0694L20.0443 16.4434ZM15.6674 9.32834L16.0899 7.68226L16.5283 9.37549L17.7877 12.9046L18.5272 14.6132L16.9308 13.4885L16.0782 12.978L15.2395 13.4821L13.6801 14.6132L14.401 12.8696L15.6674 9.32834Z" fill="#83B35E"/>
<path fill-rule="evenodd" clip-rule="evenodd" d="M13.918 12.6046L16.0991 14.0545L18.1344 12.6046L21.9999 9.3374H10.0016L13.918 12.6046ZM13.9633 11.3574L12.4799 10.4496H14.2896H17.8857H19.4821L18.2087 11.2562L16.0897 12.8639L13.9633 11.3574Z" fill="#83B35E"/>
</g>
</svg>
