<svg width="32" height="24" viewBox="0 0 32 24" fill="none" xmlns="http://www.w3.org/2000/svg">
<mask id="mask0_1957_20287" style="mask-type:luminance" maskUnits="userSpaceOnUse" x="0" y="0" width="32" height="24">
<rect width="32" height="24" fill="white"/>
</mask>
<g mask="url(#mask0_1957_20287)">
<path fill-rule="evenodd" clip-rule="evenodd" d="M22 0H32V24H22V0Z" fill="#D9071E"/>
<path fill-rule="evenodd" clip-rule="evenodd" d="M0 0H12V24H0V0Z" fill="#3D58DB"/>
<path fill-rule="evenodd" clip-rule="evenodd" d="M10 0H22V24H10V0Z" fill="#FBCD17"/>
<path fill-rule="evenodd" clip-rule="evenodd" d="M18.1265 15.3155L17.6718 15.5639L16.1648 12.8055L16.6195 12.5571L18.1265 15.3155ZM13.2888 15.3818L13.7435 15.6302L15.2505 12.8718L14.7958 12.6234L13.2888 15.3818Z" fill="#FD1900"/>
<path fill-rule="evenodd" clip-rule="evenodd" d="M13.6621 10.9007V13.2975C13.6621 13.8299 13.2036 14.5238 12.9724 14.7819C12.7412 15.04 12.282 15.6314 12.282 15.6314V9.18209C12.282 8.45867 12.9724 8.21017 12.9724 8.21017C12.9724 8.21017 13.5457 8.32358 13.6621 9.18209V10.0187C13.8395 10.1584 14.432 10.587 14.8148 10.4061C15.2693 10.1913 15.4262 9.57524 15.4262 9.57524C15.4262 9.57524 15.3837 8.95358 15.1972 8.95358C15.0107 8.95358 14.9958 8.07788 15.7101 8.07788C16.4245 8.07788 16.5078 8.41543 16.5078 8.6845C16.5078 8.82555 16.3947 9.05191 16.2871 9.26732L16.2871 9.26732C16.1895 9.46285 16.0963 9.64935 16.0963 9.75483C16.0963 9.97653 16.2634 10.4061 16.5078 10.4061C16.6792 10.4061 17.5037 10.0858 17.981 9.89443V9.18209C18.0974 8.32358 18.6706 8.21017 18.6706 8.21017C18.6706 8.21017 19.3611 8.45867 19.3611 9.18209V15.6314C19.3611 15.6314 18.9019 15.04 18.6706 14.7819C18.4394 14.5238 17.981 13.8299 17.981 13.2975V10.9007H13.6621ZM14.4272 15.4094C14.8941 15.1054 15.5772 13.742 15.5772 13.742L15.804 13.7947C15.804 13.7947 16.1503 14.6977 17.1685 15.4094C16.0832 15.6991 15.804 16.2807 15.804 16.2807C15.804 15.8154 14.4272 15.4094 14.4272 15.4094ZM14.352 14.5465C14.6667 14.5465 14.9219 14.3048 14.9219 14.0068C14.9219 13.7087 14.6667 13.4671 14.352 13.4671C14.0372 13.4671 13.7821 13.7087 13.7821 14.0068C13.7821 14.3048 14.0372 14.5465 14.352 14.5465ZM17.6954 14.0068C17.6954 14.3048 17.4402 14.5465 17.1255 14.5465C16.8107 14.5465 16.5556 14.3048 16.5556 14.0068C16.5556 13.7087 16.8107 13.4671 17.1255 13.4671C17.4402 13.4671 17.6954 13.7087 17.6954 14.0068Z" fill="#A77B3B"/>
<path d="M19.6037 11.3406L20 11.5119L18.3854 15.2473L17.9891 15.076L19.6037 11.3406Z" fill="#FDFF00"/>
<path opacity="0.3" fill-rule="evenodd" clip-rule="evenodd" d="M13.5161 10.2292H18.0753V13.5273C18.0753 13.5273 16.9152 13.8767 15.7957 14.4501C14.9694 13.8371 13.5161 13.5273 13.5161 13.5273V10.2292Z" fill="#E1E5E8"/>
<mask id="mask1_1957_20287" style="mask-type:luminance" maskUnits="userSpaceOnUse" x="13" y="10" width="6" height="5">
<path fill-rule="evenodd" clip-rule="evenodd" d="M13.5161 10.2292H18.0753V13.5273C18.0753 13.5273 16.9152 13.8767 15.7957 14.4501C14.9694 13.8371 13.5161 13.5273 13.5161 13.5273V10.2292Z" fill="white"/>
</mask>
<g mask="url(#mask1_1957_20287)">
<rect x="13.5161" y="12.3879" width="4.55922" height="2.15872" fill="#3D58DB"/>
<rect x="13.5161" y="10.2292" width="4.55922" height="2.15872" fill="#FD1900"/>
<path fill-rule="evenodd" clip-rule="evenodd" d="M15.5655 11.2L15.2199 11.2286L15.4192 10.9598L15.2069 10.6814L15.5542 10.7261L15.6873 10.4191L15.8353 10.7326L16.1809 10.704L15.9816 10.9729L16.194 11.2513L15.8467 11.2066L15.7135 11.5136L15.5655 11.2Z" fill="#FDFF00"/>
<path fill-rule="evenodd" clip-rule="evenodd" d="M14.9452 10.5912C14.9452 10.5912 14.017 11.1559 14.3264 11.5613C14.6358 11.9667 15.0252 12.0185 15.0252 12.0185C15.0252 12.0185 14.0758 13.443 15.7469 14.2568C17.5361 13.4712 16.5951 12.0185 16.5951 12.0185C16.5951 12.0185 17.1459 11.8967 17.2561 11.4584C17.3664 11.0201 16.5363 10.5173 16.5363 10.5173C16.5363 10.5173 17.0542 11.2681 16.936 11.4584C16.8177 11.6487 16.1843 11.8425 15.7469 11.8425C15.3095 11.8425 14.6341 11.7197 14.5251 11.3871C14.4161 11.0545 14.9452 10.5912 14.9452 10.5912Z" fill="#FDFF00"/>
<path fill-rule="evenodd" clip-rule="evenodd" d="M14.086 12.0281L14.6559 12.3879L14.086 12.7477L13.5161 12.3879L14.086 12.0281Z" fill="#FDFF00"/>
<path fill-rule="evenodd" clip-rule="evenodd" d="M17.5054 12.0281L18.0754 12.3879L17.5054 12.7477L16.9355 12.3879L17.5054 12.0281Z" fill="#FDFF00"/>
<path fill-rule="evenodd" clip-rule="evenodd" d="M14.0687 13.4528C14.1641 13.4528 14.2414 13.3755 14.2414 13.2801C14.2414 13.1847 14.1641 13.1074 14.0687 13.1074C13.9733 13.1074 13.896 13.1847 13.896 13.2801C13.896 13.3755 13.9733 13.4528 14.0687 13.4528Z" fill="#FDFF00"/>
<path fill-rule="evenodd" clip-rule="evenodd" d="M17.7428 13.1259C17.5946 13.0058 17.3674 13.0407 17.2353 13.2038C17.1033 13.3668 17.1164 13.5963 17.2646 13.7164C17.3452 13.7816 17.3032 13.5224 17.4251 13.3575C17.5276 13.2189 17.8105 13.1807 17.7428 13.1259Z" fill="#FDFF00"/>
</g>
<path fill-rule="evenodd" clip-rule="evenodd" d="M10.7947 11.8246C10.7947 11.8246 11.2498 12.3627 11.6783 12.1867C12.1069 12.0108 12.003 11.3801 12.003 11.3801L11.6783 11.6746H11.402V11.8246L11.1862 11.6746V11.8246H10.7947ZM11.1024 12.6515C11.1024 12.6515 11.6571 13.1353 12.0309 12.9986C12.4046 12.8619 12.3107 12.207 12.3107 12.207L11.9861 12.5015H11.7098V12.6515L11.4939 12.5015V12.6515H11.1024ZM12.5962 13.7494C12.2225 13.8861 11.6678 13.4023 11.6678 13.4023H12.0593V13.2523L12.2751 13.4023V13.2523H12.5514L12.8761 12.9578C12.8761 12.9578 12.9699 13.6127 12.5962 13.7494Z" fill="#048F02"/>
<path fill-rule="evenodd" clip-rule="evenodd" d="M14.7851 7.81787H14.3534V8.07506H14.1501V8.50681H14.3534V9.25999H14.7851V8.50681H15.0321V8.07506H14.7851V7.81787Z" fill="#FDFF00"/>
<path fill-rule="evenodd" clip-rule="evenodd" d="M15.294 8.30835L14.2941 8.56595L15.294 8.88193V8.30835Z" fill="#DB4400"/>
</g>
</svg>
