<svg width="32" height="24" viewBox="0 0 32 24" fill="none" xmlns="http://www.w3.org/2000/svg">
<mask id="mask0_1957_20289" style="mask-type:luminance" maskUnits="userSpaceOnUse" x="0" y="0" width="32" height="24">
<rect width="32" height="24" fill="white"/>
</mask>
<g mask="url(#mask0_1957_20289)">
<path fill-rule="evenodd" clip-rule="evenodd" d="M0 0H32V24H0V0Z" fill="#E8AA00"/>
<path fill-rule="evenodd" clip-rule="evenodd" d="M4 4H28V20H4V4Z" fill="#C51918"/>
<mask id="mask1_1957_20289" style="mask-type:luminance" maskUnits="userSpaceOnUse" x="4" y="4" width="24" height="16">
<path fill-rule="evenodd" clip-rule="evenodd" d="M4 4H28V20H4V4Z" fill="white"/>
</mask>
<g mask="url(#mask1_1957_20289)">
<path fill-rule="evenodd" clip-rule="evenodd" d="M20.2308 15.7513C20.6386 15.7513 20.9692 15.4125 20.9692 14.9945C20.9692 14.5766 20.6386 14.2378 20.2308 14.2378C19.8229 14.2378 19.4923 14.5766 19.4923 14.9945C19.4923 15.4125 19.8229 15.7513 20.2308 15.7513Z" fill="#1E5E91"/>
<path fill-rule="evenodd" clip-rule="evenodd" d="M10.6276 12.3317C8.69032 10.0803 11.4668 6.1731 11.4668 6.1731C11.4668 6.1731 11.8819 8.50665 13.4183 10.0769C13.4183 10.1884 13.2732 10.3529 13.1263 10.5195C13.0237 10.6358 12.9203 10.7531 12.8647 10.8541C12.7296 11.0996 13.1934 11.2395 13.4183 11.2395C13.5192 11.2395 13.575 11.3859 13.6253 11.518C13.6871 11.6803 13.7407 11.821 13.8597 11.6427C14.0756 11.3192 13.6438 10.6085 13.6438 10.6085L14.3274 9.88754L14.5586 9.42147H14.3274V8.94163L14.1654 9.07463C14.1654 9.07463 13.9877 8.6456 13.6438 8.6456C13.3 8.6456 13.1934 8.4494 13.1934 8.4494H13.6438C13.8694 8.4494 13.6078 8.1505 13.4183 7.99481C13.3333 7.92503 13.2044 7.94909 13.0881 7.97081C12.9449 7.99755 12.8206 8.02074 12.8206 7.86101C12.8206 7.68594 12.957 7.66275 13.1145 7.63595C13.2174 7.61843 13.3294 7.59938 13.4183 7.53537C13.5653 7.42952 13.7634 7.46206 13.9779 7.4973C14.0916 7.51596 14.2098 7.53537 14.3274 7.53537H14.8844C15.0855 7.53537 14.5586 7.86101 14.5586 7.86101L14.8844 8.1505L15.3688 8.6456L15.1266 8.7894L15.6265 9.2742C15.6265 9.2742 15.4568 9.55012 15.6265 9.55012C15.6964 9.55012 15.7425 9.60745 15.7724 9.67484C15.8024 9.60745 15.8484 9.55012 15.9183 9.55012C16.088 9.55012 15.9183 9.2742 15.9183 9.2742L16.4183 8.7894L16.176 8.6456L16.6605 8.1505L16.9863 7.86101C16.9863 7.86101 16.4593 7.53537 16.6605 7.53537H17.2174C17.3351 7.53537 17.4533 7.51596 17.5669 7.4973C17.7814 7.46206 17.9795 7.42952 18.1266 7.53537C18.2154 7.59938 18.3274 7.61843 18.4304 7.63595C18.5879 7.66275 18.7242 7.68594 18.7242 7.86101C18.7242 8.02074 18.5999 7.99755 18.4567 7.97081C18.3404 7.94909 18.2115 7.92503 18.1266 7.99481C17.937 8.1505 17.6754 8.4494 17.901 8.4494H18.3514C18.3514 8.4494 18.2449 8.6456 17.901 8.6456C17.5571 8.6456 17.3794 9.07463 17.3794 9.07463L17.2174 8.94163V9.42147H16.9863L17.2174 9.88754L17.901 10.6085C17.901 10.6085 17.4692 11.3192 17.6851 11.6427C17.8041 11.821 17.8577 11.6803 17.9195 11.518C17.9699 11.3859 18.0256 11.2395 18.1266 11.2395C18.3514 11.2395 18.8152 11.0996 18.6801 10.8541C18.6246 10.7531 18.5211 10.6358 18.4185 10.5195C18.2716 10.3529 18.1266 10.1884 18.1266 10.0769C19.6629 8.50665 20.078 6.1731 20.078 6.1731C20.078 6.1731 22.8545 10.0803 20.9173 12.3317C18.98 14.5832 17.5571 13.9043 17.5571 13.9043L18.3514 14.6165L18.1266 14.8112H18.7884L18.545 14.9739L18.7242 15.0523L18.9138 15.1354C18.9138 15.1354 18.4026 15.5114 18.9138 15.5114C18.9945 15.5114 19.0801 15.509 19.1681 15.5065C19.2645 15.5039 19.364 15.5011 19.4633 15.5013C19.4901 15.5013 19.4303 15.354 19.3709 15.2079C19.3124 15.0637 19.2543 14.9207 19.2805 14.9218C19.3357 14.9242 19.4443 15.0553 19.5533 15.1868C19.6401 15.2916 19.7272 15.3968 19.7877 15.4372C19.8267 15.4633 19.9789 15.4104 20.1199 15.3615C20.2391 15.3201 20.3504 15.2814 20.3785 15.2956C20.4974 15.3556 20.467 15.477 20.438 15.5926C20.4306 15.6223 20.4232 15.6517 20.4186 15.6795C20.4143 15.7048 20.5666 15.606 20.7267 15.5021C20.8949 15.393 21.0718 15.2783 21.0853 15.2956C21.0881 15.2992 21.0912 15.3029 21.0944 15.3068C21.1516 15.3756 21.2437 15.4864 20.5637 16.0105C20.5637 16.1113 20.5673 16.1935 20.5702 16.2603C20.5795 16.4747 20.5819 16.5303 20.4367 16.5303C20.3719 16.5303 20.2814 16.5624 20.1765 16.5995C19.9075 16.6949 19.5443 16.8236 19.2805 16.5303C18.9138 16.1225 18.3514 15.5114 18.3514 15.5114V15.8117L17.6851 15.1354L17.5571 15.5114L16.6605 14.4815L16.4183 14.6165C16.4183 14.6165 17.2436 16.8942 17.6851 16.9101C17.9045 16.918 17.5713 17.1309 17.1301 17.4129C16.6833 17.6984 16.1257 18.0547 15.9183 18.3409C15.8566 18.4261 15.8089 18.2962 15.7724 18.0138C15.7359 18.2962 15.6882 18.4261 15.6265 18.3409C15.4191 18.0547 14.8615 17.6984 14.4148 17.4129C13.9735 17.1309 13.6404 16.918 13.8597 16.9101C14.3012 16.8942 15.1266 14.6165 15.1266 14.6165L14.8844 14.4815L13.9877 15.5114L13.8597 15.1354L13.1934 15.8117V15.5114C13.1934 15.5114 12.631 16.1225 12.2643 16.5303C12.0005 16.8236 11.6373 16.6949 11.3683 16.5995C11.2634 16.5624 11.1729 16.5303 11.1082 16.5303C10.8775 16.5303 10.8003 16.2075 11.1082 15.8117C11.3675 15.4785 11.9074 15.4935 12.3768 15.5065C12.4648 15.509 12.5503 15.5114 12.631 15.5114C13.1422 15.5114 12.631 15.1354 12.631 15.1354L12.8206 15.0523L12.9998 14.9739L12.7564 14.8112H13.4183L13.1934 14.6165L13.9877 13.9043C13.9877 13.9043 12.5648 14.5832 10.6276 12.3317Z" fill="#F6C540"/>
<path fill-rule="evenodd" clip-rule="evenodd" d="M12.433 17.0302L11.5579 15.496C11.5579 15.496 10.4137 12.8579 10.4137 12.5376C10.4137 12.2173 9.95312 11.2688 9.95312 11.5441C9.95312 11.8195 9.95312 12.5376 9.95312 12.5376L11.8836 16.8866V17.2293H12.1436L12.433 17.0302Z" fill="#F6C540"/>
<path d="M19.4419 14.9649L19.575 14.5229L21.2009 15.0128L21.0678 15.4547L19.4419 14.9649Z" fill="#F6C540"/>
<path d="M20.3078 14.1602L20.7475 14.3041L20.3179 15.6821L19.8783 15.5382L20.3078 14.1602Z" fill="#F6C540"/>
<path fill-rule="evenodd" clip-rule="evenodd" d="M20.7173 13.711L20.6228 13.6895L20.5844 13.8415L20.4108 13.7988L20.3894 13.8916L20.5611 13.9338L20.5173 14.107L20.6118 14.1286L20.6552 13.9569L20.8261 13.9988L20.8474 13.9061L20.6785 13.8646L20.7173 13.711Z" fill="#F6C540"/>
<path fill-rule="evenodd" clip-rule="evenodd" d="M15.6944 5.22241L15.7419 5.38822H15.8863L15.9339 5.22241C16.054 5.25858 16.163 5.29972 16.2607 5.34566L16.264 5.30936C17.0359 5.37986 17.4364 5.70294 17.3935 6.27097C17.3579 6.74117 17.1199 6.98751 16.7231 6.9812V7.33241C16.7231 7.33241 16.0769 7.58046 15.7538 7.58046C15.4308 7.58046 14.7846 7.33241 14.7846 7.33241V6.97526C14.4578 6.93485 14.2627 6.69315 14.2308 6.27097C14.1879 5.70294 14.5884 5.37986 15.3602 5.30936L15.3637 5.34747C15.4624 5.30081 15.5727 5.25905 15.6944 5.22241ZM14.8773 6.6667C14.8338 6.67888 14.8032 6.68786 14.7908 6.69155C14.6136 6.65832 14.5271 6.51673 14.507 6.25075C14.4867 5.98184 14.613 5.79475 14.9109 5.68685C14.7077 5.94697 14.6928 6.27785 14.8773 6.6667ZM15.1524 6.59503C15.3153 6.5559 15.5037 6.51699 15.6547 6.50363V5.53295C15.0348 5.75048 14.8859 6.08326 15.1524 6.59503ZM15.9316 6.51235C16.1393 6.53959 16.3915 6.60198 16.5545 6.64588L16.4728 6.60078C16.7494 6.07435 16.589 5.73658 15.9316 5.51863V6.51235ZM16.7189 5.6889C16.9263 5.95593 16.9357 6.29729 16.7351 6.69918C16.9794 6.70285 17.0937 6.56193 17.1173 6.25075C17.1375 5.98353 17.0128 5.79711 16.7189 5.6889Z" fill="#F6C540"/>
<path fill-rule="evenodd" clip-rule="evenodd" d="M15.7539 5.51896C15.9323 5.51896 16.0769 5.37431 16.0769 5.19588C16.0769 5.01745 15.9323 4.8728 15.7539 4.8728C15.5754 4.8728 15.4308 5.01745 15.4308 5.19588C15.4308 5.37431 15.5754 5.51896 15.7539 5.51896Z" fill="#3D58DB"/>
<path fill-rule="evenodd" clip-rule="evenodd" d="M15.7989 4.49821L15.702 4.50017L15.7015 4.65696L15.5226 4.6576L15.5244 4.75278L15.7012 4.75215L15.7006 4.93087L15.7975 4.9289L15.7981 4.75181L15.974 4.75118L15.9723 4.656L15.7984 4.65662L15.7989 4.49821Z" fill="#F6C540"/>
<path fill-rule="evenodd" clip-rule="evenodd" d="M13.9539 10.3595C13.9539 10.3595 15.0916 10.1448 15.7077 10.1448C16.2608 10.1448 17.4616 10.3595 17.4616 10.3595C17.4616 11.7195 17.8443 12.5522 17.4616 13.4811C17.0788 14.41 16.1435 13.9635 15.7202 14.8524C15.1792 14.0092 14.4486 14.4734 13.9539 13.2727C13.4592 12.0721 14.2546 11.5191 13.9539 10.3595Z" fill="#1E5E91"/>
<mask id="mask2_1957_20289" style="mask-type:luminance" maskUnits="userSpaceOnUse" x="13" y="10" width="5" height="5">
<path fill-rule="evenodd" clip-rule="evenodd" d="M13.9539 10.3595C13.9539 10.3595 15.0916 10.1448 15.7077 10.1448C16.2608 10.1448 17.4616 10.3595 17.4616 10.3595C17.4616 11.7195 17.8443 12.5522 17.4616 13.4811C17.0788 14.41 16.1435 13.9635 15.7202 14.8524C15.1792 14.0092 14.4486 14.4734 13.9539 13.2727C13.4592 12.0721 14.2546 11.5191 13.9539 10.3595Z" fill="white"/>
</mask>
<g mask="url(#mask2_1957_20289)">
<rect x="13.9539" y="13.1973" width="3.50769" height="1.7027" fill="#5EAA22"/>
<path fill-rule="evenodd" clip-rule="evenodd" d="M14.991 11.0297C14.857 10.7448 15.6953 10.7117 15.6953 10.7117C15.6953 10.7117 15.8761 11.0297 15.6953 11.4822C15.5638 11.8112 15.7831 11.7819 16.0857 11.7414C16.1991 11.7262 16.3243 11.7095 16.4471 11.7095C16.6351 11.7095 16.7341 11.6957 16.8163 11.7266C16.9309 11.7696 17.0128 11.8994 17.2579 12.2743C17.3698 12.4454 17.3649 12.5581 17.2974 12.6255C17.3032 12.7997 17.1136 12.944 16.7635 13.0364L16.7174 12.8532C16.9027 12.8043 17.0161 12.7576 17.0688 12.7059C16.8048 12.722 16.4471 12.5915 16.4471 12.4239C16.4471 12.176 15.6021 12.2282 15.0937 12.2596C14.9641 12.2676 14.8565 12.2743 14.7901 12.2743C14.4944 12.2743 14.7211 11.9129 14.9275 11.584C14.9491 11.5495 14.9705 11.5154 14.991 11.4822C15.097 11.3104 15.1314 11.2666 15.1231 11.2333C15.1145 11.1985 15.0595 11.1752 14.991 11.0297ZM17.0021 10.9856C16.4956 10.9052 16.2115 10.9829 16.2115 11.2663C16.2115 11.5361 16.4811 11.6531 16.9742 11.6513C16.9934 11.6575 17.0103 11.6637 17.0247 11.6697C17.0063 11.6784 16.9838 11.6877 16.9574 11.6972L17.0186 11.8756C17.3296 11.7635 17.3296 11.564 17.0148 11.4661L17.0013 11.4619L16.9872 11.462C16.5773 11.4654 16.3961 11.3885 16.3961 11.2663C16.3961 11.1552 16.5681 11.1081 16.9739 11.1725L17.0021 10.9856Z" fill="#F6C540"/>
</g>
</g>
</g>
</svg>
