<svg width="32" height="24" viewBox="0 0 32 24" fill="none" xmlns="http://www.w3.org/2000/svg">
<mask id="mask0_1957_20299" style="mask-type:luminance" maskUnits="userSpaceOnUse" x="0" y="0" width="32" height="24">
<rect width="32" height="24" fill="white"/>
</mask>
<g mask="url(#mask0_1957_20299)">
<path fill-rule="evenodd" clip-rule="evenodd" d="M0 0V24H32V0H0Z" fill="#1C9975"/>
<mask id="mask1_1957_20299" style="mask-type:luminance" maskUnits="userSpaceOnUse" x="0" y="0" width="32" height="24">
<path fill-rule="evenodd" clip-rule="evenodd" d="M0 0V24H32V0H0Z" fill="white"/>
</mask>
<g mask="url(#mask1_1957_20299)">
<path fill-rule="evenodd" clip-rule="evenodd" d="M15.9026 7.93457L14.7755 8.61498L15.0326 7.28722L14.094 6.29353L15.3649 6.2398L15.9026 5L16.4403 6.2398H17.709L16.7726 7.28722L17.0545 8.61498L15.9026 7.93457Z" fill="#FECA00"/>
<path fill-rule="evenodd" clip-rule="evenodd" d="M12.7021 8.43877L12.0052 8.85948L12.1642 8.0385L11.5839 7.42408L12.3697 7.39086L12.7021 6.62427L13.0346 7.39086H13.8191L13.2401 8.0385L13.4144 8.85948L12.7021 8.43877Z" fill="#FECA00"/>
<path fill-rule="evenodd" clip-rule="evenodd" d="M19.048 8.43877L18.3511 8.85948L18.51 8.0385L17.9297 7.42408L18.7155 7.39086L19.048 6.62427L19.3804 7.39086H20.1649L19.5859 8.0385L19.7602 8.85948L19.048 8.43877Z" fill="#FECA00"/>
<path fill-rule="evenodd" clip-rule="evenodd" d="M10.8974 9.83621L10.3381 10.1738L10.4657 9.51501L10 9.02195L10.6306 8.99529L10.8974 8.38013L11.1642 8.99529H11.7937L11.3291 9.51501L11.4689 10.1738L10.8974 9.83621Z" fill="#FECA00"/>
<path fill-rule="evenodd" clip-rule="evenodd" d="M21.1037 9.83621L20.5444 10.1738L20.672 9.51501L20.2063 9.02195L20.8369 8.99529L21.1037 8.38013L21.3705 8.99529H22L21.5354 9.51501L21.6752 10.1738L21.1037 9.83621Z" fill="#FECA00"/>
<mask id="mask2_1957_20299" style="mask-type:luminance" maskUnits="userSpaceOnUse" x="10" y="7" width="12" height="12">
<path fill-rule="evenodd" clip-rule="evenodd" d="M15.8876 18.3836C18.9357 18.3836 21.4066 15.9126 21.4066 12.8645C21.4066 9.81642 18.9357 7.34546 15.8876 7.34546C12.8395 7.34546 10.3685 9.81642 10.3685 12.8645C10.3685 15.9126 12.8395 18.3836 15.8876 18.3836Z" fill="white"/>
</mask>
<g mask="url(#mask2_1957_20299)">
<path fill-rule="evenodd" clip-rule="evenodd" d="M13.5979 17.7378H18.1775V18.4776H13.5979V17.7378Z" fill="#F7FCFF"/>
<path fill-rule="evenodd" clip-rule="evenodd" d="M11.719 16.6313H20.526V17.3095H11.719V16.6313Z" fill="#F7FCFF"/>
<path d="M13.556 16.3284H10.8622V15.6385L13.5511 15.6385C14.5036 15.6251 15.1997 15.3531 15.6641 14.8297L15.8955 14.5688L16.1538 14.8031C16.774 15.3654 17.3936 15.6385 18.0203 15.6385H20.9898V16.3284H18.0203C17.3003 16.3284 16.6052 16.0575 15.9405 15.5272C15.3518 16.049 14.5525 16.3144 13.556 16.3284Z" fill="#F7FCFF"/>
</g>
<path fill-rule="evenodd" clip-rule="evenodd" d="M15.9116 8.45483C15.9116 8.45483 14.7327 9.61935 14.7327 11.2175C14.7327 11.5594 14.7867 11.8824 14.8715 12.179C14.4919 11.3373 14.4656 10.4247 14.7934 9.42923L14.3472 9.28235C14.0138 10.2952 14.0123 11.2474 14.3433 12.1299C13.6585 11.7173 12.8707 11.4401 12.062 11.3507L12.0104 11.8175C12.7169 11.8956 13.4064 12.1312 14.0119 12.4798C13.8626 12.4196 13.706 12.3673 13.5427 12.3256C12.0505 11.9448 10.5865 12.4848 10.5865 12.4848C10.5865 12.4848 11.431 14.3793 13.0667 14.6587C13.1479 14.6726 13.2283 14.6834 13.3076 14.6914L13.296 14.6915C12.5161 14.6915 11.7909 14.3726 11.1118 13.7249L10.7876 14.0647C11.5504 14.7923 12.3894 15.1612 13.296 15.1612C14.1825 15.1612 15.0059 14.8085 15.7582 14.1126C15.8791 14.0396 15.9499 13.9873 15.9612 13.9788L15.9908 14.0039C15.9753 14.0306 15.9675 14.0451 15.9675 14.0451C15.9675 14.0451 16.0417 14.09 16.1755 14.1533C16.9184 14.7291 17.8479 15.1612 18.5834 15.1612C19.49 15.1612 20.329 14.7924 21.0917 14.0648L20.7675 13.7249C20.0884 14.3727 19.3632 14.6915 18.5834 14.6915C18.2985 14.6915 18.0193 14.6458 17.7454 14.5536C18.1289 14.5743 18.5513 14.5397 18.9886 14.406C20.5998 13.9134 21.2714 12.4235 21.2714 12.4235C21.2714 12.4235 20.4144 11.9611 19.3259 11.9558C19.5697 11.8929 19.8241 11.8469 20.0894 11.8175L20.0378 11.3507C19.0165 11.4636 18.133 11.8083 17.3918 12.3835C17.8252 11.4307 17.8587 10.3929 17.4931 9.28235L17.0469 9.42923C17.3457 10.3366 17.3503 11.1752 17.0613 11.9539C17.1108 11.7236 17.14 11.4776 17.14 11.2175C17.14 9.53273 15.9116 8.45483 15.9116 8.45483ZM16.4302 13.3859L16.4132 13.4103L16.4339 13.3856L16.4302 13.3859ZM15.2909 13.2758L15.337 13.2334C15.3789 13.303 15.4207 13.3685 15.4615 13.4297C15.4085 13.3798 15.3516 13.3282 15.2909 13.2758Z" fill="#F7FCFF"/>
</g>
</g>
</svg>
