<svg width="32" height="24" viewBox="0 0 32 24" fill="none" xmlns="http://www.w3.org/2000/svg">
<mask id="mask0_1957_20212" style="mask-type:luminance" maskUnits="userSpaceOnUse" x="0" y="0" width="32" height="24">
<rect width="32" height="24" fill="white"/>
</mask>
<g mask="url(#mask0_1957_20212)">
<path fill-rule="evenodd" clip-rule="evenodd" d="M0 0H34V24H0V0Z" fill="#2993EC"/>
<path fill-rule="evenodd" clip-rule="evenodd" d="M6.21277 11.5833C6.21277 16.8761 10.5947 21.1667 16 21.1667C21.4053 21.1667 25.7872 16.8761 25.7872 11.5833C25.7872 6.2906 21.4053 2 16 2C10.5947 2 6.21277 6.2906 6.21277 11.5833ZM23.6596 11.5833C23.6596 15.7255 20.2303 19.0833 16 19.0833C11.7697 19.0833 8.34043 15.7255 8.34043 11.5833C8.34043 7.4412 11.7697 4.08333 16 4.08333C20.2303 4.08333 23.6596 7.4412 23.6596 11.5833Z" fill="#F1F9FF"/>
<path fill-rule="evenodd" clip-rule="evenodd" d="M7.06384 11.5833C7.06384 16.4157 11.0647 20.3333 16 20.3333C20.9353 20.3333 24.9362 16.4157 24.9362 11.5833C24.9362 6.75076 20.9353 2.83325 16 2.83325C11.0647 2.83325 7.06384 6.75076 7.06384 11.5833ZM24.5107 11.5833C24.5107 16.1856 20.7003 19.9166 16 19.9166C11.2997 19.9166 7.48937 16.1856 7.48937 11.5833C7.48937 6.98088 11.2997 3.24992 16 3.24992C20.7003 3.24992 24.5107 6.98088 24.5107 11.5833Z" fill="#E31D1C"/>
<path fill-rule="evenodd" clip-rule="evenodd" d="M16 2.20825C15.8921 2.43093 15.8382 2.74735 15.8382 3.15752C15.8382 3.56769 15.6793 3.97828 15.3617 4.38928C15.3027 3.93678 15.2732 3.52619 15.2732 3.15752C15.2732 2.78885 15.5154 2.47243 16 2.20825ZM18.2362 2.54687C18.081 2.73957 17.9573 3.03575 17.865 3.43541C17.7727 3.83507 17.5256 4.19941 17.1237 4.52842C17.168 4.07424 17.2316 3.66754 17.3145 3.30832C17.3974 2.9491 17.7047 2.69528 18.2362 2.54687ZM19.773 4.16779C19.9592 3.80233 20.1509 3.54488 20.3481 3.39545C19.7965 3.41086 19.4369 3.58281 19.2696 3.9113C19.1022 4.23978 18.9421 4.61901 18.7892 5.04898C19.2588 4.82699 19.5868 4.53326 19.773 4.16779ZM22.1912 4.68391C21.9654 4.78515 21.7207 4.99287 21.457 5.30708C21.1934 5.62129 20.8078 5.83373 20.3002 5.94439C20.5459 5.55983 20.7872 5.22634 21.0242 4.94392C21.2612 4.6615 21.6502 4.57483 22.1912 4.68391ZM22.8279 6.79601C23.1555 6.54917 23.4407 6.40182 23.6834 6.35396C23.1808 6.12598 22.7823 6.12293 22.4879 6.3448C22.1935 6.56667 21.8833 6.83733 21.5574 7.15677C22.0769 7.16311 22.5003 7.04286 22.8279 6.79601ZM24.7466 8.33616C24.4994 8.32387 24.1871 8.39786 23.8095 8.55812C23.432 8.71839 22.9919 8.73262 22.4895 8.60081C22.883 8.36969 23.2494 8.1821 23.5888 8.03805C23.9281 7.894 24.3141 7.99337 24.7466 8.33616ZM24.3524 10.4908C24.7564 10.4196 25.0773 10.4178 25.3154 10.4853C24.9711 10.054 24.6174 9.8704 24.2543 9.93442C23.8912 9.99844 23.492 10.0988 23.0566 10.2355C23.5166 10.4769 23.9485 10.562 24.3524 10.4908ZM6.08398 9.76958C6.28454 9.91448 6.58679 10.0225 6.99073 10.0938C7.39467 10.165 7.77144 10.3927 8.12104 10.7769C7.66517 10.7564 7.2557 10.7142 6.89263 10.6502C6.52955 10.5862 6.26001 10.2926 6.08398 9.76958ZM7.62116 8.187C7.24359 8.02674 6.9734 7.85345 6.81058 7.66714C6.86443 8.21638 7.06104 8.56302 7.4004 8.70707C7.73977 8.85112 8.12924 8.9844 8.56883 9.1069C8.31461 8.6539 7.99873 8.34727 7.62116 8.187ZM8.02712 5.77351C8.14003 5.99368 8.36028 6.22718 8.68786 6.47403C9.01544 6.72088 9.24776 7.09482 9.38483 7.59586C8.98794 7.37066 8.64228 7.14712 8.34784 6.92525C8.05341 6.70337 7.9465 6.31946 8.02712 5.77351ZM10.125 5.04793C9.86132 4.73372 9.69925 4.45666 9.63876 4.21674C9.43739 4.73056 9.4552 5.12868 9.69218 5.4111C9.92915 5.69352 10.2157 5.98908 10.5517 6.2978C10.5309 5.77876 10.3886 5.36214 10.125 5.04793ZM11.5726 3.06549C11.5776 3.31287 11.6732 3.61929 11.8594 3.98476C12.0456 4.35022 12.0905 4.78817 11.9941 5.29858C11.7361 4.92219 11.5234 4.56974 11.356 4.24125C11.1886 3.91276 11.2608 3.52084 11.5726 3.06549ZM13.801 3.34472C13.7087 2.94506 13.6901 2.62461 13.7451 2.38338C13.3324 2.74978 13.1675 3.11259 13.2505 3.47181C13.3334 3.83104 13.4545 4.22446 13.6138 4.6521C13.8308 4.18017 13.8932 3.74438 13.801 3.34472Z" fill="#FDDA33"/>
<path fill-rule="evenodd" clip-rule="evenodd" d="M14.5862 5.75C14.2194 5.75 13.9466 6.089 14.025 6.44728L14.4118 8.21501C14.4458 8.37032 14.5408 8.49935 14.6683 8.57918C14.5507 8.67059 14.4691 8.80708 14.4503 8.96483L13.0628 20.6104C13.0373 20.824 13.1329 21.0334 13.3197 21.1402C13.8419 21.4388 14.9742 22 16.1064 22C17.2387 22 18.3709 21.4388 18.8931 21.1402C19.0799 21.0334 19.1755 20.824 19.1501 20.6104L17.7625 8.96483C17.7437 8.80708 17.6621 8.67059 17.5446 8.57918C17.672 8.49935 17.767 8.37032 17.801 8.21501L18.1879 6.44728C18.2663 6.089 17.9934 5.75 17.6267 5.75H14.5862Z" fill="#A7A7A7"/>
<path d="M6.51928 12.0129C6.57086 11.8479 6.7493 11.755 6.91785 11.8055C7.08639 11.856 7.18122 12.0307 7.12964 12.1958C7.04041 12.4813 7.04041 12.9031 7.13885 13.4548C7.17661 13.6665 7.2215 13.8299 7.27672 13.9743C7.29871 14.0318 7.32146 14.0844 7.35185 14.1497C7.33831 14.1207 7.41249 14.2782 7.43053 14.319C7.52592 14.5349 7.5681 14.7241 7.5681 15.0013C7.5681 15.1739 7.42522 15.3138 7.24895 15.3138C7.07269 15.3138 6.92981 15.1739 6.92981 15.0013C6.92981 14.8119 6.90636 14.7067 6.84471 14.5672C6.83018 14.5343 6.76089 14.3872 6.77098 14.4089C6.73497 14.3314 6.70676 14.2662 6.67896 14.1935C6.60968 14.0123 6.55453 13.8116 6.51007 13.5624C6.39587 12.9222 6.39587 12.4078 6.51928 12.0129Z" fill="#73BE4A"/>
<path fill-rule="evenodd" clip-rule="evenodd" d="M16.2128 16.1791L12.0983 18.9826L13.5498 14.2846L9.55537 11.3194L14.567 11.2194L16.2128 6.58325L17.8586 11.2194L22.8702 11.3194L18.8757 14.2846L20.3273 18.9826L16.2128 16.1791Z" fill="#F7FCFF"/>
<path d="M25.5595 12.4294C25.5079 12.2644 25.3294 12.1715 25.1609 12.222C24.9923 12.2725 24.8975 12.4472 24.9491 12.6123C25.0383 12.8978 25.0383 13.3196 24.9399 13.8714C24.9021 14.083 24.8572 14.2464 24.802 14.3908C24.78 14.4483 24.7573 14.5009 24.7269 14.5663C24.7404 14.5372 24.6662 14.6947 24.6482 14.7356C24.5528 14.9514 24.5106 15.1406 24.5106 15.4178C24.5106 15.5904 24.6535 15.7303 24.8298 15.7303C25.006 15.7303 25.1489 15.5904 25.1489 15.4178C25.1489 15.2284 25.1724 15.1232 25.234 14.9837C25.2486 14.9508 25.3178 14.8037 25.3078 14.8254C25.3438 14.7479 25.372 14.6827 25.3998 14.61C25.4691 14.4288 25.5242 14.2281 25.5687 13.9789C25.6829 13.3388 25.6829 12.8243 25.5595 12.4294Z" fill="#73BE4A"/>
<path d="M16.0608 3.14771C16.0608 3.14771 17.2252 3.66644 16.7223 4.48319" stroke="#73BE4A" stroke-linecap="round" stroke-linejoin="round"/>
<path d="M16.9119 3.14771C16.9119 3.14771 18.0762 3.66644 17.5734 4.48319" stroke="#73BE4A" stroke-linecap="round" stroke-linejoin="round"/>
<path d="M9.2598 6.35669C9.34422 6.21057 9.52153 6.16657 9.65584 6.25841C9.79015 6.35026 9.83059 6.54317 9.74617 6.68929C9.5842 6.96964 9.49988 7.35429 9.49988 7.84749C9.49988 8.02007 9.37128 8.15999 9.21265 8.15999C9.05401 8.15999 8.92542 8.02007 8.92542 7.84749C8.92542 7.24474 9.03466 6.74639 9.2598 6.35669Z" fill="#73BE4A"/>
<path d="M8.80848 9.21258C8.80848 9.38517 8.67988 9.52508 8.52124 9.52508C8.36261 9.52508 8.23401 9.38517 8.23401 9.21258V8.32241C8.23401 7.69254 8.33281 7.19651 8.54113 6.83428C8.62528 6.68797 8.80251 6.64358 8.93699 6.73513C9.07147 6.82667 9.11227 7.01949 9.02813 7.1658C8.88527 7.4142 8.80848 7.79974 8.80848 8.32241V9.21258Z" fill="#73BE4A"/>
<path d="M23.4841 8.79583C23.4841 8.96842 23.6127 9.10833 23.7714 9.10833C23.93 9.10833 24.0586 8.96842 24.0586 8.79583V7.90566C24.0586 7.2758 23.9598 6.77977 23.7515 6.41753C23.6673 6.27123 23.4901 6.22683 23.3556 6.31838C23.2211 6.40993 23.1803 6.60275 23.2645 6.74905C23.4073 6.99745 23.4841 7.383 23.4841 7.90566V8.79583Z" fill="#73BE4A"/>
<path d="M24.3352 10.2541C24.3352 10.4267 24.4638 10.5666 24.6224 10.5666C24.7811 10.5666 24.9097 10.4267 24.9097 10.2541V9.36391C24.9097 8.73405 24.8109 8.23802 24.6025 7.87579C24.5184 7.72948 24.3412 7.68508 24.2067 7.77663C24.0722 7.86818 24.0314 8.061 24.1155 8.20731C24.2584 8.4557 24.3352 8.84125 24.3352 9.36391V10.2541Z" fill="#73BE4A"/>
</g>
</svg>
