<svg width="32" height="24" viewBox="0 0 32 24" fill="none" xmlns="http://www.w3.org/2000/svg">
<mask id="mask0_1957_20378" style="mask-type:luminance" maskUnits="userSpaceOnUse" x="0" y="0" width="32" height="24">
<rect width="32" height="24" fill="white"/>
</mask>
<g mask="url(#mask0_1957_20378)">
<path fill-rule="evenodd" clip-rule="evenodd" d="M0 0V24H32V0H0Z" fill="#2A7A54"/>
<mask id="mask1_1957_20378" style="mask-type:luminance" maskUnits="userSpaceOnUse" x="0" y="0" width="32" height="24">
<path fill-rule="evenodd" clip-rule="evenodd" d="M0 0V24H32V0H0Z" fill="white"/>
</mask>
<g mask="url(#mask1_1957_20378)">
<path fill-rule="evenodd" clip-rule="evenodd" d="M0 0V6H32V0H0Z" fill="#D83332"/>
<path fill-rule="evenodd" clip-rule="evenodd" d="M0 18V24H32V18H0Z" fill="#D83332"/>
<path fill-rule="evenodd" clip-rule="evenodd" d="M16 14.5268C20.2914 14.5488 21.5 11.2181 21.5 11.2181C21.2569 14.0676 19.5565 16 16 16C12.4435 16 11.1376 13.4969 10.5 11C10.5 11 11.7086 14.5048 16 14.5268Z" fill="#F3CC35"/>
<path fill-rule="evenodd" clip-rule="evenodd" d="M16.1297 11.7846C16.0781 11.757 16.0158 11.7579 15.965 11.7871L14.7652 12.4768C14.6302 12.5544 14.4707 12.4243 14.5197 12.2765L14.9023 11.1209C14.9232 11.0577 14.9052 10.9882 14.8563 10.943L14.0549 10.2028C13.9425 10.0991 14.014 9.91139 14.1669 9.90862L15.2763 9.88849C15.3426 9.88729 15.4022 9.84749 15.4287 9.78664L15.9448 8.60187C16.0051 8.46344 16.2026 8.46689 16.258 8.60734L16.7309 9.80539C16.7561 9.86916 16.8171 9.91151 16.8857 9.91271L17.9819 9.93184C18.1354 9.93452 18.2067 10.1236 18.0931 10.2269L17.2652 10.98C17.2144 11.0262 17.1965 11.0985 17.2198 11.163L17.6086 12.2417C17.6614 12.3879 17.506 12.5221 17.369 12.4487L16.1297 11.7846Z" fill="#F3CC35"/>
</g>
</g>
</svg>
