<svg width="32" height="24" viewBox="0 0 32 24" fill="none" xmlns="http://www.w3.org/2000/svg">
<mask id="mask0_1957_20303" style="mask-type:luminance" maskUnits="userSpaceOnUse" x="0" y="0" width="32" height="24">
<rect width="32" height="24" fill="white"/>
</mask>
<g mask="url(#mask0_1957_20303)">
<path fill-rule="evenodd" clip-rule="evenodd" d="M0 0V24H32V0H0Z" fill="#2E42A5"/>
<mask id="mask1_1957_20303" style="mask-type:luminance" maskUnits="userSpaceOnUse" x="0" y="0" width="32" height="24">
<path fill-rule="evenodd" clip-rule="evenodd" d="M0 0V24H32V0H0Z" fill="white"/>
</mask>
<g mask="url(#mask1_1957_20303)">
<path d="M25.9286 21.714C24.633 21.714 23.7227 21.4192 23.0724 20.8991C22.4211 20.378 21.9987 19.6054 21.7298 18.5867C21.4603 17.5658 21.3505 16.3187 21.3095 14.8735C21.2807 13.8576 21.286 12.755 21.2917 11.5733C21.2938 11.153 21.2958 10.7227 21.2965 10.2827H30.6715C30.8388 13.191 30.9026 16.0355 30.3092 18.1685C30.0059 19.2588 29.5364 20.141 28.8409 20.7507C28.1498 21.3565 27.2119 21.714 25.9286 21.714Z" fill="#6DC2FF" stroke="#F7FCFF" stroke-width="0.5"/>
<mask id="mask2_1957_20303" style="mask-type:luminance" maskUnits="userSpaceOnUse" x="21" y="10" width="11" height="12">
<path d="M25.9286 21.714C24.633 21.714 23.7227 21.4192 23.0724 20.8991C22.4211 20.378 21.9987 19.6054 21.7298 18.5867C21.4603 17.5658 21.3505 16.3187 21.3095 14.8735C21.2807 13.8576 21.286 12.755 21.2917 11.5733C21.2938 11.153 21.2958 10.7227 21.2965 10.2827H30.6715C30.8388 13.191 30.9026 16.0355 30.3092 18.1685C30.0059 19.2588 29.5364 20.141 28.8409 20.7507C28.1498 21.3565 27.2119 21.714 25.9286 21.714Z" fill="white" stroke="white" stroke-width="0.5"/>
</mask>
<g mask="url(#mask2_1957_20303)">
<rect x="20.9325" y="10" width="10.07" height="7.97838" fill="#2EBED7"/>
<rect x="20.8" y="17.9136" width="10.6" height="4.08649" fill="#A95601"/>
<path d="M26.7458 13.4637C26.7458 13.4637 24.8787 13.8872 25.0592 13.4637C25.2398 13.0402 25.7226 11.5132 25.7226 11.5132" stroke="#FFC6B5"/>
<path fill-rule="evenodd" clip-rule="evenodd" d="M27.3073 13.7657C27.3073 13.7657 26.9667 13.557 26.9667 13.1769C26.9667 12.7967 26.136 12.6545 26.7216 12.0606C27.3073 11.4666 27.56 11.7282 27.56 12.0606C27.56 12.3929 28.0308 13.1769 28.0308 13.1769L27.3073 13.7657Z" fill="#FFC6B5"/>
<path fill-rule="evenodd" clip-rule="evenodd" d="M26.365 10.3242H25.4375V11.2323H23.5825V12.1404H25.4375V20.0539H26.365V12.1404H28.22V11.2323H26.365V10.3242Z" fill="#292B2E"/>
<path fill-rule="evenodd" clip-rule="evenodd" d="M28.3621 20.3211C28.3621 20.3211 28.0247 18.7596 28.0247 17.6907C28.0247 16.6218 27.4592 15.8572 27.6208 15.292C27.7824 14.7267 28.1714 14.1017 27.9769 13.7148C27.7824 13.3279 28.1667 13.1395 27.6208 13.3279C27.0749 13.5162 26.9281 13.1395 26.4011 13.3279C25.874 13.5162 25.8073 14.4056 25.8073 14.6594C25.8073 14.9131 26.0416 16.6238 26.0416 17.1572C26.0416 17.6907 25.8485 20.9709 26.4011 20.9709C26.9536 20.9709 27.556 20.1173 27.7665 20.1173C27.9769 20.1173 28.3621 20.3211 28.3621 20.3211Z" fill="#0C7C38"/>
<path fill-rule="evenodd" clip-rule="evenodd" d="M25.0299 16.1414C24.693 16.1414 25.0028 16.9238 24.1458 17.2668C23.2887 17.6099 23.1205 18.093 23.3905 18.093C23.6604 18.093 25.7952 20.4915 25.7952 20.4915L26.3187 19.6822V17.1267C26.3187 17.1267 25.3667 16.1414 25.0299 16.1414Z" stroke="#FF9A06"/>
<path d="M27.5432 20.1577C27.5432 20.1577 27.9432 21.0161 27.5432 21.0161" stroke="#979797"/>
<path d="M27.4145 13.79C27.4145 13.79 27.2387 14.7529 26.9042 14.9545C26.5696 15.156 25.1951 15.5463 25.1951 15.8795C25.1951 16.2127 25.0587 16.3318 25.0587 16.3318" stroke="#FFC6B5"/>
<path fill-rule="evenodd" clip-rule="evenodd" d="M26.7479 11.8025C26.7479 11.8025 27.0843 12.2022 27.2726 12.8611C27.4609 13.5199 28.0064 13.7444 28.0064 13.436C28.0064 13.1276 28.4097 11.8025 28.0064 11.8025C27.6031 11.8025 26.7479 11.8025 26.7479 11.8025Z" fill="#FF9A06"/>
</g>
<rect width="18" height="14" fill="#2B409A"/>
<mask id="mask3_1957_20303" style="mask-type:luminance" maskUnits="userSpaceOnUse" x="0" y="0" width="18" height="14">
<rect width="18" height="14" fill="white"/>
</mask>
<g mask="url(#mask3_1957_20303)">
<path d="M-2.00427 12.9999L1.95668 14.7371L18.0899 1.88878L20.1792 -0.692749L15.9435 -1.27337L9.36317 4.26332L4.06667 7.99375L-2.00427 12.9999Z" fill="#F7FCFF"/>
<path d="M-1.46204 14.217L0.555885 15.2251L19.4289 -0.932617H16.5955L-1.46204 14.217Z" fill="#E31D1C"/>
<path d="M20.0043 12.9999L16.0433 14.7371L-0.0898743 1.88878L-2.17919 -0.692749L2.05648 -1.27337L8.63683 4.26332L13.9333 7.99375L20.0043 12.9999Z" fill="#F7FCFF"/>
<path d="M19.8691 13.8732L17.8512 14.8813L9.81489 7.96339L7.43229 7.19046L-2.3802 -0.684069H0.453194L10.2602 7.00356L12.8651 7.93038L19.8691 13.8732Z" fill="#E31D1C"/>
<mask id="path-22-outside-1_1957_20303" maskUnits="userSpaceOnUse" x="-2" y="-2" width="22" height="18" fill="black">
<rect fill="white" x="-2" y="-2" width="22" height="18"/>
<path fill-rule="evenodd" clip-rule="evenodd" d="M9.98451 0H7.98451V6H0V8H7.98451V14H9.98451V8H18V6H9.98451V0Z"/>
</mask>
<path fill-rule="evenodd" clip-rule="evenodd" d="M9.98451 0H7.98451V6H0V8H7.98451V14H9.98451V8H18V6H9.98451V0Z" fill="#E31D1C"/>
<path d="M7.98451 0V-1.5H6.48451V0H7.98451ZM9.98451 0H11.4845V-1.5H9.98451V0ZM7.98451 6V7.5H9.48451V6H7.98451ZM0 6V4.5H-1.5V6H0ZM0 8H-1.5V9.5H0V8ZM7.98451 8H9.48451V6.5H7.98451V8ZM7.98451 14H6.48451V15.5H7.98451V14ZM9.98451 14V15.5H11.4845V14H9.98451ZM9.98451 8V6.5H8.48451V8H9.98451ZM18 8V9.5H19.5V8H18ZM18 6H19.5V4.5H18V6ZM9.98451 6H8.48451V7.5H9.98451V6ZM7.98451 1.5H9.98451V-1.5H7.98451V1.5ZM9.48451 6V0H6.48451V6H9.48451ZM0 7.5H7.98451V4.5H0V7.5ZM1.5 8V6H-1.5V8H1.5ZM7.98451 6.5H0V9.5H7.98451V6.5ZM9.48451 14V8H6.48451V14H9.48451ZM9.98451 12.5H7.98451V15.5H9.98451V12.5ZM8.48451 8V14H11.4845V8H8.48451ZM18 6.5H9.98451V9.5H18V6.5ZM16.5 6V8H19.5V6H16.5ZM9.98451 7.5H18V4.5H9.98451V7.5ZM8.48451 0V6H11.4845V0H8.48451Z" fill="#F7FCFF" mask="url(#path-22-outside-1_1957_20303)"/>
</g>
</g>
</g>
</svg>
