<svg width="32" height="24" viewBox="0 0 32 24" fill="none" xmlns="http://www.w3.org/2000/svg">
<mask id="mask0_1957_20398" style="mask-type:luminance" maskUnits="userSpaceOnUse" x="0" y="0" width="32" height="24">
<rect width="32" height="24" fill="white"/>
</mask>
<g mask="url(#mask0_1957_20398)">
<path fill-rule="evenodd" clip-rule="evenodd" d="M0 0V24H32V0H0Z" fill="#E11C1B"/>
<mask id="mask1_1957_20398" style="mask-type:luminance" maskUnits="userSpaceOnUse" x="0" y="0" width="32" height="24">
<path fill-rule="evenodd" clip-rule="evenodd" d="M0 0V24H32V0H0Z" fill="white"/>
</mask>
<g mask="url(#mask1_1957_20398)">
<path fill-rule="evenodd" clip-rule="evenodd" d="M0 0V10H32V0H0Z" fill="#292B2E"/>
<path fill-rule="evenodd" clip-rule="evenodd" d="M0 16V24H32V16H0Z" fill="#5EAA22"/>
<path fill-rule="evenodd" clip-rule="evenodd" d="M4.00167 11.946V11.9435L3.99231 11.9451L4.00167 11.946ZM4.63012 8.1269H4.73311L4.57526 8.10273L4.63012 8.1269ZM7.55764 8.1269C7.61 8.02626 7.66466 7.92671 7.72157 7.82829L5.43213 6.31278L8.13251 7.19122C8.28353 6.98003 8.44545 6.77527 8.61759 6.57753L6.63318 4.68821L9.16201 6.00784C9.34753 5.8307 9.54197 5.66067 9.74472 5.49827L8.13983 3.28122L10.4064 5.01512C10.6172 4.87497 10.8351 4.74237 11.0596 4.61779L9.90363 2.13705L11.8183 4.23876C12.0465 4.13674 12.2801 4.04256 12.5187 3.95663L11.8679 1.29245L13.3505 3.69641C13.5891 3.63262 13.8319 3.57682 14.0783 3.52939L13.9695 0.774589L14.9557 3.39799C15.1992 3.37174 15.4455 3.35354 15.6945 3.34371L16.1409 0.600098L16.5875 3.34451C16.8362 3.35478 17.0823 3.3734 17.3254 3.40005L18.3123 0.774589L18.2034 3.53318C18.449 3.58092 18.6908 3.63696 18.9286 3.70094L20.414 1.29245L19.7615 3.96318C19.9988 4.0491 20.231 4.14319 20.4579 4.24503L22.3782 2.13705L21.2182 4.6265C21.4409 4.75062 21.6571 4.88266 21.8663 5.02214L24.142 3.28122L22.5299 5.50828C22.7307 5.66969 22.9233 5.8386 23.1071 6.01449L25.6487 4.68821L23.6535 6.5878C23.8237 6.78399 23.9839 6.98705 24.1334 7.19642L26.8497 6.31278L24.546 7.83774C24.601 7.93307 24.6538 8.02948 24.7045 8.1269H22.7396C21.3855 6.2499 18.9106 4.99327 16.0818 4.99327C13.2531 4.99327 10.7782 6.2499 9.42409 8.1269H7.55764ZM10.5597 8.1269C11.8426 6.80372 13.857 5.95116 16.122 5.95116C18.3871 5.95116 20.4015 6.80372 21.6844 8.1269H10.5597ZM27.5488 8.1269H27.6517L27.7066 8.10273L27.5488 8.1269ZM28.2816 11.9438L28.2896 11.9451L28.2816 11.9458V11.9438Z" fill="#E11C1B"/>
</g>
</g>
</svg>
