<svg width="32" height="24" viewBox="0 0 32 24" fill="none" xmlns="http://www.w3.org/2000/svg">
<mask id="mask0_1957_20273" style="mask-type:luminance" maskUnits="userSpaceOnUse" x="0" y="0" width="32" height="24">
<rect width="32" height="24" fill="white"/>
</mask>
<g mask="url(#mask0_1957_20273)">
<path fill-rule="evenodd" clip-rule="evenodd" d="M0 0V24H32V0H0Z" fill="#E31D1C"/>
<mask id="mask1_1957_20273" style="mask-type:luminance" maskUnits="userSpaceOnUse" x="0" y="0" width="32" height="24">
<path fill-rule="evenodd" clip-rule="evenodd" d="M0 0V24H32V0H0Z" fill="white"/>
</mask>
<g mask="url(#mask1_1957_20273)">
<path fill-rule="evenodd" clip-rule="evenodd" d="M0 0V8H32V0H0Z" fill="#F7FCFF"/>
<path fill-rule="evenodd" clip-rule="evenodd" d="M0 16V24H32V16H0Z" fill="#5EAA22"/>
<rect width="12" height="24" fill="#E31D1C"/>
<path fill-rule="evenodd" clip-rule="evenodd" d="M5.34038 6.41311C5.07737 6.3871 3.33812 6.23899 3.33812 6.87171C3.33812 7.24936 3.76111 7.44926 4.2916 7.55259C3.82289 7.97703 3.37726 8.37946 3.11836 8.61311C3.05298 8.67211 3.10597 8.77088 3.191 8.74796C3.67305 8.61799 4.65613 8.29794 5.59607 7.6567L5.62827 7.65674C5.9194 7.65674 6.12188 7.53044 6.26261 7.35949C7.19885 8.12369 8.24458 8.52166 8.82695 8.69993C8.91924 8.72819 8.97217 8.61102 8.89381 8.55466C8.42184 8.21519 7.58159 7.56236 6.72461 6.66053L6.74992 6.63089C6.9472 6.39808 7.11909 6.15862 7.26887 5.91851C7.33163 5.88184 7.38159 5.82602 7.41055 5.75918H7.56332V5.41534H7.55203C8.01386 4.5022 8.18375 3.64169 8.24557 3.1737C8.25758 3.08278 8.14317 3.04669 8.09568 3.12514C7.84815 3.53395 7.34888 4.31112 6.58117 5.29439V4.7662C6.49897 4.67686 6.23689 4.4365 6.23689 4.4365V3.90907L6.711 3.48002L6.05985 3L5.37353 3.48002L5.89229 3.90907V4.4365C5.89229 4.68942 5.57779 4.7662 5.57779 4.7662L5.52021 5.23142C4.81612 4.31714 4.34485 3.57972 4.0971 3.16788C4.04855 3.08717 3.93105 3.1259 3.94772 3.2186C4.03344 3.69542 4.23715 4.53069 4.70171 5.41534H4.5602V5.75918H4.71298C4.7648 5.87881 4.88391 5.96313 5.02322 5.96556C5.12049 6.11564 5.22599 6.26531 5.34038 6.41311ZM3.24629 5.43358C3.24629 5.38555 3.28522 5.34662 3.33324 5.34662H4.4732C4.52122 5.34662 4.56016 5.38555 4.56016 5.43358V6.12306C4.56016 6.17109 4.52122 6.21002 4.4732 6.21002H3.33324C3.28522 6.21002 3.24629 6.17109 3.24629 6.12306V5.43358ZM8.79028 5.34662C8.8383 5.34662 8.87723 5.38555 8.87723 5.43358V6.12306C8.87723 6.17109 8.8383 6.21002 8.79028 6.21002H7.65032C7.6023 6.21002 7.56337 6.17109 7.56337 6.12306V5.43358C7.56337 5.38555 7.6023 5.34662 7.65032 5.34662H8.79028Z" fill="#F7FCFF"/>
</g>
</g>
</svg>
