<svg width="32" height="24" viewBox="0 0 32 24" fill="none" xmlns="http://www.w3.org/2000/svg">
<mask id="mask0_1957_20342" style="mask-type:luminance" maskUnits="userSpaceOnUse" x="0" y="0" width="32" height="24">
<rect width="32" height="24" fill="white"/>
</mask>
<g mask="url(#mask0_1957_20342)">
<path fill-rule="evenodd" clip-rule="evenodd" d="M0 0V24H32V0H0Z" fill="#F7FCFF"/>
<mask id="mask1_1957_20342" style="mask-type:luminance" maskUnits="userSpaceOnUse" x="0" y="0" width="32" height="24">
<path fill-rule="evenodd" clip-rule="evenodd" d="M0 0V24H32V0H0Z" fill="white"/>
</mask>
<g mask="url(#mask1_1957_20342)">
<path fill-rule="evenodd" clip-rule="evenodd" d="M16 0V12H32V0H16Z" fill="#E31D1C"/>
<path fill-rule="evenodd" clip-rule="evenodd" d="M10.6621 8.1058C10.5976 8.07122 10.5198 8.07238 10.4563 8.10887L8.95655 8.97102C8.78778 9.06804 8.58843 8.90539 8.64961 8.72059L9.12781 7.27615C9.15396 7.19718 9.1315 7.11021 9.07039 7.05377L8.06856 6.1285C7.92818 5.99884 8.0175 5.76424 8.20856 5.76077L9.59531 5.73561C9.67826 5.73411 9.75271 5.68436 9.78584 5.60831L10.431 4.12734C10.5063 3.9543 10.7533 3.95861 10.8225 4.13418L11.4136 5.63174C11.4451 5.71145 11.5214 5.76439 11.6071 5.76588L12.9774 5.7898C13.1693 5.79315 13.2583 6.02944 13.1163 6.15861L12.0815 7.10005C12.018 7.15778 11.9956 7.24807 12.0247 7.32878L12.5108 8.67708C12.5767 8.85986 12.3825 9.02763 12.2112 8.93586L10.6621 8.1058Z" fill="#2E42A4"/>
<path fill-rule="evenodd" clip-rule="evenodd" d="M21.6621 19.1058C21.5976 19.0712 21.5198 19.0724 21.4563 19.1089L19.9565 19.971C19.7878 20.068 19.5884 19.9054 19.6496 19.7206L20.1278 18.2761C20.154 18.1972 20.1315 18.1102 20.0704 18.0538L19.0686 17.1285C18.9282 16.9988 19.0175 16.7642 19.2086 16.7608L20.5953 16.7356C20.6783 16.7341 20.7527 16.6844 20.7858 16.6083L21.431 15.1273C21.5063 14.9543 21.7533 14.9586 21.8225 15.1342L22.4136 16.6317C22.4451 16.7115 22.5214 16.7644 22.6071 16.7659L23.9774 16.7898C24.1693 16.7932 24.2583 17.0294 24.1163 17.1586L23.0815 18.1C23.018 18.1578 22.9956 18.2481 23.0247 18.3288L23.5108 19.6771C23.5767 19.8599 23.3825 20.0276 23.2112 19.9359L21.6621 19.1058Z" fill="#E31D1C"/>
<path fill-rule="evenodd" clip-rule="evenodd" d="M0 12V24H16V12H0Z" fill="#2E42A5"/>
</g>
</g>
</svg>
