<svg width="32" height="24" viewBox="0 0 32 24" fill="none" xmlns="http://www.w3.org/2000/svg">
<mask id="mask0_1957_20280" style="mask-type:luminance" maskUnits="userSpaceOnUse" x="0" y="0" width="32" height="24">
<rect width="32" height="24" fill="white"/>
</mask>
<g mask="url(#mask0_1957_20280)">
<path fill-rule="evenodd" clip-rule="evenodd" d="M10 0H22V24H10V0Z" fill="#F7FCFF"/>
<path fill-rule="evenodd" clip-rule="evenodd" d="M22 0H32V24H22V0Z" fill="#E31D1C"/>
<path fill-rule="evenodd" clip-rule="evenodd" d="M0 0H10V24H0V0Z" fill="#E31D1C"/>
<path d="M15.8508 9.75603L15.8736 10.0021C15.1947 10.0708 14.8279 9.73908 14.8279 9.05059C14.8279 8.36743 15.1867 8.0043 15.8615 8L15.8629 8.24725C15.3162 8.25073 15.0644 8.50558 15.0644 9.05059C15.0644 9.59029 15.3083 9.81089 15.8508 9.75603Z" fill="#A2BB6A"/>
<path d="M16.1514 9.75603L16.1286 10.0021C16.8075 10.0708 17.1743 9.73908 17.1743 9.05059C17.1743 8.36743 16.8155 8.0043 16.1407 8L16.1393 8.24725C16.686 8.25073 16.9378 8.50558 16.9378 9.05059C16.9378 9.59029 16.6939 9.81089 16.1514 9.75603Z" fill="#A2BB6A"/>
<path fill-rule="evenodd" clip-rule="evenodd" d="M15.4416 15.4525C15.2464 15.5224 13.9229 15.4525 13.9229 15.4525V15.8211H14.8003C15.0931 15.8211 15.2038 15.8735 15.3053 15.9216C15.3914 15.9623 15.4708 16 15.649 16C15.996 16 15.9896 15.7418 15.9843 15.527C15.9837 15.5014 15.9831 15.4764 15.9831 15.4525C15.9831 15.3612 15.9973 15.3103 16.0084 15.2706C16.0246 15.213 16.034 15.1792 15.9831 15.08C15.8971 14.9125 15.0797 14.9349 15.0797 15.08C15.0797 15.1484 15.2036 15.2196 15.3141 15.2831C15.4379 15.3542 15.5447 15.4155 15.4416 15.4525ZM16.6311 15.4525C16.8263 15.5225 18.1498 15.4525 18.1498 15.4525V15.8212H17.2723C16.9796 15.8212 16.8689 15.8736 16.7673 15.9216C16.6813 15.9624 16.6018 16 16.4237 16C16.0767 16 16.083 15.7419 16.0883 15.527C16.089 15.5014 16.0896 15.4764 16.0896 15.4525C16.0896 15.3612 16.0753 15.3103 16.0642 15.2707C16.0481 15.213 16.0386 15.1793 16.0896 15.0801C16.1755 14.9126 16.9929 14.935 16.9929 15.0801C16.9929 15.1485 16.869 15.2197 16.7585 15.2831C16.6348 15.3542 16.5279 15.4156 16.6311 15.4525Z" fill="#E31D1C"/>
<path fill-rule="evenodd" clip-rule="evenodd" d="M16.3035 15.4878C16.3035 15.4878 17.3363 15.3852 17.5699 15.0127C17.8035 14.6403 18.1925 14.0044 18.3294 13.8504C18.4662 13.6965 18.475 14.0703 18.475 14.0703C18.475 14.0703 18.7007 14.3905 18.7007 13.9811C18.7007 13.5718 18.5402 13.8578 18.3294 13.2418C18.1185 12.6259 17.9999 12.0218 18.0592 11.9303C18.1185 11.8389 18.259 12.0218 18.259 11.9303C18.259 11.8389 18.259 11.6599 18.259 11.6599L18.475 11.9303L18.7007 11.8447C18.7007 11.8447 18.8865 12.2426 19.001 12.3658C19.1154 12.4889 19.1824 12.2008 19.1489 11.9303C19.1154 11.6599 18.7007 11.6599 18.7007 11.6599C18.7007 11.6599 18.1703 11.374 18.1703 11.2542C18.1703 11.1344 18.3996 11.1701 18.3996 11.1701L18.3294 10.7991C18.3294 10.7991 18.5189 11.0244 18.6098 10.9117C18.7007 10.7991 18.475 10.6014 18.475 10.6014H18.8349V10.4276L19.001 10.5206L18.8349 10.1412C18.8349 10.1412 18.3476 10.2146 18.259 10.1412C18.1703 10.0679 17.8913 9.78187 17.8913 9.78187V9.64611H17.7305L17.8913 9.37378V8.94012L18.475 9.0565V8.73584C18.475 8.73584 19.2968 9.13644 19.1489 9.45916C19.001 9.78187 19.001 10.1412 19.001 10.1412V10.4276C19.001 10.4276 19.0256 10.34 19.1489 10.34C19.2722 10.34 19.4125 10.4037 19.4125 10.6014C19.4125 10.7991 19.6636 10.5206 19.6636 10.5206V11.3431C19.6636 11.3431 19.7226 11.432 19.8517 11.3431C19.9807 11.2542 19.9241 11.3236 19.5365 11.8447C19.1489 12.3658 19.2885 12.3672 19.4125 12.2395C19.5365 12.1118 20.0397 11.7488 19.8517 11.9303C19.6636 12.1118 19.6511 12.492 19.8517 12.3658C20.0522 12.2395 20.0135 12.1496 20.0135 12.3658C20.0135 12.5819 19.6605 13.3175 19.5365 13.4327C19.4125 13.548 19.2968 13.6188 19.1489 13.7346C19.001 13.8504 18.8349 13.9873 18.8349 14.0703C18.8349 14.1534 19.1489 13.9811 19.1489 13.9811L19.001 14.5091H19.2884C19.2884 14.5091 19.0597 15.2103 18.6098 15.2103C18.16 15.2103 17.8209 15.2103 17.7305 15.2103C17.6401 15.2103 17.2317 15.4029 17.2317 15.4029L16.9329 15.4878C16.9329 15.4878 17.4092 15.5333 17.5699 15.6763C17.7305 15.8194 17.5699 15.9191 17.5699 15.9191C17.5699 15.9191 17.129 15.8754 16.7999 15.7759C16.4709 15.6763 16.3035 15.8649 16.3035 15.6763C16.3035 15.4878 16.3035 15.4878 16.3035 15.4878Z" fill="#00A854"/>
<path fill-rule="evenodd" clip-rule="evenodd" d="M19.2786 9.86753C19.2786 9.9358 19.2257 9.99115 19.1604 9.99115C19.0951 9.99115 19.0421 9.9358 19.0421 9.86753C19.0421 9.79925 19.0951 9.7439 19.1604 9.7439C19.2257 9.7439 19.2786 9.79925 19.2786 9.86753ZM18.6874 10.3621C18.6874 10.4303 18.6345 10.4857 18.5692 10.4857C18.5038 10.4857 18.4509 10.4303 18.4509 10.3621C18.4509 10.2938 18.5038 10.2384 18.5692 10.2384C18.6345 10.2384 18.6874 10.2938 18.6874 10.3621ZM19.2787 10.2382C19.344 10.2382 19.397 10.1829 19.397 10.1146C19.397 10.0463 19.344 9.99097 19.2787 9.99097C19.2134 9.99097 19.1605 10.0463 19.1605 10.1146C19.1605 10.1829 19.2134 10.2382 19.2787 10.2382ZM19.0422 12.0927C19.0422 12.161 18.9893 12.2163 18.9239 12.2163C18.8586 12.2163 18.8057 12.161 18.8057 12.0927C18.8057 12.0244 18.8586 11.9691 18.9239 11.9691C18.9893 11.9691 19.0422 12.0244 19.0422 12.0927ZM18.4509 13.6999C18.5162 13.6999 18.5691 13.6446 18.5691 13.5763C18.5691 13.508 18.5162 13.4527 18.4509 13.4527C18.3856 13.4527 18.3326 13.508 18.3326 13.5763C18.3326 13.6446 18.3856 13.6999 18.4509 13.6999ZM19.397 13.9472C19.397 14.0155 19.344 14.0708 19.2787 14.0708C19.2134 14.0708 19.1605 14.0155 19.1605 13.9472C19.1605 13.8789 19.2134 13.8236 19.2787 13.8236C19.344 13.8236 19.397 13.8789 19.397 13.9472ZM19.5152 13.8238C19.5805 13.8238 19.6334 13.7684 19.6334 13.7001C19.6334 13.6319 19.5805 13.5765 19.5152 13.5765C19.4498 13.5765 19.3969 13.6319 19.3969 13.7001C19.3969 13.7684 19.4498 13.8238 19.5152 13.8238ZM19.5152 11.9691C19.5152 12.0374 19.4623 12.0927 19.397 12.0927C19.3317 12.0927 19.2787 12.0374 19.2787 11.9691C19.2787 11.9008 19.3317 11.8455 19.397 11.8455C19.4623 11.8455 19.5152 11.9008 19.5152 11.9691Z" fill="#C51918"/>
<path fill-rule="evenodd" clip-rule="evenodd" d="M15.8128 15.2702C15.8128 15.2702 13.9336 14.8988 13.8309 14.1799C13.7281 13.461 13.7295 12.6957 13.7295 12.6957L13.5553 13.1634C13.5553 13.1634 13.5465 12.5267 13.9039 12.0726C14.2613 11.6184 13.4571 12.3735 13.4571 12.3735C13.4571 12.3735 13.8643 11.7315 14.0338 11.6703C14.2034 11.6092 13.3527 12.0726 13.3527 12.0726C13.3527 12.0726 13.5964 11.5338 13.7858 11.3814C13.9753 11.2291 13.3527 11.6703 13.3527 11.6703C13.3527 11.6703 13.4935 11.136 13.662 11.0085C13.8305 10.881 13.1114 11.6703 13.1114 11.6703C13.1114 11.6703 13.4908 10.4494 13.7045 10.3354C13.9182 10.2215 13.3527 10.5593 13.3527 10.5593C13.3527 10.5593 13.6991 10.0371 14.0094 9.77748C14.3197 9.51788 13.4485 9.88818 13.5553 9.88818C13.5553 9.88818 13.8703 9.53244 14.0513 9.43203C14.2323 9.33162 13.3527 9.77748 13.3527 9.77748C13.3527 9.77748 13.9841 9.08075 14.1733 8.97817C14.3626 8.8756 13.2442 9.53148 13.2442 9.53148C13.2442 9.53148 13.3095 9.22766 13.3377 9.01054C13.3659 8.79342 12.8196 9.6056 12.8937 10.3354C12.9679 11.0652 12.5965 9.77748 12.5965 9.77748C12.5965 9.77748 12.4471 10.0571 12.8101 10.7893L12.4166 10.2378C12.4166 10.2378 12.4704 10.7383 12.5965 11.0085C12.7226 11.2787 12.2386 10.5593 12.2386 10.5593C12.2386 10.5593 12.146 11.0085 12.2386 11.0085C12.2386 11.0085 12.7913 11.7468 12.8117 11.9621C12.8322 12.1773 12.1911 11.1935 12.1053 11.1935C12.0195 11.1935 11.972 11.5095 12.1053 11.5095C12.2386 11.5095 12.4912 11.9621 12.4912 11.9621C12.4912 11.9621 12.163 11.7248 12.0926 11.7108C12.0222 11.6968 12.1478 11.8515 12.2386 11.9621C12.2386 11.9621 11.9819 12.1714 12.0014 12.33C12.0209 12.4886 12.7012 12.5222 12.9977 13.275C12.9977 13.275 12.3847 12.9509 12.2386 12.9509C12.0926 12.9509 12.4738 13.2893 12.5965 13.4011C12.7192 13.5128 12.4075 13.2893 12.3231 13.4011C12.2386 13.5128 12.7898 13.9899 12.8937 13.9899C12.9977 13.9899 12.4912 13.9899 12.4912 13.9899C12.4912 13.9899 12.6258 14.1799 12.8117 14.1799C12.9977 14.1799 13.662 14.4785 13.662 14.5752C13.662 14.672 13.1016 14.4514 12.9977 14.4514C12.8937 14.4514 13.7294 15.2401 14.1733 15.2702C14.6173 15.3002 14.8978 15.4194 15.0892 15.4194C15.2806 15.4194 15.4152 15.4194 15.4152 15.4194L14.5109 15.8801C14.5109 15.8801 14.4196 15.8801 14.8119 15.8801C15.2042 15.8801 15.5042 15.9892 15.6585 15.7638C15.8128 15.5384 15.8128 15.2702 15.8128 15.2702Z" fill="#00A854"/>
<mask id="path-11-outside-1_1957_20280" maskUnits="userSpaceOnUse" x="12.1072" y="7.84888" width="8" height="8" fill="black">
<rect fill="white" x="12.1072" y="7.84888" width="8" height="8"/>
<path fill-rule="evenodd" clip-rule="evenodd" d="M16.0857 9.86521C16.0676 9.85492 16.0574 9.84888 16.0574 9.84888V9.88103C15.9264 9.95329 15.597 10.1224 15.3827 10.1224C15.1103 10.1224 14.7399 9.84893 14.7399 9.84893L14.1203 10.7239C14.1203 10.7239 14.5376 11.5985 14.2183 12.6673C13.899 13.736 14.2352 14.5601 15.6552 14.6516C15.6552 14.6516 15.9348 14.7047 16.0574 14.7894V14.8677C16.0574 14.8482 16.0679 14.8297 16.0856 14.8123C16.1034 14.8297 16.1139 14.8483 16.1139 14.8678V14.7894C16.2366 14.7047 16.5162 14.6516 16.5162 14.6516C17.9361 14.5601 18.2724 13.736 17.9531 12.6672C17.6337 11.5984 18.051 10.7238 18.051 10.7238L17.4314 9.84888C17.4314 9.84888 17.0611 10.1224 16.7886 10.1224C16.5744 10.1224 16.2449 9.95324 16.1139 9.88098V9.84893C16.1139 9.84893 16.1038 9.85495 16.0857 9.86521Z"/>
</mask>
<path fill-rule="evenodd" clip-rule="evenodd" d="M16.0857 9.86521C16.0676 9.85492 16.0574 9.84888 16.0574 9.84888V9.88103C15.9264 9.95329 15.597 10.1224 15.3827 10.1224C15.1103 10.1224 14.7399 9.84893 14.7399 9.84893L14.1203 10.7239C14.1203 10.7239 14.5376 11.5985 14.2183 12.6673C13.899 13.736 14.2352 14.5601 15.6552 14.6516C15.6552 14.6516 15.9348 14.7047 16.0574 14.7894V14.8677C16.0574 14.8482 16.0679 14.8297 16.0856 14.8123C16.1034 14.8297 16.1139 14.8483 16.1139 14.8678V14.7894C16.2366 14.7047 16.5162 14.6516 16.5162 14.6516C17.9361 14.5601 18.2724 13.736 17.9531 12.6672C17.6337 11.5984 18.051 10.7238 18.051 10.7238L17.4314 9.84888C17.4314 9.84888 17.0611 10.1224 16.7886 10.1224C16.5744 10.1224 16.2449 9.95324 16.1139 9.88098V9.84893C16.1139 9.84893 16.1038 9.85495 16.0857 9.86521Z" fill="#E8AA00"/>
<path d="M16.0574 9.84888L16.5695 8.98993L15.0574 8.08851V9.84888H16.0574ZM16.0857 9.86521L15.5926 10.7352L16.0857 11.0147L16.5788 10.7352L16.0857 9.86521ZM16.0574 9.88103L16.5404 10.7566L17.0574 10.4714V9.88103H16.0574ZM14.7399 9.84893L15.334 9.04452L14.5134 8.4385L13.9239 9.27097L14.7399 9.84893ZM14.1203 10.7239L13.3042 10.1459L12.965 10.6248L13.2178 11.1545L14.1203 10.7239ZM14.2183 12.6673L15.1764 12.9535L14.2183 12.6673ZM15.6552 14.6516L15.8418 13.6692L15.7811 13.6577L15.7195 13.6537L15.6552 14.6516ZM16.0574 14.7894H17.0574V14.2647L16.6256 13.9665L16.0574 14.7894ZM16.0856 14.8123L16.7854 14.0979L16.0853 13.4123L15.3856 14.0982L16.0856 14.8123ZM16.1139 14.7894L15.5457 13.9665L15.1139 14.2647V14.7894H16.1139ZM16.5162 14.6516L16.4519 13.6536L16.3902 13.6576L16.3295 13.6691L16.5162 14.6516ZM17.9531 12.6672L18.9112 12.3809V12.3809L17.9531 12.6672ZM18.051 10.7238L18.9536 11.1544L19.2063 10.6248L18.8671 10.1459L18.051 10.7238ZM17.4314 9.84888L18.2475 9.27092L17.6579 8.43845L16.8373 9.04447L17.4314 9.84888ZM16.1139 9.88098H15.1139V10.4714L15.6309 10.7566L16.1139 9.88098ZM16.1139 9.84893H17.1139V8.08856L15.6019 8.98998L16.1139 9.84893ZM16.0574 9.84888C15.5454 10.7078 15.5454 10.7078 15.5454 10.7078C15.5454 10.7078 15.5454 10.7079 15.5454 10.7079C15.5454 10.7079 15.5455 10.7079 15.5455 10.7079C15.5455 10.7079 15.5456 10.708 15.5456 10.708C15.5457 10.708 15.5458 10.7081 15.5459 10.7082C15.5461 10.7083 15.5463 10.7084 15.5465 10.7085C15.547 10.7088 15.5474 10.7091 15.5479 10.7094C15.549 10.71 15.5502 10.7107 15.5515 10.7115C15.5542 10.7131 15.5576 10.7151 15.5616 10.7174C15.5695 10.722 15.58 10.728 15.5926 10.7352L16.5788 8.99523C16.5733 8.99212 16.5696 8.98997 16.5679 8.98901C16.5671 8.98852 16.5668 8.98834 16.567 8.98848C16.5672 8.98856 16.5674 8.98871 16.5678 8.98895C16.568 8.98907 16.5683 8.98921 16.5685 8.98937C16.5687 8.98945 16.5688 8.98954 16.569 8.98963C16.5691 8.98968 16.5691 8.98973 16.5692 8.98978C16.5693 8.9898 16.5693 8.98983 16.5693 8.98985C16.5694 8.98986 16.5694 8.98988 16.5694 8.98989C16.5694 8.9899 16.5694 8.98991 16.5694 8.98991C16.5695 8.98992 16.5695 8.98993 16.0574 9.84888ZM17.0574 9.88103V9.84888H15.0574V9.88103H17.0574ZM15.5744 9.00543C15.5261 9.03205 15.4485 9.07227 15.3729 9.10318C15.3355 9.11845 15.3111 9.12628 15.3 9.12927C15.2952 9.13057 15.2988 9.12934 15.3098 9.12758C15.32 9.12594 15.3454 9.12242 15.3827 9.12242V11.1224C15.6969 11.1224 15.9861 11.0132 16.1297 10.9545C16.3051 10.8827 16.4577 10.8023 16.5404 10.7566L15.5744 9.00543ZM15.3827 9.12242C15.4698 9.12242 15.5143 9.14165 15.4986 9.13615C15.4901 9.13318 15.4679 9.12392 15.4342 9.10574C15.4026 9.08863 15.3731 9.07034 15.3516 9.05623C15.3414 9.04948 15.3342 9.04447 15.3307 9.04208C15.3291 9.04091 15.3284 9.04044 15.3289 9.04079C15.3292 9.04097 15.3297 9.04136 15.3305 9.04197C15.331 9.04228 15.3315 9.04264 15.332 9.04307C15.3323 9.04328 15.3326 9.0435 15.333 9.04375C15.3331 9.04387 15.3333 9.04399 15.3335 9.04412C15.3336 9.04418 15.3337 9.04428 15.3337 9.04432C15.3339 9.04442 15.334 9.04452 14.7399 9.84893C14.1459 10.6533 14.146 10.6534 14.1461 10.6535C14.1462 10.6536 14.1463 10.6537 14.1464 10.6538C14.1466 10.6539 14.1468 10.6541 14.147 10.6542C14.1475 10.6545 14.1479 10.6548 14.1484 10.6552C14.1493 10.6559 14.1503 10.6566 14.1515 10.6574C14.1537 10.6591 14.1564 10.661 14.1594 10.6632C14.1654 10.6676 14.173 10.673 14.182 10.6793C14.1999 10.6918 14.2237 10.7082 14.2525 10.7271C14.3089 10.7643 14.3891 10.8143 14.4841 10.8656C14.6283 10.9435 14.9789 11.1224 15.3827 11.1224V9.12242ZM13.9239 9.27097L13.3042 10.1459L14.9364 11.3018L15.556 10.4269L13.9239 9.27097ZM14.1203 10.7239C13.2178 11.1545 13.2176 11.1541 13.2174 11.1538C13.2174 11.1537 13.2172 11.1534 13.2171 11.1531C13.2169 11.1527 13.2167 11.1523 13.2165 11.1519C13.2161 11.1511 13.2158 11.1503 13.2155 11.1496C13.2148 11.1482 13.2142 11.1469 13.2137 11.1459C13.2128 11.1438 13.2121 11.1425 13.2119 11.1418C13.2113 11.1406 13.2121 11.1423 13.2139 11.1467C13.2176 11.1556 13.2254 11.1751 13.2354 11.2041C13.2556 11.2625 13.2836 11.3558 13.3053 11.4746C13.3492 11.7144 13.3636 12.0346 13.2601 12.381L15.1764 12.9535C15.3922 12.2312 15.3577 11.5796 15.2727 11.1149C15.23 10.8815 15.1736 10.6893 15.1256 10.5504C15.1015 10.4806 15.0792 10.4235 15.0613 10.3803C15.0523 10.3588 15.0444 10.3406 15.0379 10.326C15.0347 10.3188 15.0318 10.3124 15.0292 10.3069C15.028 10.3042 15.0268 10.3017 15.0257 10.2994C15.0252 10.2982 15.0247 10.2972 15.0242 10.2961C15.024 10.2956 15.0237 10.2951 15.0235 10.2946C15.0234 10.2944 15.0232 10.294 15.0232 10.2939C15.023 10.2936 15.0228 10.2932 14.1203 10.7239ZM13.2601 12.381C13.0632 13.0401 12.9948 13.8563 13.4389 14.5598C13.9002 15.2904 14.7157 15.5931 15.5908 15.6495L15.7195 13.6537C15.453 13.6365 15.2966 13.5881 15.2137 13.549C15.1739 13.5302 15.1529 13.5145 15.1433 13.5063C15.1343 13.4985 15.1313 13.4939 15.1301 13.4921C15.1296 13.4914 15.111 13.4637 15.1077 13.3769C15.1041 13.2851 15.1191 13.1454 15.1764 12.9535L13.2601 12.381ZM15.6552 14.6516C15.4685 15.634 15.4684 15.634 15.4683 15.634C15.4682 15.634 15.4681 15.634 15.4681 15.634C15.468 15.6339 15.4678 15.6339 15.4677 15.6339C15.4675 15.6338 15.4672 15.6338 15.467 15.6338C15.4666 15.6337 15.4663 15.6336 15.466 15.6336C15.4653 15.6334 15.465 15.6334 15.4648 15.6333C15.4645 15.6333 15.4651 15.6334 15.4664 15.6336C15.469 15.6342 15.4745 15.6353 15.4821 15.637C15.4979 15.6406 15.519 15.6457 15.5406 15.6517C15.5639 15.6582 15.5772 15.6629 15.5806 15.6643C15.5928 15.669 15.5511 15.6551 15.4892 15.6123L16.6256 13.9665C16.413 13.8197 16.1653 13.7497 16.08 13.7258C16.0163 13.708 15.9599 13.6945 15.9194 13.6854C15.8989 13.6808 15.8816 13.6772 15.8684 13.6745C15.8619 13.6731 15.8563 13.672 15.8518 13.6711C15.8496 13.6707 15.8476 13.6703 15.846 13.67C15.8451 13.6698 15.8444 13.6697 15.8437 13.6695C15.8433 13.6695 15.843 13.6694 15.8427 13.6694C15.8425 13.6693 15.8424 13.6693 15.8423 13.6693C15.8422 13.6693 15.8421 13.6692 15.842 13.6692C15.8419 13.6692 15.8418 13.6692 15.6552 14.6516ZM17.0574 14.8677V14.7894H15.0574V14.8677H17.0574ZM15.3856 14.0982C15.2718 14.2098 15.0574 14.4699 15.0574 14.8677H17.0574C17.0574 15.2266 16.864 15.4497 16.7857 15.5264L15.3856 14.0982ZM15.3859 15.5267C15.3077 15.4501 15.1139 15.2269 15.1139 14.8678H17.1139C17.1139 14.4696 16.8992 14.2094 16.7854 14.0979L15.3859 15.5267ZM17.1139 14.8678V14.7894H15.1139V14.8678H17.1139ZM16.5162 14.6516C16.3295 13.6691 16.3294 13.6692 16.3293 13.6692C16.3293 13.6692 16.3292 13.6692 16.3291 13.6692C16.3289 13.6693 16.3288 13.6693 16.3286 13.6693C16.3283 13.6694 16.328 13.6694 16.3277 13.6695C16.327 13.6696 16.3262 13.6698 16.3254 13.6699C16.3237 13.6703 16.3217 13.6706 16.3195 13.6711C16.3151 13.672 16.3095 13.6731 16.3029 13.6744C16.2898 13.6771 16.2725 13.6808 16.2519 13.6854C16.2115 13.6945 16.155 13.7079 16.0914 13.7258C16.0061 13.7497 15.7583 13.8197 15.5457 13.9665L16.6821 15.6123C16.6202 15.655 16.5786 15.6689 16.5907 15.6642C16.5942 15.6629 16.6075 15.6582 16.6307 15.6517C16.6523 15.6456 16.6734 15.6405 16.6893 15.637C16.6968 15.6353 16.7023 15.6341 16.705 15.6336C16.7063 15.6333 16.7068 15.6332 16.7065 15.6333C16.7064 15.6333 16.706 15.6334 16.7054 15.6335C16.7051 15.6336 16.7047 15.6336 16.7043 15.6337C16.7041 15.6338 16.7039 15.6338 16.7036 15.6338C16.7035 15.6339 16.7034 15.6339 16.7033 15.6339C16.7032 15.6339 16.7031 15.6339 16.7031 15.634C16.703 15.634 16.7029 15.634 16.5162 14.6516ZM16.9949 12.9535C17.0522 13.1454 17.0672 13.285 17.0637 13.3769C17.0603 13.4637 17.0417 13.4913 17.0413 13.492C17.0401 13.4939 17.0371 13.4984 17.028 13.5062C17.0184 13.5144 16.9974 13.5302 16.9576 13.549C16.8748 13.5881 16.7183 13.6365 16.4519 13.6536L16.5805 15.6495C17.4556 15.5931 18.2711 15.2904 18.7324 14.5597C19.1765 13.8563 19.1081 13.04 18.9112 12.3809L16.9949 12.9535ZM18.051 10.7238C17.1485 10.2932 17.1484 10.2935 17.1482 10.2939C17.1481 10.294 17.148 10.2943 17.1478 10.2946C17.1476 10.2951 17.1474 10.2956 17.1471 10.2961C17.1467 10.2971 17.1461 10.2982 17.1456 10.2993C17.1445 10.3016 17.1434 10.3041 17.1421 10.3068C17.1396 10.3123 17.1367 10.3187 17.1334 10.326C17.1269 10.3405 17.119 10.3587 17.1101 10.3803C17.0922 10.4234 17.0699 10.4806 17.0458 10.5503C16.9977 10.6893 16.9413 10.8814 16.8986 11.1148C16.8136 11.5795 16.7791 12.2311 16.9949 12.9535L18.9112 12.3809C18.8077 12.0345 18.8222 11.7144 18.866 11.4746C18.8877 11.3558 18.9157 11.2625 18.9359 11.204C18.9459 11.1751 18.9537 11.1555 18.9574 11.1466C18.9592 11.1422 18.96 11.1406 18.9595 11.1418C18.9592 11.1424 18.9586 11.1437 18.9576 11.1458C18.9571 11.1469 18.9566 11.1481 18.9559 11.1496C18.9555 11.1503 18.9552 11.151 18.9548 11.1518C18.9546 11.1523 18.9544 11.1527 18.9542 11.1531C18.9541 11.1533 18.954 11.1536 18.9539 11.1538C18.9537 11.1541 18.9536 11.1544 18.051 10.7238ZM16.6153 10.4268L17.235 11.3018L18.8671 10.1459L18.2475 9.27092L16.6153 10.4268ZM16.7886 11.1224C17.1924 11.1224 17.543 10.9435 17.6873 10.8656C17.7822 10.8143 17.8624 10.7642 17.9189 10.727C17.9476 10.7081 17.9714 10.6918 17.9893 10.6792C17.9983 10.6729 18.0059 10.6675 18.0119 10.6632C18.015 10.661 18.0176 10.6591 18.0199 10.6574C18.021 10.6566 18.022 10.6558 18.023 10.6551C18.0234 10.6548 18.0239 10.6545 18.0243 10.6542C18.0245 10.654 18.0247 10.6539 18.0249 10.6537C18.025 10.6536 18.0252 10.6535 18.0252 10.6535C18.0253 10.6534 18.0255 10.6533 17.4314 9.84888C16.8373 9.04447 16.8375 9.04437 16.8376 9.04427C16.8376 9.04423 16.8378 9.04414 16.8379 9.04407C16.838 9.04394 16.8382 9.04382 16.8384 9.0437C16.8387 9.04346 16.839 9.04323 16.8393 9.04302C16.8399 9.04259 16.8404 9.04223 16.8408 9.04192C16.8416 9.04131 16.8422 9.04092 16.8424 9.04074C16.8429 9.04039 16.8423 9.04086 16.8406 9.04203C16.8372 9.04442 16.8299 9.04943 16.8197 9.05618C16.7982 9.07029 16.7688 9.08858 16.7371 9.10569C16.7034 9.12387 16.6812 9.13313 16.6727 9.1361C16.6571 9.1416 16.7016 9.12237 16.7886 9.12237V11.1224ZM15.6309 10.7566C15.7136 10.8022 15.8662 10.8827 16.0416 10.9544C16.1852 11.0131 16.4745 11.1224 16.7886 11.1224V9.12237C16.8259 9.12237 16.8513 9.12589 16.8616 9.12754C16.8725 9.12929 16.8761 9.13052 16.8713 9.12922C16.8602 9.12624 16.8358 9.1184 16.7985 9.10313C16.7229 9.07223 16.6452 9.03201 16.597 9.00538L15.6309 10.7566ZM17.1139 9.88098V9.84893H15.1139V9.88098H17.1139ZM16.1139 9.84893C15.6019 8.98998 15.6019 8.98997 15.6019 8.98996C15.6019 8.98995 15.6019 8.98994 15.6019 8.98994C15.6019 8.98993 15.602 8.98991 15.602 8.9899C15.602 8.98988 15.6021 8.98985 15.6021 8.98983C15.6022 8.98978 15.6023 8.98973 15.6024 8.98968C15.6025 8.98959 15.6027 8.9895 15.6028 8.98942C15.6031 8.98926 15.6033 8.98912 15.6035 8.989C15.6039 8.98876 15.6042 8.98861 15.6043 8.98853C15.6045 8.98839 15.6042 8.98857 15.6034 8.98905C15.6018 8.99001 15.5981 8.99215 15.5926 8.99524L16.5788 10.7352C16.5915 10.728 16.6019 10.722 16.6098 10.7174C16.6138 10.7151 16.6171 10.7131 16.6198 10.7115C16.6212 10.7107 16.6224 10.71 16.6234 10.7094C16.6239 10.7091 16.6244 10.7088 16.6248 10.7086C16.625 10.7084 16.6252 10.7083 16.6254 10.7082C16.6255 10.7081 16.6256 10.7081 16.6257 10.708C16.6258 10.708 16.6258 10.708 16.6259 10.708C16.6259 10.7079 16.6259 10.7079 16.6259 10.7079C16.6259 10.7079 16.6259 10.7079 16.626 10.7079C16.626 10.7079 16.626 10.7079 16.1139 9.84893Z" fill="#E8AA00" mask="url(#path-11-outside-1_1957_20280)"/>
<mask id="mask1_1957_20280" style="mask-type:luminance" maskUnits="userSpaceOnUse" x="12" y="8" width="8" height="8">
<mask id="path-13-outside-2_1957_20280" maskUnits="userSpaceOnUse" x="12.1072" y="7.84888" width="8" height="8" fill="black">
<rect fill="white" x="12.1072" y="7.84888" width="8" height="8"/>
<path fill-rule="evenodd" clip-rule="evenodd" d="M16.0857 9.86521C16.0676 9.85492 16.0574 9.84888 16.0574 9.84888V9.88103C15.9264 9.95329 15.597 10.1224 15.3827 10.1224C15.1103 10.1224 14.7399 9.84893 14.7399 9.84893L14.1203 10.7239C14.1203 10.7239 14.5376 11.5985 14.2183 12.6673C13.899 13.736 14.2352 14.5601 15.6552 14.6516C15.6552 14.6516 15.9348 14.7047 16.0574 14.7894V14.8677C16.0574 14.8482 16.0679 14.8297 16.0856 14.8123C16.1034 14.8297 16.1139 14.8483 16.1139 14.8678V14.7894C16.2366 14.7047 16.5162 14.6516 16.5162 14.6516C17.9361 14.5601 18.2724 13.736 17.9531 12.6672C17.6337 11.5984 18.051 10.7238 18.051 10.7238L17.4314 9.84888C17.4314 9.84888 17.0611 10.1224 16.7886 10.1224C16.5744 10.1224 16.2449 9.95324 16.1139 9.88098V9.84893C16.1139 9.84893 16.1038 9.85495 16.0857 9.86521Z"/>
</mask>
<path fill-rule="evenodd" clip-rule="evenodd" d="M16.0857 9.86521C16.0676 9.85492 16.0574 9.84888 16.0574 9.84888V9.88103C15.9264 9.95329 15.597 10.1224 15.3827 10.1224C15.1103 10.1224 14.7399 9.84893 14.7399 9.84893L14.1203 10.7239C14.1203 10.7239 14.5376 11.5985 14.2183 12.6673C13.899 13.736 14.2352 14.5601 15.6552 14.6516C15.6552 14.6516 15.9348 14.7047 16.0574 14.7894V14.8677C16.0574 14.8482 16.0679 14.8297 16.0856 14.8123C16.1034 14.8297 16.1139 14.8483 16.1139 14.8678V14.7894C16.2366 14.7047 16.5162 14.6516 16.5162 14.6516C17.9361 14.5601 18.2724 13.736 17.9531 12.6672C17.6337 11.5984 18.051 10.7238 18.051 10.7238L17.4314 9.84888C17.4314 9.84888 17.0611 10.1224 16.7886 10.1224C16.5744 10.1224 16.2449 9.95324 16.1139 9.88098V9.84893C16.1139 9.84893 16.1038 9.85495 16.0857 9.86521Z" fill="white"/>
<path d="M16.0574 9.84888L16.5695 8.98993L15.0574 8.08851V9.84888H16.0574ZM16.0857 9.86521L15.5926 10.7352L16.0857 11.0147L16.5788 10.7352L16.0857 9.86521ZM16.0574 9.88103L16.5404 10.7566L17.0574 10.4714V9.88103H16.0574ZM14.7399 9.84893L15.334 9.04452L14.5134 8.4385L13.9239 9.27097L14.7399 9.84893ZM14.1203 10.7239L13.3042 10.1459L12.965 10.6248L13.2178 11.1545L14.1203 10.7239ZM14.2183 12.6673L15.1764 12.9535L14.2183 12.6673ZM15.6552 14.6516L15.8418 13.6692L15.7811 13.6577L15.7195 13.6537L15.6552 14.6516ZM16.0574 14.7894H17.0574V14.2647L16.6256 13.9665L16.0574 14.7894ZM16.0856 14.8123L16.7854 14.0979L16.0853 13.4123L15.3856 14.0982L16.0856 14.8123ZM16.1139 14.7894L15.5457 13.9665L15.1139 14.2647V14.7894H16.1139ZM16.5162 14.6516L16.4519 13.6536L16.3902 13.6576L16.3295 13.6691L16.5162 14.6516ZM17.9531 12.6672L18.9112 12.3809V12.3809L17.9531 12.6672ZM18.051 10.7238L18.9536 11.1544L19.2063 10.6248L18.8671 10.1459L18.051 10.7238ZM17.4314 9.84888L18.2475 9.27092L17.6579 8.43845L16.8373 9.04447L17.4314 9.84888ZM16.1139 9.88098H15.1139V10.4714L15.6309 10.7566L16.1139 9.88098ZM16.1139 9.84893H17.1139V8.08856L15.6019 8.98998L16.1139 9.84893ZM16.0574 9.84888C15.5454 10.7078 15.5454 10.7078 15.5454 10.7078C15.5454 10.7078 15.5454 10.7079 15.5454 10.7079C15.5454 10.7079 15.5455 10.7079 15.5455 10.7079C15.5455 10.7079 15.5456 10.708 15.5456 10.708C15.5457 10.708 15.5458 10.7081 15.5459 10.7082C15.5461 10.7083 15.5463 10.7084 15.5465 10.7085C15.547 10.7088 15.5474 10.7091 15.5479 10.7094C15.549 10.71 15.5502 10.7107 15.5515 10.7115C15.5542 10.7131 15.5576 10.7151 15.5616 10.7174C15.5695 10.722 15.58 10.728 15.5926 10.7352L16.5788 8.99523C16.5733 8.99212 16.5696 8.98997 16.5679 8.98901C16.5671 8.98852 16.5668 8.98834 16.567 8.98848C16.5672 8.98856 16.5674 8.98871 16.5678 8.98895C16.568 8.98907 16.5683 8.98921 16.5685 8.98937C16.5687 8.98945 16.5688 8.98954 16.569 8.98963C16.5691 8.98968 16.5691 8.98973 16.5692 8.98978C16.5693 8.9898 16.5693 8.98983 16.5693 8.98985C16.5694 8.98986 16.5694 8.98988 16.5694 8.98989C16.5694 8.9899 16.5694 8.98991 16.5694 8.98991C16.5695 8.98992 16.5695 8.98993 16.0574 9.84888ZM17.0574 9.88103V9.84888H15.0574V9.88103H17.0574ZM15.5744 9.00543C15.5261 9.03205 15.4485 9.07227 15.3729 9.10318C15.3355 9.11845 15.3111 9.12628 15.3 9.12927C15.2952 9.13057 15.2988 9.12934 15.3098 9.12758C15.32 9.12594 15.3454 9.12242 15.3827 9.12242V11.1224C15.6969 11.1224 15.9861 11.0132 16.1297 10.9545C16.3051 10.8827 16.4577 10.8023 16.5404 10.7566L15.5744 9.00543ZM15.3827 9.12242C15.4698 9.12242 15.5143 9.14165 15.4986 9.13615C15.4901 9.13318 15.4679 9.12392 15.4342 9.10574C15.4026 9.08863 15.3731 9.07034 15.3516 9.05623C15.3414 9.04948 15.3342 9.04447 15.3307 9.04208C15.3291 9.04091 15.3284 9.04044 15.3289 9.04079C15.3292 9.04097 15.3297 9.04136 15.3305 9.04197C15.331 9.04228 15.3315 9.04264 15.332 9.04307C15.3323 9.04328 15.3326 9.0435 15.333 9.04375C15.3331 9.04387 15.3333 9.04399 15.3335 9.04412C15.3336 9.04418 15.3337 9.04428 15.3337 9.04432C15.3339 9.04442 15.334 9.04452 14.7399 9.84893C14.1459 10.6533 14.146 10.6534 14.1461 10.6535C14.1462 10.6536 14.1463 10.6537 14.1464 10.6538C14.1466 10.6539 14.1468 10.6541 14.147 10.6542C14.1475 10.6545 14.1479 10.6548 14.1484 10.6552C14.1493 10.6559 14.1503 10.6566 14.1515 10.6574C14.1537 10.6591 14.1564 10.661 14.1594 10.6632C14.1654 10.6676 14.173 10.673 14.182 10.6793C14.1999 10.6918 14.2237 10.7082 14.2525 10.7271C14.3089 10.7643 14.3891 10.8143 14.4841 10.8656C14.6283 10.9435 14.9789 11.1224 15.3827 11.1224V9.12242ZM13.9239 9.27097L13.3042 10.1459L14.9364 11.3018L15.556 10.4269L13.9239 9.27097ZM14.1203 10.7239C13.2178 11.1545 13.2176 11.1541 13.2174 11.1538C13.2174 11.1537 13.2172 11.1534 13.2171 11.1531C13.2169 11.1527 13.2167 11.1523 13.2165 11.1519C13.2161 11.1511 13.2158 11.1503 13.2155 11.1496C13.2148 11.1482 13.2142 11.1469 13.2137 11.1459C13.2128 11.1438 13.2121 11.1425 13.2119 11.1418C13.2113 11.1406 13.2121 11.1423 13.2139 11.1467C13.2176 11.1556 13.2254 11.1751 13.2354 11.2041C13.2556 11.2625 13.2836 11.3558 13.3053 11.4746C13.3492 11.7144 13.3636 12.0346 13.2601 12.381L15.1764 12.9535C15.3922 12.2312 15.3577 11.5796 15.2727 11.1149C15.23 10.8815 15.1736 10.6893 15.1256 10.5504C15.1015 10.4806 15.0792 10.4235 15.0613 10.3803C15.0523 10.3588 15.0444 10.3406 15.0379 10.326C15.0347 10.3188 15.0318 10.3124 15.0292 10.3069C15.028 10.3042 15.0268 10.3017 15.0257 10.2994C15.0252 10.2982 15.0247 10.2972 15.0242 10.2961C15.024 10.2956 15.0237 10.2951 15.0235 10.2946C15.0234 10.2944 15.0232 10.294 15.0232 10.2939C15.023 10.2936 15.0228 10.2932 14.1203 10.7239ZM13.2601 12.381C13.0632 13.0401 12.9948 13.8563 13.4389 14.5598C13.9002 15.2904 14.7157 15.5931 15.5908 15.6495L15.7195 13.6537C15.453 13.6365 15.2966 13.5881 15.2137 13.549C15.1739 13.5302 15.1529 13.5145 15.1433 13.5063C15.1343 13.4985 15.1313 13.4939 15.1301 13.4921C15.1296 13.4914 15.111 13.4637 15.1077 13.3769C15.1041 13.2851 15.1191 13.1454 15.1764 12.9535L13.2601 12.381ZM15.6552 14.6516C15.4685 15.634 15.4684 15.634 15.4683 15.634C15.4682 15.634 15.4681 15.634 15.4681 15.634C15.468 15.6339 15.4678 15.6339 15.4677 15.6339C15.4675 15.6338 15.4672 15.6338 15.467 15.6338C15.4666 15.6337 15.4663 15.6336 15.466 15.6336C15.4653 15.6334 15.465 15.6334 15.4648 15.6333C15.4645 15.6333 15.4651 15.6334 15.4664 15.6336C15.469 15.6342 15.4745 15.6353 15.4821 15.637C15.4979 15.6406 15.519 15.6457 15.5406 15.6517C15.5639 15.6582 15.5772 15.6629 15.5806 15.6643C15.5928 15.669 15.5511 15.6551 15.4892 15.6123L16.6256 13.9665C16.413 13.8197 16.1653 13.7497 16.08 13.7258C16.0163 13.708 15.9599 13.6945 15.9194 13.6854C15.8989 13.6808 15.8816 13.6772 15.8684 13.6745C15.8619 13.6731 15.8563 13.672 15.8518 13.6711C15.8496 13.6707 15.8476 13.6703 15.846 13.67C15.8451 13.6698 15.8444 13.6697 15.8437 13.6695C15.8433 13.6695 15.843 13.6694 15.8427 13.6694C15.8425 13.6693 15.8424 13.6693 15.8423 13.6693C15.8422 13.6693 15.8421 13.6692 15.842 13.6692C15.8419 13.6692 15.8418 13.6692 15.6552 14.6516ZM17.0574 14.8677V14.7894H15.0574V14.8677H17.0574ZM15.3856 14.0982C15.2718 14.2098 15.0574 14.4699 15.0574 14.8677H17.0574C17.0574 15.2266 16.864 15.4497 16.7857 15.5264L15.3856 14.0982ZM15.3859 15.5267C15.3077 15.4501 15.1139 15.2269 15.1139 14.8678H17.1139C17.1139 14.4696 16.8992 14.2094 16.7854 14.0979L15.3859 15.5267ZM17.1139 14.8678V14.7894H15.1139V14.8678H17.1139ZM16.5162 14.6516C16.3295 13.6691 16.3294 13.6692 16.3293 13.6692C16.3293 13.6692 16.3292 13.6692 16.3291 13.6692C16.3289 13.6693 16.3288 13.6693 16.3286 13.6693C16.3283 13.6694 16.328 13.6694 16.3277 13.6695C16.327 13.6696 16.3262 13.6698 16.3254 13.6699C16.3237 13.6703 16.3217 13.6706 16.3195 13.6711C16.3151 13.672 16.3095 13.6731 16.3029 13.6744C16.2898 13.6771 16.2725 13.6808 16.2519 13.6854C16.2115 13.6945 16.155 13.7079 16.0914 13.7258C16.0061 13.7497 15.7583 13.8197 15.5457 13.9665L16.6821 15.6123C16.6202 15.655 16.5786 15.6689 16.5907 15.6642C16.5942 15.6629 16.6075 15.6582 16.6307 15.6517C16.6523 15.6456 16.6734 15.6405 16.6893 15.637C16.6968 15.6353 16.7023 15.6341 16.705 15.6336C16.7063 15.6333 16.7068 15.6332 16.7065 15.6333C16.7064 15.6333 16.706 15.6334 16.7054 15.6335C16.7051 15.6336 16.7047 15.6336 16.7043 15.6337C16.7041 15.6338 16.7039 15.6338 16.7036 15.6338C16.7035 15.6339 16.7034 15.6339 16.7033 15.6339C16.7032 15.6339 16.7031 15.6339 16.7031 15.634C16.703 15.634 16.7029 15.634 16.5162 14.6516ZM16.9949 12.9535C17.0522 13.1454 17.0672 13.285 17.0637 13.3769C17.0603 13.4637 17.0417 13.4913 17.0413 13.492C17.0401 13.4939 17.0371 13.4984 17.028 13.5062C17.0184 13.5144 16.9974 13.5302 16.9576 13.549C16.8748 13.5881 16.7183 13.6365 16.4519 13.6536L16.5805 15.6495C17.4556 15.5931 18.2711 15.2904 18.7324 14.5597C19.1765 13.8563 19.1081 13.04 18.9112 12.3809L16.9949 12.9535ZM18.051 10.7238C17.1485 10.2932 17.1484 10.2935 17.1482 10.2939C17.1481 10.294 17.148 10.2943 17.1478 10.2946C17.1476 10.2951 17.1474 10.2956 17.1471 10.2961C17.1467 10.2971 17.1461 10.2982 17.1456 10.2993C17.1445 10.3016 17.1434 10.3041 17.1421 10.3068C17.1396 10.3123 17.1367 10.3187 17.1334 10.326C17.1269 10.3405 17.119 10.3587 17.1101 10.3803C17.0922 10.4234 17.0699 10.4806 17.0458 10.5503C16.9977 10.6893 16.9413 10.8814 16.8986 11.1148C16.8136 11.5795 16.7791 12.2311 16.9949 12.9535L18.9112 12.3809C18.8077 12.0345 18.8222 11.7144 18.866 11.4746C18.8877 11.3558 18.9157 11.2625 18.9359 11.204C18.9459 11.1751 18.9537 11.1555 18.9574 11.1466C18.9592 11.1422 18.96 11.1406 18.9595 11.1418C18.9592 11.1424 18.9586 11.1437 18.9576 11.1458C18.9571 11.1469 18.9566 11.1481 18.9559 11.1496C18.9555 11.1503 18.9552 11.151 18.9548 11.1518C18.9546 11.1523 18.9544 11.1527 18.9542 11.1531C18.9541 11.1533 18.954 11.1536 18.9539 11.1538C18.9537 11.1541 18.9536 11.1544 18.051 10.7238ZM16.6153 10.4268L17.235 11.3018L18.8671 10.1459L18.2475 9.27092L16.6153 10.4268ZM16.7886 11.1224C17.1924 11.1224 17.543 10.9435 17.6873 10.8656C17.7822 10.8143 17.8624 10.7642 17.9189 10.727C17.9476 10.7081 17.9714 10.6918 17.9893 10.6792C17.9983 10.6729 18.0059 10.6675 18.0119 10.6632C18.015 10.661 18.0176 10.6591 18.0199 10.6574C18.021 10.6566 18.022 10.6558 18.023 10.6551C18.0234 10.6548 18.0239 10.6545 18.0243 10.6542C18.0245 10.654 18.0247 10.6539 18.0249 10.6537C18.025 10.6536 18.0252 10.6535 18.0252 10.6535C18.0253 10.6534 18.0255 10.6533 17.4314 9.84888C16.8373 9.04447 16.8375 9.04437 16.8376 9.04427C16.8376 9.04423 16.8378 9.04414 16.8379 9.04407C16.838 9.04394 16.8382 9.04382 16.8384 9.0437C16.8387 9.04346 16.839 9.04323 16.8393 9.04302C16.8399 9.04259 16.8404 9.04223 16.8408 9.04192C16.8416 9.04131 16.8422 9.04092 16.8424 9.04074C16.8429 9.04039 16.8423 9.04086 16.8406 9.04203C16.8372 9.04442 16.8299 9.04943 16.8197 9.05618C16.7982 9.07029 16.7688 9.08858 16.7371 9.10569C16.7034 9.12387 16.6812 9.13313 16.6727 9.1361C16.6571 9.1416 16.7016 9.12237 16.7886 9.12237V11.1224ZM15.6309 10.7566C15.7136 10.8022 15.8662 10.8827 16.0416 10.9544C16.1852 11.0131 16.4745 11.1224 16.7886 11.1224V9.12237C16.8259 9.12237 16.8513 9.12589 16.8616 9.12754C16.8725 9.12929 16.8761 9.13052 16.8713 9.12922C16.8602 9.12624 16.8358 9.1184 16.7985 9.10313C16.7229 9.07223 16.6452 9.03201 16.597 9.00538L15.6309 10.7566ZM17.1139 9.88098V9.84893H15.1139V9.88098H17.1139ZM16.1139 9.84893C15.6019 8.98998 15.6019 8.98997 15.6019 8.98996C15.6019 8.98995 15.6019 8.98994 15.6019 8.98994C15.6019 8.98993 15.602 8.98991 15.602 8.9899C15.602 8.98988 15.6021 8.98985 15.6021 8.98983C15.6022 8.98978 15.6023 8.98973 15.6024 8.98968C15.6025 8.98959 15.6027 8.9895 15.6028 8.98942C15.6031 8.98926 15.6033 8.98912 15.6035 8.989C15.6039 8.98876 15.6042 8.98861 15.6043 8.98853C15.6045 8.98839 15.6042 8.98857 15.6034 8.98905C15.6018 8.99001 15.5981 8.99215 15.5926 8.99524L16.5788 10.7352C16.5915 10.728 16.6019 10.722 16.6098 10.7174C16.6138 10.7151 16.6171 10.7131 16.6198 10.7115C16.6212 10.7107 16.6224 10.71 16.6234 10.7094C16.6239 10.7091 16.6244 10.7088 16.6248 10.7086C16.625 10.7084 16.6252 10.7083 16.6254 10.7082C16.6255 10.7081 16.6256 10.7081 16.6257 10.708C16.6258 10.708 16.6258 10.708 16.6259 10.708C16.6259 10.7079 16.6259 10.7079 16.6259 10.7079C16.6259 10.7079 16.6259 10.7079 16.626 10.7079C16.626 10.7079 16.626 10.7079 16.1139 9.84893Z" fill="white" mask="url(#path-13-outside-2_1957_20280)"/>
</mask>
<g mask="url(#mask1_1957_20280)">
<rect x="14.1936" y="9.7439" width="1.89206" height="2.59621" fill="#67BAFF"/>
<rect x="16.0857" y="9.7439" width="1.89206" height="2.59621" fill="white"/>
<rect x="13.9573" y="12.5874" width="4.73015" height="2.9671" fill="#C51918"/>
<path d="M17.0023 12.1563H16.7657V10.3784H17.0023V12.1563Z" fill="#C9A951"/>
<path d="M16.9065 11.3476L16.7912 11.5541L16.3829 11.3261L16.4982 11.1196L16.9065 11.3476Z" fill="#C9A951"/>
<path d="M16.9065 10.8529L16.7912 11.0594L16.3829 10.8315L16.4982 10.625L16.9065 10.8529Z" fill="#C9A951"/>
<path d="M16.8559 11.3476L16.9712 11.5541L17.3794 11.3261L17.2641 11.1196L16.8559 11.3476Z" fill="#C9A951"/>
<path d="M16.8559 10.8529L16.9712 11.0594L17.3794 10.8315L17.2641 10.625L16.8559 10.8529Z" fill="#C9A951"/>
<path fill-rule="evenodd" clip-rule="evenodd" d="M17.2024 13.1285C17.2024 13.1285 17.3669 12.9404 17.3669 13.0345C17.3669 13.1285 17.3669 13.2867 17.2846 13.2867C17.2024 13.2867 16.8192 13.2114 16.6732 13.0345C16.5272 12.8575 16.2183 12.5494 15.8208 12.6219C15.4232 12.6945 14.9517 13.2099 14.8355 13.2099C14.7192 13.2099 14.4645 13.6071 14.65 13.9174C14.8355 14.2276 15.151 14.1313 15.151 14.2213C15.151 14.3113 15.2299 14.3217 15.5253 14.3217C15.8208 14.3217 15.9288 14.4259 16.1846 14.4259C16.4404 14.4259 16.1002 14.4221 16.5121 14.3217C16.9241 14.2213 17.2361 13.9174 16.996 13.9174C16.756 13.9174 16.6784 13.9174 16.5121 13.9174C16.3458 13.9174 15.9756 14.0372 15.9756 13.9174C15.9756 13.7975 16.0578 13.5409 16.285 13.6692C16.5121 13.7975 17.1432 13.8953 17.3669 13.6692C17.5906 13.443 17.6688 13.3067 17.6297 13.0345C17.5906 12.7623 17.2846 12.8406 17.2846 12.8406L17.2024 13.1285Z" fill="#FBCD17"/>
<path fill-rule="evenodd" clip-rule="evenodd" d="M15.6025 10.3169C15.4599 10.4416 15.5519 10.8973 15.3183 10.8973C15.0847 10.8973 14.7559 10.5561 14.6732 10.7812C14.5904 11.0064 14.6732 10.9307 14.6732 11.1225C14.6732 11.3143 14.4749 11.8471 14.574 11.9372C14.6732 12.0273 14.7748 12.2647 14.7571 12.1536C14.7395 12.0425 14.6646 11.8793 14.6958 11.702C14.6656 11.5189 14.8629 11.3427 14.8629 11.3427C14.8629 11.3427 14.8415 11.5329 14.826 11.6038C14.826 11.6038 14.7609 11.7468 14.7873 11.8419C14.7873 11.8419 14.8541 12.1097 14.8817 12.1282C14.8817 12.1282 14.8995 11.494 14.9199 11.3895C14.9402 11.285 15.0852 11.5074 15.1334 11.4822C15.1334 11.4822 15.15 11.9159 15.1249 11.9675C15.1249 11.9675 15.0741 12.0701 15.093 12.1029C15.093 12.1029 15.1401 12.2216 15.1804 12.187C15.1804 12.187 15.1818 12.1846 15.2022 12.069C15.2022 12.069 15.1785 11.9992 15.2156 11.8403C15.2156 11.8403 15.2546 11.4905 15.2708 11.5664C15.2708 11.5664 15.2635 11.7316 15.2822 11.8167C15.2822 11.8167 15.3119 12.0281 15.3179 12.0513C15.3179 12.0513 15.4606 12.2546 15.4644 12.1687C15.4644 12.1687 15.3276 12.0056 15.3569 11.8814C15.3569 11.8814 15.2786 11.5297 15.3879 11.4513C15.3879 11.4513 15.678 11.3171 15.6954 11.0874C15.6954 11.0874 15.7375 10.8257 15.745 10.7057C15.745 10.7057 15.6814 10.6704 15.8129 10.6085C15.8129 10.6085 16.0247 10.5272 15.8927 10.4142" fill="#D18219"/>
</g>
</g>
</svg>
