<svg width="32" height="24" viewBox="0 0 32 24" fill="none" xmlns="http://www.w3.org/2000/svg">
<mask id="mask0_1957_20323" style="mask-type:luminance" maskUnits="userSpaceOnUse" x="0" y="0" width="32" height="24">
<rect width="32" height="24" fill="white"/>
</mask>
<g mask="url(#mask0_1957_20323)">
<path fill-rule="evenodd" clip-rule="evenodd" d="M0 0V24H32V0H0Z" fill="#F7FCFF"/>
<mask id="mask1_1957_20323" style="mask-type:luminance" maskUnits="userSpaceOnUse" x="0" y="0" width="32" height="24">
<path fill-rule="evenodd" clip-rule="evenodd" d="M0 0V24H32V0H0Z" fill="white"/>
</mask>
<g mask="url(#mask1_1957_20323)">
<path fill-rule="evenodd" clip-rule="evenodd" d="M0 0V6H32V0H0Z" fill="#BF2714"/>
<path fill-rule="evenodd" clip-rule="evenodd" d="M0 18V24H32V18H0Z" fill="#BF2714"/>
<mask id="mask2_1957_20323" style="mask-type:luminance" maskUnits="userSpaceOnUse" x="11" y="7" width="10" height="10">
<path fill-rule="evenodd" clip-rule="evenodd" d="M16 17C18.7614 17 21 14.7614 21 12C21 9.23858 18.7614 7 16 7C13.2386 7 11 9.23858 11 12C11 14.7614 13.2386 17 16 17Z" fill="white"/>
</mask>
<g mask="url(#mask2_1957_20323)">
<path fill-rule="evenodd" clip-rule="evenodd" d="M11.4832 13.5517C11.4284 13.3803 11.6136 13.2314 11.7693 13.3218L11.9924 13.4512C12.0481 13.4835 12.1161 13.4865 12.1745 13.4592L12.9102 13.1147C12.9749 13.0844 13.0509 13.0916 13.1088 13.1334L13.9236 13.7214L15.0574 13.1109C15.1105 13.0824 15.1738 13.0797 15.2291 13.1037L16.0652 13.467C16.1177 13.4897 16.1774 13.4886 16.2289 13.4638L16.978 13.1032C17.0277 13.0793 17.0851 13.0773 17.1363 13.0978L18.0689 13.4703C18.1207 13.491 18.179 13.4887 18.2291 13.4639L18.9443 13.1101C19.0007 13.0822 19.067 13.0829 19.1228 13.1121L19.7739 13.4531C19.8331 13.4841 19.904 13.4829 19.9621 13.45L20.2332 13.2964C20.3849 13.2105 20.5651 13.3497 20.5203 13.5181L20.4663 13.7214H11.5374L11.4832 13.5517Z" fill="#5277B9"/>
<path fill-rule="evenodd" clip-rule="evenodd" d="M11.4794 14.541C11.4263 14.3684 11.6141 14.2214 11.7688 14.3145L11.9634 14.4315C12.0204 14.4658 12.0909 14.469 12.1507 14.4399L12.8478 14.1016C12.914 14.0695 12.9926 14.077 13.0515 14.1211L13.8322 14.7051L14.9208 14.0975C14.9752 14.0672 15.0407 14.0644 15.0975 14.0899L15.893 14.4482C15.9469 14.4724 16.0088 14.4712 16.0616 14.4448L16.7741 14.0893C16.825 14.0639 16.8845 14.0618 16.9371 14.0836L17.8261 14.4517C17.8795 14.4738 17.9398 14.4713 17.9911 14.445L18.6703 14.0967C18.7282 14.067 18.7969 14.0678 18.854 14.0988L19.4705 14.4335C19.5311 14.4664 19.6045 14.4651 19.6639 14.4302L19.9051 14.2886C20.056 14.2 20.2387 14.3377 20.1953 14.5071L20.1445 14.7051H11.53L11.4794 14.541Z" fill="#5277B9"/>
<path fill-rule="evenodd" clip-rule="evenodd" d="M11.6433 15.1967C11.5901 15.0242 11.778 14.8772 11.9327 14.9702L12.1273 15.0873C12.1843 15.1216 12.2547 15.1247 12.3146 15.0957L13.0116 14.7574C13.0778 14.7253 13.1564 14.7328 13.2154 14.7768L13.996 15.3608L15.0846 14.7533C15.139 14.723 15.2045 14.7201 15.2613 14.7457L16.0568 15.1039C16.1107 15.1282 16.1726 15.1269 16.2254 15.1006L16.9379 14.7451C16.9888 14.7197 17.0483 14.7176 17.101 14.7394L17.9899 15.1074C18.0433 15.1295 18.1036 15.1271 18.155 15.1007L18.8342 14.7524C18.892 14.7228 18.9607 14.7236 19.0178 14.7546L19.6343 15.0892C19.6949 15.1221 19.7683 15.1209 19.8278 15.086L20.0689 14.9444C20.2198 14.8558 20.4026 14.9934 20.3591 15.1629L20.3084 15.3608H11.6938L11.6433 15.1967Z" fill="#5277B9"/>
<path fill-rule="evenodd" clip-rule="evenodd" d="M12.6269 15.8525C12.5738 15.68 12.7616 15.5329 12.9163 15.626L13.1109 15.743C13.1679 15.7773 13.2384 15.7805 13.2982 15.7514L13.9953 15.4132C14.0615 15.381 14.1401 15.3885 14.199 15.4326L14.9796 16.0166L16.0683 15.4091C16.1226 15.3787 16.1882 15.3759 16.2449 15.4015L17.0405 15.7597C17.0943 15.7839 17.1562 15.7827 17.2091 15.7563L17.9215 15.4009C17.9725 15.3754 18.032 15.3734 18.0846 15.3951L18.9736 15.7632C19.0269 15.7853 19.0872 15.7828 19.1386 15.7565L19.8178 15.4082C19.8756 15.3786 19.9443 15.3794 20.0014 15.4104L20.618 15.745C20.6786 15.7779 20.7519 15.7767 20.8114 15.7417L21.0526 15.6001C21.2034 15.5116 21.3862 15.6492 21.3427 15.8186L21.292 16.0166H12.6774L12.6269 15.8525Z" fill="#5277B9"/>
<path fill-rule="evenodd" clip-rule="evenodd" d="M11.3154 16.6721C11.2622 16.4995 11.4501 16.3525 11.6048 16.4456L11.7994 16.5626C11.8564 16.5969 11.9268 16.6001 11.9867 16.571L12.6837 16.2327C12.7499 16.2006 12.8285 16.2081 12.8875 16.2522L13.6681 16.8362L14.7568 16.2286C14.8111 16.1983 14.8766 16.1955 14.9334 16.221L15.729 16.5793C15.7828 16.6035 15.8447 16.6023 15.8976 16.5759L16.61 16.2205C16.661 16.195 16.7205 16.1929 16.7731 16.2147L17.6621 16.5828C17.7154 16.6049 17.7757 16.6024 17.8271 16.5761L18.5063 16.2278C18.5641 16.1981 18.6328 16.199 18.6899 16.2299L19.3064 16.5646C19.367 16.5975 19.4404 16.5962 19.4999 16.5613L19.7411 16.4197C19.8919 16.3311 20.0747 16.4688 20.0312 16.6382L19.9805 16.8362H11.3659L11.3154 16.6721Z" fill="#5277B9"/>
<path d="M14.6854 13.7817V14.615C13.9818 14.615 13.484 14.1829 13.242 13.4157L13.2227 13.2904V9.87158H14.056V13.2234C14.1948 13.6237 14.3901 13.7817 14.6854 13.7817Z" fill="#E31D1C"/>
<path d="M16.9932 13.7817V14.615C17.6968 14.615 18.1946 14.1829 18.4366 13.4157L18.4559 13.2904V9.87158H17.6226V13.2234C17.4838 13.6237 17.2885 13.7817 16.9932 13.7817Z" fill="#E31D1C"/>
<path fill-rule="evenodd" clip-rule="evenodd" d="M16.604 7.75702C16.604 7.75702 15.2216 7.39554 15.2216 8.31216C15.2216 9.22878 15.2216 11.1973 15.2216 11.1973L16.8332 11.6759V9.31773C16.8332 9.31773 16.0274 8.82535 16.0274 8.44029C16.0274 8.05523 16.604 7.75702 16.604 7.75702Z" fill="#E31D1C"/>
<path d="M14.2781 12.7424L14.8037 12.0708" stroke="#292B2E"/>
<path d="M14.7574 12.7201L14.2538 12.0444" stroke="#292B2E"/>
<path d="M15.0322 12.7424L15.5578 12.0708" stroke="#292B2E"/>
<path d="M15.5114 12.7201L15.0078 12.0444" stroke="#292B2E"/>
<path d="M15.7534 12.7424L16.279 12.0708" stroke="#292B2E"/>
<path d="M16.2327 12.7201L15.7291 12.0444" stroke="#292B2E"/>
<path d="M16.5076 12.7424L17.0331 12.0708" stroke="#292B2E"/>
<path d="M16.9867 12.7201L16.4832 12.0444" stroke="#292B2E"/>
<path d="M17.2617 12.7424L17.7873 12.0708" stroke="#292B2E"/>
<path d="M17.741 12.7201L17.2374 12.0444" stroke="#292B2E"/>
<path fill-rule="evenodd" clip-rule="evenodd" d="M13.8787 7.91239L14.8761 9.86095L14.9989 7.91239L14.8761 7.52856L13.8787 7.91239ZM13.3791 9.57523L12.6605 8.81332L13.3791 7.95703L14.8894 10.3715V10.9852L14.1632 10.3715V9.57523H13.3791ZM11.797 10.1622L13.1077 10.7897L13.2101 9.82024L12.1189 8.88782L11.797 10.1622ZM13.1739 11.7714L11.4498 11.595V10.3791L13.1739 11.0423V11.7714ZM11.4031 12.9658L11.1985 11.9318L13.1418 12.0287V12.9658H11.4031ZM14.1394 11.267V10.6835L14.8662 11.267L14.7873 11.5752L14.1394 11.267ZM20.9005 11.9318L20.6959 12.9658H18.9572V12.0287L20.9005 11.9318ZM18.9251 11.7714L20.6492 11.595V10.3791L18.9251 11.0423V11.7714ZM20.302 10.1622L18.9913 10.7897L18.8889 9.82024L19.9801 8.88782L20.302 10.1622ZM18.72 9.57523L19.4385 8.81332L18.72 7.95703L17.2096 10.3715V10.9852L17.9358 10.3715V9.57523H18.72ZM18.2203 7.91239L17.2229 9.86095L17.1001 7.91239L17.2229 7.52856L18.2203 7.91239ZM17.9597 11.267V10.6835L17.2329 11.267L17.3117 11.5752L17.9597 11.267Z" fill="#FA8F21"/>
</g>
</g>
</g>
</svg>
