<svg width="32" height="24" viewBox="0 0 32 24" fill="none" xmlns="http://www.w3.org/2000/svg">
<mask id="mask0_1957_20368" style="mask-type:luminance" maskUnits="userSpaceOnUse" x="0" y="0" width="32" height="24">
<rect width="32" height="24" fill="white"/>
</mask>
<g mask="url(#mask0_1957_20368)">
<path fill-rule="evenodd" clip-rule="evenodd" d="M8 0H32V24H8V0Z" fill="#2F8D00"/>
<path fill-rule="evenodd" clip-rule="evenodd" d="M0 0H8V24H0V0Z" fill="#F7FCFF"/>
<path fill-rule="evenodd" clip-rule="evenodd" d="M25.1956 13.8318C24.2658 14.643 23.0497 15.1344 21.7189 15.1344C18.7968 15.1344 16.428 12.7656 16.428 9.84357C16.428 8.79692 16.7319 7.82125 17.2563 7C15.7767 7.97379 14.8 9.64942 14.8 11.5532C14.8 14.5614 17.2387 17 20.2469 17C22.4416 17 24.3331 15.702 25.1956 13.8318Z" fill="white"/>
<path fill-rule="evenodd" clip-rule="evenodd" d="M22.8035 9.48198C22.7614 9.45946 22.7108 9.46022 22.6694 9.48398L21.6928 10.0454C21.5829 10.1086 21.4531 10.0027 21.493 9.88232L21.8044 8.94172C21.8214 8.8903 21.8068 8.83367 21.767 8.79691L21.1146 8.19439C21.0232 8.10996 21.0813 7.95719 21.2058 7.95494L22.1088 7.93855C22.1628 7.93757 22.2113 7.90518 22.2329 7.85565L22.653 6.89127C22.702 6.77859 22.8628 6.7814 22.9079 6.89572L23.2928 7.87091C23.3133 7.92282 23.363 7.95729 23.4188 7.95826L24.3111 7.97384C24.4361 7.97602 24.4941 8.12989 24.4016 8.214L23.7277 8.82705C23.6864 8.86464 23.6718 8.92344 23.6908 8.976L24.0073 9.85399C24.0502 9.97301 23.9238 10.0823 23.8122 10.0225L22.8035 9.48198Z" fill="white"/>
</g>
</svg>
