<svg width="32" height="24" viewBox="0 0 32 24" fill="none" xmlns="http://www.w3.org/2000/svg">
<mask id="mask0_1957_20222" style="mask-type:luminance" maskUnits="userSpaceOnUse" x="0" y="0" width="32" height="24">
<rect width="32" height="24" fill="white"/>
</mask>
<g mask="url(#mask0_1957_20222)">
<path fill-rule="evenodd" clip-rule="evenodd" d="M0 0V24H32V0H0Z" fill="#F7FCFF"/>
<mask id="mask1_1957_20222" style="mask-type:luminance" maskUnits="userSpaceOnUse" x="0" y="0" width="32" height="24">
<path fill-rule="evenodd" clip-rule="evenodd" d="M0 0V24H32V0H0Z" fill="white"/>
</mask>
<g mask="url(#mask1_1957_20222)">
<path fill-rule="evenodd" clip-rule="evenodd" d="M0 0V8H32V0H0Z" fill="#F03F34"/>
<path fill-rule="evenodd" clip-rule="evenodd" d="M0 16V24H32V16H0Z" fill="#3D58DB"/>
<path fill-rule="evenodd" clip-rule="evenodd" d="M12.825 12C12.825 10.2464 14.2464 8.82495 16 8.82495C17.7535 8.82495 19.175 10.2464 19.175 12C19.175 13.7535 17.7535 15.175 16 15.175C14.2464 15.175 12.825 13.7535 12.825 12ZM16 9.17495C14.4397 9.17495 13.175 10.4397 13.175 12C13.175 13.5602 14.4397 14.825 16 14.825C17.5602 14.825 18.825 13.5602 18.825 12C18.825 10.4397 17.5602 9.17495 16 9.17495Z" fill="#292B2E"/>
<path fill-rule="evenodd" clip-rule="evenodd" d="M13.825 12C13.825 10.7987 14.7987 9.82495 16 9.82495C17.2012 9.82495 18.175 10.7987 18.175 12C18.175 13.2012 17.2012 14.175 16 14.175C14.7987 14.175 13.825 13.2012 13.825 12ZM16 10.175C14.992 10.175 14.175 10.992 14.175 12C14.175 13.0079 14.992 13.825 16 13.825C17.0079 13.825 17.825 13.0079 17.825 12C17.825 10.992 17.0079 10.175 16 10.175Z" fill="#292B2E"/>
<path fill-rule="evenodd" clip-rule="evenodd" d="M16.0648 12.6423C16.039 12.6285 16.0079 12.629 15.9825 12.6435L15.3826 12.9884C15.3151 13.0272 15.2354 12.9622 15.2598 12.8882L15.4511 12.3105C15.4616 12.2789 15.4526 12.2441 15.4282 12.2215L15.0274 11.8514C14.9713 11.7995 15.007 11.7057 15.0834 11.7043L15.6381 11.6942C15.6713 11.6936 15.7011 11.6737 15.7143 11.6433L15.9724 11.0509C16.0025 10.9817 16.1013 10.9834 16.129 11.0537L16.3654 11.6527C16.378 11.6846 16.4086 11.7058 16.4428 11.7064L16.991 11.7159C17.0677 11.7173 17.1033 11.8118 17.0465 11.8634L16.6326 12.24C16.6072 12.2631 16.5982 12.2992 16.6099 12.3315L16.8043 12.8708C16.8307 12.9439 16.753 13.0111 16.6845 12.9743L16.0648 12.6423Z" fill="#FBCD17"/>
<path d="M14.5641 9.0437L15.0309 9.76192L14.5641 9.0437Z" fill="#F7FCFF"/>
</g>
</g>
</svg>
