<svg width="32" height="24" viewBox="0 0 32 24" fill="none" xmlns="http://www.w3.org/2000/svg">
<mask id="mask0_1957_20335" style="mask-type:luminance" maskUnits="userSpaceOnUse" x="0" y="0" width="32" height="24">
<rect width="32" height="24" fill="white"/>
</mask>
<g mask="url(#mask0_1957_20335)">
<path fill-rule="evenodd" clip-rule="evenodd" d="M0 0V24H32V0H0Z" fill="#4857A1"/>
<mask id="mask1_1957_20335" style="mask-type:luminance" maskUnits="userSpaceOnUse" x="0" y="0" width="32" height="24">
<path fill-rule="evenodd" clip-rule="evenodd" d="M0 0V24H32V0H0Z" fill="white"/>
</mask>
<g mask="url(#mask1_1957_20335)">
<path fill-rule="evenodd" clip-rule="evenodd" d="M0 0V8H32V0H0Z" fill="#C51918"/>
<path fill-rule="evenodd" clip-rule="evenodd" d="M0 16V24H32V16H0Z" fill="#F7FCFF"/>
<path fill-rule="evenodd" clip-rule="evenodd" d="M16.4145 7.06331L16.3464 6.79028C16.4045 6.80812 16.4676 6.82643 16.5341 6.84525L16.5335 6.84182C17.3283 6.91392 18.5569 7.32532 18.7856 7.76229C18.874 7.93118 18.7861 8.07516 18.6709 8.26384C18.6537 8.29203 18.6359 8.32122 18.6179 8.35165C18.56 8.44989 18.5075 8.54381 18.458 8.63232C18.2795 8.95166 18.1403 9.20061 17.9284 9.3285L17.9326 10.0516L14.383 10.021L14.3784 9.29058C14.1969 9.15469 14.0671 8.92255 13.9048 8.63224L13.9048 8.63224C13.8553 8.54372 13.8028 8.44981 13.7449 8.35156C13.7269 8.32114 13.7091 8.29195 13.6919 8.26375L13.6919 8.26375C13.5767 8.07507 13.4888 7.93109 13.5772 7.7622C13.7491 7.43374 14.5279 7.11428 15.2416 6.94527C15.3822 6.89527 15.5291 6.84855 15.6748 6.80381L15.7398 6.85087C15.7962 6.84317 15.8509 6.83689 15.9033 6.83213L15.9851 7.01445H16.2741C16.2741 7.01445 16.4487 7.53258 16.4487 7.82033C16.4487 8.10807 16.2741 8.34602 16.2741 8.34602V8.54473C16.3044 8.54725 16.3362 8.55033 16.3692 8.5539C16.3695 8.53664 16.3711 8.51847 16.3744 8.49987C16.3912 8.40495 16.4432 8.33479 16.4907 8.34316C16.5381 8.35153 16.563 8.43526 16.5463 8.53018C16.5436 8.54564 16.5399 8.56044 16.5355 8.57435C16.7228 8.59982 16.9326 8.63537 17.1314 8.67195C17.2071 8.52522 17.2994 8.38026 17.3875 8.24185C17.6153 7.88408 17.8152 7.57009 17.6286 7.38266C17.5933 7.34718 17.5295 7.31418 17.4471 7.2836C17.1741 7.21563 16.8767 7.1632 16.5877 7.13699L16.579 7.08947C16.5214 7.08011 16.4661 7.07139 16.4145 7.06331ZM17.7634 8.79704C17.8643 8.8183 17.9255 8.83182 17.9255 8.83182L17.9261 8.93535C18.2778 8.6643 18.5266 8.06372 18.549 7.86698C18.5626 7.74837 18.3745 7.61162 18.0796 7.48772C18.2191 7.75241 18.0321 8.01508 17.7976 8.34473C17.7094 8.46863 17.6145 8.60199 17.5277 8.74847L17.6138 8.76597C17.613 8.73878 17.6166 8.70821 17.625 8.67679C17.65 8.58369 17.708 8.51833 17.7545 8.53081C17.8011 8.54328 17.8186 8.62886 17.7936 8.72196C17.7861 8.74995 17.7756 8.77543 17.7634 8.79704ZM15.9496 8.54607V8.32478C15.9496 8.32478 15.7985 8.15591 15.7751 7.8042C15.7583 7.55264 15.8102 7.25692 15.841 7.1089C15.6152 7.13753 15.3771 7.18204 15.1467 7.23669C14.9945 7.2796 14.8733 7.32819 14.8192 7.38258C14.6326 7.57002 14.8325 7.88401 15.0603 8.24178L15.0603 8.24178C15.1454 8.37549 15.2344 8.51532 15.3086 8.65694C15.4369 8.62917 15.5658 8.60346 15.6862 8.583C15.681 8.5644 15.6773 8.5441 15.6754 8.52273C15.667 8.42672 15.6991 8.34547 15.7471 8.34127C15.7951 8.33707 15.8409 8.41151 15.8493 8.50752C15.8508 8.52492 15.851 8.54183 15.85 8.55788C15.8845 8.55325 15.9178 8.54928 15.9496 8.54607ZM14.9193 8.74707C14.8327 8.60111 14.7381 8.46818 14.6502 8.34466C14.4103 8.00756 14.2203 7.74049 14.3782 7.46968C14.0329 7.60339 13.8003 7.74859 13.8138 7.86689C13.835 8.05278 14.0583 8.59919 14.3795 8.88754C14.4019 8.88127 14.5261 8.84682 14.7014 8.80177C14.6879 8.78075 14.676 8.75572 14.667 8.728C14.6372 8.63633 14.6502 8.54995 14.6961 8.53506C14.7419 8.52016 14.8032 8.5824 14.833 8.67407C14.8433 8.70573 14.8485 8.73676 14.8489 8.76444L14.9193 8.74707Z" fill="#F6C540"/>
<path fill-rule="evenodd" clip-rule="evenodd" d="M16.5328 6.8844C16.5328 7.09602 16.357 7.26757 16.1402 7.26757C15.9233 7.26757 15.7475 7.09602 15.7475 6.8844C15.7475 6.67277 15.9233 6.50122 16.1402 6.50122C16.357 6.50122 16.5328 6.67277 16.5328 6.8844ZM16.1401 9.72991C16.3088 9.72991 16.4455 9.65177 16.4455 9.55539C16.4455 9.459 16.3088 9.38087 16.1401 9.38087C15.9715 9.38087 15.8347 9.459 15.8347 9.55539C15.8347 9.65177 15.9715 9.72991 16.1401 9.72991ZM14.6131 9.68624C14.6131 9.75853 14.5545 9.81713 14.4822 9.81713C14.4099 9.81713 14.3513 9.75853 14.3513 9.68624C14.3513 9.61395 14.4099 9.55535 14.4822 9.55535C14.5545 9.55535 14.6131 9.61395 14.6131 9.68624ZM18.1035 9.68624C18.1035 9.75853 18.0449 9.81713 17.9726 9.81713C17.9003 9.81713 17.8417 9.75853 17.8417 9.68624C17.8417 9.61395 17.9003 9.55535 17.9726 9.55535C18.0449 9.55535 18.1035 9.61395 18.1035 9.68624Z" fill="#2E42A5"/>
<path fill-rule="evenodd" clip-rule="evenodd" d="M17.3181 9.59891C17.3181 9.6712 17.2204 9.7298 17.0999 9.7298C16.9795 9.7298 16.8818 9.6712 16.8818 9.59891C16.8818 9.52662 16.9795 9.46802 17.0999 9.46802C17.2204 9.46802 17.3181 9.52662 17.3181 9.59891ZM15.4856 9.599C15.4856 9.67129 15.3879 9.72989 15.2675 9.72989C15.147 9.72989 15.0493 9.67129 15.0493 9.599C15.0493 9.52672 15.147 9.46811 15.2675 9.46811C15.3879 9.46811 15.4856 9.52672 15.4856 9.599Z" fill="#C5363C"/>
<path fill-rule="evenodd" clip-rule="evenodd" d="M16.8818 8.50802C16.8818 8.6044 16.8427 8.68254 16.7945 8.68254C16.7463 8.68254 16.7073 8.6044 16.7073 8.50802C16.7073 8.41163 16.7463 8.3335 16.7945 8.3335C16.8427 8.3335 16.8818 8.41163 16.8818 8.50802ZM15.5686 8.48112C15.5984 8.57279 15.5853 8.65917 15.5395 8.67406C15.4937 8.68895 15.4324 8.62671 15.4026 8.53505C15.3728 8.44338 15.3858 8.357 15.4317 8.3421C15.4775 8.32721 15.5388 8.38945 15.5686 8.48112ZM14.5421 8.95423C14.5879 8.93934 14.6009 8.85296 14.5711 8.76129C14.5413 8.66962 14.48 8.60739 14.4342 8.62228C14.3884 8.63717 14.3754 8.72355 14.4052 8.81522C14.4349 8.90689 14.4962 8.96913 14.5421 8.95423ZM17.9948 8.83578C17.9438 8.91752 17.8692 8.96308 17.8284 8.93754C17.7875 8.912 17.7958 8.82504 17.8468 8.7433C17.8979 8.66156 17.9724 8.616 18.0133 8.64154C18.0542 8.66707 18.0459 8.75404 17.9948 8.83578Z" fill="#F7FCFF"/>
<path fill-rule="evenodd" clip-rule="evenodd" d="M15.3989 7.0568C15.4232 7.07452 15.4532 7.08498 15.4856 7.08498C15.5671 7.08498 15.6331 7.01895 15.6331 6.93751C15.6331 6.85606 15.5671 6.79004 15.4856 6.79004C15.4279 6.79004 15.3779 6.82323 15.3537 6.87157C15.3293 6.85385 15.2994 6.8434 15.267 6.8434C15.215 6.8434 15.1693 6.87029 15.143 6.91093C15.1175 6.88995 15.0849 6.87735 15.0493 6.87735C14.9679 6.87735 14.9019 6.94338 14.9019 7.02482C14.9019 7.02935 14.9021 7.03383 14.9025 7.03825C14.8754 7.00468 14.834 6.98319 14.7875 6.98319C14.7137 6.98319 14.6526 7.03741 14.6418 7.10819C14.6148 7.07387 14.5729 7.05184 14.5258 7.05184C14.455 7.05184 14.3959 7.10169 14.3816 7.1682C14.3574 7.15075 14.3277 7.14048 14.2955 7.14048C14.2302 7.14048 14.1748 7.18299 14.1554 7.24186C14.1356 7.23192 14.1132 7.22632 14.0895 7.22632C14.0167 7.22632 13.9563 7.27899 13.9442 7.34828C13.9347 7.34638 13.925 7.34539 13.915 7.34539C13.8343 7.34539 13.7687 7.4102 13.7675 7.49061C13.7587 7.48897 13.7497 7.48812 13.7404 7.48812C13.659 7.48812 13.5929 7.55415 13.5929 7.63559C13.5929 7.6459 13.594 7.65596 13.596 7.66568C13.5863 7.66366 13.5762 7.66261 13.5659 7.66261C13.4845 7.66261 13.4185 7.72863 13.4185 7.81007C13.4185 7.87194 13.4566 7.92492 13.5106 7.9468C13.5074 7.95885 13.5057 7.97151 13.5057 7.98456C13.5057 8.04644 13.5438 8.09942 13.5979 8.1213C13.5946 8.13339 13.5929 8.14609 13.5929 8.15919C13.5929 8.23872 13.6559 8.30355 13.7347 8.30655C13.7015 8.33359 13.6803 8.37481 13.6803 8.42099C13.6803 8.50243 13.7463 8.56846 13.8277 8.56846C13.9092 8.56846 13.9752 8.50243 13.9752 8.42099C13.9752 8.34145 13.9122 8.27662 13.8334 8.27363C13.8667 8.24659 13.8879 8.20537 13.8879 8.15919C13.8879 8.09731 13.8498 8.04433 13.7957 8.02245C13.7989 8.01036 13.8006 7.99766 13.8006 7.98456C13.8006 7.92269 13.7625 7.86972 13.7085 7.84783C13.7117 7.83578 13.7134 7.82312 13.7134 7.81007C13.7134 7.79976 13.7123 7.7897 13.7103 7.77999C13.72 7.782 13.7301 7.78306 13.7404 7.78306C13.8211 7.78306 13.8867 7.71825 13.8879 7.63784C13.8966 7.63947 13.9057 7.64033 13.915 7.64033C13.9877 7.64033 14.0482 7.58766 14.0602 7.51837C14.0697 7.52027 14.0795 7.52126 14.0895 7.52126C14.1548 7.52126 14.2102 7.47875 14.2296 7.41988C14.2494 7.42982 14.2718 7.43542 14.2955 7.43542C14.3279 7.43542 14.3578 7.42499 14.3822 7.40731C14.3867 7.42703 14.3953 7.44523 14.4069 7.46103C14.3889 7.48546 14.3783 7.51563 14.3783 7.54828C14.3783 7.62779 14.4413 7.6926 14.52 7.69563C14.4868 7.72267 14.4656 7.7639 14.4656 7.81007C14.4656 7.87194 14.5037 7.92492 14.5577 7.9468C14.5545 7.95885 14.5528 7.97151 14.5528 7.98456C14.5528 8.04644 14.5909 8.09942 14.645 8.1213C14.6418 8.13339 14.6401 8.14609 14.6401 8.15919C14.6401 8.24063 14.7061 8.30666 14.7875 8.30666C14.869 8.30666 14.935 8.24063 14.935 8.15919C14.935 8.09731 14.8969 8.04433 14.8428 8.02245C14.8461 8.01036 14.8478 7.99766 14.8478 7.98456C14.8478 7.92269 14.8097 7.86972 14.7556 7.84783C14.7588 7.83578 14.7605 7.82312 14.7605 7.81007C14.7605 7.73056 14.6976 7.66575 14.6188 7.66272C14.6521 7.63568 14.6733 7.59445 14.6733 7.54828C14.6733 7.51563 14.6627 7.48546 14.6447 7.46103C14.6627 7.4366 14.6733 7.40644 14.6733 7.37379C14.6733 7.34115 14.6627 7.31098 14.6447 7.28655C14.6585 7.26784 14.6679 7.24576 14.6716 7.22178C14.6986 7.25609 14.7405 7.27813 14.7875 7.27813C14.869 7.27813 14.935 7.21211 14.935 7.13066C14.935 7.12613 14.9348 7.12165 14.9344 7.11723C14.9614 7.15081 15.0029 7.17229 15.0493 7.17229C15.1013 7.17229 15.147 7.1454 15.1733 7.10476C15.1988 7.12574 15.2314 7.13834 15.267 7.13834C15.3247 7.13834 15.3747 7.10515 15.3989 7.0568ZM14.5275 7.34677C14.5756 7.34622 14.6182 7.32264 14.6447 7.28655C14.618 7.25016 14.5749 7.2265 14.5263 7.22632C14.541 7.22602 14.5528 7.21403 14.5528 7.19928C14.5528 7.18434 14.5407 7.17223 14.5258 7.17223C14.5108 7.17223 14.4987 7.18434 14.4987 7.19928C14.4987 7.21403 14.5105 7.22603 14.5252 7.22632C14.4931 7.22645 14.4634 7.23686 14.4392 7.25443C14.431 7.21914 14.4101 7.18871 14.3816 7.1682C14.3795 7.17823 14.3783 7.18864 14.3783 7.19931C14.3783 7.23195 14.3889 7.26212 14.4069 7.28655C14.3889 7.31098 14.3783 7.34115 14.3783 7.37379C14.3783 7.38532 14.3797 7.39654 14.3822 7.40731C14.411 7.38633 14.432 7.35514 14.4397 7.31906C14.4635 7.33618 14.4926 7.3464 14.524 7.34677C14.5099 7.34766 14.4987 7.35941 14.4987 7.37376C14.4987 7.38852 14.5105 7.40051 14.5252 7.40081C14.4767 7.401 14.4336 7.42466 14.4069 7.46103C14.4337 7.49756 14.477 7.52126 14.5258 7.52126C14.5746 7.52126 14.6179 7.49756 14.6447 7.46103C14.618 7.42464 14.5749 7.40098 14.5263 7.40081C14.541 7.4005 14.5528 7.38851 14.5528 7.37376C14.5528 7.35941 14.5417 7.34767 14.5275 7.34677ZM14.5252 7.40081L14.5258 7.40081L14.5258 7.40081L14.5252 7.40081ZM14.5275 7.34677L14.5258 7.34671L14.524 7.34677L14.5258 7.34678L14.5275 7.34677ZM14.4397 7.31906C14.4272 7.31001 14.4161 7.29903 14.4069 7.28655C14.4159 7.27425 14.4268 7.26341 14.4392 7.25443C14.4417 7.2652 14.443 7.27642 14.443 7.28795C14.443 7.29862 14.4419 7.30903 14.4397 7.31906ZM14.5263 7.22632L14.5258 7.22632L14.5258 7.22633L14.5263 7.22632ZM14.8428 8.02245C14.8258 8.01553 14.8071 8.01172 14.7875 8.01172C14.7192 8.01172 14.6617 8.05822 14.645 8.1213C14.6621 8.12822 14.6807 8.13203 14.7003 8.13203C14.7686 8.13203 14.8261 8.08553 14.8428 8.02245ZM14.7556 7.84783C14.7386 7.8409 14.7199 7.83709 14.7003 7.83709C14.6319 7.83709 14.5744 7.88365 14.5577 7.9468C14.5748 7.95373 14.5935 7.95754 14.613 7.95754C14.6814 7.95754 14.739 7.91098 14.7556 7.84783ZM14.6188 7.66272L14.613 7.66261C14.5778 7.66261 14.5454 7.67498 14.52 7.69563L14.5258 7.69574C14.5611 7.69574 14.5934 7.68337 14.6188 7.66272ZM13.8334 8.27363L13.8277 8.27352C13.7925 8.27352 13.7601 8.2859 13.7347 8.30655L13.7404 8.30666C13.7757 8.30666 13.8081 8.29428 13.8334 8.27363ZM13.7957 8.02245C13.779 8.08553 13.7215 8.13203 13.6532 8.13203C13.6336 8.13203 13.6149 8.12822 13.5979 8.1213C13.6146 8.05822 13.6721 8.01172 13.7404 8.01172C13.76 8.01172 13.7786 8.01553 13.7957 8.02245ZM13.7085 7.84783C13.6918 7.91098 13.6343 7.95754 13.5659 7.95754C13.5464 7.95754 13.5277 7.95373 13.5106 7.9468C13.5273 7.88365 13.5848 7.83709 13.6532 7.83709C13.6727 7.83709 13.6914 7.8409 13.7085 7.84783ZM13.596 7.66568C13.6079 7.72298 13.653 7.76811 13.7103 7.77999C13.6984 7.72268 13.6533 7.67755 13.596 7.66568ZM13.8879 7.63784C13.8194 7.62512 13.7675 7.56504 13.7675 7.49286L13.7675 7.49061C13.836 7.50333 13.8879 7.5634 13.8879 7.63559L13.8879 7.63784ZM14.0602 7.51837C13.9928 7.50481 13.942 7.44524 13.942 7.37379C13.942 7.36509 13.9427 7.35657 13.9442 7.34828C14.0116 7.36184 14.0624 7.42141 14.0624 7.49286C14.0624 7.50156 14.0617 7.51008 14.0602 7.51837ZM14.2296 7.41988C14.1812 7.39567 14.1481 7.34568 14.1481 7.28795C14.1481 7.27185 14.1506 7.25636 14.1554 7.24186C14.2037 7.26607 14.2369 7.31606 14.2369 7.37379C14.2369 7.38989 14.2343 7.40538 14.2296 7.41988ZM14.6716 7.22178C14.6518 7.1967 14.6401 7.16505 14.6401 7.13066C14.6401 7.12302 14.6406 7.11552 14.6418 7.10819C14.6615 7.13327 14.6733 7.16491 14.6733 7.19931C14.6733 7.20695 14.6727 7.21445 14.6716 7.22178ZM14.9025 7.03825C14.9052 7.06801 14.9167 7.09522 14.9344 7.11723C14.9317 7.08747 14.9202 7.06027 14.9025 7.03825ZM15.1733 7.10476C15.1404 7.07772 15.1195 7.03674 15.1195 6.99087C15.1195 6.96141 15.1281 6.93396 15.143 6.91093C15.1759 6.93798 15.1968 6.97895 15.1968 7.02482C15.1968 7.05429 15.1882 7.08173 15.1733 7.10476ZM15.3989 7.0568C15.3621 7.02999 15.3381 6.98655 15.3381 6.93751C15.3381 6.91381 15.3437 6.89141 15.3537 6.87157C15.3905 6.89838 15.4144 6.94183 15.4144 6.99087C15.4144 7.01457 15.4088 7.03696 15.3989 7.0568ZM13.9149 7.52003C13.9299 7.52003 13.942 7.50792 13.942 7.49298C13.942 7.47804 13.9299 7.46593 13.9149 7.46593C13.9 7.46593 13.8879 7.47804 13.8879 7.49298C13.8879 7.50792 13.9 7.52003 13.9149 7.52003ZM13.7405 7.66261C13.7554 7.66261 13.7675 7.6505 13.7675 7.63556C13.7675 7.62062 13.7554 7.60851 13.7405 7.60851C13.7255 7.60851 13.7134 7.62062 13.7134 7.63556C13.7134 7.6505 13.7255 7.66261 13.7405 7.66261ZM13.5659 7.8371C13.5808 7.8371 13.5929 7.82498 13.5929 7.81005C13.5929 7.79511 13.5808 7.78299 13.5659 7.78299C13.551 7.78299 13.5388 7.79511 13.5388 7.81005C13.5388 7.82498 13.551 7.8371 13.5659 7.8371ZM13.6532 8.01173C13.6682 8.01173 13.6803 7.99962 13.6803 7.98468C13.6803 7.96974 13.6682 7.95763 13.6532 7.95763C13.6383 7.95763 13.6262 7.96974 13.6262 7.98468C13.6262 7.99962 13.6383 8.01173 13.6532 8.01173ZM13.7405 8.18621C13.7554 8.18621 13.7675 8.1741 13.7675 8.15916C13.7675 8.14422 13.7554 8.13211 13.7405 8.13211C13.7255 8.13211 13.7134 8.14422 13.7134 8.15916C13.7134 8.1741 13.7255 8.18621 13.7405 8.18621ZM13.8547 8.42096C13.8547 8.4359 13.8426 8.44801 13.8277 8.44801C13.8128 8.44801 13.8006 8.4359 13.8006 8.42096C13.8006 8.40602 13.8128 8.39391 13.8277 8.39391C13.8426 8.39391 13.8547 8.40602 13.8547 8.42096ZM14.0895 7.40081C14.1044 7.40081 14.1165 7.3887 14.1165 7.37376C14.1165 7.35882 14.1044 7.34671 14.0895 7.34671C14.0746 7.34671 14.0624 7.35882 14.0624 7.37376C14.0624 7.3887 14.0746 7.40081 14.0895 7.40081ZM14.2956 7.31497C14.3105 7.31497 14.3226 7.30286 14.3226 7.28792C14.3226 7.27298 14.3105 7.26087 14.2956 7.26087C14.2806 7.26087 14.2685 7.27298 14.2685 7.28792C14.2685 7.30286 14.2806 7.31497 14.2956 7.31497ZM14.7876 7.15768C14.8025 7.15768 14.8146 7.14557 14.8146 7.13063C14.8146 7.11569 14.8025 7.10358 14.7876 7.10358C14.7726 7.10358 14.7605 7.11569 14.7605 7.13063C14.7605 7.14557 14.7726 7.15768 14.7876 7.15768ZM15.0494 7.05185C15.0643 7.05185 15.0764 7.03973 15.0764 7.02479C15.0764 7.00985 15.0643 6.99774 15.0494 6.99774C15.0344 6.99774 15.0223 7.00985 15.0223 7.02479C15.0223 7.03973 15.0344 7.05185 15.0494 7.05185ZM15.267 7.01789C15.2819 7.01789 15.2941 7.00578 15.2941 6.99084C15.2941 6.9759 15.2819 6.96379 15.267 6.96379C15.2521 6.96379 15.24 6.9759 15.24 6.99084C15.24 7.00578 15.2521 7.01789 15.267 7.01789ZM15.4857 6.96453C15.5006 6.96453 15.5127 6.95242 15.5127 6.93748C15.5127 6.92254 15.5006 6.91043 15.4857 6.91043C15.4707 6.91043 15.4586 6.92254 15.4586 6.93748C15.4586 6.95242 15.4707 6.96453 15.4857 6.96453ZM14.5258 7.57544C14.5407 7.57544 14.5528 7.56333 14.5528 7.54839C14.5528 7.53345 14.5407 7.52134 14.5258 7.52134C14.5108 7.52134 14.4987 7.53345 14.4987 7.54839C14.4987 7.56333 14.5108 7.57544 14.5258 7.57544ZM14.613 7.8371C14.628 7.8371 14.6401 7.82498 14.6401 7.81005C14.6401 7.79511 14.628 7.78299 14.613 7.78299C14.5981 7.78299 14.586 7.79511 14.586 7.81005C14.586 7.82498 14.5981 7.8371 14.613 7.8371ZM14.7003 8.01173C14.7153 8.01173 14.7274 7.99962 14.7274 7.98468C14.7274 7.96974 14.7153 7.95763 14.7003 7.95763C14.6854 7.95763 14.6733 7.96974 14.6733 7.98468C14.6733 7.99962 14.6854 8.01173 14.7003 8.01173ZM14.7876 8.18621C14.8025 8.18621 14.8146 8.1741 14.8146 8.15916C14.8146 8.14422 14.8025 8.13211 14.7876 8.13211C14.7726 8.13211 14.7605 8.14422 14.7605 8.15916C14.7605 8.1741 14.7726 8.18621 14.7876 8.18621ZM18.627 8.44801C18.642 8.44801 18.6541 8.4359 18.6541 8.42096C18.6541 8.40602 18.642 8.39391 18.627 8.39391C18.6121 8.39391 18.6 8.40602 18.6 8.42096C18.6 8.4359 18.6121 8.44801 18.627 8.44801ZM18.4795 8.42099C18.4795 8.50243 18.5455 8.56846 18.627 8.56846C18.7084 8.56846 18.7745 8.50243 18.7745 8.42099C18.7745 8.37481 18.7532 8.33359 18.72 8.30655C18.7988 8.30355 18.8618 8.23872 18.8618 8.15919C18.8618 8.14609 18.8601 8.13339 18.8569 8.1213C18.9109 8.09942 18.949 8.04644 18.949 7.98456C18.949 7.97151 18.9473 7.95885 18.9441 7.9468C18.9982 7.92492 19.0363 7.87194 19.0363 7.81007C19.0363 7.72863 18.9702 7.66261 18.8888 7.66261C18.8785 7.66261 18.8684 7.66366 18.8587 7.66568C18.8607 7.65596 18.8618 7.6459 18.8618 7.63559C18.8618 7.55415 18.7957 7.48812 18.7143 7.48812C18.705 7.48812 18.696 7.48897 18.6872 7.49061C18.686 7.4102 18.6204 7.34539 18.5397 7.34539C18.5297 7.34539 18.52 7.34638 18.5105 7.34828C18.4984 7.27899 18.438 7.22632 18.3653 7.22632C18.3416 7.22632 18.3191 7.23192 18.2993 7.24186C18.2799 7.18299 18.2245 7.14048 18.1592 7.14048C18.127 7.14048 18.0973 7.15075 18.0731 7.1682C18.0588 7.10169 17.9997 7.05184 17.9289 7.05184C17.8819 7.05184 17.8399 7.07387 17.8129 7.10819C17.8021 7.03741 17.741 6.98319 17.6672 6.98319C17.6207 6.98319 17.5793 7.00468 17.5522 7.03825C17.5526 7.03383 17.5528 7.02935 17.5528 7.02482C17.5528 6.94338 17.4868 6.87735 17.4054 6.87735C17.3698 6.87735 17.3372 6.88995 17.3117 6.91093C17.2854 6.87029 17.2397 6.8434 17.1878 6.8434C17.1553 6.8434 17.1254 6.85385 17.101 6.87157C17.0768 6.82323 17.0268 6.79004 16.9691 6.79004C16.8877 6.79004 16.8216 6.85606 16.8216 6.93751C16.8216 7.01895 16.8877 7.08498 16.9691 7.08498C17.0015 7.08498 17.0315 7.07452 17.0558 7.0568C17.08 7.10515 17.13 7.13834 17.1878 7.13834C17.2233 7.13834 17.256 7.12574 17.2814 7.10476C17.3077 7.1454 17.3534 7.17229 17.4054 7.17229C17.4518 7.17229 17.4933 7.15081 17.5203 7.11723C17.5199 7.12165 17.5197 7.12613 17.5197 7.13066C17.5197 7.21211 17.5857 7.27813 17.6672 7.27813C17.7142 7.27813 17.7561 7.25609 17.7831 7.22178C17.7868 7.24576 17.7962 7.26784 17.81 7.28655C17.792 7.31098 17.7814 7.34115 17.7814 7.37379C17.7814 7.40644 17.792 7.4366 17.81 7.46103C17.792 7.48546 17.7814 7.51563 17.7814 7.54828C17.7814 7.59445 17.8027 7.63568 17.8359 7.66272C17.7571 7.66575 17.6942 7.73056 17.6942 7.81007C17.6942 7.82312 17.6959 7.83578 17.6991 7.84783C17.6451 7.86972 17.607 7.92269 17.607 7.98456C17.607 7.99766 17.6087 8.01036 17.6119 8.02245C17.5578 8.04433 17.5197 8.09731 17.5197 8.15919C17.5197 8.24063 17.5857 8.30666 17.6672 8.30666C17.7486 8.30666 17.8146 8.24063 17.8146 8.15919C17.8146 8.14609 17.8129 8.13339 17.8097 8.1213C17.8638 8.09942 17.9019 8.04644 17.9019 7.98456C17.9019 7.97151 17.9002 7.95885 17.897 7.9468C17.951 7.92492 17.9891 7.87194 17.9891 7.81007C17.9891 7.7639 17.9679 7.72267 17.9347 7.69563C18.0134 7.6926 18.0764 7.62779 18.0764 7.54828C18.0764 7.51563 18.0658 7.48546 18.0478 7.46103C18.0594 7.44523 18.068 7.42703 18.0725 7.40731C18.0969 7.42499 18.1268 7.43542 18.1592 7.43542C18.1829 7.43542 18.2053 7.42982 18.2251 7.41988C18.2445 7.47875 18.2999 7.52126 18.3653 7.52126C18.3753 7.52126 18.385 7.52027 18.3945 7.51837C18.4066 7.58766 18.467 7.64033 18.5397 7.64033C18.549 7.64033 18.5581 7.63947 18.5668 7.63784C18.5681 7.71825 18.6336 7.78306 18.7143 7.78306C18.7246 7.78306 18.7347 7.782 18.7444 7.77999C18.7424 7.7897 18.7413 7.79976 18.7413 7.81007C18.7413 7.82312 18.743 7.83578 18.7462 7.84783C18.6922 7.86972 18.6541 7.92269 18.6541 7.98456C18.6541 7.99766 18.6558 8.01036 18.659 8.02245C18.6049 8.04433 18.5668 8.09731 18.5668 8.15919C18.5668 8.20537 18.5881 8.24659 18.6213 8.27363C18.5425 8.27662 18.4795 8.34145 18.4795 8.42099ZM18.015 7.31906C18.0227 7.35514 18.0437 7.38633 18.0725 7.40731C18.0751 7.39654 18.0764 7.38532 18.0764 7.37379C18.0764 7.34115 18.0658 7.31098 18.0478 7.28655C18.0658 7.26212 18.0764 7.23195 18.0764 7.19931C18.0764 7.18864 18.0752 7.17823 18.0731 7.1682C18.0446 7.18871 18.0237 7.21914 18.0155 7.25443C17.9914 7.23686 17.9616 7.22645 17.9295 7.22632C17.9442 7.22603 17.956 7.21403 17.956 7.19928C17.956 7.18434 17.9439 7.17223 17.9289 7.17223C17.914 7.17223 17.9019 7.18434 17.9019 7.19928C17.9019 7.21403 17.9137 7.22602 17.9284 7.22632C17.8798 7.22649 17.8367 7.25016 17.81 7.28655C17.8365 7.32265 17.8791 7.34622 17.9272 7.34677C17.9131 7.34767 17.9019 7.35941 17.9019 7.37376C17.9019 7.3887 17.914 7.40081 17.9289 7.40081L17.9289 7.40081C17.8801 7.40081 17.8368 7.42451 17.81 7.46103C17.8368 7.49756 17.8801 7.52126 17.9289 7.52126C17.9777 7.52126 18.021 7.49756 18.0478 7.46103C18.0211 7.42466 17.9781 7.401 17.9295 7.40081C17.9442 7.40051 17.956 7.38852 17.956 7.37376C17.956 7.35941 17.9448 7.34766 17.9307 7.34677C17.9621 7.34639 17.9912 7.33618 18.015 7.31906ZM18.015 7.31906C18.0128 7.30903 18.0117 7.29862 18.0117 7.28795C18.0117 7.27642 18.013 7.2652 18.0155 7.25443C18.0279 7.26341 18.0388 7.27425 18.0478 7.28655C18.0386 7.29903 18.0276 7.31001 18.015 7.31906ZM17.9307 7.34677L17.9289 7.34678L17.9272 7.34677L17.9289 7.34671L17.9307 7.34677ZM17.9295 7.22632L17.9289 7.22632L17.9289 7.22633L17.9295 7.22632ZM17.8097 8.1213C17.793 8.05822 17.7355 8.01172 17.6672 8.01172C17.6476 8.01172 17.6289 8.01553 17.6119 8.02245C17.6286 8.08553 17.6861 8.13203 17.7544 8.13203C17.774 8.13203 17.7927 8.12822 17.8097 8.1213ZM17.897 7.9468C17.8803 7.88365 17.8228 7.83709 17.7544 7.83709C17.7348 7.83709 17.7162 7.8409 17.6991 7.84783C17.7157 7.91098 17.7733 7.95754 17.8417 7.95754C17.8612 7.95754 17.8799 7.95373 17.897 7.9468ZM17.9347 7.69563C17.9093 7.67498 17.8769 7.66261 17.8417 7.66261L17.8359 7.66272C17.8613 7.68337 17.8936 7.69574 17.9289 7.69574L17.9347 7.69563ZM17.0558 7.0568C17.0926 7.02999 17.1166 6.98655 17.1166 6.93751C17.1166 6.91381 17.111 6.89141 17.101 6.87157C17.0642 6.89838 17.0403 6.94183 17.0403 6.99087C17.0403 7.01457 17.0459 7.03696 17.0558 7.0568ZM17.2814 7.10476C17.2666 7.08173 17.2579 7.05429 17.2579 7.02482C17.2579 6.97895 17.2789 6.93798 17.3117 6.91093C17.3266 6.93396 17.3352 6.96141 17.3352 6.99087C17.3352 7.03674 17.3143 7.07772 17.2814 7.10476ZM17.5522 7.03825C17.5345 7.06026 17.523 7.08747 17.5203 7.11723C17.538 7.09522 17.5496 7.06801 17.5522 7.03825ZM17.7831 7.22178C17.782 7.21445 17.7814 7.20695 17.7814 7.19931C17.7814 7.16491 17.7932 7.13327 17.8129 7.10819C17.8141 7.11551 17.8146 7.12302 17.8146 7.13066C17.8146 7.16505 17.8029 7.1967 17.7831 7.22178ZM18.2251 7.41988C18.2204 7.40538 18.2178 7.38989 18.2178 7.37379C18.2178 7.31606 18.251 7.26607 18.2993 7.24186C18.3041 7.25636 18.3066 7.27185 18.3066 7.28795C18.3066 7.34568 18.2735 7.39567 18.2251 7.41988ZM18.3945 7.51837C18.393 7.51008 18.3923 7.50156 18.3923 7.49286C18.3923 7.42141 18.4431 7.36184 18.5105 7.34828C18.512 7.35657 18.5127 7.36509 18.5127 7.37379C18.5127 7.44524 18.4619 7.50481 18.3945 7.51837ZM18.5668 7.63784L18.5668 7.63559C18.5668 7.5634 18.6187 7.50333 18.6872 7.49061L18.6872 7.49286C18.6872 7.56504 18.6353 7.62512 18.5668 7.63784ZM18.8587 7.66568C18.8014 7.67755 18.7563 7.72268 18.7444 7.77999C18.8017 7.76811 18.8468 7.72298 18.8587 7.66568ZM18.7462 7.84783C18.7633 7.8409 18.782 7.83709 18.8015 7.83709C18.8699 7.83709 18.9275 7.88365 18.9441 7.9468C18.927 7.95373 18.9084 7.95754 18.8888 7.95754C18.8204 7.95754 18.7629 7.91098 18.7462 7.84783ZM18.659 8.02245C18.6761 8.01553 18.6947 8.01172 18.7143 8.01172C18.7826 8.01172 18.8401 8.05822 18.8569 8.1213C18.8398 8.12822 18.8211 8.13203 18.8015 8.13203C18.7332 8.13203 18.6757 8.08553 18.659 8.02245ZM18.6213 8.27363L18.627 8.27352C18.6623 8.27352 18.6946 8.2859 18.72 8.30655L18.7143 8.30666C18.679 8.30666 18.6467 8.29428 18.6213 8.27363ZM18.7143 8.18621C18.7292 8.18621 18.7413 8.1741 18.7413 8.15916C18.7413 8.14422 18.7292 8.13211 18.7143 8.13211C18.6993 8.13211 18.6872 8.14422 18.6872 8.15916C18.6872 8.1741 18.6993 8.18621 18.7143 8.18621ZM18.8015 8.01173C18.8165 8.01173 18.8286 7.99962 18.8286 7.98468C18.8286 7.96974 18.8165 7.95763 18.8015 7.95763C18.7866 7.95763 18.7745 7.96974 18.7745 7.98468C18.7745 7.99962 18.7866 8.01173 18.8015 8.01173ZM18.8888 7.8371C18.9037 7.8371 18.9158 7.82498 18.9158 7.81005C18.9158 7.79511 18.9037 7.78299 18.8888 7.78299C18.8738 7.78299 18.8617 7.79511 18.8617 7.81005C18.8617 7.82498 18.8738 7.8371 18.8888 7.8371ZM18.7143 7.66261C18.7292 7.66261 18.7413 7.6505 18.7413 7.63556C18.7413 7.62062 18.7292 7.60851 18.7143 7.60851C18.6993 7.60851 18.6872 7.62062 18.6872 7.63556C18.6872 7.6505 18.6993 7.66261 18.7143 7.66261ZM18.5397 7.52003C18.5547 7.52003 18.5668 7.50792 18.5668 7.49298C18.5668 7.47804 18.5547 7.46593 18.5397 7.46593C18.5248 7.46593 18.5127 7.47804 18.5127 7.49298C18.5127 7.50792 18.5248 7.52003 18.5397 7.52003ZM18.3652 7.40081C18.3802 7.40081 18.3923 7.3887 18.3923 7.37376C18.3923 7.35882 18.3802 7.34671 18.3652 7.34671C18.3503 7.34671 18.3382 7.35882 18.3382 7.37376C18.3382 7.3887 18.3503 7.40081 18.3652 7.40081ZM18.1591 7.31497C18.1741 7.31497 18.1862 7.30286 18.1862 7.28792C18.1862 7.27298 18.1741 7.26087 18.1591 7.26087C18.1442 7.26087 18.1321 7.27298 18.1321 7.28792C18.1321 7.30286 18.1442 7.31497 18.1591 7.31497ZM17.6671 7.15768C17.6821 7.15768 17.6942 7.14557 17.6942 7.13063C17.6942 7.11569 17.6821 7.10358 17.6671 7.10358C17.6522 7.10358 17.6401 7.11569 17.6401 7.13063C17.6401 7.14557 17.6522 7.15768 17.6671 7.15768ZM17.4053 7.05185C17.4203 7.05185 17.4324 7.03973 17.4324 7.02479C17.4324 7.00985 17.4203 6.99774 17.4053 6.99774C17.3904 6.99774 17.3783 7.00985 17.3783 7.02479C17.3783 7.03973 17.3904 7.05185 17.4053 7.05185ZM17.1877 7.01789C17.2027 7.01789 17.2148 7.00578 17.2148 6.99084C17.2148 6.9759 17.2027 6.96379 17.1877 6.96379C17.1728 6.96379 17.1607 6.9759 17.1607 6.99084C17.1607 7.00578 17.1728 7.01789 17.1877 7.01789ZM16.9691 6.96453C16.984 6.96453 16.9961 6.95242 16.9961 6.93748C16.9961 6.92254 16.984 6.91043 16.9691 6.91043C16.9541 6.91043 16.942 6.92254 16.942 6.93748C16.942 6.95242 16.9541 6.96453 16.9691 6.96453ZM17.9289 7.57544C17.9439 7.57544 17.956 7.56333 17.956 7.54839C17.956 7.53345 17.9439 7.52134 17.9289 7.52134C17.914 7.52134 17.9019 7.53345 17.9019 7.54839C17.9019 7.56333 17.914 7.57544 17.9289 7.57544ZM17.8416 7.8371C17.8566 7.8371 17.8687 7.82498 17.8687 7.81005C17.8687 7.79511 17.8566 7.78299 17.8416 7.78299C17.8267 7.78299 17.8146 7.79511 17.8146 7.81005C17.8146 7.82498 17.8267 7.8371 17.8416 7.8371ZM17.7544 8.01173C17.7693 8.01173 17.7814 7.99962 17.7814 7.98468C17.7814 7.96974 17.7693 7.95763 17.7544 7.95763C17.7395 7.95763 17.7273 7.96974 17.7273 7.98468C17.7273 7.99962 17.7395 8.01173 17.7544 8.01173ZM17.6671 8.18621C17.6821 8.18621 17.6942 8.1741 17.6942 8.15916C17.6942 8.14422 17.6821 8.13211 17.6671 8.13211C17.6522 8.13211 17.6401 8.14422 17.6401 8.15916C17.6401 8.1741 17.6522 8.18621 17.6671 8.18621Z" fill="white"/>
<path fill-rule="evenodd" clip-rule="evenodd" d="M16.2013 6.07029L16.0719 6.0724L16.0721 6.28505L15.8334 6.28492L15.8363 6.41399L16.0723 6.41412L16.0725 6.65642L16.2019 6.6543L16.2016 6.4142L16.4366 6.41433L16.4337 6.28525L16.2015 6.28512L16.2013 6.07029Z" fill="#F6C540"/>
<path fill-rule="evenodd" clip-rule="evenodd" d="M13 10.032H19.2618V15.3506C19.2618 15.3506 19.0724 17.9998 16.1309 17.9998C13.1894 17.9998 13 15.3506 13 15.3506V10.032Z" fill="#C51918"/>
<path fill-rule="evenodd" clip-rule="evenodd" d="M14.8899 10.2163C14.8325 10.2163 14.7441 10.2575 14.627 10.3042C14.5098 10.3509 14.3868 10.4518 14.5069 10.5527C14.627 10.6537 14.7989 10.8754 14.7989 10.7925C14.7989 10.7096 15.0043 10.6293 15.0043 10.6695C15.0043 10.7096 14.9407 10.7925 15.1075 10.7925C15.2743 10.7925 15.3602 10.8418 15.1823 10.8418C15.0043 10.8418 14.9849 10.9232 14.8693 10.9232C14.7536 10.9232 14.5069 10.8412 14.5069 10.7925C14.5069 10.7438 14.6498 11.0318 14.7989 11.0318C14.948 11.0318 15.0327 11.1719 15.1075 11.1018C15.1823 11.0318 15.1734 11.0318 15.2942 11.0318C15.415 11.0318 15.3709 10.7489 15.3709 10.7489C15.3709 10.7489 14.9473 10.2163 14.8899 10.2163Z" fill="#E8AA00"/>
<path fill-rule="evenodd" clip-rule="evenodd" d="M17.3064 10.2163C17.3638 10.2163 17.4522 10.2575 17.5693 10.3042C17.6865 10.3509 17.8095 10.4518 17.6894 10.5527C17.5693 10.6537 17.3974 10.8754 17.3974 10.7925C17.3974 10.7096 17.192 10.6293 17.192 10.6695C17.192 10.7096 17.2556 10.7925 17.0888 10.7925C16.922 10.7925 16.8361 10.8418 17.014 10.8418C17.192 10.8418 17.2113 10.9232 17.327 10.9232C17.4427 10.9232 17.6894 10.8412 17.6894 10.7925C17.6894 10.7438 17.5465 11.0318 17.3974 11.0318C17.2483 11.0318 17.1636 11.1719 17.0888 11.1018C17.014 11.0318 17.0229 11.0318 16.9021 11.0318C16.7813 11.0318 16.8254 10.7489 16.8254 10.7489C16.8254 10.7489 17.2489 10.2163 17.3064 10.2163Z" fill="#E8AA00"/>
<path fill-rule="evenodd" clip-rule="evenodd" d="M14.0331 10.7944C13.913 11.0743 14.833 12.1142 14.833 12.1142H14.936C14.9793 12.1142 15.0598 12.0076 15.157 11.879C15.2236 11.7909 15.2981 11.6924 15.3738 11.6107C15.5162 11.4569 15.4407 11.3278 15.3704 11.2074C15.3488 11.1704 15.3276 11.1342 15.3135 11.0985C15.2827 11.0209 15.2784 10.99 15.2734 10.9546C15.2685 10.9206 15.2631 10.8824 15.233 10.7944C15.1886 10.665 15.0341 10.4981 14.9269 10.3824C14.8855 10.3377 14.8512 10.3006 14.833 10.2763C14.7756 10.1995 14.8191 10.2 14.9389 10.2012C14.9554 10.2014 14.9732 10.2016 14.9925 10.2016C15.152 10.2016 15.4566 10.2763 15.5477 10.3636C15.6388 10.4509 15.7343 10.4695 15.8746 10.4695C16.0149 10.4695 15.9284 10.564 15.8006 10.6278C15.9382 10.6541 16.0006 10.8836 16.0288 11.0873C16.0806 10.8836 16.1689 10.6542 16.3065 10.6279C16.1787 10.5641 16.0921 10.4696 16.2324 10.4696C16.3728 10.4696 16.4683 10.451 16.5593 10.3637C16.6504 10.2764 16.9551 10.2016 17.1146 10.2016C17.1338 10.2016 17.1517 10.2014 17.1681 10.2013C17.2879 10.2 17.3314 10.1996 17.274 10.2764C17.2559 10.3007 17.2215 10.3377 17.1802 10.3824C17.073 10.4982 16.9184 10.6651 16.8741 10.7944C16.8439 10.8824 16.8385 10.9206 16.8337 10.9547C16.8287 10.9901 16.8243 11.021 16.7936 11.0985C16.7794 11.1343 16.7583 11.1705 16.7366 11.2074C16.6663 11.3278 16.5908 11.457 16.7332 11.6107C16.8089 11.6924 16.8834 11.791 16.95 11.8791C17.0472 12.0077 17.1277 12.1142 17.171 12.1142H17.274C17.274 12.1142 18.194 11.0743 18.074 10.7944C18.0276 10.6862 17.9527 10.5843 17.8908 10.4999C17.7925 10.366 17.7267 10.2764 17.8588 10.2764C18.074 10.2764 18.9319 10.8204 18.9319 12.047C18.9319 13.2736 18.8526 13.9712 18.6687 14.4599C18.5431 14.7934 18.6581 15.1173 18.7438 15.3587C18.7837 15.4711 18.8172 15.5655 18.8172 15.6348C18.8172 15.8529 18.4795 15.6618 18.4795 15.5252C18.4795 15.4603 18.4332 15.557 18.3847 15.6584C18.3312 15.7703 18.275 15.8879 18.275 15.8008C18.275 15.7079 18.2211 15.6098 18.1737 15.5234C18.1363 15.4553 18.103 15.3945 18.103 15.3492C18.103 15.3039 18.0556 15.3056 18.0025 15.3074C17.9352 15.3098 17.8588 15.3125 17.8588 15.2196C17.8588 15.157 17.8344 15.1444 17.8041 15.1289C17.7542 15.1032 17.6881 15.0691 17.6881 14.7881C17.6881 14.5798 17.6464 14.6536 17.5985 14.7382C17.5545 14.8161 17.5053 14.9033 17.4786 14.7881C17.476 14.7769 17.4484 14.7286 17.4142 14.6689C17.3645 14.582 17.3009 14.4709 17.2806 14.4148C17.2783 14.4058 17.2761 14.3968 17.274 14.3878C17.274 14.394 17.2764 14.4032 17.2806 14.4148C17.3433 14.6602 17.4936 14.9158 17.5891 15.0376C17.6881 15.1639 17.8588 15.438 17.8588 15.438C17.8588 15.438 17.6996 15.5267 17.5891 15.438C17.5274 15.3884 17.5232 15.435 17.5187 15.4859C17.5151 15.5261 17.5112 15.5689 17.4786 15.5689C17.4581 15.5689 17.4388 15.5722 17.4216 15.5752C17.4089 15.5774 17.3973 15.5794 17.3873 15.5797C17.3673 15.5289 17.3463 15.4946 17.3463 15.5252C17.3463 15.5704 17.3619 15.5805 17.3873 15.5797C17.4241 15.6737 17.4572 15.8239 17.3463 15.7235C17.267 15.6519 17.2114 15.6228 17.1746 15.6035C17.132 15.5812 17.1146 15.572 17.1146 15.5252C17.1146 15.4785 17.0972 15.4943 17.0701 15.5191C17.0466 15.5406 17.0157 15.5689 16.9823 15.5689C16.9392 15.5689 16.9303 15.509 16.9172 15.4218C16.9085 15.3634 16.8979 15.2927 16.8741 15.2196C16.8685 15.2026 16.8633 15.1863 16.8583 15.1707C16.8103 15.0204 16.7879 14.9502 16.7332 15.1399C16.7077 15.2286 16.6626 15.2914 16.6233 15.346C16.5699 15.4204 16.5273 15.4798 16.5593 15.5689C16.5719 15.6038 16.5876 15.6432 16.6045 15.6854C16.6623 15.8303 16.7332 16.008 16.7332 16.1479C16.7332 16.2311 16.8089 16.3445 16.8801 16.451C16.9635 16.5759 17.0407 16.6914 16.9823 16.738C16.8741 16.8242 17.005 17.1146 17.1146 17.2635C17.2241 17.4125 17.206 17.5944 17.04 17.5944C16.9492 17.5944 16.8999 17.6273 16.8553 17.6572C16.8184 17.6819 16.7846 17.7044 16.7332 17.7044C16.6196 17.7044 16.5593 17.6484 16.5593 17.6484C16.5593 17.6484 16.4892 17.7544 16.3728 17.7544C16.2563 17.7544 16.2324 17.6484 16.2324 17.6484L15.9675 17.7544V17.2876L15.9608 17.7543L15.8746 17.6484C15.8746 17.6484 15.8507 17.7543 15.7343 17.7543C15.6178 17.7543 15.5477 17.6484 15.5477 17.6484C15.5477 17.6484 15.4874 17.7044 15.3738 17.7044C15.3224 17.7044 15.2887 17.6818 15.2517 17.6571C15.2071 17.6273 15.1578 17.5943 15.067 17.5943C14.9011 17.5943 14.8829 17.4125 14.9925 17.2635C15.102 17.1145 15.233 16.8241 15.1248 16.7379C15.0664 16.6914 15.1435 16.5759 15.2269 16.451C15.2981 16.3444 15.3738 16.231 15.3738 16.1479C15.3738 16.0079 15.4447 15.8303 15.5026 15.6854C15.5194 15.6432 15.5352 15.6037 15.5477 15.5688C15.5798 15.4797 15.5371 15.4203 15.4837 15.346C15.4444 15.2913 15.3993 15.2285 15.3738 15.1399C15.3192 14.9502 15.2968 15.0203 15.2487 15.1707C15.2438 15.1862 15.2385 15.2026 15.233 15.2196C15.2091 15.2926 15.1985 15.3633 15.1898 15.4217C15.1768 15.5089 15.1678 15.5688 15.1248 15.5688C15.0914 15.5688 15.0604 15.5406 15.0369 15.5191C15.0098 15.4943 14.9925 15.4784 14.9925 15.5252C14.9925 15.572 14.975 15.5811 14.9324 15.6034C14.8956 15.6227 14.84 15.6518 14.7608 15.7235C14.6498 15.8239 14.6829 15.6736 14.7198 15.5797C14.7451 15.5804 14.7608 15.5703 14.7608 15.5252C14.7608 15.4945 14.7397 15.5289 14.7198 15.5797C14.7097 15.5794 14.6982 15.5774 14.6855 15.5752C14.6683 15.5722 14.649 15.5688 14.6284 15.5688C14.5958 15.5688 14.592 15.526 14.5884 15.4858C14.5838 15.435 14.5797 15.3883 14.518 15.4379C14.4075 15.5267 14.2483 15.4379 14.2483 15.4379C14.2483 15.4379 14.419 15.1638 14.518 15.0375C14.6134 14.9157 14.7638 14.6601 14.8264 14.4148C14.8306 14.4032 14.833 14.3939 14.833 14.3877C14.8309 14.3967 14.8287 14.4057 14.8264 14.4148C14.8061 14.4709 14.7426 14.5819 14.6928 14.6688C14.6587 14.7285 14.631 14.7768 14.6284 14.788C14.6018 14.9032 14.5525 14.8161 14.5085 14.7382C14.4607 14.6535 14.419 14.5797 14.419 14.788C14.419 15.0691 14.3528 15.1031 14.3029 15.1288C14.2726 15.1444 14.2483 15.1569 14.2483 15.2196C14.2483 15.3125 14.1718 15.3098 14.1045 15.3074C14.0515 15.3055 14.0041 15.3038 14.0041 15.3491C14.0041 15.3945 13.9707 15.4553 13.9334 15.5233C13.8859 15.6098 13.8321 15.7079 13.8321 15.8008C13.8321 15.8878 13.7758 15.7702 13.7223 15.6584C13.6738 15.5569 13.6276 15.4602 13.6276 15.5252C13.6276 15.6617 13.2898 15.8528 13.2898 15.6347C13.2898 15.5655 13.3233 15.471 13.3632 15.3587C13.4489 15.1173 13.5639 14.7934 13.4384 14.4598C13.2544 13.9711 13.1752 13.2735 13.1752 12.0469C13.1752 10.8203 14.0331 10.2763 14.2483 10.2763C14.3803 10.2763 14.3145 10.3659 14.2162 10.4998C14.1543 10.5842 14.0795 10.6862 14.0331 10.7944Z" fill="#F7FCFF"/>
<path fill-rule="evenodd" clip-rule="evenodd" d="M14.4475 16.3348C14.4475 16.2502 14.6639 16.054 14.6639 16.054V16.0707C14.6944 16.0953 14.8877 16.2547 14.8877 16.3327C14.8877 16.3811 14.8627 16.4512 14.8412 16.5113C14.8252 16.5562 14.8112 16.5955 14.8112 16.6158C14.8112 16.6294 14.8168 16.6196 14.8276 16.601C14.8543 16.5549 14.9125 16.4546 14.9937 16.5216C15.1012 16.6105 15.1006 16.7415 15.1001 16.8245C15.1001 16.8295 15.1001 16.8343 15.1001 16.8389C15.1001 16.8647 15.1 16.8645 15.0966 16.8522C15.0892 16.8257 15.066 16.7428 14.9937 16.7428C14.8877 16.7428 14.8112 16.8389 14.8112 16.8389V17.0027C14.8112 17.0027 14.8246 17.1379 14.8877 17.0703C14.9509 17.0027 14.9643 17.1537 14.8877 17.1537C14.8486 17.1537 14.8084 17.1952 14.7691 17.2358C14.7313 17.2748 14.6944 17.3129 14.6599 17.3129V17.2993C14.6273 17.2967 14.6004 17.2631 14.573 17.2289C14.5432 17.1917 14.5128 17.1537 14.4737 17.1537C14.3971 17.1537 14.4106 17.0026 14.4737 17.0702C14.5368 17.1379 14.5503 17.0026 14.5503 17.0026V16.8388C14.5503 16.8388 14.4737 16.7428 14.3678 16.7428C14.2954 16.7428 14.2723 16.8256 14.2648 16.8522C14.2614 16.8645 14.2613 16.8647 14.2613 16.8388C14.2613 16.8342 14.2613 16.8295 14.2613 16.8245C14.2609 16.7415 14.2602 16.6104 14.3678 16.5216C14.449 16.4545 14.5071 16.5549 14.5338 16.601C14.5446 16.6196 14.5503 16.6294 14.5503 16.6157C14.5503 16.5955 14.5314 16.5566 14.5099 16.5121C14.4811 16.4527 14.4475 16.3832 14.4475 16.3348Z" fill="#E8AA00"/>
<path fill-rule="evenodd" clip-rule="evenodd" d="M17.327 16.3348C17.327 16.2502 17.5435 16.054 17.5435 16.054V16.0706C17.5738 16.0952 17.7673 16.2547 17.7673 16.3327C17.7673 16.3811 17.7423 16.4512 17.7208 16.5113C17.7048 16.5562 17.6907 16.5955 17.6907 16.6158C17.6907 16.6294 17.6964 16.6196 17.7072 16.601C17.7339 16.5549 17.792 16.4546 17.8732 16.5216C17.9808 16.6105 17.9801 16.7415 17.9797 16.8245C17.9797 16.8295 17.9797 16.8343 17.9797 16.8389C17.9797 16.8647 17.9796 16.8645 17.9762 16.8522C17.9687 16.8257 17.9456 16.7428 17.8732 16.7428C17.7673 16.7428 17.6907 16.8389 17.6907 16.8389V17.0027C17.6907 17.0027 17.7042 17.1379 17.7673 17.0703C17.8304 17.0027 17.8439 17.1537 17.7673 17.1537C17.7282 17.1537 17.688 17.1952 17.6487 17.2358C17.6109 17.2748 17.5739 17.3129 17.5395 17.3129V17.2993C17.5068 17.2967 17.4799 17.2631 17.4525 17.2289C17.4227 17.1917 17.3923 17.1537 17.3532 17.1537C17.2766 17.1537 17.2901 17.0026 17.3532 17.0702C17.4163 17.1379 17.4298 17.0026 17.4298 17.0026V16.8388C17.4298 16.8388 17.3532 16.7428 17.2473 16.7428C17.1749 16.7428 17.1518 16.8256 17.1443 16.8522C17.1409 16.8645 17.1408 16.8647 17.1408 16.8388C17.1408 16.8342 17.1408 16.8295 17.1408 16.8245C17.1404 16.7415 17.1397 16.6104 17.2473 16.5216C17.3285 16.4545 17.3866 16.5549 17.4133 16.601C17.4241 16.6196 17.4298 16.6294 17.4298 16.6157C17.4298 16.5955 17.411 16.5566 17.3894 16.5121C17.3606 16.4527 17.327 16.3832 17.327 16.3348Z" fill="#E8AA00"/>
<path fill-rule="evenodd" clip-rule="evenodd" d="M14.2319 15.8274C14.4249 15.8274 14.4639 15.4604 14.4639 15.4604C14.4639 15.4604 14.6258 15.2926 14.6258 15.4164C14.6258 15.4824 14.5797 15.5655 14.5447 15.6287C14.5141 15.6841 14.4919 15.7242 14.5164 15.7242H14.7836C15.0039 15.7242 14.7449 15.8274 14.6258 15.8734C14.5717 15.8943 14.5334 15.9052 14.4966 15.9157C14.4523 15.9283 14.4103 15.9403 14.3458 15.9682C14.2278 16.0194 14.1772 16.3561 14.2319 16.4642C14.2866 16.5723 14.1772 16.5267 14.1319 16.4642C14.1068 16.4295 14.0884 16.4773 14.0629 16.5439C14.0424 16.5973 14.0173 16.6627 13.9804 16.7076C13.909 16.7943 13.9098 16.7177 13.9114 16.5527C13.9117 16.5255 13.912 16.4959 13.912 16.4642C13.912 16.318 13.9412 16.3167 13.9846 16.3148C14.0076 16.3137 14.0346 16.3125 14.0634 16.2894C14.1256 16.2395 14.1331 16.2138 14.1519 16.1491C14.1582 16.1274 14.1658 16.1012 14.1772 16.0683C14.2224 15.9374 13.9804 16.1444 13.912 16.2424C13.8704 16.3021 13.8414 16.3086 13.798 16.3184C13.7702 16.3246 13.7364 16.3322 13.6896 16.3561C13.6134 16.3949 13.6341 16.3186 13.6592 16.2258C13.6737 16.1726 13.6896 16.1139 13.6896 16.0683C13.6896 15.9897 13.7369 16.0099 13.7975 16.0357C13.8333 16.051 13.8739 16.0683 13.912 16.0683C14.0095 16.0683 14.0598 16.0272 14.122 15.9763C14.1252 15.9737 14.1286 15.9709 14.1319 15.9682C14.1818 15.9276 14.0732 15.9399 13.9438 15.9544C13.8996 15.9594 13.853 15.9647 13.8094 15.9682C13.7099 15.9762 13.7033 15.9702 13.6784 15.9479C13.6606 15.9318 13.6333 15.9073 13.5554 15.8734C13.369 15.7924 13.6752 15.8274 13.8094 15.8734C13.884 15.899 13.9466 15.8819 14.0207 15.8617C14.0798 15.8455 14.1462 15.8274 14.2319 15.8274ZM17.9738 15.8274C17.7809 15.8274 17.7419 15.4604 17.7419 15.4604C17.7419 15.4604 17.58 15.2926 17.58 15.4164C17.58 15.4824 17.626 15.5655 17.661 15.6287C17.6917 15.6841 17.7139 15.7242 17.6894 15.7242H17.4222C17.2019 15.7242 17.4609 15.8274 17.58 15.8734C17.634 15.8943 17.6724 15.9052 17.7091 15.9157C17.7534 15.9283 17.7954 15.9403 17.8599 15.9682C17.9779 16.0194 18.0286 16.3561 17.9738 16.4642C17.9191 16.5723 18.0286 16.5267 18.0738 16.4642C18.099 16.4295 18.1173 16.4773 18.1429 16.5439C18.1634 16.5973 18.1885 16.6627 18.2254 16.7076C18.2967 16.7943 18.296 16.7177 18.2943 16.5527C18.294 16.5255 18.2937 16.4959 18.2937 16.4642C18.2937 16.318 18.2646 16.3167 18.2212 16.3148C18.1981 16.3137 18.1711 16.3125 18.1423 16.2894C18.0801 16.2395 18.0727 16.2138 18.0539 16.1491C18.0475 16.1274 18.04 16.1012 18.0286 16.0683C17.9833 15.9374 18.2254 16.1444 18.2937 16.2424C18.3354 16.3021 18.3643 16.3086 18.4077 16.3184C18.4356 16.3246 18.4693 16.3322 18.5162 16.3561C18.5923 16.3949 18.5717 16.3186 18.5465 16.2258C18.5321 16.1726 18.5162 16.1139 18.5162 16.0683C18.5162 15.9897 18.4689 16.0099 18.4083 16.0357C18.3724 16.051 18.3319 16.0683 18.2937 16.0683C18.1963 16.0683 18.1459 16.0272 18.0838 15.9763C18.0805 15.9737 18.0772 15.9709 18.0738 15.9682C18.024 15.9276 18.1326 15.9399 18.2619 15.9544C18.3061 15.9594 18.3528 15.9647 18.3964 15.9682C18.4958 15.9762 18.5025 15.9702 18.5273 15.9479C18.5452 15.9318 18.5724 15.9073 18.6504 15.8734C18.8367 15.7924 18.5306 15.8274 18.3964 15.8734C18.3217 15.899 18.2591 15.8819 18.1851 15.8617C18.1259 15.8455 18.0595 15.8274 17.9738 15.8274Z" fill="#E8AA00"/>
<path fill-rule="evenodd" clip-rule="evenodd" d="M14.9642 12.2039H17.2977V14.3319C17.2977 14.3319 17.0472 15.3919 16.1309 15.3919C15.2147 15.3919 14.9642 14.3319 14.9642 14.3319V12.2039Z" fill="#C51918"/>
<path fill-rule="evenodd" clip-rule="evenodd" d="M16.4455 12.1729H15.8347V13.3945H14.9622V13.8308H15.8347V15.4015H16.4455V13.8308H17.3182V13.3945H16.4455V12.1729Z" fill="#F7FCFF"/>
<path fill-rule="evenodd" clip-rule="evenodd" d="M15.3579 12.7866C15.4164 12.7866 15.4444 12.7372 15.4134 12.6937C15.3971 12.6708 15.3634 12.6642 15.338 12.6789C15.3358 12.6802 15.3336 12.6816 15.3317 12.6832C15.3223 12.6809 15.3109 12.6777 15.2978 12.6737C15.286 12.6701 15.2732 12.6702 15.2615 12.6741C15.2473 12.6788 15.2393 12.6642 15.2461 12.574C15.2526 12.5488 15.2871 12.5332 15.3675 12.5332C15.5144 12.5332 15.5748 12.549 15.5748 12.5628V12.7786L15.5035 12.843C15.4691 12.874 15.4935 12.927 15.542 12.927H15.5748V13.0923C15.5299 13.1272 15.4899 13.1435 15.4548 13.1435C15.3234 13.1435 15.2495 13.0946 15.2475 13.0367C15.2481 13.0198 15.2488 13.0073 15.2494 12.9987L15.2607 13.0025C15.2727 13.0066 15.286 13.0068 15.2982 13.003L15.3032 13.0014C15.3079 12.9998 15.3106 12.9988 15.3121 12.9998C15.3142 13.0012 15.314 13.0061 15.3136 13.018L15.313 13.0342C15.3123 13.0614 15.3362 13.0839 15.3663 13.0845C15.3964 13.0851 15.4214 13.0635 15.422 13.0363C15.4243 12.941 15.3709 12.8862 15.2821 12.9048C15.2297 12.8891 15.1931 12.8909 15.1645 12.9232C15.1435 12.947 15.1407 12.9664 15.1385 13.0367C15.1425 13.1575 15.2699 13.242 15.4548 13.242C15.5261 13.242 15.5967 13.2101 15.6669 13.1496C15.6777 13.1403 15.6838 13.1275 15.6838 13.114V12.8778C15.6838 12.8618 15.6755 12.8477 15.6625 12.8387L15.6679 12.8338C15.6781 12.8246 15.6838 12.8121 15.6838 12.799V12.5628C15.6838 12.4619 15.5798 12.4348 15.3675 12.4348C15.2424 12.4348 15.1606 12.4717 15.1386 12.5591C15.1262 12.7083 15.1705 12.7974 15.2798 12.7719C15.3136 12.7816 15.3386 12.7866 15.3579 12.7866ZM16.8904 12.6937C16.8594 12.7372 16.8874 12.7866 16.946 12.7866C16.9652 12.7866 16.9902 12.7816 17.024 12.7719C17.1334 12.7974 17.1776 12.7083 17.1652 12.5591C17.1432 12.4717 17.0614 12.4348 16.9363 12.4348C16.724 12.4348 16.62 12.4619 16.62 12.5628V12.799C16.62 12.8121 16.6257 12.8246 16.636 12.8338L16.6414 12.8387C16.6284 12.8477 16.62 12.8618 16.62 12.8778V13.114C16.62 13.1275 16.6261 13.1403 16.6369 13.1496C16.7071 13.2101 16.7778 13.242 16.849 13.242C17.034 13.242 17.1613 13.1575 17.1653 13.0367C17.1631 12.9664 17.1603 12.947 17.1393 12.9232C17.1107 12.8909 17.0741 12.8891 17.0217 12.9048C16.9329 12.8862 16.8795 12.941 16.8818 13.0363C16.8824 13.0635 16.9074 13.0851 16.9375 13.0845C16.9676 13.0839 16.9915 13.0614 16.9908 13.0342L16.9903 13.018V13.018C16.9898 13.0061 16.9896 13.0012 16.9917 12.9998C16.9932 12.9988 16.9959 12.9998 17.0006 13.0014L17.0056 13.003C17.0178 13.0068 17.0311 13.0066 17.0431 13.0025L17.0544 12.9987C17.055 13.0073 17.0557 13.0198 17.0563 13.0367C17.0543 13.0946 16.9804 13.1435 16.849 13.1435C16.8139 13.1435 16.7739 13.1272 16.7291 13.0923V12.927H16.7618C16.8104 12.927 16.8347 12.874 16.8003 12.843L16.7291 12.7786V12.5628C16.7291 12.549 16.7894 12.5332 16.9363 12.5332C17.0167 12.5332 17.0512 12.5488 17.0577 12.574C17.0645 12.6642 17.0565 12.6788 17.0423 12.6741C17.0306 12.6702 17.0178 12.6701 17.006 12.6737C16.9929 12.6777 16.9815 12.6809 16.9722 12.6832C16.9702 12.6816 16.9681 12.6802 16.9658 12.6789C16.9404 12.6642 16.9067 12.6708 16.8904 12.6937ZM17.0742 12.9943L17.0718 12.9942L17.0734 12.9943L17.0742 12.9943ZM16.946 14.3572C16.8874 14.3572 16.8594 14.3078 16.8904 14.2643C16.9067 14.2414 16.9404 14.2348 16.9658 14.2495C16.9681 14.2508 16.9702 14.2523 16.9722 14.2538C16.9815 14.2515 16.9929 14.2483 17.006 14.2443C17.0178 14.2407 17.0306 14.2408 17.0423 14.2447C17.0565 14.2494 17.0645 14.2349 17.0577 14.1446C17.0512 14.1195 17.0167 14.1039 16.9363 14.1039C16.7894 14.1039 16.7291 14.1196 16.7291 14.1334V14.3493L16.8003 14.4136C16.8347 14.4446 16.8104 14.4976 16.7618 14.4976H16.7291V14.6629C16.7739 14.6979 16.8139 14.7142 16.849 14.7142C16.9804 14.7142 17.0543 14.6652 17.0563 14.6074C17.0557 14.5904 17.055 14.5779 17.0544 14.5694L17.0431 14.5731C17.0311 14.5773 17.0178 14.5775 17.0056 14.5736L17.0006 14.572L17.0006 14.572C16.9959 14.5704 16.9932 14.5695 16.9917 14.5705C16.9896 14.5718 16.9898 14.5768 16.9903 14.5887L16.9908 14.6048C16.9915 14.632 16.9676 14.6545 16.9375 14.6551C16.9074 14.6557 16.8824 14.6342 16.8818 14.607C16.8795 14.5116 16.9329 14.4568 17.0217 14.4755C17.0741 14.4598 17.1107 14.4616 17.1393 14.4939C17.1603 14.5176 17.1631 14.5371 17.1653 14.6074C17.1613 14.7282 17.034 14.8126 16.849 14.8126C16.7778 14.8126 16.7071 14.7808 16.6369 14.7203C16.6261 14.711 16.62 14.6981 16.62 14.6847V14.4484C16.62 14.4325 16.6284 14.4183 16.6414 14.4093L16.636 14.4045C16.6257 14.3952 16.62 14.3827 16.62 14.3697V14.1334C16.62 14.0326 16.724 14.0055 16.9363 14.0055C17.0614 14.0055 17.1432 14.0424 17.1652 14.1298C17.1776 14.279 17.1334 14.368 17.024 14.3426C16.9902 14.3523 16.9652 14.3572 16.946 14.3572ZM15.3579 14.3572C15.4164 14.3572 15.4444 14.3078 15.4134 14.2643C15.3971 14.2414 15.3634 14.2348 15.338 14.2495C15.3358 14.2508 15.3336 14.2523 15.3317 14.2538C15.3223 14.2515 15.3109 14.2483 15.2978 14.2443C15.286 14.2407 15.2732 14.2408 15.2615 14.2447C15.2473 14.2494 15.2393 14.2349 15.2461 14.1446C15.2526 14.1195 15.2871 14.1039 15.3675 14.1039C15.5144 14.1039 15.5748 14.1196 15.5748 14.1334V14.3493L15.5035 14.4136C15.4691 14.4446 15.4935 14.4976 15.542 14.4976H15.5748V14.6629C15.5299 14.6979 15.4899 14.7142 15.4548 14.7142C15.3234 14.7142 15.2495 14.6652 15.2475 14.6074C15.2481 14.5904 15.2488 14.5779 15.2494 14.5694L15.2607 14.5731C15.2727 14.5773 15.286 14.5775 15.2982 14.5736C15.3001 14.5731 15.3017 14.5725 15.3032 14.572C15.3079 14.5704 15.3106 14.5695 15.3121 14.5705C15.3142 14.5718 15.314 14.5768 15.3136 14.5887C15.3134 14.5931 15.3132 14.5984 15.313 14.6048C15.3123 14.632 15.3362 14.6545 15.3663 14.6551C15.3964 14.6557 15.4214 14.6342 15.422 14.607C15.4243 14.5116 15.3709 14.4568 15.2821 14.4755C15.2297 14.4598 15.1931 14.4616 15.1645 14.4939C15.1435 14.5176 15.1407 14.5371 15.1385 14.6074C15.1425 14.7282 15.2699 14.8126 15.4548 14.8126C15.5261 14.8126 15.5967 14.7808 15.6669 14.7203C15.6777 14.711 15.6838 14.6981 15.6838 14.6847V14.4484C15.6838 14.4325 15.6755 14.4183 15.6625 14.4093L15.6679 14.4045C15.6781 14.3952 15.6838 14.3827 15.6838 14.3697V14.1334C15.6838 14.0326 15.5798 14.0055 15.3675 14.0055C15.2424 14.0055 15.1606 14.0424 15.1386 14.1298C15.1262 14.279 15.1705 14.368 15.2798 14.3426C15.3136 14.3523 15.3386 14.3572 15.3579 14.3572Z" fill="#F7FCFF"/>
</g>
</g>
</svg>
