<svg width="32" height="24" viewBox="0 0 32 24" fill="none" xmlns="http://www.w3.org/2000/svg">
<mask id="mask0_1957_20413" style="mask-type:luminance" maskUnits="userSpaceOnUse" x="0" y="0" width="32" height="24">
<rect width="32" height="24" fill="white"/>
</mask>
<g mask="url(#mask0_1957_20413)">
<rect width="32" height="24" fill="#67BD23"/>
<path fill-rule="evenodd" clip-rule="evenodd" d="M14.865 6.11533C14.7705 6.25917 14.6936 6.46552 14.6936 6.56181L14.6933 6.59028C14.6919 6.69992 14.6892 6.90259 14.8184 6.76239C14.96 6.60882 15.0966 6.42894 15.0666 6.28978C15.0365 6.15061 14.9595 5.97149 14.865 6.11533ZM13.5457 6.44518C13.5457 6.24627 13.7897 6.09493 13.8561 6.09493C13.9224 6.09493 13.8561 6.27145 13.7352 6.34666C13.6462 6.40201 13.7162 6.42925 13.8001 6.46188C13.8302 6.47359 13.8621 6.486 13.889 6.50065C13.9911 6.55611 13.8561 6.69948 13.7009 6.746C13.5457 6.79253 13.5457 6.6441 13.5457 6.44518ZM13.3039 6.68672C13.2167 6.89341 13.0509 7.29663 13.2039 7.61731C13.2219 7.65496 13.2391 7.6922 13.2559 7.72854L13.2559 7.72861C13.3821 8.00184 13.4851 8.22476 13.7149 8.19312C13.9593 8.15946 14.0721 7.72191 14.1095 7.57677L14.1159 7.55236C14.1456 7.44142 14.2672 7.25439 14.2993 7.37296C14.3154 7.43264 14.3072 7.54728 14.2991 7.65969V7.6597C14.2912 7.77064 14.2834 7.8794 14.2993 7.93099C14.3314 8.03485 14.4815 8.49414 14.818 8.38652C14.9951 8.32987 15.1092 8.2035 15.1991 8.10397C15.28 8.01444 15.3412 7.94663 15.4111 7.97083C15.4676 7.99044 15.5248 8.06274 15.5873 8.14189C15.6878 8.26904 15.8023 8.41389 15.9509 8.38652C16.143 8.35116 16.2818 8.14444 16.3701 8.01295C16.3927 7.97934 16.412 7.95065 16.428 7.93099C16.4873 7.85815 16.5156 7.90178 16.5543 7.96138L16.5543 7.96138C16.5669 7.98081 16.5806 8.00194 16.5969 8.02128C16.663 8.09996 16.793 8.15335 16.8817 8.02128C16.9703 7.88921 17.1015 7.4874 16.9314 7.55236L16.9203 7.55663C16.7507 7.62149 16.512 7.71277 16.428 7.54473C16.3421 7.37296 16.1077 6.84123 16.2249 6.84123C16.3421 6.84123 16.536 6.84089 16.4961 6.65105C16.4562 6.46121 16.8583 7.0768 16.9314 7.20584C16.9455 7.23062 16.9742 7.28312 17.0119 7.35222L17.012 7.35241C17.1708 7.64322 17.4898 8.22753 17.5543 8.27646C17.6229 8.32857 17.6808 9.34973 17.6956 9.80967C17.6584 9.8028 17.5926 9.7999 17.4881 9.7999C17.2158 9.7999 16.9979 9.83007 16.8216 9.85448C16.6278 9.88131 16.4842 9.90119 16.3738 9.86638C16.3118 9.8468 16.2381 9.83428 16.1737 9.82334C16.0195 9.79712 15.9182 9.77991 16.1559 9.69622C16.2236 9.67237 16.3015 9.65272 16.3823 9.6323C16.7035 9.55115 17.0722 9.45802 17.0432 9.04214C17.0068 8.52163 16.9378 8.29272 16.5468 8.36159C16.1559 8.43047 16.033 8.74132 16.033 9.04214C16.033 9.29383 15.9993 9.29709 15.8941 9.30727C15.8736 9.30926 15.8504 9.31151 15.8241 9.31593C15.8075 9.31871 15.7874 9.32144 15.7643 9.32457C15.5637 9.35178 15.1393 9.40933 14.8691 9.7999C14.6133 10.1697 14.6445 9.6256 14.6597 9.36004V9.36004V9.36003V9.36002V9.36001V9.36V9.36V9.35999C14.6624 9.31287 14.6646 9.27452 14.6646 9.25161C14.6646 9.09963 14.612 8.96557 14.4938 8.69653L14.4849 8.67626C14.3687 8.41139 14.2344 8.10516 14.045 8.3971C13.8506 8.69653 14.0801 9.11988 14.1627 9.18575C14.2453 9.25161 14.6718 10.1827 14.2528 10.6431C13.8337 11.1036 13.2397 11.5565 13.0802 11.4111C12.9207 11.2657 12.8253 11.1754 13.0063 11.0584C13.0359 11.0392 13.0841 11.0161 13.1436 10.9876C13.4473 10.8421 14.0426 10.557 13.9311 9.94807C13.8618 9.56979 13.7923 9.35 13.7532 9.22613C13.7169 9.11159 13.7067 9.07906 13.7464 9.07906C13.7568 9.07906 13.7678 9.07978 13.7789 9.0805L13.7789 9.0805C13.8556 9.08554 13.9355 9.09078 13.8473 8.85619C13.7464 8.58783 13.6024 8.28344 13.3357 8.58149C13.069 8.87955 13.1763 9.06528 13.3357 9.25161C13.4951 9.43794 13.7668 9.76968 13.4559 10.0658C13.3605 10.1566 13.2734 10.2477 13.1985 10.3261C13.0293 10.5033 12.9222 10.6153 12.9222 10.5115C12.9222 10.3618 12.8774 10.1617 12.7966 10.3366C12.781 10.3705 12.7659 10.4095 12.7498 10.4513L12.7498 10.4513L12.7498 10.4513C12.6828 10.6254 12.5975 10.847 12.3732 10.9414C12.0951 11.0584 11.473 11.5201 11.473 11.5201C11.473 11.5201 11.0635 11.8846 11.2515 11.8536C11.4395 11.8226 11.9253 11.684 12.0575 11.5706C12.1897 11.4573 12.5095 11.3779 12.5095 11.3779C12.5095 11.3779 12.8825 12.0803 13.272 11.967C13.6615 11.8536 14.5274 10.9052 14.5274 10.9052C14.5274 10.9052 15.0624 11.6394 15.6633 11.688C16.2642 11.7366 16.4131 11.5393 16.246 11.4111C16.2012 11.3768 16.1368 11.3397 16.0685 11.3006C15.8821 11.1936 15.6675 11.0704 15.7498 10.9414C15.8622 10.7651 16.0951 10.7073 16.4929 10.6431C16.5516 10.6337 16.6101 10.6257 16.6675 10.6179C16.9991 10.5728 17.2943 10.5326 17.3767 10.2354C17.4202 10.0785 17.5627 9.97469 17.6544 9.90789C17.6707 9.89606 17.6853 9.88539 17.6975 9.87579C17.6987 9.92004 17.6993 9.95639 17.6993 9.98276C17.6993 10.2587 17.6887 11.18 17.652 11.2828C17.6153 11.3856 17.8402 11.3195 17.9055 11.2091L17.9097 11.202C17.9749 11.0919 18.0666 10.9368 18.0666 10.7035C18.0666 10.6665 18.0673 10.6131 18.068 10.5484C18.072 10.196 18.0798 9.51114 18.0133 9.35527C17.9345 9.17081 17.9599 8.99066 18.0133 9.03703C18.0378 9.05837 18.2016 9.37238 18.38 9.71445L18.3801 9.71451L18.3801 9.71452C18.5891 10.1154 18.8183 10.5547 18.8671 10.6069C18.9231 10.6667 18.9487 10.52 18.9743 10.3728C18.9901 10.2822 19.0059 10.1915 19.0289 10.1485C19.0892 10.0358 19.1378 9.94885 19.1378 10.1485C19.1378 10.1669 19.1382 10.188 19.1388 10.2115L19.1388 10.2116C19.1441 10.4433 19.1545 10.9014 18.7597 11.1639C18.6205 11.2565 18.5021 11.3386 18.4014 11.4084L18.4013 11.4085L18.4013 11.4085C18.1873 11.5569 18.0528 11.6501 17.9676 11.6715C17.8423 11.7028 17.8617 11.9411 18.0133 11.9411C18.0244 11.9411 18.0384 11.9416 18.0548 11.9421H18.0548C18.2611 11.9486 18.8564 11.9673 19.2171 11.2828C19.562 10.6284 19.3475 8.56349 19.2939 8.04719V8.04718L19.2939 8.04715C19.287 7.98043 19.2827 7.93957 19.2827 7.93099C19.2827 7.90844 19.2672 7.85649 19.2474 7.79029C19.2013 7.63622 19.1322 7.40499 19.182 7.2876C19.222 7.19359 19.2458 7.20625 19.2726 7.22045C19.2936 7.2316 19.3164 7.2437 19.3502 7.20584C19.427 7.11977 19.5183 6.99648 19.3502 6.78143C19.2906 6.7052 19.2459 6.60337 19.2062 6.513C19.134 6.34848 19.0785 6.22197 18.98 6.35708C18.8274 6.56639 18.7557 7.17598 18.8295 7.47192C18.9033 7.76785 19.2283 10.1263 19.0289 9.9293C18.9112 9.81302 18.8029 9.59166 18.6847 9.35C18.6027 9.18228 18.5159 9.00479 18.4178 8.84586C18.1784 8.45795 17.7098 7.67332 17.8387 7.43958C17.8763 7.37135 17.9083 7.32548 17.9331 7.28983C17.9933 7.20336 18.0116 7.17707 17.9676 7.03785C17.9335 6.92975 17.871 6.85501 17.8054 6.77656C17.7517 6.71231 17.696 6.64558 17.652 6.55602C17.5543 6.35708 17.3475 6.23021 17.3475 6.41815C17.3475 6.6061 17.2431 6.80107 17.1778 6.60961C17.1126 6.41815 16.7658 6.00846 16.5969 6.14972C16.4907 6.23853 16.5142 6.29055 16.535 6.33657C16.5472 6.36375 16.5585 6.38883 16.5417 6.41815C16.5335 6.43237 16.5253 6.44888 16.517 6.46555C16.4794 6.54152 16.4401 6.6209 16.39 6.50203C16.38 6.47833 16.3702 6.44836 16.3596 6.41596C16.3056 6.2502 16.2309 6.02071 15.9968 6.23994C15.717 6.50203 15.6865 6.77124 15.8417 6.92548C15.9968 7.07972 16.2301 7.44843 16.1135 7.61731C15.9968 7.78619 15.7783 7.91183 15.6728 7.73209C15.5674 7.55236 15.5058 7.35209 15.5524 7.09666C15.5991 6.84123 15.6703 6.0595 15.3641 6.14972C15.0579 6.23994 15.0901 6.69185 15.1631 6.89426C15.2361 7.09666 15.2764 7.43071 15.2197 7.54473L15.2135 7.55726C15.1516 7.68249 14.9898 8.00967 14.818 7.89828C14.64 7.78295 14.5077 7.45527 14.5902 7.14825C14.6726 6.84123 14.6181 6.35302 14.367 6.50203C14.1159 6.65105 13.8338 7.12862 13.8338 7.37296C13.8338 7.61731 13.7346 7.91183 13.6319 7.73209L13.615 7.70268C13.5126 7.52483 13.3721 7.28058 13.4485 7.03785C13.5292 6.78143 13.3911 6.48003 13.3039 6.68672ZM8.48125 6.23627C8.46713 6.25521 8.47786 6.26749 8.50157 6.29462C8.53008 6.32725 8.57737 6.38135 8.62275 6.49435C8.65934 6.58545 8.67006 6.7185 8.67844 6.82267C8.6891 6.95513 8.69601 7.04086 8.74758 6.93421C8.83971 6.74369 8.88751 6.32964 8.74758 6.23627C8.60765 6.1429 8.51236 6.19455 8.48125 6.23627ZM10.2973 6.63262C10.0213 6.63262 10.0589 6.22845 10.0589 6.22845C10.0589 6.22845 10.0589 6.18991 10.1808 6.18991C10.2639 6.18991 10.2723 6.23408 10.2799 6.27328C10.2834 6.29156 10.2867 6.30875 10.2973 6.31989C10.3121 6.33549 10.3137 6.31906 10.3159 6.29603C10.3188 6.26735 10.3226 6.22845 10.3541 6.22845C10.4109 6.22845 10.4225 6.28727 10.4225 6.38192C10.4225 6.47657 10.5006 6.40096 10.5006 6.31989C10.5006 6.23881 10.5732 6.22845 10.6375 6.22845C10.7018 6.22845 10.5732 6.63262 10.2973 6.63262ZM8.79125 11.0684C8.75699 10.6818 8.84652 10.3101 9.01292 10.3101C9.17931 10.3101 9.17931 10.68 9.17931 10.68C9.17931 10.68 9.27258 11.4397 10.0399 11.4735C10.8072 11.5073 11.3194 10.175 11.3194 10.175C11.3635 9.95072 11.3507 9.6709 11.3507 9.6709C11.3006 9.56487 11.2722 9.67085 11.2149 9.88463C11.166 10.0671 11.096 10.3281 10.9736 10.6029C10.7177 11.1769 10.1838 11.1646 9.84788 11.1569L9.80924 11.1561C9.47701 11.1493 9.20867 10.5962 9.17931 10.3101C9.14995 10.024 9.24631 9.79981 9.24631 9.79981C9.24631 9.79981 9.51088 9.52316 9.50154 10.0063C9.4922 10.4894 9.7314 10.5689 10.1605 10.6029C10.5896 10.6369 10.9065 9.97875 10.9736 9.72904C11.0407 9.47932 10.6328 9.86744 10.6328 9.86744C10.522 9.97211 10.2806 9.87441 10.1605 9.61484C10.0404 9.35526 10.2806 9.04863 10.4781 8.83722C10.6756 8.6258 10.8994 8.79872 10.8994 8.79872C11.1891 8.84879 11.3067 9.04664 11.3067 9.04664C11.4508 9.15456 11.2945 8.55707 11.2945 8.55707C11.1949 8.30532 11.0733 7.50089 11.0733 7.50089C11.0483 7.4129 11.0292 7.30702 11.0147 7.20248C10.9829 7.25835 10.9736 7.3829 10.9736 7.3829C10.9736 7.3829 11.1645 8.21315 10.8915 8.47157C10.7585 8.59744 10.6903 8.662 10.6193 8.66525C10.5446 8.66867 10.4667 8.60411 10.3068 8.47157C9.9951 8.21315 9.97892 8.47157 9.97892 8.78131V10.0307C9.97892 10.2238 9.85736 10.2215 9.74865 10.2194C9.69255 10.2184 9.63986 10.2174 9.60907 10.2433C9.62845 10.0401 9.64957 9.67502 9.64957 9.67502C9.66001 9.50318 9.43087 8.81504 9.43087 8.81504C9.22982 8.64395 8.99275 8.21315 8.99275 8.21315C8.93816 7.89341 8.82177 8.06243 8.82177 8.06243C8.82177 8.28681 8.7505 8.76452 8.38566 8.62388C8.02082 8.48324 8.2257 7.17591 8.2257 7.17591C8.2257 7.17591 8.37231 7.19083 8.38566 7.5233C8.399 7.85576 8.57596 8.10323 8.57596 8.10323C8.66828 8.34479 8.70082 7.5717 8.70082 7.5717C8.70172 7.25525 9.09084 6.97302 9.09084 6.97302C9.307 6.85682 9.30159 7.35059 9.30159 7.35059C9.40486 7.67763 9.29354 7.92339 9.29354 7.92339C9.27945 8.2455 9.51395 8.08217 9.51395 8.08217C9.67897 8.07385 9.39089 7.14304 9.39089 7.14304C9.25123 6.81303 9.3284 6.52147 9.3284 6.52147C9.34261 6.34542 9.56093 6.29926 9.56093 6.29926C9.7108 6.31409 9.71217 6.97824 9.71217 6.97824C9.71217 7.39516 9.82687 7.7684 9.92799 7.84582C10.0291 7.92323 9.91103 7.61142 9.82687 7.52395C9.773 7.46796 9.7881 7.34105 9.80594 7.19102C9.81597 7.10666 9.82687 7.01498 9.82687 6.9245C9.82687 6.67477 9.97689 6.79244 10.1419 6.92188L10.1453 6.9245C10.2758 7.02689 10.2664 7.1948 10.2563 7.37456C10.2535 7.42384 10.2507 7.474 10.2507 7.52395C10.2507 7.75614 10.3668 7.91357 10.559 8.06243C10.723 8.18943 10.7155 7.99139 10.7097 7.84034C10.7087 7.81433 10.7078 7.78972 10.7078 7.7684C10.7078 7.656 10.6186 7.48654 10.5308 7.31968C10.5052 7.27104 10.4797 7.22263 10.4566 7.17591C10.3737 7.00849 10.4143 6.94742 10.4956 6.82503C10.5148 6.7961 10.5363 6.76375 10.559 6.72575C10.6777 6.52701 10.8915 6.73997 10.9736 6.9245L10.9874 6.95506C10.9764 6.82773 10.9727 6.73591 10.9727 6.73591C10.9227 6.58723 11.3507 6.25754 11.3507 6.25754C11.6173 6.1972 11.6661 7.06674 11.6661 7.06674C11.7612 7.37659 11.4435 7.25452 11.4435 7.25452C11.288 7.24087 11.611 8.51649 11.611 8.51649C11.6345 8.95321 11.8468 8.72171 11.8468 8.72171C12.01 8.65722 12.0216 9.07662 12.0216 9.07662C12.1312 9.24371 12.3393 8.67592 12.3393 8.67592C12.4853 8.46792 12.7144 8.94201 12.7144 8.94201C12.8233 9.08917 13.0491 8.6694 13.0491 8.6694C13.1769 8.58756 13.1437 8.71549 13.1017 8.87787C13.0769 8.97336 13.0491 9.08076 13.0491 9.16442C13.0491 9.38756 13.013 9.4041 12.7752 9.51305L12.7662 9.51717C12.5203 9.62987 12.4439 9.44196 12.4439 9.44196C12.3849 9.37123 11.9734 9.61484 11.9734 9.61484C11.8179 9.67265 11.7222 9.54484 11.7222 9.54484C11.6553 9.45799 11.6567 9.82051 11.6586 10.282V10.282V10.2821V10.2822V10.2822V10.2823V10.2824C11.6589 10.3608 11.6592 10.442 11.6592 10.5243C11.6592 11.0918 10.7978 11.8033 9.99978 11.9415C9.2018 12.0796 8.82552 11.455 8.79125 11.0684ZM9.58161 10.3317C9.58724 10.4244 9.59786 10.3609 9.60907 10.2433C9.5896 10.2598 9.57889 10.287 9.58161 10.3317ZM8.72243 9.25984C9.07245 8.95251 9.31814 9.01139 9.31814 9.01139C9.31814 9.01139 9.39484 9.01139 9.4945 9.11768C9.59417 9.22398 9.24894 9.43957 9.02146 9.50653C8.86744 9.55188 8.67996 9.64605 8.49951 9.73669C8.41345 9.77991 8.329 9.82233 8.25053 9.85827C8.00752 9.96958 8.37242 9.56716 8.72243 9.25984ZM8.29336 10.5471C8.29336 10.5471 7.95252 11.1043 8.00854 11.4643C8.06455 11.8244 8.30074 11.8992 8.4574 11.8618C8.61406 11.8244 8.68628 11.4643 8.68628 11.4643C8.68628 11.4643 8.5781 11.2169 8.4574 11.3508C8.4574 11.3508 8.2598 11.4342 8.29689 11.2039C8.33398 10.9736 8.29336 10.5471 8.29336 10.5471ZM10.6153 9.19073C10.6153 9.19073 10.3861 9.26279 10.5007 9.36948C10.6153 9.47617 10.7911 9.48924 10.7911 9.36948C10.7911 9.24973 10.6153 9.19073 10.6153 9.19073ZM15.2102 8.64577C15.2102 8.64577 15.1867 9.05101 15.4625 9.04138C15.7382 9.03175 15.8526 8.62334 15.7884 8.62558C15.7241 8.62782 15.652 8.64072 15.6548 8.72174C15.6576 8.80277 15.5822 8.88105 15.5789 8.78646C15.5756 8.69188 15.562 8.63349 15.5052 8.63547C15.4737 8.63657 15.4712 8.67558 15.4694 8.70434C15.4679 8.72744 15.4669 8.74392 15.4515 8.72884C15.4406 8.71808 15.4367 8.70101 15.4325 8.68287C15.4236 8.64396 15.4136 8.60011 15.3306 8.60301C15.2088 8.60726 15.2102 8.64577 15.2102 8.64577ZM18.4321 8.06574C18.1563 8.07537 18.1798 7.67014 18.1798 7.67014C18.1798 7.67014 18.1784 7.63163 18.3002 7.62738C18.3832 7.62448 18.3933 7.66832 18.4022 7.70723C18.4063 7.72537 18.4102 7.74244 18.4212 7.7532C18.4365 7.76828 18.4375 7.7518 18.439 7.72871C18.4408 7.69995 18.4433 7.66094 18.4748 7.65984C18.5316 7.65785 18.5452 7.71624 18.5485 7.81083C18.5518 7.90542 18.6272 7.82713 18.6244 7.74611C18.6216 7.66508 18.6937 7.65219 18.758 7.64994C18.8223 7.6477 18.7078 8.05611 18.4321 8.06574ZM12.0973 10.1288C11.9716 10.0619 11.9848 10.0127 12.0973 9.91009C12.2097 9.80751 12.3463 9.9574 12.4831 10.1288C12.5981 10.273 12.5264 10.3888 12.4604 10.4955C12.4479 10.5156 12.4357 10.5354 12.4249 10.555C12.3571 10.6785 12.1729 10.6564 12.2418 10.555C12.3107 10.4537 12.2229 10.1957 12.0973 10.1288ZM21.3321 9.54072C21.2196 9.6433 21.2064 9.69254 21.3321 9.75946C21.4577 9.82637 21.401 10.1078 21.3321 10.2092C21.2632 10.3106 21.4557 10.422 21.5235 10.2985L21.5354 10.277C21.6012 10.1583 21.6785 10.0189 21.6251 9.81C21.5684 9.58835 21.4445 9.43813 21.3321 9.54072ZM22.9304 7.17895C22.8047 7.11204 22.8179 7.06279 22.9304 6.96021C23.0428 6.85763 23.1668 7.00784 23.2234 7.2295C23.2768 7.4384 23.1995 7.57778 23.1337 7.6965L23.1218 7.71802C23.054 7.84149 22.8615 7.73004 22.9304 7.62869C22.9993 7.52734 23.056 7.24586 22.9304 7.17895ZM18.1579 6.36442C18.0455 6.467 18.0323 6.51625 18.1579 6.58316C18.2836 6.65007 18.4295 7.07421 18.3606 7.17556C18.2917 7.27691 18.4759 7.29903 18.5437 7.17556C18.6115 7.05208 18.6805 6.7546 18.5437 6.58316C18.407 6.41173 18.2704 6.26184 18.1579 6.36442ZM16.5231 8.85061C16.368 8.92099 16.2788 8.96186 16.3602 9.01817C16.4417 9.07448 16.6348 9.08787 16.6348 9.01817C16.6348 9.00669 16.636 8.99253 16.6372 8.97721C16.6437 8.89952 16.6527 8.79182 16.5231 8.85061ZM15.0228 10.2417C15.1879 10.2417 15.3184 10.2122 15.3184 10.2122C15.3184 10.2122 15.5437 10.2417 15.7222 10.2417C15.9007 10.2417 15.8684 10.3986 15.657 10.4989C15.4629 10.5909 15.4505 10.6506 15.4252 10.7721L15.418 10.8064C15.3862 10.9517 15.362 11.0529 15.2033 11.003C15.0526 10.9557 14.9066 10.5908 14.8295 10.3979L14.8295 10.3979L14.8295 10.3979L14.8178 10.3687C14.7598 10.2245 14.8184 10.2289 14.9271 10.2371H14.9271C14.9559 10.2393 14.9882 10.2417 15.0228 10.2417ZM13.0563 6.67844C13.1182 6.67844 13.1937 6.29555 13.0563 6.24141C12.919 6.18726 12.5187 6.25422 12.5673 6.41537C12.5832 6.46805 12.6214 6.52155 12.6603 6.57601C12.7403 6.68815 12.8232 6.80432 12.7203 6.92562C12.5673 7.10581 12.0986 7.50171 12.0243 7.54723L11.9931 7.56587C11.8982 7.62227 11.7146 7.73132 11.8437 7.73132C11.8901 7.73132 11.9464 7.73514 12.0054 7.73914C12.1318 7.7477 12.27 7.75707 12.3464 7.73132C12.4037 7.71198 12.493 7.60744 12.5909 7.49275C12.6841 7.38352 12.7853 7.26509 12.8741 7.2023C13.0563 7.07361 13.0948 6.81793 13.0563 6.78194C13.0458 6.77212 13.0195 6.76097 12.9879 6.74755C12.9035 6.71179 12.7813 6.65998 12.8204 6.57474C12.8741 6.45754 12.9176 6.5336 12.9176 6.57474C12.9176 6.61589 12.9944 6.67844 13.0563 6.67844ZM12.9527 7.95535L12.8089 8.00735C12.8089 8.00735 12.726 8.00735 12.697 7.9073C12.6845 7.864 12.7037 7.81061 12.7205 7.76397C12.7426 7.70283 12.7605 7.65328 12.697 7.65328C12.5851 7.65328 12.5011 7.84187 12.4632 7.95535C12.4252 8.06883 12.6006 8.20704 12.697 8.26745C12.7934 8.32787 12.9136 8.20704 13.0183 8.09841C13.123 7.98979 12.9527 7.95535 12.9527 7.95535ZM19.6205 11.3697C19.4794 11.1802 19.5405 10.7551 19.6702 10.4891C19.7707 10.2828 19.7671 10.3964 19.7603 10.6056C19.7584 10.6663 19.7562 10.735 19.7562 10.8063C19.7562 11.0587 19.8309 11.1452 19.9354 11.2663C19.9622 11.2974 19.9909 11.3307 20.0209 11.3697C20.1677 11.5607 20.2914 11.3697 20.2914 11.254C20.2914 11.1384 20.5522 10.6028 20.7409 10.3989C20.9297 10.195 21.0862 10.3176 21.0862 10.3989C21.0862 10.4802 21.2694 10.7452 21.4815 10.8063C21.6937 10.8674 21.7699 10.3176 21.7699 10.3176V8.65822C21.7699 8.17737 21.6501 8.08484 21.5484 8.00624C21.5245 7.98778 21.5017 7.97009 21.4815 7.94831C21.4469 7.91085 21.3837 7.85107 21.31 7.78146C21.1584 7.63833 20.9629 7.45369 20.8826 7.33628C20.7821 7.18925 20.7857 6.91316 20.7893 6.63536V6.63535V6.63531V6.63527C20.79 6.58341 20.7906 6.5315 20.7906 6.48036C20.7906 6.1552 21.2398 6.62516 21.346 6.80552C21.4146 6.92199 21.3946 6.99937 21.3718 7.08751C21.3593 7.13586 21.346 7.18745 21.346 7.25052C21.346 7.42853 21.4815 7.38645 21.4815 7.25052C21.4815 7.22588 21.4789 7.18735 21.4756 7.14032C21.4609 6.9279 21.4341 6.54213 21.5873 6.48036C21.7323 6.42188 21.7622 6.4994 21.846 6.71665L21.846 6.71668L21.846 6.71674C21.8703 6.77974 21.8992 6.85448 21.9367 6.94106C22.0423 7.18503 22.0141 7.29862 21.9793 7.43925C21.9591 7.5207 21.9367 7.61122 21.9367 7.74138C21.9367 8.00565 22.1304 8.23792 22.2647 8.39903C22.3108 8.45431 22.35 8.50121 22.3719 8.53815C22.4576 8.68276 22.2861 7.60037 22.1381 7.38645C21.9901 7.17253 22.0711 6.6735 22.2861 6.40511C22.4487 6.20208 22.5537 6.45979 22.6569 6.71318L22.6569 6.71321L22.6569 6.71321C22.6901 6.79478 22.7232 6.87591 22.7579 6.94106C22.8761 7.16282 22.7549 7.32293 22.6648 7.44204L22.6648 7.44205C22.6462 7.46665 22.6289 7.4895 22.6153 7.51078C22.5787 7.56809 22.6062 7.64079 22.6464 7.74733C22.6934 7.87192 22.7579 8.04278 22.7579 8.28942C22.7579 8.74695 22.9408 9.20593 23.2105 9.57478C23.4663 9.92458 23.523 10.332 23.5797 10.7397V10.7397L23.589 10.8063C23.6495 11.2359 23.6539 10.1311 23.589 9.57478C23.5241 9.01847 23.3122 7.06184 23.3981 6.55581C23.4542 6.22489 23.5157 6.37306 23.6068 6.59271L23.6068 6.59272C23.655 6.70895 23.7115 6.84519 23.78 6.94106L23.8216 6.99907C23.9803 7.21993 23.9922 7.23647 23.8963 7.38645C23.8417 7.47169 23.793 7.4592 23.7591 7.4505C23.7285 7.44266 23.7099 7.43789 23.7099 7.51078C23.7099 7.55595 23.7349 7.76513 23.7703 8.0605V8.06051C23.8554 8.76999 24 9.9768 24 10.6028C24 11.4894 23.5286 11.8351 23.1206 11.9868C22.7125 12.1386 22.4911 11.9868 22.4911 11.8351C22.4911 11.755 22.4339 11.8018 22.3582 11.8638C22.2905 11.9193 22.208 11.9868 22.1381 11.9868C21.9901 11.9868 22.0404 11.8126 22.1381 11.6397C22.1976 11.5346 22.1847 11.5258 22.1655 11.5126C22.1531 11.5042 22.1381 11.4939 22.1381 11.4549C22.1381 11.3553 22.1381 11.254 22.2861 11.254C22.4341 11.254 22.5648 11.254 22.4224 11.4549C22.3354 11.5775 22.3415 11.5782 22.3998 11.5852C22.437 11.5897 22.4956 11.5968 22.5648 11.6397C22.6623 11.7001 22.6705 11.7014 22.6802 11.7029C22.6881 11.7042 22.6971 11.7056 22.7579 11.7404C22.8924 11.8175 23.2162 11.5458 23.5286 11.254C23.7507 11.0465 23.6387 10.9986 23.5215 10.9485C23.4739 10.9282 23.4254 10.9074 23.3981 10.8755C23.3569 10.8274 23.2817 10.7025 23.2025 10.5712C23.0996 10.4003 22.9902 10.2186 22.9408 10.1812C22.9007 10.1507 22.916 10.2537 22.9357 10.3862C22.9588 10.5415 22.9879 10.7372 22.9408 10.8063C22.8536 10.9342 22.6554 11.0977 22.5648 11.0977C22.4742 11.0977 22.5648 9.45913 22.5648 9.45913C22.5648 9.45913 22.0573 8.75453 22.1381 9.01894C22.2189 9.28334 22.0573 10.9861 21.8275 11.254C21.5976 11.522 21.1196 11.1787 21.002 10.9861C20.8844 10.7934 20.7428 10.9806 20.6894 11.1787C20.6361 11.3768 20.5192 11.8095 20.2346 11.9868C20.0214 12.1196 19.8622 11.8138 19.7365 11.5722C19.6943 11.4911 19.6559 11.4173 19.6205 11.3697ZM21.1869 8.99689C21.1869 8.99689 20.7109 9.31666 20.6313 9.41755C20.5518 9.51843 20.5234 9.59255 20.6313 9.64843C20.7392 9.7043 21.173 9.49714 21.3331 9.32266C21.4933 9.14818 21.614 8.98044 21.5536 8.87378C21.4933 8.76711 21.1869 8.99689 21.1869 8.99689ZM20.4035 8.27042C20.211 8.04399 20.5045 7.94834 20.5045 7.94834C20.5045 7.94834 20.6609 7.94834 20.8287 8.0865C20.9211 8.16255 20.9117 8.09142 20.8975 7.98291C20.8859 7.89429 20.871 7.78074 20.9056 7.70207C20.9825 7.52706 21.2445 7.73157 21.3121 7.94834C21.3593 8.09988 21.3075 8.10571 21.2282 8.11464C21.194 8.11848 21.1548 8.12289 21.1161 8.13976C21.0311 8.17689 21.0588 8.34428 21.0871 8.51572C21.1015 8.60298 21.1161 8.6913 21.1161 8.76402C21.1161 8.97962 20.5961 8.49684 20.4035 8.27042Z" fill="white"/>
<path fill-rule="evenodd" clip-rule="evenodd" d="M14.4976 14.6843C13.9062 14.7559 10.9177 14.7436 10.025 14.5282C9.82494 14.486 9.93928 15.3982 10.0687 15.6078C10.1981 15.8175 11.2141 16.0275 11.5684 16.0759C11.8724 16.1174 13.0435 16.052 14.2608 15.9841C14.4622 15.9729 14.6649 15.9616 14.8651 15.9507C15.9308 15.8926 17.4877 15.9938 18.3019 16.0467C18.5652 16.0638 18.7508 16.0759 18.817 16.0759C19.0665 16.0759 19.0478 16.1601 19.0101 16.3293C19.0068 16.3439 19.0034 16.3591 19 16.375C18.9576 16.5748 19.1813 17.0038 19.2799 17.0442C19.3785 17.0845 20.112 17.0442 20.5117 16.8899C20.7392 16.8021 20.7661 16.8143 20.8253 16.841C20.8702 16.8613 20.9335 16.8899 21.1163 16.8899C21.3908 16.8899 21.4051 16.4967 21.4151 16.2192C21.4206 16.0677 21.4249 15.9507 21.4695 15.9507C21.5195 15.9507 21.5866 16.0992 21.6494 16.2381C21.7452 16.4501 21.8311 16.64 21.8311 16.2477C21.8311 15.5981 21.0673 14.7475 20.8175 14.8155C20.6424 14.8633 20.3541 14.8106 20.1584 14.7749C20.0749 14.7596 20.0083 14.7475 19.9744 14.7475C19.9254 14.7475 19.9401 14.7356 19.9725 14.7095C20.0149 14.6753 20.0876 14.6166 20.0876 14.5282C20.0876 14.3722 19.9391 14.3501 19.8155 14.3501C19.6919 14.3501 19.6259 14.4512 19.6259 14.5282C19.6259 14.6053 19.719 14.6843 19.719 14.6843C19.6997 14.6843 19.6022 14.683 19.4464 14.6809C18.4412 14.6676 15.0097 14.6223 14.4976 14.6843ZM19.5457 16.0591C19.5456 16.0589 19.6243 16.0133 19.8067 15.7885C20.0087 15.5396 20.0801 15.6191 20.1545 15.7021C20.1929 15.7448 20.2321 15.7885 20.2904 15.7885C20.4617 15.7885 20.6881 15.7885 20.8353 15.9134C20.9824 16.0384 20.6415 16.2101 20.5422 16.2101C20.4929 16.2101 20.4565 16.1793 20.4198 16.1484C20.3825 16.1169 20.3449 16.0852 20.2933 16.0852C20.2324 16.0852 20.1812 16.1293 20.1396 16.1651C20.1112 16.1895 20.0873 16.2101 20.068 16.2101C20.0511 16.2101 20.0135 16.1886 19.9649 16.1609C19.876 16.1102 19.7501 16.0384 19.6467 16.0384C19.582 16.0384 19.5457 16.0592 19.5457 16.0591Z" fill="white"/>
</g>
</svg>
