<svg width="32" height="24" viewBox="0 0 32 24" fill="none" xmlns="http://www.w3.org/2000/svg">
<mask id="mask0_1957_20320" style="mask-type:luminance" maskUnits="userSpaceOnUse" x="0" y="0" width="32" height="24">
<rect width="32" height="24" fill="white"/>
</mask>
<g mask="url(#mask0_1957_20320)">
<path fill-rule="evenodd" clip-rule="evenodd" d="M0 0V24H32V0H0Z" fill="#F7FCFF"/>
<mask id="mask1_1957_20320" style="mask-type:luminance" maskUnits="userSpaceOnUse" x="0" y="0" width="32" height="24">
<path fill-rule="evenodd" clip-rule="evenodd" d="M0 0V24H32V0H0Z" fill="white"/>
</mask>
<g mask="url(#mask1_1957_20320)">
<path fill-rule="evenodd" clip-rule="evenodd" d="M0 0V12H32V0H0Z" fill="#E31D1C"/>
<path fill-rule="evenodd" clip-rule="evenodd" d="M13.5751 9.84016C13.5751 9.84016 10.9985 8.80388 10.9985 5.9963C10.9985 3.18871 13.5751 2.1859 13.5751 2.1859C12.3228 1.86889 9 2.15243 9 5.9963C9 9.84016 12.2726 10.5651 13.5751 9.84016ZM14.2351 9.37619L14.9743 8.92997L15.7297 9.37619L15.5449 8.50543L16.159 7.81851H15.3269L14.9743 7.00543L14.6217 7.81851L13.7882 7.85375L14.4037 8.50543L14.2351 9.37619ZM17.6608 8.8801L16.9217 9.32632L17.0903 8.45556L16.4747 7.80388L17.3082 7.76865L17.6608 6.95557L18.0134 7.76865H18.8455L18.2314 8.45556L18.4162 9.32632L17.6608 8.8801ZM15.7805 5.44549L16.5197 4.99926L17.2751 5.44549L17.0902 4.57473L17.7044 3.88781H16.8723L16.5197 3.07473L16.1671 3.88781L15.3336 3.92305L15.9491 4.57473L15.7805 5.44549ZM14.0322 6.77016L13.293 7.21638L13.4616 6.34562L12.8461 5.69394L13.6796 5.65871L14.0322 4.84563L14.3848 5.65871H15.2169L14.6027 6.34562L14.7876 7.21638L14.0322 6.77016ZM18.179 7.17631L18.9181 6.73009L19.6736 7.17631L19.4887 6.30555L20.1028 5.61864H19.2708L18.9181 4.80556L18.5655 5.61864L17.732 5.65387L18.3476 6.30555L18.179 7.17631Z" fill="#F1F9FF"/>
</g>
</g>
</svg>
