<svg width="32" height="24" viewBox="0 0 32 24" fill="none" xmlns="http://www.w3.org/2000/svg">
<mask id="mask0_1957_20415" style="mask-type:luminance" maskUnits="userSpaceOnUse" x="0" y="0" width="32" height="24">
<rect width="32" height="24" fill="white"/>
</mask>
<g mask="url(#mask0_1957_20415)">
<path fill-rule="evenodd" clip-rule="evenodd" d="M0 0V24H32V0H0Z" fill="#F7FCFF"/>
<mask id="mask1_1957_20415" style="mask-type:luminance" maskUnits="userSpaceOnUse" x="0" y="0" width="32" height="24">
<path fill-rule="evenodd" clip-rule="evenodd" d="M0 0V24H32V0H0Z" fill="white"/>
</mask>
<g mask="url(#mask1_1957_20415)">
<path fill-rule="evenodd" clip-rule="evenodd" d="M0 12V24H32V12H0Z" fill="#56C6F5"/>
<path fill-rule="evenodd" clip-rule="evenodd" d="M12.1695 10.6661C12.1646 10.6098 12.1528 10.5611 12.1324 10.5232C11.9612 10.204 12.0165 9.80461 12.0165 9.80461C12.0165 9.80461 11.812 10.2723 11.692 10.7126C11.5659 10.5076 11.5218 10.3021 11.5218 10.3021C11.5218 10.3021 11.4402 11.5939 11.6897 11.8999C11.9393 12.206 12.1057 12.3405 12.1057 12.3405C12.1057 12.3405 12.1246 11.8041 12.0519 11.3846C12.1031 11.2096 12.1493 11.0178 12.1658 10.8527C12.1986 10.8285 12.285 10.7636 12.393 10.6755C12.3475 10.9267 12.3452 11.0632 12.3452 11.0632C12.3452 11.0632 13.2856 10.3804 13.3095 10.019C13.3334 9.65753 13.592 9.34816 13.592 9.34816C13.592 9.34816 13.3781 9.49449 13.134 9.69069C13.1985 9.38731 13.3984 9.14819 13.3984 9.14819C13.3984 9.14819 12.3302 9.87913 12.2427 10.2642C12.2046 10.4317 12.1824 10.5669 12.1695 10.6661ZM12.2153 12.8864C12.113 12.6932 11.6672 11.8823 11.3563 11.8118C11.003 11.7316 10.7379 11.4279 10.7379 11.4279C10.7379 11.4279 11.2928 12.5972 11.6594 12.7439C11.9539 12.8617 12.1478 12.9088 12.2127 12.9227C12.202 13.0803 12.2002 13.1892 12.2002 13.1892C12.2002 13.1892 12.3734 13.0636 12.6386 12.7711C12.9038 12.4785 12.8899 11.1843 12.8899 11.1843C12.8899 11.1843 12.7848 11.5735 12.5025 11.8004C12.313 11.9526 12.2417 12.5257 12.2153 12.8864ZM11.381 12.764C11.7845 12.7616 12.4053 13.7512 12.4053 13.7512C12.4053 13.7512 12.1648 13.7643 11.7447 13.698C11.3245 13.6316 10.6697 12.504 10.6697 12.504C10.6697 12.504 10.9775 12.7664 11.381 12.764ZM13.3481 15.0686C13.3481 15.0686 13.5876 13.8077 13.228 13.5137C12.8684 13.2198 12.805 12.7805 12.805 12.7805C12.805 12.7805 12.4856 14.1788 12.805 14.5409C13.1244 14.903 13.3481 15.0686 13.3481 15.0686ZM11.8972 14.7281C12.1321 15.0065 12.8802 14.7281 12.8802 14.7281C12.8802 14.7281 13.045 14.8778 12.4517 14.3356C11.8584 13.7933 10.6511 14.1358 10.976 14.1358C11.3009 14.1358 11.6624 14.4497 11.8972 14.7281ZM12.4517 16.2085C12.8869 16.5772 13.8275 15.7006 13.8275 15.7006C13.8275 15.7006 13.5854 15.4074 13.1366 15.1913C12.6879 14.9752 11.0325 15.1913 11.0325 15.1913L11.7692 15.5192C11.7692 15.5192 10.9492 15.8399 11.1668 15.822C11.3845 15.8041 12.0164 15.8399 12.4517 16.2085Z" fill="#006923"/>
<path fill-rule="evenodd" clip-rule="evenodd" d="M18.1423 15.4446C18.1423 15.4446 17.7681 14.8157 18.1423 14.5119C18.5166 14.208 18.6647 14.4101 18.6647 14.0608C18.6647 13.7115 18.7025 13.8155 18.8864 13.6421C19.0703 13.4686 18.94 13.0474 19.1863 13.258C19.4326 13.4686 19.4786 13.0648 19.4786 13.9038C19.4786 14.7427 19.4786 13.1428 19.4786 12.6716C19.4786 12.2004 19.1863 12.3119 19.1863 11.9959C19.1863 11.6799 18.894 11.2079 19.1863 11.2079C19.4786 11.2079 19.6504 11.5591 19.6504 11.5591C19.6504 11.5591 19.9375 12.0485 19.9375 11.5591C19.9375 11.0697 19.4263 11.2152 19.1863 10.6751C18.9464 10.135 18.9843 10.7356 18.6647 10.0397C18.3451 9.34375 17.9646 9.12291 18.3146 9.12291C18.6647 9.12291 18.5866 9.12291 18.8864 9.12291C19.1863 9.12291 19.6504 8.87383 19.6504 9.12291C19.6504 9.37199 19.6504 9.25785 19.6504 9.64877C19.6504 10.0397 19.9375 10.0397 19.9375 10.0397C19.9375 10.0397 20.0936 9.25785 20.2897 9.64877C20.4858 10.0397 20.3523 10.6751 20.4958 10.6751C20.6394 10.6751 20.5206 10.0185 20.834 10.5214C21.1474 11.0243 20.834 11.3651 20.834 11.5591C20.834 11.7531 20.4958 12.2284 20.4958 12.2284C20.4958 12.2284 20.5619 12.4609 20.834 12.2284C21.1061 11.9959 21.3643 11.7634 21.3643 11.9959C21.3643 12.2284 21.8946 12.3006 21.3643 12.6716C20.834 13.0426 21.1722 13.414 20.834 13.414C20.4958 13.414 20.0974 13.9038 19.9375 13.9038C19.7776 13.9038 19.1795 14.2787 19.4786 14.2787C19.7776 14.2787 20.0836 13.5288 20.2897 13.9038C20.4958 14.2787 20.4931 13.8429 20.6636 14.0608C20.834 14.2787 21.0044 15.4612 20.834 14.9865C20.6636 14.5119 20.3964 14.5119 19.9375 14.5119C19.4786 14.5119 18.5866 14.5461 18.8864 14.7663C19.1863 14.9865 19.5231 14.5461 19.6504 14.7663C19.7776 14.9865 19.7406 15.2067 19.9375 14.9865C20.1344 14.7663 20.3281 14.9865 20.4958 14.9865C20.6636 14.9865 20.3281 15.233 20.4958 15.4446C20.6636 15.6562 21.0374 15.938 20.6636 15.938C20.2897 15.938 20.0974 15.6391 19.9375 15.938C19.7776 16.2369 19.7708 16.756 19.4786 16.347C19.1863 15.938 18.6647 16.1456 18.6647 15.938C18.6647 15.7304 18.7788 15.6969 18.4606 15.6969C18.1423 15.6969 18.1423 15.4446 18.1423 15.4446Z" fill="#006923"/>
<path fill-rule="evenodd" clip-rule="evenodd" d="M19.6779 10.9473C19.6779 11.0395 19.6055 11.1143 19.5163 11.1143C19.427 11.1143 19.3547 11.0395 19.3547 10.9473C19.3547 10.855 19.427 10.7803 19.5163 10.7803C19.6055 10.7803 19.6779 10.855 19.6779 10.9473ZM12.2261 11.3144C12.3153 11.3144 12.3877 11.2397 12.3877 11.1474C12.3877 11.0552 12.3153 10.9804 12.2261 10.9804C12.1368 10.9804 12.0645 11.0552 12.0645 11.1474C12.0645 11.2397 12.1368 11.3144 12.2261 11.3144ZM12.3877 12.0141C12.3877 12.1063 12.3153 12.1811 12.2261 12.1811C12.1368 12.1811 12.0645 12.1063 12.0645 12.0141C12.0645 11.9219 12.1368 11.8471 12.2261 11.8471C12.3153 11.8471 12.3877 11.9219 12.3877 12.0141ZM12.4842 13.7142C12.5734 13.7142 12.6458 13.6395 12.6458 13.5473C12.6458 13.455 12.5734 13.3803 12.4842 13.3803C12.3949 13.3803 12.3226 13.455 12.3226 13.5473C12.3226 13.6395 12.3949 13.7142 12.4842 13.7142ZM13.7744 15.381C13.8637 15.381 13.9361 15.3062 13.9361 15.214C13.9361 15.1218 13.8637 15.047 13.7744 15.047C13.6852 15.047 13.6128 15.1218 13.6128 15.214C13.6128 15.3062 13.6852 15.381 13.7744 15.381ZM19.968 12.8478C20.0572 12.8478 20.1296 12.773 20.1296 12.6808C20.1296 12.5886 20.0572 12.5138 19.968 12.5138C19.8787 12.5138 19.8064 12.5886 19.8064 12.6808C19.8064 12.773 19.8787 12.8478 19.968 12.8478ZM19.6135 14.014C19.6135 14.1062 19.5412 14.181 19.4519 14.181C19.3626 14.181 19.2903 14.1062 19.2903 14.014C19.2903 13.9218 19.3626 13.847 19.4519 13.847C19.5412 13.847 19.6135 13.9218 19.6135 14.014ZM18.097 15.6477C18.1863 15.6477 18.2586 15.573 18.2586 15.4808C18.2586 15.3885 18.1863 15.3138 18.097 15.3138C18.0078 15.3138 17.9354 15.3885 17.9354 15.4808C17.9354 15.573 18.0078 15.6477 18.097 15.6477ZM14.0006 15.6807C14.0006 15.773 13.9282 15.8477 13.8389 15.8477C13.7497 15.8477 13.6773 15.773 13.6773 15.6807C13.6773 15.5885 13.7497 15.5137 13.8389 15.5137C13.9282 15.5137 14.0006 15.5885 14.0006 15.6807Z" fill="#C51918"/>
<path fill-rule="evenodd" clip-rule="evenodd" d="M17.3585 17.8601C17.3585 17.7235 15.2915 16.299 14.7367 15.9848C14.1819 15.6706 11.4727 13.9413 12.2105 11.3137H12.0988C12.0988 11.3137 11.5995 14.5513 15.0395 16.5639C16.6058 17.6146 16.6838 17.8601 16.6838 17.8601C16.6838 17.8601 17.3585 17.9967 17.3585 17.8601Z" fill="#FECA00"/>
<path fill-rule="evenodd" clip-rule="evenodd" d="M14.6163 17.8601C14.6163 17.7235 16.6833 16.299 17.2381 15.9848C17.7929 15.6706 20.5021 13.9413 19.7643 11.3137H19.8759C19.8759 11.3137 20.3752 14.5513 16.9352 16.5639C15.3689 17.6146 15.2909 17.8601 15.2909 17.8601C15.2909 17.8601 14.6163 17.9967 14.6163 17.8601Z" fill="#FECA00"/>
<path fill-rule="evenodd" clip-rule="evenodd" d="M16.0323 15.9041C17.4754 15.9041 18.6452 14.0362 18.6452 12.2137C18.6452 10.3911 17.4754 9.44702 16.0323 9.44702C14.5893 9.44702 13.4194 10.3911 13.4194 12.2137C13.4194 14.0362 14.5893 15.9041 16.0323 15.9041Z" fill="#56C6F5"/>
<path fill-rule="evenodd" clip-rule="evenodd" d="M14.8756 11.0063C14.8756 11.0063 15.278 10.6514 15.0768 10.6514C15.0377 10.6514 14.9902 10.6437 14.939 10.6355C14.7261 10.6014 14.4488 10.5569 14.4488 11.0063V11.7786L14.4487 11.7804H14.3893C14.3525 11.7804 14.3226 11.8103 14.3226 11.8471C14.3226 11.8839 14.3525 11.9138 14.3893 11.9138H14.4415C14.4326 12.0787 14.4168 12.3721 14.4013 12.6653L14.3533 12.6695C14.2982 12.6743 14.2575 12.7228 14.2623 12.7778C14.2672 12.8328 14.3157 12.8735 14.3707 12.8687L14.3907 12.867C14.3728 13.2095 14.3577 13.5092 14.3577 13.5459C14.3577 13.636 14.9699 13.6012 14.9699 13.6012C14.9699 13.6012 14.9508 13.2398 14.9299 12.8198L14.9427 12.8187C14.9977 12.8139 15.0384 12.7653 15.0336 12.7103C15.0288 12.6553 14.9803 12.6146 14.9253 12.6194L14.92 12.6199C14.9076 12.3683 14.8955 12.1129 14.8871 11.9138H14.9656C15.0024 11.9138 15.0323 11.8839 15.0323 11.8471C15.0323 11.8103 15.0024 11.7804 14.9656 11.7804H14.8817C14.8778 11.6809 14.8756 11.6061 14.8756 11.5684V11.0063Z" fill="white"/>
<path fill-rule="evenodd" clip-rule="evenodd" d="M14.5806 11.9805H14.796V12.2678H14.5806V11.9805Z" fill="#292B2E"/>
<path fill-rule="evenodd" clip-rule="evenodd" d="M14.5162 12.9805H14.8747V13.6471H14.5162V12.9805Z" fill="#292B2E"/>
<path fill-rule="evenodd" clip-rule="evenodd" d="M16.2303 11.0063C16.2303 11.0063 16.6327 10.6514 16.4315 10.6514C16.3925 10.6514 16.345 10.6437 16.2937 10.6355C16.0808 10.6014 15.8036 10.5569 15.8036 11.0063V11.7786L15.8035 11.7804H15.744C15.7072 11.7804 15.6774 11.8103 15.6774 11.8471C15.6774 11.8839 15.7072 11.9138 15.744 11.9138H15.7962C15.7873 12.0787 15.7715 12.3721 15.756 12.6653L15.708 12.6695C15.653 12.6743 15.6123 12.7228 15.6171 12.7778C15.6219 12.8328 15.6704 12.8735 15.7254 12.8687L15.7454 12.867C15.7275 13.2095 15.7124 13.5092 15.7124 13.5459C15.7124 13.636 16.3246 13.6012 16.3246 13.6012C16.3246 13.6012 16.3056 13.2398 16.2846 12.8198L16.2974 12.8187C16.3524 12.8139 16.3931 12.7653 16.3883 12.7103C16.3835 12.6553 16.335 12.6146 16.28 12.6194L16.2747 12.6199C16.2623 12.3683 16.2502 12.1129 16.2418 11.9138H16.3204C16.3572 11.9138 16.387 11.8839 16.387 11.8471C16.387 11.8103 16.3572 11.7804 16.3204 11.7804H16.2364C16.2326 11.6809 16.2303 11.6061 16.2303 11.5684V11.0063Z" fill="white"/>
<path fill-rule="evenodd" clip-rule="evenodd" d="M15.9353 11.9805H16.1508V12.2678H15.9353V11.9805Z" fill="#292B2E"/>
<path fill-rule="evenodd" clip-rule="evenodd" d="M15.871 12.9805H16.2294V13.6471H15.871V12.9805Z" fill="#292B2E"/>
<path fill-rule="evenodd" clip-rule="evenodd" d="M17.5206 11.0063C17.5206 11.0063 17.923 10.6514 17.7218 10.6514C17.6828 10.6514 17.6353 10.6437 17.584 10.6355C17.3711 10.6014 17.0938 10.5569 17.0938 11.0063V11.7786L17.0937 11.7804H17.0343C16.9975 11.7804 16.9676 11.8103 16.9676 11.8471C16.9676 11.8839 16.9975 11.9138 17.0343 11.9138H17.0865C17.0776 12.0787 17.0618 12.3721 17.0463 12.6653L16.9983 12.6695C16.9433 12.6743 16.9026 12.7228 16.9074 12.7778C16.9122 12.8328 16.9607 12.8735 17.0157 12.8687L17.0357 12.867C17.0178 13.2095 17.0027 13.5092 17.0027 13.5459C17.0027 13.636 17.6149 13.6012 17.6149 13.6012C17.6149 13.6012 17.5959 13.2398 17.5749 12.8198L17.5877 12.8187C17.6427 12.8139 17.6834 12.7653 17.6786 12.7103C17.6738 12.6553 17.6253 12.6146 17.5703 12.6194L17.565 12.6199C17.5526 12.3683 17.5405 12.1129 17.5321 11.9138H17.6106C17.6475 11.9138 17.6773 11.8839 17.6773 11.8471C17.6773 11.8103 17.6475 11.7804 17.6106 11.7804H17.5267C17.5228 11.6809 17.5206 11.6061 17.5206 11.5684V11.0063Z" fill="white"/>
<path fill-rule="evenodd" clip-rule="evenodd" d="M17.2256 11.9805H17.4411V12.2678H17.2256V11.9805Z" fill="#292B2E"/>
<path fill-rule="evenodd" clip-rule="evenodd" d="M17.1613 12.9805H17.5197V13.6471H17.1613V12.9805Z" fill="#292B2E"/>
<path fill-rule="evenodd" clip-rule="evenodd" d="M17.6772 8.91382H14.2579V9.42421L14.2351 9.42624C14.2351 9.42624 12.5598 10.7281 13.0248 12.6782C13.4897 14.6283 15.3365 16.0745 15.3365 16.0745L15.4296 15.738C15.4296 15.738 13.6698 13.3452 13.6698 12.3891C13.6698 11.433 14.0018 10.5355 14.3534 10.396C14.5648 10.3121 14.6013 10.3291 14.6589 10.356C14.6971 10.3739 14.7445 10.396 14.8583 10.396C15.1439 10.396 15.4296 10.1916 15.4296 10.1916C15.4296 10.1916 15.6282 10.396 15.8127 10.396C15.9973 10.396 15.9999 10.1916 15.9999 10.1916V9.51382H16.0204V10.1916C16.0204 10.1916 16.023 10.396 16.2076 10.396C16.3921 10.396 16.5907 10.1916 16.5907 10.1916C16.5907 10.1916 16.8765 10.396 17.162 10.396C17.2758 10.396 17.3232 10.3739 17.3614 10.356C17.419 10.3291 17.4555 10.3121 17.6669 10.396C18.0185 10.5355 18.3505 11.433 18.3505 12.3891C18.3505 13.3452 16.5907 15.738 16.5907 15.738L16.6838 16.0745C16.6838 16.0745 18.5306 14.6283 18.9955 12.6782C19.4605 10.7281 17.7852 9.42624 17.7852 9.42624L17.6772 9.41659V8.91382Z" fill="#E8AA00"/>
<path d="M14.2579 8.91382V8.41382H13.7579V8.91382H14.2579ZM17.6772 8.91382H18.1772V8.41382H17.6772V8.91382ZM14.2579 9.42421L14.3024 9.92222L14.7579 9.8815V9.42421H14.2579ZM14.2351 9.42624L14.1906 8.92823L14.0443 8.94131L13.9283 9.03143L14.2351 9.42624ZM13.0248 12.6782L12.5384 12.7941L13.0248 12.6782ZM15.3365 16.0745L15.0282 16.4682L15.6185 16.9304L15.8184 16.2078L15.3365 16.0745ZM15.4296 15.738L15.9115 15.8713L15.9762 15.6373L15.8324 15.4417L15.4296 15.738ZM14.3534 10.396L14.5378 10.8607H14.5378L14.3534 10.396ZM14.6589 10.356L14.8705 9.90299L14.8705 9.90299L14.6589 10.356ZM15.4296 10.1916L15.7881 9.84314L15.4884 9.53479L15.1387 9.78496L15.4296 10.1916ZM15.9999 10.1916L16.4999 10.198V10.1916H15.9999ZM15.9999 9.51382V9.01382H15.4999V9.51382H15.9999ZM16.0204 9.51382H16.5204V9.01382H16.0204V9.51382ZM16.0204 10.1916H15.5204L15.5205 10.198L16.0204 10.1916ZM16.5907 10.1916L16.8816 9.78496L16.5319 9.53479L16.2322 9.84314L16.5907 10.1916ZM17.3614 10.356L17.1499 9.90298L17.1499 9.90299L17.3614 10.356ZM17.6669 10.396L17.4825 10.8607L17.4825 10.8607L17.6669 10.396ZM16.5907 15.738L16.1879 15.4417L16.0441 15.6373L16.1088 15.8713L16.5907 15.738ZM16.6838 16.0745L16.2019 16.2078L16.4018 16.9304L16.9921 16.4682L16.6838 16.0745ZM18.9955 12.6782L19.4819 12.7941L18.9955 12.6782ZM17.7852 9.42624L18.092 9.03143L17.976 8.94131L17.8297 8.92823L17.7852 9.42624ZM17.6772 9.41659H17.1772V9.87388L17.6327 9.9146L17.6772 9.41659ZM14.2579 9.41382H17.6772V8.41382H14.2579V9.41382ZM14.7579 9.42421V8.91382H13.7579V9.42421H14.7579ZM14.2796 9.92426L14.3024 9.92222L14.2134 8.92619L14.1906 8.92823L14.2796 9.92426ZM13.5111 12.5622C13.3196 11.7588 13.5637 11.0844 13.8779 10.5885C14.0351 10.3405 14.206 10.1442 14.3373 10.0105C14.4026 9.94398 14.4571 9.89398 14.4938 9.86179C14.5121 9.84572 14.5259 9.83417 14.5342 9.82731C14.5384 9.82388 14.5412 9.82163 14.5425 9.82058C14.5432 9.82005 14.5435 9.81983 14.5434 9.81991C14.5433 9.81995 14.5432 9.82006 14.5429 9.82025C14.5428 9.82035 14.5427 9.82046 14.5425 9.82059C14.5424 9.82066 14.5422 9.82078 14.5422 9.82081C14.5421 9.82093 14.5419 9.82105 14.2351 9.42624C13.9283 9.03143 13.9281 9.03157 13.9279 9.03171C13.9279 9.03176 13.9277 9.03191 13.9276 9.03201C13.9273 9.03222 13.927 9.03246 13.9267 9.03271C13.926 9.03322 13.9253 9.03381 13.9244 9.03448C13.9227 9.03583 13.9206 9.0375 13.9181 9.0395C13.9131 9.04349 13.9065 9.04879 13.8985 9.05537C13.8826 9.06853 13.8608 9.08685 13.8342 9.11019C13.7811 9.15681 13.7084 9.22375 13.6239 9.30977C13.4556 9.48109 13.2367 9.73216 13.0332 10.0533C12.626 10.6959 12.265 11.6474 12.5384 12.7941L13.5111 12.5622ZM15.3365 16.0745C15.6447 15.6808 15.6448 15.6809 15.6449 15.681C15.6449 15.681 15.645 15.6811 15.6451 15.6811C15.6451 15.6812 15.6452 15.6812 15.6452 15.6812C15.6453 15.6813 15.6452 15.6812 15.6451 15.6811C15.6447 15.6808 15.644 15.6802 15.6428 15.6793C15.6404 15.6774 15.6363 15.6741 15.6307 15.6695C15.6194 15.6604 15.6017 15.6459 15.5786 15.6263C15.5322 15.5872 15.4637 15.5279 15.3793 15.4502C15.2101 15.2945 14.979 15.0668 14.7343 14.7819C14.2389 14.2049 13.7173 13.4272 13.5111 12.5622L12.5384 12.7941C12.7971 13.8793 13.4315 14.7997 13.9756 15.4334C14.2508 15.7538 14.5104 16.0095 14.702 16.1859C14.798 16.2743 14.8775 16.3432 14.9339 16.3908C14.9621 16.4146 14.9846 16.4331 15.0006 16.446C15.0085 16.4525 15.0149 16.4576 15.0196 16.4613C15.0219 16.4632 15.0238 16.4647 15.0252 16.4658C15.0259 16.4664 15.0265 16.4669 15.027 16.4672C15.0273 16.4674 15.0275 16.4676 15.0277 16.4678C15.0278 16.4678 15.0279 16.4679 15.028 16.468C15.0281 16.4681 15.0282 16.4682 15.3365 16.0745ZM14.9477 15.6046L14.8546 15.9412L15.8184 16.2078L15.9115 15.8713L14.9477 15.6046ZM13.1698 12.3891C13.1698 12.7456 13.3231 13.1606 13.4905 13.5246C13.6672 13.9087 13.8984 14.3163 14.1234 14.6834C14.3494 15.0521 14.5747 15.3889 14.743 15.633C14.8273 15.7552 14.8977 15.8548 14.9472 15.9241C14.972 15.9588 14.9916 15.9859 15.0052 16.0045C15.0119 16.0139 15.0172 16.0211 15.0208 16.0261C15.0226 16.0285 15.0241 16.0305 15.0251 16.0318C15.0256 16.0325 15.0259 16.0331 15.0262 16.0334C15.0264 16.0336 15.0265 16.0338 15.0266 16.0339C15.0266 16.034 15.0267 16.0341 15.0267 16.0341C15.0267 16.0341 15.0268 16.0342 15.4296 15.738C15.8324 15.4417 15.8324 15.4417 15.8324 15.4418C15.8324 15.4418 15.8324 15.4418 15.8324 15.4418C15.8324 15.4417 15.8323 15.4417 15.8323 15.4416C15.8321 15.4414 15.8319 15.4411 15.8315 15.4406C15.8308 15.4396 15.8297 15.4381 15.8282 15.4361C15.8252 15.4319 15.8206 15.4256 15.8145 15.4172C15.8022 15.4003 15.784 15.3751 15.7607 15.3424C15.714 15.2772 15.6469 15.1823 15.5662 15.0653C15.4046 14.8309 15.1899 14.5097 14.976 14.1608C14.761 13.8101 14.5524 13.4402 14.3991 13.1068C14.2365 12.7532 14.1698 12.5106 14.1698 12.3891H13.1698ZM14.1689 9.93128C13.9461 10.0197 13.7893 10.1968 13.6846 10.351C13.5731 10.5153 13.4812 10.7123 13.408 10.9206C13.2614 11.338 13.1698 11.8577 13.1698 12.3891H14.1698C14.1698 11.9643 14.2443 11.5572 14.3515 11.2521C14.4053 11.0991 14.4623 10.9858 14.512 10.9126C14.5684 10.8295 14.5849 10.8421 14.5378 10.8607L14.1689 9.93128ZM14.8705 9.90299C14.8251 9.88183 14.705 9.82385 14.5303 9.83558C14.4043 9.84404 14.2803 9.88706 14.1689 9.93128L14.5378 10.8607C14.5821 10.8432 14.6075 10.8348 14.6203 10.8311C14.6337 10.8273 14.623 10.8316 14.5973 10.8333C14.5834 10.8343 14.5655 10.8344 14.5446 10.8324C14.5234 10.8304 14.503 10.8264 14.4843 10.8213C14.4661 10.8163 14.4526 10.811 14.4461 10.8083C14.4413 10.8063 14.4383 10.8048 14.4473 10.8091L14.8705 9.90299ZM14.8583 9.89601C14.846 9.89601 14.8405 9.89541 14.8402 9.89538C14.84 9.89536 14.8412 9.89548 14.8434 9.89588C14.8456 9.89628 14.8486 9.8969 14.8523 9.89783C14.856 9.89877 14.8599 9.8999 14.8639 9.90119C14.8679 9.90249 14.8713 9.90375 14.874 9.90482C14.8766 9.90585 14.8781 9.90651 14.8778 9.90637C14.877 9.90601 14.8757 9.90544 14.8705 9.90299L14.4473 10.8091C14.4703 10.8198 14.5281 10.8474 14.6082 10.8676C14.6863 10.8872 14.7686 10.896 14.8583 10.896V9.89601ZM15.4296 10.1916C15.1387 9.78496 15.1388 9.7849 15.1389 9.78483C15.1389 9.78481 15.139 9.78475 15.139 9.7847C15.1392 9.78462 15.1393 9.78454 15.1394 9.78446C15.1396 9.78431 15.1398 9.78416 15.14 9.78403C15.1404 9.78376 15.1407 9.78354 15.1409 9.78337C15.1414 9.78301 15.1417 9.78284 15.1417 9.78282C15.1417 9.78279 15.1409 9.78341 15.1391 9.78458C15.1356 9.78694 15.1287 9.79141 15.1191 9.79732C15.0995 9.80936 15.0704 9.82603 15.0358 9.84253C14.9569 9.88016 14.893 9.89601 14.8583 9.89601V10.896C15.1092 10.896 15.3309 10.8097 15.4663 10.7451C15.5388 10.7105 15.599 10.6761 15.6418 10.6498C15.6635 10.6366 15.6812 10.6251 15.6944 10.6162C15.701 10.6118 15.7065 10.6081 15.7109 10.605C15.7131 10.6035 15.715 10.6022 15.7166 10.6011C15.7174 10.6005 15.7181 10.6 15.7187 10.5995C15.7191 10.5993 15.7194 10.5991 15.7197 10.5989C15.7198 10.5988 15.7199 10.5987 15.7201 10.5986C15.7201 10.5985 15.7202 10.5985 15.7203 10.5984C15.7204 10.5984 15.7205 10.5983 15.4296 10.1916ZM15.8127 9.89601C15.856 9.89601 15.878 9.9071 15.8725 9.90472C15.8688 9.90314 15.8572 9.89723 15.8394 9.8847C15.8226 9.87288 15.8072 9.86013 15.7961 9.85024C15.7908 9.84554 15.7872 9.84211 15.7856 9.84059C15.7849 9.83985 15.7847 9.83963 15.785 9.84001C15.7852 9.84021 15.7856 9.84056 15.7861 9.84107C15.7863 9.84133 15.7866 9.84163 15.787 9.84198C15.7871 9.84215 15.7873 9.84233 15.7875 9.84253C15.7876 9.84262 15.7877 9.84272 15.7878 9.84283C15.7879 9.84288 15.7879 9.84296 15.788 9.84298C15.788 9.84306 15.7881 9.84314 15.4296 10.1916C15.071 10.5401 15.0711 10.5402 15.0712 10.5403C15.0712 10.5403 15.0713 10.5404 15.0714 10.5405C15.0715 10.5406 15.0716 10.5407 15.0717 10.5408C15.0719 10.5411 15.0722 10.5413 15.0725 10.5416C15.073 10.5421 15.0736 10.5427 15.0742 10.5434C15.0755 10.5447 15.077 10.5462 15.0787 10.5478C15.082 10.5512 15.0863 10.5554 15.0913 10.5602C15.1013 10.5699 15.1147 10.5824 15.1309 10.5969C15.1628 10.6253 15.2086 10.6637 15.2645 10.7029C15.3555 10.7668 15.559 10.896 15.8127 10.896V9.89601ZM15.9999 10.1916C15.4999 10.1853 15.4999 10.1851 15.4999 10.1849C15.4999 10.1848 15.4999 10.1846 15.4999 10.1844C15.4999 10.1841 15.4999 10.1839 15.4999 10.1836C15.4999 10.183 15.4999 10.1824 15.5 10.1819C15.5 10.1808 15.5 10.1797 15.5 10.1786C15.5001 10.1765 15.5002 10.1745 15.5002 10.1726C15.5004 10.1688 15.5006 10.1652 15.5009 10.162C15.5014 10.1556 15.5021 10.1494 15.5031 10.1431C15.5047 10.1329 15.509 10.1114 15.522 10.0833C15.5353 10.0547 15.565 10.0041 15.6246 9.96053C15.6899 9.91276 15.7602 9.89601 15.8127 9.89601V10.896C15.9576 10.896 16.0974 10.8537 16.215 10.7676C16.327 10.6857 16.392 10.5841 16.429 10.5043C16.4658 10.4252 16.4822 10.3525 16.4901 10.3041C16.4942 10.2786 16.4966 10.2564 16.4979 10.2389C16.4986 10.23 16.499 10.2221 16.4993 10.2153C16.4995 10.2119 16.4996 10.2087 16.4997 10.2058C16.4997 10.2044 16.4997 10.203 16.4998 10.2017C16.4998 10.201 16.4998 10.2004 16.4998 10.1998C16.4998 10.1995 16.4998 10.1992 16.4998 10.1988C16.4998 10.1987 16.4998 10.1985 16.4998 10.1984C16.4998 10.1982 16.4998 10.198 15.9999 10.1916ZM15.4999 9.51382V10.1916H16.4999V9.51382H15.4999ZM16.0204 9.01382H15.9999V10.0138H16.0204V9.01382ZM15.5204 9.51382V10.1916H16.5204V9.51382H15.5204ZM16.0204 10.1916C15.5205 10.198 15.5205 10.1982 15.5205 10.1984C15.5205 10.1985 15.5205 10.1987 15.5205 10.1989C15.5205 10.1992 15.5205 10.1995 15.5205 10.1998C15.5205 10.2004 15.5205 10.201 15.5205 10.2017C15.5206 10.203 15.5206 10.2044 15.5206 10.2058C15.5207 10.2087 15.5208 10.2119 15.521 10.2153C15.5213 10.2221 15.5217 10.23 15.5224 10.2389C15.5238 10.2564 15.5261 10.2786 15.5303 10.3041C15.5382 10.3525 15.5545 10.4252 15.5913 10.5043C15.6283 10.5841 15.6933 10.6857 15.8053 10.7676C15.923 10.8537 16.0627 10.896 16.2076 10.896V9.89601C16.2601 9.89601 16.3304 9.91276 16.3957 9.96053C16.4553 10.0041 16.485 10.0547 16.4983 10.0833C16.5114 10.1114 16.5156 10.1329 16.5172 10.1431C16.5182 10.1494 16.5189 10.1556 16.5194 10.162C16.5197 10.1652 16.5199 10.1688 16.5201 10.1726C16.5201 10.1745 16.5202 10.1765 16.5203 10.1786C16.5203 10.1797 16.5203 10.1808 16.5204 10.1819C16.5204 10.1824 16.5204 10.183 16.5204 10.1836C16.5204 10.1839 16.5204 10.1841 16.5204 10.1844C16.5204 10.1846 16.5204 10.1848 16.5204 10.1849C16.5204 10.1851 16.5204 10.1853 16.0204 10.1916ZM16.2076 10.896C16.4614 10.896 16.6649 10.7668 16.7558 10.7029C16.8117 10.6637 16.8575 10.6253 16.8894 10.5969C16.9057 10.5824 16.919 10.5699 16.929 10.5602C16.934 10.5554 16.9383 10.5512 16.9417 10.5478C16.9433 10.5462 16.9448 10.5447 16.9461 10.5434C16.9467 10.5427 16.9473 10.5421 16.9479 10.5416C16.9481 10.5413 16.9484 10.5411 16.9486 10.5408C16.9487 10.5407 16.9488 10.5406 16.949 10.5405C16.949 10.5404 16.9491 10.5403 16.9491 10.5403C16.9492 10.5402 16.9493 10.5401 16.5907 10.1916C16.2322 9.84314 16.2323 9.84306 16.2324 9.84298C16.2324 9.84296 16.2325 9.84288 16.2325 9.84282C16.2326 9.84272 16.2327 9.84262 16.2328 9.84253C16.233 9.84233 16.2332 9.84215 16.2333 9.84198C16.2337 9.84163 16.234 9.84133 16.2342 9.84107C16.2347 9.84056 16.2351 9.84021 16.2353 9.84001C16.2357 9.83963 16.2354 9.83985 16.2347 9.84059C16.2331 9.84211 16.2295 9.84554 16.2242 9.85024C16.2131 9.86013 16.1977 9.87288 16.1809 9.8847C16.1631 9.89723 16.1515 9.90314 16.1478 9.90472C16.1423 9.9071 16.1643 9.89601 16.2076 9.89601V10.896ZM16.5907 10.1916C16.2998 10.5983 16.2999 10.5984 16.3 10.5984C16.3001 10.5985 16.3002 10.5985 16.3002 10.5986C16.3004 10.5987 16.3005 10.5988 16.3007 10.5989C16.3009 10.5991 16.3012 10.5993 16.3016 10.5995C16.3022 10.6 16.3029 10.6005 16.3037 10.6011C16.3053 10.6022 16.3072 10.6035 16.3094 10.605C16.3138 10.6081 16.3193 10.6118 16.3259 10.6162C16.3392 10.6251 16.3569 10.6366 16.3785 10.6498C16.4213 10.6761 16.4815 10.7105 16.554 10.7451C16.6894 10.8097 16.9111 10.896 17.162 10.896V9.89601C17.1274 9.89601 17.0634 9.88016 16.9845 9.84253C16.9499 9.82603 16.9209 9.80936 16.9012 9.79732C16.8916 9.79141 16.8847 9.78694 16.8812 9.78458C16.8795 9.78341 16.8786 9.78279 16.8786 9.78282C16.8786 9.78284 16.8789 9.78301 16.8794 9.78337C16.8796 9.78354 16.88 9.78376 16.8803 9.78403C16.8805 9.78416 16.8807 9.78431 16.8809 9.78446C16.881 9.78454 16.8812 9.78462 16.8813 9.7847C16.8813 9.78475 16.8814 9.78481 16.8815 9.78483C16.8815 9.7849 16.8816 9.78496 16.5907 10.1916ZM17.162 10.896C17.2517 10.896 17.334 10.8872 17.4121 10.8676C17.4922 10.8474 17.5501 10.8198 17.573 10.8091L17.1499 9.90299C17.1446 9.90544 17.1433 9.90601 17.1425 9.90637C17.1422 9.90651 17.1437 9.90585 17.1463 9.90482C17.149 9.90375 17.1524 9.90249 17.1564 9.90119C17.1604 9.8999 17.1643 9.89877 17.168 9.89783C17.1717 9.8969 17.1747 9.89628 17.177 9.89588C17.1792 9.89548 17.1803 9.89536 17.1802 9.89538C17.1799 9.89541 17.1743 9.89601 17.162 9.89601V10.896ZM17.573 10.8091C17.582 10.8048 17.579 10.8063 17.5742 10.8083C17.5677 10.811 17.5543 10.8163 17.5361 10.8213C17.5173 10.8264 17.4969 10.8304 17.4757 10.8324C17.4548 10.8344 17.4369 10.8343 17.423 10.8333C17.3973 10.8316 17.3866 10.8273 17.4 10.8311C17.4128 10.8348 17.4382 10.8432 17.4825 10.8607L17.8514 9.93128C17.74 9.88706 17.6161 9.84404 17.49 9.83558C17.3153 9.82385 17.1952 9.88183 17.1499 9.90298L17.573 10.8091ZM17.4825 10.8607C17.4354 10.8421 17.4519 10.8295 17.5083 10.9126C17.558 10.9858 17.6151 11.0991 17.6688 11.2521C17.776 11.5572 17.8505 11.9643 17.8505 12.3891H18.8505C18.8505 11.8577 18.7589 11.338 18.6123 10.9206C18.5391 10.7123 18.4472 10.5153 18.3358 10.351C18.2311 10.1968 18.0742 10.0197 17.8514 9.93128L17.4825 10.8607ZM17.8505 12.3891C17.8505 12.5106 17.7838 12.7532 17.6213 13.1068C17.4679 13.4402 17.2593 13.8101 17.0443 14.1608C16.8304 14.5097 16.6157 14.8309 16.4541 15.0653C16.3734 15.1823 16.3063 15.2772 16.2596 15.3424C16.2363 15.3751 16.2181 15.4003 16.2058 15.4172C16.1997 15.4256 16.1951 15.4319 16.1921 15.4361C16.1906 15.4381 16.1895 15.4396 16.1888 15.4406C16.1884 15.4411 16.1882 15.4414 16.188 15.4416C16.188 15.4417 16.1879 15.4417 16.1879 15.4418C16.1879 15.4418 16.1879 15.4418 16.1879 15.4418C16.1879 15.4417 16.1879 15.4417 16.5907 15.738C16.9935 16.0342 16.9936 16.0341 16.9936 16.0341C16.9936 16.0341 16.9937 16.034 16.9937 16.0339C16.9938 16.0338 16.9939 16.0336 16.9941 16.0334C16.9944 16.0331 16.9948 16.0325 16.9953 16.0318C16.9963 16.0305 16.9977 16.0285 16.9995 16.0261C17.0031 16.0211 17.0084 16.0139 17.0152 16.0045C17.0287 15.9859 17.0483 15.9588 17.0731 15.9241C17.1226 15.8548 17.193 15.7552 17.2773 15.633C17.4456 15.3889 17.6709 15.0521 17.8969 14.6834C18.1219 14.3163 18.3532 13.9087 18.5298 13.5246C18.6972 13.1606 18.8505 12.7456 18.8505 12.3891H17.8505ZM16.1088 15.8713L16.2019 16.2078L17.1657 15.9412L17.0726 15.6046L16.1088 15.8713ZM16.6838 16.0745C16.9921 16.4682 16.9922 16.4681 16.9923 16.468C16.9924 16.4679 16.9925 16.4678 16.9926 16.4678C16.9928 16.4676 16.993 16.4674 16.9933 16.4672C16.9938 16.4669 16.9944 16.4664 16.9951 16.4658C16.9966 16.4647 16.9984 16.4632 17.0008 16.4613C17.0054 16.4576 17.0118 16.4525 17.0198 16.446C17.0357 16.4331 17.0582 16.4146 17.0865 16.3908C17.1429 16.3432 17.2223 16.2743 17.3183 16.1859C17.5099 16.0095 17.7695 15.7538 18.0447 15.4334C18.5888 14.7997 19.2232 13.8793 19.4819 12.7941L18.5092 12.5622C18.303 13.4272 17.7815 14.2049 17.286 14.7819C17.0413 15.0668 16.8102 15.2945 16.641 15.4502C16.5566 15.5279 16.4882 15.5872 16.4418 15.6263C16.4186 15.6459 16.4009 15.6604 16.3896 15.6695C16.384 15.6741 16.3799 15.6774 16.3775 15.6793C16.3764 15.6802 16.3756 15.6808 16.3753 15.6811C16.3751 15.6812 16.375 15.6813 16.3751 15.6812C16.3751 15.6812 16.3752 15.6812 16.3752 15.6811C16.3753 15.6811 16.3754 15.681 16.3754 15.681C16.3755 15.6809 16.3756 15.6808 16.6838 16.0745ZM19.4819 12.7941C19.7553 11.6474 19.3943 10.6959 18.9871 10.0533C18.7836 9.73216 18.5647 9.48109 18.3964 9.30977C18.312 9.22375 18.2392 9.15681 18.1861 9.11019C18.1595 9.08685 18.1377 9.06853 18.1218 9.05537C18.1138 9.04879 18.1072 9.04349 18.1022 9.0395C18.0997 9.0375 18.0976 9.03583 18.0959 9.03448C18.0951 9.03381 18.0943 9.03322 18.0937 9.03271C18.0933 9.03246 18.093 9.03222 18.0928 9.03201C18.0926 9.03191 18.0924 9.03176 18.0924 9.03171C18.0922 9.03157 18.092 9.03143 17.7852 9.42624C17.4784 9.82105 17.4783 9.82093 17.4781 9.82081C17.4781 9.82078 17.4779 9.82066 17.4778 9.82059C17.4777 9.82046 17.4775 9.82035 17.4774 9.82025C17.4771 9.82006 17.477 9.81995 17.477 9.81991C17.4769 9.81983 17.4771 9.82005 17.4778 9.82058C17.4791 9.82163 17.4819 9.82388 17.4861 9.82731C17.4944 9.83417 17.5082 9.84572 17.5265 9.86179C17.5632 9.89398 17.6177 9.94398 17.683 10.0105C17.8143 10.1442 17.9852 10.3405 18.1424 10.5885C18.4566 11.0844 18.7007 11.7588 18.5092 12.5622L19.4819 12.7941ZM17.8297 8.92823L17.7218 8.91858L17.6327 9.9146L17.7407 9.92426L17.8297 8.92823ZM17.1772 8.91382V9.41659H18.1772V8.91382H17.1772Z" fill="#FFD018"/>
<path fill-rule="evenodd" clip-rule="evenodd" d="M14.069 13.8368C14.069 13.8368 14.2786 13.2738 14.6453 13.4615C15.0119 13.6491 14.9799 14.3024 15.3134 14.0696C15.647 13.8368 15.4579 13.4615 15.9522 13.4615C16.4465 13.4615 16.3737 14.0696 16.6701 14.0696C16.9665 14.0696 16.9922 13.4615 17.3236 13.4615C17.655 13.4615 17.991 13.8368 17.991 13.8368L16.03 16.5051L14.069 13.8368Z" fill="#8FC753"/>
<path fill-rule="evenodd" clip-rule="evenodd" d="M10.6193 16.9516L10.4084 16.6674C10.4084 16.6674 11.2831 16.6674 11.4017 16.8731C11.4352 16.9311 11.4498 16.9753 11.4609 17.009C11.4892 17.0949 11.4949 17.1121 11.7321 17.1121C12.0625 17.1121 11.7321 16.7844 11.5946 16.6674C11.457 16.5505 11.5408 16.3467 11.7321 16.3467C11.8059 16.3467 11.9343 16.3298 12.092 16.309C12.3437 16.2759 12.6702 16.2329 12.9693 16.2329C13.456 16.2329 13.0525 16.6674 13.0525 16.6674C13.0525 16.6674 13.6827 16.6674 13.5263 16.4866C13.3698 16.3057 14.0515 16.0857 14.3461 16.0857C14.6206 16.0857 15.8565 16.1473 16.023 16.1557C16.1971 16.1473 17.489 16.0857 17.7635 16.0857C18.0581 16.0857 18.7397 16.3057 18.5833 16.4866C18.4269 16.6674 19.057 16.6674 19.057 16.6674C19.057 16.6674 18.6536 16.2329 19.1403 16.2329C19.4394 16.2329 19.7659 16.2759 20.0175 16.309C20.1753 16.3298 20.3037 16.3467 20.3775 16.3467C20.5688 16.3467 20.6526 16.5505 20.515 16.6674C20.3775 16.7844 20.0471 17.1121 20.3775 17.1121C20.6147 17.1121 20.6204 17.0949 20.6487 17.009C20.6598 16.9753 20.6744 16.9311 20.7078 16.8731C20.8222 16.675 21.6381 16.6677 21.6978 16.6674C21.6847 16.6434 21.6773 16.6156 21.6773 16.586C21.6773 16.4938 21.7497 16.419 21.8389 16.419C21.9282 16.419 22.0005 16.4938 22.0005 16.586C22.0005 16.6783 21.9282 16.753 21.8389 16.753C21.7793 16.753 21.7273 16.7197 21.6992 16.6701L21.4903 16.9516L21.7082 17.2214C21.7375 17.1796 21.7852 17.1525 21.8389 17.1525C21.9282 17.1525 22.0005 17.2273 22.0005 17.3195C22.0005 17.4118 21.9282 17.4865 21.8389 17.4865C21.7497 17.4865 21.6773 17.4118 21.6773 17.3195C21.6773 17.3003 21.6804 17.2819 21.6862 17.2648C21.5629 17.2049 21.3497 17.1121 21.2114 17.1121H20.8265C20.9233 17.1121 21.4564 17.4638 21.295 17.6163L21.2676 17.6422C21.1093 17.7927 20.9027 17.9891 20.7078 17.882C20.5015 17.7687 20.3775 17.6163 20.3775 17.6163L20.2158 17.1121C20.2158 17.1121 19.2631 16.8662 19.2631 17.0364C19.2631 17.2067 19.2603 17.29 18.9225 17.29C18.7334 17.29 18.5507 17.258 18.3898 17.2297C18.2633 17.2075 18.1502 17.1876 18.0581 17.1876C17.9263 17.1876 17.7227 17.2283 17.5721 17.2583L17.5721 17.2583C17.4836 17.276 17.4134 17.29 17.3867 17.29C17.3146 17.29 16.9288 17.2726 17.1932 17.1121C17.4576 16.9516 17.5185 16.7844 17.5185 16.7844C17.5185 16.7844 16.4604 16.9415 16.0415 16.9512V16.9516L16.0226 16.9515L16.0035 16.9516V16.9512C15.5883 16.9414 14.5911 16.7844 14.5911 16.7844C14.5911 16.7844 14.652 16.9516 14.9164 17.1121C15.1808 17.2726 14.795 17.29 14.7229 17.29C14.6962 17.29 14.626 17.276 14.5375 17.2583C14.3869 17.2283 14.1833 17.1876 14.0515 17.1876C13.9594 17.1876 13.8463 17.2075 13.7197 17.2297C13.5589 17.258 13.3762 17.29 13.1871 17.29C12.8492 17.29 12.8465 17.2067 12.8465 17.0364C12.8465 16.8662 11.8938 17.1121 11.8938 17.1121L11.7321 17.6163C11.7321 17.6163 11.6081 17.7687 11.4017 17.882C11.2069 17.9891 11.0003 17.7927 10.8419 17.6422L10.8146 17.6163C10.6532 17.4638 11.1863 17.1121 11.2831 17.1121H10.8981C10.6939 17.1121 10.3263 17.3144 10.3263 17.3144L10.6193 16.9516ZM10.1616 16.753C10.2509 16.753 10.3232 16.6783 10.3232 16.586C10.3232 16.4938 10.2509 16.419 10.1616 16.419C10.0724 16.419 10 16.4938 10 16.586C10 16.6783 10.0724 16.753 10.1616 16.753ZM10.1616 17.4865C10.2509 17.4865 10.3232 17.4118 10.3232 17.3195C10.3232 17.2273 10.2509 17.1525 10.1616 17.1525C10.0724 17.1525 10 17.2273 10 17.3195C10 17.4118 10.0724 17.4865 10.1616 17.4865Z" fill="white"/>
<path fill-rule="evenodd" clip-rule="evenodd" d="M15.9295 6H16.0629V6.14298H16.2274V6.27658H16.0629V6.51896C16.2467 6.55005 16.387 6.71494 16.387 6.91369C16.387 7.13461 16.2137 7.31369 15.9999 7.31369C15.7861 7.31369 15.6128 7.13461 15.6128 6.91369C15.6128 6.7176 15.7493 6.55447 15.9295 6.52028V6.27658H15.7789V6.14298H15.9295V6Z" fill="#FFD018"/>
<path fill-rule="evenodd" clip-rule="evenodd" d="M14.4978 8.13086C14.3112 8.13086 13.9176 8.33044 13.9176 8.33044L14.2236 9.00907L16.0691 8.93983L17.915 9.00909L18.221 8.33046C18.221 8.33046 17.8275 8.13087 17.6408 8.13087C17.5589 8.13087 17.5485 8.08265 17.5368 8.02856C17.5219 7.95946 17.5049 7.88079 17.3341 7.88079C17.2133 7.88079 17.1279 7.90084 17.0588 7.91707C16.9538 7.94174 16.8863 7.95759 16.7889 7.88079C16.7849 7.87759 16.7808 7.87438 16.7767 7.87116C16.6192 7.74671 16.4555 7.61745 16.1908 7.61745C16.138 7.61745 16.0986 7.6673 16.0693 7.74763C16.04 7.66729 16.0006 7.61743 15.9478 7.61743C15.6831 7.61743 15.5194 7.74669 15.3619 7.87115C15.3578 7.87436 15.3538 7.87757 15.3497 7.88077C15.2524 7.95757 15.1849 7.94172 15.0798 7.91705C15.0107 7.90082 14.9253 7.88077 14.8045 7.88077C14.6337 7.88077 14.6167 7.95944 14.6018 8.02854C14.5902 8.08263 14.5798 8.13086 14.4978 8.13086Z" fill="#E31D1C"/>
<path fill-rule="evenodd" clip-rule="evenodd" d="M15.7388 7.02612L15.6093 7.07107C15.2669 7.18984 14.9704 7.22902 14.72 7.19042C14.2043 7.11096 13.5315 7.37924 13.6158 7.77212C13.6528 7.94429 13.7606 8.26947 13.8728 8.54507C14.0284 8.92748 14.1373 9.12038 14.2647 9.12038C14.2812 9.12038 14.4542 9.12983 14.5118 9.13298C14.5222 9.13354 14.5288 9.1339 14.5301 9.13397C14.7175 9.14345 14.8826 9.14847 15.0415 9.14773C15.5009 9.14558 15.7857 9.10048 15.8874 8.96265L15.9173 8.92208L15.9031 8.87324C15.7825 8.45839 15.7266 7.88928 15.7368 7.16733L15.7388 7.02612ZM13.8049 7.72868C13.7635 7.53603 14.2898 7.32619 14.6914 7.38809C14.9417 7.42665 15.2252 7.39762 15.5422 7.30226C15.5405 7.94397 15.5928 8.46522 15.7 8.86702C15.6082 8.91508 15.3668 8.94606 15.0407 8.94759C14.8858 8.94831 14.7238 8.94339 14.5396 8.93406C14.5413 8.93415 14.3499 8.92354 14.2843 8.92085C14.2822 8.91864 14.2796 8.91586 14.2767 8.91253C14.2595 8.8924 14.2379 8.85985 14.2135 8.81675C14.1656 8.73178 14.1095 8.61068 14.0512 8.4674C13.9432 8.20194 13.8389 7.88742 13.8049 7.72868Z" fill="#FFD018"/>
<path fill-rule="evenodd" clip-rule="evenodd" d="M16.3032 7.02612L16.4327 7.07107C16.7751 7.18984 17.0716 7.22902 17.322 7.19042C17.8377 7.11096 18.5104 7.37924 18.4261 7.77212C18.3892 7.94429 18.2814 8.26947 18.1692 8.54507C18.0136 8.92748 17.9047 9.12038 17.7773 9.12038C17.7608 9.12038 17.5877 9.12983 17.5302 9.13298C17.5198 9.13354 17.5132 9.1339 17.5119 9.13397C17.3245 9.14345 17.1594 9.14847 17.0005 9.14773C16.5411 9.14558 16.2563 9.10048 16.1546 8.96265L16.1247 8.92208L16.1389 8.87324C16.2595 8.45839 16.3154 7.88928 16.3052 7.16733L16.3032 7.02612ZM18.2372 7.72868C18.2785 7.53603 17.7523 7.32619 17.3506 7.38809C17.1004 7.42665 16.8168 7.39762 16.4999 7.30226C16.5016 7.94397 16.4492 8.46522 16.342 8.86702C16.4339 8.91508 16.6753 8.94606 17.0014 8.94759C17.1562 8.94831 17.3182 8.94339 17.5024 8.93406C17.5008 8.93415 17.6922 8.92354 17.7577 8.92085C17.7599 8.91864 17.7625 8.91586 17.7653 8.91253C17.7826 8.8924 17.8042 8.85985 17.8285 8.81675C17.8765 8.73178 17.9325 8.61068 17.9908 8.4674C18.0988 8.20194 18.2031 7.88742 18.2372 7.72868Z" fill="#FFD018"/>
<path fill-rule="evenodd" clip-rule="evenodd" d="M14.6647 7.00269L14.6659 7.00328L14.6652 7.00291L14.6647 7.00269ZM17.3721 7.00273L17.3709 7.00333L17.3716 7.00295L17.3721 7.00273Z" fill="#5E5E5E"/>
</g>
</g>
</svg>
