<svg width="32" height="24" viewBox="0 0 32 24" fill="none" xmlns="http://www.w3.org/2000/svg">
<mask id="mask0_1957_20322" style="mask-type:luminance" maskUnits="userSpaceOnUse" x="0" y="0" width="32" height="24">
<rect width="32" height="24" fill="white"/>
</mask>
<g mask="url(#mask0_1957_20322)">
<path fill-rule="evenodd" clip-rule="evenodd" d="M0 0H32V24H0V0Z" fill="#3D58DB"/>
<path d="M0 5H-1V6V18V19H0H32H33V18V6V5H32H0Z" fill="#C51918" stroke="#FFD018" stroke-width="2"/>
<path d="M7.14932 9.33112C7.02937 9.33112 6.93213 9.05992 6.93213 8.72537C6.93213 8.39083 7.02937 8.11963 7.14932 8.11963H24.5601C24.6801 8.11963 24.7773 8.39083 24.7773 8.72537C24.7773 9.05992 24.6801 9.33112 24.5601 9.33112H7.14932Z" fill="#FFD018"/>
<path fill-rule="evenodd" clip-rule="evenodd" d="M24.0952 8.60229L25.1063 7.3125L26.8952 8.60229L25.1063 9.926L24.0952 8.60229Z" fill="#F7FCFF"/>
<path d="M7.14932 13.3311C7.02937 13.3311 6.93213 13.0599 6.93213 12.7254C6.93213 12.3908 7.02937 12.1196 7.14932 12.1196H24.5601C24.6801 12.1196 24.7773 12.3908 24.7773 12.7254C24.7773 13.0599 24.6801 13.3311 24.5601 13.3311H7.14932Z" fill="#FFD018"/>
<path fill-rule="evenodd" clip-rule="evenodd" d="M24.0952 12.6023L25.1063 11.3125L26.8952 12.6023L25.1063 13.926L24.0952 12.6023Z" fill="#F7FCFF"/>
<path d="M4.34553 15.8219C4.1847 15.8219 4.05432 15.5139 4.05432 15.1341C4.05432 14.7542 4.1847 14.4463 4.34553 14.4463H27.6897C27.8506 14.4463 27.9809 14.7542 27.9809 15.1341C27.9809 15.5139 27.8506 15.8219 27.6897 15.8219H4.34553Z" fill="#FFD018"/>
<path fill-rule="evenodd" clip-rule="evenodd" d="M8.81726 12.0528C8.81726 12.0528 11.6586 6.07275 15.7225 6.07275C19.7864 6.07275 22.7233 12.0528 22.7233 12.0528C22.7233 12.0528 19.1372 17.9542 15.7703 17.9542C12.4034 17.9542 8.81726 12.0528 8.81726 12.0528Z" fill="#F7FCFF"/>
<mask id="mask1_1957_20322" style="mask-type:luminance" maskUnits="userSpaceOnUse" x="8" y="6" width="15" height="12">
<path fill-rule="evenodd" clip-rule="evenodd" d="M8.81726 12.0528C8.81726 12.0528 11.6586 6.07275 15.7225 6.07275C19.7864 6.07275 22.7233 12.0528 22.7233 12.0528C22.7233 12.0528 19.1372 17.9542 15.7703 17.9542C12.4034 17.9542 8.81726 12.0528 8.81726 12.0528Z" fill="white"/>
</mask>
<g mask="url(#mask1_1957_20322)">
<path fill-rule="evenodd" clip-rule="evenodd" d="M15.9242 5.68018C15.9242 5.68018 14.9969 6.80638 15.306 7.8803C15.6151 8.95421 16.3352 8.84078 16.3352 9.78655C16.3352 10.7323 16.0026 11.6969 16.3352 11.6969C16.6679 11.6969 16.7832 12.3495 16.4791 12.792C16.1751 13.2344 15.9062 13.2481 15.9242 13.9682C15.9422 14.6883 17.5162 15.3952 16.7537 15.3952C15.9912 15.3952 14.9863 16.1353 15.306 16.1353C15.6257 16.1353 17.2986 16.7119 17.2986 17.4686C17.2986 18.2254 17.2986 18.831 17.2986 18.831H8.57117V5.68018H15.9242Z" fill="#292B2E"/>
<path fill-rule="evenodd" clip-rule="evenodd" d="M11.8189 9.9231H11.3845V11.6923H11.8189V9.9231ZM13.1004 9.9231H12.666V11.6923H13.1004V9.9231ZM12.0252 9.9231H12.4596V11.6923H12.0252V9.9231ZM13.7411 9.9231H13.3067V11.6923H13.7411V9.9231ZM13.9474 9.9231H14.3818V11.6923H13.9474V9.9231ZM15.0225 9.9231H14.5881V11.6923H15.0225V9.9231ZM11.3845 12.4616H11.8189V14.2308H11.3845V12.4616ZM13.1004 12.4616H12.666V14.2308H13.1004V12.4616ZM12.0252 12.4616H12.4596V14.2308H12.0252V12.4616ZM13.7411 12.4616H13.3067V14.2308H13.7411V12.4616ZM13.9474 12.4616H14.3818V14.2308H13.9474V12.4616ZM15.0225 12.4616H14.5881V14.2308H15.0225V12.4616Z" fill="#F7FCFF"/>
<path fill-rule="evenodd" clip-rule="evenodd" d="M16.9774 9.9231H16.543V11.6923H16.9774V9.9231ZM18.2588 9.9231H17.8244V11.6923H18.2588V9.9231ZM17.1837 9.9231H17.6181V11.6923H17.1837V9.9231ZM18.8995 9.9231H18.4651V11.6923H18.8995V9.9231ZM19.1059 9.9231H19.5403V11.6923H19.1059V9.9231ZM20.181 9.9231H19.7466V11.6923H20.181V9.9231ZM16.543 12.4616H16.9774V14.2308H16.543V12.4616ZM18.2588 12.4616H17.8244V14.2308H18.2588V12.4616ZM17.1837 12.4616H17.6181V14.2308H17.1837V12.4616ZM18.8995 12.4616H18.4651V14.2308H18.8995V12.4616ZM19.1059 12.4616H19.5403V14.2308H19.1059V12.4616ZM20.181 12.4616H19.7466V14.2308H20.181V12.4616Z" fill="#292B2E"/>
<path fill-rule="evenodd" clip-rule="evenodd" d="M13.2315 7.07169C12.623 7.26022 12.3446 8.85603 12.4126 9.24176C12.4806 9.62749 12.687 9.19336 12.687 9.19336C12.687 9.19336 13.1081 10.1085 13.1515 10.3547C13.1949 10.6009 13.4166 9.98251 13.4166 9.98251C13.4166 9.98251 14.147 10.4856 14.2458 11.0462C14.3447 11.6069 14.4933 10.4047 14.4933 10.4047L14.6588 10.3755L14.5541 9.78194L14.8696 10.0517L14.7723 9.49968C14.7723 9.49968 15.0099 9.8102 14.9496 9.46841C14.8893 9.12663 14.8557 8.93582 14.8557 8.93582L14.7733 8.46866L15.0856 8.4136C15.0856 8.4136 13.84 6.88317 13.2315 7.07169Z" fill="#3D58DB"/>
</g>
<path fill-rule="evenodd" clip-rule="evenodd" d="M26.0884 13.6959C25.4564 13.7759 24.905 15.2991 24.905 15.6908C24.905 16.0825 25.1837 15.6908 25.1837 15.6908C25.1837 15.6908 25.4395 16.6651 25.4395 16.9151C25.4395 17.1651 25.7652 16.5947 25.7652 16.5947C25.7652 16.5947 26.3971 17.217 26.3971 17.7862C26.3971 18.3555 26.7522 17.1974 26.7522 17.1974H26.9202V16.5947L27.1841 16.9151V16.3546C27.1841 16.3546 27.3642 16.7016 27.3642 16.3546C27.3642 16.0075 27.3642 15.8138 27.3642 15.8138V15.3394H27.6813C27.6813 15.3394 26.7204 13.6159 26.0884 13.6959Z" fill="#3D58DB"/>
<path fill-rule="evenodd" clip-rule="evenodd" d="M5.59292 13.4652C6.22491 13.5452 6.77625 15.0684 6.77625 15.4601C6.77625 15.8518 6.49754 15.4601 6.49754 15.4601C6.49754 15.4601 6.2418 16.4344 6.2418 16.6844C6.2418 16.9344 5.91606 16.364 5.91606 16.364C5.91606 16.364 5.2842 16.9863 5.2842 17.5555C5.2842 18.1248 4.92903 16.9667 4.92903 16.9667H4.76104V16.364L4.49719 16.6844V16.1239C4.49719 16.1239 4.31711 16.4709 4.31711 16.1239C4.31711 15.7768 4.31711 15.5831 4.31711 15.5831V15.1087H4.00002C4.00002 15.1087 4.96092 13.3852 5.59292 13.4652Z" fill="#3D58DB"/>
</g>
</svg>
