<svg width="32" height="24" viewBox="0 0 32 24" fill="none" xmlns="http://www.w3.org/2000/svg">
<mask id="mask0_1957_20367" style="mask-type:luminance" maskUnits="userSpaceOnUse" x="0" y="0" width="32" height="24">
<rect width="32" height="24" fill="white"/>
</mask>
<g mask="url(#mask0_1957_20367)">
<path d="M0 -1H-1V0V24V25H0H32H33V24V0V-1H32H0Z" fill="#E31D1C" stroke="#F7FCFF" stroke-width="2"/>
<path fill-rule="evenodd" clip-rule="evenodd" d="M0 0L24 12L0 24V0Z" fill="#FECA00"/>
<path fill-rule="evenodd" clip-rule="evenodd" d="M0 0L16 12L0 24V0Z" fill="#292B2E"/>
<path fill-rule="evenodd" clip-rule="evenodd" d="M7.45578 12.8561C7.38261 12.8584 7.31581 12.8983 7.27909 12.9617L6.41135 14.4582C6.3137 14.6266 6.05973 14.5854 6.02032 14.3948L5.71223 12.9048C5.69539 12.8233 5.63246 12.7592 5.55131 12.7409L4.22107 12.4405C4.03467 12.3984 3.99472 12.1506 4.15845 12.052L5.34683 11.3369C5.41791 11.2941 5.45751 11.2138 5.44818 11.1314L5.26639 9.52624C5.24515 9.3387 5.46113 9.21898 5.60893 9.33637L6.86959 10.3378C6.93669 10.3911 7.02929 10.3987 7.10424 10.3572L8.30288 9.69277C8.47075 9.59971 8.66601 9.75983 8.60763 9.94268L8.18213 11.2754C8.15604 11.3572 8.18177 11.4466 8.24733 11.5019L9.34246 12.4265C9.49092 12.5519 9.40661 12.7943 9.2124 12.8004L7.45578 12.8561Z" fill="white"/>
</g>
</svg>
