<svg width="32" height="24" viewBox="0 0 32 24" fill="none" xmlns="http://www.w3.org/2000/svg">
<mask id="mask0_1957_20325" style="mask-type:luminance" maskUnits="userSpaceOnUse" x="0" y="0" width="32" height="24">
<rect width="32" height="24" fill="white"/>
</mask>
<g mask="url(#mask0_1957_20325)">
<path fill-rule="evenodd" clip-rule="evenodd" d="M0 0V24H32V0H0Z" fill="#E31D1C"/>
<mask id="mask1_1957_20325" style="mask-type:luminance" maskUnits="userSpaceOnUse" x="0" y="0" width="32" height="24">
<path fill-rule="evenodd" clip-rule="evenodd" d="M0 0V24H32V0H0Z" fill="white"/>
</mask>
<g mask="url(#mask1_1957_20325)">
<path fill-rule="evenodd" clip-rule="evenodd" d="M16 17C18.7614 17 21 14.7614 21 12C21 9.23858 18.7614 7 16 7C13.2386 7 11 9.23858 11 12C11 14.7614 13.2386 17 16 17Z" fill="#F7FCFF"/>
<path fill-rule="evenodd" clip-rule="evenodd" d="M16.8767 15.5317C16.8767 15.5317 14.2415 14.8128 14.2415 11.9834C14.2415 9.15404 16.8767 8.37346 16.8767 8.37346C15.787 7.95171 12.598 8.59882 12.598 11.9834C12.598 15.368 15.876 15.9775 16.8767 15.5317ZM16.7317 11.3676L15.4242 11.8453L16.8294 12.3365L16.8767 13.6521L17.7319 12.63L19.142 12.7301L18.126 11.9013L18.7379 10.7043L17.5427 11.1066L16.7147 10.0717L16.7317 11.3676Z" fill="#E31D1C"/>
</g>
</g>
</svg>
