<svg width="32" height="24" viewBox="0 0 32 24" fill="none" xmlns="http://www.w3.org/2000/svg">
<mask id="mask0_1957_20385" style="mask-type:luminance" maskUnits="userSpaceOnUse" x="0" y="0" width="32" height="24">
<rect width="32" height="24" fill="white"/>
</mask>
<g mask="url(#mask0_1957_20385)">
<path fill-rule="evenodd" clip-rule="evenodd" d="M0 0V24H32V0H0Z" fill="#F9CF2D"/>
<mask id="mask1_1957_20385" style="mask-type:luminance" maskUnits="userSpaceOnUse" x="0" y="0" width="32" height="24">
<path fill-rule="evenodd" clip-rule="evenodd" d="M0 0V24H32V0H0Z" fill="white"/>
</mask>
<g mask="url(#mask1_1957_20385)">
<rect width="32" height="4" fill="#292B2E"/>
<rect y="8" width="32" height="4" fill="#EB611B"/>
<rect y="12" width="32" height="4" fill="#292B2E"/>
<rect y="20" width="32" height="4" fill="#EB611B"/>
<path fill-rule="evenodd" clip-rule="evenodd" d="M16 17C18.7614 17 21 14.7614 21 12C21 9.23858 18.7614 7 16 7C13.2386 7 11 9.23858 11 12C11 14.7614 13.2386 17 16 17Z" fill="#F7FCFF"/>
<path fill-rule="evenodd" clip-rule="evenodd" d="M14.5036 9.65071L13.8229 9.87406L14.5036 9.93234C14.5036 9.93234 14.6136 10.2015 14.5036 10.4116C14.4756 10.465 14.4036 10.5333 14.3116 10.6205C14.0412 10.8769 13.5987 11.2965 13.5987 11.9783C13.5987 12.8919 15.362 13.3062 15.362 13.3062V13.7403C15.362 13.7403 15.5667 13.8674 14.399 13.8674C13.3864 13.8674 13.4497 14.2518 13.4844 14.4622C13.4897 14.4944 13.4944 14.5226 13.4944 14.5446C13.4944 14.7108 13.9811 14.3785 14.2089 14.0477C14.3288 13.8735 14.831 13.8827 15.3465 13.9305C15.3871 13.9343 15.763 14.7303 15.4367 15.1416C15.2996 15.3144 14.8263 15.3369 14.5306 15.3509C14.3798 15.3581 14.2752 15.3631 14.2849 15.3847C14.2921 15.4009 14.3813 15.3955 14.511 15.3878C14.6727 15.3781 14.8975 15.3647 15.1047 15.3847C15.1362 15.3877 15.0142 15.4935 14.8909 15.6005C14.764 15.7107 14.6356 15.8222 14.6717 15.8239C14.7124 15.8258 14.9502 15.6941 15.1662 15.5744C15.3449 15.4754 15.5088 15.3847 15.5338 15.3847C15.6968 15.3847 15.844 15.4048 15.9731 15.4224C16.1889 15.4519 16.3541 15.4745 16.4582 15.3847C16.4902 15.357 16.3044 15.3125 16.1151 15.2671C15.92 15.2204 15.721 15.1727 15.7523 15.1416C15.9317 14.9636 15.8568 14.5906 15.7978 14.2968C15.7713 14.1649 15.748 14.0491 15.7523 13.9739C15.7677 13.7071 16.05 13.847 16.2718 13.9571C16.369 14.0052 16.4545 14.0477 16.501 14.0477C16.9211 14.0477 16.3995 13.5163 16.1131 13.2246C16.0881 13.1991 16.0648 13.1753 16.0441 13.154C15.8985 13.0036 16.0006 13.0238 16.2315 13.0695C16.4077 13.1043 16.6588 13.154 16.932 13.154C17.5631 13.154 18.0238 12.9489 17.8638 12.3937C17.7582 12.0275 17.1801 11.9028 16.5762 11.7726C16.2647 11.7054 15.9463 11.6368 15.6824 11.5328C15.0329 11.2768 15.066 10.9035 15.094 10.5879C15.0995 10.5266 15.1047 10.4674 15.1047 10.4116C15.1047 10.0693 15.6824 9.65071 15.6824 9.65071C15.6824 9.65071 15.4187 9.20898 14.9816 9.20898C14.5444 9.20898 14.5036 9.65071 14.5036 9.65071ZM15.6927 13.6704V13.3476C15.6927 13.3476 15.9626 13.3387 16.0573 13.5658C16.152 13.7929 15.6927 13.6704 15.6927 13.6704Z" fill="#292B2E"/>
<path fill-rule="evenodd" clip-rule="evenodd" d="M14.1157 8.60972L14.7678 9.38304L15.1056 9.30361L14.9436 8.52295L14.1157 8.60972Z" fill="#EB611B"/>
<path fill-rule="evenodd" clip-rule="evenodd" d="M14.9624 8.42284L15.0044 9.58549L15.5613 9.44847L15.7984 8.68701L14.9624 8.42284Z" fill="#FFD018"/>
<path fill-rule="evenodd" clip-rule="evenodd" d="M14.4376 10.3647C14.5606 10.3647 14.6603 10.2675 14.6603 10.1476C14.6603 10.0276 14.5606 9.93042 14.4376 9.93042C14.3146 9.93042 14.2148 10.0276 14.2148 10.1476C14.2148 10.2675 14.3146 10.3647 14.4376 10.3647Z" fill="#EB611B"/>
<path fill-rule="evenodd" clip-rule="evenodd" d="M15.8527 8.64056L15.2043 9.41706L15.3412 9.73585L16.0819 9.44079L15.8527 8.64056Z" fill="#EB611B"/>
<path fill-rule="evenodd" clip-rule="evenodd" d="M17.3596 14.5175C17.3596 14.5175 18.5 14.008 18.5 13.2956C18.5 12.5832 16.6483 11.8071 16.6483 11.8071C16.6483 11.8071 15.559 12.0564 16.05 12.39C16.5409 12.7236 17.1987 12.8518 17.1987 13.2956C17.1987 13.7394 17.3789 14.1626 17.0136 14.1626C16.6483 14.1626 17.3596 14.5175 17.3596 14.5175Z" fill="#EB611B"/>
<path fill-rule="evenodd" clip-rule="evenodd" d="M15.7144 11.677C15.7144 11.677 15.3111 11.7478 15.3302 11.8134C15.3832 11.9945 15.9346 12.2303 16.175 12.3937C16.6659 12.7273 17.1314 12.6898 17.4777 12.4727C17.824 12.2556 15.7144 11.677 15.7144 11.677Z" fill="#FFFDFF"/>
</g>
</g>
</svg>
