<svg width="32" height="24" viewBox="0 0 32 24" fill="none" xmlns="http://www.w3.org/2000/svg">
<mask id="mask0_1957_20361" style="mask-type:luminance" maskUnits="userSpaceOnUse" x="0" y="0" width="32" height="24">
<rect width="32" height="24" fill="white"/>
</mask>
<g mask="url(#mask0_1957_20361)">
<path fill-rule="evenodd" clip-rule="evenodd" d="M0 0H32V24H0V0Z" fill="#F7FCFF"/>
<path fill-rule="evenodd" clip-rule="evenodd" d="M0 14.6667V16.6667H32V14.6667H0Z" fill="#E31D1C"/>
<path fill-rule="evenodd" clip-rule="evenodd" d="M0 18.3333V20.3333H32V18.3333H0Z" fill="#E31D1C"/>
<path fill-rule="evenodd" clip-rule="evenodd" d="M0 7.33325V9.33325H32V7.33325H0Z" fill="#E31D1C"/>
<path fill-rule="evenodd" clip-rule="evenodd" d="M0 22V24H32V22H0Z" fill="#E31D1C"/>
<path fill-rule="evenodd" clip-rule="evenodd" d="M0 11V13H32V11H0Z" fill="#E31D1C"/>
<path fill-rule="evenodd" clip-rule="evenodd" d="M0 0V2H32V0H0Z" fill="#E31D1C"/>
<path fill-rule="evenodd" clip-rule="evenodd" d="M0 3.66675V5.66675H32V3.66675H0Z" fill="#E31D1C"/>
<rect width="20" height="13" fill="#465BC5"/>
<path fill-rule="evenodd" clip-rule="evenodd" d="M1.72203 2.93871L0.996148 3.44759L1.24121 2.54198L0.596497 1.96807H1.43858L1.72101 1.229L2.05218 1.96807H2.77004L2.206 2.54198L2.42437 3.44759L1.72203 2.93871ZM5.72203 2.93871L4.99615 3.44759L5.24121 2.54198L4.5965 1.96807H5.43858L5.72101 1.229L6.05218 1.96807H6.77004L6.206 2.54198L6.42437 3.44759L5.72203 2.93871ZM8.99615 3.44759L9.72203 2.93871L10.4244 3.44759L10.206 2.54198L10.77 1.96807H10.0522L9.72101 1.229L9.43858 1.96807H8.5965L9.24121 2.54198L8.99615 3.44759ZM13.722 2.93871L12.9961 3.44759L13.2412 2.54198L12.5965 1.96807H13.4386L13.721 1.229L14.0522 1.96807H14.77L14.206 2.54198L14.4244 3.44759L13.722 2.93871ZM0.996148 7.44759L1.72203 6.93871L2.42437 7.44759L2.206 6.54198L2.77004 5.96807H2.05218L1.72101 5.229L1.43858 5.96807H0.596497L1.24121 6.54198L0.996148 7.44759ZM5.72203 6.93871L4.99615 7.44759L5.24121 6.54198L4.5965 5.96807H5.43858L5.72101 5.229L6.05218 5.96807H6.77004L6.206 6.54198L6.42437 7.44759L5.72203 6.93871ZM8.99615 7.44759L9.72203 6.93871L10.4244 7.44759L10.206 6.54198L10.77 5.96807H10.0522L9.72101 5.229L9.43858 5.96807H8.5965L9.24121 6.54198L8.99615 7.44759ZM13.722 6.93871L12.9961 7.44759L13.2412 6.54198L12.5965 5.96807H13.4386L13.721 5.229L14.0522 5.96807H14.77L14.206 6.54198L14.4244 7.44759L13.722 6.93871ZM0.996148 11.4476L1.72203 10.9387L2.42437 11.4476L2.206 10.542L2.77004 9.96807H2.05218L1.72101 9.229L1.43858 9.96807H0.596497L1.24121 10.542L0.996148 11.4476ZM5.72203 10.9387L4.99615 11.4476L5.24121 10.542L4.5965 9.96807H5.43858L5.72101 9.229L6.05218 9.96807H6.77004L6.206 10.542L6.42437 11.4476L5.72203 10.9387ZM8.99615 11.4476L9.72203 10.9387L10.4244 11.4476L10.206 10.542L10.77 9.96807H10.0522L9.72101 9.229L9.43858 9.96807H8.5965L9.24121 10.542L8.99615 11.4476ZM13.722 10.9387L12.9961 11.4476L13.2412 10.542L12.5965 9.96807H13.4386L13.721 9.229L14.0522 9.96807H14.77L14.206 10.542L14.4244 11.4476L13.722 10.9387ZM16.9961 3.44759L17.722 2.93871L18.4244 3.44759L18.206 2.54198L18.77 1.96807H18.0522L17.721 1.229L17.4386 1.96807H16.5965L17.2412 2.54198L16.9961 3.44759ZM17.722 6.93871L16.9961 7.44759L17.2412 6.54198L16.5965 5.96807H17.4386L17.721 5.229L18.0522 5.96807H18.77L18.206 6.54198L18.4244 7.44759L17.722 6.93871ZM16.9961 11.4476L17.722 10.9387L18.4244 11.4476L18.206 10.542L18.77 9.96807H18.0522L17.721 9.229L17.4386 9.96807H16.5965L17.2412 10.542L16.9961 11.4476ZM3.72203 4.93871L2.99615 5.44759L3.24121 4.54198L2.5965 3.96807H3.43858L3.72101 3.229L4.05218 3.96807H4.77004L4.206 4.54198L4.42437 5.44759L3.72203 4.93871ZM6.99615 5.44759L7.72203 4.93871L8.42437 5.44759L8.206 4.54198L8.77004 3.96807H8.05218L7.72101 3.229L7.43858 3.96807H6.5965L7.24121 4.54198L6.99615 5.44759ZM11.722 4.93871L10.9961 5.44759L11.2412 4.54198L10.5965 3.96807H11.4386L11.721 3.229L12.0522 3.96807H12.77L12.206 4.54198L12.4244 5.44759L11.722 4.93871ZM2.99615 9.44759L3.72203 8.93871L4.42437 9.44759L4.206 8.54198L4.77004 7.96807H4.05218L3.72101 7.229L3.43858 7.96807H2.5965L3.24121 8.54198L2.99615 9.44759ZM7.72203 8.93871L6.99615 9.44759L7.24121 8.54198L6.5965 7.96807H7.43858L7.72101 7.229L8.05218 7.96807H8.77004L8.206 8.54198L8.42437 9.44759L7.72203 8.93871ZM10.9961 9.44759L11.722 8.93871L12.4244 9.44759L12.206 8.54198L12.77 7.96807H12.0522L11.721 7.229L11.4386 7.96807H10.5965L11.2412 8.54198L10.9961 9.44759ZM15.722 4.93871L14.9961 5.44759L15.2412 4.54198L14.5965 3.96807H15.4386L15.721 3.229L16.0522 3.96807H16.77L16.206 4.54198L16.4244 5.44759L15.722 4.93871ZM14.9961 9.44759L15.722 8.93871L16.4244 9.44759L16.206 8.54198L16.77 7.96807H16.0522L15.721 7.229L15.4386 7.96807H14.5965L15.2412 8.54198L14.9961 9.44759Z" fill="#F7FCFF"/>
</g>
</svg>
