<svg width="32" height="24" viewBox="0 0 32 24" fill="none" xmlns="http://www.w3.org/2000/svg">
<mask id="mask0_1957_20226" style="mask-type:luminance" maskUnits="userSpaceOnUse" x="0" y="0" width="32" height="24">
<rect width="32" height="24" fill="white"/>
</mask>
<g mask="url(#mask0_1957_20226)">
<path fill-rule="evenodd" clip-rule="evenodd" d="M0 0V24H32V0H0Z" fill="#F7FCFF"/>
<mask id="mask1_1957_20226" style="mask-type:luminance" maskUnits="userSpaceOnUse" x="0" y="0" width="32" height="24">
<path fill-rule="evenodd" clip-rule="evenodd" d="M0 0V24H32V0H0Z" fill="white"/>
</mask>
<g mask="url(#mask1_1957_20226)">
<rect y="2" width="32" height="3" fill="#465BC5"/>
<rect y="8" width="32" height="3" fill="#465BC5"/>
<rect y="14" width="32" height="3" fill="#465BC5"/>
<rect y="19" width="32" height="3" fill="#465BC5"/>
<rect width="14" height="14" fill="#F7FCFF"/>
<path fill-rule="evenodd" clip-rule="evenodd" d="M4.78251 2.58209C4.70922 2.57717 4.64524 2.63207 4.6396 2.70471C4.61218 3.05786 4.92303 3.3789 5.09512 3.55663L5.11209 3.57418C5.13927 3.60232 5.16711 3.63012 5.20199 3.66417C5.20197 3.66416 5.28337 3.74318 5.30565 3.7652C5.4551 3.913 5.4875 4.05143 5.52386 4.20687L5.53287 4.24509C5.5486 4.31096 5.56477 4.39058 5.58253 4.478L5.58254 4.47801C5.66125 4.86548 5.77112 5.40629 6.01112 5.58259C6.0699 5.62577 6.48171 5.36926 6.52584 5.31064C6.54141 5.28996 6.58744 5.25574 6.63792 5.21821L6.63793 5.2182C6.73055 5.14934 6.83816 5.06933 6.80012 5.04138C6.54881 4.85678 6.3579 4.40939 6.10986 3.7652C5.97743 3.4619 5.63065 3.2691 5.34288 3.10911C5.09708 2.97245 4.89434 2.85973 4.90499 2.72252C4.91063 2.64989 4.85579 2.58701 4.78251 2.58209ZM8.8298 2.68152C8.79402 2.61738 8.71313 2.59362 8.64913 2.62845C8.33803 2.79779 8.23808 3.23334 8.18275 3.47447L8.17728 3.49826C8.16848 3.53638 8.16033 3.57487 8.15076 3.62267C8.15077 3.62265 8.12883 3.73395 8.12249 3.76463C8.07993 3.97047 7.98148 4.07303 7.87093 4.18819L7.84377 4.21656C7.7971 4.26563 7.73913 4.32256 7.67548 4.38507C7.3934 4.66212 6.99967 5.04882 6.98253 5.34611C6.97833 5.41892 7.41774 5.62459 7.49094 5.62968C7.51676 5.63147 7.57054 5.65144 7.62951 5.67333C7.73771 5.71351 7.86342 5.76019 7.86614 5.71306C7.88409 5.40175 8.15533 4.99797 8.56049 4.4391C8.74274 4.16284 8.71556 3.767 8.69301 3.43852C8.67375 3.15795 8.65787 2.92652 8.77874 2.86073C8.84273 2.8259 8.86559 2.74566 8.8298 2.68152ZM11.4161 5.03042C11.4866 5.04859 11.5296 5.12113 11.512 5.19245C11.4945 5.26377 11.423 5.30686 11.3525 5.28869C11.2192 5.25437 11.073 5.43446 10.8957 5.6528C10.6882 5.90841 10.4381 6.21644 10.1164 6.29419C9.43892 6.4266 8.96518 6.53692 8.73974 6.75236C8.70561 6.78497 8.64551 6.6651 8.59377 6.56193L8.59377 6.56192L8.59377 6.56192C8.56557 6.50569 8.53986 6.45441 8.5222 6.43549C8.47213 6.38185 8.29103 5.93176 8.34376 5.88137C8.55905 5.67563 9.11073 5.66134 9.50599 5.6511L9.506 5.6511C9.59518 5.64879 9.6764 5.64669 9.74399 5.64264L9.7832 5.64041C9.94258 5.63158 10.0845 5.62372 10.256 5.5022C10.2812 5.48439 10.3705 5.41982 10.3735 5.41771L10.3735 5.41766C10.4131 5.38923 10.4453 5.36663 10.4778 5.34475L10.498 5.33109C10.7029 5.19247 11.0731 4.94209 11.4161 5.03042ZM2.3228 5.47369C2.2675 5.52203 2.26108 5.60609 2.30846 5.66144C2.53878 5.93054 2.98559 5.93775 3.23296 5.94174C3.24133 5.94187 3.24947 5.942 3.25736 5.94214C3.29648 5.94282 3.33583 5.94279 3.38457 5.94221C3.38454 5.94221 3.49798 5.94053 3.5293 5.94035C3.7395 5.93918 3.86029 6.01416 3.99591 6.09835C4.00693 6.10519 4.01804 6.11209 4.02931 6.11902C4.087 6.15447 4.15474 6.19933 4.22912 6.24859C4.55877 6.46691 5.01887 6.77164 5.31324 6.72659C5.38533 6.71556 5.49515 6.243 5.4849 6.17034C5.48129 6.14471 5.48964 6.08796 5.49879 6.02572C5.51559 5.91153 5.53511 5.77886 5.48845 5.786C5.18021 5.83317 4.72886 5.65181 4.09797 5.37169C3.78986 5.25087 3.40832 5.35975 3.0917 5.4501C2.82127 5.52727 2.5982 5.59093 2.50871 5.48638C2.46134 5.43102 2.3781 5.42534 2.3228 5.47369Z" fill="#FFC125"/>
<path fill-rule="evenodd" clip-rule="evenodd" d="M4.75565 11.2453C4.68236 11.2502 4.61838 11.1953 4.61274 11.1227C4.58532 10.7695 4.89617 10.4485 5.06827 10.2708L5.08524 10.2532C5.11241 10.2251 5.14026 10.1973 5.17514 10.1632C5.17512 10.1632 5.25652 10.0842 5.27879 10.0622C5.42825 9.91439 5.46064 9.77596 5.49701 9.62053L5.50602 9.5823C5.52174 9.51644 5.53792 9.43682 5.55568 9.34939L5.55568 9.34938C5.6344 8.96191 5.74427 8.4211 5.98427 8.2448C6.04304 8.20163 6.45485 8.45813 6.49899 8.51675C6.51455 8.53743 6.56058 8.57165 6.61107 8.60918L6.61107 8.60919C6.70369 8.67805 6.81131 8.75806 6.77326 8.78601C6.52196 8.97061 6.33104 9.41801 6.083 10.0622C5.95057 10.3655 5.60379 10.5583 5.31603 10.7183C5.07023 10.8549 4.86748 10.9677 4.87813 11.1049C4.88377 11.1775 4.82894 11.2404 4.75565 11.2453ZM8.80295 11.1459C8.76716 11.21 8.68627 11.2338 8.62228 11.1989C8.31117 11.0296 8.21123 10.5941 8.15589 10.3529L8.15042 10.3291C8.14162 10.291 8.13348 10.2525 8.12391 10.2047C8.12391 10.2047 8.10198 10.0934 8.09563 10.0628C8.05308 9.85692 7.95462 9.75436 7.84407 9.6392L7.81692 9.61083C7.77015 9.56167 7.71133 9.50393 7.64649 9.44028L7.64647 9.44026L7.64646 9.44025C7.35983 9.15888 6.95567 8.76214 6.95567 8.48128C6.95567 8.35371 7.39088 8.2028 7.46408 8.19771C7.48991 8.19592 7.54368 8.17596 7.60265 8.15406C7.71086 8.11388 7.83657 8.06721 7.83929 8.11433C7.85724 8.42564 8.12847 8.82942 8.53364 9.3883C8.71588 9.66455 8.68871 10.0604 8.66616 10.3889C8.6469 10.6694 8.63101 10.9009 8.75188 10.9667C8.81588 11.0015 8.83874 11.0817 8.80295 11.1459ZM11.3892 8.79697C11.4598 8.7788 11.5027 8.70626 11.4852 8.63494C11.4676 8.56362 11.3962 8.52054 11.3256 8.53871C11.1923 8.57302 11.0461 8.39293 10.8688 8.1746C10.6613 7.91898 10.4112 7.61095 10.0895 7.5332C9.41207 7.40079 8.93832 7.29047 8.71288 7.07503C8.67876 7.04242 8.61865 7.16229 8.56691 7.26546L8.56691 7.26547L8.56691 7.26547C8.53871 7.32171 8.513 7.37298 8.49534 7.3919C8.44528 7.44554 8.26418 7.89564 8.31691 7.94602C8.5322 8.15176 9.08388 8.16605 9.47913 8.17629L9.47915 8.17629C9.56833 8.1786 9.64954 8.1807 9.71713 8.18475L9.75634 8.18699C9.91573 8.19581 10.0577 8.20367 10.2292 8.32519C10.2543 8.34301 10.3437 8.40757 10.3466 8.40968L10.3467 8.40973C10.3863 8.43817 10.4185 8.46076 10.4509 8.48264L10.4711 8.4963C10.6761 8.63492 11.0462 8.8853 11.3892 8.79697ZM2.29595 8.35371C2.24065 8.30536 2.23423 8.2213 2.2816 8.16595C2.51192 7.89685 2.95873 7.88965 3.2061 7.88566C3.21447 7.88552 3.22261 7.88539 3.23051 7.88525C3.26962 7.88457 3.30897 7.8846 3.35772 7.88518C3.35769 7.88518 3.47112 7.88687 3.50245 7.88704C3.71264 7.88821 3.83343 7.81323 3.96906 7.72904C3.98007 7.7222 3.99119 7.7153 4.00245 7.70838C4.06015 7.67292 4.12789 7.62806 4.20227 7.5788C4.53191 7.36048 4.99202 7.05575 5.28638 7.1008C5.35847 7.11183 5.46829 7.5844 5.45805 7.65706C5.45443 7.68269 5.46278 7.73944 5.47194 7.80167C5.48874 7.91587 5.50826 8.04853 5.4616 8.04139C5.15336 7.99423 4.70201 8.17559 4.07111 8.4557C3.763 8.57653 3.38146 8.46765 3.06485 8.3773C2.79441 8.30012 2.57134 8.23646 2.48186 8.34102C2.43448 8.39637 2.35125 8.40205 2.29595 8.35371Z" fill="#FFC125"/>
<path fill-rule="evenodd" clip-rule="evenodd" d="M7.00002 2.05908C6.87258 2.05908 6.76459 2.15293 6.74683 2.27914L6.33336 5.21698H7.66669L7.25322 2.27914C7.23546 2.15293 7.12747 2.05908 7.00002 2.05908ZM10.4937 3.50621C10.4036 3.4161 10.2609 3.4061 10.1591 3.48278L7.78934 5.26778L8.73215 6.21059L10.5171 3.84085C10.5938 3.73905 10.5838 3.59633 10.4937 3.50621ZM11.7208 6.74671C11.847 6.76447 11.9408 6.87246 11.9408 6.9999C11.9408 7.12735 11.847 7.23533 11.7208 7.2531L8.78295 7.66657V6.33324L11.7208 6.74671ZM10.4937 10.4936C10.5838 10.4035 10.5938 10.2608 10.5171 10.159L8.73215 7.78922L7.78934 8.73203L10.1591 10.517C10.2609 10.5937 10.4036 10.5837 10.4937 10.4936ZM7.25322 11.7207C7.23546 11.8469 7.12747 11.9407 7.00002 11.9407C6.87258 11.9407 6.76459 11.8469 6.74683 11.7207L6.33336 8.78283H7.66669L7.25322 11.7207ZM3.50634 10.4936C3.59645 10.5837 3.73918 10.5937 3.84097 10.517L6.21071 8.73203L5.2679 7.78922L3.4829 10.159C3.40623 10.2608 3.41622 10.4035 3.50634 10.4936ZM2.27926 7.2531C2.15306 7.23533 2.0592 7.12735 2.0592 6.9999C2.0592 6.87246 2.15306 6.76447 2.27926 6.74671L5.2171 6.33324V7.66657L2.27926 7.2531ZM3.50634 3.50621C3.41622 3.59633 3.40623 3.73905 3.4829 3.84085L5.2679 6.21059L6.21071 5.26778L3.84097 3.48278C3.73918 3.4061 3.59645 3.4161 3.50634 3.50621Z" fill="#FFC125"/>
<path fill-rule="evenodd" clip-rule="evenodd" d="M6.99998 8.84191C8.06773 8.84191 8.93332 7.98772 8.93332 6.93402C8.93332 5.88032 8.06773 5.02612 6.99998 5.02612C5.93223 5.02612 5.06665 5.88032 5.06665 6.93402C5.06665 7.98772 5.93223 8.84191 6.99998 8.84191Z" fill="#FFC125"/>
<path d="M7.19324 6.47339C7.19378 6.47222 7.19431 6.47116 7.19482 6.47021C7.19465 6.47053 7.19445 6.47087 7.19421 6.47121L7.19324 6.47339Z" fill="#984111"/>
</g>
</g>
</svg>
