<svg width="32" height="24" viewBox="0 0 32 24" fill="none" xmlns="http://www.w3.org/2000/svg">
<mask id="mask0_1957_20372" style="mask-type:luminance" maskUnits="userSpaceOnUse" x="0" y="0" width="32" height="24">
<rect width="32" height="24" fill="white"/>
</mask>
<g mask="url(#mask0_1957_20372)">
<path fill-rule="evenodd" clip-rule="evenodd" d="M0 0H32V24H0V0Z" fill="#F7FCFF"/>
<path fill-rule="evenodd" clip-rule="evenodd" d="M0 0H14V24H0V0Z" fill="#FFDC17"/>
<path d="M22.5239 13.1799L22.2925 13.195C22.3478 13.9897 22.5185 14.6036 22.8083 15.0369C23.2755 15.7355 23.8922 16.2757 24.3048 16.2757C24.3986 16.2757 24.4204 16.3105 24.3894 16.3965C24.3455 16.5186 24.2065 16.6388 24.0277 16.6849C23.7302 16.7616 23.0538 16.8013 22.0098 16.8013V17.0258C23.0747 17.0258 23.7634 16.9854 24.0873 16.9018C24.339 16.8369 24.5386 16.6643 24.6084 16.4703C24.6891 16.2458 24.5673 16.0513 24.3048 16.0513C23.9984 16.0513 23.4298 15.5532 23.0029 14.9149C22.7376 14.5181 22.5767 13.9398 22.5239 13.1799Z" fill="#AF0100"/>
<path d="M21.4283 13.1799L21.6596 13.195C21.6044 13.9897 21.4336 14.6036 21.1439 15.0369C20.6766 15.7355 20.0599 16.2757 19.6473 16.2757C19.5536 16.2757 19.5318 16.3105 19.5627 16.3965C19.6067 16.5186 19.7457 16.6388 19.9245 16.6849C20.2219 16.7616 20.8984 16.8013 21.9424 16.8013V17.0258C20.8775 17.0258 20.1888 16.9854 19.8648 16.9018C19.6132 16.8369 19.4135 16.6643 19.3437 16.4703C19.263 16.2458 19.3848 16.0513 19.6473 16.0513C19.9538 16.0513 20.5223 15.5532 20.9492 14.9149C21.2146 14.5181 21.3754 13.9398 21.4283 13.1799Z" fill="#AF0100"/>
<path fill-rule="evenodd" clip-rule="evenodd" d="M26.0661 9.19019L19.9394 13.9662C19.7248 13.8963 19.4906 13.858 19.2467 13.858C18.2527 13.858 17.4208 14.4929 17.4208 15.3169C17.4208 16.1409 18.2527 16.7758 19.2467 16.7758C19.3607 16.7758 19.4726 16.7675 19.5813 16.7514C19.4807 16.6729 19.4056 16.5747 19.368 16.4703C19.3229 16.3447 19.3411 16.2285 19.412 16.1505C19.3581 16.1558 19.3029 16.1586 19.2466 16.1586C18.576 16.1586 18.0583 15.7635 18.0583 15.3169C18.0583 14.8703 18.576 14.4752 19.2466 14.4752C19.9173 14.4752 20.4349 14.8703 20.4349 15.3169C20.4349 15.4536 20.3864 15.5854 20.3 15.7026C20.3163 15.688 20.3326 15.6731 20.3491 15.6578C20.5614 15.4601 20.0843 16.2758 19.6716 16.2758C19.5779 16.2758 19.5561 16.3106 19.587 16.3965C19.6282 16.5109 19.7528 16.6236 19.9154 16.6753C20.5874 16.4652 21.0726 15.9462 21.0726 15.3169C21.0726 15.0595 20.9914 14.8206 20.8494 14.6136L24.1421 11.8191L24.3625 12.0468L24.5211 11.903L25.0711 12.3105L24.8412 12.4878L25.3107 13.0584L26.2571 12.3288L26.2738 12.3201L26.2709 12.3181L26.3297 12.2728L25.8602 11.7022L25.6332 11.8773L25.0182 11.4521L25.0904 11.3867L24.8925 11.1823L25.19 10.9297L25.3479 11.0928L25.5175 10.9391L26.0508 11.3612L25.8266 11.534L26.2961 12.1046L27.1073 11.4792L27.2003 11.4283L27.1868 11.4179L27.3151 11.319L26.8456 10.7484L26.5805 10.9528L25.9964 10.5047L26.0757 10.4327L25.9404 10.2929L26.5465 9.77844L26.0661 9.19019Z" fill="#F4B300"/>
<path fill-rule="evenodd" clip-rule="evenodd" d="M17.7685 14.5033C17.9446 14.5033 18.0873 14.3902 18.0873 14.2508C18.0873 14.1113 17.9446 13.9983 17.7685 13.9983C17.5924 13.9983 17.4497 14.1113 17.4497 14.2508C17.4497 14.3902 17.5924 14.5033 17.7685 14.5033ZM17.8845 16.8039C18.0605 16.8039 18.2033 16.6909 18.2033 16.5514C18.2033 16.412 18.0605 16.2989 17.8845 16.2989C17.7084 16.2989 17.5657 16.412 17.5657 16.5514C17.5657 16.6909 17.7084 16.8039 17.8845 16.8039ZM21.0435 16.5514C21.0435 16.6909 20.9008 16.8039 20.7247 16.8039C20.5487 16.8039 20.4059 16.6909 20.4059 16.5514C20.4059 16.412 20.5487 16.2989 20.7247 16.2989C20.9008 16.2989 21.0435 16.412 21.0435 16.5514Z" fill="#BFBFBF"/>
<path fill-rule="evenodd" clip-rule="evenodd" d="M22.9274 15.3169C22.9274 14.9466 23.0955 14.6144 23.3708 14.3609L19.8524 11.6362L19.8123 11.6671L19.9149 11.7602L19.6375 12.0468L19.4913 11.9143L18.9528 12.329L19.1588 12.4878L18.6893 13.0584L17.7523 12.336L17.7262 12.32L17.729 12.3181L17.6703 12.2728L18.1398 11.7022L18.3667 11.8772L18.9817 11.452L18.9096 11.3867L19.1755 11.112L18.8657 10.8721L18.6521 11.0929L18.4888 10.9448L17.9624 11.3712L18.1734 11.5338L17.7039 12.1044L16.9185 11.4989L16.7997 11.4281L16.8132 11.4178L16.6849 11.3189L17.1544 10.7483L17.4195 10.9526L18.0035 10.5046L17.9243 10.4327L18.0846 10.2671L17.4534 9.77836L17.8517 9.29639L23.9386 14.0102C24.185 13.9125 24.4622 13.858 24.7533 13.858C25.7473 13.858 26.5792 14.493 26.5792 15.3169C26.5792 16.1409 25.7473 16.7758 24.7533 16.7758C24.6393 16.7758 24.5274 16.7675 24.4187 16.7514C24.5193 16.6729 24.5944 16.5747 24.6319 16.4703C24.6771 16.3447 24.6588 16.2284 24.588 16.1504C24.6419 16.1557 24.6971 16.1585 24.7534 16.1585C25.424 16.1585 25.9416 15.7635 25.9416 15.3168C25.9416 14.8702 25.424 14.4752 24.7534 14.4752C24.0827 14.4752 23.5651 14.8702 23.5651 15.3168C23.5651 15.4536 23.6136 15.5855 23.7002 15.7027C23.6838 15.6881 23.6674 15.6732 23.6509 15.6578C23.4386 15.4601 23.9157 16.2758 24.3284 16.2758C24.4221 16.2758 24.4439 16.3106 24.413 16.3965C24.3718 16.5109 24.2472 16.6236 24.0846 16.6753C23.4126 16.4652 22.9274 15.9462 22.9274 15.3169Z" fill="#BFBFBF"/>
<path fill-rule="evenodd" clip-rule="evenodd" d="M26.2315 14.5033C26.0554 14.5033 25.9127 14.3902 25.9127 14.2508C25.9127 14.1113 26.0554 13.9983 26.2315 13.9983C26.4076 13.9983 26.5503 14.1113 26.5503 14.2508C26.5503 14.3902 26.4076 14.5033 26.2315 14.5033ZM26.1155 16.8039C25.9394 16.8039 25.7967 16.6909 25.7967 16.5514C25.7967 16.412 25.9394 16.2989 26.1155 16.2989C26.2916 16.2989 26.4343 16.412 26.4343 16.5514C26.4343 16.6909 26.2916 16.8039 26.1155 16.8039ZM22.9564 16.5514C22.9564 16.6909 23.0992 16.8039 23.2753 16.8039C23.4513 16.8039 23.5941 16.6909 23.5941 16.5514C23.5941 16.412 23.4513 16.2989 23.2753 16.2989C23.0992 16.2989 22.9564 16.412 22.9564 16.5514Z" fill="#F4B300"/>
<path fill-rule="evenodd" clip-rule="evenodd" d="M21.8688 12.5393C21.7972 12.5393 21.7391 12.5974 21.7391 12.669V12.9881H21.4175C21.3711 12.9881 21.3334 13.0258 21.3334 13.0723C21.3334 13.1188 21.3711 13.1565 21.4175 13.1565H21.7391V17.9085C21.7391 17.9802 21.7972 18.0382 21.8688 18.0382H21.9572C22.0288 18.0382 22.0869 17.9802 22.0869 17.9085V13.1565H22.5824C22.6289 13.1565 22.6666 13.1188 22.6666 13.0723C22.6666 13.0258 22.6289 12.9881 22.5824 12.9881H22.0869V12.669C22.0869 12.5974 22.0288 12.5393 21.9572 12.5393H21.8688Z" fill="#AF0100"/>
<path fill-rule="evenodd" clip-rule="evenodd" d="M18.4844 9.72318L18.6262 9.82053C18.9569 9.36905 19.2544 9.27836 19.5571 9.51531C20.0796 9.92441 20.1248 10.9225 19.566 11.2567C18.8996 11.6553 18.5618 12.4325 18.8573 12.8555C19.13 13.2459 19.7874 13.0982 20.4364 12.6079C20.5516 12.5208 20.6614 12.4279 20.7647 12.3303L20.6276 12.2244C20.5336 12.3124 20.4338 12.3963 20.3294 12.4752C19.7505 12.9125 19.1943 13.0375 19.0014 12.7612C18.771 12.4315 19.0655 11.7539 19.6574 11.3999C20.327 10.9995 20.2754 9.86125 19.6664 9.38443C19.2736 9.07689 18.8669 9.20085 18.4844 9.72318ZM21.0365 11.7682L21.178 11.8663C21.4241 11.5342 21.5923 11.1745 21.6481 10.8202L21.4762 10.7949C21.4248 11.1211 21.2676 11.4565 21.0365 11.7682Z" fill="#979797"/>
<path fill-rule="evenodd" clip-rule="evenodd" d="M25.5317 9.72318L25.3899 9.82053C25.0592 9.36905 24.7617 9.27836 24.4591 9.51531C23.9366 9.92441 23.8913 10.9225 24.4501 11.2567C25.1165 11.6553 25.4543 12.4325 25.1588 12.8555C24.8861 13.2459 24.2287 13.0982 23.5797 12.6079C23.4645 12.5208 23.3547 12.4279 23.2515 12.3303L23.3886 12.2244C23.4826 12.3124 23.5823 12.3963 23.6867 12.4752C24.2656 12.9125 24.8218 13.0375 25.0147 12.7612C25.2451 12.4315 24.9506 11.7539 24.3587 11.3999C23.6891 10.9995 23.7407 9.86125 24.3497 9.38443C24.7425 9.07689 25.1492 9.20085 25.5317 9.72318ZM22.9796 11.7682L22.8381 11.8664C22.592 11.5342 22.4238 11.1745 22.368 10.8202L22.54 10.7949C22.5913 11.1211 22.7486 11.4565 22.9796 11.7682Z" fill="#979797"/>
<path fill-rule="evenodd" clip-rule="evenodd" d="M21.9131 18.0495C22.1052 18.0495 22.2609 17.9716 22.2609 17.8756C22.2609 17.7795 22.1052 17.7017 21.9131 17.7017C21.721 17.7017 21.5653 17.7795 21.5653 17.8756C21.5653 17.9716 21.721 18.0495 21.9131 18.0495Z" fill="#AF0100"/>
<path fill-rule="evenodd" clip-rule="evenodd" d="M21.8551 10.813C22.5274 10.813 23.0724 10.7222 23.0724 10.6101C23.0724 10.4981 22.5274 10.4072 21.8551 10.4072C21.1828 10.4072 20.6378 10.4981 20.6378 10.6101C20.6378 10.7222 21.1828 10.813 21.8551 10.813Z" fill="#AF0100"/>
<path fill-rule="evenodd" clip-rule="evenodd" d="M21.9237 6H21.7498V6.20044H21.5851V6.36878H21.7498V6.86009H21.9237V6.36878H22.1244V6.20044H21.9237V6ZM20.6161 8.42501L20.5384 8.29426C20.5809 8.27644 20.6243 8.25962 20.6686 8.24381L20.4424 7.74779L20.6015 7.67981L20.8343 8.19044C20.8837 8.17621 20.9341 8.16311 20.9855 8.15114C20.9497 8.11067 20.9277 8.05531 20.9277 7.99425C20.9277 7.87029 21.0185 7.76981 21.1306 7.76981C21.2426 7.76981 21.3335 7.87029 21.3335 7.99425C21.3335 8.02923 21.3262 8.06233 21.3133 8.09184C21.451 8.07358 21.5949 8.06227 21.7449 8.0579V7.86772H21.5271V7.73234H21.7449V7.57116H21.9748V7.73234H22.2402V7.86772H21.9748V8.05657C22.1457 8.05954 22.3058 8.07143 22.4551 8.0923C22.4421 8.06267 22.4348 8.02941 22.4348 7.99425C22.4348 7.87029 22.5256 7.76981 22.6377 7.76981C22.7497 7.76981 22.8406 7.87029 22.8406 7.99425C22.8406 8.05773 22.8167 8.11506 22.7785 8.15588C22.8433 8.17278 22.9055 8.19184 22.9652 8.21305L23.1317 7.84802L23.2907 7.916L23.1256 8.27812C23.1387 8.28413 23.1516 8.29027 23.1644 8.29653L23.0767 8.42275L23.0627 8.41597L23.036 8.47456L22.8769 8.40658L22.9029 8.34959C22.6492 8.25854 22.34 8.20935 21.9748 8.20273V8.26291H21.7449V8.20412C21.3114 8.21733 20.9354 8.29114 20.6161 8.42501ZM20.5384 8.57489L20.579 8.6432L20.4424 8.70159L20.6687 9.19774C20.6244 9.21356 20.581 9.23039 20.5384 9.24822L20.6161 9.37897C20.9354 9.24509 21.3114 9.17128 21.7449 9.15807V9.2167H21.9748V9.15668C22.34 9.1633 22.6492 9.21249 22.9029 9.30354L22.8769 9.36053L23.036 9.42852L23.0627 9.36993L23.0767 9.37671L23.1644 9.25048C23.1516 9.24422 23.1387 9.23809 23.1256 9.23207L23.2907 8.86996L23.1317 8.80198L22.9652 9.167C22.9055 9.14579 22.8433 9.12674 22.7785 9.10984C22.8167 9.06901 22.8406 9.01169 22.8406 8.94821C22.8406 8.82425 22.7497 8.72376 22.6377 8.72376C22.5256 8.72376 22.4348 8.82425 22.4348 8.94821C22.4348 8.98336 22.4421 9.01663 22.4551 9.04625C22.3058 9.02538 22.1457 9.01349 21.9748 9.01052V8.82168H22.2402V8.68629H21.9748V8.52495H21.7449V8.68629H21.5271V8.82168H21.7449V9.01185C21.5949 9.01623 21.451 9.02754 21.3133 9.0458C21.3262 9.01629 21.3335 8.98318 21.3335 8.94821C21.3335 8.82425 21.2426 8.72376 21.1306 8.72376C21.0185 8.72376 20.9277 8.82425 20.9277 8.94821C20.9277 9.00926 20.9497 9.06463 20.9855 9.10509C20.9341 9.11706 20.8838 9.13015 20.8344 9.14438L20.6314 8.69927C20.9824 8.55504 21.4012 8.48258 21.8886 8.48258C22.3817 8.48258 22.7775 8.55671 23.0767 8.70337L23.1644 8.57715C22.8359 8.41615 22.4104 8.33645 21.8886 8.33645C21.3684 8.33645 20.9181 8.41569 20.5384 8.57489ZM20.5384 9.52884L20.579 9.59716L20.4424 9.65554L20.6687 10.1517C20.6244 10.1675 20.581 10.1843 20.5384 10.2022L20.6161 10.3329C20.9354 10.199 21.3114 10.1252 21.7449 10.112V10.1707H21.9748V10.1106C22.34 10.1173 22.6492 10.1664 22.9029 10.2575L22.8769 10.3145L23.036 10.3825L23.0627 10.3239L23.0767 10.3307L23.1644 10.2044C23.1516 10.1982 23.1387 10.192 23.1256 10.186L23.2907 9.82391L23.1317 9.75593L22.9652 10.121C22.9055 10.0997 22.8433 10.0807 22.7785 10.0638C22.8167 10.023 22.8406 9.96564 22.8406 9.90216C22.8406 9.7782 22.7497 9.67772 22.6377 9.67772C22.5256 9.67772 22.4348 9.7782 22.4348 9.90216C22.4348 9.93732 22.4421 9.97058 22.4551 10.0002C22.3058 9.97934 22.1457 9.96745 21.9748 9.96448V9.77563H22.2402V9.64024H21.9748V9.47891H21.7449V9.64024H21.5271V9.77563H21.7449V9.96581C21.5949 9.97018 21.451 9.98149 21.3133 9.99975C21.3262 9.97024 21.3335 9.93714 21.3335 9.90216C21.3335 9.7782 21.2426 9.67772 21.1306 9.67772C21.0185 9.67772 20.9277 9.7782 20.9277 9.90216C20.9277 9.96322 20.9497 10.0186 20.9855 10.059C20.9341 10.071 20.8838 10.0841 20.8344 10.0983L20.6314 9.65323C20.9824 9.50899 21.4012 9.43653 21.8886 9.43653C22.3817 9.43653 22.7775 9.51066 23.0767 9.65733L23.1644 9.5311C22.8359 9.37011 22.4104 9.29041 21.8886 9.29041C21.3684 9.29041 20.9181 9.36965 20.5384 9.52884ZM20.5384 10.4826L20.6161 10.6134C20.9702 10.4649 21.3941 10.3903 21.8886 10.3903C22.3817 10.3903 22.7775 10.4645 23.0767 10.6111L23.1644 10.4849C22.8359 10.3239 22.4104 10.2442 21.8886 10.2442C21.3684 10.2442 20.9181 10.3234 20.5384 10.4826Z" fill="#F4B300"/>
</g>
</svg>
