<svg width="32" height="24" viewBox="0 0 32 24" fill="none" xmlns="http://www.w3.org/2000/svg">
<mask id="mask0_1957_20397" style="mask-type:luminance" maskUnits="userSpaceOnUse" x="0" y="0" width="32" height="24">
<rect width="32" height="24" fill="white"/>
</mask>
<g mask="url(#mask0_1957_20397)">
<path fill-rule="evenodd" clip-rule="evenodd" d="M0 0V24H32V0H0Z" fill="#2E42A5"/>
<mask id="mask1_1957_20397" style="mask-type:luminance" maskUnits="userSpaceOnUse" x="0" y="0" width="32" height="24">
<path fill-rule="evenodd" clip-rule="evenodd" d="M0 0V24H32V0H0Z" fill="white"/>
</mask>
<g mask="url(#mask1_1957_20397)">
<path fill-rule="evenodd" clip-rule="evenodd" d="M0 0V8H32V0H0Z" fill="#FECA00"/>
<path fill-rule="evenodd" clip-rule="evenodd" d="M0 16V24H32V16H0Z" fill="#E31D1C"/>
<path fill-rule="evenodd" clip-rule="evenodd" d="M13.7388 11.6716L14.4288 11.2802L15.203 11.6716L14.925 10.8761L15.5032 10.2914H14.7673L14.4277 9.53857L14.1382 10.2914H13.2748L13.9239 10.8656H13.1959L12.8564 10.1127L12.5669 10.8656H11.7035L12.3645 11.4502L12.2381 11.9603H11.6873L11.3478 11.2074L11.0582 11.9603H10.1949L10.8558 12.5449L10.7336 13.0384H10.4924L10.1529 12.2856L9.86333 13.0384H9L9.66098 13.6231L9.46391 14.4186L10.1539 14.0272L10.9282 14.4186L10.6501 13.6231L11.2284 13.0384H11.1913L11.3488 12.9491L12.123 13.3405L11.845 12.5449L12.1763 12.21L12.1674 12.2458L12.8575 11.8543L13.6317 12.2458L13.3536 11.4502L13.9282 10.8693L13.9358 10.8761L13.7388 11.6716Z" fill="#F7FCFF"/>
<path fill-rule="evenodd" clip-rule="evenodd" d="M18.2932 11.6411L17.6032 11.2497L16.829 11.6411L17.107 10.8456L16.5287 10.2609H17.2647L17.6042 9.50806L17.8938 10.2609H18.7571L18.108 10.835H18.8395L19.179 10.0822L19.4685 10.835H20.3319L19.6709 11.4197L19.7973 11.9298H20.3481L20.6876 11.1769L20.9772 11.9298H21.8405L21.1796 12.5144L21.3018 13.0079H21.543L21.8825 12.255L22.1721 13.0079H23.0354L22.3744 13.5925L22.5715 14.3881L21.8815 13.9967L21.1072 14.3881L21.3853 13.5925L20.807 13.0079H20.8441L20.6866 12.9185L19.9124 13.31L20.1904 12.5144L19.8591 12.1794L19.868 12.2152L19.1779 11.8238L18.4037 12.2152L18.6818 11.4197L18.1056 10.8372L18.0961 10.8456L18.2932 11.6411Z" fill="#F7FCFF"/>
<path fill-rule="evenodd" clip-rule="evenodd" d="M15.9127 10.7416L15.2227 11.1331L15.4198 10.3375L14.7588 9.75287H15.6221L15.9117 9L16.2512 9.75287H16.9872L16.4089 10.3375L16.687 11.1331L15.9127 10.7416Z" fill="#F7FCFF"/>
</g>
</g>
</svg>
