<svg width="32" height="24" viewBox="0 0 32 24" fill="none" xmlns="http://www.w3.org/2000/svg">
<mask id="mask0_1957_20409" style="mask-type:luminance" maskUnits="userSpaceOnUse" x="0" y="0" width="32" height="24">
<rect width="32" height="24" fill="white"/>
</mask>
<g mask="url(#mask0_1957_20409)">
<path fill-rule="evenodd" clip-rule="evenodd" d="M0 0V24H32V0H0Z" fill="#F7FCFF"/>
<mask id="mask1_1957_20409" style="mask-type:luminance" maskUnits="userSpaceOnUse" x="0" y="0" width="32" height="24">
<path fill-rule="evenodd" clip-rule="evenodd" d="M0 0V24H32V0H0Z" fill="white"/>
</mask>
<g mask="url(#mask1_1957_20409)">
<path fill-rule="evenodd" clip-rule="evenodd" d="M17.0873 9.79526C17.2456 9.88532 17.3405 10.1159 17.3405 10.1159H14.6668L14.8514 9.79526C14.8514 9.79526 14.6668 9.71148 14.7597 9.71148C14.8525 9.71148 15.1174 9.33991 15.1174 9.33991H15.0069C15.0069 9.33991 14.95 9.24748 15.1174 9.24748C15.2847 9.24748 15.4184 8.64939 15.4184 8.64939C15.4184 8.64939 15.5282 8.36957 15.2594 8.29894C14.9907 8.22832 14.6668 8.53287 14.6668 8.53287C14.6668 8.53287 14.7458 8.04563 14.8514 7.94008C14.9005 7.89104 14.9921 7.88324 15.076 7.87609C15.1728 7.86785 15.2594 7.86048 15.2594 7.79191C15.2594 7.66382 15.5741 7.56396 16.0884 7.56396C16.6027 7.56396 16.7896 8.17827 16.7896 8.29894C16.7896 8.41962 16.9655 9.06102 16.9655 9.06102C16.9655 9.06102 16.7896 9.06102 16.7896 9.14377C16.7896 9.22651 17.3405 9.58408 17.3405 9.58408C17.3405 9.58408 16.9291 9.7052 17.0873 9.79526ZM7.39112 7.60735C7.59625 7.51933 9.68084 8.14052 11.2424 8.60585C12.1404 8.87344 12.8654 9.08948 12.9606 9.08948C13.2212 9.08948 13.7117 9.72069 13.4664 9.98637C13.2212 10.252 13.1383 10.4073 13.3024 10.4073C13.4664 10.4073 14.2941 10.1925 14.2941 10.1925V12.6594C14.2941 12.6594 13.5009 12.8476 13.3024 12.6594C13.2062 12.5682 13.0596 12.5627 12.9339 12.558C12.8001 12.5531 12.69 12.5489 12.69 12.4431C12.69 12.238 12.233 12.2058 12.233 12.2058C12.233 12.2058 11.81 12.0663 11.81 11.9351C11.81 11.8038 11.5332 11.4329 11.5332 11.4329C11.5332 11.4329 10.4784 10.8358 9.58159 10.1804C9.40041 10.048 9.22135 9.9233 9.04992 9.80388C8.37275 9.33217 7.81453 8.94331 7.71421 8.49255C7.24582 8.02872 7.06803 7.74598 7.39112 7.60735ZM13.9749 12.8149C13.9749 12.8149 13.6198 13.0596 13.2269 13.7148C13.0336 14.0372 13.018 14.3212 13.0068 14.5265C12.9952 14.7386 12.9882 14.8668 12.7947 14.8668C12.5689 14.8668 12.405 14.9156 12.2716 14.9554C12.1801 14.9826 12.103 15.0056 12.03 15.0056C11.8507 15.0056 11.5065 15.6825 11.6786 15.8391C11.8507 15.9957 12.5719 16.2454 12.5719 15.8391C12.5719 15.4328 12.7659 15.202 13.1184 15.202C13.4709 15.202 14.1009 14.9686 14.1009 14.4566C14.1009 13.9445 14.7879 13.981 14.7879 13.981L13.9749 12.8149ZM20.9845 8.60585L20.9846 8.60584L20.9846 8.60583C22.5461 8.14051 24.6307 7.51933 24.8358 7.60735C25.1589 7.74598 24.9811 8.02872 24.5127 8.49255C24.4124 8.94331 23.8542 9.33217 23.177 9.80388L23.177 9.8039C23.0056 9.92332 22.8265 10.048 22.6453 10.1804C21.7485 10.8358 20.6937 11.4329 20.6937 11.4329C20.6937 11.4329 20.4169 11.8038 20.4169 11.9351C20.4169 12.0663 19.994 12.2058 19.994 12.2058C19.994 12.2058 19.5369 12.238 19.5369 12.4431C19.5369 12.5489 19.4269 12.5531 19.293 12.558C19.1673 12.5627 19.0207 12.5682 18.9246 12.6594C18.726 12.8476 17.9329 12.6594 17.9329 12.6594V10.1925C17.9329 10.1925 18.7605 10.4073 18.9246 10.4073C19.0887 10.4073 19.0057 10.252 18.7605 9.98637C18.5153 9.72069 19.0057 9.08948 19.2664 9.08948C19.3616 9.08948 20.0866 8.87344 20.9845 8.60585ZM18.252 12.8149C18.252 12.8149 18.6071 13.0596 19 13.7148C19.1933 14.0372 19.2089 14.3212 19.2201 14.5265C19.2317 14.7386 19.2388 14.8668 19.4322 14.8668C19.6581 14.8668 19.8219 14.9156 19.9553 14.9554C20.0468 14.9826 20.1239 15.0056 20.1969 15.0056C20.3762 15.0056 20.7205 15.6825 20.5483 15.8391C20.3762 15.9957 19.655 16.2454 19.655 15.8391C19.655 15.4328 19.461 15.202 19.1085 15.202C18.756 15.202 18.126 14.9686 18.126 14.4566C18.126 13.9445 17.4391 13.981 17.4391 13.981L18.252 12.8149ZM14.431 14.5222C14.431 14.2966 14.8296 14.1265 14.8296 14.1265L16.0295 13.6201C16.0295 13.6201 16.0357 13.7343 16.0449 13.924C16.0541 13.7343 16.0602 13.6201 16.0602 13.6201L17.2602 14.1265C17.2602 14.1265 17.6588 14.2966 17.6588 14.5222C17.6588 14.6353 17.8284 14.8352 17.9976 15.0346L17.9976 15.0346C18.166 15.2332 18.3341 15.4313 18.3341 15.5429C18.3341 15.7397 17.8789 16.1823 17.604 16.4496C17.5665 16.486 17.5324 16.5192 17.5032 16.5481C17.4402 16.6104 17.3722 16.6875 17.3015 16.7677C17.0993 16.9969 16.8755 17.2506 16.6878 17.2506C16.5558 17.2506 16.4491 17.3425 16.3469 17.4305C16.2529 17.5114 16.1628 17.5891 16.0602 17.5891C16.0548 17.5891 16.0497 17.5865 16.0449 17.5817C16.04 17.5865 16.0349 17.5891 16.0295 17.5891C15.927 17.5891 15.8368 17.5114 15.7429 17.4305C15.6407 17.3425 15.534 17.2506 15.402 17.2506C15.2142 17.2506 14.9905 16.9969 14.7883 16.7677C14.7176 16.6875 14.6495 16.6104 14.5866 16.5481C14.5576 16.5194 14.5236 16.4863 14.4863 16.4501L14.4859 16.4497L14.4858 16.4496L14.4858 16.4496C14.2109 16.1823 13.7557 15.7397 13.7557 15.5429C13.7557 15.4313 13.9238 15.2332 14.0922 15.0346C14.2614 14.8352 14.431 14.6353 14.431 14.5222Z" fill="#E8AA00"/>
<path fill-rule="evenodd" clip-rule="evenodd" d="M10.1597 11.403C10.1858 11.7056 10.2719 11.8841 10.2719 11.8841C10.2719 11.8841 10.4233 12.1223 10.5092 12.125C10.5533 12.2346 10.6013 12.3469 10.6527 12.4613C10.8884 13.0892 11.2095 13.9143 11.5384 14.6658C11.5173 14.6498 11.4868 14.6322 11.4451 14.6127C11.17 14.4841 10.9725 14.4694 10.9725 14.4694C10.9725 14.4694 10.6037 14.4851 10.6417 14.5898C10.6798 14.6944 11.1371 14.9216 11.3227 14.854C11.3434 14.8465 11.3644 14.8393 11.385 14.8321L11.3851 14.8321C11.4704 14.8027 11.5492 14.7755 11.5711 14.7402C11.6148 14.8392 11.6586 14.9369 11.7023 15.0324C11.4279 14.9043 11.231 14.8897 11.231 14.8897C11.231 14.8897 10.8622 14.9054 10.9003 15.01C10.9383 15.1146 11.3956 15.3419 11.5812 15.2743C11.6019 15.2668 11.6229 15.2595 11.6436 15.2524C11.695 15.2347 11.744 15.2177 11.7797 15.1994C12.1111 15.906 12.431 16.47 12.6594 16.6125H13.1202C13.1202 16.6125 12.722 16.0497 12.2201 15.2618C12.3713 15.1544 12.5819 14.9174 12.5819 14.7684C12.5819 14.7464 12.5823 14.7242 12.5827 14.7025V14.7024V14.7024V14.7024V14.7024V14.7024V14.7023V14.7023V14.7023V14.7023V14.7023V14.7023C12.5856 14.5283 12.5881 14.3802 12.3971 14.5708C12.1821 14.7853 12.1007 14.9659 12.1007 14.9659C12.1007 14.9659 12.0909 14.9968 12.0801 15.0403C12.0397 14.976 11.999 14.9106 11.9578 14.8441C12.1093 14.7381 12.3234 14.4984 12.3234 14.3481C12.3234 14.3261 12.3238 14.304 12.3242 14.2822V14.2822V14.2821V14.2821V14.2821V14.2821V14.2821V14.2821V14.2821V14.282V14.282V14.282C12.3271 14.108 12.3296 13.9599 12.1386 14.1505C11.9236 14.3651 11.8422 14.5457 11.8422 14.5457C11.8422 14.5457 11.8322 14.5772 11.8212 14.6214C11.7632 14.5259 11.7048 14.4289 11.6464 14.3306C11.7944 14.2525 12.0649 13.9706 12.0649 13.8017C12.0649 13.7797 12.0653 13.7575 12.0656 13.7358V13.7357V13.7357V13.7357V13.7357V13.7357V13.7357V13.7356V13.7356V13.7356V13.7356C12.0686 13.5616 12.0711 13.4135 11.88 13.6041C11.665 13.8187 11.5837 13.9992 11.5837 13.9992C11.5837 13.9992 11.5593 14.0762 11.5448 14.1581C11.4684 14.0275 11.3925 13.8952 11.3179 13.7623C11.3202 13.7626 11.3226 13.7628 11.3251 13.7628C11.4364 13.7628 11.8063 13.4108 11.8063 13.2133C11.8063 13.1913 11.8067 13.1691 11.8071 13.1473V13.1473V13.1473V13.1473V13.1473V13.1473V13.1472V13.1472V13.1472V13.1472C11.81 12.9732 11.8125 12.8251 11.6214 13.0157C11.4064 13.2303 11.3251 13.4108 11.3251 13.4108C11.3251 13.4108 11.2703 13.5838 11.276 13.6873C11.1731 13.5023 11.073 13.3165 10.9779 13.1323L10.9804 13.1324C11.0917 13.1324 11.4617 12.7804 11.4617 12.5829C11.4617 12.5609 11.462 12.5386 11.4624 12.5168L11.4624 12.5168C11.4653 12.3428 11.4678 12.1947 11.2768 12.3853C11.0618 12.5999 10.9804 12.7804 10.9804 12.7804C10.9804 12.7804 10.9311 12.9363 10.9309 13.0406C10.831 12.844 10.7373 12.6499 10.6527 12.4613C10.6072 12.3402 10.5649 12.2264 10.5264 12.1219C10.5319 12.1195 10.5369 12.1157 10.5415 12.1103C10.613 12.025 10.5812 11.5154 10.4298 11.3884C10.413 11.3743 10.3962 11.3597 10.3797 11.3454C10.2483 11.2313 10.1364 11.1342 10.1597 11.403ZM10.6712 12.1772C10.6712 12.1772 10.6859 11.9796 10.8146 11.7045C10.9289 11.46 10.9772 11.6001 11.034 11.7646L11.034 11.7646C11.0411 11.7852 11.0483 11.8062 11.0559 11.8269C11.1234 12.0126 10.8962 12.4698 10.7916 12.5079C10.687 12.546 10.6712 12.1772 10.6712 12.1772ZM11.1866 14.0665C10.9115 13.9378 10.7139 13.9231 10.7139 13.9231C10.7139 13.9231 10.3452 13.9389 10.3832 14.0435C10.4213 14.1481 10.8785 14.3754 11.0642 14.3078C11.0848 14.3003 11.1058 14.293 11.1264 14.2859L11.1265 14.2859L11.1265 14.2859C11.291 14.2291 11.4311 14.1808 11.1866 14.0665ZM10.4554 13.3347C10.4554 13.3347 10.6529 13.3494 10.928 13.4781C11.1725 13.5924 11.0324 13.6407 10.8679 13.6975C10.8473 13.7046 10.8263 13.7119 10.8056 13.7194C10.6199 13.787 10.1627 13.5597 10.1246 13.4551C10.0866 13.3505 10.4554 13.3347 10.4554 13.3347ZM10.7126 12.8897C10.4375 12.761 10.24 12.7463 10.24 12.7463C10.24 12.7463 9.87116 12.7621 9.90923 12.8667C9.94731 12.9713 10.4045 13.1986 10.5902 13.131C10.6109 13.1235 10.6319 13.1162 10.6525 13.1091C10.817 13.0523 10.9571 13.004 10.7126 12.8897ZM10.1366 12.0384C10.1366 12.0384 10.3172 12.1198 10.5317 12.3348C10.7224 12.5258 10.5742 12.5233 10.4003 12.5204L10.4002 12.5204C10.3784 12.52 10.3562 12.5196 10.3342 12.5196C10.1366 12.5196 9.78467 12.1497 9.78467 12.0384C9.78467 11.9271 10.1366 12.0384 10.1366 12.0384Z" fill="#46A000"/>
<path fill-rule="evenodd" clip-rule="evenodd" d="M24.34 11.1843H22.9422C22.9422 11.1843 23.2385 11.1843 23.2711 11.4706C23.2711 11.4706 23.2779 13.8865 23.2711 14.0764C23.2642 14.2662 22.9422 14.3308 22.9422 14.3308C22.9422 14.3308 24.6379 14.3359 24.34 14.3308C24.0421 14.3256 23.9764 14.0764 23.9764 14.0764V11.4706C23.9764 11.25 24.34 11.1843 24.34 11.1843ZM8.56069 14.1371C8.40246 13.7286 7.42554 11.2273 7.42554 11.2273H8.39268C8.22466 11.2273 8.16228 11.4411 8.16228 11.4411L8.83971 13.3727C8.83971 13.3727 9.49479 11.7957 9.49479 11.516C9.49479 11.2364 9.2198 11.2273 9.2198 11.2273H10.4807L10.1761 11.329C10.1761 11.329 9.16717 13.642 9.16717 14.1371C9.11909 14.2469 9.63167 14.3199 9.63167 14.3199H8.2777L8.56069 14.1371ZM20.1378 13.2236L20.8871 11.843L20.9092 13.3791L20.6771 13.3038L20.5125 14.3295L21.3411 12.7405L21.0652 12.6368L22.0909 11.5265L21.7416 13.0272L21.5429 12.8522L20.3678 15.0446L21.6794 13.5419L21.4266 13.4156L22.7218 12.5676L22.1579 13.9495L21.8433 13.723L20.5125 15.3985L19.9605 15.1862L20.5125 13.2236H20.1378ZM19.7052 15.8419H19.2909V16.1571H18.9647L18.0409 17.2287H18.5508L18.7279 17.832L18.9647 17.6191V17.832L19.4278 17.6191L19.8705 18.0024L20.2008 16.5289L19.9785 16.3657L20.0927 16.2658L19.9785 15.8419H19.7052Z" fill="#0093E1"/>
<path fill-rule="evenodd" clip-rule="evenodd" d="M13.6478 9.66333C13.6478 9.66333 14.2564 10.0836 14.865 10.0836C15.4737 10.0836 16.0823 9.66333 16.0823 9.66333C16.0823 9.66333 16.6909 10.0836 17.2996 10.0836C17.9082 10.0836 18.5168 9.66333 18.5168 9.66333V11.5606C18.5168 13.5223 16.0823 15.0427 16.0823 15.0427C16.0823 15.0427 13.5299 13.6467 13.6478 11.5373V9.66333Z" fill="#F7FCFF"/>
<mask id="mask2_1957_20409" style="mask-type:luminance" maskUnits="userSpaceOnUse" x="13" y="9" width="6" height="7">
<path fill-rule="evenodd" clip-rule="evenodd" d="M13.6478 9.66333C13.6478 9.66333 14.2564 10.0836 14.865 10.0836C15.4737 10.0836 16.0823 9.66333 16.0823 9.66333C16.0823 9.66333 16.6909 10.0836 17.2996 10.0836C17.9082 10.0836 18.5168 9.66333 18.5168 9.66333V11.5606C18.5168 13.5223 16.0823 15.0427 16.0823 15.0427C16.0823 15.0427 13.5299 13.6467 13.6478 11.5373V9.66333Z" fill="white"/>
</mask>
<g mask="url(#mask2_1957_20409)">
<path fill-rule="evenodd" clip-rule="evenodd" d="M13.4755 9.53711H18.6031V11.5123H13.4755V9.53711Z" fill="#2E42A5"/>
<path fill-rule="evenodd" clip-rule="evenodd" d="M14.4665 11.5125H14.0356V15.5049H14.4665V11.5125ZM15.199 11.5125H14.7682V15.505H15.199V11.5125ZM15.5007 11.5125H15.9316V15.505H15.5007V11.5125ZM16.6641 11.5125H16.2332V15.505H16.6641V11.5125ZM16.9657 11.5125H17.3966V15.505H16.9657V11.5125ZM18.1291 11.5125H17.6982V15.505H18.1291V11.5125Z" fill="#AF0100"/>
</g>
</g>
</g>
</svg>
