<svg width="32" height="24" viewBox="0 0 32 24" fill="none" xmlns="http://www.w3.org/2000/svg">
<rect width="32" height="24" fill="white"/>
<path d="M12.4931 16.9548C12.0175 17.0554 11.3323 17.2617 11.0582 17.3774C10.9695 17.4177 10.9776 17.463 11.1146 17.634C11.2113 17.7447 11.3081 17.8403 11.3242 17.8403C11.3484 17.8403 11.6144 17.7649 11.9127 17.6693C12.211 17.5787 12.5921 17.4592 12.7672 17.4378C12.9011 17.4215 13.0235 17.406 13.0992 17.3864C13.1296 17.4326 13.1109 17.4068 13.1664 17.4794C13.2463 17.5837 13.1966 17.5813 13.3347 17.6099C13.4803 17.64 13.8394 17.5183 13.8394 17.5183C14.2586 17.4278 14.4924 17.4177 15.9999 17.4177C17.5074 17.4177 17.7412 17.4278 18.1604 17.5234C18.1604 17.5234 18.4977 17.595 18.5411 17.6036C18.5841 17.6122 18.6069 17.619 18.6524 17.6122C18.6939 17.606 18.7372 17.5664 18.7563 17.5424C18.7563 17.5424 18.849 17.4034 18.8728 17.3546C18.9531 17.3788 19.0995 17.4101 19.2406 17.4378C19.4099 17.473 19.7888 17.5787 20.0871 17.6693C20.3854 17.7649 20.6514 17.8403 20.6756 17.8403C20.6917 17.8403 20.7884 17.7447 20.8852 17.634C21.0786 17.3976 21.0948 17.4177 20.3934 17.1913C19.4583 16.8894 18.5231 16.7535 18.4345 16.8995C18.4183 16.9271 18.4047 16.9433 18.3825 16.9792C18.2888 16.9657 18.0435 16.9296 17.7976 16.9045C17.0398 16.8189 14.9599 16.8189 14.2022 16.9045C13.9563 16.9296 13.7901 16.9716 13.6511 16.9957C13.5725 16.8975 13.589 16.9365 13.5728 16.9089C13.5083 16.8082 13.0816 16.824 12.4931 16.9548H12.4931Z" fill="#DFDFDF"/>
<path d="M13.103 7.45971C13.0864 7.70018 13.1364 7.87028 13.267 7.99931C13.3254 8.0609 13.3754 8.13421 13.3754 8.13421C13.3754 8.13421 13.3087 8.20753 13.2531 8.26325C13.1225 8.39228 13.0697 8.55945 13.0697 8.7354C13.0697 8.91723 13.1225 9.04333 13.2642 9.20756C13.2642 9.20756 13.3839 9.26777 13.381 9.34246C13.378 9.41714 13.2531 9.49202 13.2531 9.49202C12.9974 9.79115 13.0058 10.1343 13.2726 10.4187L13.3865 10.5448H16.0045H18.6197L18.7476 10.4011C18.9949 10.1225 18.9949 9.82048 18.7504 9.50082C18.7504 9.50082 18.6273 9.41304 18.6253 9.33953C18.6233 9.26602 18.742 9.1929 18.742 9.1929C18.9977 8.87031 18.9921 8.57411 18.7281 8.26325C18.6086 8.12541 18.6058 8.09902 18.7003 8.0345C18.8532 7.92599 18.9477 7.55941 18.8782 7.33653C18.7754 7.00221 18.3335 6.77933 18.0639 6.92596C18.0139 6.95236 17.9138 7.02567 17.8388 7.08726C17.7637 7.15178 17.6943 7.20163 17.6804 7.20163C17.6693 7.20163 17.6026 7.14884 17.5331 7.08433C17.2635 6.84092 16.9389 6.81159 16.6693 7.08726C16.6693 7.08726 16.6309 7.23473 16.5743 7.23976C16.5176 7.24478 16.4381 7.10779 16.4381 7.10779C16.1629 6.83505 15.8183 6.84678 15.5376 7.13418C15.5376 7.13418 15.4983 7.25424 15.4348 7.23976C15.3713 7.22527 15.3191 7.08433 15.3191 7.08433C15.1552 6.92596 15.0513 6.9289 14.8623 6.92596C14.7535 6.9242 14.5564 6.95066 14.4374 7.03965C14.3183 7.12864 14.3394 7.23524 14.312 7.22803C14.2432 7.20988 14.1675 7.09899 14.1675 7.09899C13.9007 6.85851 13.6867 6.81746 13.4282 6.96116C13.2253 7.0726 13.1197 7.23683 13.103 7.45971Z" fill="#171796"/>
<path d="M13.2757 11.6387C13.2757 11.6387 13.3822 11.6906 13.3785 11.7571C13.3748 11.8236 13.2618 11.8899 13.2618 11.8899C13.1978 11.9621 13.1283 12.066 13.1061 12.1179C13.0171 12.3402 13.0838 12.6376 13.259 12.8079C13.3646 12.9147 13.3674 12.958 13.2673 13.085C13.2228 13.1398 13.17 13.2178 13.1506 13.2582C12.9421 13.6681 13.2534 14.1819 13.7149 14.1819C13.8984 14.1819 14.0374 14.1213 14.1625 13.9828C14.2626 13.8731 14.3154 13.8702 14.4044 13.9683C14.535 14.1184 14.7074 14.2108 14.852 14.2108C15.0215 14.2108 15.1272 14.156 15.2995 13.9857C15.2995 13.9857 15.3679 13.8521 15.4302 13.8529C15.4926 13.8536 15.5497 13.9885 15.5497 13.9885C15.8083 14.2772 16.0696 14.2859 16.4171 14.0116C16.4171 14.0116 16.4935 13.9005 16.5589 13.9019C16.6243 13.9034 16.6812 14.0174 16.6812 14.0174C16.8341 14.156 16.9481 14.2108 17.0982 14.2108C17.2484 14.2108 17.3596 14.1502 17.5347 13.9712C17.5347 13.9712 17.6251 13.8354 17.6793 13.8269C17.7334 13.8183 17.7905 13.9308 17.7905 13.9308C18.0045 14.13 18.1213 14.1935 18.277 14.1935C18.4382 14.1935 18.5522 14.1386 18.7135 13.9885C18.8636 13.8471 18.9442 13.6825 18.9247 13.5469C18.9053 13.3996 18.7774 13.1312 18.6829 13.0388C18.6829 13.0388 18.5881 13.0305 18.6023 12.958C18.6164 12.8854 18.7274 12.8108 18.7274 12.8108C18.9998 12.4788 19.0026 12.2219 18.7329 11.8928C18.7329 11.8928 18.6203 11.8277 18.6217 11.7542C18.6231 11.6807 18.7385 11.607 18.7385 11.607C18.9998 11.2866 18.997 10.9892 18.7329 10.6977L18.5911 10.5447L15.989 10.5476L13.3869 10.5505L13.2701 10.6861C12.9977 11.0008 13.0004 11.3212 13.2757 11.6387Z" fill="#D42E12"/>
<path fill-rule="evenodd" clip-rule="evenodd" d="M17.3351 11.0005C17.4611 11.0005 17.5659 11.0863 17.5876 11.1994L17.5918 11.243V11.6939L18.1312 11.4075C18.2506 11.3442 18.3993 11.3884 18.4635 11.5064C18.5205 11.6113 18.4914 11.7391 18.4004 11.8108L18.3634 11.8348L17.9113 12.0749L18.3634 12.3149L18.4004 12.339C18.4914 12.4106 18.5205 12.5385 18.4635 12.6433C18.3993 12.7613 18.2506 12.8056 18.1312 12.7422L17.5918 12.4558V12.958C17.5918 13.0919 17.4768 13.2005 17.3351 13.2005C17.2091 13.2005 17.1043 13.1147 17.0826 13.0016L17.0784 12.958V12.517L16.6543 12.7422C16.5349 12.8056 16.3861 12.7613 16.322 12.6433C16.265 12.5385 16.294 12.4106 16.385 12.339L16.422 12.3149L16.8742 12.0749L16.422 11.8348L16.385 11.8108C16.294 11.7391 16.265 11.6113 16.322 11.5064C16.3861 11.3884 16.5349 11.3442 16.6543 11.4075L17.0784 11.6327V11.243C17.0784 11.1091 17.1933 11.0005 17.3351 11.0005Z" fill="#E9D315"/>
<path fill-rule="evenodd" clip-rule="evenodd" d="M14.8424 11.0005C14.9684 11.0005 15.0732 11.0863 15.0949 11.1994L15.0991 11.243V11.6939L15.6385 11.4075C15.7579 11.3442 15.9067 11.3884 15.9708 11.5064C16.0278 11.6113 15.9987 11.7391 15.9077 11.8108L15.8707 11.8348L15.4186 12.0749L15.8707 12.3149L15.9077 12.339C15.9987 12.4106 16.0278 12.5385 15.9708 12.6433C15.9067 12.7613 15.7579 12.8056 15.6385 12.7422L15.0991 12.4558V12.958C15.0991 13.0919 14.9842 13.2005 14.8424 13.2005C14.7164 13.2005 14.6116 13.1147 14.5899 13.0016L14.5858 12.958V12.517L14.1616 12.7422C14.0422 12.8056 13.8934 12.7613 13.8293 12.6433C13.7723 12.5385 13.8014 12.4106 13.8924 12.339L13.9294 12.3149L14.3815 12.0749L13.9294 11.8348L13.8924 11.8108C13.8014 11.7391 13.7723 11.6113 13.8293 11.5064C13.8934 11.3884 14.0422 11.3442 14.1616 11.4075L14.5858 11.6327V11.243C14.5858 11.1091 14.7007 11.0005 14.8424 11.0005Z" fill="#E9D315"/>
<path d="M12.1854 10.4395H12.3354V10.4396C12.3354 10.4402 12.3355 10.4635 12.3355 10.5061C12.2505 10.5035 12.1872 10.4414 12.1855 10.4397L12.1854 10.4396L12.1854 10.4398L12.1854 10.4402L12.1855 10.4419L12.1855 10.4486L12.1855 10.4749L12.1855 10.5755L12.1858 10.9416L12.1868 12.1145C12.1878 13.006 12.1894 14.0112 12.1917 14.4696C12.1868 14.5721 12.2162 14.6523 12.276 14.719C12.3018 14.7477 12.3308 14.7712 12.3554 14.7902C12.3678 14.7998 12.378 14.8075 12.3879 14.8149C12.4016 14.8251 12.4146 14.8349 12.4314 14.8482C12.5043 14.906 12.6246 14.9488 12.7546 14.9824C12.8921 15.0179 13.0651 15.049 13.2629 15.0724C13.6572 15.1192 14.1591 15.1367 14.6913 15.095C14.9093 15.0973 15.0671 15.1397 15.1865 15.1975C15.3072 15.2558 15.3962 15.3335 15.4724 15.4159C15.511 15.4577 15.5456 15.4999 15.5808 15.5429L15.5833 15.546C15.6165 15.5866 15.6521 15.63 15.6886 15.6682C15.7637 15.7467 15.8663 15.8281 16.0137 15.8281C16.1619 15.8281 16.2635 15.7458 16.3369 15.6661C16.3733 15.6265 16.4082 15.5816 16.4406 15.5399L16.4424 15.5374C16.4753 15.495 16.5074 15.4537 16.5431 15.4127C16.6149 15.3304 16.6982 15.2537 16.8115 15.1962C16.9243 15.139 17.0748 15.0967 17.2861 15.095C17.8869 15.1041 18.3996 15.0896 18.786 15.0533C18.979 15.0352 19.1439 15.0114 19.2739 14.9814C19.3942 14.9536 19.5103 14.9152 19.5839 14.8525L19.589 14.8484C19.5935 14.8447 19.5996 14.8395 19.6069 14.8331C19.6215 14.8204 19.6413 14.8023 19.6625 14.7804C19.7006 14.7412 19.7602 14.6729 19.7877 14.5924C19.8122 14.5207 19.8185 14.4557 19.8188 14.4084C19.8189 14.3846 19.8175 14.3647 19.8159 14.3499C19.8155 14.3461 19.8151 14.3426 19.8146 14.3394V10.4395V6.14478V5.99478H19.6646H16H12.3354H12.1854V6.14478V10.4395Z" stroke="#292B2E" stroke-width="0.3"/>
<path d="M15.1704 8.24616C14.9735 8.61266 14.9652 8.77712 15.1288 9.07079C15.2563 9.29634 15.406 9.43965 15.6112 9.53128C16.1463 9.77326 16.8311 9.59471 17.1 9.14363C17.2663 8.8664 17.2469 8.40357 17.064 8.20152L17.0141 8.14749L16.9669 8.30725C16.9004 8.53514 16.8338 8.65026 16.7008 8.77242C16.4512 9.00031 16.1075 9.052 15.7526 8.91104C15.4781 8.80062 15.3672 8.64791 15.2647 8.22267L15.2397 8.11694L15.1704 8.24616L15.1704 8.24616Z" fill="white"/>
<path fill-rule="evenodd" clip-rule="evenodd" d="M23.9027 14.7983C23.9027 14.7983 23.6534 14.3071 24.284 14.0647C24.9146 13.8223 25.2228 14.1386 25.5006 14.4322C25.7783 14.7257 25.7478 15.6118 25.7478 15.6118L25.0614 16.7095L22.9559 17.1448L22.117 16.7095L21.1333 14.7983L21.2068 12.9219C21.2068 12.9219 21.3063 12.2031 21.3063 12.0543C21.3063 11.9055 21.7633 10.7523 21.7633 10.7523L22.1961 10.3236L23.4199 9.67256L23.9962 9.3847L24.7118 8.48023L24.6326 7.76019L23.8171 8.79898H23.1263L22.4073 9.1002L22.117 9.37386L21.7633 9.3847L21.6247 9.1002L22.0109 8.48023L22.5941 7.89305L22.3258 7.39649L22.7229 7.2156L22.6465 6.94188L23.0873 7.2156L23.4199 6.94188L23.4833 6.69015L22.7229 6.28267C22.7229 6.28267 23.4669 5.9705 23.8171 6.00308C24.1673 6.03566 24.4978 6.44775 24.4978 6.44775L25.5006 6.28267C25.5006 6.28267 25.2321 6.94188 25.3189 6.94188C25.4056 6.94188 25.9503 6.94188 25.9503 6.94188L25.7478 7.76019H26.5243L25.9503 8.3906L26.3984 8.63635L25.7165 9.1002L26.3984 9.559L25.7644 9.97545L26.1216 10.666L26.6838 10.3236L27 10.7523L26.5243 11.808L25.7478 12.3588L25.008 12.5452L24.284 12.7334L23.9962 12.9219L23.8171 12.1996L22.5941 13.0384L21.9588 14.3535L22.1458 15.5486L22.5941 16.1605L23.4199 16.4562L24.4978 16.2537L25.0614 15.5679L25.196 14.868C25.196 14.868 24.8695 14.3927 24.6326 14.4322C24.3958 14.4716 23.9027 14.7983 23.9027 14.7983Z" fill="#DFDFDF"/>
<path fill-rule="evenodd" clip-rule="evenodd" d="M8.09725 14.7983C8.09725 14.7983 8.34662 14.3071 7.71602 14.0647C7.08542 13.8223 6.7772 14.1386 6.49944 14.4322C6.22168 14.7257 6.2522 15.6118 6.2522 15.6118L6.93855 16.7095L9.04405 17.1448L9.88301 16.7095L10.8667 14.7983L10.7932 12.9219C10.7932 12.9219 10.6937 12.2031 10.6937 12.0543C10.6937 11.9055 10.2367 10.7523 10.2367 10.7523L9.80395 10.3236L8.58008 9.67256L8.00378 9.3847L7.28821 8.48023L7.36738 7.76019L8.18289 8.79898H8.87366L9.59269 9.1002L9.88301 9.37386L10.2367 9.3847L10.3753 9.1002L9.98913 8.48023L9.40591 7.89305L9.67417 7.39649L9.27707 7.2156L9.35347 6.94188L8.91271 7.2156L8.58008 6.94188L8.51671 6.69015L9.27707 6.28267C9.27707 6.28267 8.53312 5.9705 8.18289 6.00308C7.83266 6.03566 7.50224 6.44775 7.50224 6.44775L6.49944 6.28267C6.49944 6.28267 6.76791 6.94188 6.68114 6.94188C6.59438 6.94188 6.04974 6.94188 6.04974 6.94188L6.2522 7.76019H5.47566L6.04974 8.3906L5.60158 8.63635L6.28346 9.1002L5.60158 9.559L6.23558 9.97545L5.87838 10.666L5.3162 10.3236L5 10.7523L5.47566 11.808L6.2522 12.3588L6.99196 12.5452L7.71602 12.7334L8.00378 12.9219L8.18289 12.1996L9.40591 13.0384L10.0412 14.3535L9.85421 15.5486L9.40591 16.1605L8.58008 16.4562L7.50224 16.2537L6.93855 15.5679L6.80396 14.868C6.80396 14.868 7.13054 14.3927 7.36738 14.4322C7.60423 14.4716 8.09725 14.7983 8.09725 14.7983Z" fill="#DFDFDF"/>
</svg>
