<svg width="32" height="24" viewBox="0 0 32 24" fill="none" xmlns="http://www.w3.org/2000/svg">
<mask id="mask0_1957_20406" style="mask-type:luminance" maskUnits="userSpaceOnUse" x="0" y="0" width="32" height="24">
<rect width="32" height="24" fill="white"/>
</mask>
<g mask="url(#mask0_1957_20406)">
<path fill-rule="evenodd" clip-rule="evenodd" d="M0 0H32V24H0V0Z" fill="#F7FCFF"/>
<path fill-rule="evenodd" clip-rule="evenodd" d="M0 0V24H32V0H0Z" fill="#5EAA22"/>
<mask id="mask1_1957_20406" style="mask-type:luminance" maskUnits="userSpaceOnUse" x="0" y="0" width="32" height="24">
<path fill-rule="evenodd" clip-rule="evenodd" d="M0 0V24H32V0H0Z" fill="white"/>
</mask>
<g mask="url(#mask1_1957_20406)">
<rect x="27" y="10" width="5" height="14" fill="#FF8126"/>
<rect x="22" y="10" width="5" height="14" fill="#292B2E"/>
<rect x="17" y="10" width="5" height="14" fill="#C51918"/>
<path fill-rule="evenodd" clip-rule="evenodd" d="M24.5469 4.83768C25.0281 4.98695 24.5469 5.21545 24.5469 5.21545C24.5469 5.21545 24.4519 5.12228 24.4519 5.04448C24.4519 4.96668 24.0833 5.04448 23.8932 5.3268C23.713 5.59435 24.0451 5.59358 24.3941 5.59276C24.4133 5.59272 24.4326 5.59267 24.4519 5.59267C24.6491 5.59267 24.9576 5.57628 25.2444 5.56104C25.4938 5.54779 25.7269 5.5354 25.8565 5.5354C26.135 5.5354 26.2668 5.5354 26.6342 5.3268C26.8731 5.19119 27.663 5.0252 28.2502 4.90179C28.5664 4.83536 28.8238 4.78126 28.9049 4.75089C29.1367 4.6641 28.6731 5.12228 28.6731 5.12228C28.6731 5.12228 30.4616 4.51368 30.8199 4.30585C31.0413 4.17745 30.941 4.28704 30.7772 4.46597C30.6759 4.57665 30.5503 4.71386 30.4616 4.83768C30.3104 5.04865 30.6183 4.84752 30.9604 4.62413C31.1436 4.50444 31.3367 4.37836 31.4742 4.30585C31.8681 4.09803 31.374 4.66175 31.1568 4.83768C30.9396 5.01362 31.6668 4.83768 31.9185 4.66175C32.1038 4.53229 31.9346 4.75858 31.7922 4.94908C31.741 5.01746 31.6934 5.08124 31.6668 5.12228L31.6625 5.12882C31.5651 5.27905 31.5342 5.3268 31.7674 5.3268C32.0041 5.3268 31.1568 5.88259 31.1568 5.88259C31.1568 5.88259 31.4092 5.84878 31.1568 6.21885C31.008 6.437 30.2834 6.65737 29.6952 6.83629C29.2855 6.96089 28.9419 7.06539 28.9049 7.13503C28.8385 7.26009 28.1787 7.40493 27.8712 7.47243C27.7615 7.4965 27.6966 7.51074 27.7195 7.51074C27.8063 7.51074 27.9506 7.6034 27.7939 7.6034C27.6372 7.6034 27.362 7.67814 27.362 7.67814C27.362 7.67814 27.5068 7.67814 27.362 7.85228C27.2926 7.9357 27.171 7.92249 27.0857 7.91322C26.9929 7.90315 26.9431 7.89774 27.0503 8.02643C27.1445 8.13951 27.1805 8.18252 27.1716 8.19592C27.1611 8.21179 27.0878 8.18613 26.9739 8.18613C26.8741 8.18613 26.7675 8.1501 26.6555 8.11226C26.5318 8.07044 26.4015 8.02643 26.2668 8.02643C26.0204 8.02643 26.2677 8.17358 26.4222 8.2655C26.4287 8.26934 26.4349 8.27309 26.441 8.27672C26.5789 8.35902 26.5215 8.35885 26.2719 8.35813C26.2467 8.35806 26.2196 8.35798 26.1905 8.35798C26.0357 8.35798 25.9525 8.34373 25.9078 8.33608C25.8608 8.32804 25.8565 8.32729 25.8565 8.35798C25.8565 8.38742 25.7398 8.34644 25.5994 8.29714C25.454 8.2461 25.2833 8.18613 25.1903 8.18613C25.0074 8.18613 25.5779 8.50443 25.5779 8.50443C25.5779 8.50443 25.2807 8.42335 25.1198 8.35798C25.0283 8.32083 25.1446 8.4961 25.2495 8.65432C25.3292 8.77446 25.4024 8.88476 25.3731 8.88476C25.3509 8.88476 25.3019 8.86493 25.2461 8.84233C25.1316 8.79595 24.9883 8.7379 24.9883 8.81565C24.9883 8.93129 25.1198 9.01722 25.2807 9.01722C25.4417 9.01722 25.4681 9.19783 25.3731 9.19783C25.3402 9.19783 25.2996 9.18587 25.2607 9.1744C25.1874 9.15278 25.1198 9.13287 25.1198 9.19783C25.1198 9.23974 25.1484 9.27111 25.1815 9.30742C25.2269 9.35726 25.2807 9.4164 25.2807 9.52485C25.2807 9.71229 25.0413 9.73896 25.1198 9.61474C25.1984 9.49051 24.8473 9.19065 24.8473 9.33742V9.52485C24.8473 9.65737 24.817 9.66583 24.7697 9.67906C24.7406 9.6872 24.705 9.69714 24.6661 9.73896C24.608 9.80137 24.5992 9.83688 24.5944 9.85677C24.5895 9.87646 24.5885 9.88084 24.5469 9.88084C24.5139 9.88084 24.4865 9.83942 24.4497 9.78376C24.3931 9.69831 24.3143 9.57928 24.1592 9.52485C24.0118 9.47315 24.004 9.51066 23.9906 9.57551C23.9807 9.6234 23.9677 9.68619 23.8932 9.73896C23.7811 9.81827 23.8121 9.85116 23.8492 9.89048C23.8702 9.91276 23.8932 9.9371 23.8932 9.9731C23.8932 10.0727 23.6971 9.87353 23.6971 9.73896C23.6971 9.60439 23.4742 9.42537 23.4742 9.52485C23.4742 9.62433 23.4742 9.73896 23.3596 9.73896C23.3045 9.73896 23.3024 9.77213 23.2997 9.81669C23.2967 9.86469 23.2929 9.92591 23.221 9.9731C23.1502 10.0196 23.1517 9.99482 23.1551 9.94037C23.1584 9.88826 23.1634 9.80897 23.1082 9.73896C23.0392 9.65137 23.0969 9.51581 23.1262 9.44687C23.1448 9.40314 23.152 9.38622 23.1082 9.42537C22.9969 9.52489 22.855 9.52487 22.759 9.52485H22.7552C22.7069 9.52485 22.6646 9.57672 22.6346 9.61361C22.6049 9.65002 22.5872 9.67183 22.5872 9.61474C22.5872 9.4998 22.7294 9.19783 22.997 9.19783C23.2031 9.19783 23.3068 9.12729 23.396 9.06667C23.4226 9.04859 23.4479 9.03139 23.4742 9.01722C23.5888 8.9555 23.4742 8.87499 23.3596 8.81565C23.3076 8.78869 23.3265 8.70179 23.3626 8.62415C23.4262 8.58964 23.4742 8.54704 23.4742 8.50443C23.4742 8.45107 23.406 8.53092 23.3626 8.62415C23.2803 8.66887 23.1719 8.70001 23.1082 8.70001C23.0471 8.70001 23.0854 8.60673 23.1332 8.49002C23.1737 8.39139 23.221 8.27605 23.221 8.18613C23.221 8.1005 23.2379 8.02606 23.2496 7.97458C23.2647 7.90803 23.2711 7.87985 23.221 7.9155C23.1588 7.95974 22.8276 7.91108 22.6017 7.87789C22.5048 7.86366 22.4274 7.85228 22.3988 7.85228C22.3565 7.85228 22.3906 7.78534 22.4244 7.71876C22.4669 7.63497 22.5092 7.55176 22.3988 7.6034C22.2257 7.68433 21.8738 7.68091 21.6512 7.67874C21.6189 7.67843 21.5893 7.67814 21.5634 7.67814C21.4332 7.67814 21.5226 7.58129 21.5705 7.52936C21.5979 7.4997 21.6117 7.48469 21.5634 7.51074C21.4306 7.5824 21.2986 7.6034 21.1492 7.6034C21.0818 7.6034 21.0626 7.56971 21.0415 7.53284C21.0158 7.48792 20.9874 7.43828 20.8661 7.43907C20.6452 7.44053 20.5956 7.43762 20.474 7.35667C20.4107 7.31454 20.4462 7.28977 20.4664 7.2757C20.485 7.26273 20.4906 7.25886 20.3938 7.25886H19.7944C19.4958 7.25886 19.7953 7.06266 19.9029 7.06266C20.0105 7.06266 20.1353 6.8861 19.9029 6.96538C19.7542 7.01612 19.595 7.00191 19.4069 6.9851C19.301 6.97565 19.186 6.96538 19.0586 6.96538C18.7044 6.96538 18.6365 6.82729 18.8459 6.82729C19.0553 6.82729 19.0677 6.72613 18.7422 6.72613C18.5379 6.72613 18.37 6.67936 18.2449 6.6445C18.1706 6.62379 18.1113 6.60728 18.0685 6.60728C17.9537 6.60728 17.8295 6.47113 18.0685 6.47113C18.3076 6.47113 18.6142 6.35765 18.3526 6.35765C18.2048 6.35765 17.9583 6.29128 17.7439 6.23355C17.5788 6.18909 17.4326 6.14974 17.3651 6.14974C17.3133 6.14974 17.3943 6.13507 17.5023 6.11553C17.7175 6.07656 18.0397 6.01821 17.6287 6.01821C17.1899 6.01821 16.7301 5.71646 16.4126 5.50805C16.2836 5.42343 16.1781 5.3542 16.107 5.3268C15.8607 5.23189 16.107 5.04448 16.178 5.12228C16.2489 5.20008 16.7457 5.31971 16.5305 5.21545C16.3153 5.11118 16.178 4.93375 16.107 4.83768C16.0361 4.74162 16.0907 4.67526 16.178 4.75089C16.2652 4.82652 16.668 5.04448 16.668 5.04448C16.668 5.04448 16.4525 4.83768 16.2814 4.51368C16.1104 4.18967 16.4525 4.26859 16.7457 4.51368C17.0389 4.75876 17.3138 4.82361 17.4518 4.83768C17.5898 4.85176 17.3138 4.66115 17.0481 4.51368C16.7824 4.3662 16.8427 3.83824 17.0481 4.04905C17.1549 4.15872 17.6611 4.36772 18.1562 4.57214C18.6127 4.76065 19.0598 4.94527 19.1756 5.04448C19.3759 5.21618 19.2147 4.96022 19.0401 4.68294C19.0044 4.62625 18.9682 4.56867 18.9343 4.51368C18.8184 4.32531 19.2843 4.53933 19.8144 4.78282C20.1961 4.95817 20.6112 5.1488 20.8661 5.21545C21.0417 5.26136 21.2515 5.33486 21.461 5.40831C21.9781 5.58954 22.4941 5.7704 22.4941 5.5354C22.4941 5.20516 22.9671 4.68842 23.4742 4.51368C23.7961 4.40277 23.9476 4.50303 24.1384 4.62924C24.2482 4.70189 24.3711 4.78315 24.5469 4.83768ZM24.0012 8.71366C24.1157 8.71366 24.0844 7.71019 24.0844 7.71019C24.0844 7.71019 24.4222 8.32554 24.4222 8.59181C24.4222 8.71297 24.4121 8.7491 24.4152 8.78405C24.4189 8.82591 24.4417 8.86608 24.5236 9.04865C24.6069 9.23427 24.5517 9.21418 24.4012 9.15935C24.28 9.11524 24.0971 9.04865 23.8749 9.04865C23.3767 9.04865 23.8868 8.71366 24.0012 8.71366Z" fill="#FF8126"/>
</g>
</g>
</svg>
