<svg
                    xmlns="http://www.w3.org/2000/svg"
                    width="10"
                    height="17"
                    viewBox="0 0 10 17"
                    fill="none">
                    <path
                      d="M5.33333 6.72222H8.82102C9.08125 6.72222 9.27219 6.96678 9.20908 7.21924L8.96463 8.19701C8.92012 8.37508 8.76013 8.5 8.57658 8.5H5.33333V16.1C5.33333 16.3209 5.15425 16.5 4.93333 16.5H3.95556C3.73464 16.5 3.55556 16.3209 3.55556 16.1V8.5H0.4C0.179086 8.5 0 8.32091 0 8.1V7.12222C0 6.90131 0.179086 6.72222 0.4 6.72222H3.55556V5.05822C3.55556 3.47333 3.72089 2.89822 4.03022 2.31867C4.33334 1.74605 4.80161 1.27779 5.37422 0.974667C5.95378 0.665333 6.52889 0.5 8.11378 0.5C8.44883 0.5 8.75423 0.523175 9.02929 0.569525C9.20958 0.599906 9.33333 0.761271 9.33333 0.944103V1.87778C9.33333 2.09869 9.15425 2.27778 8.93333 2.27778H8.11378C6.93689 2.27778 6.57867 2.34711 6.21333 2.54267C5.94311 2.68667 5.74222 2.88756 5.59822 3.15778C5.40267 3.52311 5.33333 3.88133 5.33333 5.05822V6.72222Z"
                      fill="#292B2E" />
                  </svg>