<svg
                    xmlns="http://www.w3.org/2000/svg"
                    width="16"
                    height="17"
                    viewBox="0 0 16 17"
                    fill="none">
                    <path
                      d="M7.77143 6.03143C8.60983 5.17474 9.70149 4.61429 10.9714 4.61429C12.3051 4.61429 13.5841 5.14408 14.5272 6.08712C15.4702 7.03016 16 8.3092 16 9.64286V16.1C16 16.3209 15.8209 16.5 15.6 16.5H14.5714C14.3505 16.5 14.1714 16.3209 14.1714 16.1V9.64286C14.1714 8.79416 13.8343 7.98023 13.2342 7.38012C12.6341 6.78 11.8201 6.44286 10.9714 6.44286C10.1227 6.44286 9.3088 6.78 8.70869 7.38012C8.10857 7.98023 7.77143 8.79416 7.77143 9.64286V16.1C7.77143 16.3209 7.59234 16.5 7.37143 16.5H6.34286C6.12194 16.5 5.94286 16.3209 5.94286 16.1V5.47143C5.94286 5.25051 6.12194 5.07143 6.34286 5.07143H7.37143C7.59234 5.07143 7.77143 5.25051 7.77143 5.47143V6.03143ZM1.37143 3.24286C1.0077 3.24286 0.658875 3.09837 0.401682 2.84118C0.144489 2.58398 0 2.23515 0 1.87143C0 1.5077 0.144489 1.15887 0.401682 0.901682C0.658875 0.644489 1.0077 0.5 1.37143 0.5C1.73515 0.5 2.08398 0.644489 2.34118 0.901682C2.59837 1.15887 2.74286 1.5077 2.74286 1.87143C2.74286 2.23515 2.59837 2.58398 2.34118 2.84118C2.08398 3.09837 1.73515 3.24286 1.37143 3.24286ZM0.457143 5.47143C0.457143 5.25051 0.636229 5.07143 0.857143 5.07143H1.88571C2.10663 5.07143 2.28571 5.25051 2.28571 5.47143V16.1C2.28571 16.3209 2.10663 16.5 1.88571 16.5H0.857143C0.636229 16.5 0.457143 16.3209 0.457143 16.1V5.47143Z"
                      fill="#292B2E" />
                  </svg>