<svg
                    xmlns="http://www.w3.org/2000/svg"
                    width="16"
                    height="14"
                    viewBox="0 0 16 14"
                    fill="none">
                    <path
                      d="M14.0848 2.896C14.024 2.6576 13.8512 2.4776 13.6536 2.4224C13.304 2.324 11.6 2.1 8 2.1C4.4 2.1 2.6976 2.324 2.3448 2.4224C2.1496 2.4768 1.9768 2.6568 1.9152 2.896C1.828 3.2352 1.6 4.6568 1.6 6.9C1.6 9.1432 1.828 10.564 1.9152 10.9048C1.976 11.1424 2.1488 11.3224 2.3456 11.3768C2.6976 11.476 4.4 11.7 8 11.7C11.6 11.7 13.3032 11.476 13.6552 11.3776C13.8504 11.3232 14.0232 11.1432 14.0848 10.904C14.172 10.5648 14.4 9.14 14.4 6.9C14.4 4.66 14.172 3.236 14.0848 2.896ZM15.6344 2.4984C16 3.924 16 6.9 16 6.9C16 6.9 16 9.876 15.6344 11.3016C15.4312 12.0896 14.8368 12.7096 14.084 12.9192C12.7168 13.3 8 13.3 8 13.3C8 13.3 3.2856 13.3 1.916 12.9192C1.16 12.7064 0.5664 12.0872 0.3656 11.3016C2.38419e-08 9.876 0 6.9 0 6.9C0 6.9 2.38419e-08 3.924 0.3656 2.4984C0.5688 1.7104 1.1632 1.0904 1.916 0.8808C3.2856 0.5 8 0.5 8 0.5C8 0.5 12.7168 0.5 14.084 0.8808C14.84 1.0936 15.4336 1.7128 15.6344 2.4984ZM6.4 9.7V4.1L11.2 6.9L6.4 9.7Z"
                      fill="#292B2E" />
                  </svg>