                  <svg
                    xmlns="http://www.w3.org/2000/svg"
                    width="16"
                    height="17"
                    viewBox="0 0 16 17"
                    fill="none">
                    <path
                      d="M8 6.1C7.36348 6.1 6.75303 6.35286 6.30294 6.80294C5.85286 7.25303 5.6 7.86348 5.6 8.5C5.6 9.13652 5.85286 9.74697 6.30294 10.1971C6.75303 10.6471 7.36348 10.9 8 10.9C8.63652 10.9 9.24697 10.6471 9.69706 10.1971C10.1471 9.74697 10.4 9.13652 10.4 8.5C10.4 7.86348 10.1471 7.25303 9.69706 6.80294C9.24697 6.35286 8.63652 6.1 8 6.1ZM8 4.5C9.06087 4.5 10.0783 4.92143 10.8284 5.67157C11.5786 6.42172 12 7.43913 12 8.5C12 9.56087 11.5786 10.5783 10.8284 11.3284C10.0783 12.0786 9.06087 12.5 8 12.5C6.93913 12.5 5.92172 12.0786 5.17157 11.3284C4.42143 10.5783 4 9.56087 4 8.5C4 7.43913 4.42143 6.42172 5.17157 5.67157C5.92172 4.92143 6.93913 4.5 8 4.5ZM13.2 4.3C13.2 4.56522 13.0946 4.81957 12.9071 5.00711C12.7196 5.19464 12.4652 5.3 12.2 5.3C11.9348 5.3 11.6804 5.19464 11.4929 5.00711C11.3054 4.81957 11.2 4.56522 11.2 4.3C11.2 4.03478 11.3054 3.78043 11.4929 3.59289C11.6804 3.40536 11.9348 3.3 12.2 3.3C12.4652 3.3 12.7196 3.40536 12.9071 3.59289C13.0946 3.78043 13.2 4.03478 13.2 4.3ZM8 2.1C6.0208 2.1 5.6976 2.1056 4.7768 2.1464C4.1496 2.176 3.7288 2.26 3.3384 2.412C2.9912 2.5464 2.7408 2.7072 2.4744 2.9744C2.22401 3.21632 2.03148 3.51167 1.9112 3.8384C1.7592 4.2304 1.6752 4.6504 1.6464 5.2768C1.6048 6.16 1.6 6.4688 1.6 8.5C1.6 10.4792 1.6056 10.8024 1.6464 11.7232C1.676 12.3496 1.76 12.7712 1.9112 13.1608C2.0472 13.5088 2.2072 13.7592 2.4728 14.0248C2.7424 14.2936 2.9928 14.4544 3.3368 14.5872C3.732 14.74 4.1528 14.8248 4.7768 14.8536C5.66 14.8952 5.9688 14.9 8 14.9C9.9792 14.9 10.3024 14.8944 11.2232 14.8536C11.8488 14.824 12.2704 14.74 12.6608 14.5888C13.0072 14.4536 13.2592 14.2928 13.5248 14.0272C13.7944 13.7576 13.9552 13.5072 14.088 13.1632C14.24 12.7688 14.3248 12.3472 14.3536 11.7232C14.3952 10.84 14.4 10.5312 14.4 8.5C14.4 6.5208 14.3944 6.1976 14.3536 5.2768C14.324 4.6512 14.24 4.2288 14.088 3.8384C13.9674 3.512 13.7753 3.21677 13.5256 2.9744C13.2838 2.72388 12.9884 2.53133 12.6616 2.4112C12.2696 2.2592 11.8488 2.1752 11.2232 2.1464C10.34 2.1048 10.0312 2.1 8 2.1ZM8 0.5C10.1736 0.5 10.4448 0.508 11.2976 0.548C12.1496 0.588 12.7296 0.7216 13.24 0.92C13.768 1.1232 14.2128 1.3984 14.6576 1.8424C15.0644 2.24232 15.3792 2.72607 15.58 3.26C15.7776 3.7696 15.912 4.3504 15.952 5.2024C15.9896 6.0552 16 6.3264 16 8.5C16 10.6736 15.992 10.9448 15.952 11.7976C15.912 12.6496 15.7776 13.2296 15.58 13.74C15.3797 14.2742 15.0649 14.7581 14.6576 15.1576C14.2576 15.5643 13.7738 15.879 13.24 16.08C12.7304 16.2776 12.1496 16.412 11.2976 16.452C10.4448 16.4896 10.1736 16.5 8 16.5C5.8264 16.5 5.5552 16.492 4.7024 16.452C3.8504 16.412 3.2704 16.2776 2.76 16.08C2.22586 15.8796 1.74202 15.5648 1.3424 15.1576C0.935525 14.7577 0.620745 14.274 0.42 13.74C0.2216 13.2304 0.088 12.6496 0.048 11.7976C0.0104 10.9448 0 10.6736 0 8.5C0 6.3264 0.00799995 6.0552 0.048 5.2024C0.088 4.3496 0.2216 3.7704 0.42 3.26C0.620189 2.72574 0.935043 2.24186 1.3424 1.8424C1.74214 1.43538 2.22594 1.12058 2.76 0.92C3.2704 0.7216 3.8496 0.588 4.7024 0.548C5.5552 0.5104 5.8264 0.5 8 0.5Z"
                      fill="#292B2E" />
                  </svg>